<?xml version="1.0" encoding="utf-8"?>
<!-- Generator: Adobe Illustrator 22.1.0, SVG Export Plug-In . SVG Version: 6.00 Build 0)  -->
<svg version="1.1" id="Layer_1" xmlns="http://www.w3.org/2000/svg" xmlns:xlink="http://www.w3.org/1999/xlink" x="0px" y="0px"
	 viewBox="0 0 500 500" style="enable-background:new 0 0 500 500;" xml:space="preserve">
<style type="text/css">
	.st0{fill:#F393BE;}
	.st1{opacity:0.65;fill:#F38699;enable-background:new    ;}
	.st2{fill:#DD6799;}
	.st3{fill:#FFFFFF;}
	.st4{fill:#CC216C;}
	.st5{fill:#FBC7B6;}
	.st6{opacity:0.5;fill:#BF8683;enable-background:new    ;}
	.st7{fill:#F8951F;}
	.st8{opacity:0.65;fill:#EBA99F;enable-background:new    ;}
	.st9{fill:#EBA99F;}
	.st10{opacity:0.85;fill:#EBA99F;enable-background:new    ;}
	.st11{fill:#A41E22;}
	.st12{fill:#F1B2D1;}
</style>
<g id="Buddha_9_">
	<g>
		<path class="st0" d="M369.1,333.7l0.3,1.3l1.1-0.7c9.1-5.5,15.4-15.1,16.8-25.5c0-0.4,0.3-0.6,0.6-0.8c0.1,0,0.2-0.1,0.3-0.1
			c0.2,0,0.5,0.1,0.7,0.3c12.2,11.6,18.4,29.3,16.5,46.1l-0.2,1.9l1.6-1c7.6-4.7,13.7-11.5,17.7-19.5c0.2-0.3,0.5-0.5,0.8-0.5
			c0.4,0,0.7,0.1,0.9,0.5c13.6,22.3,10.9,53-6.3,72.9l-1.9,2.2l2.9-0.8c12.8-3.4,24.1-11.5,31.2-22.2c0.2-0.3,0.5-0.4,0.8-0.4
			c0.2,0,0.4,0.1,0.5,0.2c0.2,0.1,0.3,0.4,0.4,0.5c0.1,0.3,0.4,0.8,0.6,1.4l0.2,0.5c1.4,2.9,2.6,5.4,2.8,6.2c0.9,4,0.5,8.5,0,12.8
			c-1,8.8-3.9,17.3-8.3,24.7C438,451.6,415.3,465,395.9,465c-4.5,0-8.9-0.8-13-2.2l-0.4-0.1l-0.3,0.2c-5.7,2.7-11.9,4.2-17.9,4.2
			c-1.1,0-2.1-0.1-3.4-0.2l-0.7-0.1l-0.3,0.6c-4.4,10.2-12.6,18.6-22.3,23.2c-5.7,2.6-12.1,4.1-18.6,4.1c-9.9,0-19.7-3.2-27.4-9.1
			l-0.5-0.4l-1.1,0.5c-0.3,0.2-0.6,0.3-0.9,0.5c-7.6,3.5-17.1,5.4-26.5,5.4c-15.1,0-27.9-4.7-35.2-13l-0.7-0.8l-0.7,0.9
			c-4.8,5.8-13.5,7.9-21.3,9.3c-4.2,0.7-8.3,1.1-12.1,1.1c-13.2,0-23.5-4.3-30.2-12.9l-0.5-0.6l-0.7,0.4c-4.9,2.9-10.8,4.4-17.1,4.4
			c-10.4,0-20.7-4.2-28.2-11.3l-0.4-0.6l-0.7,0.3c-4.3,1.7-9,2.6-14,2.6c-6.3,0-12.8-1.4-18.9-4.2c-9.3-4.2-18-11.3-25.7-21.1
			c-9.9-12.6-16.8-27.7-19.9-43.5c-0.8-4,0.1-6.8,2.4-7.6c0.5-0.2,1-0.3,1.5-0.3c2.3,0,4.4,2.2,5.9,3.8c6.4,6.7,16.1,8.5,23.9,9.3
			l2.5,0.3l-1.7-1.8c-16.8-17.4-16.8-39.7-15.4-59.3c0.1-1.7,0.7-4,2.5-4.5c0.3-0.1,0.6-0.1,0.9-0.1c1.4,0,2.8,1.2,3.4,1.7L82,361.1
			l-0.4-2.5c-1.9-12.9-1.1-26.5,2.5-39c1-3.4,2.4-7,5.6-8.8c1.3-0.7,2.7-1.1,4.4-1.1c1.9,0,4,0.5,5.5,0.9c13,3.6,25,10.5,34.6,20.1
			l1.5-1c-5.2-14.9-6-31.4-2.1-46.4c0.1-0.4,0.5-0.7,0.9-0.7c0.1,0,0.2,0,0.2,0c21.4,5,40,22.1,52.6,39.4
			c1.4-19.1,12.3-35.8,25.2-50.2c9.2,6.8,17.9,17.4,22.6,27.7c4.8,10.3,5.9,20.2,8.6,31.2c2.5-10.7,5-21.5,9.4-31.8
			c4.3-10.1,10.6-19.7,19.5-26.4c18.7,17.4,24.9,35.1,28.5,57.4c6.4-14.6,15.4-26,25-38.6c-0.3,0.5,3.5,8.3,3.9,9.4
			c1.1,3,2.2,6.3,2.3,9.6c0.2,6.7,1.4,13.1,0.3,19.8c7.7-7,14.8-14.8,21.1-23.1c0.4-0.5,0.9-1.1,1.4-1.1c0.7,0,1.2,0.7,1.4,1.3
			C361.8,315.8,366.7,323.6,369.1,333.7z"/>
		<path class="st1" d="M453.4,388.1c0,0-0.1-0.1-0.1-0.2c0-0.1-0.2-0.3-0.4-0.5c-0.2-0.1-0.3-0.2-0.5-0.2c-0.3,0-0.6,0.2-0.8,0.4
			c-7,10.8-18.3,18.9-31.2,22.2l-2.9,0.8l1.9-2.2c17.3-19.9,19.9-50.5,6.3-72.9c-0.2-0.3-0.5-0.5-0.9-0.5c-0.3,0-0.7,0.2-0.8,0.5
			c-4,8-10,14.8-17.7,19.5l-1.6,1l0.2-1.9c1.9-16.9-4.3-34.6-16.5-46.1c-0.2-0.2-0.4-0.3-0.7-0.3c-0.1,0-0.2,0-0.3,0.1
			c-0.3,0.1-0.6,0.4-0.6,0.8c-1.4,10.4-7.7,20-16.8,25.5l-1.1,0.7l-0.3-1.3c-1.4-5.9-3.5-11.6-6.2-16.9c-2.2-4.4-5.5-7.3-8.4-11.2
			c-7.9,8-14.6,16.6-23.6,23.7c2.2-12.7,0.8-26.1-4.3-37.9c-9.8,12.3-18.2,25.7-24.9,39.9c-1.8-11.1-3.7-22.4-8-32.8
			c-4.3-10.4-11.5-20.1-21.5-25.2c-16.9,13.9-23.6,36.3-29,56.7c-1.5-11.3-4.1-22.6-9-32.9c-5-10.2-12.6-19.5-22.7-25
			c-6.4,7-11.7,15.1-16,23.6c-2,4-3.7,8.1-5.2,12.3c-0.8,2.1-4.9,12.3-3.4,14.2c-13.2-17-30.6-34.8-52.2-39.8c-0.1,0-0.2,0-0.2,0
			c-0.4,0-0.8,0.3-0.9,0.7c-3.8,15.1-3.1,31.6,2.1,46.4l-1.5,1c-9.6-9.6-21.5-16.6-34.6-20.1c-1-0.3-2.2-0.6-3.5-0.8
			c-1.7,2.3-3,5.1-4.3,8.3c-3.3,7.8-5,16.3-5,24.9c0,4.2,0.1,20.7,4.2,23.2c-3-1.8-6.1-3.6-9.1-5.4v0.2l-0.6-0.5
			c-0.2-0.1-0.4-0.2-0.5-0.3c6.2,5.9,12.4,11.8,18.5,17.7c1.1,1.1,2.2,2.2,2.7,3.7c0.8,3-1.9,6-5,6.5c-3,0.5-6.1-0.8-8.8-2.3
			c-12.2-6.8-21.5-18.4-25.4-31.9c2.1,17.8,11.8,34.5,26.1,45.3c-1.4,0.6-2.9,1-4.4,1.3c-5.2,1-10.7,0.7-15.7-0.8
			c-0.6-0.2-2-0.7-3.9-1.4c1.7,2.7,3.8,5.2,6.2,7.7l1.7,1.8l-2.5-0.3c-1.5-0.2-3.2-0.4-4.8-0.6c3.5,1.4,7.2,2.1,11,2.8
			c5.1,1,10.3,1.9,14.6,4.8c2.5,1.7,4.7,5.3,2.7,7.6c-1,1.2-2.7,1.4-4.2,1.5c-5.3,0.4-10.6-0.3-15.6-1.9c7.4,4.2,15.5,7.1,23.8,9.1
			c-21.4,0.1-42.5-11.1-54.5-28.8c8.1,16.5,15.4,31.9,30,43.9s34.4,18.7,52.9,14.8c7.4-1.6,14.5-4.8,21.9-6.9c11.2-3,21.4,0,32.4,2
			c34.9,6.5,70.2,13,105.5,10.8c30-1.8,60.1-5.8,90.1-8.9c11.2-1.2,22.6-2.3,33.4-5.7c10.8-3.3,21.1-9,28.4-17.7
			c-7.9,3.9-16.5,6.5-25.3,7.5c0.7-2.9,1.3-5.7,1.9-8.6c14-0.9,27.2-9.3,33.9-21.6c-1.2,7.3-4.3,14.3-9.2,19.9
			C450.2,420,454.2,403.8,453.4,388.1z"/>
		<path class="st2" d="M449.3,400.1c-3.3,20.5-21.9,30.9-41,33.1c-9.5,1.1-19.1,0.4-28.5-1.4c-3.1-0.6-6.1-1.4-9.1-2.4
			c3.7-3.9,7.1-8.2,11.8-11c5.5-3.4,12-3.9,18.2-4.5c4.4-0.5,10.4,0.6,14.3-1.9c2.9-1.9,4.7-4.9,6.5-7.9c6.6-11.3,12.6-23.8,11-36.9
			c-1.3,7-3,13.9-6.6,20c-3.6,6.1-8.9,11.4-15.6,13.6c-2.9,1-6.2,1.3-8.7-0.5c-1.4-1-2.2-2.3-3-3.8c5.7-3.5,10.7-8.6,14.1-13.1
			c7.8-10.4,10.7-23.3,11-36.1c-1.8,12.3-5.7,24.1-13.3,34.1c-3.5,4.5-7.5,8.3-12.4,11.4c-0.4,0.3-0.9,0.5-1.3,0.8
			c-3.1-4.7-7-8.9-11.8-12.1c8-6.3,14.9-14.2,19.9-23.1c-8.6,8.8-20.3,14.5-32.4,16.1c-2.8,0.4-5.8,0.5-8.4-0.7
			c-1.4-0.7-2.6-1.6-3.6-2.9c7.2-3.3,13.9-9.8,18.2-15.4c7.3-9.7,10.7-21.2,10.7-33.3c-0.5,9.5-3,18.5-7.9,26.5
			c1.4-2.5,2.4-5,3.2-7.3c-3.3,7.9-8.5,14.9-15.5,19.8c-3.5,2.5-7.3,3.9-11.2,5.3c-0.6-1.4-1.1-2.9-1.5-4.3c7.5-7.4,11.1-18.5,10-29
			c-0.6-5.1-2.2-10.5-4.1-15.3c-0.4-1.2-7.8-13.6-8.4-12.8c-3.2,4.9-6.4,9.6-10.4,13.9c-2,2.2-4.2,4.2-6.5,6.2c-1.2,1-6.4,4-6.7,5.2
			c2.1-9.7,1.7-19.7-1-29.2c1.3,15.4-4.1,31.4-14.3,43c4.9-12.9,8.3-26.4,10-40.1c-2.1,13.5-8.3,26.5-17.6,36.5
			c-1,1-2.1,2.1-3.5,1.8c-1.7-0.4-2.2-2.5-2.4-4.3c-2-18.4-8.2-36.5-18-52.3c5,8.2,8.9,16.7,10.7,26.2c1,4.6,1.6,9.6,1.4,14.4
			c-0.2,4.3,0.4,9-0.5,13.3c-0.8,4.1-2.9,8-6.4,10.1c-3.6,2.1-8.7,1.8-11.3-1.3c-2.5-3-2.3-7.3-2-11.3c1.2-16.7,0.2-33.6-2.7-50.1
			c0.9,14.3,0.4,28.7-1.9,42.8c-0.8,4.7-1.8,9.6-4.5,13.6c-2.7,4-7.5,6.9-12.3,6.1c-4.2-0.7-7.4-4.2-9.2-8s-2.1-8.2-2.4-12.4
			c-0.9-11.6-5.7-22.1-9.6-32.9c4.4,13.7,6.9,28.4,3.8,42.5c-0.5,2.2-1.4,4.7-3.5,5.6c-1.9,0.8-4.2-0.1-5.6-1.5
			c-1.4-1.4-2.1-3.5-2.8-5.4c-5.5-15.9-7.7-32.7-9.8-49.4c1.2,15.5,1.3,31.2,0.2,46.8c-0.2,3.4-0.8,7.2-3.6,9.1
			c-2.6,1.7-6.2,1-8.6-1c-2.4-1.8-4.1-4.6-5.7-7.2c-7.1-11.7-16-22.2-26.4-31.3c-5.2-4.5-10.7-8.8-16.5-12.6
			c-5.9-3.8-12.4-5.2-18.7-8c0.7,0.3,0.9,15.2,1.1,16.9c0.7,5.8,1.8,11.6,3.3,17.3c1.4,5.7,3.3,11.3,5.4,16.8
			c1.8,4.6,4.9,7.7,7.4,12c-8.6-2.2-16.6-8.9-21.7-15.9c6.2,8.9,12.9,19.5,10.2,30.9c-1.2,5-3.8,9.8-7.3,13.6
			c-2.9-2.5-6-4.7-8.6-7.4c-4.2-4.5-8.1-9.5-11.6-14.6c-6.9-10.1-12.6-21.2-17.1-32.6c-0.1-0.1-0.2-0.1-0.2,0.1
			c5.4,12.7,10.4,25.6,18.1,37.2c4.2,6.5,10,14.8,16.9,19.8c-3.4,2.8-7.2,4.7-11.7,5.2c-10.5,1.4-21.4-3.8-28.1-12
			c7.8,9.3,15.4,18.3,24,26.9c2.5,2.5,5.2,5.3,5.3,8.9c0.1,4.5-4.4,8.1-9,8.7c-4.1,0.5-7.5-1.7-11.3-1.6c4.6,5.2,10.6,9.7,17.1,13.3
			c-5.5,1.5-11,2.5-16.6,2.7c-22.5,0.8-42.6-9.2-57-26.3c0-0.1-0.1,0-0.1,0.1c12.7,18.3,34.9,29.1,57.1,30
			c8.2,0.3,16.5-0.4,24.4-2.4c7.7,3.7,15.7,6.7,22.9,9.2c17.7,6.1,35.9,9.8,54.3,13.5c6.4,1.3,12.9,2.6,19.3,1.4
			c4.9-0.9,9.8-3.5,12.6-7.4c-0.6,3.7,1.1,7.9,4.2,10.4c4.2,3.5,9.9,4.2,15.4,4.8c20.7,2,41.8,1.7,62-3.2
			c18.6-4.5,36.6-13.2,50.6-26.5c5.7,1.5,11.8,2.3,17.2,2.9c10.9,1.1,22.3,0.8,32.9-2C433.5,429.7,448.1,417.9,449.3,400.1z"/>
		<g>
			<path class="st3" d="M59.4,433.6c-7-11.9-12.1-24.5-18.5-36.6c-1.4-2.5-5.6-0.8-4.7,2c7.5,24.1,23,56.9,49.5,64.9
				c0.2,0.1,0.3-0.2,0.2-0.3C75.7,454.4,66.5,445.5,59.4,433.6z"/>
			<path class="st3" d="M68.5,398.7c-6.8-17.1-10.4-35.9-7.8-54.3c0.5-3.1-4.3-4.4-4.8-1.4c-3,20.1,0.1,39.2,12.5,55.6
				C68.4,398.8,68.5,398.8,68.5,398.7z"/>
		</g>
		<path class="st4" d="M457.9,395.7c-0.2-0.8-1.1-2.7-2.8-6.4c-0.4-0.8-0.7-1.4-0.8-1.6c-0.1-0.4-0.4-0.8-0.8-1
			c-0.9-0.6-2-0.3-2.5,0.6c-7,10.8-18.2,18.6-30.6,21.8c17.4-20,20.2-51.3,6.4-74c-0.4-0.6-1-0.9-1.6-0.9c-0.7,0-1.3,0.4-1.5,1.1
			c-3.9,7.8-9.9,14.6-17.4,19.1c1.9-17-4.4-35-16.8-46.8c-0.5-0.5-1.3-0.7-1.8-0.4c-0.7,0.2-1.2,0.8-1.3,1.4
			c-1.4,10-7.4,19.2-15.9,24.6c-1.4-10.3-8.3-23.6-14.3-29.9c-0.4-0.4-1-0.7-1.5-0.6c-0.6,0-1.1,0.4-1.4,0.8
			c-5.4,7.9-11.8,15.1-19.1,21.3c1.9-11.9-0.5-24.6-6.6-35c-0.3-0.6-0.9-0.9-1.5-0.9c-0.6,0-1.3,0.3-1.6,0.8
			c-8.3,11-15.6,22.8-21.8,35c-3.2-21.1-13.8-40.9-29.9-55c-0.4-0.3-0.9-0.5-1.4-0.5c-0.5,0-1,0.3-1.3,0.7
			c-12.4,14.2-21.4,31.7-26.1,50c-4-19.5-14.7-37.8-30.1-50.2c-0.4-0.3-0.9-0.5-1.4-0.4c-0.5,0.1-1,0.3-1.3,0.8
			c-1.4,1.9-2.9,3.8-4.2,5.6c-9.7,12.7-18.8,24.8-20.6,40.9c-7.2-10.1-18.2-23.3-41.8-32.2c-2.5-1.1-5.1-1.9-7.7-2.6
			c-0.1,0-0.2-0.1-0.2-0.1l0,0c-0.5-0.1-1-0.3-1.4-0.4c-1-0.2-1.9,0.4-2.2,1.4c-3.9,15.4-3.1,32,2.1,47c-9.7-9.7-21.7-16.7-35-20.4
			c-3.3-0.9-7.1-1.5-10.5,0.2c-3.5,1.9-5,5.8-6.1,9.3c-3.7,12.7-4.5,26.3-2.5,39.4L63,342.7c-0.9-0.8-2.8-2.5-5.1-1.7
			c-1.4,0.4-2.9,1.6-3.2,5.3c-1.4,20-1.3,42.4,15.7,60c-9-1-17.7-2.9-23.4-9c-1.9-2-4.9-5.2-8.4-3.8c-2.7,1.2-3.8,4.2-2.9,8.7
			c3.1,15.9,10,31.1,20.1,43.9c7.8,10,16.6,17.2,26.1,21.4c6.3,2.8,12.9,4.2,19.3,4.2c5,0,9.8-0.9,14.3-2.6l0,0
			c7.9,7.6,18.6,11.7,28.9,11.7c6.3,0,12.4-1.4,17.6-4.5c7,8.8,17.4,13.2,30.9,13.2c3.9,0,7.9-0.4,12.3-1.1c8.2-1.4,17-3.7,21.9-9.7
			c8.1,9.2,21.9,13.4,35.9,13.4c9.5,0,19-1.9,26.8-5.5c0.5-0.2,1-0.5,1.4-0.8c8,6.1,18,9.3,28,9.3c6.5,0,13-1.4,19-4.1
			c10.2-4.7,18.3-13.3,22.8-23.6c1.2,0.1,2.3,0.2,3.5,0.2c6.3,0,12.6-1.4,18.2-4.2c4.2,1.5,8.8,2.2,13.3,2.2
			c21,0,43.3-14.5,53.7-31.7c4.5-7.5,7.5-16.2,8.5-25.1C458.4,404.4,458.7,399.7,457.9,395.7z M58.3,346.3c0.1-1.6,0.5-2,0.6-2
			s0.4-0.1,1.6,1l21,18.5c0.1,0.1,0.2,0.1,0.2,0.2v0.1h0.1c8.7,7.7,17.7,15.6,26.2,23.8c-3.1,7.4-5.7,15.4-7.3,23.8
			c-7.4-3.9-16.1-4.6-24.5-5.2C59,391.4,56.5,372.2,58.3,346.3z M83.2,464c-8.9-4-17.2-10.8-24.6-20.4
			c-9.7-12.4-16.3-26.9-19.3-42.4c-0.4-1.8-0.4-4.2,0.8-4.6s3.1,1.4,4.4,2.9c7.3,7.8,18.5,9.7,29.4,10.4l1.6,0.1
			c8.6,0.7,17.5,1.4,24.6,5.4c-0.3,1.9-0.5,3.9-0.7,5.8c-1.4,17.2,3.6,33.6,13.1,44.7C103.6,469.1,93,468.4,83.2,464z M117.8,466.4
			c-10.6-10.2-16.1-26.9-14.8-44.7c1.3-16.5,7.8-32,14.2-45.1c22.2,13.4,36.8,38.2,37.8,64.1c-2.5,10.5-1.6,20.9,2.7,29.4l0,0
			c0.6,1.1,1.2,2.1,1.8,3.1C147.2,480.2,129.3,477.5,117.8,466.4z M225.5,473.9c-3.4,6.9-12.6,9.3-21.2,10.7
			c-21.2,3.6-35.8-1.9-43.2-16.4l0,0c-5.7-11.1-4.7-26,2.5-39.8c6.4-12.1,16.2-21.8,26-31.3c9.8,9.1,19.7,18.5,26.6,30
			c5.4,8.9,8.8,20.3,10.3,34.9C227,466.3,227.2,470.5,225.5,473.9z M228.1,448.4c-1.9-9-4.8-16.6-8.7-23
			c-7.5-12.5-18.2-22.4-28.6-32c-0.7-0.7-1.8-0.7-2.5,0c-10.3,9.9-21,20.3-27.9,33.4c-0.9,1.7-1.6,3.4-2.4,5.1
			c-3.7-24.6-18.8-47.2-40.5-59.6c-0.5-0.3-1-0.3-1.4-0.2c-0.5,0.2-0.9,0.5-1.1,1c-1.7,3.6-3.6,7.3-5.3,11.3
			c-7.9-7.7-16.3-15.1-24.4-22.3c-2.9-14-2.3-28.6,1.6-42.3c0.8-2.8,1.9-5.8,4.2-7c2.2-1.2,5.2-0.6,7.8,0.1
			c16.5,4.5,31.1,14.6,41.1,28.5c0.6,0.8,1.6,1,2.4,0.5c0.8-0.5,1.1-1.5,0.7-2.4c-8.8-16.3-11.4-35.9-7.2-54.1
			c2.1,0.6,4.4,1.3,6.7,2c23.9,9.1,34.8,22.7,43.7,35.9c0.5,0.7,1.4,1,2.1,0.8c0.8-0.3,1.4-1,1.4-1.8c-0.1-17.8,9.3-30.1,20.1-44.3
			c1.1-1.4,2-2.7,3.1-4.1c16.7,14.3,27.4,35.6,28.7,57.5c0.1,1,0.9,1.7,1.8,1.7c1,0,1.8-0.7,1.9-1.6c3.2-21,12.6-41.5,26.3-57.8
			c16.2,14.9,26.4,35.8,28,57.7c0.1,0.9,0.7,1.5,1.5,1.7c0.9,0.2,1.6-0.3,2-1.1c6.3-13.3,13.8-26.1,22.5-37.9
			c5.4,10.6,6.9,23.5,3.7,34.9c-0.2,0.8,0.1,1.6,0.8,2c0.7,0.5,1.5,0.4,2.2-0.1c8.7-6.7,16.3-14.6,22.6-23.5
			c3.4,4.2,7,10.5,9.3,16.8c1.4,3.8,2,8.4,2.8,12.3c0.1,0.6,0.5,1.1,1,1.3c0.5,0.3,1.2,0.3,1.6,0c9.8-5,17.2-14.5,19.8-25.3
			c10.8,11.9,15.7,29.2,12.7,44.9c-0.1,0.7,0.1,1.4,0.7,1.8c0.6,0.4,1.4,0.5,1.9,0.2c8.6-4.4,15.7-11.3,20.6-19.7
			c11.3,21.3,6.2,52.2-10.1,70.3c-2.7,0.4-5.4,0.6-8.1,0.6c-0.8-3.5-1.8-7-3.4-10.2c-6.7-14.5-20.3-25.9-36.3-30.5
			c-0.6-0.2-1.3,0-1.6,0.4c-0.5,0.4-0.7,1-0.7,1.5c1.7,17.1-1.7,34.7-9.6,49.9c-4.2-5.7-9.8-10.4-16.1-13.6
			c-0.6-0.3-1.3-0.3-1.8,0.1c-0.6,0.4-0.9,1-0.9,1.5c0.3,16.3-9,32.4-22.8,41c0.3-4,0.3-8.1-0.1-12.6c-1.8-21-16.7-40.6-37.1-48.8
			c-0.5-0.2-1-0.2-1.4,0.1c-0.5,0.2-0.8,0.7-1,1.2c-3.7,12.1-13.8,21-23.6,29.7l-2.2,1.9C240.3,429.8,232,438.3,228.1,448.4z
			 M288,483.3c-18.5,8.5-47,7.2-59.2-7.8c2-4.2,1.9-9.1,1.4-13.6c-0.2-1.6-0.4-3.3-0.6-4.9c1.6-12.6,11.6-23.1,21.2-31.7l2.1-1.9
			c9.7-8.6,19.6-17.4,24-29.5c18.2,8,31.3,25.8,33,44.9C311.9,461,304.8,475.6,288,483.3z M336.4,487.7c-13.4,6.2-29.8,4.5-41.9-3.8
			c10.3-6.3,16.5-15.7,18.6-28.4c15.4-8.3,26.1-25,27-42.6c12.7,7.6,21,22.1,20.8,37C360.8,465.9,350.8,481,336.4,487.7z
			 M362.1,463.8c1.5-4.4,2.4-9.1,2.5-13.8c0.1-8.7-2.4-17.3-7-24.7c8.4-15.4,12.4-33.4,11.1-51c14,4.7,25.6,15,31.5,27.7
			c1.7,3.9,3,7.9,3.6,12.1v0.3c0,0,0,0,0.1,0c1.6,10.9-0.5,22.3-6.3,31.3C389.9,457.5,375.7,464.6,362.1,463.8z M454.3,408.4
			c-0.9,8.4-3.7,16.5-7.9,23.7c-11.3,18.6-38.1,33.9-59.4,28.9c5.4-3.4,10.2-7.9,13.7-13.3c6.2-9.5,8.5-21.5,6.9-33.2
			c17.4-0.1,34.3-8.7,44.6-22.6c0.8,1.6,1.9,4.1,2.1,4.6C455.1,400,454.7,404.3,454.3,408.4z"/>
	</g>
	<g>
		<g>
			<path class="st5" d="M280.5,425.3c-1.3,0-2.4,0-3.7-0.1c-5.5-0.2-11-0.9-16.3-1.5c-15.3-1.9-27.4-4.7-37.3-8.7l-0.2-0.1h-0.2
				c-0.5,0.1-1,0.1-1.4,0.1c-1.8,0-4-0.4-6.2-1.1c-0.9-0.3-1.7-0.6-2.6-0.9c-0.7-0.2-1.4-0.5-2-0.8c-2.2-0.9-4.6-1.7-7.1-1.8h-0.3
				c-1.5,0-3,0.4-4.3,0.8c-1.4,0.4-2.6,0.7-4,0.7c-0.3,0-0.6,0-0.9,0c-2.7-0.3-5.3-1.4-7.1-3.3l-0.5-0.5l-0.6,0.3
				c-1.1,0.5-2.3,0.8-3.6,0.8c-1,0-1.9-0.1-2.9-0.4c-2.5-0.7-4.7-2.1-6.8-3.4c-5.6-3.6-11.5-7.2-16.4-12
				c-5.6-5.3-9.3-11.4-10.6-17.5c-2.2-10.1,1.8-20.2,5.6-26.8l0.4-0.8l-0.7-0.5c-0.8-0.6-1.3-1.2-1.4-1.8c-0.2-1.1,0.4-1.9,0.7-2.5
				l7.9-12.8l0.9-1.4c2-3.2,3.8-6,3.1-9.9c-0.2-1.3-0.7-2.4-1.1-3.7c-0.7-1.9-1.4-3.9-1.3-6c0.1-2.4,1.4-4.6,3.5-6.2
				c1.5-1.2,3.3-1.7,5-1.7h1v-1c-0.1-1.8-0.6-3.7-1.2-5.5c-0.3-1.1-0.6-2-0.8-3.1c-0.9-3.9-0.4-8.8,3.3-10.9c0.9-0.5,1.8-0.8,2.6-1
				c0.6-0.2,1.1-0.3,1.4-0.5c3.1-1.3,5.4-4.4,6.9-9.7c0.3-0.9,0.5-1.8,0.7-2.8c0.9-3.5,1.7-7,3.8-9.8c1.6-2.4,4.4-4.2,7.1-4.5
				c0.5-0.1,0.9-0.1,1.4-0.1c0.5,0,1,0,1.4,0.1l1,0.2l0.1-1c0.5-4.3,4.2-7.9,7.5-9.1c0.1,0,0.6-0.2,0.6-0.2l2.8-0.9l-2.8-0.8
				c-18.7-6-31.3-15.5-38.6-29.1c-5-9.4-5.3-17.8-5.7-27.6l-0.1-2.4c-0.1-1.3-0.2-2.6-0.3-4.3v-0.4l-0.4-0.2
				c-0.3-0.2-0.6-0.5-0.9-0.8l1.2,0.2l-0.2-1.3c-1-6.8-2.7-13.5-4.4-20c-1.4-5-2.7-10-3.7-15.2c-6.1-31.6,2.2-65.8,22.3-91.7
				C193,24.4,220.9,8.5,250.6,5.1c4-0.5,8.1-0.7,12.2-0.7c37.6,0,75.3,19.8,98.5,51.7c23.1,31.7,27.3,78.8,10.8,120.1
				c-10.5,26.4-31.7,49-55.1,59.2l-1.9,0.9l1.9,0.9c4.2,1.8,7.9,5.1,10.9,9.5c3.6,5.2,5.7,11.3,7.5,16.6l0.1,0.2l0.2,0.2
				c1.8,1.5,3.7,3.1,5.3,4.5c4.3,3.6,7.9,7.1,11.7,10.9c1,1,1.9,1.9,3,2.9c1.6,1.5,3.4,3.4,4.3,5.7c1.2,2.9,1,6.5-0.6,9.9
				c-1.3,2.6-3,4.8-4.7,6.8l-0.5,0.6l8.2,11.9c0.6,0.8,1.2,1.7,1.4,2.9c1.3,5.4-6.3,9.8-9.6,11.4l-1,0.5l0.6,0.9
				c2,2.9,4.5,5.4,7.4,7.3c0.4,0.3,0.5,0.9,0.3,1.3c-3,4.8-6.9,9.2-11.4,12.7l-0.6,0.5l0.3,0.7c2.5,5.5,3.2,11.1,1.7,15.9
				c-0.5,1.5-1.2,3.1-1.7,4.5c-0.8,1.7-1.5,3.4-1.9,5.1c-0.4,1.4-0.5,3-0.5,4.6c-0.1,1.1-0.1,2.1-0.3,3.1
				c-0.8,6.3-4.2,12.6-9.7,17.9c-4.4,4.3-10.3,8-17.8,11.3C307.6,422.5,294,425.3,280.5,425.3z"/>
			<path class="st6" d="M361.3,56.1c-23.3-32-61-51.7-98.6-51.7c-4.1,0-8.2,0.2-12.2,0.7c-29.6,3.5-57.5,19.4-76.4,43.6
				c-6,7.7-10.9,16.1-14.7,25c5.6-2.9,12.5-4.1,17.1,1.2c2.1,2.4,3.2,6.2,5.6,8.2c2.2,1.9,6,2.2,8.9,2.4c6.7,0.5,13.4-1.3,19.5-3.8
				c8.8-3.7,16.8-9.1,25.5-13c23.4-10.7,55.4-12,76.7,4.1c12.7,9.7,21.5,24,25.4,39.5c1.9,7.9,2.7,16.1,2,24.1
				c-0.8,9.1-5,17-5.1,26.2c0-1.8,7.1-5.1,8.7-5.6c3.1-1.1,7.1-1.4,9.8,0.8c5.2,4.2,4.2,15.1,1.8,20.6c-2.8,6.5-8.8,11.4-15.6,12.9
				c1.3,11.1-4.2,24.7-9.2,34.4c0.6-1.1,5.7-4,7-5c1.9-1.5,4-3,5.9-4.6c3.8-3.3,8-6.7,11.2-10.5c7.1-8.9,13-18.8,17.3-29.4
				C388.6,134.9,384.4,87.8,361.3,56.1z"/>
			<path class="st7" d="M361.4,339.6c-2.9-1.9-5.4-4.4-7.4-7.3l-0.6-0.9l1-0.5c3.3-1.6,10.8-6,9.6-11.4c-0.3-1.2-0.9-2-1.4-2.9
				l-8.2-11.9l0.5-0.6c1.7-1.9,3.6-4.2,4.7-6.8c1.6-3.4,1.8-7,0.6-9.9c-1-2.3-2.8-4.1-4.3-5.7c-1-1-1.9-1.9-3-2.9
				c-3.8-3.8-7.3-7.3-11.7-10.9c-1.7-1.4-3.6-2.9-5.3-4.5l-0.2-0.2l-0.1-0.2c-1.8-5.3-4-11.4-7.5-16.6c-3.2-4.6-8-9.8-14-9.6
				c-2.4,0.1-4.8,0.8-7.1,1.3c-7.7,1.8-15.5,2.3-23.5,2.1c-6.4-0.2-13.9,3.7-19.8,6c-1.9,0.8-18.9,10.4-19.4,10
				c-7.6-5.9-16.7-10.3-26-13c-2.9-0.9-5.9-1.5-8.9-1.4c-5.4,0.4-11.7,4.5-12.3,10.3l-0.1,1l-1-0.2c-0.5-0.1-1-0.1-1.4-0.1
				c-0.4,0-0.9,0-1.4,0.1c-2.8,0.4-5.5,2.1-7.1,4.5c-2,2.9-2.9,6.4-3.8,9.8c-0.2,1-0.5,1.8-0.7,2.8c-1.4,5.2-3.8,8.4-6.9,9.7
				c-0.5,0.2-1,0.3-1.4,0.5c-0.9,0.2-1.7,0.5-2.6,1c-3.7,2.1-4.2,7-3.3,10.9c0.2,1.1,0.5,2,0.8,3.1c0.5,1.8,1.1,3.7,1.2,5.5v1h-1
				c-1.7,0-3.5,0.7-5,1.7c-2.1,1.5-3.4,3.9-3.5,6.2c-0.1,2.1,0.6,4.1,1.3,6c0.5,1.3,0.9,2.4,1.1,3.7c0.7,4-1.1,6.7-3.1,9.9l-0.9,1.4
				l-7.9,12.8c-0.3,0.6-0.9,1.4-0.7,2.5c0.1,0.7,0.6,1.4,1.4,1.8l0.7,0.5l-0.4,0.8c-3.8,6.7-7.9,16.7-5.6,26.8
				c1.4,6.1,5,12.2,10.6,17.5c4.9,4.7,10.8,8.4,16.4,12c2,1.3,4.2,2.7,6.8,3.4c1,0.3,1.9,0.4,2.9,0.4c1.3,0,2.5-0.3,3.6-0.8l0.6-0.3
				l0.5,0.5c1.8,1.8,4.3,3,7.1,3.3c0.3,0,0.6,0,0.9,0c2.8,0,5-1.5,7.5-2.5c-3.2-2.1-4.2-6.5-3.4-10.2c0.9-3.7,3.2-6.9,5.7-9.8
				c7-8.1,15.9-14.9,26.4-17.5c1.4-0.4,2.9-0.6,4.2,0.1c1.8,0.9,2.3,3.2,2.5,5.2c0.7,8.7-2.1,17.3-5.3,25.4
				c-1.9,4.9-4.6,10.4-9.8,11.8c1.4-0.4,6.2,2.4,7.6,2.9c3,1,6.1,1.8,9.2,2.5c7,1.6,14.1,2.8,21.2,3.8c5.3,0.7,10.8,1.4,16.3,1.5
				c1.3,0,2.4,0.1,3.7,0.1c13.5,0,27.1-2.9,39.5-8.2c7.4-3.3,13.3-7,17.8-11.3c5.4-5.3,8.9-11.6,9.7-17.9c0.1-1,0.2-2,0.3-3.1
				c0.1-1.6,0.2-3.1,0.5-4.6c0.4-1.7,1.2-3.4,1.9-5.1c0.7-1.4,1.4-2.9,1.7-4.5c1.4-4.7,0.8-10.4-1.7-15.9l-0.3-0.7l0.6-0.5
				c4.5-3.6,8.4-7.9,11.4-12.7C362,340.5,361.9,339.9,361.4,339.6z M277.6,350.1c-4.4,0.6-10.1,1.5-14.4,0.4
				c-4.8-1.3-8.9-2.4-14-2.3c-5.1,0.2-10.3,0.8-15.4,0.2c-5.1-0.6-10.3-2.7-13.3-6.9c0.5,0.7-5.3,3.2-5.9,3.4
				c-2.3,0.7-4.8,0.8-7.2,0.4c-4.9-1-10.3-3.6-14.9-5.8c-3.5-1.6-7-3.5-9.6-6.2c-5.6-5.8-6.5-15.7-2.7-22.7c2.1-4,5.8-6.4,9.8-8.2
				c1.2-0.5,15.4-4.5,15.4-3.3c0-3.6,4.2-6.5,7.5-5.1c-0.1-1.6,1.6-3,3.3-3s3.2,0.8,4.5,1.7c5.6,3.7,10.1,8.9,13.2,14.8
				c1.4,2.6,1.7,6.1,4.2,7.6c2.9,1.8,7.3,1.2,10.5,0.6c6.7-1.3,11-3.2,15.4-8.2c3.7-4.1,6.5-8.7,9.2-13.4
				c5.3-9.4,10.1-19.6,18.7-26.6c2.4-1.9,5.3-3.6,8.4-3.6c4.9,0.1,9.2,8.9,11.6,12.6c4.9,7.8,9.2,16.4,12.8,24.8
				c2.2,5,3.7,10.8,2,16.1c-1.4,4.6-5,8.2-8.5,11.5c-8,7.3-16.8,14.2-27,18C286.9,348.6,282.4,349.5,277.6,350.1z"/>
			<g>
				<path class="st8" d="M272.2,241.9c-1.8,0.8-3.7,1.5-5.5,2c-14.3,4-29.6,4-44,0.1c-5.7-1.5-9.8-3.6-15.7-1.8
					c-4.8,1.4-9.4,4.8-9.9,10.2l-0.1,1l-1-0.2c-0.5-0.1-1-0.1-1.4-0.1c-0.4,0-0.9,0-1.4,0.1c-0.9,0.1-1.7,0.4-2.6,0.8
					c0.4-0.1,0.7-0.2,1.1-0.3c4.1-0.6,7.3,3,9.6,6.5c6.4,9.8,8.7,20.1,11.3,31.2c4.3-0.9,5.1-0.3,7.6-4.3c2-3.2,4.1-6.3,6.5-9.2
					c4.9-6.1,10.6-11.5,17.1-16c-6.7,10.6-12.1,21.9-16,33.8c10.6-19.9,25-38.5,44.7-49.5c5.5-3.1,11.9-5.6,18.1-4.3
					c6.2,1.3,11.6,7.6,9.8,13.7c-16.3-1.7-33.2,3.7-45.5,14.6c-12.3,10.8-19.8,26.9-20.1,43.4c5.7-18.8,17.3-36.5,34.2-46.5
					c-11.8,14.2-19.5,31.7-22.2,49.9c1.1,0,2.1,0,3.1,0c2.3-13,7.3-25.6,14.8-36.5c-3.1,4.6-3.5,14.5-4.4,19.9
					c-0.9,4.8-4.2,10.6-3.2,15.4c7-3.5,11.5-10.5,15.3-17.5c3.9-7,11.2-23,21.4-20.8c9.4,2,10.7,16.3,10,23.9
					c-0.9,10.5-5.6,20.8-13,28.2c-7.7,6.8-16.4,11.6-26.8,12.6c-4.6,0.5-7.8-0.9-12.3-1.5c-5.5-0.9-11.6-0.4-17.2-0.5
					c-4.1-0.1-8.3-0.3-11.9-2.2c-4.3-2.4-7-7.1-8.6-11.9c-1.6-4.7-2.7-9.7-5.1-14c-1.3,4.6-3.4,9.8-3.5,14.6
					c-0.1,2.1,1.7,14.1,4.2,14.7c-5.9-1.4-11.8-3.5-16.5-7.3c-4.6-3.9-7.9-9.8-7.3-15.8c0.9-8.1,9.6-14.6,17.6-12.9
					c0.5-2.2,1-4.3,1.4-6.6c-6.4,0.2-12.9,1.2-18.4,4.4c-5.5,3.3-9.7,9.3-9.5,15.6c0.4,10.1,6.8,19.4-3.3,27.4
					c-3.4,2.7-7.5,4.1-11.9,4.4c-4.2-1.2-8.3-2.8-11.9-5.2c-0.1,0.3-0.1,0.6,0,1c0.1,0.7,0.6,1.4,1.4,1.8l0.7,0.5l-0.4,0.8
					c-3.8,6.7-7.9,16.7-5.6,26.8c1.4,6.1,5,12.2,10.6,17.5c4.9,4.7,10.8,8.4,16.4,12c2,1.3,4.2,2.7,6.8,3.4c1,0.3,1.9,0.4,2.9,0.4
					c1.3,0,2.5-0.3,3.6-0.8l0.6-0.3l0.5,0.5c1.8,1.8,4.3,3,7.1,3.3c0.3,0,0.6,0,0.9,0c1.4,0,2.6-0.4,4-0.7c1.4-0.4,2.8-0.8,4.3-0.8
					h0.3c2.5,0.1,4.8,1,7.1,1.8c0.7,0.3,1.4,0.5,2,0.8c0.9,0.3,1.7,0.6,2.6,0.9c2.2,0.7,4.3,1.1,6.2,1.1c0.5,0,1,0,1.4-0.1h0.2
					l0.2,0.1c9.8,4,22,6.9,37.3,8.7c5.3,0.7,10.8,1.4,16.3,1.5c1.3,0,2.4,0.1,3.7,0.1c13.5,0,27.1-2.9,39.5-8.2
					c7.4-3.3,13.3-7,17.8-11.3c5.4-5.3,8.9-11.6,9.7-17.9c0.1-1,0.2-2,0.3-3.1c0.1-1.6,0.2-3.1,0.5-4.6c0.4-1.7,1.2-3.4,1.9-5.1
					c0.7-1.4,1.4-2.9,1.7-4.5c1.4-4.7,0.8-10.4-1.7-15.9l-0.3-0.7l0.6-0.5c4.5-3.6,8.4-7.9,11.4-12.7c0.3-0.4,0.1-1-0.3-1.3
					c-2.9-1.9-5.4-4.4-7.4-7.3l-0.6-0.9l1-0.5c3.3-1.6,10.8-6,9.6-11.4c-0.3-1.2-0.9-2-1.4-2.9l-8.2-11.9l0.5-0.6
					c1.7-1.9,3.6-4.2,4.7-6.8c1.6-3.4,1.8-7,0.6-9.9c-1-2.3-2.8-4.1-4.3-5.7c-1-1-1.9-1.9-3-2.9c-3.8-3.8-7.3-7.3-11.7-10.9
					c-1.7-1.4-3.6-2.9-5.3-4.5l-0.2-0.2l-0.1-0.2c-1.8-5.3-4-11.4-7.5-16.6c-3.7-5.4-8.9-8.2-13.9-12.1c-8.2,2.9-16.8,4.6-25.5,5.2
					c-3.2,0.2-6.8-0.6-9.8,0C276.5,240,274.3,240.9,272.2,241.9z M228.1,267.7c-0.9,1.8-1.7,3.7-2.6,5.6c-0.4-1.6-1-3.3-1.7-4.8
					c-2.2-4.3-5.8-7.7-9.3-11.1c3.4,5.1,4.9,11.4,4.3,17.5c-6.4-8.8-12.8-17.7-19.2-26.5c8.8-2.6,18.9-0.3,25.7,5.9
					c2.5,2.2,4.6,5.3,4.4,8.7C229.5,264.6,228.8,266.1,228.1,267.7z M227.7,386c4.2,1.9,0.2,9.9-3.9,7.7c1.4,2,2.8,4.1,4.2,6.2
					c-3.2-0.1-5,4.6-2.6,6.8c-11.5,1.9-13.1-10.8-10.5-18.5c1.5-4.4,3.7-8.4,7.1-11.7c1.1-1.1,7.1-5.9,10.1-6.4
					c0.4,1.2,0.7,2.3,0.9,3.6C233.1,375.2,231.6,387.8,227.7,386z M315.4,392.3c-0.6,5.1-4.2,9.6-8.7,12.2c-4.5,2.5-9.8,3.4-15,3.4
					c-10,0.1-19.8-2.4-29.5-4.9c-6.3-1.6-13.5-4.2-15.4-10.4c-1-3.2-0.2-6.7-0.5-9.9c-0.5-5.3-3.7-10.1-7.7-13.6
					c-4.1-3.5-9-5.9-13.7-8.2c3.1,2,5.4,5.1,6.9,8.5c-7.5-4.8-18.4-2.4-25.3,3.7c-7.2,6.6-10.8,16.2-13.5,25.7
					c-6.1,0-10.6-6.4-10.9-12.5c-0.3-6.1,2.6-11.8,5.3-17.3c-7.4,6.7-12.6,16-14.2,26c-14.3-0.7-32.2-11.6-24.8-28.5
					c2.5-5.6,8.2-9.4,14.1-10.9c11-2.9,23.9-2.1,35.1-1.9c-4.7,2.6-9.1,5.7-12.5,9.9c2.9-3.6,17.2-4.4,21.6-5
					c7.7-1.1,15.4-1.4,23.3-1c15.4,0.9,31.1,5.4,46.2,8.5c8.7,1.8,17.7,3.7,25.4,8.1C307.8,377.5,316.2,384.4,315.4,392.3z"/>
				<path class="st9" d="M165.7,302.4c2,1.8,4.6,3.2,7,4.4c0.4-3.3-0.8-6.5-1.8-9.6c-1.1-3.1-2.1-6.4-1.4-9.7c0.7-3.2,3.9-6.1,7-5.4
					c5.1,1.2,5.2,9.3,9.9,11.6c0.2-1.8,0.5-3.7,0.7-5.5c4.2,2.3,8.3,4.6,12.5,6.9c-4.1-2.2-7.7-10.4-9.8-14.4
					c-2.8-5.5-4.8-10.4-4.8-16.6c0-3.3,1.1-7,3.5-9.1c-1,0.7-1.9,1.5-2.6,2.6c-2,2.9-2.9,6.4-3.8,9.8c-0.2,1-0.5,1.8-0.7,2.8
					c-1.4,5.2-3.8,8.4-6.9,9.7c-0.5,0.2-1,0.3-1.4,0.5c-0.9,0.2-1.7,0.5-2.6,1c-3.7,2.1-4.2,7-3.3,10.9c0.2,1.1,0.5,2,0.8,3.1
					c0.5,1.8,1.1,3.7,1.2,5.5v1h-1C167.3,302,166.5,302.1,165.7,302.4z"/>
				<path class="st10" d="M349.7,171.8c-0.2-3-3-4.9-7.2-3.6c-2.3,0.8-4.1,2.6-4.6,4.6c1.6,0.1,2.7,1.6,2.6,3.1
					c-0.1,1.4-1.1,2.7-1.9,3.9c0,0,4.4-0.5,4.9-0.7c2.2-0.8,4.3-2,5.4-4.1C349.6,174,349.8,172.9,349.7,171.8z M345.6,174.9
					L345.6,174.9c0.1,0,0.2-0.1,0.2-0.1C345.8,174.8,345.7,174.8,345.6,174.9z M346,174.8C346,174.8,346,174.7,346,174.8
					C346,174.7,346,174.7,346,174.8L346,174.8z"/>
			</g>
			<g>
				<path class="st3" d="M163.1,396.5c0.2,0.1,0.5-0.1,0.4-0.4c-4.3-7.3-8.6-14-11.2-22.2c-1.9-6.1-2.8-12.4-4.2-18.5
					c-1.8,4.3-3.2,9.4-3.2,14.7C147.1,380.9,154.2,391.3,163.1,396.5z"/>
				<path class="st3" d="M223.5,292.6c8.7-14.4,17.5-26.6,30.7-36.1c-1.2,1-2.2,1.8-3.3,2.8c-11,9.7-19.4,23.9-23.7,37.9
					c-0.8,2.6,3.3,4.4,4.5,1.9c6.4-12.7,12.1-24.5,21.5-35.3c9.2-10.5,19.9-14.9,32.2-20.6c0.2-0.1,0.1-0.5-0.1-0.5
					c-8.5,0-17.2,4-24.6,9c-17.7,7-34.9,20.9-41.7,39C218,293.4,222.1,295,223.5,292.6z"/>
				<path class="st3" d="M210.4,243.2c-2-0.7-4.8,0.1-6.9,0.8c-0.9,0.3-1.6,0.7-2.4,1.2c-2.2,1.7-4.1,4.2-4.3,7.2l-0.1,1l-1-0.2
					c-0.5-0.1-1-0.1-1.4-0.1c-0.4,0-0.9,0-1.4,0.1c-0.3,0-0.6,0.1-1,0.2c-3.3,2.3-6.3,5.8-6.5,9.7c-0.4,6.6,3.4,14.5,5.9,20.5
					c0.3,0.6,1.2,0.4,1-0.3c-0.9-4.5-1.4-9-1.4-13.6c0-6.1,1.5-9.1,7.4-11.5c1.2-0.5,1.9-1.3,2.2-2.1c1.5,1.8,3.2,3.8,4.9,5.5
					c0.1,0.1,0.2,0,0.1-0.1c-0.7-2.9-1.9-5.6-3.4-8.2c1.3-1.5,2.6-2.8,4.1-4.2c1.4-1.4,3.3-2,4.5-3.3
					C211.9,244.9,211.5,243.6,210.4,243.2z"/>
				<path class="st3" d="M174.1,337.2c-1.7-7-4-14-5.6-21.1c-1-4.3-1.4-9.4-3.3-13.4c-0.8,0.3-1.4,0.7-2.1,1.2
					c-1.7,1.4-3,3.1-3.4,5.1c1.4,3.8,3.4,7.4,4.8,10.9c2.6,6.1,5,12.4,9.2,17.6C173.9,337.5,174.1,337.3,174.1,337.2z"/>
				<path class="st3" d="M286.2,282.1c0.3-0.5-0.3-0.9-0.7-0.7c-6.7,3-9.8,10.7-13,16.8c-5.4,9.9-11.7,19.2-23.2,22.5
					c-0.1,0-0.1,0.2,0,0.2C271.3,320,276.1,297.2,286.2,282.1z"/>
				<path class="st3" d="M179.1,282.1c-3-2.8-8,0.1-9.8,3c-1.3,1.9-2,4.3-2.3,6.6c0,0.3,0.1,0.5,0.1,0.8c0.2,1.1,0.5,2,0.8,3.1
					c0.5,1.6,0.9,3.3,1.1,4.8c2.1-1.5,3.3-4.5,4.2-7c0.7-1.9,0.9-3.9,1.7-5.7c1.1-2,2.4-2.5,4.2-3.7
					C179.5,283.6,179.8,282.7,179.1,282.1z"/>
				<path class="st3" d="M222.2,13.8c-2.7,0.4-5.4,1.2-8.1,2.1c-15.4,7.6-29.1,18.7-39.8,32.6c-20.1,25.9-28.5,60.1-22.3,91.7
					c1,5.1,2.3,10.1,3.7,15.2c1.7,6.5,3.5,13,4.4,19.8c0.2,0.3,0.4,0.6,0.6,0.8c-0.1,0.8-0.2,1.5-0.3,2.2c0.2,1.5,0.3,2.8,0.3,3.9
					l0.1,2.4c0.4,9.8,0.7,18.2,5.7,27.6c3.8,7,9,12.9,15.6,17.9c5.3,3.4,11.3,5.9,17.7,7.9c0.2,0.1,0.5-0.3,0.3-0.4
					c-12-10-25.1-19.9-27.4-36.5c-1.3-8.8,0.6-17.6,0.7-26.5c0.1-14.7-4.5-29-6.5-43.5c-0.8-6.2-1.1-12.5-0.9-18.7
					c0.7-19.5,6.3-38.8,15.9-55.8c4.8-8.5,10.6-16.4,17.4-23.5c7.1-7.4,15.3-12.6,23.2-19.2C222.5,14,222.4,13.8,222.2,13.8z"/>
			</g>
		</g>
		<g>
			<path class="st11" d="M372.9,176.5c16.6-41.5,12.4-89-10.9-121c-26.3-36-70-56.2-111.5-51.4c-29.9,3.5-57.9,19.5-76.9,44
				c-20.3,26.1-28.7,60.6-22.5,92.5c1,5.1,2.3,10.2,3.7,15.3c1.7,6.5,3.5,13.1,4.4,19.9c-0.7-0.1-1.4-0.4-1.9-0.7
				c0.2,0.1,0.7,1.4,0.9,1.7c0.4,0.5,0.9,1,1.4,1.4c0.2,1.4,0.3,2.8,0.3,4.2l0.1,2.4c0.4,9.8,0.7,18.4,5.8,28
				c8.9,16.5,24.5,24.8,39.1,29.5c-0.2,0.1-0.4,0.1-0.6,0.2c-4,1.4-7.6,5.3-8.1,9.8c-1-0.2-2-0.2-3.1,0c-3,0.5-6,2.3-7.8,4.9
				c-2.1,3.1-3,6.6-3.9,10c-0.2,1-0.5,1.9-0.8,2.9c-1.4,4.9-3.5,7.9-6.4,9.1c-0.5,0.2-1,0.3-1.4,0.5c-0.9,0.3-1.9,0.6-2.8,1.1
				c-4.2,2.4-4.6,7.7-3.8,11.9c0.2,1.1,0.5,2.1,0.8,3.1c0.5,1.8,1,3.6,1.1,5.3c-1.9,0-3.9,0.7-5.5,1.9c-2.3,1.7-3.8,4.2-3.9,6.9
				c-0.1,2.3,0.6,4.3,1.4,6.3c0.4,1.3,0.9,2.3,1.1,3.5c0.6,3.6-1,6.1-3,9.3c-0.3,0.5-0.6,0.9-0.9,1.4l-7.9,12.8
				c-0.4,0.6-1.1,1.7-0.9,3.1c0.2,1.2,1.1,2,1.7,2.5c-4.1,7.1-8,17.3-5.7,27.5c1.4,6.3,5.1,12.5,10.9,18c5,4.8,10.9,8.5,16.6,12.2
				c2,1.3,4.3,2.8,7,3.5c2.5,0.7,5,0.6,7.1-0.4c2,1.9,4.7,3.2,7.6,3.6c3.5,0.4,6.3-1.5,9.6-1.4c3.1,0.1,6,1.5,8.9,2.5
				c0.9,0.3,1.7,0.6,2.6,0.9c2.3,0.7,4.5,1.1,6.5,1.1c0.6,0,1.1,0,1.5-0.1c11.7,4.7,25.2,7.2,37.5,8.8c5.3,0.7,10.9,1.4,16.4,1.5
				c1.3,0.1,2.5,0.1,3.8,0.1c13.6,0,27.3-2.9,39.9-8.3c7.5-3.3,13.5-7,18.1-11.5c5.6-5.4,9.1-12,9.9-18.4c0.1-1.1,0.2-2,0.3-3.1
				c0.1-1.5,0.2-3.1,0.5-4.5c0.4-1.6,1.1-3.2,1.8-4.9c0.7-1.4,1.4-3,1.8-4.6c1.4-5,0.9-10.9-1.8-16.5c4.5-3.7,8.5-8,11.6-13
				c0.5-0.9,0.3-1.9-0.5-2.5c-2.8-1.9-5.2-4.3-7.1-7c3.8-1.8,11.4-6.5,10-12.5c-0.3-1.3-1.1-2.3-1.6-3.2l-7.8-11.3
				c1.9-2.1,3.7-4.3,4.9-7c1.7-3.7,1.9-7.5,0.7-10.6c-1.1-2.5-2.9-4.3-4.6-6c-1-1-1.9-1.9-2.9-2.9c-3.8-3.8-7.4-7.3-11.8-11
				c-1.7-1.4-3.6-2.9-5.3-4.4c-2-5.7-4.1-11.6-7.6-16.8c-3.1-4.5-7-7.9-11.3-9.8C340.4,226.2,362,203.8,372.9,176.5z M237.6,261.2
				c-0.7,0.6-3.8,2.9-3.8,3.8c-3.1-5.5-8.1-9-13.7-11.8c-0.1-0.1-0.2,0.1-0.1,0.2c4.9,3.5,9.6,7.8,12.3,13.3
				c-1.3,1.4-2.5,2.9-3.7,4.4c-5.2-8.1-12.3-15-20.5-20c6.3,5.3,13.1,14.8,18.2,23.2c-3.3,4.5-6.3,9.6-9.2,15.2
				c-0.8-0.3-1.5-0.4-2.3-0.2c0,0-0.1,0-0.1,0.1c-0.3-2.4-1.4-4.9-2.4-7.1c-1.6-3.9-4.2-7.2-6.5-10.6c-0.1-0.1-0.2,0-0.2,0.1
				c1.6,3.7,3.2,7.4,4.6,11.3c1,2.6,1.4,5.6,2.5,8.1c-0.1,0.3-0.3,0.7-0.3,1c-0.3-0.2-0.7-0.3-1.1-0.3c-0.8-0.1-1.5,0.1-2.2,0.5
				c-2.1,0.5-3.9,2.3-5.1,4.7c-5.2,0.9-12.4,2.2-17.1,4.6c-6,3.1-9.9,8.3-10.5,13.9c-0.4,3.7,0.6,7,1.5,10.3c0.9,3,1.6,5.8,1.4,8.6
				c-0.3,4-2.6,7.3-4.5,9.4c-2.4,2.7-5.6,4.9-8.6,7c-4.8-0.4-8.3-2.1-11.9-4l-0.5-0.2c0,0,0,0-0.1,0c0,0-0.1,0-0.2-0.1l-0.8-0.4
				c-0.4-0.2-0.6-0.3-0.7-0.4c0.1-0.2,0.3-0.5,0.3-0.6l7.9-12.8l0.8-1.3c1.2-1.8,2.3-3.7,3-5.8c0.3,0.6,0.6,1.3,0.8,1.8
				c1.8,4.3,4.5,7.9,7.1,11.9c0.1,0.1,0.2,0,0.2-0.1c-2-3.9-3.3-8-4.9-12c-1-2.3-1.6-5-2.6-7.3c0-0.1,0-0.2,0-0.3
				c-0.3-1.4-0.8-2.8-1.2-4.2c-0.6-1.7-1.2-3.4-1.2-4.9c0.1-1.5,1-3.1,2.4-4.2c1.4-1.1,3.2-1.4,4.6-1.1c0.5,0.1,1.1,0,1.4-0.3
				c0.4-0.3,0.7-0.8,0.8-1.3c0.5-3-0.4-5.8-1.1-8.6c-0.3-1-0.6-1.9-0.8-2.9c-0.7-3-0.3-6.7,2-7.9c0.6-0.3,1.3-0.5,2-0.8
				c0.6-0.2,1.2-0.4,1.7-0.6c0.8-0.3,1.4-0.7,2.1-1.2c0.1,0.1,0.2,0.1,0.4,0.2c1.4,0.8,2.5,1.8,3.5,3c2.2,2.5,4,5.7,5.7,8.6
				c0.1,0.1,0.2,0,0.2-0.1c-1.2-3.6-2.3-6.8-4.6-9.7c-0.8-1-2-2.4-3.4-3.4c1.9-1.9,3.5-4.7,4.5-8.4c0.9,3.3,2.1,6.5,3.7,9.5
				c2.8,5.7,5.9,10.5,11,14.5c0.4,0.3,0.9,0.6,1.3,0.4c0.5-0.2,0.6-1,0.4-1.4c-0.7-2.2-0.9-4.4-1.6-6.6c-0.8-2.3-2-4.3-3.1-6.6
				c1.4,2.9,2.1,6.1,2.2,9.3c0,0.2,0,0.4,0,0.6c-4.5-4.3-7.5-10.2-9.4-16.1c-1.1-3.4-1.6-7-2.6-10.3c0.6-1.9,1.3-3.8,2.4-5.4
				c1.6-2.3,4.7-3.9,7.5-3c2.8,0.9,5.6,4.8,7,7.1c2.1,3.4,4.3,6.6,6.8,9.8c0.1,0.2,0.4,0,0.3-0.2c-1.9-4.2-3.9-8.2-6.3-12.2
				c-1.7-2.8-4.4-5.5-3.7-9c1.4-6.3,9.4-7.3,14.7-7c5.1,0.4,10.2,1.7,14.9,4.1c2.3,1.2,10.8,6.6,12.6,8.6
				C240.3,258.7,239,259.9,237.6,261.2z M182.7,330.3c-0.3-1.9-0.9-3.8-1.4-5.6c-0.9-3.1-1.7-6.1-1.4-9c0.6-5.1,4.8-9.1,8.6-11.1
				c4.2-2.2,9.1-3.1,13.8-3.9c-1.8,6.3-2.1,14.3-1.7,18.6l0,0c-0.3,3.7,0.1,7.3,1.4,10.9c-0.5-6.8,1.2-13.2,4-18.6
				c0.4,1.2,1,2.4,1.6,4c0.2,0.4,0.8,2,1.2,3.1c1.2,5,2.8,9.9,4.7,14.8c1.1,2.6,2.3,5.4,4.2,7.9c-1,1.1-3.1,2.6-7,2.7
				c-0.1,0-0.1,0-0.2,0C202.5,344.1,188.1,334.5,182.7,330.3z M192.1,340.9c-5.2,5-12,8.3-19,9.3c1.5-1.3,3.1-2.6,4.4-4.1
				c2.2-2.4,4.9-6.4,5.4-11.2C185,336.5,188.3,338.8,192.1,340.9z M208.3,303.7c-1-0.1-1.7,0.3-2.4,1.1l0,0l0,0
				c-0.2,0.2-0.4,0.5-0.6,0.9c-0.2,0.3-0.4,0.6-0.6,0.9c0.6-3.7,1.6-7,2.8-8.9c0.2,1.5,0.6,3.6,1.3,6.3
				C208.8,303.8,208.5,303.8,208.3,303.7z M216.9,332.1c-1.9-4.6-3.5-9.5-4.5-14.3c0-0.1,0-0.1-0.1-0.2c-0.2-0.5-1-2.8-1.4-3.7
				c-1.7-3.5-2.1-5.4-2.2-6.3c0.6,0.4,1.5,1.3,2.2,2.1c0.2,0.2,0.4,0.4,0.6,0.5c0.5,0.6,0.9,1.2,1.3,1.7c1.6,2.5,3.6,4.9,4.8,7.7
				c0,0.1,0.2,0,0.2-0.1c-1-3.3-1-7-2.8-9.9c-1.4-2.1-2.4-3.8-3-6.3c-0.6-2.4-1.2-4.7-1.7-7.1c-0.1-0.3-0.2-0.7,0-1
				c0.3-0.6,1.3-0.4,1.7,0c1.6,1.2,2.3,4.2,3.1,5.9c1.6,4.3,4.1,9.6,6.2,13.7c0,0.1,0.2,0,0.2,0c-0.6-4.7-2.6-10.6-4.1-15.2
				c-0.7-2-1.4-4.1-2-6.1c-0.1-0.4-0.2-0.9,0-1.2c0.4-0.4,1.1-0.1,1.4,0.2c2.4,2,3.9,4.8,4.8,7.8c1.2,3.7,2.9,7.2,4.5,10.8
				c-0.2-2.1-0.4-5-0.8-7.5c-0.4-2.4-1.9-4.4-2.8-6.8c-0.2-0.6-0.4-1.3-0.7-1.8c0.1-0.2,0.1-0.4,0.1-0.6c1.9,1.3,6.9,6.5,7.6,7.7
				c0.3,0.5,1.1,2.9,1.7,4.7c0.9,2.4,1.7,4.9,2.3,6.3c1.2,2.6,3.4,4.4,6.3,5.3c6,1.8,13.9-0.4,18.6-3.3c7.6-4.6,12.5-12.6,15.7-19.2
				c0.8-1.5,1.5-3.1,2.3-4.7c2.7-5.5,5.5-11.2,9.4-15.9c4.5-5.5,10.3-8.9,15.9-9.4c5.6,4.7,9.5,11.3,12.9,17.7
				c4.8,9.1,9,18.5,12.5,28.2c-7.4,14.3-24.1,30.2-39.4,34.9c-14.3,4.2-30.4,2.1-44.2-0.6c-0.2,0-0.4,0-0.6,0
				c-7.9,1.1-14.1,1-18.8-2.9C220.7,340.4,218.5,335.9,216.9,332.1z M222.2,290.8c-0.8-0.2-1.4-0.1-1.9,0.1
				c9.2-17.7,20.3-29.9,33-36.4c2-1.1,4-2.1,5.8-3.2c-2.6,2.2-5,4.6-7.3,7c-10.1,10.7-19.1,22.2-24.6,36
				C225.3,292.6,223.5,291.1,222.2,290.8z M194.2,409.3c-1.3-0.1-2.4-0.5-3.5-1.1c-6.9-9-10.5-22.1-7.8-33.2c0-0.1-0.1-0.2-0.2-0.1
				c-3.8,7.6-3.3,14.3-0.9,22.3c0.9,2.8,1.8,5.9,3.4,8.4c-1.4,0.9-3.3,1.1-5.2,0.5c-2.1-0.6-4.1-1.8-6-3.1
				c-5.5-3.5-11.2-7.1-16-11.7c-5.2-4.9-8.6-10.5-9.8-16.1c-2-9.2,1.6-18.4,5.4-25c4.1,2,8.2,4,14.3,4c2,0,4.3-0.2,7-0.8
				c0.1,0,0.1-0.1,0.2-0.1c7.7-1.4,15-5.2,20.5-10.8c5.1,2.7,10.7,4.9,15,4.9c0.1,0,0.2,0,0.3,0c4.8-0.1,7.7-2,9.3-3.6
				c0.6,0.7,1.3,1.3,1.9,1.8c5.7,4.7,12.6,4.9,21.3,3.8c7,1.4,14.5,2.5,22,2.9c-4.9,0.8-9.8,1.9-14.3,3.3
				c-10.8-0.4-22.1,0.5-31.9-2.4l0,0c-2.7-1.3-5.7-2.2-8.8-3.4c-0.1,0-0.2,0.1-0.1,0.2c5.1,2.5,9.3,5,12.9,8.6
				c-2.1-1.1-4.6-1.7-7.1-2.1c-8.6-1.1-15,2.6-22.2,6.6c-0.1,0.1,0,0.2,0.1,0.2c12.1-4.1,24.1-6.6,34.6,2.1c1,1.5,1.9,3.2,3,4.8
				c-0.7,0.1-1.4,0.3-2.1,0.5c-8.7,2.5-17.1,7.8-25.1,15.7c-1.3,1.3-2.4,2.5-3.6,4.1c4.2-10.7,12.6-18.6,24.4-23.3
				c0.2-0.1,0.2-0.4,0-0.3c-16.2,1.9-27.5,15.9-28.1,31.5c-0.4,2-0.3,4.2,0.3,6.2c0,0.1,0,0.2,0,0.3c0,0.1,0.1,0.2,0.2,0.2
				c0.4,1.2,1.1,2.3,1.8,3.3C197.7,409.2,195.9,409.5,194.2,409.3z M225.7,411.2c-2.2,1.4-5.5,1.4-9.8,0.2c-0.9-0.3-1.7-0.6-2.5-0.9
				c-2.4-0.9-4.8-1.5-7.4-1.9c-1.5-0.2-2.7-0.5-3.9-1.7c-1.8-2.1-2.4-5.8-1.6-8.4c1-3.6,3.7-6.7,6.2-9.2
				c7.5-7.5,15.4-12.6,23.5-14.9c3.1-0.9,3.7-0.8,4.5,1.4c1.2,2.7,0.9,6.2,0.5,8.9c0,0.1,0,0.3-0.1,0.4c-0.5,0.6-1.2,0.9-2.1,1.1
				c-1.7,0.3-5,0.2-6.2-1.3c-0.1-0.1-0.2,0-0.1,0.1c0.7,1.2,1.4,2.4,2.9,2.9c1.5,0.6,3.5,0.6,5,0.2c-0.4,2-0.8,4.1-1.4,6.1
				c-0.7,0.5-1.4,0.8-2.3,1c-2.8,0.5-6.1-0.7-7.8-2.9c-0.1-0.1-0.2,0-0.2,0.1c2,2.6,4.2,4.5,7.5,5c0.6,0.1,1.3,0.1,1.9,0
				c-0.4,1.3-0.8,2.5-1.2,3.7c-1.3,1.4-2.6,2-4.8,2.1c-2.7,0.2-5.2-0.5-7.2-2.2c-0.1-0.1-0.2,0-0.1,0.1c2.1,2.8,5.5,4.1,9,4
				c0.6,0,1.3-0.1,1.8-0.3C229.1,407.5,227.8,410,225.7,411.2z M339.3,270.2c4.2,3.5,7.8,7,11.6,10.7c1,1,1.9,1.9,3,2.9
				c1.4,1.4,3,3,3.8,4.8c0.9,2.2,0.7,5-0.6,7.7c-1,2-2.4,3.9-4,5.7c-4-6.1-8.2-12.2-11-18.9c0-0.1-0.2-0.1-0.2,0
				c2.9,12.1,8.5,25.6,17.7,34.2l0,0l0.7,0.9c0.5,0.7,0.9,1.3,1.1,1.9c0.7,3.1-4.7,6.9-9,8.8c-5.8-9.8-11.4-19.2-15.3-30.3
				c0-0.1-0.2-0.1-0.2,0c3.2,12.5,7.3,25.7,15.2,35.4c1.8,2.6,4.1,4.8,6.5,6.8c-2.6,3.9-5.8,7.3-9.5,10.2c-3.7-4.7-11-9.8-14.3-13.5
				c3.7,4.2,9.8,12.5,12.4,17.3c2.7,5.2,3.4,10.5,2.1,15c-0.4,1.4-1,2.7-1.6,4.2c-0.4,0.9-0.8,1.7-1.2,2.7c-0.9-2.3-2.1-4.4-3.7-6.5
				c-4.9-6.4-11.6-9.2-19.3-10.5c-0.1,0-0.2,0.1,0,0.2c10.9,4.2,19.2,11,21.7,21.7c-0.1,1.1-0.2,2.1-0.3,3.2c-0.1,1-0.1,1.9-0.2,2.9
				c-0.7,5.6-3.9,11.4-8.8,16.2c-2.1,2-4.6,4-7.4,5.8c5.3-6,8.1-14.1,6.4-22.1c0-0.1-0.2-0.1-0.2,0c-0.4,11.7-7.2,22.4-17.4,27.7
				c-12.6,5.3-26.6,7.8-40.3,7.2c-5.4-0.2-10.8-0.9-16.1-1.5c-11.2-1.4-22.8-2.9-33.3-6.7l0,0c3.3-2,4.9-5.6,6.3-9.2
				c2.3-6.4,4.1-13.1,5-19.9c0.5-3.3,0.7-6.9-0.4-10c-0.1-0.3-0.2-0.6-0.4-1c-1.3-2.9-3.8-5.1-5.6-7.5s-3.5-4.9-5.4-7.2
				c-0.3-0.3-0.5-0.6-0.8-0.9c1.5,0.4,3.3,0.5,5.6,0.3c8.5-0.4,19.3-1.4,27.8-0.1c7.4,1.2,14.7,3.3,21.7,6
				c6.2,2.3,11.5,4.6,18.2,4.3c0.6,0,1.1-0.7,0.7-1.3c-2.9-4.4-6.7-6.5-11.9-7.2c-0.1,0-0.2,0.2-0.1,0.2c3.5,0.8,8.1,2.7,9.2,6.6
				c-6,0.2-10.3-2.4-15.6-4.5c-6.5-2.6-13.1-4.6-20.1-5.9c-0.5-0.1-0.9-0.1-1.4-0.2c24.9-1.8,50.1-5.1,70.7,13.3
				c0.2,0.2,0.4-0.1,0.3-0.3c-10.2-11-24-16.5-38.6-18.2c14.8-1.2,29.5-4.3,44.2,0.8c0.1,0,0.2-0.1,0.1-0.2
				c-7.8-4-15.9-4.4-24.6-4.4c-5.9,0-12.1-0.1-18.2,0.4c14.2-6,27.6-18.1,34.6-31.4c1.9,5.9,3.7,11.9,5.1,18
				c-2.5-19.1-7.4-36.4-16.1-52.8c-4-7.3-8.5-14.9-15.4-20.1c-7.8-5.9-18.5-6.4-23.7-0.8c5.5-2.5,12.6-1.7,18.9,1.9
				c-5.3,1.4-10.5,4.9-14.7,10c-4.2,5-7,10.9-9.8,16.6c-0.8,1.5-1.5,3.1-2.3,4.6c-2.8,5.5-6.8,12.2-12.6,16.4
				c0.6-7.4,1.2-14.8,3.6-21.9c0-0.1-0.1-0.2-0.2-0.1c-2.9,7.6-5.8,15.5-6.2,23.8c-2.1,1.2-4.7,2-7.3,2.6c1.9-8.3,3.1-16.7,6-24.7
				c3.7-10.3,9.4-18.1,16.6-26.1c0.1-0.1,0-0.2-0.1-0.1c-15.4,10.7-22.6,33.6-25.9,51.4c-1.4,0-2.8-0.1-4.1-0.5
				c-1.9-0.6-3.3-1.7-4.1-3.3c0,0,0,0,0-0.1c3.3-18.8,16.2-40.7,31.8-51.8c0.1-0.1,0-0.2-0.1-0.2c-3.5,1.6-6.4,3.8-9,6.2
				c-0.1,0-0.2-0.1-0.3,0c-6,2.2-10.3,6.4-13,12.3c0,0.1,0.1,0.2,0.2,0.1c2.7-4.4,6.8-8.1,11.4-10.5c-3.7,3.9-6.8,8.3-9.6,13
				c-5.1,8.6-10.1,17.4-12.6,27.1c-0.2-0.7-0.5-1.4-0.7-2c-1-2.9-1.5-4.6-2-5.3c-0.3-0.6-1.9-2.5-3.9-4.5
				c5-12.9,13.2-23.5,22.6-33.7c7.2-7.8,15.5-15.2,25.4-19c8.9-2.1,18-1.9,26.4,0.6c4.8,1.4,9.6,3.7,13.8,6.6c3,2.7,5.5,5.8,7.5,9.4
				c5.7,10.1,6.2,22.3,11.1,32.7c0,0.1,0.2,0,0.2-0.1c-4-11.1-3.8-22.7-8.7-33c4.2,4.9,9.5,12.6,13.8,20c-1.9-4.3-3.8-8.8-5.8-12.9
				C336.4,267.8,337.9,269,339.3,270.2z M325.6,248.2c2,3,3.6,6.3,4.9,9.7c-0.5-0.5-1-0.9-1.4-1.4c-0.5-0.6-1-1.2-1.4-1.6
				c-1.4-1.4-2.8-2.7-4.2-4c-0.1-0.1-0.1-0.1-0.2-0.2l0,0c-3.2-2.6-6.6-4.8-10.1-6.7c-2.4-1.5-4.9-2.7-7.5-3.8
				c2.2-0.6,4.4-1.2,6.7-1.9C318.4,240,323.7,245.3,325.6,248.2z M296.5,238c-3.2-0.4-6.6-0.5-9.8-0.1c-0.2,0-0.4,0.1-0.6,0.1
				c-3.4,0.2-6.9,1-9.8,1.5c-7,1.4-13.3,4.2-20.1,5.9c-0.1,0-0.1,0.2,0,0.2c2.4-0.2,4.9-0.6,7.3-1c-1.8,1-3.7,2-5.5,3
				c-2.1,1.2-4.2,2.4-6.5,3.6c-0.6,0.3-6.9,4.4-7,4.2c-3.2-3.1-7-5.6-11-7.3c2.2,0.1,4.5,0.3,6.8,0.3c0.2,0,0.3,0,0.5,0
				c-14-4.2-26.7-7.7-37.3-15.4c3.5,3.8,4.9,5.1,9.3,7.7c-15.6-4.1-34.3-11.7-43.9-29.7c-4.7-8.8-5-17-5.4-26.4l-0.1-2.4
				c0-0.8-0.1-1.5-0.2-2.3c0.3,0.1,0.5,0.2,0.8,0.2c0.7,0,1.3-0.4,1.6-1c1.8-3.4,5.2-5.8,9-6.6c3.8-0.8,7.8,0.2,10.8,2.6
				c0.2,0.2,0.4,0.4,0.7,0.5c1.2,1,2.5,2.1,4.3,2.3c1.6,0.2,3.1-0.6,4-1.8c1.1-1.5,0.3-2.6,0.6-4.2c-0.2,1-1,1.8-1.9,2.2
				c-2.1,0.7-3.9-0.8-5.3-1.9c-3.9-3-9-4.2-13.8-3.3c-3.1,0.6-6,2.1-8.3,4.3c-1.1,1-1.4,1.8-2.8,2.3c-1-7-2.8-14-4.5-20.8
				c-1.4-4.9-2.7-9.9-3.7-15c-6-30.8,2.2-64.2,21.8-89.5c18.2-23.5,46.1-39.4,74.5-42.8c40.3-4.6,82.6,15,108.1,49.9
				c22.5,30.9,26.6,77,10.4,117.4C355.8,209.3,325.1,235.5,296.5,238z"/>
			<path class="st11" d="M348,154.2c-5.4-0.7-11.7,3.6-13.3,8.5c2.7-3.3,8.1-5.5,11.9-5c6,0.8,9.4,3.7,10,8.5
				c1.1,7.9-5.3,19-13,22.3c-2.4,1.1-4.3,1.4-6.1,1c-1.5-0.4-5.1-2.2-5.1-3.9c0.1,3.1,1,6.5,4.3,7.2c0.8,0.2,1.4,0.3,2.2,0.3
				c1.8,0,3.8-0.5,6-1.4c9.1-4,16.4-16.5,15.1-26C359.1,159.3,355.4,155.2,348,154.2z"/>
			<path class="st11" d="M264.6,176.7c-1.5-1-2.8-2.7-4.4-3.8c-3.3-2.1-7-3.4-10.9-3.7c-4.2-0.3-8.4,0.7-12.1,2.6
				c-3.6,1.8-5.8,5.1-10.1,2.4c0.6,0.4,1.2,2.4,1.7,3.1c0.7,0.7,1.4,1.3,2.1,1.9c0.4,0.4,0.9,0.6,1.4,0.6s1-0.2,1.4-0.6
				c3.9-4.2,9.8-6.8,15.5-6.4c5.8,0.4,11.3,3.6,14.6,8.4c0.5,0.7,1,0.9,1.5,0.8c0.7-0.1,1.4-0.8,1.9-1.4c0.8-0.8,1.4-1.3,1.9-2.2
				c0.2-0.3,0.6-2.2,0.7-2.2C268.2,177.1,266.1,177.6,264.6,176.7z"/>
			<path class="st11" d="M246.1,122.4c6.7,0.5,12.5,2.2,18.3,5.7c0.2,0.1,0.5-0.2,0.4-0.4c-3.3-7.7-11.9-11.2-19.1-8.9
				C244.1,119.4,244.4,122.2,246.1,122.4z"/>
			<path class="st11" d="M166.9,121.7c-3.2,0.6-6.4,2-8.7,4.3c-1.5,1.5-4.4,5-3.4,7.4c3.9-2.1,6.2-4.6,10.2-6.2
				c1.5-0.6,4.8-1.2,4.6-3.1C169.6,122.7,168.3,121.4,166.9,121.7z"/>
			<path class="st11" d="M227.7,209.2c-0.3-0.9-1.3-3.4-2.6-2.5c-1.1,0.7-0.6,2.3,0,3.6c-7.6,4.9-19.2,6.5-26.5,1.3
				c3,4.4,8.8,6.7,14.1,6.7c4.8,0,9.9-2.3,14.1-5.1c0.3,0.4,0.5,0.7,0.8,1.1c0.9,1.1,1.4,1.2,2.5,1.6c0.1,0,0.1,0,0.1-0.1
				c-0.3-1.3-0.5-1.8-1.1-3.1C228.5,211.5,228.1,210.4,227.7,209.2z"/>
			<path class="st11" d="M349.6,173.8c3.1-3,0-7.2-3.7-7.4c-2.4-0.1-4.7,1.1-6.5,2.7c-1.8,1.7-3.4,3.8-3.2,6.4
				c0-0.1,2.3,0.2,2.5,0.5c0.6,0.6,0.4,1.4,0.2,2.1c-0.1,0.3-1.4,2-1,2.2c0.8,0.3,1.7-1,2.2-1.5c0.7-0.9,1.2-1.9,1.1-3
				c-0.1-0.7-0.4-1.4-1-2.1c0.7-1,1.3-2.1,2-2.9c1.3-1.2,3.1-2,4.7-1.4c1.6,0.7,2.9,2.4,2.3,4.2
				C349.4,173.8,349.5,173.8,349.6,173.8z"/>
			<path class="st11" d="M200.7,189.4c-3.2,2.3-3.6,7.2-0.7,9.9c1.9,1.8,5,2.3,7.3,1.2c0.3-0.2,0.7-0.5,0.6-0.8
				c-0.1-0.3-0.4-0.4-0.8-0.5c-2-0.4-3.9-1-5.2-2.7C200.6,194.9,200.3,191.4,200.7,189.4C200.9,189.4,200.8,189.3,200.7,189.4z"/>
		</g>
	</g>
	<g>
		<path class="st12" d="M318.9,494.2c-9.9,0-19.7-3.2-27.4-9.1l-0.5-0.4l-1.1,0.5c-0.3,0.2-0.6,0.3-0.9,0.5
			c-7.6,3.5-17.1,5.4-26.5,5.4c-15.1,0-27.9-4.7-35.2-13l-0.7-0.8l-0.7,0.9c-4.8,5.8-13.5,7.9-21.3,9.3c-4.2,0.7-8.3,1.1-12.1,1.1
			c-13.2,0-23.5-4.3-30.2-12.9l-0.5-0.6l-0.7,0.4c-4.9,2.9-10.8,4.4-17.1,4.4c-18.2,0-34.6-13-40.9-32.4c-2.6-8-3.7-17-2.9-25.9
			c0.5-6.2,1.7-12.7,3.8-19.5c0.7-2.3,1.4-4.6,2.3-7c0.1-0.2,0.3-0.7,0.6-1.3c2.3-5.3,2.3-5.6,1.7-6.2l-0.1-0.1
			c0.4-0.5,0.7-1.1,0.9-1.7l0.5,0.5l0.5-1.2c1.5-3.5,3.3-7.1,5.3-11.3c0.1-0.2,0.3-0.4,0.6-0.5c0.1,0,0.2,0,0.3,0
			c0.2,0,0.3,0,0.5,0.1c21.3,12.2,36.3,34.2,40.1,58.9l0.5,3.3l1.3-3.1c0.8-1.8,1.5-3.5,2.3-5c6.9-12.9,17.5-23.3,27.7-33.1
			c0.2-0.2,0.4-0.3,0.7-0.3c0.2,0,0.5,0.1,0.6,0.3c10.3,9.6,21,19.5,28.4,31.8c3.9,6.3,6.7,13.7,8.6,22.7l0.7,3l1.1-2.8
			c4.1-10.3,12.8-19.1,20.1-25.6l2.1-1.9c9.8-8.8,20.1-17.9,23.8-30.1c0.1-0.3,0.3-0.5,0.5-0.6c0.1-0.1,0.3-0.1,0.4-0.1
			s0.2,0,0.4,0.1c20,8,34.7,27.2,36.5,48c0.4,4.3,0.4,8.5,0.1,12.4l-0.2,1.8l1.5-1c14.4-8.9,23.6-25.3,23.3-41.8
			c0-0.3,0.2-0.6,0.4-0.8c0.2-0.1,0.3-0.1,0.5-0.1c0.1,0,0.3,0,0.4,0.1c6.1,3,11.6,7.6,15.8,13.4l0.9,1.2l0.7-1.3
			c7.9-15.4,11.4-33.3,9.7-50.4c0-0.3,0.1-0.6,0.3-0.8c0.2-0.1,0.4-0.2,0.6-0.2c0.1,0,0.2,0,0.3,0c15.8,4.5,29.3,15.8,35.7,30
			c6.9,14.9,5.8,33-2.8,46.1c-2.2,3.4-4.9,6.6-8.1,9.2c-7.8,6.7-17.7,10.3-27.6,10.3c-1.1,0-2.1-0.1-3.4-0.2l-0.7-0.1l-0.3,0.6
			c-4.4,10.2-12.6,18.6-22.3,23.2C331.9,492.8,325.4,494.2,318.9,494.2z"/>
		<g>
			<path class="st3" d="M145.6,476.6c-16.4-7.2-28.6-21.9-32.2-39.6c-1.8-8.5-1.8-17.5-1.6-26.2c0.4,2,0.8,4.1,1.2,5.9
				c3.1,14.5,8.9,27.9,16.9,40.3c0.1,0.1,0.2,0,0.2-0.1c-5.8-12.1-10.2-25-12.6-38.1c-1.3-6.9-2.1-13.9-2-21c0.1-6.2,2-11.9,2.4-18
				c0-0.6-0.2-1-0.6-1.2c0.1-0.7,0.3-1.4,0.4-2c0.1-0.6-0.6-1-1-0.4c-0.9,1.4-1.7,2.9-2.5,4.4c-0.2,0.4-0.4,0.7-0.6,1.1
				c-9.8,18.7-14.3,42.2-8.6,62.4c5.2,18.5,19.9,34.6,40.2,35C146.2,479.1,146.9,477.1,145.6,476.6z"/>
			<path class="st3" d="M189.7,397.4c-0.2,0.1-0.3,0.3-0.5,0.4c-0.5-0.5-1.3-0.5-1.7,0c-0.9,1-1.5,1.9-2.1,3
				c-6.5,5.5-11.8,12.6-16.6,19.3c-6.4,8.9-11.2,17.3-12,28.5c-1.1,15.3,5.2,37.5,24,37.6c0.7,0,0.9-0.7,0.7-1.2
				c-6.4-13.9-11.7-26.2-8.9-41.9c1.5-8.4,3.4-16.6,7-24.4c0.3-0.6,0.6-1.3,1-1.8c-1.2,4.6-2.1,9.3-2.8,13.9
				c-1.8,13.7-0.3,26.7,4.5,39.7c0.1,0.2,0.3,0.1,0.3-0.1c-3.1-13.9-3.5-28.2,0-42.1c2.3-9.1,8.5-19.9,7-29.3
				c0.2-0.4,0.3-0.9,0.5-1.3C190.1,397.4,189.9,397.2,189.7,397.4z"/>
			<path class="st3" d="M278.3,395.2c-0.3-0.4-0.9-0.6-1.3-0.2c-0.2-0.1-0.4-0.3-0.6-0.4c-0.5-0.3-1.2-0.1-1.4,0.4
				c-0.8,1.6-1.1,3.2-1.2,4.6c-1.4,2.2-2.5,4.6-3.9,6.9c-3.6,5.9-8.2,10.3-13.6,14.7c-8.1,6.7-17.1,14.1-21.3,23.9
				c-0.1,0.1,0.1,0.4,0.2,0.2c10.2-7.8,22.2-12.9,31.9-21.5c-0.7,1.1-1.3,2.1-1.9,3.2c-6.5,10.6-13.8,20.7-21.3,30.6
				c-0.1,0.1,0.1,0.2,0.1,0.1c10.5-10.7,22-22,30.2-34.7c3.6-5.5,8.9-17.8,5.4-24.8C279.4,397.1,279,396.2,278.3,395.2z"/>
			<path class="st3" d="M342,413c-0.5-0.3-1,0-1.2,0.5c-4.1,12.9-8.7,25.2-15.8,36.8c0,0.1,0,0.2,0.1,0.1
				c7.4-4.2,13.4-10.3,16.8-18.2C344,427,348.4,416.6,342,413z"/>
			<path class="st3" d="M373.7,376.3c0-0.2,0-0.3-0.1-0.5c-0.6-3.7-6.3-2.1-5.6,1.5c1.4,8.8,0.8,16.9-1.2,25.6
				c-1.4,5.9-3.9,11.1-5.9,16.6c-1.4,0.4-2.3,1.7-1.3,3.2l0.1,0.1l0,0c0,0.1,0,0.1,0.1,0.1c4.5,6.1,7.6,13.1,8.7,20.7c0,0,0,0,0,0.1
				c-0.1,0.4-0.2,0.9-0.3,1.3c0,0.1,0.1,0.2,0.2,0.1c0.3-0.5,0.5-1,0.8-1.4l0,0l0,0c1-1.6,1.8-3.3,2.6-5c0.9-0.7,1.4-1.8,1.4-3.2
				c3.6-8.3,5.6-16.9,5.9-26.4C379.5,400.2,379.8,383.7,373.7,376.3z M369.6,439.4c0-0.1,0-0.2,0-0.3l0,0
				C369.7,439.3,369.6,439.3,369.6,439.4z"/>
		</g>
		<path class="st4" d="M407.7,414.6c-0.7-4.8-2-9.7-4.1-14c-6.7-14.5-20.3-25.9-36.3-30.5c-0.6-0.2-1.3,0-1.6,0.4
			c-0.5,0.4-0.7,1-0.7,1.5c1.7,17.1-1.7,34.7-9.6,49.9c-4.2-5.7-9.8-10.4-16.1-13.6c-0.6-0.3-1.3-0.3-1.8,0.1
			c-0.6,0.4-0.9,1-0.9,1.5c0.3,16.3-9,32.4-22.8,41c0.3-4,0.3-8.1-0.1-12.6c-1.8-21-16.7-40.6-37.1-48.8c-0.5-0.2-1-0.2-1.4,0.1
			c-0.5,0.2-0.8,0.7-1,1.2c-3.7,12.1-13.8,21-23.6,29.7l-2.2,1.9c-8.1,7.2-16.4,15.7-20.4,25.9c-1.9-9-4.8-16.6-8.7-23
			c-7.5-12.5-18.2-22.4-28.6-32c-0.7-0.7-1.8-0.7-2.5,0c-10.3,9.9-21,20.3-27.9,33.4c-0.9,1.7-1.6,3.4-2.4,5.1
			c-3.7-24.6-18.8-47.2-40.5-59.6c-0.5-0.3-1-0.3-1.4-0.2c-0.5,0.2-0.9,0.5-1.1,1c-7.4,15-14.1,31.5-15.4,48.2
			c-1.6,20.9,6.3,45,26.2,54.8c5.8,2.9,12.2,4.4,18.6,4.4c6.3,0,12.4-1.4,17.6-4.5c7,8.8,17.4,13.2,30.9,13.2
			c3.9,0,7.9-0.4,12.3-1.1c8.2-1.4,17-3.7,21.9-9.7c8.1,9.2,21.9,13.4,35.9,13.4c9.5,0,19-1.9,26.8-5.5c0.5-0.2,1-0.5,1.4-0.8
			c8,6.1,18,9.3,28,9.3c6.5,0,13-1.4,19-4.1c10.2-4.7,18.3-13.3,22.8-23.6c1.2,0.1,2.3,0.2,3.5,0.2c14.7,0,28.6-7.7,36.5-20
			C407,438,409.2,426,407.7,414.6z M117.8,466.4c-10.6-10.2-16.1-26.9-14.8-44.7c1.3-16.5,7.8-32,14.2-45.1
			c22.2,13.4,36.8,38.2,37.8,64.1c-2.5,10.5-1.6,20.9,2.7,29.4l0,0c0.6,1.1,1.2,2.1,1.8,3.1C147.2,480.2,129.3,477.5,117.8,466.4z
			 M225.5,473.9c-3.4,6.9-12.6,9.3-21.2,10.7c-21.2,3.6-35.8-1.9-43.2-16.4l0,0c-5.7-11.1-4.7-26,2.5-39.8
			c6.4-12.1,16.2-21.8,26-31.3c9.8,9.1,19.7,18.5,26.6,30c5.4,8.9,8.8,20.3,10.3,34.9C227,466.3,227.2,470.5,225.5,473.9z
			 M288,483.3c-18.5,8.5-47,7.2-59.2-7.8c2-4.2,1.9-9.1,1.4-13.6c-0.2-1.6-0.4-3.3-0.6-4.9c1.6-12.6,11.6-23.1,21.2-31.7l2.1-1.9
			c9.7-8.6,19.6-17.4,24-29.5c18.2,8,31.3,25.8,33,44.9C311.9,461,304.8,475.6,288,483.3z M336.4,487.7c-13.4,6.2-29.8,4.5-41.9-3.8
			c10.3-6.3,16.5-15.7,18.6-28.4c15.4-8.3,26.1-25,27-42.6c12.7,7.6,21,22.1,20.8,37C360.8,465.9,350.8,481,336.4,487.7z
			 M397.6,445.6c-7.7,11.9-21.9,19-35.5,18.2c1.5-4.4,2.4-9.1,2.5-13.8c0.1-8.7-2.4-17.3-7-24.7c8.4-15.4,12.4-33.4,11.1-51
			c14,4.7,25.6,15,31.5,27.7c1.7,3.9,3,7.9,3.6,12.1v0.3c0,0,0,0,0.1,0C405.5,425.3,403.4,436.7,397.6,445.6z"/>
	</g>
</g>
</svg>
