<?xml version="1.0" encoding="utf-8"?>
<!-- Generator: Adobe Illustrator 22.1.0, SVG Export Plug-In . SVG Version: 6.00 Build 0)  -->
<svg version="1.1" id="Layer_1" xmlns="http://www.w3.org/2000/svg" xmlns:xlink="http://www.w3.org/1999/xlink" x="0px" y="0px"
	 viewBox="0 0 180 337.5" style="enable-background:new 0 0 180 337.5;" xml:space="preserve">
<style type="text/css">
	.st0{fill:#F1CECE;}
	.st1{opacity:0.5;fill:#BF8683;enable-background:new    ;}
	.st2{fill:#F8951F;}
	.st3{opacity:0.65;fill:#EBA99F;enable-background:new    ;}
	.st4{opacity:0.95;fill:#E59680;enable-background:new    ;}
	.st5{fill:#FFFFFF;}
	.st6{fill:#A41E22;}
</style>
<g id="Buddha_3_">
	<g>
		<path class="st0" d="M146,337.3c-4.6,0-9.3-0.4-13.8-1.2c-2.1-0.4-5.2-1.1-7.9-2.5l-0.1-0.1h-0.1c-3-0.3-6.9-1.2-9.9-2.2l-0.4-0.1
			l-0.3,0.3c-0.4,0.5-0.7,0.9-1,1.3l-0.2,0.4c-0.6,0.9-1.1,1.7-2.1,2.2c-0.5,0.3-1.1,0.4-1.8,0.4c-1.4,0-2.7-0.6-3.4-1l-0.3-0.1
			l-0.5,0.2c-0.1,0.1-0.2,0.1-0.4,0.2c-0.5,0.2-0.9,0.2-1.3,0.2c-1.6,0-3-1-4-1.9l-0.2-0.2H98c-0.3,0.1-0.7,0.1-1,0.1
			c-2,0-3.9-0.9-5.2-2.3l1.1-0.8l-1.9-0.1c-0.4,0-0.7-0.1-1-0.2c-1.4-0.5-2.3-2.2-2.2-4l0.1-0.7l-0.7-0.1c-1-0.1-2.1-0.1-3.2-0.1
			c-6.1,0-12.3,1.3-15.4,2.1c-5.3,1.3-10.8,1.9-16.3,1.9c-6.1,0-12.2-0.8-18-2.4c-8.1-2.2-20.4-5.5-24.2-16.4
			c-1.3-3.7-1.4-7.6-0.3-11.1l0.1-0.3l-0.2-0.3c-3.8-5-5.3-11.6-4-17.9c1.2-5.9,4.8-11.2,9.9-14.6l0.5-0.3l-0.3-0.5
			c-3.2-6.1-6.2-12.1-7-18.7c-0.9-7.6,1.5-14.9,6.3-19.1l0.4-0.3l-0.3-0.5c-1.1-2-1.3-4.4-0.6-6.5c0.7-2.2,2.5-4,4.6-4.9l0.4-0.2
			l-0.1-0.5c-0.6-5.4,2.2-11.1,6.9-14c0.5-0.4,0.9-0.7,1.4-0.9l0.3-0.1l0.1-0.3c0.7-2.8,2.7-5.3,5.2-6.6c1.5-0.8,3.2-1.2,4.9-1.2
			c1,0,1.9,0.1,2.9,0.4l0.6,0.2l0.2-0.5c0.5-1.3,1.1-2.4,1.9-3.4l0.6-0.8l-1-0.2c-5.7-1.4-10.4-3.9-14.6-7.9
			c-5.8-5.5-9.7-12.5-12.6-22.6l-0.1-0.2l-0.2-0.1c-0.5-0.3-1-0.7-1.1-0.8c-6.3-5.8-10.5-14-11.5-22.5c-0.2-1.8-0.3-4.1,0.8-6
			c0.6-1.1,1.8-2,3-2.3c0.1,0,0.2,0,0.2,0l0.9-0.1L8,123.4c-3.7-13.3-7.5-27-7.6-41.1c0-22.6,10.4-45.3,27.7-60.7
			C43.5,8,65.1,0.2,87.3,0.2c21.4,0,41.2,7,55.6,19.6c17.3,15.1,25.2,29.8,28.2,52.5c2,14.5-1.3,26.8-5,41.2
			c-0.9,3.5-1.9,7.3-2.9,11.3l-0.2,0.8h0.9c0.6,0,0.9,0.1,1.2,0.2c2.1,0.9,3.2,4.3,3.4,5.7c0.6,4.6-0.7,8.9-1.8,11.7
			c-2,4.8-6,9.7-8.9,13l-0.1,0.1v0.2c-2.5,11.4-7.9,19.5-12.2,23.3c-2.3,2-5.8,4.1-9.7,5.9l-1,0.5l0.9,0.7c4.1,3,7.1,7.9,7.6,12.2
			l0.1,0.5l0.5,0.1c2,0.3,3.8,1.5,5.1,3.2c1.1,1.6,1.7,3.5,1.6,5.3v0.7h0.7c0.5,0,1,0.1,1.5,0.3c1.5,0.6,2.7,1.9,3.2,3.4
			c0.7,2.2,0.4,4.6-0.2,6.8l-0.1,0.5l0.4,0.2c5.2,2.9,9.1,8.6,10.8,15.6c1.6,6.7,1.2,13.8,0.8,20.1v0.4l0.3,0.2
			c5.6,3.7,9.1,10.1,10.2,18.5c1,7.7-1.3,15.1-6.9,22l-0.2,0.2v0.3c0.8,6.3-1.2,13.3-5,17.8l-0.6,0.6c-1.3,1.5-2.6,3-2.5,4.8
			c0.1,1.4,1.1,2.5,2.2,3.8l7.1,7.5c0.2,0.2,0.2,0.4,0.2,0.6c-0.1,0.2-0.2,0.4-0.4,0.5C163.7,335.8,154.9,337.3,146,337.3z"/>
		<path class="st1" d="M119.7,67.7c29.9-11.5,50,21.6,44.7,47.9c-0.3,1.4-0.4,3.2,0.3,4.3c0.6-2.3,1.2-4.5,1.7-6.6
			c3.8-14.3,7-26.7,5-41.2c-3.1-22.6-11-37.3-28.2-52.5C128.7,6.9,109,0,87.6,0C65.4,0,43.8,7.8,28.4,21.4
			C11,36.8,0.6,59.4,0.7,82.1c0,9.4,1.7,18.7,4,27.8c0.4-4.2,0.4-8.5,0.6-12.7c0.4-8.6,1.8-17.8,7.3-24.4c6.7-8,18.4-10.4,28.6-8.5
			c11.2,2,21.6,7.3,28.8,15.8c7.9,9.5,20.7,5.8,29.7,0.2C106.3,76.1,112.3,70.6,119.7,67.7z"/>
		<path class="st2" d="M165.4,324.3c-1.2-1.2-2.1-2.4-2.2-3.8c-0.1-1.7,1.2-3.3,2.5-4.8l0.6-0.6c3.8-4.5,5.8-11.5,5-17.8V297
			l0.2-0.2c5.6-6.9,7.9-14.3,6.9-22c-1.1-8.4-4.6-14.8-10.2-18.5l-0.3-0.2v-0.4c0.4-6.3,0.8-13.5-0.8-20.1
			c-1.7-7.1-5.6-12.8-10.8-15.6l-0.4-0.2l0.1-0.5c0.5-2.2,0.9-4.6,0.2-6.8c-0.5-1.5-1.8-2.8-3.2-3.4c-0.5-0.2-1-0.3-1.5-0.3h-0.7
			v-0.7c0.1-1.8-0.5-3.7-1.6-5.3c-1.3-1.7-3.1-2.9-5.1-3.2l-0.5-0.1l-0.1-0.5c-0.5-3.9-2.7-8.5-6-11c-4.7-3.6-10.9,0.2-16,1.1
			c-10.2,1.7-19.5-1.1-28.6,5.1c-3.4,2.3-6.4,5.1-9.3,8c-4-4.9-6.9-8.6-13-11.1c-4.6-1.9-9.5-3.2-14.5-3.8c-2.7-0.4-5.6-0.9-8.4-0.6
			c-1.3,0.2-2.8,0.4-3.7,1.5c-0.4,0.5-1.5,4.2-2.1,4l-0.6-0.2c-0.9-0.3-1.9-0.4-2.9-0.4c-1.7,0-3.5,0.4-4.9,1.2
			c-2.5,1.4-4.4,3.8-5.2,6.6l-0.1,0.3l-0.3,0.1c-0.5,0.2-0.9,0.5-1.4,0.9c-4.7,2.9-7.6,8.7-6.9,14l0.1,0.5l-0.4,0.2
			c-2.1,0.9-3.9,2.7-4.6,4.9c-0.7,2.1-0.5,4.6,0.6,6.5l0.3,0.5l-0.4,0.3c-4.8,4.2-7.3,11.5-6.3,19.1c0.8,6.6,3.8,12.6,7,18.7
			l0.3,0.5l-0.5,0.3c-5.1,3.4-8.7,8.7-9.9,14.6c-1.3,6.2,0.2,12.9,4,17.9L10,299l-0.1,0.3c-1,3.5-0.9,7.4,0.3,11.1
			c3.8,10.9,16,14.2,24.2,16.4c5.9,1.6,11.9,2.4,18,2.4c5.5,0,11-0.7,16.3-1.9c3.1-0.8,6.3-1.3,9.5-1.7c2.9-0.3,8.2,1.1,10.7-0.4
			c1-0.6,1.6-1.6,2.2-2.6c0.6-1,1.2-2,2.1-2.7c0-0.7-0.7-1.2-1.4-1.2s-1.3,0.4-1.9,0.9c-0.5,0.4-1.1,0.9-1.7,1.2
			c-1.1,0.5-2.5,0.2-3.6-0.4c-3.9-2.3-6.7-7.6-2.5-11.3c5-4.5,13-0.6,17.8-6.4c3.7,0.5,6.5,0.6,9.5,3c2.4,1.9,4.4,4.4,5.7,7.1
			c0.7,1.3,4.4,13.7,3.9,13.9c-2.2,1-4.2,2.1-6.2,3.5c1-0.7,3.4,1.5,4.3,1.8c2.2,1,4.9,1.3,7.2,1.5h0.1l0.1,0.1
			c2.7,1.4,5.8,2.1,7.9,2.5c4.5,0.8,9.2,1.2,13.8,1.2c8.9,0,17.7-1.5,26.2-4.5c0.2-0.1,0.4-0.2,0.4-0.5c0.1-0.2,0-0.4-0.2-0.6
			L165.4,324.3z M85.5,211.1c0.2-1.7,1.9-3.1,3.6-3c3.3,2.3,4.7,6.3,6.2,9.9c1.1,2.8,2.9,11.4,6.3,12c1.2,0.2,2.4,0,3.5,0.4
			c2.6,0.8,4.2,5.4,5,7.7c1.2,3.6,1.6,7.5,0.9,11.2c-3.2,0-6.3,1.6-9.4,2.2c-3.7,0.7-7.4,1.3-11,2.6c-1,0.3-2.2,0.4-2.9-0.2
			c-0.6-0.5-0.8-1.3-0.9-2c-0.7-3.2-1-6.6-0.8-9.9c-1.5,4-4.3,13.7-9.5,12.8c-4.9-0.8-9.2-2.6-13.7-4.7c0.9-5,4.3-9.9,7.1-14.1
			c1.3-2,2.7-3.5,3.2-6c0.2-1.2-0.9-6.3-0.6-6.8c1.9-2.8,3.8-5.6,5.4-8.6c1.2-2.1,2.8-5.1,5.2-5.8C84.4,208.7,86,209.9,85.5,211.1z"
			/>
		<path class="st3" d="M146,337.3c8.9,0,17.7-1.5,26.2-4.5c0.2-0.1,0.4-0.2,0.4-0.5c0.1-0.2,0-0.4-0.2-0.6l-7.1-7.5
			c-1.2-1.2-2.1-2.4-2.2-3.8c-0.1-1.7,1.2-3.3,2.5-4.8l0.6-0.6c3.8-4.5,5.8-11.5,5-17.8v-0.3l0.2-0.2c5.6-6.9,7.9-14.3,6.9-22
			c-1.1-8.4-4.6-14.8-10.2-18.5l-0.3-0.2v-0.4c0.4-6.3,0.8-13.4-0.8-20.1c-1.7-7.1-5.6-12.8-10.8-15.6l-0.4-0.2l0.1-0.5
			c0.5-2.2,0.9-4.6,0.2-6.8c-0.5-1.5-1.8-2.8-3.2-3.4c-0.5-0.2-1-0.3-1.5-0.3h-0.7V208c0.1-1.8-0.5-3.7-1.6-5.3
			c-1.3-1.7-3.1-2.9-5.1-3.2l-0.5-0.1l-0.1-0.5c-0.5-3.9-2.7-8.5-6-11c-4.7-3.6-10.9,0.2-16,1.1c-10.2,1.7-19.5-1.1-28.6,5.1
			c-3.4,2.3-6.4,5.1-9.3,8c-4-4.9-6.9-8.6-13-11.1c-1-0.4-2-0.8-3-1.1c-7-0.9-14.1-2.4-21.1-3.1c-0.9,0.2-1.8,0.5-2.4,1.2
			c-0.4,0.5-1.5,4.2-2.1,4l-0.6-0.2c-0.9-0.3-1.9-0.4-2.9-0.4c-1.7,0-3.5,0.4-4.9,1.2c-0.1,0.1-0.2,0.1-0.3,0.2
			c12.8-2.5,27.7,3.9,29.9,17.9c-6.9-4.7-14.9-7.9-23.2-9.1c5.7,1,11,4.3,14.4,9.1c-2.5,1.9-6,0.4-9-0.4c-6.3-1.7-13.4-0.1-18.2,4.3
			c3.6-0.8,7.2-1.5,10.9-1.5c3.7,0.1,7.4,1.1,10.2,3.5c-5.9-0.5-12,1.3-16.7,4.9s-8.1,9-9.2,14.8c3.4-4.4,6.9-8.9,11.5-12
			s10.7-4.6,15.8-2.4c-3.7,2.7-6.6,6.4-8.2,10.7c2.4-3.2,5.5-5.9,9-7.9c0.9-0.5,1.8-1,2.8-0.9s2,1,1.8,2c-4.4,5.1-8,9.7-10.1,16.3
			c4.6-5.3,9.2-10.7,14.8-14.9c3.6-2.7,7.9-5.2,12.5-3.8c0,0,0,0.1,0.1,0.2c0-0.1,0-0.3,0-0.3c1.7-2.4,3.2-4.8,4.7-7.3
			c0.3-0.5,0.6-1,0.9-1.4c1.2-2.1,2.7-4.9,5.2-5.6c1.2-0.3,2.6,0.6,2.5,1.7l0,0c0.4-1.5,1.9-2.8,3.5-2.7c1,0.7,1.8,1.6,2.5,2.5
			c0.7,0.7,1.2,1.6,1.6,2.5c1.5,2.9,2.6,5.9,3.4,9.1c1.1,3.4,2.7,7.4,4.9,7.8c1.2,0.2,2.4,0,3.5,0.4c2.6,0.8,4.2,5.4,5,7.7
			c1.2,3.6,1.6,7.5,0.9,11.2c-3.2,0-6.3,1.6-9.4,2.2c-3.7,0.7-7.4,1.3-11,2.6c-1,0.3-2.2,0.4-2.9-0.2c-0.6-0.5-0.8-1.3-0.9-2
			c-0.7-3.2-1-6.6-0.8-9.9c-1.5,4-4.3,13.7-9.5,12.8c-4.9-0.8-9.2-2.6-13.7-4.7c0.9-5,4.3-9.9,7.1-14.1c1.3-2,2.7-3.5,3.2-6
			c0-0.2,0-0.5,0-0.8c-0.3,1.1-0.7,2.3-1.3,3.3c-1.5,2.8-3.8,5.1-5.5,7.8c-2.6,4.2-4,8.5-4.3,13.3c-0.2,4.6-1.1,9.5-4.3,13
			c-3,3.3-7.6,4.8-11.8,6.4c-6.6,2.5-13.5,5.6-19.6,9.1c-3.6,2-6.7,5.6-9.8,8.3c-2.6,2.2-5.2,4.5-7.8,6.7c0.3,0.4,0.5,0.8,0.8,1.2
			c4.3-5,10.7-7.7,17.2-9c6.9-1.3,14-1.2,21-1.8c7-0.6,14.2-2.1,19.8-6.3c7.2,6.7,17,10.3,26.8,10c-7,8.9-15.6,16.7-25.9,21.2
			c-10.3,4.5-22.5,5.5-32.9,1.1c3.6,4.4,8.2,8,13.4,10.5c-9.1,0.1-18.1-0.5-27.1-1.8c4.2,2.1,8.8,3.3,12.4,4.3
			c5.9,1.6,11.9,2.4,18,2.4c5.5,0,11-0.7,16.3-1.9c3.1-0.8,6.3-1.3,9.5-1.7c2.9-0.3,8.2,1.1,10.7-0.4c0.1-0.1,0.2-0.1,0.3-0.2
			c0.9-1.9,1.8-3.9,2.7-5.8c-0.8,0.4-1.7,0.6-2.5,0.8c-0.4,0.3-0.8,0.6-1.2,0.8c-1.1,0.5-2.5,0.2-3.6-0.4c-3.9-2.3-6.7-7.6-2.5-11.3
			c0.5-0.4,0.9-0.7,1.4-1c0.7-0.5,1.4-0.8,2.2-1.1c1.9-0.6,3.9-0.7,5.9-0.7c3-0.3,6-0.9,8.2-3.6c1.7,0.3,3.3,0.4,4.8,0.8
			c-4.2-1.7-8.7-2.4-13.3-3.4c4.7-3.4,9.9-6.2,14.6-9.7c4.7-3.5,9.2-7.4,13.6-11.2c7-6.1,13.2-13.9,21.3-18.7
			c10.8-6.5,28.8-6.4,29.2,9.7c0.2,8.5-3.6,17-10,22.5c3.3-6.9,4.3-14.9,2.9-22.4c-3.1,10.8-9,20.7-15.9,29.6s-15,16.9-23,24.8
			c-2.3-6-7.2-12.2-12.1-16.6c1.3,1.4,2.4,3,3.3,4.8c0.7,1.3,4.4,13.7,3.9,13.9c-2.2,1-4.2,2.1-6.2,3.5c1-0.7,3.4,1.5,4.3,1.8
			c2.2,1,4.9,1.3,7.2,1.5h0.1l0.1,0.1c2.7,1.4,5.8,2.1,7.9,2.5C136.7,336.8,141.4,337.3,146,337.3z M105.8,219.5
			c-1.5-0.8-2-2.7-1.7-4.4c0.4-1.6,1.4-3,2.6-4.2c3.7-4.1,8.1-7.5,13-10.1c-5,1.4-9.8,3.8-14,6.9c1.8-2.7,4.4-4.8,7.3-6
			c-5.1,2-10.3,4.1-15.4,6.1c-0.5,0.2-1,0.4-1.6,0.3c-0.8-0.2-1.2-1.3-1-2.1s0.9-1.5,1.5-2c5.1-4.7,11.3-8.1,17.9-10
			c3.7-1,7.9-2.3,11.8-1.9c0.7,0.1,1.4,0.2,2,0.4c1.9,0.5,4.1,1.7,4.2,3.8c0.2,2.7-2.2,3.4-4.1,4.4c2.2-1.2,5.3-0.1,6.3,2.2
			c0.9,2.3-0.6,5.3-3,5.9c2.5,1.2,6.1,0,8.3,1.7c1.7,1.3,2.1,4.4,0.6,5.9c-0.5,0.5-1.1,0.9-1.8,1.2c-1.2-0.2-2.5-0.3-3.7-0.4
			c-3.1-0.2-6.3-0.1-9.4,0.1c-0.5,0-7.6-0.1-7.6-0.1c1.5-2.9,4-5.8,7.3-6.7c-4.8,1.2-9.2,3.5-13,6.6
			C110.5,218.8,108,220.7,105.8,219.5z M156.3,252c-14.1-1.1-28.5,1-41.7,6.1c-0.7,0.3-1.4,0.5-2,0.1c-0.4-0.3-0.5-0.7-0.6-1.1
			c-1.5-5.2,0.2-10.7,1.8-15.9c1.5-5.2,2.9-10.9,0.9-15.9c-0.1-0.2,6.3-0.9,7-1.1c6-1.3,11.5-2.5,17.7-1c5.3,1.3,8.5,4.6,11.6,8.9
			C154.9,237.9,157.3,245.1,156.3,252z"/>
		<g>
			<path class="st4" d="M56.2,267.2c0,0.1-0.1,0.1-0.1,0.2c-1.9,2.1-4.2,3.9-6.7,5.2c-2.9,1.5-5.9,1.6-8.9,2.7
				c-5.3,1.9-11.4,5.9-15.3,10.1c8.5-1.6,17.1-3.2,25.4-5.9c6.8-2.2,13.6-6.7,20.9-4.9c11.9,2.9,21.9,13.1,34.2,12.9
				c0.9,0,1-5.5,0.9-6.2c-0.2-2.5-1.3-4.4-2-6.7c-1.5-4.7-3.7-8.7-6.3-12.9c2.9-0.8,6.1-1.5,8.9-0.3c3.1,1.4,4.6,4.8,5.9,7.9
				c-2.3-6.8-3-14.2-2.1-21.4c-7.5,3.3-15.6,5.1-23.8,5c-0.5-4.1-0.9-8.2-1.4-12.3c-1.6,2.2-1.7,5.1-2.3,7.8c-0.6,2.6-2.3,5.5-5,5.8
				c-1,0.1-2-0.2-3-0.4c-4.5-1.3-8.8-2.6-13.3-4C62.4,256,60.3,262.4,56.2,267.2z"/>
			<path class="st4" d="M60.9,223.3c-1.6-0.6-2.8-1.8-4.1-2.8s-3.1-1.8-4.6-1.3c1.9-1.7,4.6-1.9,7.1-1.7c2.5,0.2,5,0.9,7.5,0.8
				c5.3-0.2,9.9-3.5,14.1-6.8c-1.5,2-2.9,4-4.4,6c-1,1.4-2.6,4.8-4.1,5.5c-1.1,0.5-4.2,0.1-5.6,0.3
				C64.8,223.6,62.8,224.1,60.9,223.3z"/>
			<path class="st4" d="M98.9,225.4c-1-2.6-2-4.9-3.4-7.3c-1.2-2-1.8-5.3-3.5-6.8c3,2.6,8,5.2,10.3,0.4c-0.9,1.9-1.8,4.1-0.9,6
				c0.8,1.6,2.7,2.4,4.5,2.4s3.5-0.7,5.2-1.4c0.5,1.7,3,2.4,4.3,1.2c-1.6,1.2-1.8,3.8-3.6,4.6c-0.6,0.3-1.3,0.3-1.9,0.3
				C106.2,225.1,102.6,225.3,98.9,225.4z"/>
		</g>
		<g>
			<path class="st5" d="M20.4,309.5c9.2,6.5,22.6,8.3,33.5,9.4c0.1,0,0.1-0.1,0-0.1c-8.9-3.4-17.8-7-26.3-11.3c-4-2-7-4.3-9-8.4
				c-1.3-2.6-1.5-5.4-2.2-8c1.4-1.4,2.8-2.8,4.3-4.1c6.1-5.1,13-9.2,20.4-12.1c1.5-0.6,3.3-1.4,3.6-3c0.3-1.3-0.6-2.6-1.4-3.7
				c-2.4-3.8-3.4-8.6-2.7-13.1c-5.6,4.1-12.2,6.6-18.3,9.8s-12.2,7.3-15.4,13.5C6,280.1,5.4,282,5.1,284c-0.2,3.6,0.4,7.2,1.8,10.4
				c0.9,1.4,2,2.4,3.4,2c-0.4,0.8-0.7,1.5-0.9,2.3l0,0l0.2,0.3l-0.1,0.3c-0.3,0.9-0.5,1.9-0.6,2.9c0,4.2,1.9,8.4,4.6,11.7
				c5.1,6.3,12.1,9.2,19.8,11c0.1,0,0.1-0.1,0.1-0.1c-5.8-2.7-12-6.3-16.1-11.3c-3.7-4.6-5-10-5.4-15.8
				C13.8,302.5,17.3,307.3,20.4,309.5z"/>
			<path class="st5" d="M97.3,306.9c-2.7,0.7-5.5-0.2-8.2-0.1c-2.4,0.1-4.6,0.8-6.4,2.4c-3.7,3.5-3.4,9.8,1.6,11.8
				c0.5,0.2,1.3,0,1.7-0.5c0.9-1,0.3-1.7-0.1-2.8c-0.8-2.4-0.3-5.3,2-6.6C91.2,309.5,95.1,310.4,97.3,306.9
				C97.4,306.9,97.4,306.9,97.3,306.9z"/>
			<path class="st5" d="M2.5,64.9c-1.9,11.6-1.1,23.8,0.7,35.2c1.8,11,4.7,21.8,7.6,32.6c1.4,5.1,2.6,10.3,3.9,15.4
				c-0.4-0.5-0.8-1-1.1-1.6c-3.2-5-6-10-7.5-15.9c0-0.1-0.2-0.1-0.2,0c-0.4,5.6,1.2,11.1,4,15.9c1.9,3.3,4.4,7.7,7.5,10.8
				c0.8,2.4,1.7,4.8,2.7,7.2c3.2,7.6,7.8,14.2,14.8,18.7c7.7,5,15.6,4.9,24.6,5.1c0.3,0,0.4-0.5,0.1-0.6
				c-8.8-1.7-18.2-4.4-24.4-11.1c-6-6.4-9.2-14.6-11.6-22.8c-5.2-17.7-10.5-36.1-13.5-54.4C7,80.9,8.2,62.8,15.6,45.5
				c3.1-7.4,7.6-14.4,13.2-20.2c5.4-5.7,12.1-9.1,18.1-14c0.2-0.1,0-0.3-0.2-0.3c-3.5,0.8-6.9,2.3-10.2,4.2c-2.9,1.9-5.6,4-8.1,6.2
				C15.4,32.9,6.3,48.4,2.5,64.9z"/>
			<path class="st5" d="M29.9,222.1c0.1,0,0-0.1,0-0.1c-3.9,0.8-7.2,1.1-10.5,3.5v-0.1c-0.4-5,3-9.3,7.9-10.2c0.1,0,0.1-0.2,0-0.2
				c-6.7-1.2-11.8,3.6-12.6,10c0.2,0.6,0.4,1.3,0.7,1.9l0.3,0.5h-0.1c0.4,0.2,0.8,0.3,1.3,0.3c-2.2,2.3-4,5.2-5.2,8.2
				c-4,10.1,0.5,20,5.7,28.6c1.6,2.7,5.4,0.3,4.1-2.4c-3.5-7.2-7.6-15-5.7-23.3C17.3,232.4,23.4,224.2,29.9,222.1z"/>
			<path class="st5" d="M40.4,201.9c0,0,0.1-0.1,0-0.1c-8.9-3.9-17.2,1-20.1,9.8c-1,3,4,4.3,4.7,1.3c0.8-3.8,2.6-6.7,6-8.8
				C34.1,202.1,37.1,202.8,40.4,201.9z"/>
			<path class="st5" d="M122.3,276.5c9.8-12.8,28.7-22.6,45.1-19.5c-3.1-2.7-7.3-3.7-11.4-4c-8.8-0.7-17.8,1.3-25.5,5.7
				c-7.7,4.4-13.9,11.2-17.8,19.1c-2.4,5-4.2,10.8-9.1,13.4c0-0.7,0.1-1.5,0.1-2.2c-0.1,1.1-4.6,4-5.6,4.8c-2.3,1.8-4.9,3.3-7.3,5
				c2.9,1,5.9,1.9,8.8,2.9c0.8,0.3,5.5-4.7,6.3-5.4c2.1-2,4.2-4,6.2-6.2C116,286,118.7,281.1,122.3,276.5z"/>
			<path class="st5" d="M41.9,192.1c-4.4-1.3-10.3,0.1-11.8,5c-0.6,1.8,1.7,3.7,3.3,2.5c1.4-1,2.5-2.3,3.9-3.3
				c1.5-1.1,2.7-2.1,4.6-2.6C42.7,193.5,42.7,192.4,41.9,192.1z"/>
		</g>
	</g>
	<g>
		<path class="st6" d="M121.2,159.1c0.4,0,0.7,0,1.1,0c4-0.2,7.9-1.3,11.4-3.1c1.7-0.9,3.4-1.9,4.8-3.2c0.6-0.6,3.3-2.8,4.3-1.7
			c-0.8-0.8-1.8-1.3-3-1.3c-2.9,0-5.8,3.2-8.3,4.4c-2.9,1.4-6.1,2.2-9.3,2.3c-5.8,0.2-11.8-1.7-16.3-5.5
			C108.4,156.3,115.1,159.1,121.2,159.1z"/>
		<path class="st6" d="M70.1,153.9c-0.8,0.9-3.3,1.3-4.4,1.6c-1.6,0.4-3.2,0.7-4.8,0.9c-3.3,0.3-6.6,0.1-9.8-0.7
			c-3.2-0.8-6.3-2.1-9-3.9c-1.5-1-2.1-1.9-4-1.3c-1.6,0.5-3.1,1.6-4,3.1c1-0.3,1.9-0.6,2.9-0.7c2.1-0.2,3,0.8,4.6,1.8
			c1.7,1,3.4,1.8,5.3,2.5c3.6,1.3,7.4,2,11.3,2C62.7,159.1,66.5,158,70.1,153.9z"/>
		<path class="st6" d="M83.8,171.4c1.2,1,2.6,1.5,4.1,1.5c0.1,0,0.2,0,0.3,0c1.6,0,2.7-0.4,3.9-1.4c0.6-0.5,1.1-1,1.4-1.7
			c0.1-0.2,0.4-1.7,0.5-1.7c-1.9,1-3.8,2.3-6,2.2c-2.3-0.1-4.2-1.5-6.2-2.3c0.1,0,0.5,1.5,0.6,1.7C82.8,170.4,83.3,171,83.8,171.4z"
			/>
		<path class="st6" d="M96.8,179.9c-3.1-1.8-6.6-2.7-10.2-2.7c-3.1,0-6.2,0.7-9,2.1c-0.1-0.1-0.1-0.2-0.2-0.3
			c-0.7-0.6-2.1-0.5-2.2,0.6c-0.1,1,0.2,1.5,0.9,2.2c0.5,0.5,1,0.7,1.7,0.9c0.5,0.1,1-0.3,0.8-0.8v-0.1c5.3-2.8,12.1-2.6,17.2,0.6
			v0.1c-0.2,0.3,0,0.8,0.4,0.7c0.5-0.1,1.1-0.1,1.6-0.5s1-0.9,1.3-1.5C100,179.8,97.5,178.5,96.8,179.9z"/>
		<path class="st6" d="M122.9,125.7c1.7,0.9,3.6,0.8,5.4,1.5c1.4,0.6,2.8,2.1,4.3,2.3h0.1c0.6-1.7-1.4-3.8-2.6-4.8
			c-1.8-1.4-4.4-3-6.7-2.2C121.9,123,121.4,124.9,122.9,125.7z"/>
		<path class="st6" d="M47.7,127.2c1.8-1.1,3.5-1.8,5.6-1.9c3.3-0.2,2.5-5.3-0.6-4.6c-2.5,0.6-4.9,1.8-6.8,3.6
			c-1.3,1.3-2.8,3.5-2.4,5.4c0,0,0,0.1,0.1,0.1C45.2,129.3,46.4,128,47.7,127.2z"/>
		<path class="st6" d="M42.3,220.8c-7.4,1.8-13.2,6.4-17.9,12.1c0.5-1.5,1.2-3,2-4.6c0.1-0.3-0.2-0.7-0.5-0.5
			c-3.1,2.2-4.3,5.5-4.4,9.3c0,1.1,1.4,1.3,1.9,0.5c4.6-7.2,10.8-13.5,19.2-15.9C43.1,221.6,42.9,220.7,42.3,220.8z"/>
		<path class="st6" d="M165.9,323.8c-1.1-1.1-2-2.2-2-3.3c-0.1-1.5,1.2-2.9,2.4-4.3l0.6-0.7c4.1-4.9,5.9-12.1,5.1-18.3
			c4.5-5.6,8.2-13.2,7-22.5c-1.1-8.6-4.8-15.2-10.5-19c0.4-6.7,0.7-13.6-0.8-20.3c-1.7-7.3-5.7-13.1-11.1-16.1
			c0.5-2.2,0.9-4.7,0.1-7.1c-0.6-1.7-2-3.2-3.6-3.8c-0.6-0.2-1.2-0.4-1.7-0.4c0.1-2-0.5-4-1.7-5.7c-1.4-1.9-3.4-3.2-5.5-3.5
			c-0.5-4.5-3.7-9.6-7.9-12.7c4-1.8,7.5-3.9,9.9-6c4.4-3.9,9.9-12.2,12.4-23.6c3.1-3.6,7-8.5,9-13.2c1.2-2.9,2.5-7.3,1.9-12
			c-0.2-1.3-1.2-5.2-3.8-6.3c-0.4-0.2-0.9-0.3-1.5-0.3c1-4,1.9-7.7,2.9-11.3c3.8-14.4,7-26.8,5.1-41.4
			c-3.1-22.8-11.1-37.6-28.5-52.9C112.8-8,59.8-7.2,28,20.9C10.5,36.4,0,59.2,0,82c0,14.2,3.9,28,7.6,41.3c0,0.2,0.1,0.3,0.1,0.5
			c-0.2,0-0.3,0-0.5,0.1c-1.4,0.3-2.7,1.3-3.4,2.6c-1.2,2.1-1.1,4.5-0.9,6.4c1,8.7,5.3,17,11.7,22.9c0.1,0.1,0.6,0.5,1.1,0.9
			c2.4,8.4,5.9,16.3,12.8,22.9c4.9,4.6,9.8,6.9,14.9,8.1c-0.8,1-1.4,2.1-1.9,3.5c-2.7-0.8-5.8-0.5-8.3,0.9c-2.7,1.5-4.7,4.1-5.5,7
			c-0.5,0.2-1,0.5-1.4,0.9c-4.9,3-7.9,9-7.2,14.7c-2.3,1-4.1,2.9-5,5.3c-0.8,2.3-0.5,4.9,0.7,7c-5,4.3-7.5,11.9-6.6,19.6
			c0.9,6.9,4.1,13.3,7,18.9c-5.2,3.4-8.9,9-10.2,15c-1.3,6.4,0.2,13.3,4.1,18.4c-1.1,3.5-1,7.6,0.4,11.5
			c3.9,11.2,16.4,14.6,24.6,16.8c5.9,1.6,12.1,2.4,18.2,2.4c5.5,0,11.1-0.7,16.4-2c3.3-0.8,11.5-2.5,18.4-1.9
			c-0.2,2.1,0.9,4,2.6,4.7c0.4,0.1,0.8,0.2,1.2,0.2l-0.1,0.1c1.4,2,3.7,3.1,6.1,3.1c0.4,0,0.7,0,1.1-0.1c1.1,1,2.6,2.1,4.4,2.1
			c0.5,0,1-0.1,1.6-0.3c0.2-0.1,0.4-0.2,0.6-0.3c0.8,0.4,2.2,1,3.7,1c0.7,0,1.4-0.1,2.1-0.5c1.1-0.6,1.7-1.6,2.3-2.5l0.2-0.4
			c0.3-0.4,0.6-0.9,1-1.3c3,1,7,1.8,10,2.2c2.6,1.4,5.5,2.1,8.1,2.6c4.6,0.8,9.2,1.2,13.9,1.2c8.9,0,17.9-1.5,26.4-4.5
			c0.4-0.1,0.7-0.5,0.8-0.9c0.1-0.4,0-0.9-0.3-1.2L165.9,323.8z M141.5,199.7c-0.6,0-1.1,0-1.7,0c-2.2-0.1-4.3,0.2-6.5,0.1
			c-0.1,0-0.1,0.1,0,0.1c2,0.3,3.9,0.9,5.9,1.2c1.5,0.2,3.3,0.7,4.8,0.4c1.3,0.3,2.4,1.1,3.3,2.3c1.1,1.6,1.5,3.5,1,5.1
			c-5.6-0.1-11.2,0.1-16.8,0.1c-0.1,0-0.1,0.1,0,0.1c6.4,1.4,13.5,3,20.1,1.5c0.1,0,0.2,0.1,0.3,0.1c1,0.4,1.8,1.3,2.1,2.3
			c0.6,1.9,0.2,4-0.4,6.5c-3.2-0.9-6.2-0.8-9.7-0.6c-0.1,0-0.1,0.1,0,0.1c4.5,0.6,9.3,1.5,13.1,4.2c4.3,3,6.7,7.7,7.9,12.7
			c1.4,5.8,1.2,12,0.9,18c-5.8-2.3-12.4-3-19.1-2.1c-9.8,0-20.4,2.8-28.7,5.9c-0.1,0.1-0.1,0.3,0.1,0.2c5.6-1.2,11.3-2.3,17-3
			c-4.8,2-9.5,4.7-14.1,8.2c-2,1.6-4.4,3.6-6.4,6c-0.3-1.1-0.7-2.2-1-3.2c-0.2-0.4-0.3-0.8-0.5-1.2c-1.4-4-1.3-8.5-1-13.1v-0.8
			c0.2-4.4,0.5-8.9-0.6-13.2c-1.3-5.4-5.4-9.1-9.3-9.1c-0.6,0-1.1,0-1.5,0c-0.1-0.3-0.3-0.7-0.4-1.2c0.8-1,3.6-1.4,6.5-1.5
			c0.2,0.1,0.4,0.1,0.6,0c2.8-0.1,5.6,0.1,6.7-0.1c4.5-0.6,8.1-1.8,11.8-4.4c0.1,0,0-0.1,0-0.1c-4.2,1.6-8.5,2.4-12.9,2.7
			c2.4-1.6,4-4.4,7.3-5c6.2-1.2,13.1,0.5,19.4,0.3c0.1,0,0.1-0.1,0-0.1c-6.2-1.7-13.8-2.5-20.2-1.8c-3.9,0.4-7.5,4.1-10.2,6.8
			c-0.3,0-0.5,0-0.8,0c3.5-6.6,9.2-12.2,16.9-13.3c0.1,0,0-0.1,0-0.1c-8.2,1.1-15.8,5.6-19.1,13.4c-2.1,0-4.3,0-6.4,0
			c-0.2,0-0.4,0.1-0.6,0.2c-0.3-0.9-0.7-1.9-1-2.8c2.8-4.5,4.8-9.1,9.1-12.8c6.1-5.2,14-8.6,22-8.8c0.1,0,0.1-0.1,0-0.1
			c-8.3,0-15.8,1.7-22.4,7c-3.7,2.9-7.7,7.2-9.8,11.8c-0.4-1.1-0.9-2.2-1.2-3.1c0.5-0.8,0.8-1.6,1.4-2.5c1.3-2.1,3.2-3.9,5.1-5.3
			c3.4-2.6,7.4-4.8,11.5-6c0.1,0,0.1-0.3,0-0.2c-4.8,0.5-8.9,1.9-12.8,4.8c-2.1,1.6-5.2,4.1-6.4,6.9c-0.5-0.9-1.3-2-2.2-3.1
			c2.3-1.9,3.5-5.3,5.5-7.4c3.7-4.2,8.8-7.3,14-9.4c0.1,0,0-0.2,0-0.1c-4.6,1.7-9.2,3.2-13.2,6.2c-3.2,2.4-5.3,5.9-7.6,9.1
			c-1-1-2.1-1.8-3.2-1.8c-0.8,0-1.5,0.3-2,1c-0.2,0.3-0.4,0.6-0.5,0.9c-0.3-0.3-0.6-0.5-1.1-0.6c-0.9-0.4-3.2-1.3-12.4,13.3
			l-8.7,0.8c-0.5,0.1-1.1,0.1-1.5,0c-0.7-0.2-1.2-0.7-1.9-1.4c-0.4-0.4-0.8-0.8-1.3-1.2c-1.3-0.9-3-1.5-4.9-1.6
			c-0.1-0.1-0.1-0.2-0.2-0.3c6.8-1.4,19.8-6.6,24.6-9.7c3.4-2.2,6.2-4.8,8.8-7.3c5.3-5,9.9-9.3,18.3-9.9c2.3,0,4.7,0.2,6.8,0.3h0.3
			c6.8,0.4,14.4-1.2,21-3.7C137.6,190,141.3,195.4,141.5,199.7z M106.4,287.2c0.1-0.1,0.1-0.3,0.2-0.4c0.9-3,0.8-6.3,0.2-8.8
			c-0.8-3.5-2.5-6.7-4.2-9.8c-0.6-1.1-1.2-2.3-1.8-3.4c-2.2-4.4-3-8.2-2.5-11.4l11.3-2.9c0,0.2,0,0.3,0,0.5v0.8
			c-0.3,4.9-0.4,9.6,1.2,14.1c0.1,0.4,0.3,0.9,0.5,1.3c0.7,1.8,1.2,4.2,1,6.1c0,0.1-0.1,0.2-0.2,0.3c-0.9,1.9-1.5,4-2,5.9
			c-0.5,1.6-0.9,3.2-1.5,4.6c-0.5,1.3-1.3,2.7-2.4,3.8C106.3,287.7,106.4,287.5,106.4,287.2z M63,255.3c0.2-1.2,0.4-2.3,0.6-3.4
			c2.4,0.3,4.4,1.2,6.5,2.1c0.7,0.3,1.3,0.6,2,0.9c-1.9,2.3-2.7,5.3-3.6,8.2c-0.9,3-1.7,5.9-3.6,7.9c-1.6,1.8-3.9,2.9-6.1,3.8
			c-6.3,2.8-12.8,5-19.5,6.7c-1.3,0.3-2.7,0.6-4,1c-3.3,0.8-6.7,1.6-10,2.7c6-3.9,12.7-6.9,19.2-9.8l3-1.4c4.8-2.2,9.8-4.7,12.5-9.3
			C62,261.7,62.5,258.5,63,255.3z M74.9,253.1c-1.3-0.4-2.5-1-3.7-1.5c-2.1-0.9-4.3-1.9-6.9-2.3l0,0c1-2.9,2.7-5.5,4.6-8.3
			c0.8-1.3,1.7-2.6,2.5-3.9c2.2-3.7,4.4-9.1,2.7-14c3.6-5.6,8.1-11.7,9.7-12.5c0.4,0.2,0.5,0.5,0.4,0.9c-0.6,0.3-1.3,0.8-2.3,1.6
			l-0.2,0.1c-2,1.5-2.5,3.8-3.4,6c-0.9,2.4-1.6,4.8-2,7.3c-0.1,0.6-0.2,1.1-0.3,1.7c1-2.5,2.2-5,3.5-7.3c1-1.9,1.9-4.3,3.7-5.6
			l0.2-0.1c0.2-0.2,0.5-0.4,0.7-0.5c0,0.9-0.2,2.1-0.3,3.1c-0.3,0-0.6,0.1-0.9,0.2c-1.2,0.6-1.7,1.9-2,2.6c-1.7,4-3.4,8.2-3.2,12.6
			c2-2.7,3.1-5.7,4.4-8.8c0.4-1,0.9-3.3,1.8-3.9c0.1-0.1,0.2-0.1,0.3-0.2c0.1,1.7,0.3,8.4,0.5,15c-0.2,3.8-2.5,12.7-4.4,16
			c-0.5,0.8-1.1,1.8-1.9,2.1C77.5,253.9,76.2,253.6,74.9,253.1z M87,222.7c0.2,0.1,0.3,0.2,0.4,0.3c0.8,0.9,1.3,1.9,2,3
			c0.6,1.1,0.8,2.6,1.3,3.8c0.6,1.4,1.3,2.7,2.2,3.9c-0.2-0.3,0.2-2.5,0.2-3.1c-0.1-1.1-0.2-2.2-0.5-3.2c-0.5-1.9-1.3-4-2.4-5.6
			c-0.4-0.6-2.1-2.1-3.6-2.8c-0.1-0.1-0.1-0.2-0.2-0.3h0.2c0-0.3,0.3-2.7,0.4-4.3c1.4,0.2,2.1,0.7,3,2.3c2,3.4,3.1,7.4,4.4,11.1
			c-0.3-0.7,0.1-2.2,0.1-3c0-1.2-0.2-2.3-0.4-3.5c-0.4-2-0.9-4.2-1.9-6c-1.4-2.3-3.2-3.8-4.7-3.9c0.2-0.5,0.4-1.2,0.9-2
			c0.9,0.4,2.9,2.7,4.8,5.7c1.1,1.8,3.3,8,4.5,11.7c0.9,2.6,1.1,3.2,1.3,3.5c0.3,0.4,0.6,1,3.4,1c0.7,0,1.7,0,2.8-0.1
			c1.9,1.7,3.4,4.2,4.1,7.2c0.7,2.9,0.8,6.1,0.7,9.2l-17.8,4.6c-1.3,0.3-2.9,0.6-3.6-0.1c-0.5-0.5-0.6-1.6-0.6-2.6L87,222.7z
			 M82.1,197.8c-1.4-1.5-2.9-3.1-4.6-4.5c2.2,0.4,4.4,0.7,6.7,0.7c0.7,0,1.4,0,2.1-0.1c2.3-0.2,4-0.6,5.7-1
			c-2.4,1.7-4.6,3.8-6.8,5.9c-0.4,0.3-0.7,0.7-1.1,1C83.4,199.2,82.7,198.5,82.1,197.8z M164.6,127.4c1.1,0.5,2,2.8,2.2,4.2
			c0.5,4.1-0.6,8.1-1.7,10.7c-1.4,3.4-3.6,6.5-5.8,9.3c0-0.3,0.1-0.6,0.1-0.9c0.9-8.5,2.4-16,4-22.9
			C164.1,127.3,164.4,127.4,164.6,127.4z M5.4,132.6c-0.2-1.6-0.3-3.4,0.5-4.8c0.4-0.6,1.1-1.2,1.8-1.4c0.2,0,0.3-0.1,0.5-0.1
			c0.8,2.8,1.5,5.5,2.2,8.3c0.8,3.1,1.5,6.3,2.2,9.4c0.6,2.6,1.1,5.3,1.8,7.9C9.6,146.7,6.3,139.8,5.4,132.6z M15.2,143.6
			c-0.7-3.1-1.4-6.4-2.2-9.5c-1-3.8-2-7.6-3.1-11.3c-3.7-13.1-7.5-26.7-7.5-40.6C2.4,60.1,12.5,38,29.5,23C45.3,9.1,66.5,2,87.4,2
			c20,0,39.7,6.4,54.3,19.2c16.9,14.8,24.6,29.1,27.6,51.2c1.9,14.1-1.3,26.3-5,40.4c-2.8,10.6-5.9,22.5-7.6,37.5
			c-1.5,13.7-7.7,23.6-12.5,27.8c-6.3,5.5-20.2,11-31.9,10.3H112c-4.5-0.3-10.1-0.6-14.5,0.2c-1.9,0.4-3.4,0.8-4.9,1.2
			c-2.2,0.6-4,1.2-6.7,1.4c-4.7,0.4-9-0.7-13.6-1.9c-0.9-0.2-1.8-0.5-2.7-0.7c-4.8-1.2-9.5-1.6-13.9-2c-9.4-0.8-17.6-1.5-25.5-9.1
			C20.6,168.5,17.9,155.8,15.2,143.6z M7.6,281.2c1.1-5.1,4-9.8,8.5-12.4s9.6-4.1,14.2-6.6c5.1-2.8,9.5-6.6,12.1-12
			c0.1-0.1-0.1-0.3-0.2-0.1c-4.3,4.4-8.4,8.2-13.7,10.9c2.1-2,4-4.2,5.4-6.4c0.1-0.1-0.1-0.2-0.2-0.1c-2.8,2.4-5.7,4.8-8.7,7
			c-1,0.7-2,1.4-3.1,2c-1.4,0.5-2.8,0.9-4.1,1.6c-3.1-5.9-6.3-11.9-7.1-18.6c-0.7-6.1,0.9-11.9,4.2-15.8c2.2-1.8,4.3-3.8,6.8-5.2
			c3.8-2.1,8-3.5,12.2-4.6c0.1,0,0.1-0.2,0-0.2c-5.3-0.3-12.1,1.5-17,5.1c-0.7-1.4-0.9-3.1-0.3-4.7c1.5-4.5,7.1-5.5,11.1-6.1
			c-0.5-0.2-6.1-1.2-6-0.3c-0.7-5.2,2.7-11.1,7.6-13.1l0,0c1.3-0.3,2.6-0.6,4-0.5c3.8,0.1,7.8,1.3,11.5,1.9c0.2,0,0.3-0.3,0.1-0.4
			c-3.3-1.4-9.5-4.2-14.3-4c0.8-1.7,2.1-3.2,3.7-4.1c4.3-2.4,11.1,0.2,15.3,2c4.9,2.1,9.6,5.2,12.9,9.4c0,0.1,0.1,0,0.1-0.1
			c-2-3-4.2-5.8-6.9-8c3.5,1.6,6.7,3.6,9.3,6.4c0.1,0.1,0.1,0,0.1-0.1c-1.7-3.6-5.4-5.9-8.6-8c-3.7-2.4-8-3.9-12.4-4.2
			c0.3-1.4,1.2-2.5,2.2-3.5c3,0.5,6,0.8,9.1,1c4.3,0.4,8.8,0.8,13.5,1.9c4.8,1.6,8,5,11.1,8.3c0.7,0.7,1.3,1.4,1.9,2
			c-1.7,1.5-3.4,2.9-5.4,4.2c-0.4,0.3-1,0.6-1.6,0.9c-2.2-4.7-5.5-7.4-9.8-10.2c-0.1,0-0.1,0.1-0.1,0.1c3.7,2.5,6.4,7,8.1,11
			c-3.4,1.7-7.9,3.6-12.2,5.1c-2.1-3.7-5.1-6.2-9.4-7c-0.1,0-0.1,0.1,0,0.1c3.1,1.7,5.9,4.4,7.7,7.5c-3,1-5.8,1.8-7.7,2
			c-5-5.1-14.3-3.1-20.2,0c-0.1,0,0,0.1,0,0.1c5.5-1.8,15.5-3.2,18.9,2.8c-2.1,0.4-4.1,1.2-5.3,2.7c2.8-0.1,5.6-0.1,8.4,0.2
			c-2.8,1.5-5.4,4.7-6.9,6.7c-0.1,0.1,0.1,0.1,0.1,0.1c1.6-2.1,4.1-3.8,6.6-4.7c1.1-0.4,2.8-1.1,4-0.8c0.1,0,0.2,0.1,0.3,0.1
			c0.1,0.1,0.2,0.2,0.3,0.3c0.9,0.9,1.8,1.8,3.1,2.1c-2.5,1.8-4.7,4.5-6.5,6.6c-2.8,3.2-6,6.6-8.6,10.4c0-0.1,0-0.3,0-0.4
			c0.1-1.2,0.8-2.2,1.3-3.2c1.9-3.1,4.4-5.8,7.3-8c0.1,0,0-0.1-0.1-0.1c-3.1,1.7-5.7,3.9-7.8,6.7c-2,2.7-3.3,5.7-3.3,9.1
			c-0.4,0.7-0.7,1.5-1,2.3c0,0.1,0.1,0.1,0.1,0c2.4-5.5,7.5-10.1,11.7-14.4c4-4.1,7.7-6.9,12.8-9.2l4.6-0.4c1.3,4-0.6,8.6-2.5,11.8
			c-0.7,1.3-1.6,2.5-2.4,3.8c-1.8,2.8-3.8,5.6-4.9,8.9c-0.7,2.1-1.1,4.3-1.4,6.4c-0.5,3.1-1,6-2.4,8.4c-2.3,4-6.9,6.2-11.3,8.2
			l-3,1.4c-10.5,4.7-22.5,10.1-30.5,19.3c-1.1,1.1-2.1,2.3-3,3.7C7.5,291.6,6.6,286.3,7.6,281.2z M68.2,325.3
			c-11,2.6-22.5,2.5-33.4-0.4c-10.2-2.8-19.6-6-22.8-15.2c-1.2-3.5-1.6-8.3,0.7-12.3c0.2,3.7,2.7,8.2,4.3,10.2c0,0.1,0.1,0,0.1-0.1
			c-1-2-1.6-4.1-2.2-6.3c-0.7-2.7-0.7-5.9,1.3-8.2c1.9-2.2,4.9-3.4,7.5-4.5c3.9-1.6,8.2-2.6,12.3-3.6c1.4-0.3,2.7-0.6,4.1-1
			c6.8-1.7,13.5-4,19.9-6.8c2.5-1.1,5-2.3,6.9-4.5c2.3-2.5,3.2-5.8,4.1-8.9c0.9-3.1,1.7-6,3.7-7.9c0.9,0.3,1.8,0.5,2.7,0.5
			c0.7,0,1.4-0.1,2.1-0.4c1.5-0.7,2.4-2,3-3.2c0.8-1.5,1.7-3.9,2.5-6.4c0.1,2.1,0.1,3.4,0.1,3.4c0,1.2,0.1,3.1,1.4,4.4
			c0.9,0.9,2.1,1.2,3.2,1.2c1.1,0,2.2-0.3,2.9-0.4l3-0.8c-0.2,3.3,0.6,6.9,2.5,11.1c-7.4,2.3-16.3,3.3-22.3-1.9
			c-0.1-0.1-0.3,0.1-0.2,0.2c4.6,6.2,16.8,7.6,23.7,4.3c0.3,0.6,0.6,1.2,0.9,1.8c1.6,3.1,3.2,6,3.9,9.2c0.5,2,0.6,4.4,0,6.6
			c-6.5-1.5-12.6-3.4-18.5-6.6c4.6-0.5,9.7-3.7,12.8-5.7c0.1,0,0-0.1-0.1-0.1c-3,1.3-6.2,2.6-9.4,3.2c-2.8,0.5-5.4,0.4-8,0
			c-2.9-1.6-5.8-2.9-9.5-3.2c-0.1,0-0.2,0.2,0,0.2c6.6,2.3,11.4,7.4,17.6,10.4c4.4,2.2,9.3,3.7,14.2,4.2c-0.2,0.4-0.4,0.7-0.7,1.1
			L89.8,298c-0.3,0.2-0.9,0.7-1.1,1.5c-0.1,0.7,0.2,1.2,0.3,1.5c0.9,1.7,2.1,3.3,3.3,4.8c-0.4,0.1-0.8,0.1-1.2,0.1
			c-0.6,0-1.3-0.1-1.9-0.2c-0.8-0.1-1.6-0.2-2.5-0.2c-3.5,0.1-6.8,2.6-7.8,6c-1.1,3.4,0.2,7.3,3.1,9.2c1.4,1,3.9,1.9,5.9,1.4
			c0.9-0.2,1.6-0.9,2.3-1.5c0.2-0.2,0.4-0.4,0.6-0.6c-0.2,0.3-0.5,0.7-0.9,1l-0.2,0.2c-0.8,0.7-1.4,1.5-1.9,2.3
			c-2.2-0.2-4.4-0.3-6.7-0.1c-7.2-0.6-14.3-0.9-21.4-2.6c-7.8-1.8-15.7-3.8-23.1-6.9c-0.1,0-0.1,0.1-0.1,0.1
			c9.9,4.8,21.2,9.3,32.6,11.1C69,325.1,68.5,325.2,68.2,325.3z M110.9,331.8l-0.3,0.4c-0.4,0.7-0.9,1.3-1.4,1.6
			c-0.6,0.3-1.4,0.2-2.2-0.1c0.2-0.3,0.4-0.6,0.5-0.9c0.3-0.5,0.4-1.2,0.3-1.8c0-0.3-0.8-1.5-0.7-1.5c-0.4,1.5-1.8,3.2-3.3,3.9
			c-0.8,0.3-1.7,0.2-2.5-0.2c-0.1,0-0.3-0.2-0.6-0.4c1.8-1.3,3.1-3.5,2.1-5.5c-0.1-0.1-0.1-0.2-0.2-0.2s-0.2,0.1-0.2,0.1
			c-1.3,1.5-2.4,3.6-4.4,4.1c-1.5,0.4-3.2,0-4.4-1c0.7-0.4,1.3-0.9,2-1.5c0.7-0.7,1.2-1.4,1.6-2.3c0.2-0.5,0.4-1.1,0.5-1.6
			c0-0.2-0.2-1.2-0.2-1.3c-0.4,0.5-0.8,0.9-1.2,1.4c-0.6,0.7-1.2,1.4-2,2c-1.4,1.1-5.3,2.4-4.7-0.9c0.2-1,0.8-2,1.9-3l0.2-0.2
			c0.6-0.5,1.3-1.2,1.7-2.2c0.3-0.8,0.2-1.8-0.3-2.5c-0.4-0.6-1-1-1.7-1c-1.2-0.1-2.1,0.8-2.9,1.5c-0.4,0.3-0.8,0.8-1.1,0.9
			c-1.1,0.3-2.8-0.3-3.8-1c-1.9-1.3-2.8-4-2.1-6.3s3.1-4.1,5.4-4.2c0.6,0,1.3,0.1,2.1,0.2c0.7,0.1,1.5,0.2,2.3,0.2
			c3.8,0,6.9-2.4,9.6-5.2c5.8,2.7,11.3,6.8,13.9,14.9c0.4,1.1,0.6,2.2,0.9,3.4c0.4,1.6,0.8,3.1,1.4,4.7
			C114.7,327.4,112.5,329.4,110.9,331.8z M119.9,330.8c-1.3-0.3-2.5-0.6-3.7-0.9c0.7-0.5,1.4-1,2.2-1.4
			C118.8,329.3,119.3,330.1,119.9,330.8z M132.6,334.1c-2.4-0.4-5.2-1.1-7.6-2.5v-0.1h-0.1c-1-0.6-2-1.3-2.8-2.2
			c-2-2.3-2.8-5.4-3.6-8.6c-0.3-1.2-0.6-2.4-1-3.5c-4.2-13.2-13.6-16-24.3-17.2c1.7,0.6,3.5,1.3,5.3,2c-1,1-2.1,1.9-3.2,2.6
			c-1.3-1.4-2.5-3-3.5-4.7l9.8-7.1c0.1,0,0.2,0,0.3,0c0,0,0,0,0.1,0c4.4-0.2,7.5-4.2,9-7.7c0.7-1.6,1.1-3.3,1.6-4.9
			c0.5-1.9,1.1-3.8,1.9-5.5c1.5-3.1,4.1-6,8.3-9.2c8.7-6.7,19.7-11.7,30.9-11.4c7,0.2,13.7,2.3,17.9,8.2c2.7,3.7,4.2,8.3,4.8,12.9
			c1.7,13.4-8.1,23.3-14.1,28c-4.4,3.4-9.1,6.2-13.6,8.7c-4.1,2.3-8,5.1-11.7,7.8l-1.5,1.1c-0.4,0.3-1.7,1.2-1.5,2.6
			c0.1,0.6,0.4,1.1,0.9,1.5s1.2,0.5,1.7,0.5s0.9-0.1,1.1-0.1c5.6-1.4,11.1-3.8,15.9-7.2c-4.4,3.1-11.4,4.3-16.2,4.6l1.1-0.8
			c3.8-2.8,7.4-5.4,11.4-7.6c4.3-2.4,9.4-5.4,13.9-8.9c1.7-1.3,3.8-3.1,5.8-5.2c0.2,5-1.5,10.1-4.8,14l-0.5,0.6
			c-1.5,1.7-3.1,3.6-3,6.2c0.1,2.2,1.7,3.9,2.8,5l5.7,6C157.6,335.5,144.8,336.3,132.6,334.1z"/>
	</g>
</g>
</svg>
