<?xml version="1.0" encoding="utf-8"?>
<!-- Generator: Adobe Illustrator 22.1.0, SVG Export Plug-In . SVG Version: 6.00 Build 0)  -->
<svg version="1.1" id="Layer_1" xmlns="http://www.w3.org/2000/svg" xmlns:xlink="http://www.w3.org/1999/xlink" x="0px" y="0px"
	 viewBox="0 0 187.5 343" style="enable-background:new 0 0 187.5 343;" xml:space="preserve">
<style type="text/css">
	.st0{fill:#FAC2B5;}
	.st1{opacity:0.65;fill:#EBA99F;enable-background:new    ;}
	.st2{fill:#F8951F;}
	.st3{fill:#EBA99F;}
	.st4{fill:#FFFFFF;}
	.st5{fill:#A41E22;}
	.st6{fill:none;stroke:#A41E22;stroke-width:3;stroke-miterlimit:10;}
	.st7{opacity:0.5;fill:#BF8683;enable-background:new    ;}
</style>
<g>
	<g id="Buddha">
		<g>
			<path class="st0" d="M186.3,237.2c-0.8-4.2-3.5-7.6-6.2-10.3c-0.5-0.5-0.9-1-1.4-1.4c-2.1-2.2-4.1-4.2-5.5-6.7l-0.2-0.4l0.2-0.3
				c1-1.5,0.8-3.5,0.1-4.8c-0.8-1.6-2.1-2.8-3.4-3.9l-0.1-0.1c-7.4-6.5-14.1-13.9-19.9-21.9c-0.1-0.2-0.3-0.3-0.5-0.3
				c-0.1,0-0.3,0-0.4,0.1l-4.7,3.1l-3.4-2.9l2.8-3.4c0.2-0.2,0.2-0.4,0.1-0.7c-0.3-0.7-0.5-1.5-0.9-2.3
				c-33.3,11.9-69.5,12.2-101.7-4.1c-0.8,2.5-0.9,5.4-0.2,7.7l0.3,1l-6.2-1c-0.2,0-0.4,0.1-0.6,0.3c-0.1,0.2-0.2,0.5,0,0.7
				c1.1,1.8,0.2,4.3-1.3,5.8c-1.3,1.3-2.9,2.2-4.6,3.1c-0.4,0.2-0.9,0.5-1.3,0.7c-11.6,6.6-18.8,19.2-24.7,29.3
				c-0.1,0.2-0.1,0.5,0,0.8l1.9,2.5l-0.1,0.3c-3.1,11.2-4.2,23.1-3,34.6c0.3,2.7,0.7,5.6,1.9,8.3c1.8,4.2,5,7.4,8.8,10.8l0.5,0.4
				l-0.4,0.5c-4.4,5.7-6.6,12.6-6.2,18.7c0.3,4.3,1.8,8.3,3.3,12.3c1.1,3,2.3,6,4.1,8.7c2.4,3.6,6,6.5,10.4,8.3
				c3.3,1.4,6.9,2.1,10.4,2.9c4.3,0.9,8.4,1.7,12.1,3.8c0.4,0.2,0.9,0.6,1.4,0.9c1.1,0.8,2.3,1.6,3.7,1.6c0.3,0,0.6,0,0.9-0.1
				c0.9-0.3,3-1.4,4.1-2.9l0.3-0.3l0.4,0.1c4.8,0.9,9.8,1.3,14.8,1.3c0.7,0,1.3,0,2,0h0.5l0.2,0.5c0.2,0.5,0.4,1,0.7,1.4
				c0.9,1.1,2.3,1.8,3.8,1.8c0.8,0,1.7-0.2,2.3-0.6c0.6-0.3,1.1-0.8,1.6-1.2c0.5-0.4,1-0.9,1.5-1.1c0.8-0.4,1.7-0.4,2.7-0.5h0.4
				c0.6,0,1.4-0.1,2.2-0.2l0.4-0.1l0.2,0.3c1.1,1.4,2.9,2.3,5.1,2.5c0.4,0,0.8,0.1,1.1,0.1c1.3,0,2.6-0.2,3.9-0.4l0.8-0.1
				c2.6-0.4,5.2-0.5,7.9-0.5c2.7,0,5.4,0.2,8.1,0.6c1.2,0.2,2.5,0.3,4,0.3c5.7,0,11.9-1.3,16.8-2.4c5.2-1.1,10.2-3,14.8-5.5l1-0.5
				c1.4-0.8,2.7-1.5,4.1-2c2.1-0.7,4.3-0.8,6.7-1c0.8,0,1.6-0.1,2.4-0.2c3.4-0.3,11.7-1.7,14.7-8.4c1.3-3,1.3-6.4,1.1-9.4
				c-0.4-5.9-1.3-12.3-2.8-19.4c-0.6-2.8-1.7-5.5-2.8-8c-1.1-2.6-2.1-5-2.6-7.5v-0.2l4.9-11.6c2.4-5.6,4.3-11.5,2.3-16.4l-0.2-0.5
				l0.5-0.3C185.7,245.2,186.9,240.7,186.3,237.2z"/>
			<path class="st1" d="M186.3,237.2c-0.8-4.2-3.5-7.6-6.2-10.3c-0.5-0.5-0.9-1-1.4-1.4c-2.1-2.2-4.1-4.2-5.5-6.7l-0.2-0.4l0.2-0.3
				c1-1.5,0.8-3.5,0.1-4.8c-0.8-1.6-2.1-2.8-3.4-3.9l-0.1-0.1c-7.4-6.5-14.1-13.9-19.9-21.9c-0.1-0.2-0.3-0.3-0.5-0.3
				c-0.1,0-0.3,0-0.4,0.1l-4.7,3.1l-3.4-2.9l2.8-3.4c0.2-0.2,0.2-0.4,0.1-0.7c-0.3-0.7-0.5-1.5-0.9-2.3c-31.7,11.3-66.1,12.2-97-1.9
				c2.6,3.3,4.4,7.2,4.7,12.4c0.4,8.1-2.3,16.1-5,23.8c15.2-1.6,30.4-3.1,45.7-2.6c15.3,0.6,30.6,3.4,44.3,10.2
				c0.2,0.1-3.9,6.1-4.4,6.6c-1.8,1.8-4.2,3.1-6.8,3.1c-3.5,0-6.7-2.1-9.2-4.6s-4.6-5.4-7.4-7.5c-1.9-1.5-4.3-2.6-6.8-2.7
				c-1.9-0.1-4.2-0.3-6.1-0.2c-1.1,0.1-2.3,0.8-2.5,2c0.7-0.9,2.2-0.6,2.8,0.3s0.5,2.1,0,3.1s-1.3,1.7-2.2,2.4
				c0.8-0.5,1.9-0.5,2.6,0c2.6,1.7,0.3,4.5-1.2,5.8c0.6,0,1.2,0,1.9,0c1.2,3.5-1.4,8.1-2.4,11.4c1.1-1.4,2.8-2.8,4.6-2.6
				c1.8,0.2,3.1,2.8,1.7,4c3.4,0.7,5.9,3.7,7.6,6.7s3.1,6.4,5.7,8.7c1.8,1.6,4,2.7,5.9,4.1s3.7,3.4,4,5.7c-3,1-6.2,2.1-9.4,2.1
				c-3.2,0-6.6-1.3-8.3-4c-1.3-2.1-1.5-4.8-1.8-7.3c-0.5-3.9-1.7-7.2-3.1-10.7c-0.1-0.4-0.4-0.8-0.8-0.7c-0.2,0-0.3,0.2-0.5,0.4
				c-2.1,3.2-4.1,6.4-6.5,9.3c-1.6,1.9-5.1,6.8-7.9,6.8c-3.9,1.8-8.3,1.8-12.5,2.4c-9.2,1.1-18.3,4.3-27.4,2.7
				c-4.2-0.8-8.3-2.6-11.6-5.3c-1.2-1-2.3-2.1-2.8-3.5c-0.5-1.5-0.1-3.1,0.3-4.7c1.8-6.6,4.6-13,9.4-17.8s11.8-7.7,18.5-6.5
				c-3.4-5.4-10.4-6.2-16.2-5.2c-19,3.3-43,29.6-26.4,48.2c8.6,9.6,22.9,8.7,34.6,9.1c6.1,0.2,12.3,0.4,18.1,2.9
				c4.9,2.1,6.4,7.4,12.3,8.3c2.9,0.5,5.3-1.2,7.7,1.4c1.3,1.4,2,3.3,2.5,5.1c3.1,11,2.8,22.9-0.8,33.7c-0.7,2.2,6.2,4.5,7.6,4.7
				c3.6,0.6,7.2-1.1,10.8-1.1c2.7,0,5.4,0.2,8.1,0.6c1.2,0.2,2.5,0.3,4,0.3c5.7,0,11.9-1.3,16.8-2.4c5.2-1.1,10.2-3,14.8-5.5l1-0.5
				c1.4-0.8,2.7-1.5,4.1-2c2.1-0.7,4.3-0.8,6.7-1c0.8,0,1.6-0.1,2.4-0.2c3.4-0.3,11.7-1.7,14.7-8.4c1.3-3,1.3-6.4,1.1-9.4
				c-0.4-5.9-1.3-12.3-2.8-19.4c-0.6-2.8-1.7-5.5-2.8-8c-1.1-2.6-2.1-5-2.6-7.5v-0.2l4.9-11.6c2.4-5.6,4.3-11.5,2.3-16.4l-0.2-0.5
				l0.5-0.3C185.7,245.2,186.9,240.7,186.3,237.2z"/>
			<path class="st2" d="M61.7,181.8c-5.2-0.9-10.3-2.7-14.8-5.4c-1.2-0.7-2.4-1.5-3.8-1.2c-0.9,0.1-1.5,0.8-1.9,1.7
				c7.3,3.7,14.8,6.6,22.5,8.7C63.1,184.4,62,181.9,61.7,181.8z"/>
			<path class="st2" d="M186.3,237.2c-0.8-4.2-3.5-7.6-6.2-10.3c-0.5-0.5-0.9-1-1.4-1.4c-2.1-2.2-4.1-4.2-5.5-6.7l-0.2-0.4l0.2-0.3
				c1-1.5,0.8-3.5,0.1-4.8c-0.8-1.6-2.1-2.8-3.4-3.9l-0.1-0.1c-7.4-6.5-14.1-13.9-19.9-21.9c-0.1-0.2-0.3-0.3-0.5-0.3
				c-0.1,0-0.3,0-0.4,0.1l-4.7,3.1l-3.4-2.9l2.8-3.4c0.2-0.2,0.2-0.4,0.1-0.7c-0.3-0.8-0.6-1.5-1-2.2c-7.3,2.6-14.8,4.7-22.3,6.1
				c-1.4,2.6-3.4,4.9-5.7,6.7c-3.7,3-8,5-12.3,6.9c-4.3,2-8.6,4-12.3,6.9c-0.6,0.5-7.4-4-8.3-4.5c-2.9-1.7-5.8-3.6-8.5-5.6
				c-2.8-2.1-4.5-4.6-6.4-7.4c-1-1.5-2.3-2.7-3.3-4.1c-0.1-0.1-0.2-0.3-0.3-0.6c-7.7-2.1-15.2-4.9-22.5-8.7c-1,2.3-0.5,6.4,0,7.8
				l0.3,1l-6.2-1c-0.2,0-0.4,0.1-0.6,0.3c-0.1,0.2-0.2,0.5,0,0.7c1.1,1.8,0.2,4.3-1.3,5.8c-1.3,1.3-2.9,2.2-4.6,3.1
				c-0.4,0.2-0.9,0.5-1.3,0.7c-11.6,6.6-18.8,19.2-24.7,29.3c-0.1,0.2-0.1,0.5,0,0.8l1.9,2.5l-0.1,0.3c-3.1,11.2-4.2,23.1-3,34.6
				c0.3,2.7,0.7,5.6,1.9,8.3c1.8,4.2,5,7.4,8.8,10.8l0.5,0.4l-0.4,0.5c-4.4,5.7-6.6,12.6-6.2,18.7c0.3,4.3,1.8,8.3,3.3,12.3
				c1.1,3,2.3,6,4.1,8.7c2.4,3.6,6,6.5,10.4,8.3c3.3,1.4,6.9,2.1,10.4,2.9c4.3,0.9,8.4,1.7,12.1,3.8c0.4,0.2,0.9,0.6,1.4,0.9
				c1.1,0.8,2.3,1.6,3.7,1.6c0.3,0,0.6,0,0.9-0.1c0.9-0.3,3-1.4,4.1-2.9l0.3-0.3l0.4,0.1c5,0.9,11.7,2.3,16.7,0.6
				c-2.9-1.4-4.1-5.6-2.4-8.4c-1.8-0.2-3.5-1.3-4.4-2.8c-0.9-1.6-1-3.6-0.2-5.2c-2.5-0.7-4.4-3.4-4-6s2.8-4.7,5.5-4.7
				c-2.6-0.9-4.8-3-5.8-5.6s-1-5.6,0.3-8.1c1-2,2.7-3.7,4.8-4.2c3.1-0.8,4.5,0.7,7.2,1.8c2.8,1.2,6,1.7,9,1.4c1.5-0.1,3-0.4,4.4,0.1
				c1.2,0.4,2.1,1.3,2.8,2.3c2.8,3.6,4.4,8.4,5.5,12.7c1.4,5.6,2.4,11.4,2.9,17.2c0.1,1.7,0.2,3.5-0.5,5c-0.8,1.5-2.3,2.5-3.9,3
				c-1.6,0.5-3.3,0.6-5,0.7c0.9,2.3,3,3.9,5.5,4.2c0.4,0,0.8,0.1,1.1,0.1c1.3,0,2.6-0.2,3.9-0.4l0.8-0.1c2.6-0.4,5.2-0.5,7.9-0.5
				c2.7,0,5.4,0.2,8.1,0.6c1.2,0.2,2.5,0.3,4,0.3c5.7,0,11.9-1.3,16.8-2.4c5.2-1.1,10.2-3,14.8-5.5l1-0.5c1.4-0.8,2.7-1.5,4.1-2
				c2.1-0.7,4.3-0.8,6.7-1c0.8,0,1.6-0.1,2.4-0.2c3.4-0.3,11.7-1.7,14.7-8.4c1.3-3,1.3-6.4,1.1-9.4c-0.4-5.9-1.3-12.3-2.8-19.4
				c-0.6-2.8-1.7-5.5-2.8-8c-1.1-2.6-2.1-5-2.6-7.5v-0.2l4.9-11.6c2.4-5.6,4.3-11.5,2.3-16.4l-0.2-0.5l0.5-0.3
				C185.7,245.2,186.9,240.7,186.3,237.2z M135.2,272.9c-4.6-1-9.1-2.7-13.8-2.5c-2.6,0.1-5.1,0.8-7.7,1.1c-2.6,0.3-5.4,0-7.4-1.6
				c-2.8-2.2-3-5.5-3.4-8.6c-0.5-4.2-1.8-8.4-3.3-12.4c-0.7,5.9-1.8,12.8-5.3,17.7c-2.2,3.1-5.6,5.5-9.4,6c-2.9,0.4-5.9-0.4-8.8-0.9
				c-7-1.2-12.7,1.7-19.2,3.8c-5.9,1.9-12.2,2.2-18.2,1.2c-5.2-0.9-9.1-3.7-14.1-5.1c-2.9-0.8-6-2.4-6.8-5.3
				c-0.5-1.7-0.1-3.5,0.4-5.3c2.2-7.7,5.4-15.4,10.9-21.2c5.5-5.9,13.4-9.9,21.4-9.2c5.4,0.4,10.5,2.9,15.9,3.6
				c7.8,0.9,15.9-2.3,20.9-8.2c1.7-2,3.1-4.3,5.3-5.8s5.4-1.8,7.1,0.2c1.7-1.9,4.8-0.6,6.9,0.9c5.6,4,10.9,8.6,15.5,13.7
				c4.8-1.6,9.6-3.3,14.3-4.9c4.3-1.5,8.4-2.7,13-1c4.7,1.8,7.9,6.2,9.5,11c1.6,4.7,1.8,9.8,2,14.8c0.2,3.8,0.5,7.7,1.5,11.3
				c0.3,1.1,0.7,2.3,1.1,3.4C154.8,273.7,144.6,274.9,135.2,272.9z"/>
			<g>
				<path class="st1" d="M71.7,329.2c-1.8-0.2-3.5-1.3-4.4-2.8s-1-3.6-0.2-5.2c-2.5-0.7-4.4-3.4-4-6s2.8-4.7,5.5-4.7
					c-2.6-0.9-4.8-3-5.8-5.6c-0.2-0.4-0.3-0.9-0.4-1.4c-0.6,1.6-1.1,3.2-1.4,4.9c-0.8,4.7-0.5,9.5-0.1,14.3
					c0.1,1.9-17.2-5.6-18.4-6.3c-6.8-4-13.4-8.4-19.5-13.5c2.5,2.2,3.6,5.4,5,8.2c2.2,4.2,5.3,8.2,7.9,12.2
					c-6.6-2.6-12.3-7.4-16.2-13.4c0.5,5.8,2.4,11.6,5.5,16.6c-3.8-1.8-7.7-3.6-11.5-5.4c0.2,0.8,0.5,1.6,0.7,2.4
					c2.4,3.2,5.8,5.8,9.8,7.5c3.3,1.4,6.9,2.1,10.4,2.9c4.3,0.9,8.4,1.7,12.1,3.8c0.4,0.2,0.9,0.6,1.4,0.9c1.1,0.8,2.3,1.6,3.7,1.6
					c0.3,0,0.6,0,0.9-0.1c0.9-0.3,3-1.4,4.1-2.9l0.3-0.3l0.4,0.1c5,0.9,11.7,2.3,16.7,0.6C71.2,336.1,70,331.9,71.7,329.2z"/>
				<path class="st1" d="M186.3,237.2c-0.8-4.2-3.5-7.6-6.2-10.3c-0.5-0.5-0.9-1-1.4-1.4c-2.1-2.2-4.1-4.2-5.5-6.7l-0.2-0.4l0.2-0.3
					c1-1.5,0.8-3.5,0.1-4.8c-0.8-1.6-2.1-2.8-3.4-3.9l-0.1-0.1c-7.4-6.5-14.1-13.9-19.9-21.9c-0.1-0.2-0.3-0.3-0.5-0.3
					c-0.1,0-0.3,0-0.4,0.1l-4.7,3.1l-3.4-2.9l2.8-3.4c0.2-0.2,0.2-0.4,0.1-0.7c-0.3-0.8-0.6-1.5-1-2.2c-7.3,2.6-14.8,4.7-22.3,6.1
					c-1.4,2.6-3.4,4.9-5.7,6.7c-3.7,3-8,5-12.3,6.9c-4.3,2-8.6,4-12.3,6.9c-0.6,0.5-7.4-4-8.3-4.5c-2.9-1.7-5.8-3.6-8.5-5.6
					c-2.8-2.1-4.5-4.6-6.4-7.4c-1-1.5-2.3-2.7-3.3-4.1c-0.1-0.1-0.2-0.3-0.3-0.6c-4.1-1.1-8.2-2.4-12.2-4
					c8.4,7.7,15.1,16.7,19.2,27.5c-10-3.9-18.7-11-24.6-19.9c1.5,8.5,4.8,16.7,9.7,23.9c-4.5-1.2-8.9-2.4-13.4-3.6
					c2.9,2.4,3.7,6.9,1.9,10.1c0.9-1.6-13.8-7.1-15.3-7.2c-5.3-0.6-11.1,2.8-11,8.8c5.2-2.4,11.8-1.6,16.3,2
					c-2.2,0.4-4.4,0.9-6.6,1.3c4.1-0.6,8.3,0.2,11.9,2.3C29,233.3,21.4,244,18.5,255.9c-2.9,11.9-1,24.9,5.1,35.5
					c2.7-4.9,8-8.1,13.4-9.5s11.1-1.3,16.8-1.2c10.4,0.2,20.8,0.4,31.3,0.6c-2.3,4-3.8,8.5-4.3,13.1c-2.3-1.4-5.1-1.7-7.7-1.2
					c0.6,0.3,1.2,0.6,1.9,0.9c2.8,1.2,6,1.7,9,1.4c1.5-0.1,3-0.4,4.4,0.1c0.9,0.3,1.6,0.9,2.2,1.6c-1.3-1.8-2.8-3.6-4.3-5.2
					c9.2-0.9,13.7,6.4,17.9,13.3c4.7,7.6,8.4,15.7,11.2,24.2c-1.4-1.1-2.4-2.6-2.7-4.4c-0.8,2.6-1.6,5.2-3.5,7
					c-2,1.8-5.4,2.3-7.1,0.2c-1.2-1.4-1.2-3.4-1.2-5.2c-0.2-8.6-2.6-17.1-6.7-24.6c1.2,2.6,2.1,5.4,2.7,8.1
					c1.4,5.6,2.4,11.4,2.9,17.2c0.1,1.7,0.2,3.5-0.5,5c-0.8,1.5-2.3,2.5-3.9,3c-1.6,0.5-3.3,0.6-5,0.7c0.9,2.3,3,3.9,5.5,4.2
					c0.4,0,0.8,0.1,1.1,0.1c1.3,0,2.6-0.2,3.9-0.4l0.8-0.1c2.6-0.4,5.2-0.5,7.9-0.5c2.1,0,4.2,0.1,6.2,0.4c8.8-0.8,17.7-1.8,26.5-3
					c3.8-1.1,7.5-2.6,10.9-4.5l1-0.5c1.4-0.8,2.7-1.5,4.1-2c2.1-0.7,4.3-0.8,6.7-1c0.8,0,1.6-0.1,2.4-0.2c3.4-0.3,11.7-1.7,14.7-8.4
					c1.3-3,1.3-6.4,1.1-9.4c-0.4-5.9-1.3-12.3-2.8-19.4c-0.6-2.8-1.7-5.5-2.8-8c-1.1-2.6-2.1-5-2.6-7.5v-0.2l4.9-11.6
					c2.4-5.6,4.3-11.5,2.3-16.4l-0.2-0.5l0.5-0.3C185.7,245.2,186.9,240.7,186.3,237.2z M94.3,266.6c-2.2,3.1-5.6,5.5-9.4,6
					c-2.9,0.4-5.9-0.4-8.8-0.9c-7-1.2-12.7,1.7-19.2,3.8c-5.9,1.9-12.2,2.2-18.2,1.2c-5.2-0.9-9.1-3.7-14.1-5.1
					c-2.9-0.8-6-2.4-6.8-5.3c-0.5-1.7-0.1-3.5,0.4-5.3c2.2-7.7,5.4-15.4,10.9-21.2c5.5-5.9,13.4-9.9,21.4-9.2
					c5.4,0.4,10.5,2.9,15.9,3.6c7.8,0.9,15.9-2.3,20.9-8.2c1.7-2,3.1-4.3,5.3-5.8s5.4-1.8,7.1,0.2c1.7-1.9,4.8-0.6,6.9,0.9
					c5.6,4,10.9,8.6,15.5,13.7c4.8-1.6,9.6-3.3,14.3-4.9c4.3-1.5,8.4-2.7,13-1c4.7,1.8,7.9,6.2,9.5,11c1.6,4.7,1.8,9.8,2,14.8
					c0.2,3.8,0.5,7.7,1.5,11.3c0.3,1.1,0.7,2.3,1.1,3.4c-8.7,4.2-18.9,5.4-28.3,3.4c-4.6-1-9.1-2.7-13.8-2.5
					c-2.6,0.1-5.1,0.8-7.7,1.1c-2.6,0.3-5.4,0-7.4-1.6c-2.8-2.2-3-5.5-3.4-8.6c-0.5-4.2-1.8-8.4-3.3-12.4
					C99,254.8,97.9,261.6,94.3,266.6z M165.4,312.8c0.6-5.6,1.2-11.3,1.8-16.9c-3.1,6.2-6.3,12.5-10.7,17.9
					c-6.4,7.7-15.4,11.2-24.4,15c-3.5,1.5-7.2,3-11,2.8c-2-0.1-4-0.8-5.6-2c-1-15.5-5.7-30.7-13.8-44c-1.8-3,14.8-11.1,16.7-11.4
					c4.3-0.6,8.6,1.3,12.8,2.7c7.4,2.3,15.2,3.1,22.9,2.2c0.8-0.1,4.1,2.6,5,3.1c2.2,1.1,4.6,1.6,6.9,2.6c3.4,1.4,4.4,3.2,5.4,6.9
					C173.3,299.1,171.1,307.6,165.4,312.8z"/>
			</g>
			<g>
				<path class="st3" d="M55.6,217c-3.1-1.9-6.6-3.2-10.1-3.6c2.1,1.8,4.2,3.6,5.9,5.9c0.9,1.3,1.7,2.7,2.2,4.2
					c0.4,1.1,0.5,2.3,0.5,3.5c0-0.2,3.2,1.7,3.5,2c1.1,1,2,2.4,2.5,3.8c2.1,0.6,4.1,1.1,6.3,1.4c9.1,1.1,18.7-4,24.4-10.9
					c-2.8,1.9-6.5,1.9-9.7,1c-3.2-1-6.1-2.8-8.9-4.7c4-3.4,8.1-6.7,12.1-10.1c-2.8,1.3-5.6,2.6-8.6,3.2s-6.3,0.5-9-0.9
					c1.9,0.2,2.9,2.8,1.9,4.5s-3.2,2.2-5.1,1.7c-3-0.8-8.1-5.3-9.6-7.9c0.6,1,1.3,2.1,1.9,3.1c-0.3-0.1-0.6-0.2-0.9-0.2
					C55.3,214.2,55.6,215.6,55.6,217z"/>
				<path class="st3" d="M141,219.5c2.2-2.8,5-5.3,8.1-7.1c-10.7,1.8-20.7,7.8-27.2,16.5c-1.2-1-11.8-8.3-12.2-7.7
					c4-5.8,9.2-10.6,14.8-14.9c4.7-3.5,9.7-6.7,14.7-9.8c1.8-1.1,3.7-2.3,4.5-4.3s-0.2-4.8-2.3-4.9c-3.1,2.9-6.3,6.1-10.1,8.1
					c-4.1,2.2-8.2,4.4-12.1,6.8c-8.1,4.9-15.9,10.3-23.3,16.1c1.1,0.9,2.3,1.9,3.4,2.8c2.4-1.9,4.9-1.8,7.3-0.1
					c5.6,4,10.9,8.6,15.5,13.7c2.4-0.8,10.7-1.9,12.1-3.9c5.7-7.7,15.7-10.7,25-13.1C153.1,217.1,146.8,217.7,141,219.5z"/>
				<path class="st3" d="M118.7,270.1c0.2-0.2,0.4-0.4,0.6-0.7c-3.4,1.3-9.8,2.9-13,0.4c-2.8-2.2-3-5.5-3.4-8.6
					c-0.5-4.2-1.8-8.4-3.3-12.4c-0.7,5.9-1.8,12.8-5.3,17.7c-2.2,3.1-5.6,5.5-9.4,6c-2.9,0.4-5.9-0.4-8.8-0.9
					c-1.9-0.3-3.9-0.3-5.7-0.1c-1,0.1-5.8,1.8-6.2,1.6c8.8,4.6,18.6,7.8,28.5,7.7C102.3,280.7,112.2,277.2,118.7,270.1z"/>
			</g>
			<g>
				<path class="st4" d="M10.8,290.2c-0.1-0.3-0.5-0.4-0.7-0.1c-3.7,6-1.9,13.4,0.5,19.6c2.4,6.4,5.4,14.8,11.8,17.9
					c0.8,0.4,1.6-0.1,1.6-0.9c0.4-6-3.4-11-5.9-16.2C14.7,303.8,13,297.2,10.8,290.2z"/>
				<path class="st4" d="M42.9,186.6c1.8,3.2,4.3,5.9,6.9,8.5c5.7,5.6,12.5,9.4,19.7,12.9c0.3,0.1,0.7-0.2,0.4-0.5
					c-5.4-4.7-11.2-9.9-15.6-15.9c-2.3-3.1-4.2-6.4-5.4-10c-0.2-0.4-0.3-0.9-0.4-1.3c-2.2-0.9-4.3-1.9-6.4-3
					C41,180.5,41.1,183.4,42.9,186.6z"/>
				<path class="st4" d="M43,175.2c-0.4,0.8-0.7,1.5-0.9,2.2c2.1,1.1,4.3,2.1,6.4,3c-0.4-1.1-0.8-2.2-1.4-3.1
					C46.2,175.9,44.6,174.8,43,175.2z"/>
				<path class="st4" d="M40.9,191.8c-1.2-2.1-2.5-4.5-4-6.8l-1.7-0.3c-0.2,0-0.4,0.1-0.6,0.3c-0.1,0.2-0.2,0.5,0,0.7
					c1.1,1.8,0.2,4.3-1.3,5.8c-1.3,1.3-2.9,2.2-4.6,3.1c-0.4,0.2-0.9,0.5-1.3,0.7c-11.6,6.6-18.8,19.2-24.7,29.3
					c-0.1,0.2-0.1,0.5,0,0.8l1.9,2.5l-0.1,0.3c8.6-12.1,17.6-22.6,31.1-29.8c1-0.5,1.7-1.3,2.1-2.1c0.1,0.1,0.2,0.2,0.2,0.3
					c3.8,4.6,7.6,9.9,13,12.8c0.2,0.1,0.5-0.2,0.3-0.4C46.7,204.4,44.2,197.5,40.9,191.8z"/>
				<path class="st4" d="M36.7,328.4c1.4,0.5,2.5-1,2.3-2.3c-1-5.6-6.7-10.4-10.4-14.5c-4.3-4.7-9-9-13.2-13.8
					c-0.2-0.2-0.6,0-0.5,0.2c0.7,5.8,4.2,11.6,7.6,16.2C26,319.1,30.8,326.4,36.7,328.4z"/>
				<path class="st4" d="M20.9,289.9c0.6,0.6,1.1,1.2,1.1,1.6c-0.5-6.2-1.4-12.4-2.8-18.5c-1.3-5.5-0.8-11.6,0.3-17.2
					c0.4-1.9,0.9-3.8,0.4-5.7c-0.4-1.8-1.5-3.2-2.4-4.8c-3.8-6.4-4.4-14.7-1.5-21.5c-14,2.6-14.5,18.7-14.7,30.1
					c-0.1,6.7,0.9,13.5,4.1,19.4c2,3.7,5,6.7,8.1,9.5c1.4,1.3,2.8,2.6,4,4C18.1,287.4,19.8,288.7,20.9,289.9z"/>
			</g>
		</g>
		<g>
			<path class="st5" d="M17.6,221c2.3,0.7,5.3-0.1,7.8,0c3.1,0.1,5.9,0.7,8.6,1.9c-2.3,0.2-4.6,0.5-6.9,1.1c-0.2,0-0.2,0.4,0.1,0.4
				c3.2-0.4,6.2-0.5,9.4-0.2c0.8,0.1,0.8-0.9,0.3-1.3c-4.3-3.2-9.5-3.7-14.7-3.7c-0.8,0-1.6,0-2.4,0.1c0-1.9,0.9-2.8,2.7-2.8
				c1.9-0.5,3.5-0.5,5.4-0.4c3.5,0.3,7,0.9,10.4,1.8c0.1,0,0.1-0.1,0.1-0.1c-4.3-2.5-10.7-4.5-15.8-3.6c-2.8,0.5-6.4,2.9-5.7,6.2
				C17,220.7,17.3,220.9,17.6,221z"/>
			<path class="st5" d="M149.6,212c-0.1-0.1-0.3-0.2-0.5-0.2c-7.4-0.3-14.5,5.7-17.4,12.2c0,0.1,0.1,0.1,0.1,0.1
				c3.3-4.6,8.1-9.1,13.7-10.3c-0.5,0.4-1,0.8-1.4,1.2c-1.8,1.5-3.3,3.2-4.5,5.1c-0.3,0.4,0.3,0.9,0.7,0.7c1.5-0.9,3.1-1.8,4.6-2.7
				c0.1-0.1,0-0.3-0.1-0.2c-1,0.4-2,0.8-3,1.3c1-1.1,2.1-2.1,3.3-3c1.5-1.1,3.7-1.7,4.8-3C150.1,212.7,149.9,212.1,149.6,212z"/>
			<path class="st5" d="M186.9,237.1c-0.8-4.3-3.6-7.8-6.3-10.7c-0.5-0.5-0.9-1-1.4-1.4c-2.1-2.1-4-4.2-5.4-6.6
				c1.1-1.7,0.9-3.9,0.2-5.5c-0.8-1.7-2.3-3-3.5-4.1l-0.1-0.1c-7.4-6.5-14-13.8-19.8-21.8c-0.4-0.6-1.2-0.7-1.8-0.3l-4.2,2.8
				l-2.5-2.1l2.4-2.8c0.3-0.4,0.4-0.9,0.2-1.3c-0.3-0.7-0.5-1.5-0.9-2.3c-0.8,0.3-1.7,0.6-2.5,0.9c0.2,0.5,0.4,1.1,0.6,1.6l-2.8,3.3
				c-0.1,0.1-0.2,0.3-0.3,0.5c-4.8,4.6-9.8,8.4-15.7,12c-5.6,3.4-11.1,6.8-15.7,11.4c-0.1,0.1,0,0.1,0.1,0.1
				c9.2-7.8,25-11.3,32.5-21.4l3.3,2.8c-0.8,0.8-1.6,1.5-2.4,2.2c-2.9,2.4-6.1,4.5-9.4,6.3c-0.1,0,0,0.1,0.1,0.1
				c5.5-1.8,12.4-5.1,16.1-10.1l1.4-1c5.7,7.7,12.2,14.8,19.4,21.2l0.1,0.1c1.2,1,2.3,2,2.9,3.2c0.4,0.9,0.5,2.2-0.1,3
				c-0.7-0.6-1.5-1.1-2.2-1.5c-2.8-1.5-5.5-1.7-8.5-0.4c-0.1,0,0,0.2,0,0.1c2.3-0.7,4.8,0.1,6.9,1.2c2,1.1,3.2,2.8,4.6,4.6
				c1.6,2,3.3,3.9,5.1,5.8c0.5,0.5,0.9,0.9,1.4,1.4c2.4,2.6,5,5.7,5.6,9.3c0.5,2.7-0.4,6-2.6,7.6c-2.8-8-9-15.8-13.6-20.7
				c-0.1-0.1-0.1,0-0.1,0.1c3.6,5.3,7.3,10.6,9.8,16.5c1.5,3.5,2.6,7.4,2.8,11.3c0.3,4-1.3,7.8-2.8,11.4l-8.7,20.5
				c-6.1-2.4-11.9-5.6-17.2-9.5c3.4-0.6,6.8-1.7,10-3.1c0.4,1.3,0.8,2.7,1.1,4.1c-1.1-0.5-2.3-0.8-3.4-1.1c0.3,0.1,1.1,1.5,1.4,1.8
				c0.7,0.7,1.4,1.1,2.1,1.7c0.9,0.7,1.9,2.2,3.2,2.2c0.3,0,0.7-0.1,1-0.4c0.5-0.5,0.5-1.2,0.2-1.7c-3.5-5.3-4.1-12-4.4-18.4
				c0-1-0.1-1.9-0.1-2.9c-0.1-5.7-0.3-11.6-2.2-17.2c-2.6-7.6-8.4-12.9-14.9-13.6c-2.4-0.3-4.7,0.1-6.9,0.7c2.5-1.6,5.3-2.7,8.2-4
				c5.3-2.3,10.7-5.3,16.7-4.9c0.1,0,0.1-0.1,0-0.1c-6.4-0.9-11.7,1.1-17.6,3.6c-3.7,1.6-10,2.9-11.7,7c-1,0.4-2,0.9-3,1.4
				c-3.2,1.5-6.4,3-9.8,3.5c-1.4-1.8-3-3.4-4.6-5c-2.7-2.6-5.5-5.2-8.4-7.8c4.8-5.6,9.4-10.6,15.8-14.5c0.1,0,0-0.1-0.1-0.1
				c-6.3,3.3-12.6,7.8-16.8,13.6c-0.3-0.2-0.5-0.5-0.8-0.7c-1.1-0.9-3.9-1.7-5.2-1.7c-1,0-1.9,0.5-2.7,1.2c-0.3-0.3-0.7-0.6-1.2-0.8
				c-2.9-1.4-5.7,1.5-6.6,2.4c-2.8,2.9-5.9,5.6-9.2,8c-2.4,1.7-5.6,3.8-9,4.7c-3.6,0.9-7.2,0.6-10.9-0.4c4-7.8,12.2-15.5,22.3-20.9
				c3.5-1.9,7.1-3.6,10.7-5.2c6-2.8,12.2-5.7,17.9-9.5c4.7-3.1,7.9-6.5,9.6-10c-1.2,0.2-2.3,0.5-3.5,0.7c-1.6,2.4-4.1,4.8-7.5,7.1
				c-5.5,3.6-11.6,6.5-17.5,9.3c-1.4,0.6-2.7,1.3-4.1,1.9c-11.1-4.8-18.3-10.1-24.9-19.9c-1.4-0.4-2.7-0.7-4.1-1.1
				c6.8,10.4,15,17.5,25.9,22.6c-1.2,0.6-2.4,1.2-3.6,1.8c-2.3,1.2-5.9,3.3-9.7,6.3c-2.4-2.3-5.4-4.3-8-6.3c-0.1,0-0.1,0-0.1,0.1
				c2.2,2.4,4.2,5.1,6.6,7.4c-1.7,1.4-3.4,3-5.1,4.7c-0.5-0.5-1.2-0.9-1.9-1.4c-1.5-1.1-3-2.4-4.4-3.7c-2.4-2.3-4.8-4.8-7-7.3
				c0-0.1-0.1,0-0.1,0.1c1.7,3.3,3.7,6,6.3,8.7c1.5,1.5,3.6,4.1,5.9,5.1c-1.7,1.9-3.3,4-4.7,6.3c-1.1-1.5-3.2-2.7-5-3.5
				c0.1-7.5-8.8-11.8-14.6-14.2c-0.1-0.1-0.2,0.2-0.1,0.2c3,1.8,5.8,3.6,8.2,6.1c2.2,2.2,3.2,4.3,4.2,7c-4.9-1.8-10.2-1.9-15.2-0.5
				c-0.1,0-0.1,0.1,0,0.1c5,0.1,10.2,0.2,14.7,2.6c2.1,1.1,3.8,3.4,5.8,4.7c-1.4-0.5-2.7-1-4.1-1.5c-0.3-0.1-0.6-0.2-0.9-0.4
				c-0.4-0.1-0.7-0.3-1.1-0.4v0.1c-3.1-0.9-6.9-0.9-10,0.2c-8,2.7-15.1,8-19.7,15.1c-4.7,7.1-6.9,15.6-6.1,24
				c0.6,5.9,2.5,11.5,4.5,16.9c-0.2-5-1-10.3-1.6-15.4c4.7,3.3,10.1,5.7,15.7,7c-5.2,3.5-9.7,7.9-13.2,13c-2.1-3.5-5.2-6.3-8.2-9
				c-3.6-3.3-7-6.4-8.8-10.6c-1-2.5-1.4-5.2-1.7-7.7c-1.2-11.4-0.1-23.4,3.1-34.5c0.1-0.4,0-0.9-0.2-1.2l-1.6-2.1
				c5.6-9.8,12.6-21.6,23.5-27.7c0.4-0.2,0.8-0.5,1.3-0.7c1.8-1,3.6-2,5.1-3.5c1.4-1.5,2.5-3.7,2.3-5.9l5.5,0.9c0.1,0,0.1,0,0.2,0
				c0.5,0.9,1.2,1.8,1.8,2.7c-0.1,2.5,1.7,5.6,3,7.5c2,3,4.4,5.5,7.2,7.8c0.1,0.1,0.3-0.1,0.2-0.2c-2.4-2.5-4.5-5.3-6-8.4
				c-0.5-1-0.9-2.1-1.3-3.2c0.2,0.2,0.4,0.4,0.6,0.6c4.3,4,9.2,7.7,14,11c0.1,0,0.1,0,0.1-0.1c-2.8-4.4-7.6-7.1-11.4-10.5
				c-4.6-4.1-10-10.8-8-17.2c-0.8-0.4-1.5-0.8-2.3-1.2c-0.8,2.6-1,5.7-0.3,8.2l-5.1-0.8c-0.5-0.1-1,0.1-1.3,0.6
				c-0.3,0.4-0.3,1,0,1.5c0.9,1.5,0.1,3.7-1.2,5c-1.2,1.3-2.8,2.1-4.4,3c-0.4,0.2-0.9,0.5-1.3,0.7c-11.8,6.7-19.1,19.3-24.9,29.5
				c-0.3,0.5-0.2,1.1,0.1,1.5l1.7,2.3c-3.2,11.3-4.2,23.3-3,34.9c0.3,2.8,0.7,5.7,1.9,8.5c1.9,4.5,5.5,7.9,9,11
				c-4.5,5.9-6.8,12.8-6.3,19.2c0.3,4.4,1.8,8.5,3.3,12.4c1.1,3,2.3,6.1,4.2,8.9c2.5,3.7,6.2,6.7,10.7,8.6c3.4,1.4,7,2.2,10.5,2.9
				c4.3,0.9,8.3,1.7,11.9,3.7c0.4,0.2,0.9,0.5,1.3,0.9c1.1,0.8,2.5,1.8,4.1,1.8c0.3,0,0.7,0,1-0.1c1-0.3,3.2-1.5,4.5-3.1
				c5.6,1,11.3,1.4,17,1.3c0.2,0.6,0.4,1.1,0.8,1.6c1,1.3,2.7,2,4.3,2c0.9,0,1.9-0.2,2.7-0.7c0.7-0.4,1.2-0.9,1.7-1.3s0.9-0.8,1.3-1
				c0.7-0.3,1.5-0.4,2.4-0.4H88c0.7,0,1.5-0.1,2.3-0.2c1.2,1.5,3.2,2.5,5.5,2.7c0.4,0,0.8,0.1,1.2,0.1c1.3,0,2.7-0.2,4-0.4l0.8-0.1
				c5.2-0.7,10.5-0.7,15.8,0c6.7,0.9,15-0.9,21-2.2c5.2-1.1,10.3-3,15-5.6l1-0.5c1.4-0.8,2.6-1.5,4-1.9c2-0.7,4.2-0.8,6.5-0.9
				c0.8,0,1.6-0.1,2.4-0.2c3.5-0.3,12.1-1.8,15.3-8.8c1.4-3.1,1.3-6.6,1.1-9.7c-0.4-6-1.3-12.3-2.8-19.5c-0.6-2.8-1.7-5.5-2.8-8.1
				c-1-2.4-2-4.9-2.6-7.4l4.8-11.4c2.4-5.8,4.4-11.8,2.3-16.9C186.2,245.8,187.6,241,186.9,237.1z M104.9,231.3
				c-1-0.5-2.5-1.1-4.1-0.7c-0.1,0-0.2,0.1-0.2,0.1c0.7-2.1,0.9-4.3,0.7-6.4c0.1,0,0.1-0.1,0.2-0.1c0.8-0.2,1.1,0.4,1.7,0.8
				c4.8,3.4,9,7.6,12.8,11.5c-2.9-5.4-6.3-10.2-11.3-13.7c-0.6-0.4-1.3-0.9-2.2-1.1c-0.7-0.2-1.4-0.1-2,0.1l0,0c0-0.2,0-0.3-0.1-0.4
				c0-0.3,0.1-0.6,0.4-0.8c0.3-0.3,0.6-0.5,1-0.5c0.8-0.1,2.9,0.6,3.4,1c3.7,3.1,7,6.3,10.2,9.4c3.3,3.1,6.6,5.4,10.4,8.6
				c-0.6-1.1-1.3-2.1-2-3.2c3.2-0.7,6.2-2.1,9.1-3.4c4.4-2,8.5-3.9,12.8-3.5c6.6,0.7,10.9,6.8,12.6,11.8c1.7,5.1,1.9,10.9,2,16.4
				c0,1,0.1,2,0.1,2.9c0.1,2.7,0.3,5.5,0.7,8.2c0.1,0.4,0.2,0.8,0.3,1.2l-0.2-0.3c-9.3,4.2-20.1,5-29.8,2.2
				c-0.6-0.2-1.2-0.4-1.8-0.5c-0.5-0.2-1.1-0.4-1.7-0.5c-3.2-1-6.5-1.9-9.9-1.5c-1.3,0.2-2.5,0.5-3.7,0.8c-0.9,0.3-1.8,0.5-2.7,0.7
				c-1.2,0.2-3.5,0.4-4.9-0.8c-1.4-1.3-1.6-3.7-1.7-6v-0.2c-0.4-5.6-2.1-11.7-3.5-15.9c0.1-1,0.1-2.1,0.1-3.2
				c-0.1-0.9-0.2-2-0.8-2.9c0,0,0-0.1,0.1-0.1c0.7-0.4,1.3,0,1.9,0.4c3.9,2.4,7.1,6.1,8.9,10.3c-0.8-5.1-3.1-9.9-7.5-12.6
				c-0.9-0.6-2.2-1.2-3.6-0.9c-0.1,0-0.2,0.1-0.3,0.1c0.4-1.6,0.8-3.4,0.7-4.9c0,0,0-0.1,0.1-0.1c0.8-0.8,1.8-0.2,2.7,0.2
				c4.6,2.3,7.9,6.8,10.8,10.7C112.2,238.7,110,233.9,104.9,231.3z M19.6,266.4c-0.2-7.1,1.8-14.4,5.8-20.4
				c4.4-6.5,10.9-11.5,18.3-14c2.8-0.9,6.5-0.8,9.2,0.1c0.3,0.1,0.6,0.2,0.9,0.3c0.3,0.1,0.5,0.2,0.8,0.4v-0.1c4.1,1.6,9,3.2,14,3.2
				c1.7,0,3.3-0.2,5-0.6c3.9-1,7.4-3.3,10-5.2c3.4-2.5,6.6-5.3,9.6-8.3c1.6-1.6,2.8-2.2,3.5-1.9c0.8,0.4,1,0.8,1.1,2
				c-0.1,0-0.2,0.1-0.3,0.1c-6.5,3.1-12.3,10.1-13.7,15.5c4-4.8,8.9-10.2,14.9-13.1l0,0c0.2,1.8,0,3.6-0.6,5.3c-0.3,0-0.6,0-1,0
				c-1.1,0.1-2.1,0.6-2.9,1.1c-5.7,3.4-8.9,10.6-10,15.7c2.9-4.8,6.3-10.3,11.4-13.4c0.5-0.3,1.2-0.7,1.8-0.7c0.3,0,0.6,0,0.8,0.1
				c0.7,0.9-0.2,4.5-0.7,6c-0.1,0.3-0.1,0.5-0.2,0.7c-0.7,0-1.4,0.2-2,0.5c-1.5,0.7-2.5,1.9-3.4,3.1c-2.7,3.5-3.2,6.1-5.2,10.1
				c3.7-3.9,4.8-5,7.4-8.4c0.7-0.9,1.5-1.9,2.4-2.4c0.8-0.4,1.7-0.3,2.1,0.1c0.3,0.4,0.4,1.1,0.4,1.7c0.2,3.5-0.7,6.9-1.8,10.8
				s-2.2,7.5-4.2,10.5c-2.2,3.3-5.2,5.5-8.3,5.9c-2,0.3-4-0.1-6.2-0.6c-1.4-0.3-2.8-0.6-4.2-0.7c-4.5-0.3-8.9,1-13.1,2.4
				c-1.5,0.5-3.1,1-4.6,1.4C43.8,277.4,29.7,274.5,19.6,266.4z M55,333.6c-5.3-2.1-10-5.4-13.9-9.5c-6.2-6.3-11.9-13.3-17.8-19.9
				c-0.1-0.1-0.2,0-0.1,0.1c7.6,9.8,17.8,27.6,31.3,32.2c-0.8,0.7-1.9,1.4-2.4,1.5c-0.8,0.2-1.8-0.5-2.9-1.2c-0.5-0.4-1-0.7-1.6-1
				c-1.6-0.8-3.2-1.5-4.8-2c-3.6-2.5-7.1-5.1-10.2-8.4c-4.6-4.9-8.8-10.4-12.5-16c-1-1.4-1.9-1.8-1.6-0.2c0.7,4.4,2.7,8.3,5.5,11.7
				c0.1,0.1,0.1,0,0.1-0.1c-0.7-0.9-5.3-8.8-3.9-9.2c0.2-0.1,3,4.7,3.2,4.9c2.1,3,4.4,5.9,6.9,8.6c2.2,2.5,4.8,5.1,7.5,7.3
				c-0.9-0.2-1.8-0.4-2.7-0.6c-3.4-0.7-6.9-1.4-10-2.7c-4-1.7-7.3-4.3-9.6-7.6c-1.7-2.5-2.8-5.5-3.9-8.3c-1.4-3.8-2.9-7.7-3.2-11.7
				C8,295.8,10,289.6,14,284.3c2.9,2.7,5.6,5.4,7.2,8.8c0.2,0.5,0.6,0.8,1.1,0.8h0.1c0.5,0,0.9-0.2,1.1-0.6
				c4-6.5,9.5-11.8,16.1-15.7c2.1,0.3,4.3,0.5,6.4,0.5c3.8,0,7.5-0.5,11.2-1.4c1.6-0.4,3.2-0.9,4.8-1.4c4.1-1.3,8.1-2.6,12.1-2.3
				c1.3,0.1,2.5,0.4,3.9,0.6c2.3,0.5,4.6,0.9,7,0.6c3.9-0.5,7.6-3.1,10.2-7.1c2.2-3.3,3.3-7,4.5-11.2c0.3-1,0.5-1.9,0.8-2.8
				c0.9,3.3,1.7,6.9,1.9,10.3v0.2c0.2,2.6,0.4,5.8,2.6,7.9c1.7,1.5,4.2,2,7.2,1.5c0.5-0.1,0.9-0.2,1.4-0.3c-0.7,0.3-1.4,0.7-2,1.1
				c-1.3,0.8-2.5,1.7-3.7,2.7c-10.6,3.7-23.9,4.1-34.4,0.5c-0.1,0-0.1,0.1-0.1,0.1c7.8,3.4,20,5.6,29.6,3.2
				c-1.2,0.9-2.3,1.7-3.6,2.4c-3.7,2.1-9,3.4-12.8,0.8c-0.5-0.4-1.2-0.3-1.7,0.1c-2.8,2.8-4.6,6.5-5,10.4c-0.9,0-1.7-0.1-2.4-0.4
				c-0.8-0.3-1.6-0.8-2.5-1.4c-1.1-0.7-2.2-1.4-3.5-1.8c-2.7-0.8-6,0.2-8.3,2.4c-3.4,3.3-4.2,9.1-1.8,13.1c0.8,1.4,2.3,2.7,4,3.7
				c-2.4,1.1-4.1,3.6-4,6.2c0.1,1.9,1.2,4.1,2.8,5.3c0.4,0.3,0.8,0.5,1.2,0.7c-0.5,1.1-0.7,2.4-0.5,3.6c0.3,1.5,1.3,2.9,2.7,3.8
				c0.7,0.4,1.4,0.7,2.1,0.8c-0.3,0.9-0.5,1.8-0.4,2.8c0.2,1.4,0.9,2.7,2,3.6C65.9,336.2,60.2,335.7,55,333.6z M87.7,336.4h-0.4
				c-1.1,0.1-2.3,0.1-3.5,0.7c-0.8,0.4-1.4,1-2,1.5c-0.4,0.4-0.8,0.7-1.2,1c-1.1,0.7-2.7,0.4-3.5-0.6c-2.3-2.9,2-5.1,4.4-5
				c0.1-0.3-0.1-0.7-0.3-1s-0.5-0.4-0.9-0.5c-1.7-0.6-3.7-0.2-4.9,1.1c-0.4,0.4-0.6,0.8-0.8,1.2c-0.5,0-1-0.1-1.4-0.5
				c-0.6-0.4-1-1.1-1.1-1.8c-0.2-1.4,0.8-3,2.2-3.7c1.6-0.8,3.7-0.6,5.4-0.2c-0.1-1-0.8-1.9-1.6-2.5c-1.5-0.9-3.5-0.5-5,0.2
				c-0.7,0.3-1.2,0.7-1.7,1.2c-0.8-0.1-1.8-0.4-2.3-0.7c-0.8-0.5-1.3-1.2-1.4-2c-0.3-1.6,0.8-3.6,2.5-4.2c1.7-0.7,3.5-0.6,5.2-0.1
				c0.2,0.1,0.5,0.2,0.7,0.2c0.3,0,0.5-0.2,0.5-0.4c0-0.2-0.1-0.4-0.2-0.5c-1.6-2.2-4.9-2.6-7.3-1.7c-0.8,0.3-1.5,0.8-2,1.3
				c-0.4,0-0.9-0.2-1.2-0.5c-1-0.7-1.7-2.1-1.7-3.3c-0.1-1.7,1.5-3.5,3.3-3.9c2.3-0.5,4.6-0.1,6.8,0.4c0.1,0,0.2,0,0.3,0
				c0.1-0.1,0-0.2,0-0.4c-0.4-0.7-1-1.2-1.7-1.6c0.4-0.2,0.8-0.5,1.2-0.7c0.5-0.2,1.2-0.2,1.7,0.1c0-0.9-0.2-1.7-0.4-2.6
				c-0.1-0.3-0.2-0.7-0.5-0.8c-0.3-0.1-0.6,0-0.8,0.1s-0.4,0.4-0.6,0.6c-2.8,2.8-7.7,0.6-9.5-2.4s-1.2-7.3,1.3-9.8
				c1.6-1.6,3.9-2.3,5.7-1.7c0.9,0.3,1.8,0.8,2.8,1.5c0.9,0.6,1.9,1.2,3,1.6c2,0.7,4.2,0.6,6.2,0.5c2.2-0.1,5.2,0.2,6.8,1.1v-0.1
				c1.8,3.1,3.5,6.1,4.4,8.4c1.9,5.1,2.7,10.6,3.5,16c0.5,3.7,1.1,7.9,0.2,11.6C94.6,335.2,91.1,336.2,87.7,336.4z M175.6,284.7
				c1.1,2.6,2.1,5.1,2.7,7.7c1.5,7.1,2.4,13.3,2.7,19.2c0.2,2.9,0.3,5.9-0.9,8.4c-1.8,3.9-6.7,6.6-13.1,7.2
				c-0.8,0.1-1.5,0.1-2.3,0.2c-1.5,0.1-3,0.2-4.5,0.5c6.2-6.4,10.3-16.7,11.2-24.1c0-0.1-0.1-0.1-0.1,0c-2.5,9-8.3,18.9-15.5,25.5
				c-0.9,0.4-1.8,0.9-2.6,1.4l-1,0.5c-3.8,2-7.8,3.6-12,4.7c4.1-2.9,7.7-6.8,10.9-10.5c6.5-7.6,13-16.4,14-26.6c0-0.1-0.1-0.1-0.1,0
				c-3.9,15.4-17.6,32-32.7,38.9c-4.8,0.9-10,1.6-14.4,1c-5.5-0.8-11-0.8-16.5,0l-0.8,0.1c-1.6,0.2-3.1,0.4-4.5,0.3
				c-0.9-0.1-1.8-0.3-2.4-0.7c2.3-0.6,4.6-1.4,6.5-2.4c1.6-4.7,0.9-9.7,0.3-14.1c-0.8-5.5-1.6-11.2-3.6-16.5
				c-1.6-4.3-4.7-10.1-10.3-13.7c0.4,0.8,0.9,1.7,1.4,2.7c-1.6-0.3-3.3-0.2-4.9-0.1l0,0c0.3-2.8,1.6-5.5,3.5-7.7
				c4.7,2.5,10.5,1,14.6-1.3c2.5-1.4,4.8-3.2,7-5c1.7-1.4,3.5-2.8,5.3-3.9c3.6-2.3,10-3.9,14.1-3.1c0.3,0.1,0.5,0.2,0.8,0.3
				c0.9,0.3,1.8,0.6,2.7,0.8c4,1.1,8.2,1.7,12.4,1.7c1.7,0,3.4-0.1,5.1-0.3c6.4,5,13.5,9,21.2,11.9c0.2,0.1,0.3,0.1,0.5,0.1
				c0.5,0,1-0.3,1.2-0.8l2.7-6.3C174.4,281.8,175,283.3,175.6,284.7z"/>
			<path class="st5" d="M108.3,301.4c1.9,7.8,4.7,14,5,21.7c-4.5-11.5-6.9-24.5-17.7-31.9c-0.1,0-0.1,0.1-0.1,0.1
				c11.2,8.6,12.2,25.3,17.7,37.4c0.5,1.1,2,0.4,2.1-0.6c1.1-9.4-1.8-18.9-6.5-27C108.7,300.8,108.2,301,108.3,301.4z"/>
		</g>
	</g>
	<path class="st6" d="M41.8,177.7c0,0,5.2-12.9,22.1,9.2"/>
	<g id="Buddha_1_">
		<g>
			<path class="st0" d="M92.4,198c17.9-0.5,35.4-6.6,51-16.2c-0.1-0.1-0.2-0.1-0.3-0.2l-0.3-0.2V181c0-0.4,0-0.9-0.1-1.3v-0.4
				l0.4-0.2c10.9-6.5,19.7-15.1,25.3-24.9l0.4-0.7l0.6,0.5c0.5,0.4,1.1,0.6,1.7,0.8c0.3,0.1,0.6,0.1,0.9,0.1c1.3,0.1,2.7-0.3,3.7-1
				c1.9-1.3,3.1-3.6,3.8-6.8c1.2-5.9,0.2-11.9-0.7-17.7c-0.8-5-1.6-10.1-1.1-15.1c0.2-1.7,0.8-3.7,1.4-5.8c1.2-4.1,2.4-8.3,1.2-11.7
				c-0.9-2.4-3.1-4.2-5.5-4.4c-1.4-0.1-2.9,0.4-4,1.5l-0.8,0.8l-0.3-1.1c-0.6-2.2-1.2-4.8-1.8-7.4c-1-4.4-1.7-9-2.5-13.5
				c-2.2-12.7-4.4-25.8-11.1-37.1c-11.7-19.9-34.4-33-60.6-34.9c-5-0.4-10-0.3-15.1,0.1c-21.9,2-42.7,12.4-57,28.6
				C7.2,45.8-0.4,68.3,1.3,89.7c1.1,14.1,6.1,26.9,10.4,36.5l0.3,0.7l-0.7,0.2c-0.8,0.2-1.5,0.7-2,1.3C6,132.5,9.5,138.6,12,143
				c0.6,1,1.1,2,1.5,2.8c3.5,7.1,5.3,14.6,5.4,21.6c0,4.7,0.6,9.9,4.1,13.1c1.5,1.4,3.5,2.2,5.6,2.4c1.1,0.1,2.3,0,3.3-0.4
				c2.3-0.7,4.4-2.5,5.6-4.8l0.4-0.7l0.6,0.5c5.4,4.4,12.2,7.8,20.1,10.3l1.9,0.6l0.2,0.3C60.5,188.8,81,198,92.4,198z"/>
			<path class="st2" d="M141.5,179.4c-4.7,3.3-9.9,5.9-15.4,7.4c0.1,0,0,1.7-0.2,3.9c5.9-2.4,11.7-5.3,17.2-8.7
				C142.4,181.3,141.8,180.5,141.5,179.4z"/>
			<path class="st1" d="M143.1,181.5l-0.3-0.2v-0.4c0-0.4,0-0.9-0.1-1.3v-0.4l0.4-0.2c10.9-6.5,19.7-15.1,25.3-24.9l0.4-0.7l0.6,0.5
				c0.5,0.4,1.1,0.6,1.7,0.8c0.3,0.1,0.6,0.1,0.9,0.1c1.3,0.1,2.7-0.3,3.7-1c1.9-1.3,3.1-3.6,3.8-6.8c1.2-5.9,0.2-11.9-0.7-17.7
				c-0.8-5-1.6-10.1-1.1-15.1c0.2-1.7,0.8-3.7,1.4-5.8c1.2-4.1,2.4-8.3,1.2-11.7c-0.9-2.4-3.1-4.2-5.5-4.4c-1.4-0.1-2.9,0.4-4,1.5
				l-0.8,0.8l-0.3-1.1c-0.6-2.2-1.2-4.8-1.8-7.4c-1-4.4-1.7-9-2.5-13.5c-2.2-12.7-4.4-25.8-11.1-37.1c-11.7-19.9-34.4-33-60.6-34.9
				c-2.9-0.2-5.8-0.3-8.7-0.2c-0.4,0.2-0.9,0.5-1.3,0.7c20.4-2.4,41.4,6.3,55.1,21.6c13.6,15.3,19.8,36.7,17.5,57.1
				c-0.8,6.9-2.4,13.8-1,20.6c1.6,7.6,6.9,13.5,8.4,21.1c1.6,7.6,0.9,15.8-2,23c-4,10-12.3,18.2-22.4,22.2
				c-4.5,1.8-9.4,2.8-13.4,5.5c-4.7,3.2-8.1,8.9-13.8,10.6c-0.1,0-0.1,0-0.2,0.1c-6.7,1.9-14.9,1-21-2.2
				c-17.1,6.9-37.5,4.3-52.3-6.6c0.4,1.2,0.4,2.4,0.3,3.6c5.4,4.3,12.1,7.7,19.9,10.1l1.9,0.6l0,0c-0.2,0.1,20.6,9.5,32,9.5
				c11.6-0.3,22.9-2.9,33.8-7.4c0.1-0.7,0.3-1.4,0.4-2.1c0.5,0.5,1,0.9,1.4,1.3c5.3-2.3,10.5-5,15.4-8.1
				C143.3,181.7,143.2,181.6,143.1,181.5z"/>
			<g>
				<path class="st4" d="M96.5,126c-0.1-0.4-0.1-0.9-0.2-1.3c-0.1-0.5-0.4-1-0.6-1.5c-0.6-1.5-2.7-1.4-3.5-0.3
					c-1,1.4-1.2,2.9-0.8,4.6c0.3,1.7,1,3.2,2.4,4.3c0.9,0.8,2.5,0.6,3.3-0.2c1-0.8,1.2-2.2,0.7-3.3C97.3,127.5,96.7,126.9,96.5,126z
					"/>
				<path class="st4" d="M55.9,20.1c4.3-7.7,10.4-11.9,17.9-16.2c0.4-0.2,0.3-0.9-0.2-1C71,2.6,68.4,2.7,65.8,3
					C51.5,6.5,38.1,13.6,27.4,23.4c-0.2,0.3-0.5,0.6-0.7,0.8c-6.4,8.1-12.4,16-16.7,25.4c-4.4,9.6-7.1,20-7.3,30.6
					C2.4,91.7,4.2,102.1,7.8,113c3.4,10.2,8.6,19.4,12.7,29.2c3.4,8.1,5.2,16.9,10.2,24.3c4.7,6.8,11.6,11.5,19.7,13.1
					c0.5,0.1,0.7-0.6,0.3-0.9c-6.6-5.3-13-11.7-16.7-19.4c-4-8.3-3.4-15.7-2.6-24.3c1.6-17.6-5.7-34.5-4.8-51.9
					c0.7-15.3,6.6-33.2,15.7-45.5C46.7,31.7,52.2,26.5,55.9,20.1z"/>
			</g>
		</g>
		<g>
			<path class="st5" d="M98.3,134.6c1,0.1,2,0,2.9-0.3c3.8-1,6.6-4.5,6.8-8.4c-1.4,2.6-5.3,5.1-7.5,5.8c-2.6,0.8-7.1,0.1-9.4-1.4
				C92.7,132.8,95.4,134.4,98.3,134.6z"/>
			<path class="st5" d="M117.3,145.3c0.3,0.7,0.5,1.5,0.5,2.1c0,1.1,1.5,1.5,1.9,0.4c0.6-1.6,0.3-3-0.9-4.2c-1.1-1.1-2.5-1.8-3.9-2
				c-0.1,0-0.2,0.1-0.1,0.2c0.3,0.5,0.7,0.9,1,1.3c-7.3,6.3-18,8.4-27.2,5.4c0.2-0.5,0.4-0.9,0.7-1.3c0-0.1,0-0.1-0.1-0.1
				c-2,0.8-3.3,2.9-3.1,5.1c0.1,1.1,2.1,1,2-0.1c0-0.3,0-0.6,0-0.9c2.2,0.7,4.5,1.2,6.9,1.3C102.9,153,111.2,150.5,117.3,145.3z"/>
			<path class="st5" d="M70.5,111.7c-0.5,0.9-1.1,1.8-1.9,2.3c-0.4-0.6-0.8-1.2-1.1-1.7c-1-1.5-2.2-2.8-3.7-3.9
				c-0.1,0-0.1,0-0.1,0.1c1.2,1.4,2.1,2.9,2.9,4.6c0.2,0.4,0.3,1,0.4,1.5c-1.5,0.1-3.4-0.7-5-0.8c-3.3-0.1-6.7,0.4-9.7,1.6
				c-2.8,1.1-5.4,2.8-7.6,4.9c-1.1,1.1-2.1,2.2-2.9,3.5c-0.4,0.5-0.6,1.1-0.9,1.5c0-0.2-0.1-0.3-0.1-0.5c-0.2-1.1-0.2-2.2-0.1-3.3
				c0-0.1-0.1-0.1-0.1,0c-0.5,1.4-0.8,3-0.7,4.6c-0.3,0-0.7,0-1.2-0.3c-0.4-0.2-1.1-0.3-1.4,0.1c-0.2,0.4,0.1,0.8,0.4,1.1
				c0.6,0.5,2.1,1.7,3.2,1.9c0.6,0.1,1-0.1,1.3-0.7c2.2-4.7,6.2-8.5,11-10.4s10.3-2,15.1-0.1c1.4,0.6,1.9-1.1,2.2-2.2
				c0.2-0.7,0.4-1.4,0.3-2.2C71.1,113.3,70.5,111.8,70.5,111.7z"/>
			<path class="st5" d="M117.7,108.1c0.1,0.1,0.2,0.2,0.3,0.2c0.1,0,0.1,0.1,0.2,0.1c0.2,0.1,0.4,0.1,0.6,0.2c1.4,0.3,1.8-1.2,3-2.5
				c2.5-2.7,5.8-4.7,9.3-5.7c4.5-1.2,9.5-0.6,13.6,1.5l0.4,0.2c1.6,0.8,3.1,1.6,4.7,0.7c0.7-0.3,1.5-1.2,1.8-1.8
				c0.1-0.2,0.5-2.2,0.4-2.1c-1.7,0.9-2.7,1.6-4,1.5c-0.7-1.9-1.8-3.5-3.3-5c0,0-0.1,0-0.1,0.1c0.9,1.4,1.6,2.9,2.1,4.5
				c-0.1-0.1-0.2-0.1-0.3-0.1l-0.5-0.2c-4.7-2.4-10.4-3.1-15.5-1.7c-3.1,0.8-6,2.3-8.4,4.3c-1.3,1-2.2,2.3-3.3,2.9
				c-0.1-0.5-0.1-1-0.1-1.5c0-1.4,0.1-2.8,0.4-4.2c0-0.1-0.1-0.1-0.1,0c-0.8,1.7-1.7,4-1.7,6.1c-0.6,0-1.3-0.2-2.2-0.6
				C116,105.4,116.5,107.2,117.7,108.1z"/>
			<path class="st5" d="M111,155c-0.1,1.4-1.5,2.6-2.6,3.3c-0.7,0.4-2.3,0.7-2.5,1.6c-0.1,0.2,0,0.4,0.1,0.6l0.1,0.1
				c0.2,0.2,0.5,0.4,0.8,0.3c1.3-0.4,2.2-1,3-2.1c0.8-1.2,0.9-2.3,1.2-3.7C111.2,155,111,154.9,111,155z"/>
			<path class="st5" d="M40.5,83.7c-2.1,1.1-3.6,2.5-5,4.4c-0.8,1.2-2.1,3.5-1.3,5c0,0.1,0.1,0.1,0.2,0.1c1.3-0.2,2.6-1.7,3.6-2.5
				c1.3-1.2,2.9-2.1,4.5-2.9C45,86.4,43.1,82.3,40.5,83.7z"/>
			<path class="st5" d="M129.2,69.8c1.7-0.6,3.5,0.1,5.2,0.3c1.9,0.3,3.7,0.7,5.4,1.3c0.2,0.1,0.5-0.2,0.3-0.4
				c-3.3-3.5-7.1-6.6-12.2-5C125.1,66.9,126.4,70.8,129.2,69.8z"/>
			<path class="st5" d="M64.2,190.1L64.2,190.1c2.8,0.6,5.7,1.1,8.6,1.5c1.7,1.3,4,2.1,5.9,2.7c3.1,1,6.2,1.7,9.4,1.6
				c0.2,0,0.3-0.3,0.1-0.4c-2.8-1.4-5.9-2.1-8.8-3.1c-0.3-0.1-0.6-0.2-0.9-0.3c6.4,0.4,13,0.2,19.7-0.6c-11.7,0.1-23.5-1.3-34-4l0,0
				h-0.1c-12.2-3.2-22.6-8.4-29.3-15.9c-4.8-5.4-9-12.1-12.3-19.9c-1.2-2.7-1.7-5.4-2.4-8.2c-0.7-3.1-1.4-6.3-2.9-9.4
				c-1.1-2.3-2.2-4.7-3.3-7.1l0,0l0,0c-5.1-11.2-9.8-23.9-10.8-37.2C1.4,69,8.8,47,22.9,31C36.8,15.2,57.1,5,78.5,3.1
				c25.5-2.3,58.1,7.3,73.7,33.8c6.4,10.9,8.7,23.9,10.8,36.4c0.8,4.5,1.6,9.1,2.5,13.6c0.8,3.9,1.8,7.8,2.8,11.5
				c2.7,10.4,5.5,21.2,4.9,31.9c-1.6,30.3-27,49.2-55.8,59.5c2.4-0.5,4.9-1.1,7.3-1.8c0,1.1-0.1,2.3-0.2,3.4
				c0.9-0.4,1.9-0.8,2.8-1.2c0.1-1.1,0.1-2.1,0.1-3.2c4.5-1.5,8.9-3.4,13.1-5.7c0,0.8,0,1.5,0,2.3c1.1-0.7,2.3-1.3,3.4-2.1
				c-0.2-0.1-0.4-0.3-0.6-0.4c0-0.4,0-0.9-0.1-1.3c10.4-6.2,19.6-14.7,25.5-25.1c0.6,0.4,1.2,0.7,1.9,0.9c0.3,0.1,0.7,0.1,1,0.2
				c1.5,0.1,3-0.3,4.1-1.1c2-1.4,3.4-3.8,4-7.2c1.2-6,0.2-12.1-0.7-17.9c-0.8-4.9-1.6-10-1.1-14.9c0.2-1.7,0.7-3.6,1.3-5.7
				c1.2-4.2,2.5-8.5,1.1-12.1c-1-2.7-3.4-4.6-6-4.8l0,0c-1.7-0.1-3.3,0.5-4.5,1.6c-0.6-2.5-1.2-4.9-1.8-7.4c-1-4.4-1.8-9-2.5-13.5
				c-2.2-12.8-4.5-25.9-11.1-37.3c-14.3-24.2-44.2-38-76.3-35.1c-22.1,2-43,12.5-57.4,28.8C6.2,45.7-1.5,68.4,0.2,90
				c1.1,13.2,5.5,25.6,10.4,36.7c-0.9,0.3-1.7,0.8-2.3,1.5c-3.6,4.4,0,10.8,2.7,15.4c0.6,1,1.1,2,1.5,2.7c3.4,7,5.3,14.4,5.3,21.4
				c0,4.8,0.6,10.3,4.3,13.6c1.6,1.5,3.8,2.4,6,2.5c1.2,0.1,2.4,0,3.6-0.4c2.6-0.8,4.8-2.7,6-5.1c5.5,4.5,12.5,8,20.3,10.4
				C57.8,188.7,63.6,190.1,64.2,190.1z M176.6,129.8c1,5.9,1.9,11.5,0.8,17c-0.5,2.7-1.5,4.5-2.9,5.5c-0.8,0.6-2,0.8-3,0.5
				c-0.4-0.1-0.9-0.3-1.3-0.7c3.4-6.6,5.5-13.9,5.9-21.8c0.1-1.1,0.1-2.2,0.1-3.3C176.3,127.9,176.5,128.9,176.6,129.8z M171,97
				c0.2-1.4,1.8-2.6,3.4-2.5l0,0c1.6,0.1,3.1,1.4,3.7,3.1c1,2.8-0.1,6.7-1.2,10.5c-0.6,2.2-1.2,4.2-1.4,6.1
				c-0.1,0.9-0.1,1.7-0.2,2.6c-1-6.5-2.6-12.9-4.2-19.2C171.1,97.3,171,97.2,171,97L171,97z M31.2,180.7c-2.4,0.7-5.1,0.1-7-1.6
				c-2.9-2.6-3.4-7.1-3.4-11.6c-0.1-7.4-2-15.1-5.6-22.5c-0.4-0.9-1-1.9-1.6-2.9c-2.3-3.9-5.4-9.3-2.9-12.3c0.3-0.4,0.9-0.7,1.3-0.7
				c1,2.1,1.9,4.1,2.9,6.1c1.3,2.8,2,5.7,2.7,8.8c0.6,2.8,1.3,5.8,2.5,8.7c3.5,8.1,7.8,15,12.8,20.6c0.9,1,1.9,2,3,3
				C35.1,178.4,33.4,180,31.2,180.7z"/>
		</g>
	</g>
	<path class="st7" d="M121.3,8.2C100.7,0,76.9,0,55.9,8.3c-6.6,2.6-12.8,5.9-18.5,9.8C16.8,32.2,4.1,53,2.7,75.1
		c-0.3,5,0,9.9,0.8,14.8c0.4-8,1.1-16.1,3.3-23.8c2.4-8.4,7-16.5,14-21.8c8.9-6.7,18.9-6.7,28.4-1.9c6.2,3.1,11.6,8.5,18.5,10
		c11,2.4,24.7-5,31.4-13.2c4.2-5.1,8.1-10.9,13.9-14.1c8.3-4.6,18.9-3,27.2,1.6c8.3,4.6,9,13.2,15.5,20c0.8,0.8,1.8,1.6,2.8,1.5
		C151.3,29.3,139.6,15.5,121.3,8.2z"/>
</g>
</svg>
