<?xml version="1.0" encoding="utf-8"?>
<!-- Generator: Adobe Illustrator 22.1.0, SVG Export Plug-In . SVG Version: 6.00 Build 0)  -->
<svg version="1.1" id="Layer_1" xmlns="http://www.w3.org/2000/svg" xmlns:xlink="http://www.w3.org/1999/xlink" x="0px" y="0px"
	 viewBox="0 0 79.4 36.9" style="enable-background:new 0 0 79.4 36.9;" xml:space="preserve">
<style type="text/css">
	.st0{fill:#3F4741;}
</style>
<path class="st0" d="M79.4,2.1C50.5,1.3,38.5,24.7,38.5,24.7S30,0.8,0,0c0,0,26.8,4.5,36.5,32.6c0.2,1.1-1.3,4.3-1.3,4.3
	s1.6-0.9,3.1-1.9c0.3-0.1,0.6-0.3,1-0.6c4.7-2.9,8.9-1,8.9-1l-1.4-1.2l1.7,0.4L47,31.6c0.2,0,0.6,0.1,1.8,0.4c-2.8-1.8-5-2-6.4-1.8
	C54,5,79.4,2.1,79.4,2.1z"/>
</svg>
