<svg xmlns="http://www.w3.org/2000/svg" viewBox="0 0 1082.47 933.02"><title>cloud</title><g style="isolation:isolate"><g id="Layer_1" data-name="Layer 1"><g style="opacity:0.5"><path d="M213.28,285.41a19.91,19.91,0,0,0,5.63-8.49,20.06,20.06,0,0,0,2.45-10.23c-.29-2.37-.57-4.73-.85-7.1a26.65,26.65,0,0,0-6.69-11.85l-5.33-4.25a26.56,26.56,0,0,0-13.39-3.83h-.84A20.09,20.09,0,0,0,184,241.8a23.9,23.9,0,0,0-14.29,13.88,20.15,20.15,0,0,0-2.44,10.23c.28,2.36.57,4.73.85,7.1a26.63,26.63,0,0,0,6.68,11.85l5.33,4.24a26.52,26.52,0,0,0,13.4,3.83l.83,0a20.11,20.11,0,0,0,10.3-2.15A19.92,19.92,0,0,0,213.28,285.41Z" transform="translate(-11.64 -6.02)" style="fill:#fdeb7c"/><path d="M1014,729.25a56.79,56.79,0,0,0,15.45-35.82q-.82-6.79-1.63-13.58a51,51,0,0,0-12.78-22.67l-10.2-8.12a50.75,50.75,0,0,0-25.62-7.33l-1.6,0a49.2,49.2,0,0,0-47,30.66A38.38,38.38,0,0,0,926,691.94q.81,6.78,1.63,13.57a50.8,50.8,0,0,0,12.78,22.68l10.2,8.11a50.65,50.65,0,0,0,25.62,7.33l1.59,0A56.72,56.72,0,0,0,1014,729.25Z" transform="translate(-11.64 -6.02)" style="fill:#fdeb7c"/><path d="M662.44,769.63a29.61,29.61,0,0,0,8.07-18.72c-.28-2.37-.57-4.74-.85-7.1A26.63,26.63,0,0,0,663,732l-5.33-4.25a26.62,26.62,0,0,0-13.4-3.83h-.83a27.41,27.41,0,0,0-27,26.26c.29,2.36.57,4.73.85,7.09a26.68,26.68,0,0,0,6.69,11.86l5.33,4.24a26.46,26.46,0,0,0,13.39,3.83h.83a29.6,29.6,0,0,0,19-7.53Z" transform="translate(-11.64 -6.02)" style="fill:#fdeb7c"/><path d="M564.19,131.42a19.91,19.91,0,0,0,8.49,5.63,20.05,20.05,0,0,0,10.23,2.44l7.1-.85A26.63,26.63,0,0,0,601.86,132c1.42-1.78,2.83-3.56,4.25-5.33a26.59,26.59,0,0,0,3.83-13.4v-.83a20,20,0,0,0-2.15-10.3,19.9,19.9,0,0,0-5.38-8.65,20,20,0,0,0-8.5-5.63,20,20,0,0,0-10.23-2.44l-7.09.84a26.63,26.63,0,0,0-11.86,6.69l-4.24,5.33a26.46,26.46,0,0,0-3.83,13.39v.84a20,20,0,0,0,2.14,10.29A20,20,0,0,0,564.19,131.42Z" transform="translate(-11.64 -6.02)" style="fill:#fdeb7c"/><path d="M622.75,148.39c18.22.26,18.66-28,.41-28.31S604.51,148.13,622.75,148.39Z" transform="translate(-11.64 -6.02)" style="fill:#fdeb7c"/><path d="M589.72,71.31c12.86.18,13.17-19.8.29-20S576.85,71.12,589.72,71.31Z" transform="translate(-11.64 -6.02)" style="fill:#fdeb7c"/><path d="M256.72,471.21c-15-.22-15.36,23.09-.34,23.31S271.74,471.43,256.72,471.21Z" transform="translate(-11.64 -6.02)" style="fill:#fdeb7c"/><path d="M348.27,532.48h-.84a7.5,7.5,0,0,0-7.6,7.38,7.58,7.58,0,0,0,2.12,5.33,7.75,7.75,0,0,0,5.27,2.27l.83,0a7.77,7.77,0,0,0,5.33-2.12,7.5,7.5,0,0,0,.15-10.6A7.75,7.75,0,0,0,348.27,532.48Z" transform="translate(-11.64 -6.02)" style="fill:#fdeb7c"/><path d="M393.35,524c-9.64-.14-9.87,14.85-.21,15S403,524.11,393.35,524Z" transform="translate(-11.64 -6.02)" style="fill:#fdeb7c"/><path d="M413.48,51.28a7.57,7.57,0,0,0,5.33-2.11,7.84,7.84,0,0,0,2.27-5.27v-.83A7.69,7.69,0,0,0,419,37.74a7.5,7.5,0,0,0-10.59-.16,7.8,7.8,0,0,0-2.28,5.27v.83A7.77,7.77,0,0,0,408.21,49,7.59,7.59,0,0,0,413.48,51.28Z" transform="translate(-11.64 -6.02)" style="fill:#fdeb7c"/><path d="M630.08,301.63c-.68-.46-1.38-.87-2.07-1.3a46.8,46.8,0,0,0-.69-8.2C625,278.57,615.82,267,604,260.68a60.36,60.36,0,0,0,1.52-7.89c18.09-6.15,29.91-22.41,33.29-40.71,6.82-22.42-1.61-49-24.11-61.31-15.13-8.28-33.13-8.69-48.43-2.71a25.68,25.68,0,0,0-15.85-5.71c-.52,0-1,0-1.54.06a69,69,0,0,0-6.52-39.74c-10.36-21.5-32.47-38.09-55.74-43C462.38,54.51,436,58,415.37,72.36A92.08,92.08,0,0,0,403.69,82a25.65,25.65,0,0,0-16.38-6.13c-9.52-.14-18.83,5.45-23.65,13.59a46.69,46.69,0,0,0-14.06,0,42.94,42.94,0,0,0-4.65.64c-3.3-10.93-12.8-19.24-25-19.41-13.93-.21-27.46,11.86-27,26.25.34,11.22,7,21.15,16.93,25.14a38.57,38.57,0,0,0-1,13.52,66.83,66.83,0,0,0-11-1.71,63.39,63.39,0,0,0-17.61-1c-27.49,2.26-49.47,19.68-59,45.36a22.05,22.05,0,0,0-.81,11.73,65.74,65.74,0,0,0-1.74,22.44c2.46,25.75,18.41,49.68,40.35,61.94a83.66,83.66,0,0,0-7.32,6.28,48.21,48.21,0,0,0-7,1.57c-15.1,4.57-26.77,15.49-34.23,29a7.75,7.75,0,0,0-3.08-.66c-8.67-.12-9.71,11.95-2.8,14.49A74.63,74.63,0,0,0,202,359.33a77.32,77.32,0,0,0,5.93,29.21,50.43,50.43,0,0,0,27.53,26.76,39,39,0,0,0-.88,6.48c-.81,17.47,11.28,32.48,26.13,40.22a54.8,54.8,0,0,0,27.2,6.54,63.74,63.74,0,0,0,7.39,12.08c14.49,18.58,37.76,28.4,61,28.7a70.13,70.13,0,0,0,19.93-1.07A58.14,58.14,0,0,0,406,492a73.74,73.74,0,0,0,21.29-30.78,43.19,43.19,0,0,0,6.64,8.44c-8,4.81-13.81,13.41-13.52,23.05.45,14.89,11.68,27.64,27.08,27.87,14.37.2,28.32-12.24,27.87-27.08,0-.58-.08-1.15-.13-1.72a34.29,34.29,0,0,0,17.2-5.78c.62-.42,1.19-.87,1.78-1.31.65-.24,1.31-.49,2-.77,6.42-2.68,10.66-8.9,12.45-15.85a49.22,49.22,0,0,0,6.06,13.41,16.23,16.23,0,0,0-2.57-.25C493,481,492.56,510.69,511.72,511c10.56.15,15.42-8.84,14.44-17a44.76,44.76,0,0,0,6.7,4.28c22.65,11.67,54.1,10,69.11-12.89,9-13.75,12.39-33.07,8.34-49.84a27.58,27.58,0,0,0,3.11-2.75,26.28,26.28,0,0,0,7.39-11.15,26.26,26.26,0,0,0,3.2-13.43l-.45-3.8c10.8-6.56,18.88-17.28,23.71-29.45q1.49-2.88,2.68-5.91C659.47,344.81,651.79,316.41,630.08,301.63Z" transform="translate(-11.64 -6.02)" style="fill:#fdeb7c"/><path d="M574.86,526.73c-14.09-.2-14.43,21.7-.31,21.9S589,526.94,574.86,526.73Z" transform="translate(-11.64 -6.02)" style="fill:#fdeb7c"/><g style="mix-blend-mode:multiply"><path d="M77,669.13a21.72,21.72,0,0,0-.57-11,21.76,21.76,0,0,0-4.48-10.5L66.63,642a29,29,0,0,0-13.48-6l-7.39-.26A28.74,28.74,0,0,0,31.61,641l-.73.53A21.72,21.72,0,0,0,23.29,650a21.64,21.64,0,0,0-4.07,10.28,21.5,21.5,0,0,0,.57,11,21.84,21.84,0,0,0,4.47,10.5l5.32,5.64a28.92,28.92,0,0,0,13.47,6l7.39.26a28.74,28.74,0,0,0,14.15-5.3l.73-.53a21.72,21.72,0,0,0,7.59-8.51A21.66,21.66,0,0,0,77,669.13Z" transform="translate(-11.64 -6.02)" style="fill:#ffd97e"/><path d="M154.59,279.79a21.72,21.72,0,0,0-.57-11,21.84,21.84,0,0,0-4.47-10.5l-5.32-5.63a28.83,28.83,0,0,0-13.47-6l-7.39-.26a28.8,28.8,0,0,0-14.15,5.3l-.74.53a21.79,21.79,0,0,0-7.59,8.51A26,26,0,0,0,97.39,282a21.8,21.8,0,0,0,4.47,10.5l5.32,5.64a28.91,28.91,0,0,0,13.48,6l7.38.26a28.7,28.7,0,0,0,14.15-5.3l.74-.53a21.65,21.65,0,0,0,7.59-8.51A21.64,21.64,0,0,0,154.59,279.79Z" transform="translate(-11.64 -6.02)" style="fill:#ffd97e"/><path d="M283.6,308.46a21.5,21.5,0,0,0,11-.57,21.67,21.67,0,0,0,10.49-4.47l5.64-5.32a28.83,28.83,0,0,0,6-13.47c.09-2.46.17-4.93.26-7.39a28.84,28.84,0,0,0-5.3-14.15l-.53-.73a21.79,21.79,0,0,0-8.51-7.59,25.95,25.95,0,0,0-21.32-3.51,21.72,21.72,0,0,0-10.5,4.48l-5.64,5.31a29,29,0,0,0-6,13.48q-.14,3.69-.26,7.39a28.74,28.74,0,0,0,5.3,14.15l.52.73a21.75,21.75,0,0,0,8.52,7.59A21.64,21.64,0,0,0,283.6,308.46Z" transform="translate(-11.64 -6.02)" style="fill:#ffd97e"/><path d="M345.62,285.48c16.05-11.52-1.83-36.49-17.91-25S329.54,297,345.62,285.48Z" transform="translate(-11.64 -6.02)" style="fill:#ffd97e"/><path d="M267.08,239.58c11.33-8.14-1.29-25.76-12.64-17.61S255.73,247.72,267.08,239.58Z" transform="translate(-11.64 -6.02)" style="fill:#ffd97e"/><path d="M234.73,803.11c-13.22,9.49,1.5,30,14.74,20.54S248,793.6,234.73,803.11Z" transform="translate(-11.64 -6.02)" style="fill:#ffd97e"/><path d="M354.08,797.47l-.73.52a8.34,8.34,0,0,0-3.28,5.29,8.11,8.11,0,0,0,6.7,9.34,8.47,8.47,0,0,0,6.06-1.42l.73-.53a8.4,8.4,0,0,0,3.28-5.28,8.13,8.13,0,0,0-6.7-9.34A8.41,8.41,0,0,0,354.08,797.47Z" transform="translate(-11.64 -6.02)" style="fill:#ffd97e"/><path d="M387.9,761c-8.49,6.1,1,19.31,9.48,13.2S396.41,754.85,387.9,761Z" transform="translate(-11.64 -6.02)" style="fill:#ffd97e"/><path d="M100.49,335.83a8.26,8.26,0,0,0,3.28-5.29,8.42,8.42,0,0,0-1.42-6.06l-.52-.73a8.42,8.42,0,0,0-5.29-3.28,8.13,8.13,0,0,0-9.34,6.7,8.51,8.51,0,0,0,1.42,6.06l.53.73a8.13,8.13,0,0,0,11.34,1.87Z" transform="translate(-11.64 -6.02)" style="fill:#ffd97e"/><path d="M450.87,414.37c-.89,0-1.77.12-2.64.2a51.48,51.48,0,0,0-5.89-6.7c-10.81-10.31-26.26-14.52-40.65-12.37a67.42,67.42,0,0,0-3.76-7.86c11.8-17,11.62-38.83,2.75-57-8.51-23.95-33-41.69-60.57-37.91-18.53,2.54-34.49,13.81-44,28.89a27.82,27.82,0,0,0-17.5,5.25c-.45.32-.87.69-1.3,1A74.79,74.79,0,0,0,246,297.49c-22.9-12.06-52.88-12.26-76.36-1.55-24.43,11.14-45.16,31.24-53.89,57a100.34,100.34,0,0,0-4,16,27.87,27.87,0,0,0-18.23,5.22c-8.39,6-12.91,16.9-11.86,27.11a50.35,50.35,0,0,0-12.22,9.11,49,49,0,0,0-3.65,3.56c-9.92-7.4-23.56-8.52-34.33-.79C19.21,422,15.2,441.21,24.87,453.48c7.53,9.56,19.74,13.93,31,11a41.62,41.62,0,0,0,7.86,12.43A72.91,72.91,0,0,0,53,482.5,69.26,69.26,0,0,0,37,493C14.48,512.67,6.56,542,14.84,570.56A23.91,23.91,0,0,0,21.7,581.3a71.34,71.34,0,0,0,13,20.69c18.76,20.87,48.11,31.44,75.14,28a89.06,89.06,0,0,0-2.32,10.19,52.36,52.36,0,0,0-5.14,5.91C92.12,659.81,89,676.86,91.23,693.49a8.28,8.28,0,0,0-3.11,1.41c-7.64,5.49-.75,16.69,6.91,14.44a81,81,0,0,0,19.81,31.51,83.69,83.69,0,0,0,24,21.64,54.61,54.61,0,0,0,41.27,5.57,42,42,0,0,0,3.41,6.22c10.56,15.76,30.79,21,48.73,18.21a59.4,59.4,0,0,0,27.94-11.84,69.44,69.44,0,0,0,14.24,5.76c24.62,6.85,51.24.41,71.73-14.35a76.1,76.1,0,0,0,16.7-13.79,63.12,63.12,0,0,0,15.47-33.36,80,80,0,0,0-1.3-40.58,47.15,47.15,0,0,0,11.24,3.08c-3.9,9.37-3.4,20.6,3.08,28.82,10,12.69,28,16.57,41.59,6.83,12.66-9.1,16.8-28.94,6.83-41.59-.39-.5-.82-1-1.23-1.42a37.1,37.1,0,0,0,11.27-16.13c.28-.77.48-1.53.71-2.29.41-.64.82-1.28,1.22-1.94,3.86-6.48,3.55-14.63.62-21.85a54.05,54.05,0,0,0,13.93,7.78,19,19,0,0,0-2.4,1.44c-16.85,12.1,1.93,38.31,18.81,26.19,9.3-6.68,7.74-17.66,1.63-24.11a48.57,48.57,0,0,0,8.61-.6c27.28-4.43,53.6-26.21,51.94-55.82-1-17.81-10.53-36.82-24.88-48.83a30.28,30.28,0,0,0,.94-4.41,42.22,42.22,0,0,0-6.62-28.27l-2.85-3c5.19-12.69,5.31-27.24,1.68-41-.38-2.3-.87-4.6-1.48-6.87C504.35,433.06,479.34,413.25,450.87,414.37Z" transform="translate(-11.64 -6.02)" style="fill:#ffd97e"/><path d="M548,646.27c-12.42,8.91,1.41,28.23,13.85,19.3S560.39,637.34,548,646.27Z" transform="translate(-11.64 -6.02)" style="fill:#ffd97e"/><path d="M898.51,829.52a31.47,31.47,0,0,0-8.11-13.91l-1.4-1.4A35.13,35.13,0,0,0,866.71,805a23.84,23.84,0,0,0-12.15,2.72,23.51,23.51,0,0,0-10.14,6.52q-1.89,2.43-3.77,4.88a58.2,58.2,0,0,0-10.94-8.75c-12.13-7.55-27.78-12.27-42.72-13-20.94-2.84-41.75,1.36-57.37,16.65-18.58,18.2-19.66,47.3-8.19,69.47,17.92,34.63,67,59.09,102.85,36.92,16.23-10,26.48-28.17,30.17-46.55.49-2.45.85-4.87,1.11-7.29l.4.15a32.43,32.43,0,0,0,34.44-6.52l4.93-6.38a31.42,31.42,0,0,0,4.3-15.91C899.26,835.11,898.88,832.31,898.51,829.52Z" transform="translate(-11.64 -6.02)" style="fill:#ffd97e"/></g><g style="mix-blend-mode:multiply"><path d="M758.9,832.7a29.9,29.9,0,0,0-14.82-14.27l-7-1.72a26.88,26.88,0,0,0-13.57,2.09l-5.9,3.53a26.77,26.77,0,0,0-8.38,11.29l-.3.78a25.91,25.91,0,0,0,6.39,28.9,20.32,20.32,0,0,0,8.8,6l7,1.71a26.88,26.88,0,0,0,13.57-2.09l5.9-3.53A26.8,26.8,0,0,0,759,854.06l.3-.79a30,30,0,0,0-.37-20.57Z" transform="translate(-11.64 -6.02)" style="fill:#fff596"/><path d="M738.19,446.64a20,20,0,0,0,8.33-6,20.23,20.23,0,0,0,6-8.79c.57-2.33,1.14-4.67,1.72-7a27,27,0,0,0-2.1-13.57l-3.53-5.9A26.71,26.71,0,0,0,737.28,397l-.78-.3a25.94,25.94,0,0,0-28.91,6.39,20.21,20.21,0,0,0-5.94,8.8q-.87,3.5-1.72,7A26.82,26.82,0,0,0,702,432.43q1.77,3,3.53,5.91a26.81,26.81,0,0,0,11.29,8.37l.78.31a29.92,29.92,0,0,0,20.57-.38Z" transform="translate(-11.64 -6.02)" style="fill:#fff596"/><path d="M775,397.37c6.72-17.1-19.85-27.57-26.58-10.44S768.3,414.51,775,397.37Z" transform="translate(-11.64 -6.02)" style="fill:#fff596"/><path d="M690.51,401.17c4.74-12.07-14-19.47-18.77-7.37S685.75,413.26,690.51,401.17Z" transform="translate(-11.64 -6.02)" style="fill:#fff596"/><path d="M949.76,857.72c-5.53,14.08,16.35,22.71,21.89,8.6S955.31,843.61,949.76,857.72Z" transform="translate(-11.64 -6.02)" style="fill:#fff596"/><path d="M1040.15,793.05l-.31.78a7.88,7.88,0,0,0,.11,5.79,7.58,7.58,0,0,0,10,3.91,7.84,7.84,0,0,0,4-4.17l.3-.78a7.83,7.83,0,0,0-.1-5.79,7.58,7.58,0,0,0-9.95-3.91A7.84,7.84,0,0,0,1040.15,793.05Z" transform="translate(-11.64 -6.02)" style="fill:#fff596"/><path d="M1048.14,747.45c-3.56,9.06,10.51,14.6,14.07,5.53S1051.7,738.38,1048.14,747.45Z" transform="translate(-11.64 -6.02)" style="fill:#fff596"/><path d="M609,560.47a7.64,7.64,0,0,0-.11-5.79,7.88,7.88,0,0,0-4.16-4l-.79-.31a7.56,7.56,0,1,0-5.52,14.07l.78.31a7.55,7.55,0,0,0,9.8-4.27Z" transform="translate(-11.64 -6.02)" style="fill:#fff596"/><path d="M922.33,444.92c-.68.47-1.32,1-2,1.49a47.66,47.66,0,0,0-8-2.27c-13.64-2.59-27.84,1.92-38,10.87a62.69,62.69,0,0,0-6.91-4.24c.62-19.27-10.53-36.2-26.61-45.9-18.75-14.41-46.84-15.9-66.47,1-13.19,11.35-20,28.2-19.76,44.77a26,26,0,0,0-11,12.94c-.19.49-.33,1-.48,1.48a69.53,69.53,0,0,0-39.85-8c-24,2.14-47.5,17.12-60.43,37.34-13.46,21-19.51,47.21-13.3,71.77a92.62,92.62,0,0,0,5,14.46,25.94,25.94,0,0,0-11.61,13.29c-3.51,8.94-1.55,19.72,4.42,27.16a47.21,47.21,0,0,0-4.94,13.29,45.6,45.6,0,0,0-1,4.63c-11.49-.77-22.71,5.24-27.22,16.72-5.14,13.08,1.44,30.14,15.19,34.84,10.71,3.67,22.45.92,29.76-7a38.65,38.65,0,0,0,12.41,5.74A66.6,66.6,0,0,0,646,699a64.25,64.25,0,0,0-7.25,16.26c-7.63,26.76,1,53.71,21.88,71.8A22.18,22.18,0,0,0,671.36,792a66.52,66.52,0,0,0,20.57,9.62c25.19,6.83,53.46.27,72.83-16.08a82.51,82.51,0,0,0,3.33,9.13,48.66,48.66,0,0,0-1,7.22c-1.06,15.88,5.1,30.78,15.25,42.65a7.63,7.63,0,0,0-1.71,2.66c-3.2,8.15,7.83,13.42,12.68,7.8a75.49,75.49,0,0,0,31.39,14.61,77.85,77.85,0,0,0,29.69,4.77,50.86,50.86,0,0,0,35-16.48,38.9,38.9,0,0,0,5.81,3.13c16.2,7,34.67.89,47.26-10.38a55.18,55.18,0,0,0,15.84-23.35,64.82,64.82,0,0,0,14-2.69c22.7-7.08,40.24-25.56,48.79-47.43a70.62,70.62,0,0,0,6.08-19.21,58.71,58.71,0,0,0-4.76-33.86,74.39,74.39,0,0,0-21.5-31,43.54,43.54,0,0,0,10.33-3.26c1.69,9.28,7.75,17.8,17,21,14.22,4.87,30.25-1.2,35.94-15.66,5.3-13.5-1.49-31.09-15.67-35.94-.55-.19-1.11-.33-1.67-.49a34.62,34.62,0,0,0,.66-18.29c-.17-.74-.4-1.44-.6-2.15,0-.71,0-1.41,0-2.13-.25-7-4.62-13.22-10.55-17.38a50,50,0,0,0,14.82-1,15.43,15.43,0,0,0-1.15,2.34c-7.06,18,20.84,28.95,27.91,11,3.9-9.91-2.87-17.7-10.9-19.66a45.15,45.15,0,0,0,6.42-4.81c19.08-17.24,28.64-47.53,12.4-69.83-9.78-13.41-26.82-23.45-44.1-25.59a27,27,0,0,0-1.49-3.91,39.27,39.27,0,0,0-19.44-18.74l-3.75-.92c-2.36-12.54-9.61-24-19.38-32.86-1.47-1.61-3-3.16-4.63-4.62C973.54,432.51,944,429.67,922.33,444.92Z" transform="translate(-11.64 -6.02)" style="fill:#fff596"/><path d="M1025.69,471.91c-5.2,13.24,15.36,21.34,20.57,8.08S1030.9,458.66,1025.69,471.91Z" transform="translate(-11.64 -6.02)" style="fill:#fff596"/><path d="M486.56,724.82c-15.12-37.54-55.85-61.9-96.2-50.77a80,80,0,0,0-46,34.32c-7.46,11.87-10.61,25.55-10.58,39.32q-1,2.63-1.85,5.25a95,95,0,0,0-3.28,14.2,53.1,53.1,0,0,0-8.07,11.55c-20.41,39.39,3.12,84.81,43,99,20.41,7.3,43.47,2.22,62.16-7.35,17-8.73,30.78-22.68,42.06-37.89,1.36-1.85,2.69-3.74,4-5.69A74.42,74.42,0,0,0,491.17,788a95.07,95.07,0,0,0,1.11-17.88C493.89,754.65,492.3,739.07,486.56,724.82Z" transform="translate(-11.64 -6.02)" style="fill:#fff596"/><path d="M345.25,887.23c-.53-21.22-14-41.48-34.63-47.92a50.32,50.32,0,0,0-29.17,0,33.25,33.25,0,0,0-19.59,9.29c-16,16.25-19,41.34-7.82,61.18.18.32.38.65.57,1,.64,1.15,1.31,2.28,2,3.39,8.34,12.82,21.55,22.19,36.14,24.18a43.26,43.26,0,0,0,19-.73C333.43,931.75,345.79,908.43,345.25,887.23Z" transform="translate(-11.64 -6.02)" style="fill:#fff596"/><path d="M209.17,793.79c-.45-16-11.73-31.23-29-36.07a46.55,46.55,0,0,0-24.43,0,29.23,29.23,0,0,0-16.4,7c-13.43,12.23-15.92,31.12-6.55,46.06.15.25.32.49.48.73.53.87,1.1,1.72,1.7,2.55a44.71,44.71,0,0,0,30.26,18.21,40.31,40.31,0,0,0,15.94-.55C199.26,827.31,209.61,809.76,209.17,793.79Z" transform="translate(-11.64 -6.02)" style="fill:#fff596"/><path d="M194.86,652.1c-.61-21.77-16-42.55-39.51-49.16a63.58,63.58,0,0,0-33.28,0,39.84,39.84,0,0,0-22.35,9.53C81.43,629.13,78,654.86,90.8,675.21c.21.34.44.67.65,1,.73,1.18,1.5,2.34,2.32,3.48,9.51,13.16,24.58,22.76,41.23,24.8a54.56,54.56,0,0,0,21.71-.75C181.37,697.77,195.47,673.85,194.86,652.1Z" transform="translate(-11.64 -6.02)" style="fill:#fff596"/><path d="M297.77,786.61a23.78,23.78,0,0,0-5.64-10.72c-4.48-5.79-9.52-8.64-16.38-11.3-7.73-3-18.17-2.7-26-.2-11,3.51-19.09,10.19-25.47,19.66-4.22,6.25-5.48,17.18-3.18,24.29a33.3,33.3,0,0,0,14.48,18.84l7.14,4.31a32.51,32.51,0,0,0,24.3,3.18,29.74,29.74,0,0,0,3.39-1.18c.28-.08.57-.13.86-.22,17-5.1,27-21.06,27.6-38.28Z" transform="translate(-11.64 -6.02)" style="fill:#fff596"/></g><g style="mix-blend-mode:multiply"><path d="M404.94,346.58A27.28,27.28,0,0,0,412.61,335a27.48,27.48,0,0,0,3.33-13.94q-.58-4.85-1.16-9.67a36.2,36.2,0,0,0-9.11-16.15l-7.26-5.79a36.15,36.15,0,0,0-18.25-5.21l-1.14,0a27.36,27.36,0,0,0-14,2.92,32.63,32.63,0,0,0-19.46,18.92A27.45,27.45,0,0,0,342.2,320q.58,4.83,1.16,9.66a36.28,36.28,0,0,0,9.11,16.16l7.26,5.78A36.26,36.26,0,0,0,378,356.83h1.14a27.36,27.36,0,0,0,14-2.92A27.26,27.26,0,0,0,404.94,346.58Z" transform="translate(-11.64 -6.02)" style="fill:#ffd075"/><path d="M883.06,136.75a27.15,27.15,0,0,0,11.57,7.68,27.34,27.34,0,0,0,13.94,3.32l9.67-1.15a36.25,36.25,0,0,0,16.15-9.11l5.78-7.26A36.06,36.06,0,0,0,945.39,112l0-1.14a27.37,27.37,0,0,0-2.93-14A27.17,27.17,0,0,0,935.14,85a27.22,27.22,0,0,0-11.57-7.67A27.35,27.35,0,0,0,909.63,74L900,75.18a36.33,36.33,0,0,0-16.15,9.1L878,91.55a36,36,0,0,0-5.22,18.25l0,1.13a27.34,27.34,0,0,0,2.93,14A27.17,27.17,0,0,0,883.06,136.75Z" transform="translate(-11.64 -6.02)" style="fill:#ffd075"/><path d="M1002.9,517.33a35.33,35.33,0,0,0,22.28,9.61l8.44-1a31.68,31.68,0,0,0,14.1-7.95l5-6.34a31.58,31.58,0,0,0,4.56-15.94v-1a35.31,35.31,0,0,0-8.95-22.54,35.25,35.25,0,0,0-22.28-9.6l-8.44,1a31.68,31.68,0,0,0-14.1,7.95l-5,6.34A31.51,31.51,0,0,0,994,493.8l0,1A23.94,23.94,0,0,0,996.5,507,23.67,23.67,0,0,0,1002.9,517.33Z" transform="translate(-11.64 -6.02)" style="fill:#ffd075"/><path d="M962.86,159.88c24.81.36,25.41-38.21.55-38.57S938,159.52,962.86,159.88Z" transform="translate(-11.64 -6.02)" style="fill:#ffd075"/><path d="M917.85,54.85c17.52.25,17.94-27,.39-27.22S900.3,54.6,917.85,54.85Z" transform="translate(-11.64 -6.02)" style="fill:#ffd075"/><path d="M464.12,599.73c-20.44-.29-20.93,31.47-.46,31.76S484.59,600,464.12,599.73Z" transform="translate(-11.64 -6.02)" style="fill:#ffd075"/><path d="M588.86,683.22l-1.14,0a10.5,10.5,0,0,0-7.26,2.89,10.21,10.21,0,0,0-.21,14.43,10.58,10.58,0,0,0,7.18,3.1l1.13,0a10.57,10.57,0,0,0,7.26-2.89,10.2,10.2,0,0,0,.21-14.44A10.61,10.61,0,0,0,588.86,683.22Z" transform="translate(-11.64 -6.02)" style="fill:#ffd075"/><path d="M650.29,671.62c-13.14-.19-13.45,20.23-.29,20.42S663.45,671.81,650.29,671.62Z" transform="translate(-11.64 -6.02)" style="fill:#ffd075"/><path d="M677.71,27.57A10.31,10.31,0,0,0,685,24.68a10.55,10.55,0,0,0,3.09-7.17l0-1.14a10.52,10.52,0,0,0-2.89-7.26,10.2,10.2,0,0,0-14.43-.2,10.56,10.56,0,0,0-3.1,7.17v1.14a10.55,10.55,0,0,0,2.88,7.26A10.39,10.39,0,0,0,677.71,27.57Z" transform="translate(-11.64 -6.02)" style="fill:#ffd075"/><path d="M972.83,368.68c-.92-.63-1.87-1.19-2.81-1.77a64.38,64.38,0,0,0-.94-11.17c-3.21-18.48-15.67-34.28-31.8-42.86a85,85,0,0,0,2.07-10.75c24.65-8.38,40.74-30.53,45.35-55.47,9.29-30.55-2.19-66.76-32.85-83.54-20.61-11.28-45.14-11.83-66-3.69a34.92,34.92,0,0,0-21.6-7.77c-.7,0-1.39,0-2.09.08a94,94,0,0,0-8.88-54.16C839.17,68.29,809.05,45.69,777.34,39c-33-7-69-2.2-97.05,17.33a126.5,126.5,0,0,0-15.92,13.16,34.9,34.9,0,0,0-22.32-8.35c-13-.19-25.66,7.42-32.22,18.51a63.72,63.72,0,0,0-19.15.07,59.08,59.08,0,0,0-6.35.87c-4.49-14.88-17.43-26.21-34.08-26.45-19-.27-37.41,16.16-36.82,35.78.47,15.28,9.53,28.81,23.07,34.25a52.4,52.4,0,0,0-1.35,18.42,91.06,91.06,0,0,0-15-2.33,86.82,86.82,0,0,0-24-1.42c-37.45,3.08-67.4,26.82-80.34,61.81a30,30,0,0,0-1.11,16,89.66,89.66,0,0,0-2.37,30.57c3.34,35.09,25.09,67.7,55,84.41a108.84,108.84,0,0,0-10,8.55,66.25,66.25,0,0,0-9.61,2.13c-20.58,6.23-36.48,21.11-46.65,39.58a10.26,10.26,0,0,0-4.19-.9c-11.82-.17-13.22,16.28-3.81,19.74a101.76,101.76,0,0,0-3.54,46.62c.25,14.08,2.92,28,8.09,39.8a68.62,68.62,0,0,0,37.51,36.46,53.19,53.19,0,0,0-1.2,8.83c-1.11,23.8,15.37,44.25,35.6,54.8,11.52,6,24.31,9.41,37.06,8.92a87.75,87.75,0,0,0,10.07,16.45c19.74,25.32,51.45,38.7,83.17,39.11A95.54,95.54,0,0,0,627,650.2a79.31,79.31,0,0,0,40.55-22.12,100.6,100.6,0,0,0,29-41.94,58.91,58.91,0,0,0,9,11.5c-10.93,6.55-18.82,18.27-18.42,31.4.62,20.29,15.91,37.67,36.89,38,19.59.28,38.59-16.67,38-36.9,0-.79-.11-1.56-.18-2.34a46.77,46.77,0,0,0,23.43-7.87c.86-.57,1.63-1.19,2.43-1.78.89-.34,1.78-.68,2.67-1,8.75-3.65,14.52-12.13,17-21.6a68,68,0,0,0,8.26,18.27,22.82,22.82,0,0,0-3.5-.34c-26.06-.38-26.68,40.12-.58,40.5,14.39.2,21-12,19.67-23.13a60.62,60.62,0,0,0,9.13,5.83c30.86,15.91,73.71,13.58,94.16-17.56,12.31-18.73,16.88-45,11.37-67.9a37.21,37.21,0,0,0,4.23-3.76,35.57,35.57,0,0,0,10.07-15.19,35.83,35.83,0,0,0,4.37-18.29c-.21-1.73-.41-3.45-.62-5.18,14.72-9,25.72-23.54,32.31-40.13,1.34-2.61,2.56-5.3,3.64-8C1012.88,427.51,1002.42,388.82,972.83,368.68Z" transform="translate(-11.64 -6.02)" style="fill:#ffd075"/><path d="M897.6,675.39c-19.2-.28-19.66,29.56-.43,29.84S916.83,675.66,897.6,675.39Z" transform="translate(-11.64 -6.02)" style="fill:#ffd075"/><path d="M755,723.8c-19.21-.27-19.67,29.57-.43,29.84S774.24,724.08,755,723.8Z" transform="translate(-11.64 -6.02)" style="fill:#ffd075"/></g><g style="opacity:0.5;mix-blend-mode:multiply"><path d="M890.47,462.82a26.52,26.52,0,0,0-12.24,13.6c-.44,2.09-.87,4.18-1.31,6.27a23.88,23.88,0,0,0,2.28,12l3.31,5.13a23.86,23.86,0,0,0,10.29,7.1l.71.25a18,18,0,0,0,9.36,1.13A21.56,21.56,0,0,0,919,500.6a18.06,18.06,0,0,0,5-8c.44-2.09.87-4.18,1.31-6.28a23.86,23.86,0,0,0-2.28-12l-3.31-5.13a23.78,23.78,0,0,0-10.29-7.1l-.71-.25a26.53,26.53,0,0,0-18.26,1Z" transform="translate(-11.64 -6.02)" style="fill:#f47c4a"/><path d="M545.79,213.23a19.91,19.91,0,0,0-9.16,10.19l-1,4.7a17.87,17.87,0,0,0,1.71,9l2.49,3.85a17.8,17.8,0,0,0,7.7,5.31l.53.19a18.41,18.41,0,0,0,22.86-10.92c.32-1.56.65-3.13,1-4.7a17.83,17.83,0,0,0-1.71-9L567.72,218a17.92,17.92,0,0,0-7.71-5.32l-.53-.19a20,20,0,0,0-13.69.73Z" transform="translate(-11.64 -6.02)" style="fill:#f47c4a"/><path d="M859.16,502.58A19.91,19.91,0,0,0,850,512.77l-1,4.7a17.87,17.87,0,0,0,1.71,9l2.49,3.85a17.83,17.83,0,0,0,7.7,5.32l.53.18A18.42,18.42,0,0,0,884.3,524.9c.32-1.57.65-3.14,1-4.71a17.83,17.83,0,0,0-1.71-9l-2.48-3.85a17.92,17.92,0,0,0-7.71-5.32l-.53-.19a20,20,0,0,0-13.69.73Z" transform="translate(-11.64 -6.02)" style="fill:#f47c4a"/><path d="M804,197a21.61,21.61,0,0,0-8.68,6.73,21.63,21.63,0,0,0-6,9.6c-.53,2.52-1,5-1.58,7.54a28.72,28.72,0,0,0,2.74,14.4l4,6.17a28.5,28.5,0,0,0,12.35,8.52l.84.3a27.7,27.7,0,0,0,30.61-7.89,21.63,21.63,0,0,0,6-9.61c.52-2.51,1-5,1.57-7.53a28.61,28.61,0,0,0-2.73-14.4l-4-6.17a28.59,28.59,0,0,0-12.36-8.52l-.84-.3A32,32,0,0,0,804,197Z" transform="translate(-11.64 -6.02)" style="fill:#f47c4a"/><path d="M529.47,290.85a32,32,0,0,0-14.69,16.33c-.53,2.51-1,5-1.58,7.53a28.72,28.72,0,0,0,2.74,14.4l4,6.17a28.56,28.56,0,0,0,12.35,8.52l.85.3a27.69,27.69,0,0,0,30.6-7.89,21.65,21.65,0,0,0,6-9.6c.53-2.51,1-5,1.58-7.54a28.7,28.7,0,0,0-2.74-14.39l-4-6.17A28.56,28.56,0,0,0,552.25,290l-.85-.3a31.85,31.85,0,0,0-21.93,1.16Z" transform="translate(-11.64 -6.02)" style="fill:#f47c4a"/><path d="M548,493.07a26.63,26.63,0,0,0-13.61-12.23l-6.27-1.32a24.06,24.06,0,0,0-12,2.28L511,485.12a23.75,23.75,0,0,0-7.1,10.29l-.25.7a26.55,26.55,0,0,0,1,18.27,17.77,17.77,0,0,0,5.61,7.22,18,18,0,0,0,8,5l6.28,1.32a24.08,24.08,0,0,0,12-2.28l5.14-3.32A23.73,23.73,0,0,0,548.73,512l.25-.7a26.63,26.63,0,0,0-1-18.27Z" transform="translate(-11.64 -6.02)" style="fill:#f47c4a"/><path d="M503.1,461.84c-15.41-5.44-23.9,18.49-8.46,24S518.53,467.3,503.1,461.84Z" transform="translate(-11.64 -6.02)" style="fill:#f47c4a"/><path d="M509.07,536.84c-10.88-3.84-16.87,13-6,16.9S520,540.69,509.07,536.84Z" transform="translate(-11.64 -6.02)" style="fill:#f47c4a"/><path d="M876.61,458.61c-10.88-3.85-16.87,13.05-6,16.9S887.5,462.46,876.61,458.61Z" transform="translate(-11.64 -6.02)" style="fill:#f47c4a"/><path d="M888.39,247.68c-10.88-3.84-16.87,13.05-6,16.9S899.28,251.53,888.39,247.68Z" transform="translate(-11.64 -6.02)" style="fill:#f47c4a"/><path d="M906.83,292.43c12.69,4.48,19.68-15.23,7-19.72S894.13,287.93,906.83,292.43Z" transform="translate(-11.64 -6.02)" style="fill:#f47c4a"/><path d="M846.59,214.08l.7.25a6.93,6.93,0,0,0,5.14-.27,6.72,6.72,0,0,0,3.17-9,7,7,0,0,0-3.83-3.44l-.7-.25a6.93,6.93,0,0,0-5.14.27,6.73,6.73,0,0,0-3.17,9A7,7,0,0,0,846.59,214.08Z" transform="translate(-11.64 -6.02)" style="fill:#f47c4a"/><path d="M805.82,208.39c8.16,2.88,12.65-9.79,4.48-12.68S797.65,205.5,805.82,208.39Z" transform="translate(-11.64 -6.02)" style="fill:#f47c4a"/><path d="M653.14,604.41a6.83,6.83,0,0,0-5.14.27,7,7,0,0,0-3.44,3.83l-.25.7a7,7,0,0,0,.27,5.14,6.73,6.73,0,0,0,9,3.17A7,7,0,0,0,657,613.7l.25-.71a7,7,0,0,0-.27-5.14A6.89,6.89,0,0,0,653.14,604.41Z" transform="translate(-11.64 -6.02)" style="fill:#f47c4a"/><path d="M540.83,329.48c.44.59.92,1.14,1.38,1.7a42,42,0,0,0-1.76,7.17c-1.89,12.2,2.56,24.68,10.82,33.43a55.28,55.28,0,0,0-3.56,6.27c-17.14,0-31.85,10.47-40,25.06-12.23,17.1-12.69,42.11,2.91,59A51.81,51.81,0,0,0,551,478.33a23,23,0,0,0,11.84,9.4c.43.15.88.26,1.32.39a61.84,61.84,0,0,0-5.86,35.65c2.64,21.25,16.68,41.69,35,52.56,19.11,11.31,42.55,15.89,64.19,9.62a83.19,83.19,0,0,0,12.71-4.85,23,23,0,0,0,12.16,9.9,25,25,0,0,0,24-4.76,41.55,41.55,0,0,0,12,4,38.3,38.3,0,0,0,4.14.8c-.34,10.23,5.35,20,15.69,23.67,11.79,4.17,26.74-2.2,30.5-14.57,2.93-9.63.12-20-7.18-26.22a34.38,34.38,0,0,0,4.72-11.21,60.91,60.91,0,0,0,8.85,4.61,56.92,56.92,0,0,0,14.68,5.93c24,6,47.69-2.54,63.13-21.64a19.76,19.76,0,0,0,4-9.74,59,59,0,0,0,7.91-18.57,73,73,0,0,0-16.52-64.23,74.7,74.7,0,0,0,8-3.24,43.76,43.76,0,0,0,6.44.69C877,457,890,451,900.27,441.63a6.8,6.8,0,0,0,2.43,1.45c7.33,2.59,11.67-7.38,6.53-11.52a67,67,0,0,0,12-28.34,69.17,69.17,0,0,0,3.33-26.53,45.21,45.21,0,0,0-15.72-30.64,34.31,34.31,0,0,0,2.6-5.26c5.71-14.62-.27-30.84-10.67-41.68a49.11,49.11,0,0,0-21.24-13.37,57.5,57.5,0,0,0-2.82-12.38c-7-20-24-35-43.65-41.91a62.78,62.78,0,0,0-17.26-4.8,52.13,52.13,0,0,0-30,5.26A66.19,66.19,0,0,0,759,252a39.15,39.15,0,0,0-3.22-9.08c8.19-1.78,15.58-7.43,18.1-15.71,3.88-12.79-2-26.85-15-31.45-12.16-4.3-27.58,2.27-31.45,15-.16.5-.27,1-.39,1.5a30.73,30.73,0,0,0-16.27,0c-.66.17-1.27.4-1.89.6q-.94,0-1.89.09c-6.23.43-11.61,4.51-15.13,9.91a44.56,44.56,0,0,0-1.3-13.14,14.62,14.62,0,0,0,2.11.95c16.18,5.72,25.09-19.42,8.89-25.14-8.94-3.16-15.65,3.09-17.14,10.28a40.61,40.61,0,0,0-4.47-5.56c-15.91-16.42-43.13-24-62.44-8.86-11.62,9.09-20,24.55-21.39,40a24.35,24.35,0,0,0-3.43,1.46,23.48,23.48,0,0,0-9.48,7.35,23.65,23.65,0,0,0-6.58,10.5c-.23,1.12-.47,2.24-.7,3.36-11.07,2.48-21,9.27-28.61,18.23-1.38,1.35-2.71,2.77-4,4.26C528.23,284.35,526.61,310.69,540.83,329.48Z" transform="translate(-11.64 -6.02)" style="fill:#f47c4a"/><path d="M652.33,154c11.92,4.21,18.49-14.31,6.55-18.53S640.39,149.76,652.33,154Z" transform="translate(-11.64 -6.02)" style="fill:#f47c4a"/><path d="M467.13,294.29a42.9,42.9,0,0,0-9.17,7.56,51.15,51.15,0,0,0-14,17.62c-6.6-19.35-23-33.54-42.25-38.88-.75-.42-1.49-.85-2.26-1.23-17.31-8.5-37.92-8-55.62-.81-31.3,12.68-63.9,44.08-60.22,80.8a62.54,62.54,0,0,0,13,32.3,38.46,38.46,0,0,0,21.31,21.8,41.71,41.71,0,0,0,7.73,2.42,54.77,54.77,0,0,0,30.19,8.18,65.66,65.66,0,0,0,27.75-7.62c1.35-.31,2.69-.64,4-1,25.55-7.38,48-30,56.2-56.05,5.36,12,15.59,21.56,28.81,24.17,15.28,3,32-2.06,42.19-14.11a40.85,40.85,0,0,0,4.15-6,51.71,51.71,0,0,0,11.61-22.26C539.36,304.55,499.79,274.37,467.13,294.29Z" transform="translate(-11.64 -6.02)" style="fill:#f47c4a"/><path d="M607.16,575.7c-13-20.67-33-37-56.57-43.88-53.78-15.68-120.93,14-146.17,64.13l-1-.05a25.57,25.57,0,0,0-3.74.22c.09-.48.18-1,.25-1.46,1.77-7.67,1.93-15.58-.42-22.88a33.09,33.09,0,0,0-5-9.61,35.44,35.44,0,0,0-4.9-9.29,28.9,28.9,0,0,0,2.55-2.27,30.46,30.46,0,0,0,5.55-7.67,23,23,0,0,0,3.49-7.87l1.08-8a29.93,29.93,0,0,0-4.12-15.2l-4.71-6.1A30.14,30.14,0,0,0,380.15,498a23,23,0,0,0-6.82-1.27,48.57,48.57,0,0,0-1.21-11.2c-5.73-25.13-32.76-44.06-58.49-36.71-25,7.14-39.42,33.54-30.95,57.57,3.55,25.48,28.89,42.42,54.29,36.82a47.47,47.47,0,0,0,4.72-1.31c.14.3.29.59.44.88s.23.45.35.68c-.78.36-1.55.73-2.31,1.13a52.55,52.55,0,0,0-13.66,5.54c-11.34,6.58-19.58,16.73-21.6,28.74a47.23,47.23,0,0,0,2.79,33.93c-18.84,2.53-35.34,13.22-46.34,28.34a22.34,22.34,0,0,0-7.91-4.51,22.72,22.72,0,0,0-11.61-2.59l-8,1.07a30.12,30.12,0,0,0-13.3,7.75l-4.71,6.1a30,30,0,0,0-4.11,15.2v1.4a33.44,33.44,0,0,0,8.82,21.3,22.6,22.6,0,0,0,9.7,6.23,22.7,22.7,0,0,0,11.6,2.59l1.28-.17A56.88,56.88,0,0,0,265.54,737a64,64,0,0,0,10,8.41c14,9.5,31.79,11.89,48.06,7.85a27.14,27.14,0,0,0,10.77-5.54c29.94-9.89,50.94-41.27,48.46-72.86a70.31,70.31,0,0,0-12-34.61,36.92,36.92,0,0,0,6.95-4.36,28.46,28.46,0,0,0,10.58,13.6,24.05,24.05,0,0,0,5.83,2.9,85,85,0,0,0,11.77,33.12c16,26.19,43.27,43.3,72.73,50.43,18.43,4.45,38.34,5.68,56.11.47a74.63,74.63,0,0,0,53.75-9.18C639.13,696.49,658.59,614.46,607.16,575.7Z" transform="translate(-11.64 -6.02)" style="fill:#f47c4a"/><path d="M152.88,581.51c-.7-15.56-12.62-28.72-28.72-28.72-15,0-29.42,13.21-28.73,28.72s12.62,28.72,28.73,28.72C139.18,610.23,153.57,597,152.88,581.51Z" transform="translate(-11.64 -6.02)" style="fill:#f47c4a"/><path d="M439,207.49a21.61,21.61,0,0,0-5.14-9.77,14.44,14.44,0,0,0-5.15-5.15,21.56,21.56,0,0,0-9.77-5.14c-7.07-2.8-16.2-2.67-23.39-.48A36.52,36.52,0,0,0,371.32,211a33.23,33.23,0,0,0-1.12,15,33,33,0,0,0,24,29.56A35.49,35.49,0,0,0,429,245.41a39.05,39.05,0,0,0,9.29-16.94,76.71,76.71,0,0,0,1.73-13.35C439.7,212.58,439.36,210,439,207.49Z" transform="translate(-11.64 -6.02)" style="fill:#f47c4a"/><path d="M778.32,700.16l.21.07-.22-.12A.43.43,0,0,0,778.32,700.16Z" transform="translate(-11.64 -6.02)" style="fill:#f47c4a"/><path d="M847.48,650.61c-31.88-31.69-84.63-40.9-123.74-17.16-1.74,1.06-3.43,2.17-5.1,3.33C715.46,621,706.8,606.57,692.72,597c-26.6-18.15-62.27-9.37-80.64,15.74-8.39,11.48-11.07,25.7-12.31,39.57-1.29,14.44,2.51,30.06,12.51,40.88a46.35,46.35,0,0,0,4.34,4.11,32.52,32.52,0,0,0,5.94,5.84A51.5,51.5,0,0,0,641.48,718c11.41,5.24,23.52,7.08,34.81,4,.07,1,.15,2,.25,3-1.89,17.11,1.62,34.31,12.89,48.9a60.57,60.57,0,0,0,7.85,8.33,40.76,40.76,0,0,0-3.43,4,27.56,27.56,0,0,0-11.12,22.36c.27,27.72,22.53,57.39,52.3,56.17,19.3-.8,33-17.82,37.87-35.19a47.14,47.14,0,0,0,1.55-16.3,66,66,0,0,0,25.78-3.88c21.13-7.91,34.51-23.37,44-42.34,12.51-11.79,22.24-26.74,26.06-43.46C876.53,696.26,867.05,670.07,847.48,650.61Z" transform="translate(-11.64 -6.02)" style="fill:#f47c4a"/><path d="M641.24,743.32c-14.18-9.53-34.86-7.25-46.54,5.19a36.77,36.77,0,0,0-9.93,22.76,40.28,40.28,0,0,0,.77,17.51,36.48,36.48,0,0,0,35.46,27c16.74.08,31.63-12.71,36.33-28.3A39.54,39.54,0,0,0,641.24,743.32Z" transform="translate(-11.64 -6.02)" style="fill:#f47c4a"/><path d="M949.91,592.12c-.16-1.34-.39-2.68-.66-4A25.9,25.9,0,0,0,941,567.36a41.75,41.75,0,0,0-15.47-9c-10.78-4.36-23.69-3.84-33.6,2.35-13.82,8.63-19.31,24.48-17.22,40.06a43.33,43.33,0,0,0,11.53,24.29c.52.67,1.05,1.33,1.6,2,10.09,11.86,27.63,16.1,41.47,8.72a36,36,0,0,0,15.24-10C952.6,616.64,955.45,602.86,949.91,592.12Z" transform="translate(-11.64 -6.02)" style="fill:#f47c4a"/><path d="M506.53,744.44q-.39-3.18-1-6.3c.56-12-3.37-24-12.93-32.66a65.74,65.74,0,0,0-24.34-14.16c-17-6.86-37.27-6.05-52.87,3.69-21.74,13.59-30.39,38.52-27.09,63a68.22,68.22,0,0,0,18.14,38.23c.82,1,1.65,2.08,2.52,3.1,15.87,18.66,43.47,25.33,65.24,13.72a56.65,56.65,0,0,0,24-15.69C510.76,783,515.26,761.33,506.53,744.44Z" transform="translate(-11.64 -6.02)" style="fill:#f47c4a"/></g><g style="mix-blend-mode:multiply"><path d="M216.45,517.6a45.7,45.7,0,0,0-1.2-23.29,45.94,45.94,0,0,0-9.43-22.13l-11.22-11.9a61,61,0,0,0-28.42-12.71L150.6,447a60.56,60.56,0,0,0-29.84,11.18l-1.55,1.11a45.89,45.89,0,0,0-16,18,54.85,54.85,0,0,0-7.38,45,45.84,45.84,0,0,0,9.43,22.14l11.22,11.89A60.86,60.86,0,0,0,144.88,569l15.58.55a60.59,60.59,0,0,0,29.84-11.18l1.55-1.11a46,46,0,0,0,16-18A45.73,45.73,0,0,0,216.45,517.6Z" transform="translate(-11.64 -6.02)" style="fill:#ffd97e"/><path d="M284.78,546.27a40.66,40.66,0,0,0-6.37-27.22l-6.73-7.13a36.46,36.46,0,0,0-17-7.61l-9.34-.33a36.37,36.37,0,0,0-17.88,6.7l-.93.67a27.49,27.49,0,0,0-9.59,10.76,32.82,32.82,0,0,0-4.43,26.94,27.6,27.6,0,0,0,5.65,13.27l6.72,7.12a36.55,36.55,0,0,0,17,7.62l9.34.32a36.36,36.36,0,0,0,17.88-6.69L270,570a27.56,27.56,0,0,0,9.59-10.76A27.4,27.4,0,0,0,284.78,546.27Z" transform="translate(-11.64 -6.02)" style="fill:#ffd97e"/><path d="M177.22,755.78a26.25,26.25,0,0,0-4.12-17.62l-4.35-4.61a23.63,23.63,0,0,0-11-4.93l-6-.21a23.5,23.5,0,0,0-11.58,4.34l-.6.43a17.84,17.84,0,0,0-6.21,7,24.28,24.28,0,0,0,.8,26l4.35,4.62a23.57,23.57,0,0,0,11,4.92l6,.22a23.56,23.56,0,0,0,11.57-4.34l.6-.43a17.72,17.72,0,0,0,6.21-7A17.58,17.58,0,0,0,177.22,755.78Z" transform="translate(-11.64 -6.02)" style="fill:#ffd97e"/><path d="M270.24,419.15a27.46,27.46,0,0,0-.72-13.95,27.43,27.43,0,0,0-5.65-13.26l-6.72-7.13a36.55,36.55,0,0,0-17-7.62l-9.34-.32a36.27,36.27,0,0,0-17.88,6.7l-.93.66A27.56,27.56,0,0,0,202.38,395,32.82,32.82,0,0,0,198,421.93a27.6,27.6,0,0,0,5.65,13.27l6.73,7.13a36.46,36.46,0,0,0,17,7.61l9.34.33a36.37,36.37,0,0,0,17.88-6.7l.93-.67a27.53,27.53,0,0,0,9.6-10.76A27.3,27.3,0,0,0,270.24,419.15Z" transform="translate(-11.64 -6.02)" style="fill:#ffd97e"/></g></g></g></g></svg>