<?xml version="1.0" encoding="utf-8"?>
<!-- Generator: Adobe Illustrator 22.1.0, SVG Export Plug-In . SVG Version: 6.00 Build 0)  -->
<svg version="1.1" id="Layer_1" xmlns="http://www.w3.org/2000/svg" xmlns:xlink="http://www.w3.org/1999/xlink" x="0px" y="0px"
	 viewBox="0 0 341.3 356.3" style="enable-background:new 0 0 341.3 356.3;" xml:space="preserve">
<style type="text/css">
	.st0{fill:#FFFFFF;}
	.st1{fill:#E88324;}
	.st2{fill:#FFCF33;}
	.st3{fill:#EF3924;}
	.st4{fill:#F7901E;}
	.st5{fill:#F47721;}
	.st6{fill:#FEE04E;}
	.st7{opacity:0.6;fill:#E88324;}
	.st8{fill:#961A1E;}
</style>
<g>
	<path class="st0" d="M168.2,356.7c-2.6,0-5.1-0.8-7.3-2.4c0,0-0.1,0-0.1-0.1c-1.1-0.3-2.2-0.6-3.3-1.1c-4-1.7-7.5-4.7-9.9-8.5
		c-1.1,0.1-2.1,0.2-3.2,0.2l-0.3,0c-0.4,0-0.9,0-1.3-0.1c-3.8,1.3-8,0.5-11.3-2.2c-1.9-1.6-3.1-3.3-3.9-4.8
		c-2.9-2.9-5.1-6.5-6.1-10.4c-2.8-10.6,2.7-22.3,12.7-26.7c-8-0.6-15.2-0.5-19.8,0.3c-0.1,0-0.1,0-0.2,0c2.9,4.4,4.3,9.6,3.8,14.6
		c0,0.4,0.1,0.9,0.1,1.3c0.6,10.4-4.8,14.4-8.1,15.8c-2.4,1-5,1.3-7.4,0.7c-3.1,0.9-6.6,1.2-9.8,0.7c-7.6-1-13.5-5.3-17.2-8.4
		c-0.8-0.6-1.5-1.3-2.3-2c-2-1.7-3.7-3.2-5.2-3.9c-0.7-0.4-1.5-0.6-2.4-0.8c-1,0.4-2.7,1.4-3.8,2.4l-1,0.9c-3,2.7-7.1,6.4-13,8.1
		c-0.2,0.2-0.4,0.4-0.5,0.7c-2.8,3.2-7.1,4.6-11.3,3.6c-5.4-1.3-7.9-5.1-9-6.8l-0.4-0.6c-0.4-0.6-0.8-1.2-1.2-1.8
		c-2.1-0.8-3.9-2.2-5.3-4.1c-3.5-4.7-4.7-11.7-3.1-17.7c-0.1-2.4,0.2-4.7,0.9-6.9c2.2-7.3,8.1-13,15.3-15.2
		c9.3-8.3,21.9-4.1,26.2-2.7c1.7,0.6,5,1.7,7.4,1.8c-0.1-0.1-0.1-0.2-0.2-0.3c-1.4-1.6-3.5-3.1-5.9-4.8c-1.1-0.8-2.2-1.6-3.3-2.5
		c-1.3-1-2.6-2.1-3.9-3.3c-10.5-1.7-24.2-6-35.7-16.5C5.6,242.3-1.3,225.6,0.2,210.1c1.5-15.9,11.9-30.2,25.9-36.2
		c2.5-3.5,5.1-6.2,7.1-8.1c3-2.8,6-5.3,8.9-7.7c4.1-3.4,7.7-6.3,10.4-9.6c1.7-2,2.9-4.5,3.4-6.6c-3.1-2.1-5.2-5.5-5.6-9.4
		c-0.1-0.6-0.1-1.1-0.1-1.7c-1.5-1.7-2.6-3.9-3-6.3c-0.9-5.2,1.4-10.4,5.9-13.2c4.2-2.6,8.4-5.4,11-8.2c-0.1-0.7-0.2-1.5-0.2-2.2
		c-0.2-2.9-0.1-5.6,0.3-8.1c0.3-2.2,1-5.4,2.6-8.7c0.1-2,0.4-4.4,1-6.9c1.2-4.8,3.6-9.3,6.9-13.2c-4.9-3.2-8.2-8.8-8.7-15.1
		c-0.4-4.4,0.6-8.2,1.4-10.9c2.2-8.4,6.4-24,20.5-31c11.1-5.5,22.8-2.8,31.3,2.1c7-8,18.7-11.4,29.4-7.9c7.2,2.4,13.2,7.6,17,14.3
		c7.6-4.3,17.6-3.5,24.2,2.3c4.1,3.6,6.6,8.7,7.1,13.9c0.9,0.2,1.8,0.5,2.7,0.8c7.5,2.8,12.6,9.5,13,17.2c0.2,3.3-0.6,6-1.3,8.1
		c0.2,0.3,0.4,0.5,0.6,0.8c2.1,3.2,3.2,6.9,3.2,10.6c7.2,10.5,11.5,22.8,12.5,35.4c2-2.8,4.2-5.4,6.7-7.8c10.1-9.9,24-16,37.9-16.6
		c22-1,44.8,12,56.8,32.4c10.3,17.4,13.3,40.2,8.3,62.4c-2.9,12.7-9.5,30.5-25,43c-1.3,1.1-2.9,1.9-4.6,2.4
		c-5,7.6-11.2,14.9-18.5,21.8c-2.4,2.3-5.6,3.5-8.8,3.5c-1.3,0-2.5-0.2-3.7-0.5c-2.9,3.4-6.2,6.6-9.7,9.2c-1.9,1.4-4.2,2.3-6.6,2.5
		c0,2.5-0.1,4.9-0.3,7.4c0.1,0.3,0.3,0.6,0.4,0.9c4.8,11.3,0.3,18.6-1.8,21.2c-4.8,5.9-11.8,6.7-14.4,6.9c-8.9,1-17.9,0.6-26.5-0.9
		l-10.7,32.1c-0.1,1.5-0.3,3-0.7,4.5c-0.6,2.2-1.6,4.3-2.9,6.2c-0.2,0.6-0.6,1.3-1,2c-1.1,1.8-2.3,3-3.4,4c-2.7,2.5-6.5,3.6-10.2,3
		c-0.1,0-0.1,0-0.2,0c-0.9,0.1-1.8,0.1-2.7,0.1c-2,3-4.7,5.4-7.9,7.2c-0.7,0.9-1.6,1.8-2.8,2.7C173.4,356,170.8,356.7,168.2,356.7z
		 M166.2,333C166.2,333,166.3,333,166.2,333l0.2,0l0.4-0.1c0.5-0.2,1-0.5,1.2-0.9c0.3-0.5,0.4-1.3,0.3-2l0-0.2
		c-0.7,1.2-1.4,2.1-2,2.8c-0.1,0.1-0.1,0.2-0.2,0.3C166.2,332.9,166.2,332.9,166.2,333z M166.1,332.5L166.1,332.5L166.1,332.5z
		 M190.3,329.1l2.1,0.7l-2.2-2.3C190.3,328,190.3,328.5,190.3,329.1z M183.4,326.7l2.8,0.9l1.6-0.2l-1.5-3.7
		c-0.6,0.3-1.2,0.8-1.8,1.3c-0.1,0.1-0.4,0.4-0.6,0.9C183.6,326.2,183.5,326.5,183.4,326.7z M186.3,323.7l1.4,3.7l2.2-0.3l-3.4-3.5
		C186.4,323.7,186.4,323.7,186.3,323.7z M133.4,325.3C133.4,325.3,133.4,325.3,133.4,325.3C133.4,325.3,133.4,325.3,133.4,325.3z
		 M184.3,325.1C184.3,325.2,184.3,325.2,184.3,325.1C184.3,325.2,184.3,325.2,184.3,325.1z M144.4,323L144.4,323
		c0.8,0,2-0.8,2.5-1.8c0.1-0.1,0.1-0.3,0.2-0.4c-1.4-0.1-3.2-0.1-3.9,0.2c-0.2,0.2-0.4,0.7-0.4,1c0,0,0.2,0.3,0.6,0.7l0.3,0.2
		l0.4,0.1C144.3,322.9,144.4,323,144.4,323z M41.4,309.4l0.2,0c0.1,0,0.1,0,0.1,0c1.1-0.2,2.9-1.9,4.5-3.3l0.3-0.3
		c0.3-0.3,0.6-0.5,0.9-0.8c0.5-0.4,3.1-2.7,6.7-4.7c-0.5-0.2-1-0.3-1.5-0.5c-0.9-0.3-3.3-1.1-4.8-1.2l-2.4,3.9l-5.7,0.3
		c-0.1,0-0.4,0.2-0.5,0.3c0,0,0,0.1,0,0.1l0.8,3.9l1,1.8c0.1,0.1,0.1,0.2,0.2,0.2L41.4,309.4z M194.6,302c1.1,0.7,2.1,1.5,3.2,2.3
		c1.1,1,2.2,2,3.1,3.1l15-15.1c-2-0.4-3.9-0.9-5.8-1.4C205.5,295.3,200.3,299.1,194.6,302z M78.5,300.6c0.4,0.2,0.9,0.5,1.3,0.7
		l2-2.6C80.8,299.4,79.7,300,78.5,300.6z M151.5,298.8L151.5,298.8L151.5,298.8z M162.1,280.1l7.6,12.3c0.4-1.1,1.1-2.4,2.1-3.5
		c2.3-2.7,5.1-3.6,6.6-4c7.7-2.3,14.6-7.1,19.5-13.5l5-6.4l7.6,2.9c8.8,3.3,18.8,4.8,28.6,4.1l-1.9-3.3l0.6-3.9
		c1.2-7.2,0.2-16.1-2.2-21.7c-0.4-0.8-0.8-1.7-1.4-2.6l-1.9-2.9l0.1-3.5c0-0.2,0-0.4,0-0.6l0.4-43.8l18.2,34.6l14.3-20.5l0.8,17.2
		c1.1-2.4,1.9-5,2.5-7.6l0.4-1.6l0.8-1.4c2-3.6,3.8-7.6,5.3-11.9l19.8-56.7l1.4,54.2l15-27.5l0.7,13.8c1.8-4.2,3-8.3,3.8-11.9
		c3.8-16.8,1.7-33.8-5.8-46.4c-8-13.6-22.8-22.2-36.9-21.6c-8.6,0.4-17.2,4.2-23.5,10.4c-6.3,6.2-10.4,14.6-11.4,23.6
		c-0.3,3-0.3,6.4-0.4,9.6c0,2.9,0,5.8-0.2,8.8c-0.7,9.6-3.3,17.1-8,22.7c-5.3,6.3-15.1,11.3-25.1,8.2l-3.9-1.2l-2.2-3.4
		c-2.9-4.5-4.6-9.1-5.6-15c-1.6-9.3,1.8-18.2,4.2-24.6c0.8-2.2,1.7-4.4,2.6-6.5c1.6-3.9,3.3-7.9,4.4-11.8c4.2-15,0.7-31.9-9.3-44.1
		l-5-6.1l2.3-3.7c-1.3-1.7-2.9-4-3.5-7.3c-0.6-3.2,0-6,0.8-8.2c-3,0.7-10.3,2.2-15-4c-2.7-3.6-2.7-7.2-1.9-10.2
		c-5.6,5.5-13.5,6.4-19,2.3c-4.6-3.4-5.3-8.5-5.7-11.2l-0.1-0.8c-0.5-3.4-3-6.6-5.8-7.5c-2.6-0.8-5.5,0.4-6.4,2.1
		c-0.2,0.3-0.3,0.7-0.5,1c-1.3,2.7-3.9,8.3-10.5,9.6c-6.5,1.3-11.1-2.7-13.3-4.6l-0.2-0.2c-3.7-3.1-9.4-5.3-13.3-3.3
		c-3.5,1.7-5.7,6.2-7.6,12.5c2.9-2.6,6.5-5.2,11.2-6.3c5.4-1.2,11.5,0.5,15.5,4.4c0.5,0.5,1.1,1.1,1.7,1.7l1.4,1.6l0.7,2.1
		c1.6,4.6,2.2,9.7,2,16l-0.2,9.1l-9,1.4c-5.2,0.8-10.8,1.9-15.4,4.1c-4.6,2.2-7.8,5.6-8.7,9.1c-0.3,1.1-0.4,2.5-0.4,4.4l0.1,3.7
		l-2.2,3c0,0-0.1,0.1-0.1,0.1c-0.3,0.5-0.4,1.3-0.6,2.4c-0.2,0.9-0.2,2.1-0.1,3.4c0.1,1,0.2,2,0.5,3l1.2,4.6l-2.1,3.9
		c-1.4,2.6-3.2,5-5.2,7.1l-5.4,8.5l0.8,1.7c6,12.3,0.5,26.1-6.1,34.1c-4.1,5.1-8.9,9-13.6,12.7c-2.6,2.1-5.3,4.3-7.6,6.5
		c-1.6,1.5-3.9,4-5.6,6.9l-2.2,3.7l-4.1,1.2c-7.4,2.2-13.5,10.2-14.3,18.6c-0.8,8.6,3.4,18.5,10.7,25.1c8.7,7.8,19.6,10.6,27.3,11.5
		l3.8,0.5l2.7,2.7c1.5,1.5,3.1,2.9,4.6,4.1c0.9,0.7,1.9,1.4,2.8,2.1c3.1,2.3,6.3,4.6,9.2,7.8c6.1,6.7,8.3,15.6,5.7,23.2
		c-0.2,0.5-0.3,0.9-0.5,1.4c5.6-5.5,13.3-9.4,22.1-11c10.3-1.9,23.6-0.9,30.6-0.1l1.6,0.2l1.5,0.6c6.7,2.8,12.5,6.2,17.6,10.2
		c0.7,0.5,1.3,1.1,1.9,1.6L162.1,280.1z M298.5,201.1C298.5,201.1,298.5,201.1,298.5,201.1C298.5,201.1,298.5,201.1,298.5,201.1z
		 M215.5,155.2c-0.5,1.7-0.9,3.4-1,4.9C214.9,158.7,215.3,157.1,215.5,155.2z"/>
</g>
<g id="cock">
	<g>
		<path class="st1" d="M168.2,345.1c-0.2,0-0.3,0-0.4-0.1c-0.4-0.3-0.7-0.7-1-1.3l-0.2-0.4l-0.4,0c-1.5,0-2.9-0.3-4.2-0.8
			c-2.7-1.2-4.9-3.7-5.9-6.7c-0.9-2.9-0.6-5.9,0.9-8.2c0.3-0.5,0.7-1,1.1-1.5c0.6-0.7,1.1-1.4,1.4-2.1c0.3-0.7,0.2-1.7-0.3-2.1
			l-0.2-0.2l-0.3,0.1c-0.6,0.1-1.2,0.8-2.3,3.5c-2,4.8-6.9,8.1-12,8.1c-1.2,0-2.3-0.2-3.3-0.5l-0.4-0.1l-0.3,0.3
			c-0.2,0.2-0.5,0.4-0.8,0.6c-0.2,0.1-0.3,0.2-0.5,0.3c0,0,0,0,0,0c-0.1,0-0.2,0-0.2-0.1c-0.9-0.7-1.2-1.5-1.5-2.6l-0.1-0.2
			l-0.2-0.1c-2.2-1.6-3.8-3.9-4.4-6.3c-1.4-5.1,1.4-11,6.1-13.1c2.2-1,4.6-1.1,6.5-1.1c0.9,0,1.8,0,2.7,0.1c0.8,0,1.5,0.1,2.3,0.1
			c2.6,0,4.3-0.3,5.8-1c1.9-0.9,2.9-2.2,3.1-3.8c0.2-2.3-1.3-5.1-3.9-7.2c-4.3-3.4-9.3-6.3-15.1-8.7l-0.1,0l-0.1,0
			c-3.1-0.3-9.1-0.9-15.5-0.9c-4.7,0-8.8,0.3-12.2,0.9c-8.1,1.5-14.8,5.2-18.8,10.6l-0.6,0.8l1,0.2c3.1,0.7,5.6,1.8,7.6,3.2
			c3,2.2,5.8,6.7,4.8,11.2l0,0.1l0,0.1c0.1,0.6,0.2,1.2,0.2,1.7c0.2,3.4-0.6,4.2-1.1,4.4c-0.1,0-0.1,0-0.2,0c0,0-0.1,0-0.2-0.1
			c-0.3-0.3-0.5-0.8-0.7-1.4l-0.2-1l-0.8,0.6c-1.9,1.6-4.6,2.5-7.4,2.5c-0.5,0-1.1,0-1.6-0.1c-4.6-0.6-8.5-3.4-11.4-5.8
			c-0.7-0.6-1.4-1.2-2.1-1.8c-2.5-2.1-4.7-4.1-7.4-5.5c-2.5-1.3-5.5-2.1-8.4-2.2c-3.4,0.1-8.4,3.2-10.8,5.4l-1.1,0.9
			c-2.7,2.4-5.5,4.9-9.2,5.8c-0.7,0.2-1.5,0.2-2.3,0.2c-0.6,0-1.1,0-1.7-0.1l-0.8-0.1l0,1.3c0,1.1,0,1.9-0.5,2.6
			c-0.8-0.3-1.3-0.9-1.9-1.9l-0.4-0.5c-0.7-1-1.3-2-2.1-3c-0.2-0.3-0.3-0.6-0.4-1l0-0.2l-0.2-0.2c-0.8-0.8-1.4-1.6-2-2.6l-0.7-1.2
			c0,0-0.7,1.8-0.7,1.9c0,0.1-0.1,0.2-0.3,0.2c-0.2,0-0.5-0.1-0.7-0.3c-1.4-1.9-1.9-5.1-1.1-7.7c0.1-0.4,0.3-0.7,0.5-0.9l0.2-0.2
			l-0.1-0.3c-0.4-1.8-0.3-3.6,0.2-5.2c1.3-4.3,5.4-7.5,9.9-7.7l0.3,0l0.2-0.3c0.4-0.6,0.7-1,1.1-1.4c1.6-1.7,3.9-2.5,6.7-2.5
			c3.2,0,6.5,1.1,8.5,1.8c3.5,1.2,7.5,2.4,11.6,2.4c1.2,0,2.3-0.1,3.3-0.3c4.2-0.8,7-3,8.2-6.4c1.3-4-0.1-9.1-3.6-13
			c-2.2-2.4-4.8-4.3-7.6-6.4c-1-0.8-2.1-1.5-3.1-2.3c-1.9-1.5-3.8-3.1-5.6-4.9L59,259l-0.2,0c-9.2-1.1-22.3-4.4-33-14.1
			c-9.8-8.9-15.2-21.8-14.1-33.7c1.2-12.8,10.1-24.1,21.7-27.6l0.2-0.1l0.1-0.2c2.4-3.9,5.3-7.1,7.4-9.1c2.6-2.5,5.5-4.8,8.2-7
			c4.5-3.6,8.6-7,12.1-11.2c4.6-5.7,8.7-15.1,4.8-23l-0.2-0.4l-3,0c-0.7,0-1.2-0.5-1.3-1.1c-0.2-2.1,0.3-4.3,1.5-6.2l0.5-0.8
			l-4.3-0.9c-0.5-0.1-0.9-0.5-1-1c-0.1-0.5,0.1-1,0.6-1.3c6.4-4,13.6-8.8,17.2-15.2l0.1-0.2l-0.2-0.6c-0.4-1.7-0.7-3.3-0.8-4.9
			c-0.1-2.1-0.1-3.9,0.2-5.6c0.3-1.8,0.7-3.9,1.9-5.9c0.2-0.4,0.5-0.8,0.8-1.2l0.1-0.2l0-0.2c0-2.9,0.2-5.1,0.7-7.1
			c1.6-6.5,6.8-12.3,14.2-15.9c5.9-2.8,12.2-4,18.2-5l0.5-0.1l0-0.5c0.1-5.1-0.3-9-1.5-12.4l0-0.1l-0.1-0.1c-0.4-0.5-0.8-0.9-1-1.1
			c-1.2-1.2-3.1-1.9-4.8-1.9c-0.4,0-0.9,0-1.3,0.1c-3.6,0.8-6.5,3.8-9.3,6.6l-0.6,0.6c-3.1,3.2-6.2,4.8-9,4.8c-1,0-2-0.2-2.9-0.7
			c-2.2-1.1-3.7-3.6-3.9-6.5c-0.2-2.5,0.4-4.9,1-7c2.4-9.2,5.7-19.3,14.3-23.5c2.4-1.2,5.1-1.8,7.9-1.8c5.7,0,11.9,2.4,16.7,6.5
			l0.2,0.1c1.3,1.1,2.8,2.3,4.1,2.3c0.1,0,0.3,0,0.4,0c1.4-0.3,2.2-1.7,3.2-3.9c0.2-0.5,0.4-0.9,0.7-1.4c2.5-4.8,7.9-7.9,13.8-7.9
			c1.7,0,3.4,0.3,5,0.8c6.5,2.1,11.7,8.5,12.8,15.8l0.1,0.8c0.3,1.8,0.5,3.6,1.7,4.4c0.4,0.3,1,0.5,1.6,0.5c1.3,0,2.8-0.7,4-1.9
			c0.7-0.7,1.3-1.4,1.9-2.2c1.1-1.4,2.2-2.8,3.7-3.8c1.5-1,3.3-1.5,5.2-1.5c2.3,0,4.5,0.8,6.2,2.2c3.1,2.7,4.1,7.5,2.3,11.1
			c-0.2,0.5-0.5,1-0.8,1.5c-1.1,1.9-1.7,3.2-1.1,4.1c0.3,0.4,0.8,0.6,1.6,0.6c1,0,2.2-0.3,3-0.5c1.5-0.4,3-0.6,4.4-0.6
			c1.4,0,2.8,0.2,4,0.7c3.1,1.1,5.3,3.9,5.4,6.8c0.1,1.9-0.6,3.6-1.3,5.1c-0.7,1.6-1.3,3.1-1,4.5c0.2,1.2,1.1,2.3,2.1,3.4
			c0.5,0.6,1,1.2,1.4,1.8c1.1,1.6,1.5,3.7,1,5.4c-0.1,0.3-0.3,0.7-0.5,1l-0.2,0.4l0.3,0.4c12.1,14.8,16.4,35.3,11.3,53.5
			c-1.2,4.4-3,8.7-4.7,12.9c-0.9,2.1-1.7,4.2-2.5,6.3c-2.1,5.6-4.8,12.6-3.7,19.2c1,5.7,2.6,8.9,4.1,11.2l0.1,0.2l0.2,0.1
			c1,0.3,2,0.5,3.1,0.5c3.9,0,8.3-2.1,11-5.4c3.3-3.9,5.1-9.4,5.6-16.8c0.2-2.7,0.2-5.4,0.2-8.1c0-3.5,0-7.1,0.4-10.7
			c1.3-11.4,6.4-22,14.4-29.8c8.1-8,19.2-12.8,30.3-13.3c0.6,0,1.2,0,1.9,0c17.4,0,34.8,10.5,44.4,26.7c8.8,14.9,11.3,34.6,7,54
			c-2.5,10.9-8.1,26.1-20.9,36.5c-0.2,0.2-0.5,0.3-0.8,0.3c-0.2,0-0.4,0-0.6-0.1c-0.4-0.2-0.7-0.6-0.7-1.1l-0.1-2.3l-1.1,2
			c-4.9,9-11.8,17.7-20.5,25.9c-0.2,0.2-0.5,0.3-0.9,0.3c-0.3,0-0.5-0.1-0.7-0.2c-0.5-0.3-0.7-1-0.4-1.6c5.1-11.6,7.3-20.9,7.1-30.2
			L285,202c-1.7,4.8-3.7,9.4-6.1,13.6l0,0.1l0,0.1c-2.7,11.7-9.6,22.5-18.9,29.5c-0.2,0.2-0.5,0.3-0.8,0.3c-0.1,0-0.3,0-0.4-0.1
			c-0.4-0.1-0.7-0.4-0.8-0.8c-0.8-2.6-1.3-5.3-1.4-8.1l-0.1-1.9l-1.1,1.5c-0.4,0.6-0.8,1.2-1.3,1.8c-1.3,1.7-2.8,2.6-4.2,2.6
			c-0.4,0-0.9-0.1-1.3-0.3c-1.4-0.6-2-2-2.4-2.9c-0.5-1.1-1.2-2.5-2.1-4.2l-1.2,0.3c0,0.3,0,0.6,0,1l0,0.2l0.1,0.2
			c0.9,1.4,1.6,2.7,2.2,4c3.3,7.5,4.5,18.3,3,27.5l0,0.2l0.1,0.2c0.6,1.1,1.2,2.1,1.6,3.2c2.1,4.9,1.1,7.8-0.1,9.3
			c-1.6,2-4.1,2.5-6.6,2.7c-2.9,0.3-5.9,0.5-8.8,0.5c-9.4,0-18.9-1.7-27.4-4.9l-0.4-0.2l-0.3,0.4c-6.2,8-15,14.1-24.7,17
			c-0.9,0.3-1.5,0.5-1.8,0.8c-0.4,0.4-0.4,1.1-0.4,2.1c0,3.3,0.3,6.6,0.9,10l0.1,0.4l0.4,0.1c3.2,1.1,6.8,2.6,9.8,5.1
			c4.2,3.5,6.1,8.6,5,13c-0.3,1.1-0.9,2.3-1.8,3.3c-0.1,0.2-0.2,0.3-0.3,0.4l0.3,0.3l-0.4-0.2l-0.1,0.2c-0.1,0.4-0.2,0.8-0.4,1.1
			c-0.3,0.5-0.8,1-1.3,1.5c-0.1,0.1-0.2,0.1-0.3,0.1c-0.1,0-0.2,0-0.2-0.1c0-0.1-0.1-0.2-0.1-0.2l-0.1-0.1l-0.3-0.5l-0.5,0.2l-0.1,0
			c-1,0.4-2,0.6-3,0.6c-1.3,0-2.6-0.4-3.7-1.1c-1.4-0.9-2.4-2.3-3.2-3.6l-1.2,0.4c0.4,3-0.2,5.9-1.5,8.3c-1.5,2.6-3.9,4.7-6.9,5.7
			l-0.3,0.1l-0.1,0.3c-0.3,0.9-0.6,1.5-1.2,1.9C168.6,345,168.4,345.1,168.2,345.1z"/>
		<path class="st2" d="M206.8,145.1c0.8-2.1,1.7-4.2,2.5-6.3c1.7-4.1,3.5-8.4,4.7-12.9c5.1-18.2,0.8-38.7-11.3-53.5l-0.3-0.4
			l0.2-0.4c0.2-0.4,0.4-0.7,0.5-1c0.5-1.6,0.1-3.6-0.9-5.2c-9.2-5.4-20.1-8.4-30.6-10.5c-19.6-3.8-40-5.5-59.7-2.1
			c0.2,1.8,0.2,3.7,0.2,5.9l0,0.5l-0.5,0.1c-6,1-12.3,2.1-18.2,5c-7.4,3.6-12.6,9.3-14.2,15.9c-0.5,2-0.7,4.2-0.7,7.1l0,0.2
			l-0.1,0.2c-0.3,0.4-0.5,0.8-0.8,1.2c-1.1,2-1.6,4.1-1.9,5.9c-0.3,1.7-0.3,3.5-0.2,5.6c0.1,1.6,0.4,3.3,0.8,4.9l0.2,0.6l-0.1,0.2
			c-3.6,6.4-10.7,11.2-17.2,15.2c-0.4,0.3-0.7,0.8-0.6,1.3c0.1,0.5,0.5,0.9,1,1l4.3,0.9l-0.5,0.8c-1.2,1.9-1.7,4.1-1.5,6.2
			c0.1,0.7,0.6,1.1,1.3,1.1l3,0l0.2,0.4c3.9,7.9-0.2,17.3-4.8,23c-1.2,1.4-2.4,2.8-3.7,4c4.1,3.9,8.7,7.3,13.7,10.2
			c8.3,4.7,17.4,8,26.7,9.8c20.3,4,41.3,1.8,61.7-1.5c15.2-2.5,31.2-6.1,43-15.6C202.3,156.8,204.8,150.3,206.8,145.1z"/>
		<g>
			<path class="st0" d="M236.5,243.4c-1.1-7.2-3.9-14.1-8.2-20c2,0.7,4.3-1,4.8-3c0.6-2-0.1-4.3-1-6.2c-2.6-5.4-7.5-9.6-13.1-11.4
				c2.3,2.5,4.5,5.3,4.8,8.6c0.2,3.3-2.6,7-5.9,6.3c4,2.6,5.9,8.1,4.3,12.6c-1.6,4.5-6.4,7.7-11.2,7.2c5.5,2.8,7.8,10.2,5.7,16.1
				c-4.8,13.3-20.7,10.7-31.7,8.6c2.2,0.4,6.6,6,8.7,7.4c3.5,2.4,7.4,4.3,11.4,5.8c6.7,2.5,16.9,5.5,22.8-0.2
				c2.6-2.5,3.8-6.3,3.8-10c0-3.7-0.9-7.2-1.8-10.8c2.5,0.6,5.1-1.2,6.2-3.6C237.1,248.7,236.9,245.9,236.5,243.4z"/>
			<path class="st0" d="M46.8,235.4c-1,3.7-4.6,6.4-8.4,7c-3.8,0.6-7.7-0.6-11-2.6c-2.4-1.5-4.6-4-6.9-5.2c-2.1,7,13,15.7,18.1,17.4
				c2.6,0.9,5.6,1.3,8,0c2.7-1.5,3.8-4.9,3.5-8C49.7,240.9,48.3,238.1,46.8,235.4z"/>
			<path class="st0" d="M206,173.4c-1.1-2.1-2.2-5-3-9.2c-0.8-4.4,0.2-9,1.6-13.3c-0.4-0.3-0.8-0.6-1.2-0.9
				c-0.1,5.3-4.1,10.4-9.3,11.6c-5.2,1.2-11.1-1.4-13.6-6.1c0.6,2.3,1.1,4.7,0.9,7.1c-0.3,2.4-1.5,4.8-3.7,5.8c-2.2,1-5.2,0-5.9-2.3
				c0.8,3.1-3.4,5.5-6.4,4.4c-3-1.1-4.7-4.2-6.1-7c1.2,3.5-1.7,7.5-5.3,8.3c-3.6,0.8-7.4-0.9-10.1-3.5c-2.6-2.6-4.3-6-6-9.3
				c-0.4,3.6-1.1,7.5-3.6,10.1c-2.5,2.6-7.6,3.1-9.5-0.1c-0.8,3-4.7,4.4-7.6,3.4c-2.9-1-4.9-3.8-6-6.8c0.7,4.6-3.6,9.3-8.3,9
				c-4.7-0.3-8.4-5.5-7.2-10c-2.4,1.7-5,3.5-7.8,4.3c-2.9,0.8-6.3,0.5-8.5-1.6c-1.9-1.8-2.3-4.9-1-7c-3.7,3.7-10.2,4.3-14.4,1
				c-1.6-1.3-2.7-2.9-3.3-4.7c-2.3,2.6-4.8,5-7.5,7.2c-0.2,3.6,0.5,6.6,5.1,6.7c2.2,0.1,4.3-0.8,6.3-1.6c-2.3,2.5-4.7,5.1-5.3,8.4
				c-0.7,3.3,1.1,7.3,4.4,7.9c3.1,0.5,5.8-2.2,7.9-4.6c-0.7,3.2-1.1,7.3,1.5,9.2c2.2,1.6,5.3,0.8,7.5-0.8c2.2-1.6,3.8-3.9,5.9-5.5
				c5.3-4.2,13.8-3.7,18.6,1.1c1.9,1.9,3.3,4.4,5.7,5.5c2.4,1.1,6.2-0.6,5.5-3.2c0.3,2.7,2.5,5.1,5.2,5.7c2.7,0.6,5.7-0.8,7-3.2
				c-0.9,4.4,2.9,9,7.4,9.1c4.4,0,8.3-4.6,7.5-8.9c1.6,1.5,3.3,3.1,5.4,3.9c2.1,0.8,4.6,0.9,6.3-0.5c1.7-1.4,2.1-4.4,0.3-5.8
				c2.5,1.9,5.4,3.9,8.5,3.6c2.7-0.2,5.1-2.9,4.8-5.3c1.1,2,3.5,3.2,5.7,2.6c2.7-0.7,4.4-3.9,3.4-6.5c1.6,2.4,4.9,3.4,7.5,2.2
				c2.6-1.1,4.2-4.3,3.5-7C194.8,179.4,201.7,177.7,206,173.4z"/>
		</g>
		<path class="st3" d="M318.9,118.7c-9.6-16.2-27-26.7-44.4-26.7c-0.6,0-1.3,0-1.9,0c-11.1,0.5-22.2,5.4-30.3,13.3
			c-8,7.9-13.1,18.5-14.4,29.8c-0.4,3.6-0.4,7.2-0.4,10.7c0,2.7,0,5.4-0.2,8.1c-0.5,7.4-2.3,12.8-5.6,16.8c-2.7,3.3-7.1,5.4-11,5.4
			c-1,0-2-0.1-2.9-0.4c0.1,0.3,0.1,0.5,0.2,0.8c2.1,8.5,7.8,15.9,13.5,22.3c7.4,8.3,15.8,16,20.4,26.2c1.5,3.3,2.5,6.9,3.5,10.5
			c0.3,0.7,0.6,1.3,0.9,1.9c0.4,0.8,1,2.3,2.4,2.9c0.4,0.2,0.9,0.3,1.3,0.3c1.4,0,2.9-0.9,4.2-2.6c0.5-0.6,0.9-1.2,1.3-1.8l1.1-1.5
			l0.1,1.9c0.1,2.8,0.6,5.6,1.4,8.1c0.1,0.4,0.4,0.7,0.8,0.8c0.1,0,0.3,0.1,0.4,0.1c0.3,0,0.5-0.1,0.8-0.3
			c9.3-7,16.2-17.8,18.9-29.5l0-0.1l0-0.1c2.4-4.2,4.4-8.7,6.1-13.6l1.2,0.2c0.2,9.3-1.9,18.7-7.1,30.2c-0.2,0.6-0.1,1.2,0.4,1.6
			c0.2,0.2,0.5,0.2,0.7,0.2c0.3,0,0.6-0.1,0.9-0.3c8.7-8.2,15.6-16.9,20.5-25.9l1.1-2l0.1,2.3c0,0.5,0.3,0.9,0.7,1.1
			c0.2,0.1,0.4,0.1,0.6,0.1c0.3,0,0.6-0.1,0.8-0.3c12.8-10.4,18.5-25.6,20.9-36.5C330.3,153.3,327.7,133.6,318.9,118.7z"/>
		<path class="st4" d="M249.2,139.7c-7.3,5-11.4,14.2-10.4,23c14-2,28,7.2,34.7,19.8c5.3,9.9,6.5,21.4,5.6,32.8
			c2.3-4.1,4.3-8.5,5.9-13.2l1.2,0.2c0,0.2,0,0.3,0,0.5c2.5-7.7,4.3-15.5,4.6-23.6C291.7,158.4,274.7,122.2,249.2,139.7z"/>
		<path class="st2" d="M279.8,129c-12.8-2.9-26.8,3.1-34.9,13.5c4.9-5.6,13.2-7.5,20.4-5.6s13.1,7.3,16.8,13.8
			c3.7,6.5,5.2,13.9,5.6,21.4c0.6,10.8-1,21.5-3.5,32c0.3-0.7,0.5-1.4,0.8-2.2l1.2,0.2c0.2,9.3-1.9,18.7-7.1,30.2
			c-0.2,0.6-0.1,1.2,0.4,1.6c0.2,0.2,0.5,0.2,0.7,0.2c0.3,0,0.6-0.1,0.9-0.3c8.7-8.2,15.6-16.9,20.5-25.9l1.1-2l0.1,2.1
			c0.6-1.5,1.1-3.1,1.5-4.8c1.9-7,3.4-14.2,4.2-21.4c1.1-10.9,0.1-22.3-4.6-32.2C299.3,139.8,290.5,131.5,279.8,129z"/>
		<g>
			<path class="st5" d="M116.8,114.3c-0.4-3.8-0.2-7.7-1.2-11.3s-3.5-7.3-7.3-8c-4.4-0.9-8.6,2.5-11.2,6.2c-3,4.1-5,8.9-6.1,13.8
				c-0.5,2.4-0.8,5.1-2.6,6.9c-1.5,1.5-3.6,2-5.6,2.7c-2.3,0.9-4.4,2.3-5.7,4.4c-1.2,2.1-1.2,5,0.6,6.7c2,2,5.4,1.7,8.2,2.3
				c4,1,7.2,4.5,7.8,8.6c5.6-4.8,12.5-9.9,19.6-8.1c2.3,0.6,4.4,1.9,6.6,2.7c2.2,0.9,4.8,1.2,6.9,0.1c3.2-1.8,3.5-6.4,1.8-9.6
				c-1.8-3.2-5.1-4.5-7.5-7.1C118.6,121.9,117.2,117.9,116.8,114.3z"/>
			<path class="st6" d="M193.1,330.2l0.1-0.2l0.4,0.2l-0.3-0.3c0.1-0.1,0.2-0.2,0.3-0.4c0.8-1,1.5-2.1,1.8-3.3c1.2-4.4-0.8-9.5-5-13
				c-3-2.5-6.6-3.9-9.8-5.1l-0.4-0.1l-0.1-0.4c-0.6-3.4-0.9-6.7-0.9-10c0-1,0.1-1.7,0.4-2.1c0.2-0.2,0.5-0.4,0.8-0.5
				c-3.3-1.2-6.8-2.1-10.2-2.9c-3.6,3-9.9,1.2-11.5-3.2c-4.3,2.7-9.8,1.7-14.8,0.6c-17.5-3.8-35-7.7-52.5-11.5
				c-4.6,3.1-8.8,1.6-12.9-0.5c1.1,2.8,1.4,5.7,0.5,8.2c-1.1,3.4-3.9,5.6-8.2,6.4c-1.1,0.2-2.2,0.3-3.3,0.3c-4.1,0-8.1-1.2-11.6-2.4
				c-2-0.7-5.3-1.8-8.5-1.8c-2.8,0-5,0.8-6.7,2.5c-0.4,0.4-0.7,0.8-1.1,1.4l-0.2,0.3l-0.3,0c-4.5,0.2-8.6,3.5-9.9,7.7
				c-0.5,1.6-0.5,3.4-0.2,5.2l0.1,0.3L29,306c-0.2,0.2-0.4,0.6-0.5,0.9c-0.7,2.6-0.3,5.8,1.1,7.7c0.1,0.2,0.4,0.3,0.7,0.3
				c0.2,0,0.3-0.1,0.3-0.2c0-0.1,0.7-1.9,0.7-1.9l0.7,1.2c0.5,1,1.2,1.9,2,2.6l0.2,0.2l0,0.2c0,0.4,0.1,0.7,0.4,1c0.7,1,1.4,2,2.1,3
				l0.4,0.5c0.6,0.9,1.1,1.6,1.9,1.9c0.5-0.7,0.5-1.5,0.5-2.6l0-1.3l0.8,0.1c0.6,0.1,1.1,0.1,1.7,0.1c0.8,0,1.6-0.1,2.3-0.2
				c3.7-0.8,6.5-3.3,9.2-5.8l1.1-0.9c2.4-2.1,7.4-5.2,10.8-5.4c3,0.1,5.9,0.8,8.4,2.2c2.7,1.4,4.9,3.4,7.4,5.5
				c0.7,0.6,1.4,1.2,2.1,1.8c2.9,2.4,6.8,5.2,11.4,5.8c0.5,0.1,1,0.1,1.6,0.1c2.7,0,5.4-0.9,7.4-2.5l0.8-0.6l0.2,1
				c0.2,0.7,0.4,1.2,0.7,1.4c0.1,0.1,0.2,0.1,0.2,0.1c0,0,0.1,0,0.2,0c0.5-0.2,1.3-1.1,1.1-4.4c0-0.6-0.1-1.2-0.2-1.7l0-0.1l0-0.1
				c1.1-4.5-1.7-8.9-4.8-11.2c-2-1.5-4.5-2.5-7.6-3.2l-1-0.2l0.6-0.8c4-5.4,10.7-9.2,18.8-10.6c3.3-0.6,7.4-0.9,12.2-0.9
				c6.4,0,12.4,0.5,15.5,0.9l0.1,0l0.1,0c5.8,2.4,10.8,5.3,15.1,8.7c2.6,2.1,4.1,4.9,3.9,7.2c-0.2,1.6-1.2,2.8-3.1,3.8
				c-1.5,0.7-3.2,1-5.8,1c-0.7,0-1.5,0-2.3-0.1c-0.9,0-1.8-0.1-2.7-0.1c-1.8,0-4.2,0.1-6.5,1.1c-4.8,2.1-7.5,8-6.1,13.1
				c0.7,2.4,2.2,4.7,4.4,6.3l0.2,0.1l0.1,0.2c0.3,1.1,0.6,1.8,1.5,2.6c0.1,0.1,0.2,0.1,0.2,0.1c0,0,0,0,0,0c0.2-0.1,0.3-0.2,0.5-0.3
				c0.3-0.2,0.5-0.3,0.8-0.6l0.3-0.3l0.4,0.1c1.1,0.3,2.2,0.5,3.3,0.5c5,0,10-3.3,12-8.1c1.2-2.7,1.8-3.4,2.3-3.5l0.3-0.1l0.2,0.2
				c0.4,0.3,0.6,1.3,0.3,2.1c-0.3,0.7-0.8,1.4-1.4,2.1c-0.4,0.5-0.8,1-1.1,1.5c-1.5,2.3-1.8,5.3-0.9,8.2c1,3.1,3.2,5.6,5.9,6.7
				c1.3,0.6,2.7,0.8,4.2,0.8l0.4,0l0.2,0.4c0.2,0.6,0.5,0.9,1,1.3c0.1,0,0.2,0.1,0.4,0.1c0.2,0,0.3,0,0.4-0.1c0.6-0.5,0.9-1,1.2-1.9
				l0.1-0.3l0.3-0.1c3-1,5.4-3.1,6.9-5.7c1.3-2.4,1.9-5.4,1.5-8.3l1.2-0.4c0.8,1.2,1.7,2.6,3.2,3.6c1.1,0.7,2.4,1.1,3.7,1.1
				c1,0,2-0.2,3-0.6l0.1,0l0.5-0.2l0.3,0.5l0.1,0.1c0,0.1,0.1,0.1,0.1,0.2c0,0.1,0.1,0.1,0.2,0.1c0.1,0,0.2,0,0.3-0.1
				c0.5-0.5,1-1,1.3-1.5C192.8,331,193,330.6,193.1,330.2z"/>
		</g>
		<g>
			<path class="st7" d="M199.8,272c-12.8-7-24-17.9-29.2-31.6c-5.2-13.7-3.7-30.3,5.8-41.4c-3.4,1.8-5.1,5.6-6.6,9.1
				c-1.6,3.5-3.5,7.2-7.1,8.7c-3.1,1.2-7.3-0.7-7.8-3.7c-0.3,6.6-0.9,13.4-4.9,18.6c-4.3,5.5-13.9,7.4-18,1.7
				c0.6,6.6-4.9,13.1-11.5,13.5c-6.6,0.5-13-5.2-13.3-11.8c-2,4.1-7.2,6.3-11.6,4.9c-4.3-1.4-7.2-6.3-6.4-10.8
				c-0.3,2.7-2.1,5.2-4.5,6.5c-2.4-3.5-2.9-8.2-1.6-12.3c-1.5,2.6-4.4,4.4-7.4,4.4c1.5-6.7,3-13.4,4.5-20.1
				c-2.4,4.2-4.9,8.5-8.4,11.8c-3.5,3.3-8.3,5.7-13.1,5.2c-4.5-0.5-8.7-4-9.3-8.4c-0.2,2.8-3.7,5-6.6,4.1c-3.2-1.1-4.9-4.8-4.7-8.1
				c0.2-3.3,1.8-6.4,3.6-9.3c-2.1,1.8-4.3,3.5-6.4,5.3c-1-3.9-0.8-8.1,0.7-11.8c-0.9,1.1-2.7,1.3-3.8,0.3
				c-0.2-6.4,1.4-11.8,3.9-17.2c-0.9,1.1-1.7,2.4-2.5,3.7l-0.1,0.2l-0.2,0.1c-11.6,3.5-20.5,14.8-21.7,27.6
				c-1.1,11.9,4.3,24.9,14.1,33.7c10.7,9.7,23.8,13,33,14.1l0.2,0l0.2,0.2c1.8,1.8,3.7,3.5,5.6,4.9c1,0.8,2,1.5,3.1,2.3
				c2.8,2,5.4,4,7.6,6.4c3.5,3.9,4.9,9,3.6,13c-0.3,0.9-0.8,1.8-1.3,2.5c4.4,3.7,8.3,7.9,11.3,12.9c2.2,0.2,4.4,0.4,6.6,0.6
				c-0.6-0.2-1.2-0.3-1.8-0.5l-1-0.2l0.6-0.8c4-5.4,10.7-9.2,18.8-10.6c3.3-0.6,7.4-0.9,12.2-0.9c6.4,0,12.4,0.5,15.5,0.9l0.1,0
				l0.1,0c5.8,2.4,10.8,5.3,15.1,8.7c2.6,2.1,4.1,4.9,3.9,7.2c-0.2,1.6-1.2,2.8-3.1,3.8c-1.5,0.7-3.2,1-5.8,1c-0.3,0-0.7,0-1,0
				c4.2,2.8,7.7,7,8.8,11.7c0.2-0.3,0.5-0.4,0.7-0.4l0.3-0.1l0.2,0.2c0.4,0.3,0.6,1.3,0.3,2.1c-0.2,0.6-0.7,1.2-1.1,1.8
				c0,0.2,0,0.4,0,0.6c1.9-4.1,6.4-6.8,10.9-6.6c4.5,0.2,8.7,3.4,10.3,7.6c-1.2-3.6-2.5-7.4-2-11.2c0.4-3,2.2-5.9,4.8-7.2
				c-0.6-0.2-1.2-0.5-1.8-0.7l-0.4-0.1l-0.1-0.4c-0.6-3.4-0.9-6.7-0.9-10c0-1,0.1-1.7,0.4-2.1c0.3-0.4,0.9-0.6,1.8-0.8
				c9.7-2.9,18.5-9,24.7-17l0.3-0.4l0.4,0.2c0.8,0.3,1.7,0.6,2.5,0.9C206.8,275.8,203.1,273.8,199.8,272z"/>
			<path class="st7" d="M260.4,195.2c-0.5-6.7-4.1-12.8-8.8-17.5c-4.7-4.8-10.4-8.4-16.1-11.9c-3-1.9-6-3.8-9.1-5.7
				c-0.9,4.4-2.5,7.9-4.8,10.7c-2.7,3.3-7.1,5.4-11,5.4c-1.1,0-2.1-0.2-3.1-0.5l-0.2-0.1l-0.1-0.2c-1.5-2.4-3.2-5.5-4.1-11.2
				c-1-5.7,0.9-11.8,2.9-17c-0.5-0.3-1.1-0.7-1.6-1c-0.7,5.2-5.4,9.6-10.6,10c-5.2,0.4-10.5-3.2-12-8.3c-1.5,4.7-3.2,9.8-7.2,12.7
				c-4,2.9-11,1.9-12.3-2.9c-0.6,3.7-1.4,7.7-4.1,10.3c-2.7,2.6-8.1,2.7-9.6-0.8c0.4,3-2.9,5.7-5.9,5.3c-3-0.3-5.5-2.8-6.9-5.5
				c-0.8,3.9-4,7.1-7.8,7.9c-3.9,0.8-8.1-1-10.3-4.2c-0.1,2-1.6,3.8-3.5,4.2c-1.9,0.5-4.1-0.5-5-2.2c2.7,4.7,4.9,8.6,5.8,14
				c0.7,4.5,0.4,10.1,3.8,13.6c2.5,2.5,7.7,2.3,8.7-1.1c1.1,3.6,4.6,6.4,8.3,6.7c3.8,0.3,7.6-1.8,9.3-5.2c2.1,2.4,5.8,3.4,8.9,2.3
				c3.1-1.1,5.3-4.1,5.5-7.4c3.2,3.9,10.3,3.1,12.7-1.3c1,1.5,2,3.1,2.9,4.6c5.1-5.6,13.4-7.3,20.9-6.2c7.5,1,14.4,4.5,21.2,7.8
				c7.3,3.6,14.9,7.6,19.5,14.2c-3.4-5.6-6.4-11.4-8.9-17.4c-1.1-2.6-2.1-5.6-1.1-8.3c1.3-3.5,5.5-4.8,9.2-5.1
				C245.3,183.5,254.7,187.8,260.4,195.2z"/>
		</g>
		<g>
			<path class="st3" d="M113.1,182.3c-1.4-4.5-3.9-8.2-5.6-12.5c-1.9-4.5-4.1-8.9-6.7-13.1c-0.6-0.9-1.4-1.9-2.4-1.6
				c-0.5,0.1-0.9,0.6-1.2,1c-2.4,3.2-4.5,5.7-8,7.6c-3.4,1.8-7.5,2.9-9.2,6.3c-1.5,3-0.4,6.8,1.7,9.3c1.7,2,4.1,3.5,6.7,3.7
				c2.6,0.2,5.4-1,6.6-3.2c0.8,2.5,0.5,5.3,0.8,7.9c0.2,2.7,1.1,5.5,3.3,7c2.3,1.5,5.3,1.1,7.9,0.3c2.5-0.7,5.1-1.9,6.4-4.1
				C114.7,188.4,114.1,185.2,113.1,182.3z"/>
			<path class="st3" d="M203.2,70.6c0.5-1.6,0.1-3.8-1-5.4c-0.4-0.6-0.9-1.2-1.4-1.8c-1-1.2-1.8-2.2-2.1-3.4c-0.3-1.4,0.3-2.8,1-4.5
				c0.6-1.5,1.3-3.3,1.3-5.1c-0.1-2.9-2.3-5.7-5.4-6.8c-1.2-0.4-2.5-0.7-4-0.7c-1.4,0-2.8,0.2-4.4,0.6c-0.8,0.2-2,0.5-3,0.5
				c-0.8,0-1.3-0.2-1.6-0.6c-0.7-0.9,0-2.2,1.1-4.1c0.3-0.5,0.6-1,0.8-1.5c1.8-3.7,0.8-8.5-2.3-11.1c-1.7-1.4-3.8-2.2-6.2-2.2
				c-1.9,0-3.7,0.5-5.2,1.5c-1.5,1-2.7,2.4-3.7,3.8c-0.6,0.8-1.2,1.6-1.9,2.2c-1.2,1.2-2.7,1.9-4,1.9c-0.6,0-1.1-0.2-1.6-0.5
				c-1.1-0.9-1.4-2.6-1.7-4.4l-0.1-0.8c-1.2-7.3-6.3-13.7-12.8-15.8c-1.6-0.5-3.3-0.8-5-0.8c-5.9,0-11.3,3.1-13.8,7.9
				c-0.2,0.4-0.5,0.9-0.7,1.4c-1,2.2-1.8,3.6-3.2,3.9c-0.1,0-0.3,0-0.4,0c-1.4,0-2.8-1.2-4.1-2.3l-0.2-0.1c-4.8-4.1-11-6.5-16.7-6.5
				c-2.8,0-5.5,0.6-7.9,1.8C84.5,21.8,81.1,32,78.7,41.1c-0.6,2.1-1.2,4.5-1,7c0.2,2.9,1.7,5.4,3.9,6.5c0.9,0.5,1.9,0.7,2.9,0.7
				c2.8,0,5.8-1.7,9-4.8l0.6-0.6c2.8-2.8,5.7-5.8,9.3-6.6c0.4-0.1,0.8-0.1,1.3-0.1c13.1,0,4.7,20.7,11.1,25
				c3.1,2.1,7.3,0.6,10.8-0.8c21.1-8.3,45.3-8.1,66.2,0.4C196.2,69.1,199.7,70.6,203.2,70.6z"/>
		</g>
		<g>
			<path class="st0" d="M86,35.6c2.6-3.4,5.9-6.6,9.7-8.6c3.2-1.7,6.6-0.8,9.8-1.9c0.1,0,0.2-0.2,0.2-0.3c-0.8-4.6-7.9-3.8-11-2.4
				c-5.4,2.5-7.3,7.7-9.3,12.9C85.1,35.8,85.7,35.9,86,35.6z"/>
			<path class="st0" d="M104.9,99.9c-11.2,4.7-12.9,21-11.5,31.3c0,0.3,0.5,0.3,0.6,0c1.7-5.3,2.7-10.8,4.4-16.1
				c1.7-5.4,4.7-9.3,7.7-14.1C106.5,100.2,105.6,99.6,104.9,99.9z"/>
			<path class="st0" d="M89.4,167.9c-0.7-0.2-1.1-0.3-1.8-0.1c-0.7,0.2-1.3,0.5-1.9,0.9c-1.2,0.7-2.7,1.8-2.9,3.2
				c-0.2,1.3,1,2.4,2.3,1.7c1-0.6,1.7-1.7,2.5-2.6c0.4-0.4,0.8-0.7,1.2-1.1c0.5-0.4,0.7-0.8,1-1.3C89.9,168.4,89.7,168,89.4,167.9z"
				/>
			<path class="st0" d="M101,184.8c-0.1-0.8-1.1-0.6-1.4,0c-0.8,1.9-1.6,4.2-0.5,6.2c0.8,1.6,3,0.7,3.1-0.8c0.1-0.9-0.3-1.9-0.6-2.8
				C101.4,186.5,101.2,185.6,101,184.8z"/>
		</g>
		<g>
			<ellipse class="st0" cx="83.3" cy="100.2" rx="6.4" ry="14.6"/>
			<path class="st0" d="M160.8,109.7c-1.8,9.9-9.9,16.8-18.2,15.3c-8.3-1.5-13.5-10.7-11.7-20.6c1.8-9.9,9.9-16.8,18.2-15.3
				C157.3,90.5,162.6,99.8,160.8,109.7z"/>
		</g>
	</g>
	<g>
		<g>
			<path class="st8" d="M319.5,118.4c-10-17-28.8-27.8-46.9-27c-11.3,0.5-22.5,5.4-30.7,13.5c-8.1,8-13.3,18.7-14.6,30.2
				c-0.4,3.6-0.4,7.2-0.4,10.8c0,2.7,0,5.4-0.2,8.1c-0.5,7.2-2.3,12.6-5.5,16.4c-3,3.6-8.6,6.3-13.4,4.7c-1.8-2.8-3.2-5.9-4-11
				c-1.1-6.4,1.5-13.3,3.7-18.8c0.8-2.1,1.7-4.2,2.5-6.3c1.7-4.2,3.5-8.5,4.8-12.9c5.2-18.5,0.7-39.2-11.4-54.1
				c0.2-0.4,0.4-0.8,0.6-1.2c0.5-1.8,0.1-4.1-1.1-5.9c-0.5-0.7-1-1.3-1.4-1.9c-0.9-1.1-1.7-2.1-1.9-3.2c-0.2-1.2,0.3-2.5,1-4.1
				c0.7-1.6,1.4-3.4,1.3-5.4c-0.2-3.2-2.5-6.1-5.8-7.4c-2.5-0.9-5.4-0.9-8.7-0.1c-1.2,0.3-3.4,0.9-3.9,0.2c-0.4-0.6,0.2-1.8,1.1-3.4
				c0.3-0.5,0.6-1.1,0.8-1.6c1.9-3.9,0.9-9-2.4-11.9c-3.3-2.9-8.5-3.2-12.1-0.7c-1.6,1.1-2.8,2.5-3.9,3.9c-0.6,0.8-1.2,1.5-1.9,2.2
				c-1.4,1.3-3.5,2.2-4.7,1.4c-0.9-0.7-1.2-2.3-1.4-4l-0.1-0.8c-1.2-7.6-6.5-14.1-13.3-16.3c-7.5-2.4-16.1,0.8-19.5,7.4
				c-0.2,0.5-0.5,0.9-0.7,1.4c-0.9,2-1.6,3.3-2.7,3.5c-1.2,0.2-2.7-1-4-2.2l-0.2-0.1c-6.4-5.4-16.7-9-25.3-4.8
				c-8.8,4.3-12.2,14.6-14.7,23.9c-0.6,2.2-1.2,4.6-1,7.2c0.3,3.1,1.9,5.8,4.3,7C85,57,89.4,55.5,94,50.9l0.6-0.6
				c2.7-2.8,5.5-5.7,9-6.4c1.8-0.4,4.1,0.2,5.5,1.6c0.2,0.2,0.6,0.6,1,1.1c1.3,3.9,1.6,8.1,1.5,12.2c-6.2,1-12.5,2.2-18.4,5
				c-7.6,3.6-12.9,9.6-14.6,16.3c-0.7,2.9-0.8,5.8-0.7,8.6c0.1-0.2,0.1-0.4,0.2-0.6c0.5-1.8,2.2-2.3,3.6-1.9c0-1.8,0.2-3.5,0.6-5.1
				c1.4-5.6,6-10.6,12.5-13.8c5.2-2.5,10.9-3.6,16.6-4.6c0,7.1,3.2,8.8,5.2,9.2c2.2,0.5,4.2-0.5,5.8-1.3c23.8-11.7,52.7-11,76,1.7
				c12.8,14,17.8,34.5,12.6,52.8c-1.2,4.2-2.9,8.4-4.6,12.5c-0.9,2.1-1.7,4.2-2.6,6.4c-2.3,6-5.1,13.5-3.8,20.8
				c0.5,2.7,1.1,4.9,1.8,6.8c-0.5,2-1.6,3.8-2.9,4.8c-1.4,1-3.3,1.4-5.2,1c-1.3-0.3-2.4-0.8-3.3-1.6c-0.3-0.6-0.8-1.2-1.4-1.7
				c-0.5-0.4-1.2-0.4-1.6,0c-0.5,0.4-0.6,1.1-0.3,1.6c0.3,0.6,0.7,1.1,1.2,1.6c0.3,0.6,0.4,1.4,0.3,2.2c-0.2,1.7-1.3,3.3-2.6,3.9
				c-2.3,1-4.9,0.3-6.8-1.2c-0.5-0.9-1.2-1.7-2.1-2.1c-0.5-0.3-1.1-0.1-1.5,0.3c-0.4,0.4-0.4,1.1-0.1,1.6c0.4,0.7,1,1.3,1.6,1.8
				c0,0.1,0,0.1,0.1,0.2c0.2,0.8,0.1,1.7-0.4,2.3c-0.9,1.3-2.9,1.7-4.5,1c-0.5-0.2-0.9-0.6-1.3-1c0-1.7-0.7-3.2-1.8-4.3
				c-0.4-0.3-0.9-0.4-1.4-0.2c-0.5,0.2-0.8,0.7-0.7,1.2c0.1,1.5,0.6,2.9,1.4,4.1c-0.1,0.9-0.6,1.8-1.2,2.4c-1.5,1.5-4.2,1.8-6.4,0.9
				c-1.4-0.6-2.6-1.6-3.5-2.6c-0.4-1.3-1.2-2.3-2.2-3c-0.5-0.3-1.1-0.2-1.5,0.2c-0.4,0.4-0.5,1-0.2,1.5c0.4,0.8,1,1.6,1.6,2.4l0,0.1
				c0.1,1.1-0.2,2.2-0.9,2.9c-1.3,1.4-3.8,1.7-5.9,0.7c-2.4-1.1-3.8-3.4-4.5-5.2c-0.3-0.6-1-0.9-1.6-0.7c-0.6,0.2-1,0.9-0.8,1.6
				c1.4,4.7,1.2,7.6-0.7,9.1c-2,1.6-5.3,0.6-7-1.3c-2-2.3-2.8-5.5-3.4-8.4c-0.1-0.7-0.8-1.1-1.5-1c-0.7,0.1-1.1,0.7-1.1,1.4
				c0.1,1.1-0.4,2.3-1.4,3.2c-1,0.9-2.2,1.3-3.4,1.1c-1.1-0.2-2.1-1.1-2.7-2.3c-0.6-1.2-0.6-2.5,0-3.5c0.3-0.5,0.2-1.1-0.2-1.5
				c-0.4-0.4-0.9-0.5-1.4-0.3l-2.2,0.9c-0.1-0.4-0.3-0.8-0.4-1.3c-2.4-6.6-5.5-13.4-10.2-18.4c3.3,6,4.5,9.6,6.7,17.8
				c0.5,1.7,1,5.4,0.6,6.9c-0.7,2.1-3.5,3.3-8.5,3.4c-2.8,0.1-5.6,0-6.8-1.6c-1.1-1.4-0.9-3.5-0.7-6c0.2-2.4,0.5-5.1-0.6-7.5
				c-0.3-0.8-1.2-1.2-2-1.1c-0.8,0.1-1.5,0.8-1.6,1.6c-0.2,1.1-1,1.8-1.5,2.2c-1.2,0.7-2.7,1-4,0.6c-3.3-1-4.9-4.7-5.5-6.2
				c-0.4-1-1.4-4.5,0.4-6.4c0.8-0.9,2.3-1.4,3.8-1.9c0.5-0.2,0.9-0.3,1.4-0.5c3.5-1.3,6.8-3.7,9.1-6.7c1-1.3,1.6-2.9,2.4-4.4
				c0.4-0.9,0.8-1.8,1-2.8c0.1-0.5-0.1-1.9,0.2-2.3c-3.2,5-8.2,10.6-13.9,12.7c-0.4,0.2-0.8,0.3-1.3,0.4c-1.8,0.6-3.9,1.3-5.4,2.9
				c-2.2,2.4-2.6,6.2-1.1,10.3c1.2,3.5,3.4,6.1,5.9,7.6c-1.6,1.6-3.3,3.1-5.3,3.9c-2.1,0.8-5,0.6-6.4-1.3c-1.4-1.9-0.7-4.8,0-7.4
				c0.2-0.6-0.1-1.2-0.7-1.5c-0.5-0.3-1.2-0.1-1.6,0.4c-1.3,1.7-2.8,3.6-4.8,4.4c-1,0.4-2.2,0.4-3.2,0c-0.5-0.2-1.1-0.6-1.3-1.3
				c-0.3-0.8-0.2-1.9,0.1-2.9c0.8-3.5,2.3-7,4.3-10c0.3-0.5,0.3-1.1-0.1-1.5c-0.4-0.4-1-0.6-1.5-0.3c-2.3,1.1-4.9,1.7-7.4,1.8
				c-0.6,0-1.3,0-1.7-0.3c-0.2-0.1-0.3-0.4-0.3-0.7c0-0.3,0-0.6,0.1-0.9c3.4-2.8,6.8-5.8,9.7-9.3c6-7.4,9.8-18.8,4.6-27.6
				c-0.3-0.6-1-0.9-1.7-0.9l-1.7,0c0.3-1.6,1.2-3.1,2.5-4.1c0.6-0.4,0.9-1.2,0.7-1.9c-0.2-0.7-0.7-1.3-1.5-1.5l-2-0.4
				c5.3-3.5,10.2-7.4,13.4-12.3c-0.9-1.4-1.5-2.9-1.9-4.5c-3.2,6.7-10.3,11.6-17.5,16.1c-0.7,0.4-1,1.2-0.9,2
				c0.1,0.8,0.7,1.4,1.5,1.5l3.4,0.7c-1.2,1.9-1.8,4.3-1.6,6.6c0.1,1,0.9,1.7,1.9,1.7l2.5,0c3.5,7.2,0.2,16.3-4.7,22.3
				c-3.4,4.2-7.6,7.6-12,11.1c-2.8,2.2-5.6,4.6-8.2,7.1c-2.3,2.2-5.2,5.3-7.5,9.2c-11.7,3.5-20.9,15.1-22.1,28.1
				c-1.1,12.1,4.3,25.3,14.3,34.2c10.7,9.7,23.9,13.1,33.3,14.3c1.8,1.8,3.6,3.4,5.7,5c1,0.8,2.1,1.5,3.1,2.3c2.8,2,5.4,3.9,7.5,6.3
				c3.4,3.7,4.7,8.6,3.4,12.4c-1,3.1-3.7,5.2-7.7,6c-4.9,1-10.1-0.6-14.6-2.1c-3.6-1.2-11.2-3.7-15.8,0.9c-0.5,0.5-0.8,1-1.1,1.5
				c-4.8,0.2-9.1,3.6-10.5,8.2c-0.5,1.8-0.6,3.7-0.2,5.5c-0.3,0.3-0.5,0.7-0.6,1.2c-0.7,2.6-0.4,6.1,1.3,8.2c0.5,0.6,1.7,0.9,2.1,0
				c0.1-0.2,0.2-0.4,0.2-0.6c0.6,1,1.3,2,2.1,2.8c0,0.5,0.2,0.9,0.5,1.3c0.8,1.1,1.6,2.2,2.3,3.4c0.7,1.1,1.3,2,2.6,2.3
				c0.1,0,0.2,0,0.3-0.1c0.8-1,0.8-2,0.8-3.2c0-0.2,0-0.3,0-0.5c0.6,0.1,1.2,0.1,1.8,0.1c0.8,0,1.6-0.1,2.4-0.3
				c3.8-0.8,6.7-3.4,9.5-5.9c0.4-0.3,0.7-0.6,1.1-0.9c2.5-2.3,7.3-5.1,10.4-5.2c2.8,0.1,5.6,0.8,8.2,2.1c2.6,1.4,4.8,3.3,7.2,5.3
				c0.7,0.6,1.4,1.2,2.1,1.8c2.9,2.4,6.9,5.3,11.7,6c0.5,0.1,1.1,0.1,1.7,0.1c2.7,0,5.6-0.9,7.8-2.6c0.2,0.7,0.4,1.4,0.9,1.8
				c0.3,0.3,0.6,0.3,1,0.1c1.6-0.7,1.5-3.6,1.5-5c0-0.7-0.1-1.3-0.3-1.8c1.1-4.6-1.5-9.3-5-11.8c-2.4-1.7-5.1-2.7-7.8-3.3
				c3.9-5.2,10.5-8.9,18.4-10.4c9.3-1.7,22.1-0.6,27.5,0c5.3,2.2,10.4,5,15,8.7c2.4,1.9,3.9,4.6,3.7,6.6c-0.1,1.4-1,2.4-2.8,3.3
				c-2.1,1-4.7,1-7.7,0.9c-3-0.1-6.4-0.3-9.4,1.1c-5,2.2-7.9,8.4-6.5,13.8c0.7,2.7,2.4,5,4.7,6.7c0.3,1.1,0.7,2,1.7,2.9
				c0.3,0.2,0.7,0.4,1,0.1c0.4-0.3,0.9-0.5,1.3-0.9c0,0,0,0,0-0.1c1.1,0.3,2.2,0.5,3.4,0.5c0,0,0.1,0,0.1,0c5.3,0,10.4-3.5,12.6-8.5
				c1-2.5,1.6-3.1,1.9-3.1c0.1,0.1,0.3,0.8,0.1,1.4c-0.3,0.6-0.8,1.3-1.3,1.9c-0.4,0.5-0.8,1-1.1,1.6c-1.6,2.5-1.9,5.6-1,8.7
				c1,3.2,3.3,5.9,6.2,7.1c1.4,0.6,2.9,0.9,4.4,0.9c0.2,0.6,0.6,1.1,1.2,1.5c0.4,0.3,1.2,0.3,1.6,0c0.8-0.6,1.2-1.4,1.4-2.3
				c3-1,5.6-3.1,7.2-6c1.4-2.6,1.9-5.7,1.6-8.7c0.9,1.4,1.9,2.8,3.4,3.8c2.1,1.3,4.7,1.5,7.2,0.6c0.1,0,0.1-0.1,0.2-0.1
				c0.1,0.1,0.1,0.2,0.2,0.3c0.3,0.6,1.1,0.6,1.5,0.2c0.5-0.5,1.1-1,1.5-1.6c0.3-0.5,0.4-1,0.6-1.5c-0.1,0.1-0.2,0.2-0.3,0.3
				c0.2-0.2,0.3-0.4,0.5-0.6c0.9-1,1.5-2.2,1.9-3.5c1.2-4.6-0.8-10-5.2-13.7c-3-2.5-6.5-4-10-5.2c-0.6-3.3-0.9-6.6-0.9-9.9
				c0-0.4,0-1.4,0.3-1.7c0.2-0.2,0.9-0.4,1.5-0.6c9.9-3,18.7-9.1,25-17.2c8.6,3.2,18,5,27.6,5c2.9,0,5.9-0.2,8.9-0.5
				c2.6-0.3,5.3-0.8,7-3c1.3-1.6,2.5-4.7,0.2-9.9c-0.5-1.1-1-2.2-1.6-3.2c1.4-8.8,0.5-19.9-3-27.9c-0.6-1.4-1.4-2.7-2.2-4.1
				c0-0.3,0-0.7,0-1c0.8,1.5,1.5,2.9,2,4.2c0.4,0.9,1.1,2.5,2.7,3.2c0.5,0.2,1,0.3,1.5,0.3c1.6,0,3.3-1,4.7-2.9
				c0.5-0.6,0.9-1.2,1.3-1.8c0.1,2.8,0.6,5.6,1.4,8.3c0.2,0.6,0.7,1.1,1.2,1.2c0.2,0.1,0.4,0.1,0.6,0.1c0.4,0,0.8-0.1,1.2-0.4
				c9.6-7.3,16.4-18.1,19.1-29.9c2.4-4.2,4.4-8.8,6.1-13.7c0.3,9.6-2.1,18.9-7,30c-0.4,0.8-0.1,1.8,0.6,2.3c0.3,0.2,0.7,0.4,1.1,0.4
				c0.5,0,0.9-0.2,1.3-0.5c8.8-8.3,15.7-17,20.6-26.1c0,0.7,0.4,1.3,1.1,1.6c0.3,0.1,0.6,0.2,0.8,0.2c0.4,0,0.9-0.1,1.2-0.4
				c13-10.5,18.7-25.8,21.2-36.8C330.9,153.3,328.4,133.4,319.5,118.4z M120.7,67.1c-1.2,0.6-2.4,1.2-3.3,1
				c-2.3-0.5-2.2-5.2-2.1-6.7c0.4-6.6,0.2-14.1-3.6-20.5c-3.7-6.2-13.1-11-18.6-5.7c6.9-1.3,10.8,1.4,13.5,5c-1.3-0.3-2.6-0.3-3.9,0
				c-4.6,1-7.9,4.5-10.9,7.5l-0.6,0.6c-1.5,1.5-5.3,5-8.1,3.5c-1.2-0.6-2.1-2.2-2.2-3.9c-0.2-1.9,0.4-3.9,0.9-5.9
				c2.2-8.5,5.3-17.8,12.7-21.4c7.1-3.5,15.7-0.3,21.1,4.3l0.2,0.1c1.8,1.5,4.2,3.6,7.3,3c3-0.6,4.4-3.4,5.4-5.6
				c0.2-0.4,0.4-0.9,0.6-1.3c2.6-4.9,9.3-7.4,15-5.6c5.4,1.8,9.7,7.1,10.7,13.3l0.1,0.8c0.3,2.2,0.7,4.9,2.9,6.5
				c3,2.3,7.2,0.9,9.7-1.7c0.8-0.8,1.5-1.7,2.2-2.5c1-1.2,1.9-2.4,3-3.1c2.2-1.5,5.5-1.3,7.5,0.5c2,1.7,2.7,5,1.5,7.3
				c-0.2,0.4-0.5,0.9-0.7,1.3c-1.2,2.1-2.8,4.9-0.8,7.5c2.1,2.7,5.7,1.8,7.9,1.2c2.6-0.7,4.7-0.7,6.5,0c1.9,0.7,3.3,2.3,3.3,4
				c0.1,1.2-0.5,2.4-1,3.8c-0.8,1.8-1.6,3.9-1.2,6.2c0.4,2,1.6,3.6,2.7,4.9c0.4,0.5,0.9,1.1,1.2,1.6c0.3,0.4,0.5,1,0.6,1.5
				c-0.1-0.1-0.2-0.2-0.2-0.3l-0.3,0.3C175.4,55.6,145.4,55,120.7,67.1z M28,242.6c-9.1-8.2-14.1-20.1-13-31.1
				c0.9-10.1,7.4-19.3,15.9-23.4c-1.3,3.5-2,7.5-1.3,11.6c0.1,0.6,0.5,1.1,1,1.4c0.6,0.3,1.2,0.3,1.7,0l0.5-0.3
				c-0.7,2.5-0.9,5.1-0.5,7.6c0.1,0.7,0.5,1.3,1.2,1.5c0.6,0.3,1.4,0.1,1.9-0.3l2.4-2c-0.1,0.3-0.3,0.6-0.4,0.9
				c-0.3,0.6-0.5,1.2-0.8,1.8c-1.6,4.2-1.4,7.9,0.5,10.3c1.4,1.8,3.8,2.3,5.8,2c-0.4,11.1,3.9,22.7,11.8,32.3
				C44.2,253.2,34.9,248.8,28,242.6z M35.5,309.7c-0.8-0.5-1.5-1.3-2-2.1c0-1-0.4-1.7-1-2.2c-0.4-1.4-0.5-2.9-0.1-4.3
				c0.7-2.5,2.9-4.4,5.3-5.2c-0.3,1.7-0.3,3.5-0.2,5.2c0,0.5,0.1,1,0.1,1.5c-0.1,0.3-0.3,0.6-0.4,0.9c-0.8,2-0.8,3.7,0.1,5.7
				c0.4,1,2,1.1,2.7,0.4c0.1-0.1,0.1-0.1,0.1-0.2c0.4,0.5,0.9,0.8,1.4,1.2C39.6,311.2,37.2,310.9,35.5,309.7z M43.4,316.5
				c-1.1,0.3-2.4,0.2-3.5,0c-0.1-0.7-0.4-1.2-0.8-1.7c0.2,0,0.4,0,0.6,0c2.6,0,5.2-0.8,7.2-2.5c1.2,0,2.4-0.1,3.6-0.3c0,0,0,0,0.1,0
				C48.3,314,46.1,315.9,43.4,316.5z M322.8,172c-2.1,9.3-6.6,21.8-16.1,31.3c0.2-1.1,0.5-2.2,0.8-3.3c0.7-2.8,1.5-5.7,1.6-8.8
				c3.2-12.3,2.8-24.8-1.2-35.7c-5.4-14.7-17.6-27-32.5-25.5c12.9,3,23.9,13.3,28.9,26.8c4.6,12.3,4.1,26.8-1.2,40.7
				c-3.6,9.5-9.5,18.7-17.5,27.5c3.1-8.8,5.2-19.3,2.8-32.4c1.7-7.4,2.4-14.9,1.7-21.8c-1-10.2-4.2-18.6-9.4-25
				c-6.3-7.7-16.7-11.3-24-7.1c7.5-0.8,15.5,2.8,21,9.5c4.7,5.8,7.6,13.5,8.5,23c1.2,11.7-0.8,23.6-5.5,34.3c0-0.3,0-0.5,0-0.8
				c0-15.9-7-34-23-38c11.8,8.8,19.1,23.3,19.1,38c0,13.7-6.3,27.4-16.7,36.3c-0.9-4.2-0.8-8.6,0.2-12.7c2.4-5.7,3.6-12,3.5-18.3
				c-0.2-10.2-3.6-21-13.6-25.5c6,7,9.5,16.3,9.8,25.5c0.2,9.2-2.9,18.7-8.6,26c-0.9,1.1-1.6,1.5-1.8,1.4c-0.2-0.1-0.4-0.5-0.7-1.2
				c-1.1-2.5-2.7-5.5-4.3-8.4c-1.3-2.4-2.7-4.9-3.7-7.1c-3.3-8.1-9.7-14.6-18.7-15.7c6.3,2.6,11.7,9,14.8,16.3l0,0
				c0.1,0.1,0.1,0.3,0.2,0.4c1,2.5,1.7,5,2,7.6c-4.2-4.4-9.3-7.7-13.8-7.9c7.3,4.3,13.2,11,16.6,18.8c3,6.8,4.1,14.4,3.2,21.7
				c-4-4.6-9.2-8-13.9-8c6.8,4,12.3,10.2,15.4,17.4c0.7,1.6,1.6,4.4,0.3,6c-0.9,1.1-2.7,1.4-4.5,1.6c-18.1,2-36-2.4-49.3-12
				c-14.5-10.5-23.3-27.2-23-43.7c0.1-9,2.9-17.2,7.9-23.3c5.4-6.7,13.6-10.6,21.4-10.4c-9.8-4.3-18.2,0.4-24.4,8
				c-5.5,6.7-8.6,15.9-8.7,25.7c-0.3,17.7,9.1,35.7,24.6,46.9c3.6,2.6,7.6,4.9,11.8,6.8c-5.8,7.1-13.7,12.4-22.5,15.1
				c-1,0.3-2.3,0.7-3.2,1.8c-1.2,1.4-1.2,3.2-1.2,4.1c0,0.1,0,0.2,0,0.4c-1,0.4-2.1,0.9-3.2,1.1c-2.1,0.3-4.5,0.2-6.5-0.2
				c-0.1,0-0.1,0.1,0,0.1c2.2,1.4,4.2,1.9,6.8,1.6c0.9-0.1,2-0.3,3.1-0.7c0,1.2,0.1,2.4,0.2,3.5c-0.6,0.3-1.2,0.6-1.8,0.8
				c-2.7,0.6-5.4,0.2-8.1-0.3c-0.1,0-0.1,0.1,0,0.1c2.2,0.7,6.9,2.1,10.2,1.3c0.1,1,0.3,2,0.5,3.1c-1.1,0.6-2.2,1.3-3.5,1.6
				c-2.6,0.6-5.2,0.2-7.8-0.1c-0.1,0-0.1,0.1,0,0.1c2.9,0.9,6.1,2,9.2,1.4c0.9-0.2,1.9-0.5,2.7-0.9c1.2,0.4,2.3,0.8,3.4,1.2
				c-1.4,1.2-2.2,3-2.6,4.7c0,0.2,0.2,0.3,0.3,0.1c0.7-1.3,1.6-2.3,2.8-3.1c0.5-0.4,0.9-0.7,1.5-0.9c1.6,0.7,3.1,1.6,4.5,2.6
				c-0.6,0.2-1.1,0.4-1.5,0.6c-2.2,1.2-3.8,3.3-3.4,5.8c0,0.2,0.3,0.3,0.4,0c0.3-1.8,1.6-3.1,3.1-4.1c0.6-0.4,1.4-0.8,2.1-0.9
				c0.5-0.1,0.9,0,1.2,0.1c1.1,1.2,2,2.7,2.6,4.2c-1.3-0.9-3.2-0.9-4.6-0.1c-1.8,1.1-2.9,4-1.5,5.9c0.7,1,1.2,1.9,1.8,2.8
				c-0.8,0.2-1.9,0.2-2.9-0.5c-1.1-0.7-1.9-2.1-2.8-3.5c-0.2-0.4-0.5-0.8-0.7-1.2c-2-3.1-4.4-4.7-6.9-4.6c-0.7,0-1.4,0.4-1.7,1.1
				c-0.3,0.7-0.2,1.4,0.3,2c2.9,3.5,3.6,8.8,1.5,12.5c-0.5,0.9-1.2,1.8-2,2.5c0.5-2.7-1.2-5.3-4.1-5.3c-2.9,0-4.6,2.7-4.1,5.4
				c0.1,0.7,0.2,1.4,0.4,2c-0.4-0.1-0.8-0.2-1.2-0.4c-1.9-0.8-3.4-2.6-4.1-4.8c-0.6-2-0.4-4,0.5-5.5c0.3-0.4,0.6-0.8,0.9-1.2
				c0.6-0.8,1.4-1.7,1.8-2.9c0.6-1.4,0.5-3.1-0.1-4.3c-0.5-1-1.4-1.8-2.4-2.1c-3.8-1.1-5.6,3.2-6.5,5.3c-1.6,3.7-5.3,6.2-9.1,6.1
				c-0.2,0-0.4,0-0.6-0.1c0,0,0.1-0.1,0.1-0.1c0.4-0.7,0.8-1.4,1.2-2c1.5-2.2,0.2-5.3-2.1-6.3c-2.6-1.1-5.1,0.4-6,2.9
				c-0.1,0.3-0.2,0.7-0.3,1c-0.3-0.6-0.6-1.2-0.8-1.8c-0.6-2.4,0-5,1.5-7c4.9-1.9,10.4,0.8,12.5,5.8c0.1,0.2,0.4,0.1,0.3-0.1
				c-0.9-3.6-3.5-6.8-7.1-8.2c-0.5-0.2-1-0.3-1.5-0.4c1.9-0.5,4-0.4,6.1-0.3c0.1,0,0.1,0.1,0.2,0.1c0.8,0.2,1.4,0.6,2,1
				c1.4,1,2.3,2.2,2.5,4c0.1,0.4,0.7,0.3,0.7-0.1c0.2-1.7-0.4-3.6-1.5-4.9c1.2-0.1,2.4-0.2,3.6-0.5c0.9,0.6,1.7,1.7,2.1,2.7
				c0,0.1,0.2,0.1,0.2,0c0.1-1.2-0.3-2.2-1.1-3.1c0.3-0.1,0.7-0.3,1-0.4c3.7-1.8,4.7-4.4,4.9-6.3c0.4-3.4-1.6-7.3-5.1-10
				c-13.6-10.8-33.5-14.9-47.9-13.7c5.6,1,11.2,2.1,16.8,3.5c-4.4-0.2-9.3-0.1-14.4,0.8c-9,1.6-18.9,6.5-22.4,15.3
				c-2.7,1.4-5.1,4.7-5.5,7.1c0,0.1,0.1,0.1,0.1,0.1c1.4-1.5,2.8-3.2,4.6-4.2c1.1-0.6,2.2-0.7,3.3-0.9c0.5,0.1,0.9,0.3,1.4,0.5
				c-0.2,0.1-0.4,0.2-0.6,0.4c-2.4,1.8-3.4,4.2-4.1,6.9c-0.1,0.2,0.2,0.3,0.3,0.1c1.1-1.7,2.3-3.6,3.9-5c1-0.9,1.9-1.3,2.9-1.5
				c1.2,0.5,2.2,0.9,3,1.3c-0.6,0.2-1.1,0.6-1.6,1c-2.4,2-3.3,4.4-4.4,7.2c0,0.1,0.1,0.1,0.1,0c1.1-1.8,2.8-3.1,4.4-4.4
				c0.8-0.7,1.6-1.4,2.7-1.7c0.6-0.2,1.1-0.1,1.5,0c0.4,0.5,0.7,1,1,1.6c-2.3,0.2-4.5,3.4-2.2,5.4c0.6,0.5,1.1,1,1.6,1.6
				c-1.7,1.9-4.7,2.6-7.1,2.3c-3.8-0.5-7.2-3-9.8-5.1c-0.7-0.6-1.4-1.2-2.1-1.8c-2.4-2.1-5-4.3-7.9-5.8c-2.6-1.4-5.6-2.2-8.5-2.5
				l0,0c-0.4-0.1-0.9-0.1-1.3-0.1c-2.3-0.1-4.6,0.2-6.9,0.8c-1.4,0.4-2.7,0.9-4,1.5c-1.6,0.6-3,1.2-4.6,1.6
				c-2.2,0.5-5.1,0.4-6.7-1.4c-0.2-0.2-0.4-0.5-0.5-0.8c0,0,0,0,0,0c0.6-1.3,1.4-2.5,2.4-3.5c2.5-2.6-1-6.4-3.5-4.9
				c0.2-1.7,0.6-3.3,1.7-4.4c1.1-1.2,2.8-1.6,4.6-1.5c0.7,0.6,1.4,1.3,2,2.4c1.4,2.4,1.7,5.1,1.4,7.8c0,0.1,0.2,0.2,0.2,0.1
				c0.9-3.1,0.7-6.4-0.7-9.3c-0.1-0.2-0.2-0.4-0.3-0.6c1.5,0.3,3.1,0.8,4.7,1.3c0.5,0.2,1,0.3,1.6,0.5c0.2,0.4,0.3,0.8,0.4,1.3
				c0.3,2,0.1,4.3-0.8,6.2c0,0.1,0.1,0.1,0.1,0.1c1-2,2.2-4.6,2.1-7c1.6,0.5,3.3,0.9,5,1.1c0.6,1.8,0.6,3.6-0.2,5.4
				c-0.1,0.2,0.1,0.4,0.3,0.2c1.3-1.5,2-3.4,2-5.4c1.8,0.2,3.7,0.1,5.5-0.2c0.8,2,0.7,4.5,0.1,6.5c-0.1,0.3,0.3,0.4,0.4,0.2
				c0.8-1.6,1.3-3.3,1.4-5.1c0-0.6,0-1.3-0.1-2c1.5-0.4,2.9-0.9,4.1-1.7c1.8,2.3,2.9,4.8,3.4,7.7c0,0,0.1,0.1,0.1,0
				c1.5-3.1,0.9-6.8-1.2-9.5c0.6-0.6,1.1-1.2,1.5-1.8c0.7,0.6,1.6,1.2,2.2,1.5c2.1,1.1,4,1.5,6.4,1.2c0.1,0,0.1-0.2,0-0.2
				c-2-0.6-4.1-1.7-5.7-3.2c-0.6-0.5-1-1.3-1.6-1.9c0-0.1,0.1-0.2,0.2-0.4c0.3-0.9,0.5-1.9,0.6-2.9c3.5,2.5,8.5,3.3,12.5,2.5
				c0.1,0,0.1-0.1,0-0.1c-3.2-0.9-6.2-1.8-9.2-3.2c-1.3-0.6-2.3-1.3-3.4-2.2c-0.4-3.5-2.1-7.1-4.8-10.2c-2.4-2.7-5.3-4.8-8.1-6.8
				c-1-0.7-2-1.5-3-2.2c-14.1-11-21.8-27.4-19.8-42.2c0.1-0.4,0.2-0.8,0.2-1.2c0-1-0.8-1.8-1.8-1.9c-1-0.1-1.9,0.6-2,1.6
				c0,0.2-0.1,0.4-0.1,0.6c-0.1,0.1-0.2,0.3-0.6,0.4c-0.8,0.3-2,0.1-2.5-0.5c-1.5-1.9-0.6-4.9,0.1-6.6c0.2-0.6,0.5-1.1,0.7-1.7
				c1-2.3,2-4.7,1.9-7.5c0-0.7-0.5-1.4-1.1-1.7c-0.7-0.3-1.4-0.2-2,0.3l-3.7,3c0.3-2.3,1-4.6,2.3-6.6c0.5-0.7,0.4-1.7-0.2-2.3
				c-0.6-0.6-1.5-0.8-2.3-0.4l-2.8,1.5c0-8.5,6.3-15.9,10.3-19.8c2.5-2.4,5.3-4.7,8-6.9c0.1-0.1,0.3-0.2,0.4-0.3
				c0.2,0.6,0.6,1.2,1.1,1.6c1,0.8,2.3,0.9,3.4,0.8c1.6-0.1,3.3-0.3,4.9-0.8c-1.3,2.4-2.2,5-2.8,7.7c-0.3,1.4-0.5,3,0.1,4.4
				c0.5,1.2,1.4,2.1,2.7,2.7c1.6,0.7,3.5,0.7,5.2,0c1-0.4,1.9-1,2.7-1.7c-0.1,1.7,0.2,3.4,1.3,4.9c1.4,2,3.7,2.8,6,2.8
				c1.2,0,2.3-0.2,3.3-0.6c2.9-1.1,5.1-3.3,7-5.2c2.2,0.5,4.7,0.1,6.6-1.1c0,0.4,0,0.8-0.1,1.2c-0.3,2.9-0.6,6.1,1.5,8.8
				c2.2,2.7,5.7,3.1,8.4,3.1c0.6,0,1.1,0,1.6,0c2.5-0.1,10.1-0.4,11.9-6.1c0.4-1.2,0.4-2.4,0.3-3.6l0.2-0.1c0,1,0.2,2.1,0.7,3.1
				c0.9,1.9,2.6,3.3,4.5,3.7c1.9,0.4,4-0.2,5.6-1.7c0.3-0.3,0.5-0.5,0.8-0.8c0.6,1.9,1.5,3.8,2.9,5.4c1.6,1.8,4.1,3,6.5,3
				c1.5,0,2.9-0.4,4.1-1.4c1.9-1.6,2.5-3.8,2.5-6.1c0.7,0.6,1.5,1.2,2.4,1.6c3,1.4,6.8,0.9,8.8-1.3c0.6-0.7,1.1-1.5,1.4-2.4
				c0.8,0.6,1.6,1.1,2.5,1.5c3.2,1.3,6.9,0.8,9.2-1.4c0.6-0.6,1.1-1.3,1.5-2.2c0.2,0.2,0.5,0.3,0.8,0.4c2.7,1.3,6,0.5,7.7-1.8
				c0.5-0.7,0.8-1.4,0.9-2.3c2.3,1.1,4.9,1.4,7.4,0.2c2.2-1,3.8-3.3,4.1-5.9c0-0.2,0-0.4,0.1-0.6c0.6,0.3,1.3,0.5,2.1,0.6
				c2.6,0.5,5.3,0,7.2-1.5c1.1-0.9,2.1-2.1,2.9-3.6c1.2,2.4,2.6,4.3,4.1,6.3c2.6,3.5,6.2,7.9,10.6,16.3c-1.2-7.9-4.4-14.2-7.1-18
				c5.2,0,10.3-2.8,13.4-6.5c3.7-4.5,5.8-10.5,6.4-18.6c0.2-2.8,0.2-5.6,0.2-8.3c0-3.4,0-7,0.4-10.4c1.2-10.7,6-20.6,13.5-27.9
				c7.6-7.4,17.9-11.9,28.2-12.4c16.6-0.8,34.1,9.3,43.4,25.1C324.6,134.6,327,153.4,322.8,172z"/>
			<path class="st8" d="M115.1,98.9c-0.3-1.2-0.8-2.5-1.7-3.4c-1.6-1.7-4.5-2.4-6.8-2.2c-3.2,0.3-6.3,2.1-9.4,5.4
				c-5.7,6.2-9.2,14.4-9.7,22.8c-3,0.5-6.4,1.2-9.1,3.3c-3.4,2.6-5.3,7.9-2.7,11.7c1.9,2.7,4.9,3.4,7.7,3.4c1.8,0,3.6-0.3,4.8-0.6
				c1.6,2.8,2.9,5.7,4,8.6c0.2,0.6,0.7,1,1.3,1.1c0.2,0,0.3,0.1,0.5,0.1c0.4,0,0.9-0.2,1.2-0.4c4.3-3.6,8.6-6.6,13.4-9.1l8.5,3.3
				c1.7,0.7,3.7,1.5,5.9,1.7c0.3,0,0.7,0,1,0c2.2,0,4.3-0.7,5.7-2.1c3.3-3.2,2.4-8.7-0.4-12.3c-1.2-1.6-2.7-2.8-4.2-4.1
				c-1.3-1.1-2.5-2.2-3.5-3.4c-3.7-4.5-5.7-10.6-5.9-17.7c-1.3,6.1-1.8,14.3,3,20.1c1.2,1.5,2.6,2.7,4,3.9c1.4,1.2,2.6,2.3,3.6,3.5
				c1.7,2.1,2.5,5.5,0.8,7.1c-0.8,0.8-2.2,1.2-3.7,1c-1.6-0.2-3.2-0.8-4.8-1.4l-5-2c2.2-0.9,4.6-1.7,7.1-2.3c0.6,0.9,1,2.1,1.8,2.7
				c0.6,0.4,1.3-0.1,1.4-0.8c0-1-0.9-2.1-1.7-2.5c-0.4-0.2-0.8-0.4-1.3-0.5c-0.5-0.1-1-0.1-1.5-0.3c-0.1,0-0.1,0.1,0,0.1
				c0.5,0.2,0.9,0.6,1.2,1.1c-9.8,0.3-17.9,3.4-25.8,9.3c-2.4-5-6.5-10.4-11.3-12.2c0.3-0.2,0.6-0.4,0.8-0.7c0.1-0.2,0-0.4-0.1-0.5
				c-0.6-0.4-1.7,0-2.4,0.3c-1,0.4-1.8,1.2-1.5,2.4c0.2,0.7,0.9,0.8,1.4,0.6c0.7-0.3,0.8-1,1.3-1.6c0,0,0,0,0,0c1.1,1,2.1,2.2,3,3.4
				c-3.6,0.6-5.9,0.1-7-1.5c-1.3-1.9-0.1-5,1.9-6.5c2.4-1.9,5.9-2.3,8.9-2.8c0.9-0.1,1.6-0.9,1.6-1.9c0.1-8,3.3-16,8.8-21.9
				c2.4-2.6,4.7-4,6.9-4.2c3.4-0.4,7,2.4,8.2,5.4C114.9,101.6,115.3,99.9,115.1,98.9z"/>
			<path class="st8" d="M90.6,232.7c0-1.4,0.9-3.3-0.8-4.1c-0.9-0.5-2.1-0.1-2.6,0.9l-2.1,4.3c-0.2-0.2-0.3-0.5-0.4-0.7
				c-0.2-0.5-0.4-1-0.5-1.5c-0.1-0.3-0.1-0.5-0.1-0.8l0-0.4l0-0.5c0.1-2.3,1-4.7,2.3-7c0.4-0.8,0.2-1.8-0.5-2.4
				c-0.8-0.6-2-0.5-2.7,0.3l-5.3,6.8c0-0.2,0-0.3,0-0.5c0-0.7,0-1.3,0.1-2c0.1-0.7,0.1-1.3,0.3-2c0.8-4,2.2-8.1,4.1-11.7
				c0.3-0.7,0.7-1.3,1.1-2c-0.7,0.4-1.3,0.8-1.9,1.2c-0.6,0.5-1.2,1-1.8,1.5c-2.6,2.4-3.8,4.6-4.8,7.9c-0.2,0.8-0.4,1.5-0.5,2.3
				c-0.2,0.8-0.2,1.6-0.3,2.3c-0.1,0.8-0.1,1.6-0.1,2.4c0,0.4,0,0.8,0,1.2c0,0.4,0,0.8,0.1,1.4c0.1,0.6,0.4,1.4,1.3,2.1l0.2,0.1
				l0.1,0.1l0,0l0.2,0.1l0.1,0.1c0.2,0.1,0.7,0.2,0.9,0.2c0.5,0.1,1,0,1.4-0.2c0.7-0.3,1.2-0.7,1.6-1c0.1-0.1,0.2-0.2,0.3-0.4l0,0.4
				c0,0.4,0.1,0.8,0.2,1.2c0.2,0.8,0.4,1.6,0.8,2.4c0.7,1.5,1.9,3,3.6,3.9c0,0,0.1,0,0.1,0c0.9,0.5,2.1,0.1,2.6-0.9l0.5-1
				c0.2,0.3,0.3,0.5,0.5,0.8c0.4,0.5,0.8,1,1.2,1.5c0.4,0.5,0.9,0.9,1.4,1.3c0.5,0.4,1,0.7,1.5,1c0.5,0.3,1.1,0.5,1.7,0.7
				c-0.4-0.4-0.8-0.8-1.1-1.3C91.5,238.4,90.5,235.4,90.6,232.7z"/>
			<path class="st8" d="M169.1,326.6c-2.6-0.1-5,1.3-6.5,3.4c0,0.1,0,0.1,0.1,0.1c1.6-1.6,3.8-2.5,6.1-2.2c0.8,0.1,1.7,0.4,2.5,0.8
				c0.8,0.4,1.1,1.2,1.8,1.7c0.2,0.2,0.5,0,0.5-0.2C173.7,327.9,170.9,326.6,169.1,326.6z"/>
			<path class="st8" d="M164.6,324.2c1.3-0.6,3-1.1,4.4-0.9c1.4,0.2,2,1.2,3.1,1.8c0.5,0.3,1-0.2,0.9-0.7c-0.2-1.6-2.3-2.3-3.7-2.4
				c-1.9-0.1-3.5,0.7-4.9,1.9C164.3,324.1,164.5,324.3,164.6,324.2z"/>
		</g>
		<g>
			<path class="st8" d="M89.7,99.8c0.4,5.4-1.4,10-4,10.3c-2.6,0.3-5-3.7-5.3-9.1c-0.4-5.4,1.4-10,4-10.3
				C86.9,90.4,89.3,94.5,89.7,99.8z"/>
			<path class="st8" d="M81.1,114.2c0,0-0.2-0.1-0.6-0.4c-0.4-0.3-1-0.8-1.5-1.5c-1.2-1.4-2.4-3.8-3.2-6.9c-0.4-1.5-0.7-3.2-0.8-5.1
				c-0.1-1.8-0.1-3.8,0.2-5.8c0.3-2,0.8-4.1,1.9-6.1c0.6-1,1.3-2,2.4-2.9c0.6-0.4,1.2-0.8,2-1c0.4-0.1,0.8-0.2,1.2-0.2l0.3,0l0.2,0
				l0.1,0l0,0l0.2,0l0.4,0.1c0.1,0,0.2,0,0.4,0.1c0.2,0.1,0.4,0.1,0.6,0.2c0.5,0.2,0.7,0.4,1,0.6c0.6,0.4,1.1,0.8,1.5,1.3
				c0.8,0.9,1.4,2,1.9,3c1,2,1.4,4.1,1.7,6.1c0.3,2,0.3,3.9,0.2,5.8c-0.1,0.8-0.1,1.8-0.3,2.6c-0.1,0.8-0.3,1.7-0.5,2.4
				c-0.8,3.1-2.1,5.5-3.5,6.8c-0.7,0.7-1.3,1-1.8,1.2c-0.5,0.2-0.7,0.2-0.7,0.2s0.2-0.1,0.6-0.4c0.4-0.3,0.8-0.8,1.3-1.5
				c0.9-1.4,1.6-3.8,1.9-6.7c0.1-0.7,0.1-1.5,0.1-2.3c0-0.8,0-1.5,0-2.4c-0.1-1.6-0.3-3.4-0.7-5.1c-0.4-1.7-0.9-3.5-1.7-5.1
				c-0.4-0.8-0.9-1.5-1.4-2.1c-0.2-0.3-0.5-0.5-0.8-0.7c-0.1-0.1-0.3-0.2-0.3-0.2c0,0,0,0-0.1-0.1c0,0-0.2,0-0.3-0.1
				c-0.5-0.1-0.8,0-1.4,0.3c-0.5,0.4-1,1-1.4,1.7c-0.8,1.5-1.5,3.2-1.8,4.9c-0.4,1.7-0.6,3.4-0.7,5.1c-0.1,1.7,0,3.2,0.1,4.7
				c0.3,2.9,0.9,5.3,1.7,6.9c0.4,0.8,0.8,1.3,1,1.7C80.9,114,81.1,114.2,81.1,114.2z"/>
		</g>
		<g>
			
				<ellipse transform="matrix(0.9928 -0.1199 0.1199 0.9928 -11.4265 18.8074)" class="st8" cx="150.6" cy="104.4" rx="10.9" ry="12.3"/>
			<path class="st8" d="M136.2,122.1c0,0-0.3-0.2-0.9-0.6c-0.6-0.4-1.4-1.1-2.3-2.2c-0.9-1-1.9-2.4-2.7-4.2
				c-0.8-1.8-1.4-3.9-1.6-6.4c-0.2-2.4,0.1-5.2,1-7.7c0.9-2.8,2.4-5.4,4.6-7.7c2.1-2.3,5-4.1,8.2-5c1.6-0.4,3.3-0.7,5.1-0.6
				c1.7,0.1,3.5,0.4,5,1l0.5,0.2l0.6,0.3c0.4,0.2,0.8,0.4,1.2,0.6c0.7,0.5,1.5,0.9,2.1,1.5c1.4,1,2.5,2.3,3.5,3.7c2,2.7,3,6,3.3,9.1
				c0.3,3.1-0.2,6.1-1.1,8.8c-0.1,0.3-0.2,0.6-0.3,0.9c-0.1,0.3-0.3,0.6-0.4,1c-0.3,0.7-0.6,1.2-0.9,1.8c-0.3,0.6-0.7,1.1-1.1,1.6
				c-0.4,0.5-0.8,1-1.2,1.4c-1.6,1.8-3.5,3.1-5.2,4c-1.7,0.9-3.4,1.4-4.7,1.6c-1.4,0.2-2.4,0.2-3.2,0.2c-0.7-0.1-1.1-0.1-1.1-0.1
				s0.4,0,1.1-0.1c0.7-0.1,1.7-0.3,3-0.7c1.2-0.4,2.7-1.1,4.2-2.1c1.5-1,2.9-2.4,4.2-4.1c0.3-0.4,0.6-0.9,0.9-1.4
				c0.3-0.5,0.6-1,0.8-1.5c0.2-0.5,0.5-1.1,0.7-1.6l0.3-0.8c0.1-0.3,0.2-0.6,0.3-0.9c0.6-2.3,0.9-5,0.5-7.5c-0.1-1.3-0.5-2.6-1-3.8
				c-0.5-1.2-1.1-2.4-1.9-3.5c-0.8-1.1-1.7-2.1-2.8-2.9c-0.5-0.4-1.1-0.7-1.7-1.1l-0.8-0.4l-0.4-0.2l-0.5-0.2c-2.6-1-5.3-1-7.9-0.4
				c-2.6,0.7-5,2-6.8,3.9c-1.9,1.8-3.4,4-4.3,6.2c-1,2.4-1.4,4.6-1.5,6.8c-0.1,2.2,0.2,4.2,0.7,5.9c0.5,1.7,1.2,3.2,1.9,4.3
				c0.7,1.1,1.4,1.9,1.8,2.4C136,121.9,136.2,122.1,136.2,122.1z"/>
		</g>
	</g>
	<g>
		<ellipse class="st0" cx="81.3" cy="96.7" rx="2.4" ry="4.1"/>
		<path class="st0" d="M146,102.5c-0.8,3-3.3,4.9-5.7,4.3c-2.4-0.6-3.7-3.5-3-6.5c0.8-3,3.3-4.9,5.7-4.3
			C145.4,96.6,146.8,99.5,146,102.5z"/>
	</g>
</g>
</svg>
