<?xml version="1.0" encoding="utf-8"?>
<!-- Generator: Adobe Illustrator 22.1.0, SVG Export Plug-In . SVG Version: 6.00 Build 0)  -->
<svg version="1.1" id="Layer_1" xmlns="http://www.w3.org/2000/svg" xmlns:xlink="http://www.w3.org/1999/xlink" x="0px" y="0px"
	 viewBox="0 0 771.7 362" style="enable-background:new 0 0 771.7 362;" xml:space="preserve">
<style type="text/css">
	.st0{fill:#FFFFFF;}
	.st1{fill:none;stroke:#FFFFFF;stroke-width:22;stroke-miterlimit:10;}
	.st2{fill:#E78125;}
	.st3{fill:#FFCE32;}
	.st4{fill:#EE3824;}
	.st5{fill:#F68E1E;}
	.st6{fill:#F37721;}
	.st7{fill:#FDDF4D;}
	.st8{opacity:0.6;fill:#E78125;}
	.st9{fill:#951A1D;}
	.st10{fill:#333333;}
</style>
<path class="st0" d="M732.1,246.6H184c-21.9,0-39.6-17.7-39.6-39.6v-84.6c0-21.9,17.7-39.6,39.6-39.6h548.2
	c21.9,0,39.6,17.7,39.6,39.6V207C771.7,228.9,754,246.6,732.1,246.6z"/>
<path class="st1" d="M307,185.9c-2.3-3.9-5.2-7.1-7.5-9.2c-2.6-2.5-5.5-4.8-8.2-7.1c-4.4-3.6-8.6-7-12-11.1
	c-5-6.1-8.2-15.2-4.7-22.3l2.5,0c1,0,1.8-0.7,1.9-1.7c0.2-2.3-0.4-4.6-1.6-6.6l3.4-0.7c0.8-0.2,1.4-0.8,1.5-1.5
	c0.1-0.8-0.2-1.5-0.9-2c-6.8-4.2-13.5-8.8-16.9-14.9c0-0.1,0.1-0.2,0.1-0.4c0.4-1.5,0.7-3.2,0.8-5.1c0.1-1.8,0.1-3.8-0.2-5.8
	c-0.3-2-0.8-4.1-1.9-6.1c-0.2-0.4-0.5-0.8-0.8-1.2c0-2.4-0.1-4.9-0.7-7.3c-1.7-6.7-7-12.6-14.6-16.3c-5.9-2.8-12.2-4-18.4-5
	c-0.1-4,0.1-8.3,1.5-12.2c0.4-0.5,0.8-0.9,1-1.1c1.4-1.4,3.7-2,5.5-1.6c3.5,0.8,6.3,3.6,9,6.4l0.6,0.6c4.5,4.6,9,6.1,12.6,4.3
	c2.4-1.2,4-3.9,4.3-7c0.2-2.6-0.4-5-1-7.2c-2.5-9.3-5.8-19.6-14.7-23.9c-8.6-4.2-18.9-0.6-25.3,4.8l-0.2,0.1c-1.3,1.1-2.8,2.4-4,2.2
	c-1.1-0.2-1.8-1.5-2.7-3.5c-0.2-0.5-0.5-1-0.7-1.4c-3.5-6.6-12.1-9.9-19.5-7.4c-6.7,2.2-12.1,8.8-13.3,16.3l-0.1,0.8
	c-0.2,1.7-0.5,3.3-1.4,4c-1.2,0.9-3.4,0-4.7-1.4c-0.7-0.6-1.2-1.4-1.9-2.2c-1.1-1.4-2.3-2.8-3.9-3.9c-3.6-2.4-8.8-2.1-12.1,0.7
	c-3.3,2.9-4.3,8-2.4,11.9c0.2,0.5,0.5,1,0.8,1.6c0.9,1.6,1.5,2.8,1.1,3.4c-0.5,0.7-2.7,0.1-3.9-0.2c-3.3-0.9-6.3-0.8-8.7,0.1
	c-3.3,1.2-5.7,4.2-5.8,7.4c-0.1,2,0.7,3.8,1.3,5.4c0.6,1.5,1.2,2.9,1,4.1c-0.2,1.1-1,2-1.9,3.2c-0.5,0.6-1,1.2-1.4,1.9
	c-1.2,1.8-1.6,4.1-1.1,5.9c0.1,0.4,0.3,0.8,0.6,1.2c-12.1,14.9-16.6,35.5-11.4,54.1c1.3,4.5,3,8.8,4.8,12.9c0.8,2,1.7,4.2,2.5,6.3
	c2.1,5.6,4.7,12.5,3.7,18.8c-0.9,5.1-2.3,8.2-4,11c-4.9,1.5-10.4-1.2-13.4-4.7c-3.2-3.8-5-9.2-5.5-16.4c-0.2-2.7-0.2-5.4-0.2-8.1
	c0-3.5,0-7.2-0.4-10.8c-1.3-11.5-6.5-22.3-14.6-30.2c-8.2-8.1-19.4-13-30.7-13.5c-18-0.8-36.8,10-46.9,27c-8.9,15-11.4,34.9-7,54.4
	c2.5,11,8.2,26.4,21.2,36.8c0.3,0.3,0.8,0.4,1.2,0.4c0.3,0,0.6-0.1,0.8-0.2c0.6-0.3,1-0.9,1.1-1.6c4.9,9.1,11.8,17.8,20.6,26.1
	c0.4,0.3,0.8,0.5,1.3,0.5c0.4,0,0.8-0.1,1.1-0.4c0.7-0.5,1-1.5,0.6-2.3c-4.9-11.1-7.3-20.3-7-30c1.7,4.9,3.8,9.5,6.1,13.7
	c2.7,11.8,9.5,22.6,19.1,29.9c0.3,0.3,0.7,0.4,1.2,0.4c0.2,0,0.4,0,0.6-0.1c0.6-0.2,1.1-0.7,1.2-1.2c0.8-2.7,1.3-5.5,1.4-8.3
	c0.4,0.6,0.9,1.2,1.3,1.8c1.5,1.9,3.1,2.9,4.7,2.9c0.5,0,1-0.1,1.5-0.3c1.6-0.7,2.3-2.3,2.7-3.2c0.6-1.3,1.3-2.7,2-4.2
	c0,0.3,0,0.7,0,1c-0.9,1.3-1.6,2.7-2.2,4.1c-3.5,8-4.5,19.1-3,27.9c-0.6,1.1-1.2,2.1-1.6,3.2c-2.2,5.2-1.1,8.3,0.2,9.9
	c1.7,2.1,4.4,2.7,7,3c3,0.3,5.9,0.5,8.9,0.5c9.6,0,19-1.7,27.6-5c6.3,8.1,15.1,14.2,25,17.2c0.6,0.2,1.3,0.4,1.5,0.6
	c0.3,0.3,0.3,1.3,0.3,1.7c0,3.3-0.3,6.6-0.9,9.9c-3.4,1.2-7,2.7-10,5.2c-4.4,3.7-6.4,9-5.2,13.7c0.3,1.3,1,2.5,1.9,3.5
	c0.1,0.2,0.3,0.4,0.5,0.6c-0.1-0.1-0.2-0.2-0.3-0.3c0.2,0.5,0.3,1,0.6,1.5c0.4,0.6,0.9,1.1,1.5,1.6c0.4,0.4,1.2,0.4,1.5-0.2
	c0.1-0.1,0.1-0.2,0.2-0.3c0.1,0,0.1,0.1,0.2,0.1c2.5,1,5.2,0.8,7.2-0.6c1.5-1,2.5-2.4,3.4-3.8c-0.4,3,0.1,6.1,1.6,8.7
	c1.6,2.9,4.3,5,7.2,6c0.3,0.9,0.6,1.7,1.4,2.3c0.4,0.3,1.2,0.3,1.6,0c0.6-0.4,0.9-1,1.2-1.5c1.5,0,3-0.3,4.4-0.9
	c2.9-1.2,5.2-3.9,6.2-7.1c1-3.1,0.6-6.2-1-8.7c-0.4-0.6-0.8-1.1-1.1-1.6c-0.5-0.7-1-1.3-1.3-1.9c-0.2-0.6-0.1-1.2,0.1-1.4
	c0.3,0.1,0.9,0.7,1.9,3.1c2.1,5,7.3,8.5,12.6,8.5c0,0,0.1,0,0.1,0c1.2,0,2.3-0.2,3.4-0.5c0,0,0,0,0,0.1c0.4,0.4,0.9,0.6,1.3,0.9
	c0.3,0.2,0.7,0.1,1-0.1c1.1-0.9,1.4-1.8,1.7-2.9c2.2-1.7,4-4,4.7-6.7c1.4-5.4-1.5-11.6-6.5-13.8c-3.1-1.3-6.4-1.2-9.4-1.1
	c-3,0.1-5.6,0.1-7.7-0.9c-1.7-0.8-2.6-1.9-2.8-3.3c-0.2-2,1.3-4.7,3.7-6.6c4.6-3.6,9.6-6.4,15-8.7c5.4-0.6,18.2-1.6,27.5,0
	c7.9,1.4,14.5,5.2,18.4,10.4c-2.7,0.6-5.5,1.6-7.8,3.3c-3.5,2.5-6.1,7.2-5,11.8c-0.1,0.6-0.2,1.2-0.3,1.8c-0.1,1.4-0.1,4.4,1.5,5
	c0.4,0.2,0.7,0.1,1-0.1c0.5-0.4,0.7-1.1,0.9-1.8c2.2,1.8,5,2.6,7.8,2.6c0.6,0,1.1,0,1.7-0.1c4.7-0.6,8.7-3.5,11.7-6
	c0.7-0.6,1.4-1.2,2.1-1.8c2.4-2,4.6-4,7.2-5.3c2.5-1.3,5.3-2,8.2-2.1c3.1,0.1,7.8,3,10.4,5.2c0.4,0.3,0.7,0.6,1.1,0.9
	c2.8,2.5,5.6,5.1,9.5,5.9c0.8,0.2,1.6,0.3,2.4,0.3c0.6,0,1.2,0,1.8-0.1c0,0.2,0,0.3,0,0.5c0,1.2,0,2.2,0.8,3.2
	c0.1,0.1,0.2,0.1,0.3,0.1c1.3-0.3,1.9-1.2,2.6-2.3c0.8-1.1,1.5-2.3,2.3-3.4c0.3-0.4,0.5-0.9,0.5-1.3c0.8-0.8,1.5-1.7,2.1-2.8
	c0.1,0.2,0.1,0.4,0.2,0.6c0.4,0.9,1.6,0.6,2.1,0c1.6-2.2,2-5.6,1.3-8.2c-0.1-0.5-0.4-0.9-0.6-1.2c0.4-1.8,0.3-3.7-0.2-5.5
	c-1.4-4.6-5.7-8-10.5-8.2c-0.3-0.5-0.7-1-1.1-1.5c-4.6-4.6-12.2-2.1-15.8-0.9c-4.5,1.5-9.7,3-14.6,2.1c-4-0.8-6.6-2.8-7.7-6
	c-1.3-3.8,0.1-8.7,3.4-12.4c2.2-2.4,4.8-4.3,7.5-6.3c1-0.8,2.1-1.5,3.1-2.3c2-1.6,3.9-3.2,5.7-5c9.5-1.1,22.6-4.6,33.3-14.3
	c9.9-9,15.4-22.1,14.3-34.2C327.9,201,318.7,189.4,307,185.9z"/>
<g id="cock_2_">
	<g>
		<path class="st2" d="M172,347.9c0.2,0,0.3,0,0.4-0.1c0.4-0.3,0.7-0.7,1-1.3l0.2-0.4l0.4,0c1.5,0,2.9-0.3,4.2-0.8
			c2.7-1.2,4.9-3.7,5.9-6.7c0.9-2.9,0.6-5.9-0.9-8.2c-0.3-0.5-0.7-1-1.1-1.5c-0.6-0.7-1.1-1.4-1.4-2.1c-0.3-0.7-0.2-1.7,0.3-2.1
			l0.2-0.2l0.3,0.1c0.6,0.1,1.2,0.8,2.3,3.5c2,4.8,6.9,8.1,12,8.1c1.2,0,2.3-0.2,3.3-0.5l0.4-0.1l0.3,0.3c0.2,0.2,0.5,0.4,0.8,0.6
			c0.2,0.1,0.3,0.2,0.5,0.3c0,0,0,0,0,0c0.1,0,0.2,0,0.2-0.1c0.9-0.7,1.2-1.5,1.5-2.6l0.1-0.2l0.2-0.1c2.2-1.6,3.8-3.9,4.4-6.3
			c1.4-5.1-1.4-11-6.1-13.1c-2.2-1-4.6-1.1-6.5-1.1c-0.9,0-1.8,0-2.7,0.1c-0.8,0-1.5,0.1-2.3,0.1c-2.6,0-4.3-0.3-5.8-1
			c-1.9-0.9-2.9-2.2-3.1-3.8c-0.2-2.3,1.3-5.1,3.9-7.2c4.3-3.4,9.3-6.3,15.1-8.7l0.1,0l0.1,0c3.1-0.3,9.1-0.9,15.5-0.9
			c4.7,0,8.8,0.3,12.2,0.9c8.1,1.5,14.8,5.2,18.8,10.6l0.6,0.8l-1,0.2c-3.1,0.7-5.6,1.8-7.6,3.2c-3,2.2-5.8,6.7-4.8,11.2l0,0.1
			l0,0.1c-0.1,0.6-0.2,1.2-0.2,1.7c-0.2,3.4,0.6,4.2,1.1,4.4c0.1,0,0.1,0,0.2,0c0,0,0.1,0,0.2-0.1c0.3-0.3,0.5-0.8,0.7-1.4l0.2-1
			l0.8,0.6c1.9,1.6,4.6,2.5,7.4,2.5c0.5,0,1.1,0,1.6-0.1c4.6-0.6,8.5-3.4,11.4-5.8c0.7-0.6,1.4-1.2,2.1-1.8c2.5-2.1,4.7-4.1,7.4-5.5
			c2.5-1.3,5.5-2.1,8.4-2.2c3.4,0.1,8.4,3.2,10.8,5.4l1.1,0.9c2.7,2.4,5.5,4.9,9.2,5.8c0.7,0.2,1.5,0.2,2.3,0.2c0.6,0,1.1,0,1.7-0.1
			l0.8-0.1l0,1.3c0,1.1,0,1.9,0.5,2.6c0.8-0.3,1.3-0.9,1.9-1.9l0.4-0.5c0.7-1,1.3-2,2.1-3c0.2-0.3,0.3-0.6,0.4-1l0-0.2l0.2-0.2
			c0.8-0.8,1.4-1.6,2-2.6l0.7-1.2c0,0,0.7,1.8,0.7,1.9c0,0.1,0.1,0.2,0.3,0.2c0.2,0,0.5-0.1,0.7-0.3c1.4-1.9,1.9-5.1,1.1-7.7
			c-0.1-0.4-0.3-0.7-0.5-0.9l-0.2-0.2l0.1-0.3c0.4-1.8,0.3-3.6-0.2-5.2c-1.3-4.3-5.4-7.5-9.9-7.7l-0.3,0l-0.2-0.3
			c-0.4-0.6-0.7-1-1.1-1.4c-1.6-1.7-3.9-2.5-6.7-2.5c-3.2,0-6.5,1.1-8.5,1.8c-3.5,1.2-7.5,2.4-11.6,2.4c-1.2,0-2.3-0.1-3.3-0.3
			c-4.2-0.8-7-3-8.2-6.4c-1.3-4,0.1-9.1,3.6-13c2.2-2.4,4.8-4.3,7.6-6.4c1-0.8,2.1-1.5,3.1-2.3c1.9-1.5,3.8-3.1,5.6-4.9l0.2-0.2
			l0.2,0c9.2-1.1,22.3-4.4,33-14.1c9.8-8.9,15.2-21.8,14.1-33.7c-1.2-12.8-10.1-24.1-21.7-27.6l-0.2-0.1l-0.1-0.2
			c-2.4-3.9-5.3-7.1-7.4-9.1c-2.6-2.5-5.5-4.8-8.2-7c-4.5-3.6-8.6-7-12.1-11.2c-4.6-5.7-8.7-15.1-4.8-23l0.2-0.4l3,0
			c0.7,0,1.2-0.5,1.3-1.1c0.2-2.1-0.3-4.3-1.5-6.2l-0.5-0.8l4.3-0.9c0.5-0.1,0.9-0.5,1-1c0.1-0.5-0.1-1-0.6-1.3
			c-6.4-4-13.6-8.8-17.2-15.2l-0.1-0.2l0.2-0.6c0.4-1.7,0.7-3.3,0.8-4.9c0.1-2.1,0.1-3.9-0.2-5.6c-0.3-1.8-0.7-3.9-1.9-5.9
			c-0.2-0.4-0.5-0.8-0.8-1.2l-0.1-0.2l0-0.2c0-2.9-0.2-5.1-0.7-7.1c-1.6-6.5-6.8-12.3-14.2-15.9c-5.9-2.8-12.2-4-18.2-5l-0.5-0.1
			l0-0.5c-0.1-5.1,0.3-9,1.5-12.4l0-0.1l0.1-0.1c0.4-0.5,0.8-0.9,1-1.1c1.2-1.2,3.1-1.9,4.8-1.9c0.4,0,0.9,0,1.3,0.1
			c3.6,0.8,6.5,3.8,9.3,6.6l0.6,0.6c3.1,3.2,6.2,4.8,9,4.8c1,0,2-0.2,2.9-0.7c2.2-1.1,3.7-3.6,3.9-6.5c0.2-2.5-0.4-4.9-1-7
			c-2.4-9.2-5.7-19.3-14.3-23.5c-2.4-1.2-5.1-1.8-7.9-1.8c-5.7,0-11.9,2.4-16.7,6.5l-0.2,0.1c-1.3,1.1-2.8,2.3-4.1,2.3
			c-0.1,0-0.3,0-0.4,0c-1.4-0.3-2.2-1.7-3.2-3.9c-0.2-0.5-0.4-0.9-0.7-1.4c-2.5-4.8-7.9-7.9-13.8-7.9c-1.7,0-3.4,0.3-5,0.8
			c-6.5,2.1-11.7,8.5-12.8,15.8l-0.1,0.8c-0.3,1.8-0.5,3.6-1.7,4.4c-0.4,0.3-1,0.5-1.6,0.5c-1.3,0-2.8-0.7-4-1.9
			c-0.7-0.7-1.3-1.4-1.9-2.2c-1.1-1.4-2.2-2.8-3.7-3.8c-1.5-1-3.3-1.5-5.2-1.5c-2.3,0-4.5,0.8-6.2,2.2c-3.1,2.7-4.1,7.5-2.3,11.1
			c0.2,0.5,0.5,1,0.8,1.5c1.1,1.9,1.7,3.2,1.1,4.1c-0.3,0.4-0.8,0.6-1.6,0.6c-1,0-2.2-0.3-3-0.5c-1.5-0.4-3-0.6-4.4-0.6
			c-1.4,0-2.8,0.2-4,0.7c-3.1,1.1-5.3,3.9-5.4,6.8c-0.1,1.9,0.6,3.6,1.3,5.1c0.7,1.6,1.3,3.1,1,4.5c-0.2,1.2-1.1,2.3-2.1,3.4
			c-0.5,0.6-1,1.2-1.4,1.8c-1.1,1.6-1.5,3.7-1,5.4c0.1,0.3,0.3,0.7,0.5,1l0.2,0.4l-0.3,0.4c-12.1,14.8-16.4,35.3-11.3,53.5
			c1.2,4.4,3,8.7,4.7,12.9c0.9,2.1,1.7,4.2,2.5,6.3c2.1,5.6,4.8,12.6,3.7,19.2c-1,5.7-2.6,8.9-4.1,11.2l-0.1,0.2l-0.2,0.1
			c-1,0.3-2,0.5-3.1,0.5c-3.9,0-8.3-2.1-11-5.4c-3.3-3.9-5.1-9.4-5.6-16.8c-0.2-2.7-0.2-5.4-0.2-8.1c0-3.5,0-7.1-0.4-10.7
			c-1.3-11.4-6.4-22-14.4-29.8c-8.1-8-19.2-12.8-30.3-13.3c-0.6,0-1.2,0-1.9,0c-17.4,0-34.8,10.5-44.4,26.7
			c-8.8,14.9-11.3,34.6-7,54c2.5,10.9,8.1,26.1,20.9,36.5c0.2,0.2,0.5,0.3,0.8,0.3c0.2,0,0.4,0,0.6-0.1c0.4-0.2,0.7-0.6,0.7-1.1
			l0.1-2.3l1.1,2c4.9,9,11.8,17.7,20.5,25.9c0.2,0.2,0.5,0.3,0.9,0.3c0.3,0,0.5-0.1,0.7-0.2c0.5-0.3,0.7-1,0.4-1.6
			C56,223.7,53.8,214.4,54,205l1.2-0.2c1.7,4.8,3.7,9.4,6.1,13.6l0,0.1l0,0.1c2.7,11.7,9.6,22.5,18.9,29.5c0.2,0.2,0.5,0.3,0.8,0.3
			c0.1,0,0.3,0,0.4-0.1c0.4-0.1,0.7-0.4,0.8-0.8c0.8-2.6,1.3-5.3,1.4-8.1l0.1-1.9l1.1,1.5c0.4,0.6,0.8,1.2,1.3,1.8
			c1.3,1.7,2.8,2.6,4.2,2.6c0.4,0,0.9-0.1,1.3-0.3c1.4-0.6,2-2,2.4-2.9c0.5-1.1,1.2-2.5,2.1-4.2l1.2,0.3c0,0.3,0,0.6,0,1l0,0.2
			l-0.1,0.2c-0.9,1.4-1.6,2.7-2.2,4c-3.3,7.5-4.5,18.3-3,27.5l0,0.2l-0.1,0.2c-0.6,1.1-1.2,2.1-1.6,3.2c-2.1,4.9-1.1,7.8,0.1,9.3
			c1.6,2,4.1,2.5,6.6,2.7c2.9,0.3,5.9,0.5,8.8,0.5c9.4,0,18.9-1.7,27.4-4.9l0.4-0.2l0.3,0.4c6.2,8,15,14.1,24.7,17
			c0.9,0.3,1.5,0.5,1.8,0.8c0.4,0.4,0.4,1.1,0.4,2.1c0,3.3-0.3,6.6-0.9,10l-0.1,0.4l-0.4,0.1c-3.2,1.1-6.8,2.6-9.8,5.1
			c-4.2,3.5-6.1,8.6-5,13c0.3,1.1,0.9,2.3,1.8,3.3c0.1,0.2,0.2,0.3,0.3,0.4l-0.3,0.3l0.4-0.2l0.1,0.2c0.1,0.4,0.2,0.8,0.4,1.1
			c0.3,0.5,0.8,1,1.3,1.5c0.1,0.1,0.2,0.1,0.3,0.1c0.1,0,0.2,0,0.2-0.1c0-0.1,0.1-0.2,0.1-0.2l0.1-0.1l0.3-0.5l0.5,0.2l0.1,0
			c1,0.4,2,0.6,3,0.6c1.3,0,2.6-0.4,3.7-1.1c1.4-0.9,2.4-2.3,3.2-3.6l1.2,0.4c-0.4,3,0.2,5.9,1.5,8.3c1.5,2.6,3.9,4.7,6.9,5.7
			l0.3,0.1l0.1,0.3c0.3,0.9,0.6,1.5,1.2,1.9C171.7,347.9,171.8,347.9,172,347.9z"/>
		<path class="st3" d="M133.5,147.9c-0.8-2.1-1.7-4.2-2.5-6.3c-1.7-4.1-3.5-8.4-4.7-12.9c-5.1-18.2-0.8-38.7,11.3-53.5l0.3-0.4
			l-0.2-0.4c-0.2-0.4-0.4-0.7-0.5-1c-0.5-1.6-0.1-3.6,0.9-5.2c9.2-5.4,20.1-8.4,30.6-10.5c19.6-3.8,40-5.5,59.7-2.1
			c-0.2,1.8-0.2,3.7-0.2,5.9l0,0.5l0.5,0.1c6,1,12.3,2.1,18.2,5c7.4,3.6,12.6,9.3,14.2,15.9c0.5,2,0.7,4.2,0.7,7.1l0,0.2l0.1,0.2
			c0.3,0.4,0.5,0.8,0.8,1.2c1.1,2,1.6,4.1,1.9,5.9c0.3,1.7,0.3,3.5,0.2,5.6c-0.1,1.6-0.4,3.3-0.8,4.9l-0.2,0.6l0.1,0.2
			c3.6,6.4,10.7,11.2,17.2,15.2c0.4,0.3,0.7,0.8,0.6,1.3c-0.1,0.5-0.5,0.9-1,1l-4.3,0.9l0.5,0.8c1.2,1.9,1.7,4.1,1.5,6.2
			c-0.1,0.7-0.6,1.1-1.3,1.1l-3,0l-0.2,0.4c-3.9,7.9,0.2,17.3,4.8,23c1.2,1.4,2.4,2.8,3.7,4c-4.1,3.9-8.7,7.3-13.7,10.2
			c-8.3,4.7-17.4,8-26.7,9.8c-20.3,4-41.3,1.8-61.7-1.5c-15.2-2.5-31.2-6.1-43-15.6C137.9,159.6,135.5,153.2,133.5,147.9z"/>
		<g>
			<path class="st0" d="M103.7,246.2c1.1-7.2,3.9-14.1,8.2-20c-2,0.7-4.3-1-4.8-3c-0.6-2,0.1-4.3,1-6.2c2.6-5.4,7.5-9.6,13.1-11.4
				c-2.3,2.5-4.5,5.3-4.8,8.6c-0.2,3.3,2.6,7,5.9,6.3c-4,2.6-5.9,8.1-4.3,12.6c1.6,4.5,6.4,7.7,11.2,7.2c-5.5,2.8-7.8,10.2-5.7,16.1
				c4.8,13.3,20.7,10.7,31.7,8.6c-2.2,0.4-6.6,6-8.7,7.4c-3.5,2.4-7.4,4.3-11.4,5.8c-6.7,2.5-16.9,5.5-22.8-0.2
				c-2.6-2.5-3.8-6.3-3.8-10c0-3.7,0.9-7.2,1.8-10.8c-2.5,0.6-5.1-1.2-6.2-3.6C103.1,251.5,103.3,248.8,103.7,246.2z"/>
			<path class="st0" d="M293.4,238.3c1,3.7,4.6,6.4,8.4,7c3.8,0.6,7.7-0.6,11-2.6c2.4-1.5,4.6-4,6.9-5.2c2.1,7-13,15.7-18.1,17.4
				c-2.6,0.9-5.6,1.3-8,0c-2.7-1.5-3.8-4.9-3.5-8C290.5,243.8,292,241,293.4,238.3z"/>
			<path class="st0" d="M134.2,176.3c1.1-2.1,2.2-5,3-9.2c0.8-4.4-0.2-9-1.6-13.3c0.4-0.3,0.8-0.6,1.2-0.9
				c0.1,5.3,4.1,10.4,9.3,11.6c5.2,1.2,11.1-1.4,13.6-6.1c-0.6,2.3-1.1,4.7-0.9,7.1c0.3,2.4,1.5,4.8,3.7,5.8c2.2,1,5.2,0,5.9-2.3
				c-0.8,3.1,3.4,5.5,6.4,4.4c3-1.1,4.7-4.2,6.1-7c-1.2,3.5,1.7,7.5,5.3,8.3c3.6,0.8,7.4-0.9,10.1-3.5c2.6-2.6,4.3-6,6-9.3
				c0.4,3.6,1.1,7.5,3.6,10.1c2.5,2.6,7.6,3.1,9.5-0.1c0.8,3,4.7,4.4,7.6,3.4c2.9-1,4.9-3.8,6-6.8c-0.7,4.6,3.6,9.3,8.3,9
				c4.7-0.3,8.4-5.5,7.2-10c2.4,1.7,5,3.5,7.8,4.3c2.9,0.8,6.3,0.5,8.5-1.6c1.9-1.8,2.3-4.9,1-7c3.7,3.7,10.2,4.3,14.4,1
				c1.6-1.3,2.7-2.9,3.3-4.7c2.3,2.6,4.8,5,7.5,7.2c0.2,3.6-0.5,6.6-5.1,6.7c-2.2,0.1-4.3-0.8-6.3-1.6c2.3,2.5,4.7,5.1,5.3,8.4
				s-1.1,7.3-4.4,7.9c-3.1,0.5-5.8-2.2-7.9-4.6c0.7,3.2,1.1,7.3-1.5,9.2c-2.2,1.6-5.3,0.8-7.5-0.8c-2.2-1.6-3.8-3.9-5.9-5.5
				c-5.3-4.2-13.8-3.7-18.6,1.1c-1.9,1.9-3.3,4.4-5.7,5.5c-2.4,1.1-6.2-0.6-5.5-3.2c-0.3,2.7-2.5,5.1-5.2,5.7
				c-2.7,0.6-5.7-0.8-7-3.2c0.9,4.4-2.9,9-7.4,9.1c-4.4,0-8.3-4.6-7.5-8.9c-1.6,1.5-3.3,3.1-5.4,3.9c-2.1,0.8-4.6,0.9-6.3-0.5
				c-1.7-1.4-2.1-4.4-0.3-5.8c-2.5,1.9-5.4,3.9-8.5,3.6c-2.7-0.2-5.1-2.9-4.8-5.3c-1.1,2-3.5,3.2-5.7,2.6c-2.7-0.7-4.4-3.9-3.4-6.5
				c-1.6,2.4-4.9,3.4-7.5,2.2c-2.6-1.1-4.2-4.3-3.5-7C145.5,182.2,138.5,180.6,134.2,176.3z"/>
		</g>
		<path class="st4" d="M21.3,121.6c9.6-16.2,27-26.7,44.4-26.7c0.6,0,1.3,0,1.9,0c11.1,0.5,22.2,5.4,30.3,13.3
			c8,7.9,13.1,18.5,14.4,29.8c0.4,3.6,0.4,7.2,0.4,10.7c0,2.7,0,5.4,0.2,8.1c0.5,7.4,2.3,12.8,5.6,16.8c2.7,3.3,7.1,5.4,11,5.4
			c1,0,2-0.1,2.9-0.4c-0.1,0.3-0.1,0.5-0.2,0.8c-2.1,8.5-7.8,15.9-13.5,22.3c-7.4,8.3-15.8,16-20.4,26.2c-1.5,3.3-2.5,6.9-3.5,10.5
			c-0.3,0.7-0.6,1.3-0.9,1.9c-0.4,0.8-1,2.3-2.4,2.9c-0.4,0.2-0.9,0.3-1.3,0.3c-1.4,0-2.9-0.9-4.2-2.6c-0.5-0.6-0.9-1.2-1.3-1.8
			l-1.1-1.5l-0.1,1.9c-0.1,2.8-0.6,5.6-1.4,8.1c-0.1,0.4-0.4,0.7-0.8,0.8c-0.1,0-0.3,0.1-0.4,0.1c-0.3,0-0.5-0.1-0.8-0.3
			c-9.3-7-16.2-17.8-18.9-29.5l0-0.1l0-0.1c-2.4-4.2-4.4-8.7-6.1-13.6L54,205c-0.2,9.3,1.9,18.7,7.1,30.2c0.2,0.6,0.1,1.2-0.4,1.6
			c-0.2,0.2-0.5,0.2-0.7,0.2c-0.3,0-0.6-0.1-0.9-0.3c-8.7-8.2-15.6-16.9-20.5-25.9l-1.1-2l-0.1,2.3c0,0.5-0.3,0.9-0.7,1.1
			c-0.2,0.1-0.4,0.1-0.6,0.1c-0.3,0-0.6-0.1-0.8-0.3c-12.8-10.4-18.5-25.6-20.9-36.5C10,156.1,12.5,136.5,21.3,121.6z"/>
		<path class="st5" d="M91.1,142.5c7.3,5,11.4,14.2,10.4,23c-14-2-28,7.2-34.7,19.8c-5.3,9.9-6.5,21.4-5.6,32.8
			c-2.3-4.1-4.3-8.5-5.9-13.2L54,205c0,0.2,0,0.3,0,0.5c-2.5-7.7-4.3-15.5-4.6-23.6C48.5,161.3,65.6,125,91.1,142.5z"/>
		<path class="st3" d="M60.4,131.9c12.8-2.9,26.8,3.1,34.9,13.5c-4.9-5.6-13.2-7.5-20.4-5.6c-7.2,2-13.1,7.3-16.8,13.8
			c-3.7,6.5-5.2,13.9-5.6,21.4c-0.6,10.8,1,21.5,3.5,32c-0.3-0.7-0.5-1.4-0.8-2.2L54,205c-0.2,9.3,1.9,18.7,7.1,30.2
			c0.2,0.6,0.1,1.2-0.4,1.6c-0.2,0.2-0.5,0.2-0.7,0.2c-0.3,0-0.6-0.1-0.9-0.3c-8.7-8.2-15.6-16.9-20.5-25.9l-1.1-2l-0.1,2.1
			c-0.6-1.5-1.1-3.1-1.5-4.8c-1.9-7-3.4-14.2-4.2-21.4c-1.1-10.9-0.1-22.3,4.6-32.2C40.9,142.6,49.7,134.3,60.4,131.9z"/>
		<g>
			<path class="st6" d="M223.4,117.1c0.4-3.8,0.2-7.7,1.2-11.3s3.5-7.3,7.3-8c4.4-0.9,8.6,2.5,11.2,6.2c3,4.1,5,8.9,6.1,13.8
				c0.5,2.4,0.8,5.1,2.6,6.9c1.5,1.5,3.6,2,5.6,2.7c2.3,0.9,4.4,2.3,5.7,4.4c1.2,2.1,1.2,5-0.6,6.7c-2,2-5.4,1.7-8.2,2.3
				c-4,1-7.2,4.5-7.8,8.6c-5.6-4.8-12.5-9.9-19.6-8.1c-2.3,0.6-4.4,1.9-6.6,2.7c-2.2,0.9-4.8,1.2-6.9,0.1c-3.2-1.8-3.5-6.4-1.8-9.6
				c1.8-3.2,5.1-4.5,7.5-7.1C221.6,124.7,223,120.8,223.4,117.1z"/>
			<path class="st7" d="M147.1,333.1l-0.1-0.2l-0.4,0.2l0.3-0.3c-0.1-0.1-0.2-0.2-0.3-0.4c-0.8-1-1.5-2.1-1.8-3.3
				c-1.2-4.4,0.8-9.5,5-13c3-2.5,6.6-3.9,9.8-5.1l0.4-0.1l0.1-0.4c0.6-3.4,0.9-6.7,0.9-10c0-1-0.1-1.7-0.4-2.1
				c-0.2-0.2-0.5-0.4-0.8-0.5c3.3-1.2,6.8-2.1,10.2-2.9c3.6,3,9.9,1.2,11.5-3.2c4.3,2.7,9.8,1.7,14.8,0.6c17.5-3.8,35-7.7,52.5-11.5
				c4.6,3.1,8.8,1.6,12.9-0.5c-1.1,2.8-1.4,5.7-0.5,8.2c1.1,3.4,3.9,5.6,8.2,6.4c1.1,0.2,2.2,0.3,3.3,0.3c4.1,0,8.1-1.2,11.6-2.4
				c2-0.7,5.3-1.8,8.5-1.8c2.8,0,5,0.8,6.7,2.5c0.4,0.4,0.7,0.8,1.1,1.4l0.2,0.3l0.3,0c4.5,0.2,8.6,3.5,9.9,7.7
				c0.5,1.6,0.5,3.4,0.2,5.2l-0.1,0.3l0.2,0.2c0.2,0.2,0.4,0.6,0.5,0.9c0.7,2.6,0.3,5.8-1.1,7.7c-0.1,0.2-0.4,0.3-0.7,0.3
				c-0.2,0-0.3-0.1-0.3-0.2c0-0.1-0.7-1.9-0.7-1.9l-0.7,1.2c-0.5,1-1.2,1.9-2,2.6l-0.2,0.2l0,0.2c0,0.4-0.1,0.7-0.4,1
				c-0.7,1-1.4,2-2.1,3l-0.4,0.5c-0.6,0.9-1.1,1.6-1.9,1.9c-0.5-0.7-0.5-1.5-0.5-2.6l0-1.3l-0.8,0.1c-0.6,0.1-1.1,0.1-1.7,0.1
				c-0.8,0-1.6-0.1-2.3-0.2c-3.7-0.8-6.5-3.3-9.2-5.8l-1.1-0.9c-2.4-2.1-7.4-5.2-10.8-5.4c-3,0.1-5.9,0.8-8.4,2.2
				c-2.7,1.4-4.9,3.4-7.4,5.5c-0.7,0.6-1.4,1.2-2.1,1.8c-2.9,2.4-6.8,5.2-11.4,5.8c-0.5,0.1-1,0.1-1.6,0.1c-2.7,0-5.4-0.9-7.4-2.5
				l-0.8-0.6l-0.2,1c-0.2,0.7-0.4,1.2-0.7,1.4c-0.1,0.1-0.2,0.1-0.2,0.1c0,0-0.1,0-0.2,0c-0.5-0.2-1.3-1.1-1.1-4.4
				c0-0.6,0.1-1.2,0.2-1.7l0-0.1l0-0.1c-1.1-4.5,1.7-8.9,4.8-11.2c2-1.5,4.5-2.5,7.6-3.2l1-0.2l-0.6-0.8c-4-5.4-10.7-9.2-18.8-10.6
				c-3.3-0.6-7.4-0.9-12.2-0.9c-6.4,0-12.4,0.5-15.5,0.9l-0.1,0l-0.1,0c-5.8,2.4-10.8,5.3-15.1,8.7c-2.6,2.1-4.1,4.9-3.9,7.2
				c0.2,1.6,1.2,2.8,3.1,3.8c1.5,0.7,3.2,1,5.8,1c0.7,0,1.5,0,2.3-0.1c0.9,0,1.8-0.1,2.7-0.1c1.8,0,4.2,0.1,6.5,1.1
				c4.8,2.1,7.5,8,6.1,13.1c-0.7,2.4-2.2,4.7-4.4,6.3l-0.2,0.1l-0.1,0.2c-0.3,1.1-0.6,1.8-1.5,2.6c-0.1,0.1-0.2,0.1-0.2,0.1
				c0,0,0,0,0,0c-0.2-0.1-0.3-0.2-0.5-0.3c-0.3-0.2-0.5-0.3-0.8-0.6l-0.3-0.3l-0.4,0.1c-1.1,0.3-2.2,0.5-3.3,0.5c-5,0-10-3.3-12-8.1
				c-1.2-2.7-1.8-3.4-2.3-3.5l-0.3-0.1l-0.2,0.2c-0.4,0.3-0.6,1.3-0.3,2.1c0.3,0.7,0.8,1.4,1.4,2.1c0.4,0.5,0.8,1,1.1,1.5
				c1.5,2.3,1.8,5.3,0.9,8.2c-1,3.1-3.2,5.6-5.9,6.7c-1.3,0.6-2.7,0.8-4.2,0.8l-0.4,0l-0.2,0.4c-0.2,0.6-0.5,0.9-1,1.3
				c-0.1,0-0.2,0.1-0.4,0.1c-0.2,0-0.3,0-0.4-0.1c-0.6-0.5-0.9-1-1.2-1.9l-0.1-0.3l-0.3-0.1c-3-1-5.4-3.1-6.9-5.7
				c-1.3-2.4-1.9-5.4-1.5-8.3l-1.2-0.4c-0.8,1.2-1.7,2.6-3.2,3.6c-1.1,0.7-2.4,1.1-3.7,1.1c-1,0-2-0.2-3-0.6l-0.1,0l-0.5-0.2
				l-0.3,0.5l-0.1,0.1c0,0.1-0.1,0.1-0.1,0.2c0,0.1-0.1,0.1-0.2,0.1c-0.1,0-0.2,0-0.3-0.1c-0.5-0.5-1-1-1.3-1.5
				C147.4,333.8,147.3,333.5,147.1,333.1z"/>
		</g>
		<g>
			<path class="st8" d="M140.4,274.9c12.8-7,24-17.9,29.2-31.6c5.2-13.7,3.7-30.3-5.8-41.4c3.4,1.8,5.1,5.6,6.6,9.1
				c1.6,3.5,3.5,7.2,7.1,8.7c3.1,1.2,7.3-0.7,7.8-3.7c0.3,6.6,0.9,13.4,4.9,18.6c4.3,5.5,13.9,7.4,18,1.7
				c-0.6,6.6,4.9,13.1,11.5,13.5c6.6,0.5,13-5.2,13.3-11.8c2,4.1,7.2,6.3,11.6,4.9c4.3-1.4,7.2-6.3,6.4-10.8
				c0.3,2.7,2.1,5.2,4.5,6.5c2.4-3.5,2.9-8.2,1.6-12.3c1.5,2.6,4.4,4.4,7.4,4.4c-1.5-6.7-3-13.4-4.5-20.1c2.4,4.2,4.9,8.5,8.4,11.8
				c3.5,3.3,8.3,5.7,13.1,5.2c4.5-0.5,8.7-4,9.3-8.4c0.2,2.8,3.7,5,6.6,4.1c3.2-1.1,4.9-4.8,4.7-8.1c-0.2-3.3-1.8-6.4-3.6-9.3
				c2.1,1.8,4.3,3.5,6.4,5.3c1-3.9,0.8-8.1-0.7-11.8c0.9,1.1,2.7,1.3,3.8,0.3c0.2-6.4-1.4-11.8-3.9-17.2c0.9,1.1,1.7,2.4,2.5,3.7
				l0.1,0.2l0.2,0.1c11.6,3.5,20.5,14.8,21.7,27.6c1.1,11.9-4.3,24.9-14.1,33.7c-10.7,9.7-23.8,13-33,14.1l-0.2,0L281,262
				c-1.8,1.8-3.7,3.5-5.6,4.9c-1,0.8-2,1.5-3.1,2.3c-2.8,2-5.4,4-7.6,6.4c-3.5,3.9-4.9,9-3.6,13c0.3,0.9,0.8,1.8,1.3,2.5
				c-4.4,3.7-8.3,7.9-11.3,12.9c-2.2,0.2-4.4,0.4-6.6,0.6c0.6-0.2,1.2-0.3,1.8-0.5l1-0.2l-0.6-0.8c-4-5.4-10.7-9.2-18.8-10.6
				c-3.3-0.6-7.4-0.9-12.2-0.9c-6.4,0-12.4,0.5-15.5,0.9l-0.1,0l-0.1,0c-5.8,2.4-10.8,5.3-15.1,8.7c-2.6,2.1-4.1,4.9-3.9,7.2
				c0.2,1.6,1.2,2.8,3.1,3.8c1.5,0.7,3.2,1,5.8,1c0.3,0,0.7,0,1,0c-4.2,2.8-7.7,7-8.8,11.7c-0.2-0.3-0.5-0.4-0.7-0.4l-0.3-0.1
				l-0.2,0.2c-0.4,0.3-0.6,1.3-0.3,2.1c0.2,0.6,0.7,1.2,1.1,1.8c0,0.2,0,0.4,0,0.6c-1.9-4.1-6.4-6.8-10.9-6.6
				c-4.5,0.2-8.7,3.4-10.3,7.6c1.2-3.6,2.5-7.4,2-11.2c-0.4-3-2.2-5.9-4.8-7.2c0.6-0.2,1.2-0.5,1.8-0.7l0.4-0.1l0.1-0.4
				c0.6-3.4,0.9-6.7,0.9-10c0-1-0.1-1.7-0.4-2.1c-0.3-0.4-0.9-0.6-1.8-0.8c-9.7-2.9-18.5-9-24.7-17l-0.3-0.4l-0.4,0.2
				c-0.8,0.3-1.7,0.6-2.5,0.9C133.4,278.6,137.1,276.7,140.4,274.9z"/>
			<path class="st8" d="M79.8,198c0.5-6.7,4.1-12.8,8.8-17.5c4.7-4.8,10.4-8.4,16.1-11.9c3-1.9,6-3.8,9.1-5.7
				c0.9,4.4,2.5,7.9,4.8,10.7c2.7,3.3,7.1,5.4,11,5.4c1.1,0,2.1-0.2,3.1-0.5l0.2-0.1l0.1-0.2c1.5-2.4,3.2-5.5,4.1-11.2
				c1-5.7-0.9-11.8-2.9-17c0.5-0.3,1.1-0.7,1.6-1c0.7,5.2,5.4,9.6,10.6,10c5.2,0.4,10.5-3.2,12-8.3c1.5,4.7,3.2,9.8,7.2,12.7
				c4,2.9,11,1.9,12.3-2.9c0.6,3.7,1.4,7.7,4.1,10.3c2.7,2.6,8.1,2.7,9.6-0.8c-0.4,3,2.9,5.7,5.9,5.3c3-0.3,5.5-2.8,6.9-5.5
				c0.8,3.9,4,7.1,7.8,7.9c3.9,0.8,8.1-1,10.3-4.2c0.1,2,1.6,3.8,3.5,4.2c1.9,0.5,4.1-0.5,5-2.2c-2.7,4.7-4.9,8.6-5.8,14
				c-0.7,4.5-0.4,10.1-3.8,13.6c-2.5,2.5-7.7,2.3-8.7-1.1c-1.1,3.6-4.6,6.4-8.3,6.7c-3.8,0.3-7.6-1.8-9.3-5.2
				c-2.1,2.4-5.8,3.4-8.9,2.3c-3.1-1.1-5.3-4.1-5.5-7.4c-3.2,3.9-10.3,3.1-12.7-1.3c-1,1.5-2,3.1-2.9,4.6
				c-5.1-5.6-13.4-7.3-20.9-6.2c-7.5,1-14.4,4.5-21.2,7.8c-7.3,3.6-14.9,7.6-19.5,14.2c3.4-5.6,6.4-11.4,8.9-17.4
				c1.1-2.6,2.1-5.6,1.1-8.3c-1.3-3.5-5.5-4.8-9.2-5.1C95,186.3,85.5,190.6,79.8,198z"/>
		</g>
		<g>
			<path class="st4" d="M227.1,185.1c1.4-4.5,3.9-8.2,5.6-12.5c1.9-4.5,4.1-8.9,6.7-13.1c0.6-0.9,1.4-1.9,2.4-1.6
				c0.5,0.1,0.9,0.6,1.2,1c2.4,3.2,4.5,5.7,8,7.6c3.4,1.8,7.5,2.9,9.2,6.3c1.5,3,0.4,6.8-1.7,9.3c-1.7,2-4.1,3.5-6.7,3.7
				c-2.6,0.2-5.4-1-6.6-3.2c-0.8,2.5-0.5,5.3-0.8,7.9c-0.2,2.7-1.1,5.5-3.3,7c-2.3,1.5-5.3,1.1-7.9,0.3c-2.5-0.7-5.1-1.9-6.4-4.1
				C225.5,191.3,226.2,188,227.1,185.1z"/>
			<path class="st4" d="M137.1,73.5c-0.5-1.6-0.1-3.8,1-5.4c0.4-0.6,0.9-1.2,1.4-1.8c1-1.2,1.8-2.2,2.1-3.4c0.3-1.4-0.3-2.8-1-4.5
				c-0.6-1.5-1.3-3.3-1.3-5.1c0.1-2.9,2.3-5.7,5.4-6.8c1.2-0.4,2.5-0.7,4-0.7c1.4,0,2.8,0.2,4.4,0.6c0.8,0.2,2,0.5,3,0.5
				c0.8,0,1.3-0.2,1.6-0.6c0.7-0.9,0-2.2-1.1-4.1c-0.3-0.5-0.6-1-0.8-1.5c-1.8-3.7-0.8-8.5,2.3-11.1c1.7-1.4,3.8-2.2,6.2-2.2
				c1.9,0,3.7,0.5,5.2,1.5c1.5,1,2.7,2.4,3.7,3.8c0.6,0.8,1.2,1.6,1.9,2.2c1.2,1.2,2.7,1.9,4,1.9c0.6,0,1.1-0.2,1.6-0.5
				c1.1-0.9,1.4-2.6,1.7-4.4l0.1-0.8c1.2-7.3,6.3-13.7,12.8-15.8c1.6-0.5,3.3-0.8,5-0.8c5.9,0,11.3,3.1,13.8,7.9
				c0.2,0.4,0.5,0.9,0.7,1.4c1,2.2,1.8,3.6,3.2,3.9c0.1,0,0.3,0,0.4,0c1.4,0,2.8-1.2,4.1-2.3l0.2-0.1c4.8-4.1,11-6.5,16.7-6.5
				c2.8,0,5.5,0.6,7.9,1.8c8.6,4.2,11.9,14.3,14.3,23.5c0.6,2.1,1.2,4.5,1,7c-0.2,2.9-1.7,5.4-3.9,6.5c-0.9,0.5-1.9,0.7-2.9,0.7
				c-2.8,0-5.8-1.7-9-4.8l-0.6-0.6c-2.8-2.8-5.7-5.8-9.3-6.6c-0.4-0.1-0.8-0.1-1.3-0.1c-13.1,0-4.7,20.7-11.1,25
				c-3.1,2.1-7.3,0.6-10.8-0.8c-21.1-8.3-45.3-8.1-66.2,0.4C144.1,71.9,140.6,73.5,137.1,73.5z"/>
		</g>
		<g>
			<path class="st0" d="M254.3,38.5c-2.6-3.4-5.9-6.6-9.7-8.6c-3.2-1.7-6.6-0.8-9.8-1.9c-0.1,0-0.2-0.2-0.2-0.3
				c0.8-4.6,7.9-3.8,11-2.4c5.4,2.5,7.3,7.7,9.3,12.9C255.1,38.6,254.5,38.8,254.3,38.5z"/>
			<path class="st0" d="M235.4,102.7c11.2,4.7,12.9,21,11.5,31.3c0,0.3-0.5,0.3-0.6,0c-1.7-5.3-2.7-10.8-4.4-16.1
				c-1.7-5.4-4.7-9.3-7.7-14.1C233.7,103.1,234.7,102.4,235.4,102.7z"/>
			<path class="st0" d="M250.8,170.8c0.7-0.2,1.1-0.3,1.8-0.1c0.7,0.2,1.3,0.5,1.9,0.9c1.2,0.7,2.7,1.8,2.9,3.2
				c0.2,1.3-1,2.4-2.3,1.7c-1-0.6-1.7-1.7-2.5-2.6c-0.4-0.4-0.8-0.7-1.2-1.1c-0.5-0.4-0.7-0.8-1-1.3
				C250.3,171.3,250.5,170.8,250.8,170.8z"/>
			<path class="st0" d="M239.2,187.6c0.1-0.8,1.1-0.6,1.4,0c0.8,1.9,1.6,4.2,0.5,6.2c-0.8,1.6-3,0.7-3.1-0.8
				c-0.1-0.9,0.3-1.9,0.6-2.8C238.9,189.3,239.1,188.5,239.2,187.6z"/>
		</g>
		<g>
			<ellipse class="st0" cx="256.9" cy="103.1" rx="6.4" ry="14.6"/>
			<path class="st0" d="M179.5,112.5c1.8,9.9,9.9,16.8,18.2,15.3c8.3-1.5,13.5-10.7,11.7-20.6c-1.8-9.9-9.9-16.8-18.2-15.3
				C182.9,93.4,177.7,102.6,179.5,112.5z"/>
		</g>
	</g>
	<g>
		<g>
			<path class="st9" d="M13.7,175.7c2.5,11,8.2,26.4,21.2,36.8c0.3,0.3,0.8,0.4,1.2,0.4c0.3,0,0.6-0.1,0.8-0.2
				c0.6-0.3,1-0.9,1.1-1.6c4.9,9.1,11.8,17.8,20.6,26.1c0.4,0.3,0.8,0.5,1.3,0.5c0.4,0,0.8-0.1,1.1-0.4c0.7-0.5,1-1.5,0.6-2.3
				c-4.9-11.1-7.3-20.3-7-30c1.7,4.9,3.8,9.5,6.1,13.7c2.7,11.8,9.5,22.6,19.1,29.9c0.3,0.3,0.7,0.4,1.2,0.4c0.2,0,0.4,0,0.6-0.1
				c0.6-0.2,1.1-0.7,1.2-1.2c0.8-2.7,1.3-5.5,1.4-8.3c0.4,0.6,0.9,1.2,1.3,1.8c1.5,1.9,3.1,2.9,4.7,2.9c0.5,0,1-0.1,1.5-0.3
				c1.6-0.7,2.3-2.3,2.7-3.2c0.6-1.3,1.3-2.7,2-4.2c0,0.3,0,0.7,0,1c-0.9,1.3-1.6,2.7-2.2,4.1c-3.5,8-4.5,19.1-3,27.9
				c-0.6,1.1-1.2,2.1-1.6,3.2c-2.2,5.2-1.1,8.3,0.2,9.9c1.7,2.1,4.4,2.7,7,3c3,0.3,5.9,0.5,8.9,0.5c9.6,0,19-1.7,27.6-5
				c6.3,8.1,15.1,14.2,25,17.2c0.6,0.2,1.3,0.4,1.5,0.6c0.3,0.3,0.3,1.3,0.3,1.7c0,3.3-0.3,6.6-0.9,9.9c-3.4,1.2-7,2.7-10,5.2
				c-4.4,3.7-6.4,9-5.2,13.7c0.3,1.3,1,2.5,1.9,3.5c0.1,0.2,0.3,0.4,0.5,0.6c-0.1-0.1-0.2-0.2-0.3-0.3c0.2,0.5,0.3,1,0.6,1.5
				c0.4,0.6,0.9,1.1,1.5,1.6c0.4,0.4,1.2,0.4,1.5-0.2c0.1-0.1,0.1-0.2,0.2-0.3c0.1,0,0.1,0.1,0.2,0.1c2.5,1,5.2,0.8,7.2-0.6
				c1.5-1,2.5-2.4,3.4-3.8c-0.4,3,0.1,6.1,1.6,8.7c1.6,2.9,4.3,5,7.2,6c0.3,0.9,0.6,1.7,1.4,2.3c0.4,0.3,1.2,0.3,1.6,0
				c0.6-0.4,0.9-1,1.2-1.5c1.5,0,3-0.3,4.4-0.9c2.9-1.2,5.2-3.9,6.2-7.1c1-3.1,0.6-6.2-1-8.7c-0.4-0.6-0.8-1.1-1.1-1.6
				c-0.5-0.7-1-1.3-1.3-1.9c-0.2-0.6-0.1-1.2,0.1-1.4c0.3,0.1,0.9,0.7,1.9,3.1c2.1,5,7.3,8.5,12.6,8.5c0,0,0.1,0,0.1,0
				c1.2,0,2.3-0.2,3.4-0.5c0,0,0,0,0,0.1c0.4,0.4,0.9,0.6,1.3,0.9c0.3,0.2,0.7,0.1,1-0.1c1.1-0.9,1.4-1.8,1.7-2.9
				c2.2-1.7,4-4,4.7-6.7c1.4-5.4-1.5-11.6-6.5-13.8c-3.1-1.3-6.4-1.2-9.4-1.1c-3,0.1-5.6,0.1-7.7-0.9c-1.7-0.8-2.6-1.9-2.8-3.3
				c-0.2-2,1.3-4.7,3.7-6.6c4.6-3.6,9.6-6.4,15-8.7c5.4-0.6,18.2-1.6,27.5,0c7.9,1.4,14.5,5.2,18.4,10.4c-2.7,0.6-5.5,1.6-7.8,3.3
				c-3.5,2.5-6.1,7.2-5,11.8c-0.1,0.6-0.2,1.2-0.3,1.8c-0.1,1.4-0.1,4.4,1.5,5c0.4,0.2,0.7,0.1,1-0.1c0.5-0.4,0.7-1.1,0.9-1.8
				c2.2,1.8,5,2.6,7.8,2.6c0.6,0,1.1,0,1.7-0.1c4.7-0.6,8.7-3.5,11.7-6c0.7-0.6,1.4-1.2,2.1-1.8c2.4-2,4.6-4,7.2-5.3
				c2.5-1.3,5.3-2,8.2-2.1c3.1,0.1,7.8,3,10.4,5.2c0.4,0.3,0.7,0.6,1.1,0.9c2.8,2.5,5.6,5.1,9.5,5.9c0.8,0.2,1.6,0.3,2.4,0.3
				c0.6,0,1.2,0,1.8-0.1c0,0.2,0,0.3,0,0.5c0,1.2,0,2.2,0.8,3.2c0.1,0.1,0.2,0.1,0.3,0.1c1.3-0.3,1.9-1.2,2.6-2.3
				c0.8-1.1,1.5-2.3,2.3-3.4c0.3-0.4,0.5-0.9,0.5-1.3c0.8-0.8,1.5-1.7,2.1-2.8c0.1,0.2,0.1,0.4,0.2,0.6c0.4,0.9,1.6,0.6,2.1,0
				c1.6-2.2,2-5.6,1.3-8.2c-0.1-0.5-0.4-0.9-0.6-1.2c0.4-1.8,0.3-3.7-0.2-5.5c-1.4-4.6-5.7-8-10.5-8.2c-0.3-0.5-0.7-1-1.1-1.5
				c-4.6-4.6-12.2-2.1-15.8-0.9c-4.5,1.5-9.7,3-14.6,2.1c-4-0.8-6.6-2.8-7.7-6c-1.3-3.8,0.1-8.7,3.4-12.4c2.2-2.4,4.8-4.3,7.5-6.3
				c1-0.8,2.1-1.5,3.1-2.3c2-1.6,3.9-3.2,5.7-5c9.5-1.1,22.6-4.6,33.3-14.3c9.9-9,15.4-22.1,14.3-34.2c-1.2-13-10.4-24.6-22.1-28.1
				c-2.3-3.9-5.2-7.1-7.5-9.2c-2.6-2.5-5.5-4.8-8.2-7.1c-4.4-3.6-8.6-7-12-11.1c-5-6.1-8.2-15.2-4.7-22.3l2.5,0c1,0,1.8-0.7,1.9-1.7
				c0.2-2.3-0.4-4.6-1.6-6.6l3.4-0.7c0.8-0.2,1.4-0.8,1.5-1.5c0.1-0.8-0.2-1.5-0.9-2c-7.2-4.4-14.3-9.3-17.5-16.1
				c-0.4,1.6-1,3.2-1.9,4.5c3.2,4.9,8.1,8.8,13.4,12.3l-2,0.4c-0.7,0.2-1.3,0.7-1.5,1.5c-0.2,0.7,0.1,1.5,0.7,1.9
				c1.3,1,2.2,2.5,2.5,4.1l-1.7,0c-0.7,0-1.3,0.4-1.7,0.9c-5.2,8.9-1.5,20.3,4.6,27.6c2.9,3.5,6.2,6.5,9.7,9.3
				c0.1,0.3,0.2,0.6,0.1,0.9c0,0.3-0.1,0.5-0.3,0.7c-0.4,0.3-1.1,0.3-1.7,0.3c-2.5-0.1-5.1-0.7-7.4-1.8c-0.5-0.2-1.1-0.1-1.5,0.3
				c-0.4,0.4-0.4,1.1-0.1,1.5c2,3,3.5,6.5,4.3,10c0.2,1,0.4,2.1,0.1,2.9c-0.3,0.7-0.9,1.1-1.3,1.3c-1,0.4-2.2,0.4-3.2,0
				c-2-0.8-3.5-2.7-4.8-4.4c-0.4-0.5-1-0.6-1.6-0.4c-0.5,0.3-0.8,0.9-0.7,1.5c0.7,2.6,1.4,5.5,0,7.4c-1.3,1.9-4.3,2.1-6.4,1.3
				c-2-0.8-3.8-2.3-5.3-3.9c2.6-1.5,4.7-4.2,5.9-7.6c1.5-4.1,1-7.9-1.1-10.3c-1.5-1.7-3.6-2.3-5.4-2.9c-0.4-0.1-0.9-0.3-1.3-0.4
				c-5.7-2.1-10.7-7.7-13.9-12.7c0.2,0.4,0.1,1.8,0.2,2.3c0.2,1,0.5,1.9,1,2.8c0.7,1.5,1.4,3.1,2.4,4.4c2.2,3,5.5,5.4,9.1,6.7
				c0.5,0.2,0.9,0.3,1.4,0.5c1.5,0.5,2.9,1,3.8,1.9c1.8,1.9,0.7,5.4,0.4,6.4c-0.5,1.5-2.2,5.1-5.5,6.2c-1.3,0.4-2.8,0.2-4-0.6
				c-0.5-0.3-1.4-1-1.5-2.2c-0.1-0.8-0.8-1.5-1.6-1.6c-0.8-0.1-1.7,0.3-2,1.1c-1.1,2.4-0.8,5.1-0.6,7.5c0.2,2.4,0.5,4.6-0.7,6
				c-1.3,1.6-4.1,1.7-6.8,1.6c-4.9-0.2-7.8-1.3-8.5-3.4c-0.5-1.4,0.1-5.1,0.6-6.9c2.3-8.2,3.5-11.7,6.7-17.8
				c-4.7,5-7.8,11.8-10.2,18.4c-0.1,0.4-0.3,0.8-0.4,1.3l-2.2-0.9c-0.5-0.2-1.1-0.1-1.4,0.3c-0.4,0.4-0.4,1-0.2,1.5
				c0.6,1,0.5,2.3,0,3.5c-0.6,1.2-1.6,2.1-2.7,2.3c-1.1,0.2-2.4-0.2-3.4-1.1c-1-0.9-1.5-2.1-1.4-3.2c0.1-0.7-0.4-1.3-1.1-1.4
				c-0.7-0.1-1.3,0.3-1.5,1c-0.7,2.9-1.4,6.2-3.4,8.4c-1.7,1.9-5.1,2.9-7,1.3c-1.8-1.5-2-4.4-0.7-9.1c0.2-0.6-0.2-1.3-0.8-1.6
				c-0.6-0.2-1.3,0.1-1.6,0.7c-0.8,1.7-2.2,4.1-4.5,5.2c-2.1,1-4.6,0.7-5.9-0.7c-0.7-0.7-1-1.8-0.9-2.9l0-0.1
				c0.7-0.8,1.2-1.7,1.6-2.4c0.3-0.5,0.2-1.1-0.2-1.5c-0.4-0.4-1.1-0.5-1.5-0.2c-1.1,0.6-1.9,1.7-2.2,3c-0.9,1-2.1,2-3.5,2.6
				c-2.3,0.9-4.9,0.6-6.4-0.9c-0.6-0.6-1-1.4-1.2-2.4c0.8-1.2,1.3-2.6,1.4-4.1c0-0.5-0.3-1-0.7-1.2c-0.5-0.2-1-0.1-1.4,0.2
				c-1.2,1.1-1.8,2.6-1.8,4.3c-0.4,0.4-0.8,0.7-1.3,1c-1.6,0.7-3.6,0.3-4.5-1c-0.4-0.6-0.6-1.5-0.4-2.3c0-0.1,0-0.1,0.1-0.2
				c0.6-0.6,1.2-1.2,1.6-1.8c0.3-0.5,0.3-1.1-0.1-1.6c-0.4-0.4-1-0.6-1.5-0.3c-0.9,0.4-1.6,1.2-2.1,2.1c-1.9,1.5-4.6,2.3-6.8,1.2
				c-1.4-0.6-2.4-2.2-2.6-3.9c-0.1-0.8,0-1.6,0.3-2.2c0.5-0.5,0.9-1,1.2-1.6c0.3-0.5,0.2-1.2-0.3-1.6c-0.5-0.4-1.2-0.4-1.6,0
				c-0.6,0.5-1,1-1.4,1.7c-0.9,0.8-2,1.4-3.3,1.6c-1.9,0.4-3.8,0-5.2-1c-1.3-1-2.4-2.8-2.9-4.8c0.7-1.9,1.3-4.1,1.8-6.8
				c1.3-7.4-1.6-14.8-3.8-20.8c-0.8-2.1-1.7-4.3-2.6-6.4c-1.7-4.1-3.4-8.3-4.6-12.5c-5.2-18.3-0.2-38.8,12.6-52.8
				c23.2-12.7,52.2-13.4,76-1.7c1.6,0.8,3.6,1.8,5.8,1.3c2-0.4,5.2-2.2,5.2-9.2c5.7,0.9,11.4,2.1,16.6,4.6
				c6.6,3.2,11.1,8.2,12.5,13.8c0.4,1.7,0.6,3.4,0.6,5.1c1.4-0.4,3.1,0.1,3.6,1.9c0.1,0.2,0.1,0.4,0.2,0.6c0.1-2.9,0.1-5.8-0.7-8.6
				c-1.7-6.7-7-12.6-14.6-16.3c-5.9-2.8-12.2-4-18.4-5c-0.1-4,0.1-8.3,1.5-12.2c0.4-0.5,0.8-0.9,1-1.1c1.4-1.4,3.7-2,5.5-1.6
				c3.5,0.8,6.3,3.6,9,6.4l0.6,0.6c4.5,4.6,9,6.1,12.6,4.3c2.4-1.2,4-3.9,4.3-7c0.2-2.6-0.4-5-1-7.2c-2.5-9.3-5.8-19.6-14.7-23.9
				c-8.6-4.2-18.9-0.6-25.3,4.8l-0.2,0.1c-1.3,1.1-2.8,2.4-4,2.2c-1.1-0.2-1.8-1.5-2.7-3.5c-0.2-0.5-0.5-1-0.7-1.4
				c-3.5-6.6-12.1-9.9-19.5-7.4c-6.7,2.2-12.1,8.8-13.3,16.3l-0.1,0.8c-0.2,1.7-0.5,3.3-1.4,4c-1.2,0.9-3.4,0-4.7-1.4
				c-0.7-0.6-1.2-1.4-1.9-2.2c-1.1-1.4-2.3-2.8-3.9-3.9c-3.6-2.4-8.8-2.1-12.1,0.7c-3.3,2.9-4.3,8-2.4,11.9c0.2,0.5,0.5,1,0.8,1.6
				c0.9,1.6,1.5,2.8,1.1,3.4c-0.5,0.7-2.7,0.1-3.9-0.2c-3.3-0.9-6.3-0.8-8.7,0.1c-3.3,1.2-5.7,4.2-5.8,7.4c-0.1,2,0.7,3.8,1.3,5.4
				c0.6,1.5,1.2,2.9,1,4.1c-0.2,1.1-1,2-1.9,3.2c-0.5,0.6-1,1.2-1.4,1.9c-1.2,1.8-1.6,4.1-1.1,5.9c0.1,0.4,0.3,0.8,0.6,1.2
				c-12.1,14.9-16.6,35.5-11.4,54.1c1.3,4.5,3,8.8,4.8,12.9c0.8,2,1.7,4.2,2.5,6.3c2.1,5.6,4.7,12.5,3.7,18.8c-0.9,5.1-2.3,8.2-4,11
				c-4.9,1.5-10.4-1.2-13.4-4.7c-3.2-3.8-5-9.2-5.5-16.4c-0.2-2.7-0.2-5.4-0.2-8.1c0-3.5,0-7.2-0.4-10.8
				c-1.3-11.5-6.5-22.3-14.6-30.2c-8.2-8.1-19.4-13-30.7-13.5c-18-0.8-36.8,10-46.9,27C11.9,136.3,9.3,156.1,13.7,175.7z
				 M140.6,71.4l-0.3-0.3c-0.1,0.1-0.2,0.2-0.2,0.3c0.1-0.5,0.3-1,0.6-1.5c0.3-0.5,0.8-1,1.2-1.6c1.1-1.3,2.3-2.9,2.7-4.9
				c0.4-2.3-0.4-4.4-1.2-6.2c-0.6-1.4-1.1-2.6-1-3.8c0.1-1.6,1.4-3.3,3.3-4c1.7-0.6,3.9-0.6,6.5,0c2.2,0.6,5.8,1.5,7.9-1.2
				c2-2.6,0.3-5.5-0.8-7.5c-0.3-0.5-0.5-0.9-0.7-1.3c-1.2-2.4-0.5-5.6,1.5-7.3c2-1.7,5.3-1.9,7.5-0.5c1.1,0.8,2,1.9,3,3.1
				c0.7,0.8,1.4,1.7,2.2,2.5c2.6,2.6,6.7,4,9.7,1.7c2.2-1.7,2.6-4.4,2.9-6.5l0.1-0.8c1-6.2,5.3-11.5,10.7-13.3
				c5.7-1.9,12.4,0.6,15,5.6c0.2,0.4,0.4,0.8,0.6,1.3c1.1,2.2,2.4,5,5.4,5.6c3,0.6,5.5-1.5,7.3-3l0.2-0.1c5.4-4.6,14.1-7.8,21.1-4.3
				c7.4,3.6,10.4,13,12.7,21.4c0.5,2,1.1,4,0.9,5.9c-0.1,1.8-1,3.3-2.2,3.9c-2.8,1.4-6.6-2-8.1-3.5l-0.6-0.6c-3-3-6.3-6.5-10.9-7.5
				c-1.2-0.3-2.6-0.3-3.9,0c2.7-3.6,6.6-6.3,13.5-5c-5.5-5.3-14.9-0.4-18.6,5.7c-3.8,6.4-3.9,13.9-3.6,20.5c0.1,1.5,0.2,6.2-2.1,6.7
				c-0.9,0.2-2.2-0.4-3.3-1C194.8,57.8,164.8,58.4,140.6,71.4z M285.6,258c7.9-9.7,12.2-21.3,11.8-32.3c2,0.3,4.3-0.2,5.8-2
				c1.9-2.5,2.1-6.2,0.5-10.3c-0.2-0.6-0.5-1.2-0.8-1.8c-0.1-0.3-0.3-0.6-0.4-0.9l2.4,2c0.5,0.4,1.3,0.5,1.9,0.3
				c0.6-0.3,1.1-0.8,1.2-1.5c0.3-2.5,0.2-5.1-0.5-7.6l0.5,0.3c0.5,0.3,1.2,0.3,1.7,0c0.6-0.3,0.9-0.8,1-1.4c0.7-4.2,0-8.1-1.3-11.6
				c8.5,4.1,14.9,13.3,15.9,23.4c1,11-4,22.9-13,31.1C305.4,251.6,296,256,285.6,258z M298.6,313.5c0.5-0.3,1-0.7,1.4-1.2
				c0,0.1,0.1,0.1,0.1,0.2c0.7,0.8,2.3,0.6,2.7-0.4c0.9-2,1-3.7,0.1-5.7c-0.1-0.3-0.3-0.6-0.4-0.9c0-0.5,0.1-1,0.1-1.5
				c0.1-1.7,0.1-3.5-0.2-5.2c2.5,0.7,4.6,2.7,5.3,5.2c0.4,1.4,0.3,2.9-0.1,4.3c-0.6,0.5-1.1,1.3-1,2.2c-0.5,0.8-1.2,1.5-2,2.1
				C303,313.7,300.7,314,298.6,313.5z M289.6,314.7C289.7,314.7,289.7,314.7,289.6,314.7c1.3,0.3,2.5,0.4,3.7,0.4
				c2,1.7,4.6,2.5,7.2,2.5c0.2,0,0.4,0,0.6,0c-0.4,0.5-0.7,1-0.8,1.7c-1.2,0.3-2.4,0.3-3.5,0C294.2,318.7,291.9,316.8,289.6,314.7z
				 M24,123.2c9.3-15.8,26.8-25.9,43.4-25.1c10.4,0.5,20.7,5,28.2,12.4c7.5,7.3,12.3,17.3,13.5,27.9c0.4,3.4,0.4,6.9,0.4,10.4
				c0,2.7,0,5.5,0.2,8.3c0.5,8.1,2.6,14.1,6.4,18.6c3.1,3.7,8.2,6.5,13.4,6.5c-2.7,3.8-5.9,10.1-7.1,18c4.4-8.4,8-12.8,10.6-16.3
				c1.5-2,2.9-3.9,4.1-6.3c0.7,1.5,1.7,2.8,2.9,3.6c2,1.5,4.6,2,7.2,1.5c0.7-0.1,1.4-0.4,2.1-0.6c0,0.2,0,0.4,0.1,0.6
				c0.3,2.6,1.9,4.9,4.1,5.9c2.4,1.1,5.1,0.8,7.4-0.2c0.1,0.8,0.4,1.6,0.9,2.3c1.6,2.3,5,3.1,7.7,1.8c0.3-0.1,0.5-0.3,0.8-0.4
				c0.3,0.8,0.8,1.6,1.5,2.2c2.3,2.2,5.9,2.7,9.2,1.4c0.9-0.4,1.8-0.9,2.5-1.5c0.3,0.9,0.7,1.7,1.4,2.4c2.1,2.2,5.8,2.7,8.8,1.3
				c0.9-0.4,1.7-1,2.4-1.6c0,2.3,0.6,4.5,2.5,6.1c1.2,1,2.6,1.4,4.1,1.4c2.4,0,4.9-1.2,6.5-3c1.4-1.6,2.3-3.5,2.9-5.4
				c0.2,0.3,0.5,0.6,0.8,0.8c1.6,1.4,3.7,2.1,5.6,1.7c1.9-0.4,3.6-1.8,4.5-3.7c0.5-1,0.7-2,0.7-3.1l0.2,0.1
				c-0.2,1.2-0.1,2.4,0.3,3.6c1.9,5.7,9.5,6,11.9,6.1c0.5,0,1,0,1.6,0c2.6,0,6.2-0.4,8.4-3.1c2.1-2.6,1.8-5.9,1.5-8.8
				c0-0.4-0.1-0.8-0.1-1.2c1.9,1.2,4.4,1.6,6.6,1.1c1.9,2,4.1,4.2,7,5.2c1,0.4,2.2,0.6,3.3,0.6c2.3,0,4.6-0.8,6-2.8
				c1.1-1.5,1.3-3.2,1.3-4.9c0.8,0.7,1.7,1.3,2.7,1.7c1.6,0.7,3.6,0.6,5.2,0c1.3-0.6,2.2-1.5,2.7-2.7c0.6-1.5,0.4-3.1,0.1-4.4
				c-0.6-2.7-1.6-5.3-2.8-7.7c1.6,0.4,3.2,0.7,4.9,0.8c1.1,0.1,2.3,0,3.4-0.8c0.5-0.4,0.9-1,1.1-1.6c0.1,0.1,0.3,0.2,0.4,0.3
				c2.7,2.2,5.5,4.5,8,6.9c4,3.8,10.3,11.2,10.3,19.8l-2.8-1.5c-0.8-0.4-1.7-0.2-2.3,0.4c-0.6,0.6-0.7,1.6-0.2,2.3
				c1.3,2,2.1,4.3,2.3,6.6l-3.7-3c-0.6-0.5-1.3-0.6-2-0.3c-0.7,0.3-1.1,0.9-1.1,1.7c-0.1,2.7,0.9,5.2,1.9,7.5
				c0.2,0.6,0.5,1.1,0.7,1.7c0.6,1.7,1.5,4.8,0.1,6.6c-0.5,0.7-1.7,0.8-2.5,0.5c-0.4-0.1-0.5-0.3-0.6-0.4c0-0.2-0.1-0.4-0.1-0.6
				c-0.2-1-1.1-1.7-2-1.6c-1,0.1-1.8,0.9-1.8,1.9c0,0.4,0.1,0.8,0.2,1.2c2.1,14.7-5.6,31.2-19.8,42.2c-1,0.8-2,1.5-3,2.2
				c-2.8,2-5.7,4.1-8.1,6.8c-2.7,3-4.4,6.6-4.8,10.2c-1.1,0.9-2.1,1.6-3.4,2.2c-3,1.4-6,2.3-9.2,3.2c-0.1,0-0.1,0.1,0,0.1
				c4.1,0.8,9,0,12.5-2.5c0.1,1,0.3,2,0.6,2.9c0,0.1,0.1,0.2,0.2,0.4c-0.5,0.6-1,1.3-1.6,1.9c-1.5,1.5-3.6,2.6-5.7,3.2
				c-0.1,0-0.1,0.2,0,0.2c2.3,0.3,4.3,0,6.4-1.2c0.6-0.3,1.5-0.9,2.2-1.5c0.4,0.7,1,1.3,1.5,1.8c-2,2.7-2.6,6.4-1.2,9.5
				c0,0,0.1,0,0.1,0c0.5-2.9,1.6-5.4,3.4-7.7c1.2,0.7,2.6,1.3,4.1,1.7c-0.1,0.7-0.1,1.4-0.1,2c0.1,1.8,0.5,3.5,1.4,5.1
				c0.1,0.2,0.5,0.1,0.4-0.2c-0.6-2-0.7-4.5,0.1-6.5c1.9,0.3,3.7,0.3,5.5,0.2c0,1.9,0.7,3.9,2,5.4c0.1,0.2,0.4,0,0.3-0.2
				c-0.8-1.8-0.9-3.6-0.2-5.4c1.7-0.3,3.4-0.7,5-1.1c-0.1,2.4,1.1,5,2.1,7c0,0.1,0.1,0,0.1-0.1c-0.9-1.9-1.1-4.2-0.8-6.2
				c0.1-0.5,0.2-0.9,0.4-1.3c0.5-0.2,1.1-0.3,1.6-0.5c1.5-0.5,3.1-1,4.7-1.3c-0.1,0.2-0.2,0.4-0.3,0.6c-1.4,3-1.5,6.2-0.7,9.3
				c0,0.2,0.3,0.1,0.2-0.1c-0.4-2.7,0-5.4,1.4-7.8c0.6-1,1.3-1.7,2-2.4c1.8,0,3.4,0.4,4.6,1.5c1.1,1.1,1.5,2.7,1.7,4.4
				c-2.6-1.4-6,2.4-3.5,4.9c1,1.1,1.8,2.2,2.4,3.5c0,0,0,0,0,0c-0.2,0.3-0.3,0.5-0.5,0.8c-1.6,1.8-4.5,1.9-6.7,1.4
				c-1.5-0.3-3-0.9-4.6-1.6c-1.3-0.5-2.6-1-4-1.5c-2.2-0.6-4.6-0.9-6.9-0.8c-0.5,0-0.9,0-1.3,0.1l0,0c-3,0.3-5.9,1.1-8.5,2.5
				c-3,1.6-5.5,3.7-7.9,5.8c-0.7,0.6-1.4,1.2-2.1,1.8c-2.6,2.1-6,4.6-9.8,5.1c-2.4,0.3-5.4-0.4-7.1-2.3c0.5-0.6,1.1-1.1,1.6-1.6
				c2.3-1.9,0.1-5.1-2.2-5.4c0.3-0.6,0.6-1.1,1-1.6c0.5-0.1,1-0.2,1.5,0c1,0.3,1.8,1.1,2.7,1.7c1.6,1.3,3.3,2.6,4.4,4.4
				c0,0.1,0.1,0,0.1,0c-1.1-2.8-2-5.3-4.4-7.2c-0.5-0.4-1-0.7-1.6-1c0.7-0.3,1.8-0.8,3-1.3c1,0.2,1.9,0.6,2.9,1.5
				c1.5,1.4,2.8,3.3,3.9,5c0.1,0.2,0.4,0.1,0.3-0.1c-0.8-2.7-1.8-5.2-4.1-6.9c-0.2-0.1-0.4-0.2-0.6-0.4c0.5-0.2,1-0.3,1.4-0.5
				c1.1,0.2,2.3,0.3,3.3,0.9c1.8,1,3.2,2.7,4.6,4.2c0,0,0.1,0,0.1-0.1c-0.4-2.4-2.8-5.6-5.5-7.1c-3.5-8.9-13.4-13.7-22.4-15.3
				c-5.1-0.9-10-1-14.4-0.8c5.5-1.4,11.2-2.5,16.8-3.5c-14.4-1.1-34.3,3-47.9,13.7c-3.5,2.7-5.4,6.7-5.1,10c0.2,1.9,1.2,4.5,4.9,6.3
				c0.3,0.2,0.7,0.3,1,0.4c-0.8,0.8-1.2,1.8-1.1,3.1c0,0.1,0.2,0.2,0.2,0c0.4-1,1.2-2.1,2.1-2.7c1.2,0.3,2.4,0.5,3.6,0.5
				c-1.2,1.3-1.7,3.2-1.5,4.9c0,0.4,0.6,0.5,0.7,0.1c0.2-1.7,1.2-2.9,2.5-4c0.6-0.5,1.3-0.8,2-1c0.1,0,0.2-0.1,0.2-0.1
				c2.1-0.1,4.2-0.1,6.1,0.3c-0.5,0.1-1,0.2-1.5,0.4c-3.5,1.3-6.2,4.6-7.1,8.2c-0.1,0.2,0.3,0.3,0.3,0.1c2.1-5,7.6-7.7,12.5-5.8
				c1.4,2,2.1,4.6,1.5,7c-0.2,0.6-0.5,1.3-0.8,1.8c-0.1-0.3-0.2-0.7-0.3-1c-0.9-2.5-3.4-3.9-6-2.9c-2.3,1-3.6,4.1-2.1,6.3
				c0.4,0.7,0.8,1.3,1.2,2c0,0,0.1,0.1,0.1,0.1c-0.2,0-0.4,0.1-0.6,0.1c-3.8,0.1-7.6-2.5-9.1-6.1c-0.9-2.1-2.7-6.4-6.5-5.3
				c-1.1,0.3-1.9,1-2.4,2.1c-0.6,1.3-0.7,3-0.1,4.3c0.5,1.2,1.2,2.1,1.8,2.9c0.3,0.4,0.7,0.8,0.9,1.2c1,1.5,1.2,3.5,0.5,5.5
				c-0.7,2.2-2.2,4-4.1,4.8c-0.4,0.2-0.8,0.3-1.2,0.4c0.2-0.6,0.2-1.4,0.4-2c0.5-2.7-1.2-5.4-4.1-5.4c-2.9,0-4.5,2.6-4.1,5.3
				c-0.8-0.7-1.5-1.5-2-2.5c-2.1-3.7-1.4-9,1.5-12.5c0.5-0.6,0.6-1.3,0.3-2c-0.3-0.7-1-1.1-1.7-1.1c-2.6-0.1-5,1.5-6.9,4.6
				c-0.3,0.4-0.5,0.8-0.7,1.2c-0.8,1.4-1.6,2.8-2.8,3.5c-1,0.7-2.1,0.6-2.9,0.5c0.6-0.8,1.1-1.8,1.8-2.8c1.4-1.9,0.3-4.8-1.5-5.9
				c-1.4-0.8-3.2-0.7-4.6,0.1c0.5-1.6,1.5-3,2.6-4.2c0.4-0.1,0.8-0.2,1.2-0.1c0.8,0.1,1.5,0.5,2.1,0.9c1.5,0.9,2.8,2.3,3.1,4.1
				c0,0.2,0.3,0.1,0.4,0c0.3-2.6-1.3-4.7-3.4-5.8c-0.4-0.2-1-0.4-1.5-0.6c1.4-1,2.9-1.9,4.5-2.6c0.6,0.2,1,0.5,1.5,0.9
				c1.2,0.9,2.1,1.8,2.8,3.1c0.1,0.2,0.4,0.1,0.3-0.1c-0.4-1.7-1.2-3.5-2.6-4.7c1.1-0.4,2.3-0.8,3.4-1.2c0.8,0.5,1.8,0.8,2.7,0.9
				c3.1,0.6,6.3-0.5,9.2-1.4c0.1,0,0.1-0.1,0-0.1c-2.6,0.3-5.2,0.7-7.8,0.1c-1.3-0.3-2.4-1-3.5-1.6c0.2-1,0.3-2,0.5-3.1
				c3.3,0.8,8-0.6,10.2-1.3c0.1,0,0-0.1,0-0.1c-2.6,0.5-5.4,0.9-8.1,0.3c-0.7-0.2-1.3-0.4-1.8-0.8c0.1-1.2,0.2-2.4,0.2-3.5
				c1,0.3,2.1,0.5,3.1,0.7c2.6,0.3,4.6-0.3,6.8-1.6c0.1,0,0-0.1,0-0.1c-2.1,0.5-4.4,0.5-6.5,0.2c-1.2-0.2-2.2-0.6-3.2-1.1
				c0-0.1,0-0.2,0-0.4c0-1,0-2.8-1.2-4.1c-0.9-1.1-2.2-1.5-3.2-1.8c-8.8-2.7-16.7-8-22.5-15.1c4.2-1.9,8.2-4.1,11.8-6.8
				c15.5-11.2,24.9-29.1,24.6-46.9c-0.2-9.8-3.3-18.9-8.7-25.7c-6.1-7.6-14.6-12.2-24.4-8c7.8-0.3,16,3.7,21.4,10.4
				c4.9,6.1,7.7,14.4,7.9,23.3c0.3,16.5-8.6,33.3-23,43.7c-13.3,9.6-31.3,14-49.3,12c-1.8-0.2-3.6-0.5-4.5-1.6
				c-1.3-1.6-0.3-4.4,0.3-6c3.1-7.2,8.5-13.4,15.4-17.4c-4.7,0-9.9,3.5-13.9,8c-0.9-7.3,0.2-15,3.2-21.7c3.4-7.8,9.3-14.4,16.6-18.8
				c-4.5,0.2-9.6,3.5-13.8,7.9c0.4-2.6,1.1-5.1,2-7.6c0.1-0.1,0.1-0.3,0.2-0.4l0,0c3-7.3,8.5-13.7,14.8-16.3
				c-9,1.2-15.4,7.7-18.7,15.7c-1,2.2-2.4,4.7-3.7,7.1c-1.5,2.9-3.2,5.8-4.3,8.4c-0.3,0.7-0.6,1.2-0.7,1.2c-0.1,0.1-0.9-0.3-1.8-1.4
				c-5.7-7.3-8.8-16.7-8.6-26c0.2-9.2,3.8-18.5,9.8-25.5c-10,4.4-13.3,15.2-13.6,25.5c-0.1,6.3,1.1,12.5,3.5,18.3
				c1,4.1,1.1,8.5,0.2,12.7c-10.4-8.9-16.7-22.6-16.7-36.3c0-14.7,7.4-29.2,19.1-38c-16,4-22.9,22.1-23,38c0,0.3,0,0.5,0,0.8
				c-4.8-10.7-6.7-22.6-5.5-34.3c1-9.5,3.8-17.2,8.5-23c5.5-6.7,13.5-10.4,21-9.5c-7.3-4.2-17.7-0.6-24,7.1
				c-5.2,6.4-8.3,14.8-9.4,25c-0.7,6.9,0,14.4,1.7,21.8c-2.4,13.2-0.3,23.6,2.8,32.4c-8-8.7-13.9-18-17.5-27.5
				c-5.3-13.9-5.7-28.4-1.2-40.7c5-13.5,16.1-23.8,28.9-26.8c-15-1.5-27.1,10.8-32.5,25.5c-4,10.9-4.4,23.4-1.2,35.7
				c0.1,3.1,0.8,6,1.6,8.8c0.3,1.1,0.6,2.2,0.8,3.3c-9.5-9.5-14-22-16.1-31.3C13.2,156.2,15.7,137.4,24,123.2z"/>
			<path class="st9" d="M225.2,101.7c0.3-1.2,0.8-2.5,1.7-3.4c1.6-1.7,4.5-2.4,6.8-2.2c3.2,0.3,6.3,2.1,9.4,5.4
				c5.7,6.2,9.2,14.4,9.7,22.8c3,0.5,6.4,1.2,9.1,3.3c3.4,2.6,5.3,7.9,2.7,11.7c-1.9,2.7-4.9,3.4-7.7,3.4c-1.8,0-3.6-0.3-4.8-0.6
				c-1.6,2.8-2.9,5.7-4,8.6c-0.2,0.6-0.7,1-1.3,1.1c-0.2,0-0.3,0.1-0.5,0.1c-0.4,0-0.9-0.2-1.2-0.4c-4.3-3.6-8.6-6.6-13.4-9.1
				l-8.5,3.3c-1.7,0.7-3.7,1.5-5.9,1.7c-0.3,0-0.7,0-1,0c-2.2,0-4.3-0.7-5.7-2.1c-3.3-3.2-2.4-8.7,0.4-12.3c1.2-1.6,2.7-2.8,4.2-4.1
				c1.3-1.1,2.5-2.2,3.5-3.4c3.7-4.5,5.7-10.6,5.9-17.7c1.3,6.1,1.8,14.3-3,20.1c-1.2,1.5-2.6,2.7-4,3.9c-1.4,1.2-2.6,2.3-3.6,3.5
				c-1.7,2.1-2.5,5.5-0.8,7.1c0.8,0.8,2.2,1.2,3.7,1c1.6-0.2,3.2-0.8,4.8-1.4l5-2c-2.2-0.9-4.6-1.7-7.1-2.3c-0.6,0.9-1,2.1-1.8,2.7
				c-0.6,0.4-1.3-0.1-1.4-0.8c0-1,0.9-2.1,1.7-2.5c0.4-0.2,0.8-0.4,1.3-0.5c0.5-0.1,1-0.1,1.5-0.3c0.1,0,0.1,0.1,0,0.1
				c-0.5,0.2-0.9,0.6-1.2,1.1c9.8,0.3,17.9,3.4,25.8,9.3c2.4-5,6.5-10.4,11.3-12.2c-0.3-0.2-0.6-0.4-0.8-0.7c-0.1-0.2,0-0.4,0.1-0.5
				c0.6-0.4,1.7,0,2.4,0.3c1,0.4,1.8,1.2,1.5,2.4c-0.2,0.7-0.9,0.8-1.4,0.6c-0.7-0.3-0.8-1-1.3-1.6c0,0,0,0,0,0
				c-1.1,1-2.1,2.2-3,3.4c3.6,0.6,5.9,0.1,7-1.5c1.3-1.9,0.1-5-1.9-6.5c-2.4-1.9-5.9-2.3-8.9-2.8c-0.9-0.1-1.6-0.9-1.6-1.9
				c-0.1-8-3.3-16-8.8-21.9c-2.4-2.6-4.7-4-6.9-4.2c-3.4-0.4-7,2.4-8.2,5.4C225.3,104.4,224.9,102.7,225.2,101.7z"/>
			<path class="st9" d="M249.6,235.6c0-1.4-0.9-3.3,0.8-4.1c0.9-0.5,2.1-0.1,2.6,0.9l2.1,4.3c0.2-0.2,0.3-0.5,0.4-0.7
				c0.2-0.5,0.4-1,0.5-1.5c0.1-0.3,0.1-0.5,0.1-0.8l0-0.4l0-0.5c-0.1-2.3-1-4.7-2.3-7c-0.4-0.8-0.2-1.8,0.5-2.4
				c0.8-0.6,2-0.5,2.7,0.3l5.3,6.8c0-0.2,0-0.3,0-0.5c0-0.7,0-1.3-0.1-2c-0.1-0.7-0.1-1.3-0.3-2c-0.8-4-2.2-8.1-4.1-11.7
				c-0.3-0.7-0.7-1.3-1.1-2c0.7,0.4,1.3,0.8,1.9,1.2c0.6,0.5,1.2,1,1.8,1.5c2.6,2.4,3.8,4.6,4.8,7.9c0.2,0.8,0.4,1.5,0.5,2.3
				c0.2,0.8,0.2,1.6,0.3,2.3c0.1,0.8,0.1,1.6,0.1,2.4c0,0.4,0,0.8,0,1.2c0,0.4,0,0.8-0.1,1.4c-0.1,0.6-0.4,1.4-1.3,2.1l-0.2,0.1
				l-0.1,0.1l0,0l-0.2,0.1l-0.1,0.1c-0.2,0.1-0.7,0.2-0.9,0.2c-0.5,0.1-1,0-1.4-0.2c-0.7-0.3-1.2-0.7-1.6-1
				c-0.1-0.1-0.2-0.2-0.3-0.4l0,0.4c0,0.4-0.1,0.8-0.2,1.2c-0.2,0.8-0.4,1.6-0.8,2.4c-0.7,1.5-1.9,3-3.6,3.9c0,0-0.1,0-0.1,0
				c-0.9,0.5-2.1,0.1-2.6-0.9l-0.5-1c-0.2,0.3-0.3,0.5-0.5,0.8c-0.4,0.5-0.8,1-1.2,1.5c-0.4,0.5-0.9,0.9-1.4,1.3
				c-0.5,0.4-1,0.7-1.5,1c-0.5,0.3-1.1,0.5-1.7,0.7c0.4-0.4,0.8-0.8,1.1-1.3C248.7,241.3,249.7,238.3,249.6,235.6z"/>
			<path class="st9" d="M171.1,329.4c2.6-0.1,5,1.3,6.5,3.4c0,0.1,0,0.1-0.1,0.1c-1.6-1.6-3.8-2.5-6.1-2.2c-0.8,0.1-1.7,0.4-2.5,0.8
				c-0.8,0.4-1.1,1.2-1.8,1.7c-0.2,0.2-0.5,0-0.5-0.2C166.5,330.7,169.4,329.5,171.1,329.4z"/>
			<path class="st9" d="M175.7,327.1c-1.3-0.6-3-1.1-4.4-0.9c-1.4,0.2-2,1.2-3.1,1.8c-0.5,0.3-1-0.2-0.9-0.7
				c0.2-1.6,2.3-2.3,3.7-2.4c1.9-0.1,3.5,0.7,4.9,1.9C175.9,327,175.8,327.1,175.7,327.1z"/>
		</g>
		<g>
			<path class="st9" d="M250.6,102.7c-0.4,5.4,1.4,10,4,10.3c2.6,0.3,5-3.7,5.3-9.1c0.4-5.4-1.4-10-4-10.3
				C253.3,93.2,250.9,97.3,250.6,102.7z"/>
			<path class="st9" d="M259.2,117.1c0,0,0.2-0.1,0.6-0.4c0.4-0.3,1-0.8,1.5-1.5c1.2-1.4,2.4-3.8,3.2-6.9c0.4-1.5,0.7-3.2,0.8-5.1
				c0.1-1.8,0.1-3.8-0.2-5.8c-0.3-2-0.8-4.1-1.9-6.1c-0.6-1-1.3-2-2.4-2.9c-0.6-0.4-1.2-0.8-2-1c-0.4-0.1-0.8-0.2-1.2-0.2l-0.3,0
				l-0.2,0l-0.1,0l0,0l-0.2,0l-0.4,0.1c-0.1,0-0.2,0-0.4,0.1c-0.2,0.1-0.4,0.1-0.6,0.2c-0.5,0.2-0.7,0.4-1,0.6
				c-0.6,0.4-1.1,0.8-1.5,1.3c-0.8,0.9-1.4,2-1.9,3c-1,2-1.4,4.1-1.7,6.1c-0.3,2-0.3,3.9-0.2,5.8c0.1,0.8,0.1,1.8,0.3,2.6
				c0.1,0.8,0.3,1.7,0.5,2.4c0.8,3.1,2.1,5.5,3.5,6.8c0.7,0.7,1.3,1,1.8,1.2c0.5,0.2,0.7,0.2,0.7,0.2s-0.2-0.1-0.6-0.4
				c-0.4-0.3-0.8-0.8-1.3-1.5c-0.9-1.4-1.6-3.8-1.9-6.7c-0.1-0.7-0.1-1.5-0.1-2.3c0-0.8,0-1.5,0-2.4c0.1-1.6,0.3-3.4,0.7-5.1
				c0.4-1.7,0.9-3.5,1.7-5.1c0.4-0.8,0.9-1.5,1.4-2.1c0.2-0.3,0.5-0.5,0.8-0.7c0.1-0.1,0.3-0.2,0.3-0.2c0,0,0,0,0.1-0.1
				c0,0,0.2,0,0.3-0.1c0.5-0.1,0.8,0,1.4,0.3c0.5,0.4,1,1,1.4,1.7c0.8,1.5,1.5,3.2,1.8,4.9c0.4,1.7,0.6,3.4,0.7,5.1
				c0.1,1.7,0,3.2-0.1,4.7c-0.3,2.9-0.9,5.3-1.7,6.9c-0.4,0.8-0.8,1.3-1,1.7C259.3,116.9,259.2,117.1,259.2,117.1z"/>
		</g>
		<g>
			
				<ellipse transform="matrix(0.1199 -0.9928 0.9928 0.1199 60.4633 282.6253)" class="st9" cx="189.6" cy="107.2" rx="12.3" ry="10.9"/>
			<path class="st9" d="M204,125c0,0,0.3-0.2,0.9-0.6c0.6-0.4,1.4-1.1,2.3-2.2c0.9-1,1.9-2.4,2.7-4.2c0.8-1.8,1.4-3.9,1.6-6.4
				c0.2-2.4-0.1-5.2-1-7.7c-0.9-2.8-2.4-5.4-4.6-7.7c-2.1-2.3-5-4.1-8.2-5c-1.6-0.4-3.3-0.7-5.1-0.6c-1.7,0.1-3.5,0.4-5,1l-0.5,0.2
				l-0.6,0.3c-0.4,0.2-0.8,0.4-1.2,0.6c-0.7,0.5-1.5,0.9-2.1,1.5c-1.4,1-2.5,2.3-3.5,3.7c-2,2.7-3,6-3.3,9.1
				c-0.3,3.1,0.2,6.1,1.1,8.8c0.1,0.3,0.2,0.6,0.3,0.9c0.1,0.3,0.3,0.6,0.4,1c0.3,0.7,0.6,1.2,0.9,1.8c0.3,0.6,0.7,1.1,1.1,1.6
				c0.4,0.5,0.8,1,1.2,1.4c1.6,1.8,3.5,3.1,5.2,4c1.7,0.9,3.4,1.4,4.7,1.6c1.4,0.2,2.4,0.2,3.2,0.2c0.7-0.1,1.1-0.1,1.1-0.1
				s-0.4,0-1.1-0.1c-0.7-0.1-1.7-0.3-3-0.7c-1.2-0.4-2.7-1.1-4.2-2.1c-1.5-1-2.9-2.4-4.2-4.1c-0.3-0.4-0.6-0.9-0.9-1.4
				c-0.3-0.5-0.6-1-0.8-1.5c-0.2-0.5-0.5-1.1-0.7-1.6l-0.3-0.8c-0.1-0.3-0.2-0.6-0.3-0.9c-0.6-2.3-0.9-5-0.5-7.5
				c0.1-1.3,0.5-2.6,1-3.8c0.5-1.2,1.1-2.4,1.9-3.5c0.8-1.1,1.7-2.1,2.8-2.9c0.5-0.4,1.1-0.7,1.7-1.1l0.8-0.4l0.4-0.2l0.5-0.2
				c2.6-1,5.3-1,7.9-0.4c2.6,0.7,5,2,6.8,3.9c1.9,1.8,3.4,4,4.3,6.2c1,2.4,1.4,4.6,1.5,6.8c0.1,2.2-0.2,4.2-0.7,5.9
				c-0.5,1.7-1.2,3.2-1.9,4.3c-0.7,1.1-1.4,1.9-1.8,2.4C204.3,124.7,204,125,204,125z"/>
		</g>
	</g>
	<g>
		<ellipse class="st0" cx="258.9" cy="99.6" rx="2.4" ry="4.1"/>
		<path class="st0" d="M194.2,105.4c0.8,3,3.3,4.9,5.7,4.3c2.4-0.6,3.7-3.5,3-6.5c-0.8-3-3.3-4.9-5.7-4.3
			C194.8,99.5,193.5,102.4,194.2,105.4z"/>
	</g>
</g>
<g>
	<path class="st10" d="M360.2,130.8v-0.7c0-7.6,2.8-10.6,6.3-10.6c1,0,1.7,0.1,2.5,0.5v3.9c-0.8-0.5-1.4-0.7-2.1-0.7
		c-1.7,0-2.9,1.5-2.9,6.9v0.8c0,5.7,1.2,6.9,2.9,6.9c0.6,0,1.3-0.2,2.1-0.7v3.7c-0.9,0.5-1.7,0.6-2.8,0.6
		C362.8,141.4,360.2,138.3,360.2,130.8z"/>
	<path class="st10" d="M371.5,133.5v-1c0-5.3,2.2-8.1,5.1-8.1s5.1,2.7,5.1,8.1v1c0,5.3-2.2,8.1-5.1,8.1S371.5,138.8,371.5,133.5z
		 M378.1,133.6v-1.1c0-3.3-0.6-4.8-1.5-4.8c-0.9,0-1.5,1.5-1.5,4.8v1.1c0,3.2,0.6,4.8,1.5,4.8C377.5,138.3,378.1,136.8,378.1,133.6z
		"/>
	<path class="st10" d="M384.3,133.5v-1c0-5.3,2.2-8.1,5.2-8.1c1,0,1.5,0.1,2.3,0.4v3.7c-0.6-0.4-1.2-0.6-1.8-0.6c-1.1,0-2,1.2-2,4.4
		v1.1c0,3.2,0.8,4.4,2,4.4c0.5,0,1.2-0.3,1.8-0.7v3.6c-0.8,0.5-1.5,0.7-2.4,0.7C386.4,141.5,384.3,138.8,384.3,133.5z"/>
	<path class="st10" d="M394.7,119.5h3.6V131l2.3-6.3h3.9l-2.8,6.7l2.7,9.8h-4l-1.4-6.3l-0.7,1.8v4.5h-3.6V119.5z"/>
	<path class="st10" d="M412.8,133.5v-1c0-5.3,2.2-8.1,5.1-8.1s5.1,2.7,5.1,8.1v1c0,5.3-2.2,8.1-5.1,8.1S412.8,138.8,412.8,133.5z
		 M419.4,133.6v-1.1c0-3.3-0.6-4.8-1.5-4.8s-1.5,1.5-1.5,4.8v1.1c0,3.2,0.6,4.8,1.5,4.8S419.4,136.8,419.4,133.6z"/>
	<path class="st10" d="M426.4,127.7h-1v-3h1v-1.2c0-2.8,1.6-4.1,4.2-4.1c0.6,0,1,0,1.4,0.1v3c-0.2,0-0.2,0-0.4,0
		c-0.9,0-1.5,0.5-1.5,1.5v0.6h1.9v3H430v13.6h-3.6V127.7z"/>
	<path class="st10" d="M440.2,130.8v-0.7c0-7,3-10.6,7.2-10.6c1.1,0,2.1,0.2,2.9,0.6v3.9c-0.9-0.6-1.8-0.9-2.7-0.9
		c-2.2,0-3.5,2.2-3.5,6.8v1c0,5.6,1.7,6.9,3.2,6.9c0.1,0,0.2,0,0.3,0v-5.5h-1.9V129h5.3v11.5c-1.4,0.6-2.5,0.9-3.9,0.9
		C443.3,141.4,440.2,138.3,440.2,130.8z"/>
	<path class="st10" d="M454.2,124.7h3.6v2.1c0.5-1.4,1.3-2.3,2.7-2.3v4.4h-0.1c-1.7,0-2.6,1.2-2.6,3.5v8.8h-3.6V124.7z"/>
	<path class="st10" d="M462.4,133.4v-0.8c0-5.3,2.3-8.1,5-8.1c2.9,0,4.7,2.9,4.7,8.3v1.9h-6.1c0.2,2.6,1.3,3.5,2.5,3.5
		c1.1,0,1.8-0.5,2.9-1.2l0.3,3.3c-1.3,0.8-2.3,1.3-3.6,1.3C465,141.5,462.4,138.7,462.4,133.4z M468.7,131.8c0-2.8-0.4-4.1-1.3-4.1
		c-0.8,0-1.4,1.2-1.4,4.1H468.7z"/>
	<path class="st10" d="M474.4,133.4v-0.8c0-5.3,2.3-8.1,5-8.1c2.9,0,4.7,2.9,4.7,8.3v1.9h-6.1c0.2,2.6,1.3,3.5,2.5,3.5
		c1.1,0,1.8-0.5,2.9-1.2l0.3,3.3c-1.3,0.8-2.3,1.3-3.6,1.3C477,141.5,474.4,138.7,474.4,133.4z M480.7,131.8c0-2.8-0.4-4.1-1.3-4.1
		c-0.8,0-1.4,1.2-1.4,4.1H480.7z"/>
	<path class="st10" d="M486.6,133.7v-1.5c0-5.9,1.5-7.8,3.5-7.8c1.6,0,2.3,1.3,2.9,2.3v-7.2h3.6v21.8H493v-2.1
		c-0.5,1-1.3,2.4-2.9,2.4C488.2,141.5,486.6,139.7,486.6,133.7z M493.1,133.5v-1.1c0-2.9-0.5-4.5-1.5-4.5s-1.4,1.6-1.4,4.5v1.1
		c0,3,0.4,4.5,1.4,4.5S493.1,136.5,493.1,133.5z"/>
	<path class="st10" d="M365,152.6h1.5l4.7,21.7h-1.4l-1.3-6h-5.6l-1.3,6h-1.4L365,152.6z M368.3,167l-2.6-12.3l-2.6,12.3H368.3z"/>
	<path class="st10" d="M373.2,158.1h1.3l3.2,14l3.3-14h1.3l-4,16.3h-1.1L373.2,158.1z"/>
	<path class="st10" d="M384.6,166.3V166c0-5.1,2.2-8.2,4.6-8.2s4.6,3.1,4.6,8.2v0.3c0,5.1-2.2,8.2-4.6,8.2
		C386.7,174.5,384.6,171.4,384.6,166.3z M392.5,166.3V166c0-4.3-1.5-7-3.3-7s-3.3,2.7-3.3,7v0.3c0,4.3,1.5,7,3.3,7
		S392.5,170.5,392.5,166.3z"/>
	<path class="st10" d="M397.6,152.4h1.4v2.2h-1.4V152.4z M397.7,158.1h1.3v16.2h-1.3V158.1z"/>
	<path class="st10" d="M402.9,166.4v-0.6c0-5.2,2-8.1,4.2-8.1c1.6,0,2.7,1.5,3.4,3.4v-8.7h1.3v21.8h-1.3v-3.1
		c-0.6,1.9-1.8,3.4-3.4,3.4C404.9,174.5,402.9,171.7,402.9,166.4z M410.6,166.5v-0.8c0-4.4-1.7-6.8-3.3-6.8c-1.7,0-3.1,2.5-3.1,6.9
		v0.5c0,4.4,1.4,6.9,3.1,6.9C408.9,173.4,410.6,170.9,410.6,166.5z"/>
	<path class="st10" d="M421.6,169.5v-0.2c0-3,1.5-5.2,4.3-5.2c1.1,0,2,0.3,2.7,0.6v-2c0-2.3-1-3.6-3.1-3.6c-1.1,0-2,0.2-3,0.7v-1.3
		c0.9-0.4,1.9-0.7,3.1-0.7c2.7,0,4.3,1.6,4.3,4.7v11.7h-1.3v-2.3c-0.6,1.6-1.7,2.6-3.3,2.6C423.1,174.5,421.6,172.4,421.6,169.5z
		 M428.5,169.2V166c-0.9-0.4-1.7-0.6-2.7-0.6c-2,0-3,1.7-3,3.9v0.2c0,2.2,0.9,3.9,2.6,3.9C427.4,173.4,428.5,171.3,428.5,169.2z"/>
	<path class="st10" d="M434.4,171.5v-12.3h-1.5v-1.2h1.5v-4.6h1.3v4.6h2.6v1.2h-2.6v12.1c0,1.4,0.6,1.8,1.7,1.8c0.3,0,0.7-0.1,1-0.2
		v1.2c-0.3,0.1-0.8,0.2-1.1,0.2C435.5,174.4,434.4,173.6,434.4,171.5z"/>
	<path class="st10" d="M442.3,171.5v-12.3h-1.5v-1.2h1.5v-4.6h1.3v4.6h2.6v1.2h-2.6v12.1c0,1.4,0.6,1.8,1.7,1.8c0.3,0,0.7-0.1,1-0.2
		v1.2c-0.3,0.1-0.8,0.2-1.1,0.2C443.4,174.4,442.3,173.6,442.3,171.5z"/>
	<path class="st10" d="M449,169.5v-0.2c0-3,1.5-5.2,4.3-5.2c1.1,0,2,0.3,2.7,0.6v-2c0-2.3-1-3.6-3.1-3.6c-1.1,0-2,0.2-3,0.7v-1.3
		c0.9-0.4,1.9-0.7,3.1-0.7c2.7,0,4.3,1.6,4.3,4.7v11.7H456v-2.3c-0.6,1.6-1.7,2.6-3.3,2.6C450.5,174.5,449,172.4,449,169.5z
		 M456,169.2V166c-0.9-0.4-1.7-0.6-2.7-0.6c-2,0-3,1.7-3,3.9v0.2c0,2.2,0.9,3.9,2.6,3.9C454.8,173.4,456,171.3,456,169.2z"/>
	<path class="st10" d="M460.9,166.4V166c0-5.6,2.5-8.2,4.9-8.2c0.8,0,1.5,0.2,1.9,0.6v1.4c-0.6-0.4-1.2-0.7-2-0.7
		c-1.7,0-3.6,2.1-3.6,6.9v0.4c0,4.9,1.9,6.8,3.7,6.8c0.7,0,1.3-0.3,1.9-0.7v1.4c-0.5,0.4-1.1,0.6-1.9,0.6
		C463.3,174.5,460.9,172,460.9,166.4z"/>
	<path class="st10" d="M471.3,152.4h1.3v8c0.6-1.4,1.5-2.6,3.3-2.6c2.2,0,3.7,1.8,3.7,5.1v11.3h-1.3V163c0-2.7-1-4.1-2.7-4.1
		c-1.7,0-3.1,1.8-3.1,4.4v11h-1.3V152.4z"/>
	<path class="st10" d="M483.8,158.1h1.3v2.4c0.6-1.4,1.5-2.6,3.2-2.6c1.8,0,2.7,1.2,3.2,2.7c0.6-1.3,1.6-2.7,3.6-2.7
		c2.2,0,3.7,1.8,3.7,5.1v11.4h-1.3V163c0-2.7-1-4.1-2.6-4.1c-1.7,0-3,1.7-3,4.3v11h-1.3V163c0-2.7-1-4.1-2.6-4.1c-1.7,0-3,1.7-3,4.3
		v11h-1.3V158.1z"/>
	<path class="st10" d="M502.4,166.4v-0.3c0-5.6,2.1-8.4,4.4-8.4c2.4,0,4.2,2.9,4.2,7.9v1h-7.4c0.1,4.4,1.9,6.5,4,6.5
		c1,0,1.8-0.2,2.8-1l0.2,1.3c-1.1,0.6-1.9,0.9-3.1,0.9C504.8,174.5,502.4,171.8,502.4,166.4z M509.8,165.5c0-3.7-1.2-6.5-3-6.5
		c-1.7,0-3,2.3-3.1,6.5H509.8z"/>
	<path class="st10" d="M514.8,158.1h1.3v2.4c0.6-1.4,1.5-2.6,3.3-2.6c2.2,0,3.7,1.8,3.7,5.1v11.3h-1.3V163c0-2.7-1-4.1-2.7-4.1
		c-1.7,0-3.1,1.8-3.1,4.4v11h-1.3V158.1z"/>
	<path class="st10" d="M527.9,171.5v-12.3h-1.5v-1.2h1.5v-4.6h1.3v4.6h2.6v1.2h-2.6v12.1c0,1.4,0.6,1.8,1.7,1.8c0.3,0,0.7-0.1,1-0.2
		v1.2c-0.3,0.1-0.8,0.2-1.1,0.2C529,174.4,527.9,173.6,527.9,171.5z"/>
	<path class="st10" d="M542.1,171.5v-12.3h-1.5v-1.2h1.5v-4.6h1.3v4.6h2.6v1.2h-2.6v12.1c0,1.4,0.6,1.8,1.7,1.8c0.3,0,0.7-0.1,1-0.2
		v1.2c-0.3,0.1-0.8,0.2-1.1,0.2C543.2,174.4,542.1,173.6,542.1,171.5z"/>
	<path class="st10" d="M548.6,166.3V166c0-5.1,2.2-8.2,4.6-8.2s4.6,3.1,4.6,8.2v0.3c0,5.1-2.2,8.2-4.6,8.2
		C550.8,174.5,548.6,171.4,548.6,166.3z M556.5,166.3V166c0-4.3-1.5-7-3.3-7s-3.3,2.7-3.3,7v0.3c0,4.3,1.5,7,3.3,7
		S556.5,170.5,556.5,166.3z"/>
	<path class="st10" d="M568.2,171.5v-12.3h-1.5v-1.2h1.5v-4.6h1.3v4.6h2.6v1.2h-2.6v12.1c0,1.4,0.6,1.8,1.7,1.8c0.3,0,0.7-0.1,1-0.2
		v1.2c-0.3,0.1-0.8,0.2-1.1,0.2C569.3,174.4,568.2,173.6,568.2,171.5z"/>
	<path class="st10" d="M575.7,152.4h1.3v8c0.6-1.4,1.5-2.6,3.3-2.6c2.2,0,3.7,1.8,3.7,5.1v11.3h-1.3V163c0-2.7-1-4.1-2.7-4.1
		c-1.7,0-3.1,1.8-3.1,4.4v11h-1.3V152.4z"/>
	<path class="st10" d="M587.6,166.4v-0.3c0-5.6,2.1-8.4,4.4-8.4c2.4,0,4.2,2.9,4.2,7.9v1h-7.4c0.1,4.4,1.9,6.5,4,6.5
		c1,0,1.8-0.2,2.8-1l0.2,1.3c-1.1,0.6-1.9,0.9-3.1,0.9C590.1,174.5,587.6,171.8,587.6,166.4z M595,165.5c0-3.7-1.2-6.5-3-6.5
		c-1.7,0-3,2.3-3.1,6.5H595z"/>
	<path class="st10" d="M605.4,173.7v-1.4c1.1,0.6,2.3,0.9,3.3,0.9c1.4,0,2.5-0.9,2.5-2.4v-0.1c0-1.1-0.6-2.3-2.6-4.1
		c-2.4-2.3-3.2-3.5-3.2-5.2v-0.1c0-2.3,1.8-3.5,3.7-3.5c1.1,0,1.8,0.2,2.7,0.5v1.4c-0.9-0.5-1.8-0.7-2.7-0.7c-1.3,0-2.3,0.9-2.3,2.3
		v0.1c0,1.2,0.6,2.1,2.6,4c2.3,2.3,3.2,3.6,3.2,5.3v0.1c0,2.3-1.9,3.7-3.8,3.7C607.4,174.4,606.4,174.2,605.4,173.7z"/>
	<path class="st10" d="M615.3,166.4v-0.3c0-5.6,2.1-8.4,4.4-8.4c2.4,0,4.2,2.9,4.2,7.9v1h-7.4c0.1,4.4,1.9,6.5,4,6.5
		c1,0,1.8-0.2,2.8-1l0.2,1.3c-1.1,0.6-1.9,0.9-3.1,0.9C617.7,174.5,615.3,171.8,615.3,166.4z M622.7,165.5c0-3.7-1.2-6.5-3-6.5
		c-1.7,0-3,2.3-3.1,6.5H622.7z"/>
	<path class="st10" d="M627.8,158.1h1.3v2.4c0.6-1.4,1.5-2.6,3.3-2.6c2.2,0,3.7,1.8,3.7,5.1v11.3h-1.3V163c0-2.7-1-4.1-2.7-4.1
		c-1.7,0-3.1,1.8-3.1,4.4v11h-1.3V158.1z"/>
	<path class="st10" d="M639.5,173.7v-1.4c1.1,0.6,2.3,0.9,3.3,0.9c1.4,0,2.5-0.9,2.5-2.4v-0.1c0-1.1-0.6-2.3-2.6-4.1
		c-2.4-2.3-3.2-3.5-3.2-5.2v-0.1c0-2.3,1.8-3.5,3.7-3.5c1.1,0,1.8,0.2,2.7,0.5v1.4c-0.9-0.5-1.8-0.7-2.7-0.7c-1.3,0-2.3,0.9-2.3,2.3
		v0.1c0,1.2,0.6,2.1,2.6,4c2.3,2.3,3.2,3.6,3.2,5.3v0.1c0,2.3-1.9,3.7-3.8,3.7C641.4,174.4,640.5,174.2,639.5,173.7z"/>
	<path class="st10" d="M649.4,166.3V166c0-5.1,2.2-8.2,4.6-8.2s4.6,3.1,4.6,8.2v0.3c0,5.1-2.2,8.2-4.6,8.2
		C651.5,174.5,649.4,171.4,649.4,166.3z M657.3,166.3V166c0-4.3-1.5-7-3.3-7s-3.3,2.7-3.3,7v0.3c0,4.3,1.5,7,3.3,7
		S657.3,170.5,657.3,166.3z"/>
	<path class="st10" d="M662.2,158.1h1.3v2.4c0.6-1.5,1.9-2.7,3.8-2.6v1.4h-0.1c-2,0-3.7,1.3-3.7,4.1v10.9h-1.3V158.1z"/>
	<path class="st10" d="M673.6,174.1l-3.9-16h1.3l3.2,13.8l3.2-13.8h1.3l-4.9,20.2h-1.2L673.6,174.1z"/>
	<path class="st10" d="M360.4,191.1h1.4l2.6,14l2.7-14h1.2l2.7,14l2.7-14h1.3l-3.4,16.3h-1.2l-2.7-13.6l-2.7,13.6h-1.2L360.4,191.1z
		"/>
	<path class="st10" d="M377.3,199.3V199c0-5.1,2.2-8.2,4.6-8.2s4.6,3.1,4.6,8.2v0.3c0,5.1-2.2,8.2-4.6,8.2S377.3,204.4,377.3,199.3z
		 M385.2,199.3V199c0-4.3-1.5-7-3.3-7s-3.3,2.7-3.3,7v0.3c0,4.3,1.5,7,3.3,7S385.2,203.6,385.2,199.3z"/>
	<path class="st10" d="M390.2,191.1h1.3v2.4c0.6-1.5,1.9-2.7,3.8-2.6v1.4h-0.1c-2,0-3.7,1.3-3.7,4.1v10.9h-1.3V191.1z"/>
	<path class="st10" d="M398.7,185.5h1.3v21.8h-1.3V185.5z"/>
	<path class="st10" d="M404,199.5v-0.6c0-5.2,2-8.1,4.2-8.1c1.6,0,2.7,1.5,3.4,3.4v-8.7h1.3v21.8h-1.3v-3.1
		c-0.6,1.9-1.8,3.4-3.4,3.4C406,207.5,404,204.7,404,199.5z M411.6,199.6v-0.8c0-4.4-1.7-6.8-3.3-6.8c-1.7,0-3.1,2.5-3.1,6.9v0.5
		c0,4.4,1.4,6.9,3.1,6.9C410,206.4,411.6,203.9,411.6,199.6z"/>
	<path class="st10" d="M416.2,209.7c1.2-0.5,1.7-1.2,1.6-2.4h-0.8v-2.5h1.9v2.2c0,1.9-0.6,2.7-2.3,3.5L416.2,209.7z"/>
	<path class="st10" d="M429.1,191.1h1.3v2.4c0.6-1.4,1.5-2.6,3.3-2.6c2.2,0,3.7,1.8,3.7,5.1v11.3h-1.3v-11.2c0-2.7-1-4.1-2.7-4.1
		c-1.7,0-3.1,1.8-3.1,4.4v11h-1.3V191.1z"/>
	<path class="st10" d="M441,199.3V199c0-5.1,2.2-8.2,4.6-8.2s4.6,3.1,4.6,8.2v0.3c0,5.1-2.2,8.2-4.6,8.2S441,204.4,441,199.3z
		 M448.9,199.3V199c0-4.3-1.5-7-3.3-7s-3.3,2.7-3.3,7v0.3c0,4.3,1.5,7,3.3,7S448.9,203.6,448.9,199.3z"/>
	<path class="st10" d="M454.4,204.5v-12.3h-1.5v-1.2h1.5v-4.6h1.3v4.6h2.6v1.2h-2.6v12.1c0,1.4,0.6,1.8,1.7,1.8c0.3,0,0.7-0.1,1-0.2
		v1.2c-0.3,0.1-0.8,0.2-1.1,0.2C455.5,207.4,454.4,206.6,454.4,204.5z"/>
	<path class="st10" d="M461,199.5v-0.3c0-5.6,2.1-8.4,4.4-8.4c2.4,0,4.2,2.9,4.2,7.9v1h-7.4c0.1,4.4,1.9,6.5,4,6.5
		c1,0,1.8-0.2,2.8-1l0.2,1.3c-1.1,0.6-1.9,0.9-3.1,0.9C463.4,207.5,461,204.8,461,199.5z M468.4,198.6c0-3.7-1.2-6.5-3-6.5
		c-1.7,0-3,2.3-3.1,6.5H468.4z"/>
	<path class="st10" d="M472.8,199.5v-0.6c0-5.2,2-8.1,4.2-8.1c1.6,0,2.7,1.5,3.4,3.4v-8.7h1.3v21.8h-1.3v-3.1
		c-0.6,1.9-1.8,3.4-3.4,3.4C474.8,207.5,472.8,204.7,472.8,199.5z M480.5,199.6v-0.8c0-4.4-1.7-6.8-3.3-6.8c-1.7,0-3.1,2.5-3.1,6.9
		v0.5c0,4.4,1.4,6.9,3.1,6.9C478.9,206.4,480.5,203.9,480.5,199.6z"/>
	<path class="st10" d="M493.6,204.1v3.1h-1.3v-21.8h1.3v8.7c0.6-1.9,1.8-3.4,3.4-3.4c2.2,0,4.2,2.8,4.2,8.1v0.6c0,5.2-2,8.1-4.2,8.1
		C495.3,207.5,494.2,206,493.6,204.1z M499.9,199.4v-0.5c0-4.4-1.4-6.9-3.1-6.9c-1.6,0-3.3,2.5-3.3,6.8v0.8c0,4.3,1.7,6.8,3.3,6.8
		C498.5,206.4,499.9,203.9,499.9,199.4z"/>
	<path class="st10" d="M507.6,207.1l-3.9-16h1.3l3.2,13.8l3.2-13.8h1.3l-4.9,20.2h-1.2L507.6,207.1z"/>
	<path class="st10" d="M522.5,210.7v-1.3c1.2,0.5,2.6,0.8,3.6,0.8c2.2,0,3.3-1,3.3-3.3V203c-0.6,1.9-1.8,3.4-3.4,3.4
		c-2.2,0-4.2-2.7-4.2-7.7v-0.3c0-4.9,2.1-7.7,4.2-7.7c1.6,0,2.7,1.5,3.4,3.4v-3.1h1.3v15.7c0,3.1-1.7,4.5-4.7,4.5
		C524.9,211.3,523.6,211.1,522.5,210.7z M529.5,198.7v-0.3c0-4.1-1.7-6.5-3.3-6.5c-1.6,0-3.1,2.3-3.1,6.5v0.2c0,4.2,1.5,6.5,3.1,6.5
		C527.8,205.3,529.5,202.9,529.5,198.7z"/>
	<path class="st10" d="M535.1,191.1h1.3v2.4c0.6-1.5,1.9-2.7,3.8-2.6v1.4h-0.1c-2,0-3.7,1.3-3.7,4.1v10.9h-1.3V191.1z"/>
	<path class="st10" d="M542.1,199.5v-0.3c0-5.6,2.1-8.4,4.4-8.4c2.4,0,4.2,2.9,4.2,7.9v1h-7.4c0.1,4.4,1.9,6.5,4,6.5
		c1,0,1.8-0.2,2.8-1l0.2,1.3c-1.1,0.6-1.9,0.9-3.1,0.9C544.5,207.5,542.1,204.8,542.1,199.5z M549.5,198.6c0-3.7-1.2-6.5-3-6.5
		c-1.7,0-3,2.3-3.1,6.5H549.5z"/>
	<path class="st10" d="M553.9,199.5v-0.3c0-5.6,2.1-8.4,4.4-8.4c2.4,0,4.2,2.9,4.2,7.9v1h-7.4c0.1,4.4,1.9,6.5,4,6.5
		c1,0,1.8-0.2,2.8-1l0.2,1.3c-1.1,0.6-1.9,0.9-3.1,0.9C556.4,207.5,553.9,204.8,553.9,199.5z M561.3,198.6c0-3.7-1.2-6.5-3-6.5
		c-1.7,0-3,2.3-3.1,6.5H561.3z"/>
	<path class="st10" d="M565.8,199.5v-0.6c0-5.2,2-8.1,4.2-8.1c1.6,0,2.7,1.5,3.4,3.4v-8.7h1.3v21.8h-1.3v-3.1
		c-0.6,1.9-1.8,3.4-3.4,3.4C567.8,207.5,565.8,204.7,565.8,199.5z M573.5,199.6v-0.8c0-4.4-1.7-6.8-3.3-6.8c-1.7,0-3.1,2.5-3.1,6.9
		v0.5c0,4.4,1.4,6.9,3.1,6.9C571.8,206.4,573.5,203.9,573.5,199.6z"/>
	<path class="st10" d="M578,209.7c1.2-0.5,1.7-1.2,1.6-2.4h-0.8v-2.5h1.9v2.2c0,1.9-0.6,2.7-2.3,3.5L578,209.7z"/>
	<path class="st10" d="M591.1,185.5h1.3v21.8h-1.3V185.5z"/>
	<path class="st10" d="M596.8,202.4v-11.3h1.3v11.2c0,2.7,1,4.1,2.7,4.1c1.7,0,3.1-1.8,3.1-4.4v-11h1.3v16.2h-1.3v-2.4
		c-0.6,1.4-1.5,2.6-3.3,2.6C598.3,207.5,596.8,205.7,596.8,202.4z"/>
	<path class="st10" d="M608.6,206.7v-1.4c1.1,0.6,2.3,0.9,3.3,0.9c1.4,0,2.5-0.9,2.5-2.4v-0.1c0-1.1-0.6-2.3-2.6-4.1
		c-2.4-2.3-3.2-3.5-3.2-5.2v-0.1c0-2.3,1.8-3.5,3.7-3.5c1.1,0,1.8,0.2,2.7,0.5v1.4c-0.9-0.5-1.8-0.7-2.7-0.7c-1.3,0-2.3,0.9-2.3,2.3
		v0.1c0,1.2,0.6,2.1,2.6,4c2.3,2.3,3.2,3.6,3.2,5.3v0.1c0,2.3-1.9,3.7-3.8,3.7C610.6,207.5,609.7,207.2,608.6,206.7z"/>
	<path class="st10" d="M619.5,204.5v-12.3H618v-1.2h1.5v-4.6h1.3v4.6h2.6v1.2h-2.6v12.1c0,1.4,0.6,1.8,1.7,1.8c0.3,0,0.7-0.1,1-0.2
		v1.2c-0.3,0.1-0.8,0.2-1.1,0.2C620.6,207.4,619.5,206.6,619.5,204.5z"/>
	<path class="st10" d="M626,209.7c1.2-0.5,1.7-1.2,1.6-2.4h-0.8v-2.5h1.9v2.2c0,1.9-0.6,2.7-2.3,3.5L626,209.7z"/>
	<path class="st10" d="M638.1,202.3v-0.2c0-2.4,1.1-4.8,3.5-6.9c-1.5-2.5-2.1-4-2.1-5.5v-0.2c0-2,1.4-4,3.6-4c2.3,0,3.5,2,3.5,3.9
		v0.2c0,2.3-1.3,3.9-3.4,5.9l3.5,6.4c0.5-1.5,0.7-3,1-4.9l1.2,0.2c-0.3,2.3-0.7,4.2-1.4,6l2.1,3.8l-1.1,0.6l-1.7-3.1
		c-1,1.8-2.3,3.1-4.4,3.1C639.7,207.5,638.1,205,638.1,202.3z M646.1,203.2l-3.9-7.1c-1.9,1.7-2.7,3.8-2.7,5.9v0.2
		c0,2.3,1.2,4.1,3,4.1C644.1,206.2,645.2,205,646.1,203.2z M645.3,189.5L645.3,189.5c0-1.5-0.8-2.9-2.2-2.9c-1.5,0-2.3,1.3-2.3,2.8
		v0.1c0,1.3,0.4,2.5,1.8,4.9C644.5,192.8,645.3,191.2,645.3,189.5z"/>
	<path class="st10" d="M658.2,199.5v-0.6c0-5.2,2-8.1,4.2-8.1c1.6,0,2.7,1.5,3.4,3.4v-8.7h1.3v21.8h-1.3v-3.1
		c-0.6,1.9-1.8,3.4-3.4,3.4C660.2,207.5,658.2,204.7,658.2,199.5z M665.9,199.6v-0.8c0-4.4-1.7-6.8-3.3-6.8c-1.7,0-3.1,2.5-3.1,6.9
		v0.5c0,4.4,1.4,6.9,3.1,6.9C664.3,206.4,665.9,203.9,665.9,199.6z"/>
	<path class="st10" d="M670.9,199.5v-0.3c0-5.6,2.1-8.4,4.4-8.4c2.4,0,4.2,2.9,4.2,7.9v1h-7.4c0.1,4.4,1.9,6.5,4,6.5
		c1,0,1.8-0.2,2.8-1l0.2,1.3c-1.1,0.6-1.9,0.9-3.1,0.9C673.3,207.5,670.9,204.8,670.9,199.5z M678.3,198.6c0-3.7-1.2-6.5-3-6.5
		c-1.7,0-3,2.3-3.1,6.5H678.3z"/>
	<path class="st10" d="M682.5,206.7v-1.4c1.1,0.6,2.3,0.9,3.3,0.9c1.4,0,2.5-0.9,2.5-2.4v-0.1c0-1.1-0.6-2.3-2.6-4.1
		c-2.4-2.3-3.2-3.5-3.2-5.2v-0.1c0-2.3,1.8-3.5,3.7-3.5c1.1,0,1.8,0.2,2.7,0.5v1.4c-0.9-0.5-1.8-0.7-2.7-0.7c-1.3,0-2.3,0.9-2.3,2.3
		v0.1c0,1.2,0.6,2.1,2.6,4c2.3,2.3,3.2,3.6,3.2,5.3v0.1c0,2.3-1.9,3.7-3.8,3.7C684.4,207.5,683.5,207.2,682.5,206.7z"/>
	<path class="st10" d="M693.1,185.5h1.4v2.2h-1.4V185.5z M693.2,191.1h1.3v16.2h-1.3V191.1z"/>
	<path class="st10" d="M699,191.1h1.3v2.4c0.6-1.5,1.9-2.7,3.8-2.6v1.4H704c-2,0-3.7,1.3-3.7,4.1v10.9H699V191.1z"/>
	<path class="st10" d="M706,199.5v-0.3c0-5.6,2.1-8.4,4.4-8.4c2.4,0,4.2,2.9,4.2,7.9v1h-7.4c0.1,4.4,1.9,6.5,4,6.5
		c1,0,1.8-0.2,2.8-1l0.2,1.3c-1.1,0.6-1.9,0.9-3.1,0.9C708.5,207.5,706,204.8,706,199.5z M713.5,198.6c0-3.7-1.2-6.5-3-6.5
		c-1.7,0-3,2.3-3.1,6.5H713.5z"/>
	<path class="st10" d="M717.9,204.7h1.9v2.5h-1.9V204.7z"/>
</g>
</svg>
