<?xml version="1.0" encoding="utf-8"?>
<!-- Generator: Adobe Illustrator 22.1.0, SVG Export Plug-In . SVG Version: 6.00 Build 0)  -->
<svg version="1.1" id="Layer_1" xmlns="http://www.w3.org/2000/svg" xmlns:xlink="http://www.w3.org/1999/xlink" x="0px" y="0px"
	 viewBox="0 0 718.7 362" style="enable-background:new 0 0 718.7 362;" xml:space="preserve">
<style type="text/css">
	.st0{fill:#FFFFFF;}
	.st1{fill:none;stroke:#FFFFFF;stroke-width:22;stroke-miterlimit:10;}
	.st2{fill:#E88324;}
	.st3{fill:#FFCF33;}
	.st4{fill:#EF3924;}
	.st5{fill:#F7901E;}
	.st6{fill:#F47721;}
	.st7{fill:#FEE04E;}
	.st8{opacity:0.6;fill:#E88324;enable-background:new    ;}
	.st9{fill:#961A1E;}
	.st10{fill:#333333;}
</style>
<path class="st0" d="M674.4,229.8H251.7c-21.9,0-39.6-17.7-39.6-39.6v-51.8c0-21.9,17.7-39.6,39.6-39.6h422.7
	c21.9,0,39.6,17.7,39.6,39.6v51.8C714,212.1,696.3,229.8,674.4,229.8z"/>
<path class="st1" d="M312,185.5c-2.3-3.9-5.2-7.1-7.5-9.2c-2.6-2.5-5.5-4.8-8.2-7.1c-4.4-3.6-8.6-7-12-11.1
	c-5-6.1-8.2-15.2-4.7-22.3h2.5c1,0,1.8-0.7,1.9-1.7c0.2-2.3-0.4-4.6-1.6-6.6l3.4-0.7c0.8-0.2,1.4-0.8,1.5-1.5c0.1-0.8-0.2-1.5-0.9-2
	c-6.8-4.2-13.5-8.8-16.9-14.9c0-0.1,0.1-0.2,0.1-0.4c0.4-1.5,0.7-3.2,0.8-5.1c0.1-1.8,0.1-3.8-0.2-5.8c-0.3-2-0.8-4.1-1.9-6.1
	c-0.2-0.4-0.5-0.8-0.8-1.2c0-2.4-0.1-4.9-0.7-7.3c-1.7-6.7-7-12.6-14.6-16.3c-5.9-2.8-12.2-4-18.4-5c-0.1-4,0.1-8.3,1.5-12.2
	c0.4-0.5,0.8-0.9,1-1.1c1.4-1.4,3.7-2,5.5-1.6c3.5,0.8,6.3,3.6,9,6.4l0.6,0.6c4.5,4.6,9,6.1,12.6,4.3c2.4-1.2,4-3.9,4.3-7
	c0.2-2.6-0.4-5-1-7.2c-2.5-9.3-5.8-19.6-14.7-23.9c-8.6-4.2-18.9-0.6-25.3,4.8l-0.2,0.1c-1.3,1.1-2.8,2.4-4,2.2
	c-1.1-0.2-1.8-1.5-2.7-3.5c-0.2-0.5-0.5-1-0.7-1.4c-3.5-6.6-12.1-9.9-19.5-7.4c-6.7,2.2-12.1,8.8-13.3,16.3l-0.1,0.8
	c-0.2,1.7-0.5,3.3-1.4,4c-1.2,0.9-3.4,0-4.7-1.4c-0.7-0.6-1.2-1.4-1.9-2.2c-1.1-1.4-2.3-2.8-3.9-3.9c-3.6-2.4-8.8-2.1-12.1,0.7
	c-3.3,2.9-4.3,8-2.4,11.9c0.2,0.5,0.5,1,0.8,1.6c0.9,1.6,1.5,2.8,1.1,3.4c-0.5,0.7-2.7,0.1-3.9-0.2c-3.3-0.9-6.3-0.8-8.7,0.1
	c-3.3,1.2-5.7,4.2-5.8,7.4c-0.1,2,0.7,3.8,1.3,5.4c0.6,1.5,1.2,2.9,1,4.1c-0.2,1.1-1,2-1.9,3.2c-0.5,0.6-1,1.2-1.4,1.9
	c-1.2,1.8-1.6,4.1-1.1,5.9c0.1,0.4,0.3,0.8,0.6,1.2c-12.1,14.9-16.6,35.5-11.4,54.1c1.3,4.5,3,8.8,4.8,12.9c0.8,2,1.7,4.2,2.5,6.3
	c2.1,5.6,4.7,12.5,3.7,18.8c-0.9,5.1-2.3,8.2-4,11c-4.9,1.5-10.4-1.2-13.4-4.7c-3.2-3.8-5-9.2-5.5-16.4c-0.2-2.7-0.2-5.4-0.2-8.1
	c0-3.5,0-7.2-0.4-10.8c-1.3-11.5-6.5-22.3-14.6-30.2c-8.2-8.1-19.4-13-30.7-13.5c-18-0.8-36.8,10-46.9,27c-8.9,15-11.4,34.9-7,54.4
	c2.5,11,8.2,26.4,21.2,36.8c0.3,0.3,0.8,0.4,1.2,0.4c0.3,0,0.6-0.1,0.8-0.2c0.6-0.3,1-0.9,1.1-1.6c4.9,9.1,11.8,17.8,20.6,26.1
	c0.4,0.3,0.8,0.5,1.3,0.5c0.4,0,0.8-0.1,1.1-0.4c0.7-0.5,1-1.5,0.6-2.3c-4.9-11.1-7.3-20.3-7-30c1.7,4.9,3.8,9.5,6.1,13.7
	c2.7,11.8,9.5,22.6,19.1,29.9c0.3,0.3,0.7,0.4,1.2,0.4c0.2,0,0.4,0,0.6-0.1c0.6-0.2,1.1-0.7,1.2-1.2c0.8-2.7,1.3-5.5,1.4-8.3
	c0.4,0.6,0.9,1.2,1.3,1.8c1.5,1.9,3.1,2.9,4.7,2.9c0.5,0,1-0.1,1.5-0.3c1.6-0.7,2.3-2.3,2.7-3.2c0.6-1.3,1.3-2.7,2-4.2
	c0,0.3,0,0.7,0,1c-0.9,1.3-1.6,2.7-2.2,4.1c-3.5,8-4.5,19.1-3,27.9c-0.6,1.1-1.2,2.1-1.6,3.2c-2.2,5.2-1.1,8.3,0.2,9.9
	c1.7,2.1,4.4,2.7,7,3c3,0.3,5.9,0.5,8.9,0.5c9.6,0,19-1.7,27.6-5c6.3,8.1,15.1,14.2,25,17.2c0.6,0.2,1.3,0.4,1.5,0.6
	c0.3,0.3,0.3,1.3,0.3,1.7c0,3.3-0.3,6.6-0.9,9.9c-3.4,1.2-7,2.7-10,5.2c-4.4,3.7-6.4,9-5.2,13.7c0.3,1.3,1,2.5,1.9,3.5
	c0.1,0.2,0.3,0.4,0.5,0.6c-0.1-0.1-0.2-0.2-0.3-0.3c0.2,0.5,0.3,1,0.6,1.5c0.4,0.6,0.9,1.1,1.5,1.6c0.4,0.4,1.2,0.4,1.5-0.2
	c0.1-0.1,0.1-0.2,0.2-0.3c0.1,0,0.1,0.1,0.2,0.1c2.5,1,5.2,0.8,7.2-0.6c1.5-1,2.5-2.4,3.4-3.8c-0.4,3,0.1,6.1,1.6,8.7
	c1.6,2.9,4.3,5,7.2,6c0.3,0.9,0.6,1.7,1.4,2.3c0.4,0.3,1.2,0.3,1.6,0c0.6-0.4,0.9-1,1.2-1.5c1.5,0,3-0.3,4.4-0.9
	c2.9-1.2,5.2-3.9,6.2-7.1c1-3.1,0.6-6.2-1-8.7c-0.4-0.6-0.8-1.1-1.1-1.6c-0.5-0.7-1-1.3-1.3-1.9c-0.2-0.6-0.1-1.2,0.1-1.4
	c0.3,0.1,0.9,0.7,1.9,3.1c2.1,5,7.3,8.5,12.6,8.5h0.1c1.2,0,2.3-0.2,3.4-0.5c0,0,0,0,0,0.1c0.4,0.4,0.9,0.6,1.3,0.9
	c0.3,0.2,0.7,0.1,1-0.1c1.1-0.9,1.4-1.8,1.7-2.9c2.2-1.7,4-4,4.7-6.7c1.4-5.4-1.5-11.6-6.5-13.8c-3.1-1.3-6.4-1.2-9.4-1.1
	s-5.6,0.1-7.7-0.9c-1.7-0.8-2.6-1.9-2.8-3.3c-0.2-2,1.3-4.7,3.7-6.6c4.6-3.6,9.6-6.4,15-8.7c5.4-0.6,18.2-1.6,27.5,0
	c7.9,1.4,14.5,5.2,18.4,10.4c-2.7,0.6-5.5,1.6-7.8,3.3c-3.5,2.5-6.1,7.2-5,11.8c-0.1,0.6-0.2,1.2-0.3,1.8c-0.1,1.4-0.1,4.4,1.5,5
	c0.4,0.2,0.7,0.1,1-0.1c0.5-0.4,0.7-1.1,0.9-1.8c2.2,1.8,5,2.6,7.8,2.6c0.6,0,1.1,0,1.7-0.1c4.7-0.6,8.7-3.5,11.7-6
	c0.7-0.6,1.4-1.2,2.1-1.8c2.4-2,4.6-4,7.2-5.3c2.5-1.3,5.3-2,8.2-2.1c3.1,0.1,7.8,3,10.4,5.2c0.4,0.3,0.7,0.6,1.1,0.9
	c2.8,2.5,5.6,5.1,9.5,5.9c0.8,0.2,1.6,0.3,2.4,0.3c0.6,0,1.2,0,1.8-0.1c0,0.2,0,0.3,0,0.5c0,1.2,0,2.2,0.8,3.2
	c0.1,0.1,0.2,0.1,0.3,0.1c1.3-0.3,1.9-1.2,2.6-2.3c0.8-1.1,1.5-2.3,2.3-3.4c0.3-0.4,0.5-0.9,0.5-1.3c0.8-0.8,1.5-1.7,2.1-2.8
	c0.1,0.2,0.1,0.4,0.2,0.6c0.4,0.9,1.6,0.6,2.1,0c1.6-2.2,2-5.6,1.3-8.2c-0.1-0.5-0.4-0.9-0.6-1.2c0.4-1.8,0.3-3.7-0.2-5.5
	c-1.4-4.6-5.7-8-10.5-8.2c-0.3-0.5-0.7-1-1.1-1.5c-4.6-4.6-12.2-2.1-15.8-0.9c-4.5,1.5-9.7,3-14.6,2.1c-4-0.8-6.6-2.8-7.7-6
	c-1.3-3.8,0.1-8.7,3.4-12.4c2.2-2.4,4.8-4.3,7.5-6.3c1-0.8,2.1-1.5,3.1-2.3c2-1.6,3.9-3.2,5.7-5c9.5-1.1,22.6-4.6,33.3-14.3
	c9.9-9,15.4-22.1,14.3-34.2C332.9,200.6,323.7,189,312,185.5z"/>
<g id="cock">
	<g>
		<path class="st2" d="M177,347.5c0.2,0,0.3,0,0.4-0.1c0.4-0.3,0.7-0.7,1-1.3l0.2-0.4h0.4c1.5,0,2.9-0.3,4.2-0.8
			c2.7-1.2,4.9-3.7,5.9-6.7c0.9-2.9,0.6-5.9-0.9-8.2c-0.3-0.5-0.7-1-1.1-1.5c-0.6-0.7-1.1-1.4-1.4-2.1c-0.3-0.7-0.2-1.7,0.3-2.1
			l0.2-0.2l0.3,0.1c0.6,0.1,1.2,0.8,2.3,3.5c2,4.8,6.9,8.1,12,8.1c1.2,0,2.3-0.2,3.3-0.5l0.4-0.1l0.3,0.3c0.2,0.2,0.5,0.4,0.8,0.6
			c0.2,0.1,0.3,0.2,0.5,0.3l0,0c0.1,0,0.2,0,0.2-0.1c0.9-0.7,1.2-1.5,1.5-2.6l0.1-0.2l0.2-0.1c2.2-1.6,3.8-3.9,4.4-6.3
			c1.4-5.1-1.4-11-6.1-13.1c-2.2-1-4.6-1.1-6.5-1.1c-0.9,0-1.8,0-2.7,0.1c-0.8,0-1.5,0.1-2.3,0.1c-2.6,0-4.3-0.3-5.8-1
			c-1.9-0.9-2.9-2.2-3.1-3.8c-0.2-2.3,1.3-5.1,3.9-7.2c4.3-3.4,9.3-6.3,15.1-8.7h0.1h0.1c3.1-0.3,9.1-0.9,15.5-0.9
			c4.7,0,8.8,0.3,12.2,0.9c8.1,1.5,14.8,5.2,18.8,10.6l0.6,0.8l-1,0.2c-3.1,0.7-5.6,1.8-7.6,3.2c-3,2.2-5.8,6.7-4.8,11.2v0.1v0.1
			c-0.1,0.6-0.2,1.2-0.2,1.7c-0.2,3.4,0.6,4.2,1.1,4.4c0.1,0,0.1,0,0.2,0c0,0,0.1,0,0.2-0.1c0.3-0.3,0.5-0.8,0.7-1.4l0.2-1l0.8,0.6
			c1.9,1.6,4.6,2.5,7.4,2.5c0.5,0,1.1,0,1.6-0.1c4.6-0.6,8.5-3.4,11.4-5.8c0.7-0.6,1.4-1.2,2.1-1.8c2.5-2.1,4.7-4.1,7.4-5.5
			c2.5-1.3,5.5-2.1,8.4-2.2c3.4,0.1,8.4,3.2,10.8,5.4l1.1,0.9c2.7,2.4,5.5,4.9,9.2,5.8c0.7,0.2,1.5,0.2,2.3,0.2c0.6,0,1.1,0,1.7-0.1
			l0.8-0.1v1.3c0,1.1,0,1.9,0.5,2.6c0.8-0.3,1.3-0.9,1.9-1.9l0.4-0.5c0.7-1,1.3-2,2.1-3c0.2-0.3,0.3-0.6,0.4-1v-0.2l0.2-0.2
			c0.8-0.8,1.4-1.6,2-2.6l0.7-1.2c0,0,0.7,1.8,0.7,1.9s0.1,0.2,0.3,0.2c0.2,0,0.5-0.1,0.7-0.3c1.4-1.9,1.9-5.1,1.1-7.7
			c-0.1-0.4-0.3-0.7-0.5-0.9l-0.2-0.2l0.1-0.3c0.4-1.8,0.3-3.6-0.2-5.2c-1.3-4.3-5.4-7.5-9.9-7.7h-0.3l-0.2-0.3
			c-0.4-0.6-0.7-1-1.1-1.4c-1.6-1.7-3.9-2.5-6.7-2.5c-3.2,0-6.5,1.1-8.5,1.8c-3.5,1.2-7.5,2.4-11.6,2.4c-1.2,0-2.3-0.1-3.3-0.3
			c-4.2-0.8-7-3-8.2-6.4c-1.3-4,0.1-9.1,3.6-13c2.2-2.4,4.8-4.3,7.6-6.4c1-0.8,2.1-1.5,3.1-2.3c1.9-1.5,3.8-3.1,5.6-4.9l0.2-0.2h0.2
			c9.2-1.1,22.3-4.4,33-14.1c9.8-8.9,15.2-21.8,14.1-33.7c-1.2-12.8-10.1-24.1-21.7-27.6l-0.2-0.1l-0.1-0.2
			c-2.4-3.9-5.3-7.1-7.4-9.1c-2.6-2.5-5.5-4.8-8.2-7c-4.5-3.6-8.6-7-12.1-11.2c-4.6-5.7-8.7-15.1-4.8-23l0.2-0.4h3
			c0.7,0,1.2-0.5,1.3-1.1c0.2-2.1-0.3-4.3-1.5-6.2l-0.5-0.8l4.3-0.9c0.5-0.1,0.9-0.5,1-1s-0.1-1-0.6-1.3c-6.4-4-13.6-8.8-17.2-15.2
			l-0.1-0.2l0.2-0.6c0.4-1.7,0.7-3.3,0.8-4.9c0.1-2.1,0.1-3.9-0.2-5.6c-0.3-1.8-0.7-3.9-1.9-5.9c-0.2-0.4-0.5-0.8-0.8-1.2l-0.1-0.2
			v-0.2c0-2.9-0.2-5.1-0.7-7.1c-1.6-6.5-6.8-12.3-14.2-15.9c-5.9-2.8-12.2-4-18.2-5l-0.5-0.1v-0.5c-0.1-5.1,0.3-9,1.5-12.4v-0.1
			l0.1-0.1c0.4-0.5,0.8-0.9,1-1.1c1.2-1.2,3.1-1.9,4.8-1.9c0.4,0,0.9,0,1.3,0.1c3.6,0.8,6.5,3.8,9.3,6.6l0.6,0.6
			c3.1,3.2,6.2,4.8,9,4.8c1,0,2-0.2,2.9-0.7c2.2-1.1,3.7-3.6,3.9-6.5c0.2-2.5-0.4-4.9-1-7c-2.4-9.2-5.7-19.3-14.3-23.5
			c-2.4-1.2-5.1-1.8-7.9-1.8c-5.7,0-11.9,2.4-16.7,6.5l-0.2,0.1c-1.3,1.1-2.8,2.3-4.1,2.3c-0.1,0-0.3,0-0.4,0
			c-1.4-0.3-2.2-1.7-3.2-3.9c-0.2-0.5-0.4-0.9-0.7-1.4c-2.5-4.8-7.9-7.9-13.8-7.9c-1.7,0-3.4,0.3-5,0.8c-6.5,2.1-11.7,8.5-12.8,15.8
			l-0.1,0.8c-0.3,1.8-0.5,3.6-1.7,4.4c-0.4,0.3-1,0.5-1.6,0.5c-1.3,0-2.8-0.7-4-1.9c-0.7-0.7-1.3-1.4-1.9-2.2
			c-1.1-1.4-2.2-2.8-3.7-3.8s-3.3-1.5-5.2-1.5c-2.3,0-4.5,0.8-6.2,2.2c-3.1,2.7-4.1,7.5-2.3,11.1c0.2,0.5,0.5,1,0.8,1.5
			c1.1,1.9,1.7,3.2,1.1,4.1c-0.3,0.4-0.8,0.6-1.6,0.6c-1,0-2.2-0.3-3-0.5c-1.5-0.4-3-0.6-4.4-0.6s-2.8,0.2-4,0.7
			c-3.1,1.1-5.3,3.9-5.4,6.8c-0.1,1.9,0.6,3.6,1.3,5.1c0.7,1.6,1.3,3.1,1,4.5c-0.2,1.2-1.1,2.3-2.1,3.4c-0.5,0.6-1,1.2-1.4,1.8
			c-1.1,1.6-1.5,3.7-1,5.4c0.1,0.3,0.3,0.7,0.5,1l0.2,0.4l-0.3,0.4c-12.1,14.8-16.4,35.3-11.3,53.5c1.2,4.4,3,8.7,4.7,12.9
			c0.9,2.1,1.7,4.2,2.5,6.3c2.1,5.6,4.8,12.6,3.7,19.2c-1,5.7-2.6,8.9-4.1,11.2l-0.1,0.2l-0.2,0.1c-1,0.3-2,0.5-3.1,0.5
			c-3.9,0-8.3-2.1-11-5.4c-3.3-3.9-5.1-9.4-5.6-16.8c-0.2-2.7-0.2-5.4-0.2-8.1c0-3.5,0-7.1-0.4-10.7c-1.3-11.4-6.4-22-14.4-29.8
			c-8.1-8-19.2-12.8-30.3-13.3c-0.6,0-1.2,0-1.9,0c-18-0.2-35.4,10.3-45,26.6c-8.8,14.9-11.3,34.6-7,54c2.5,10.9,8.1,26.1,20.9,36.5
			c0.2,0.2,0.5,0.3,0.8,0.3c0.2,0,0.4,0,0.6-0.1c0.4-0.2,0.7-0.6,0.7-1.1l0.1-2.3l1.1,2c4.9,9,11.8,17.7,20.5,25.9
			c0.2,0.2,0.5,0.3,0.9,0.3c0.3,0,0.5-0.1,0.7-0.2c0.5-0.3,0.7-1,0.4-1.6c-5.1-11.6-7.3-20.9-7.1-30.2l1.2-0.2
			c1.7,4.8,3.7,9.4,6.1,13.6v0.1v0.1c2.7,11.7,9.6,22.5,18.9,29.5c0.2,0.2,0.5,0.3,0.8,0.3c0.1,0,0.3,0,0.4-0.1
			c0.4-0.1,0.7-0.4,0.8-0.8c0.8-2.6,1.3-5.3,1.4-8.1l0.1-1.9l1.1,1.5c0.4,0.6,0.8,1.2,1.3,1.8c1.3,1.7,2.8,2.6,4.2,2.6
			c0.4,0,0.9-0.1,1.3-0.3c1.4-0.6,2-2,2.4-2.9c0.5-1.1,1.2-2.5,2.1-4.2l1.2,0.3c0,0.3,0,0.6,0,1v0.2l-0.1,0.2
			c-0.9,1.4-1.6,2.7-2.2,4c-3.3,7.5-4.5,18.3-3,27.5v0.2l-0.1,0.2c-0.6,1.1-1.2,2.1-1.6,3.2c-2.1,4.9-1.1,7.8,0.1,9.3
			c1.6,2,4.1,2.5,6.6,2.7c2.9,0.3,5.9,0.5,8.8,0.5c9.4,0,18.9-1.7,27.4-4.9l0.4-0.2l0.3,0.4c6.2,8,15,14.1,24.7,17
			c0.9,0.3,1.5,0.5,1.8,0.8c0.4,0.4,0.4,1.1,0.4,2.1c0,3.3-0.3,6.6-0.9,10l-0.1,0.4l-0.4,0.1c-3.2,1.1-6.8,2.6-9.8,5.1
			c-4.2,3.5-6.1,8.6-5,13c0.3,1.1,0.9,2.3,1.8,3.3c0.1,0.2,0.2,0.3,0.3,0.4l-0.3,0.3l0.4-0.2l0.1,0.2c0.1,0.4,0.2,0.8,0.4,1.1
			c0.3,0.5,0.8,1,1.3,1.5c0.1,0.1,0.2,0.1,0.3,0.1s0.2,0,0.2-0.1s0.1-0.2,0.1-0.2l0.1-0.1l0.3-0.5l0.5,0.2h0.1c1,0.4,2,0.6,3,0.6
			c1.3,0,2.6-0.4,3.7-1.1c1.4-0.9,2.4-2.3,3.2-3.6l1.2,0.4c-0.4,3,0.2,5.9,1.5,8.3c1.5,2.6,3.9,4.7,6.9,5.7l0.3,0.1l0.1,0.3
			c0.3,0.9,0.6,1.5,1.2,1.9C176.7,347.5,176.8,347.5,177,347.5z"/>
		<path class="st3" d="M138.5,147.5c-0.8-2.1-1.7-4.2-2.5-6.3c-1.7-4.1-3.5-8.4-4.7-12.9c-5.1-18.2-0.8-38.7,11.3-53.5l0.3-0.4
			l-0.2-0.4c-0.2-0.4-0.4-0.7-0.5-1c-0.5-1.6-0.1-3.6,0.9-5.2c9.2-5.4,20.1-8.4,30.6-10.5c19.6-3.8,40-5.5,59.7-2.1
			c-0.2,1.8-0.2,3.7-0.2,5.9v0.5l0.5,0.1c6,1,12.3,2.1,18.2,5c7.4,3.6,12.6,9.3,14.2,15.9c0.5,2,0.7,4.2,0.7,7.1v0.2l0.1,0.2
			c0.3,0.4,0.5,0.8,0.8,1.2c1.1,2,1.6,4.1,1.9,5.9c0.3,1.7,0.3,3.5,0.2,5.6c-0.1,1.6-0.4,3.3-0.8,4.9l-0.2,0.6l0.1,0.2
			c3.6,6.4,10.7,11.2,17.2,15.2c0.4,0.3,0.7,0.8,0.6,1.3s-0.5,0.9-1,1l-4.3,0.9l0.5,0.8c1.2,1.9,1.7,4.1,1.5,6.2
			c-0.1,0.7-0.6,1.1-1.3,1.1h-3l-0.2,0.4c-3.9,7.9,0.2,17.3,4.8,23c1.2,1.4,2.4,2.8,3.7,4c-4.1,3.9-8.7,7.3-13.7,10.2
			c-8.3,4.7-17.4,8-26.7,9.8c-20.3,4-41.3,1.8-61.7-1.5c-15.2-2.5-31.2-6.1-43-15.6C143,159.2,140.5,152.8,138.5,147.5z"/>
		<g>
			<path class="st0" d="M108.7,245.8c1.1-7.2,3.9-14.1,8.2-20c-2,0.7-4.3-1-4.8-3c-0.6-2,0.1-4.3,1-6.2c2.6-5.4,7.5-9.6,13.1-11.4
				c-2.3,2.5-4.5,5.3-4.8,8.6c-0.2,3.3,2.6,7,5.9,6.3c-4,2.6-5.9,8.1-4.3,12.6s6.4,7.7,11.2,7.2c-5.5,2.8-7.8,10.2-5.7,16.1
				c4.8,13.3,20.7,10.7,31.7,8.6c-2.2,0.4-6.6,6-8.7,7.4c-3.5,2.4-7.4,4.3-11.4,5.8c-6.7,2.5-16.9,5.5-22.8-0.2
				c-2.6-2.5-3.8-6.3-3.8-10s0.9-7.2,1.8-10.8c-2.5,0.6-5.1-1.2-6.2-3.6C108.2,251.1,108.3,248.4,108.7,245.8z"/>
			<path class="st0" d="M298.4,237.9c1,3.7,4.6,6.4,8.4,7s7.7-0.6,11-2.6c2.4-1.5,4.6-4,6.9-5.2c2.1,7-13,15.7-18.1,17.4
				c-2.6,0.9-5.6,1.3-8,0c-2.7-1.5-3.8-4.9-3.5-8C295.5,243.4,297,240.6,298.4,237.9z"/>
			<path class="st0" d="M139.2,175.9c1.1-2.1,2.2-5,3-9.2c0.8-4.4-0.2-9-1.6-13.3c0.4-0.3,0.8-0.6,1.2-0.9
				c0.1,5.3,4.1,10.4,9.3,11.6c5.2,1.2,11.1-1.4,13.6-6.1c-0.6,2.3-1.1,4.7-0.9,7.1c0.3,2.4,1.5,4.8,3.7,5.8s5.2,0,5.9-2.3
				c-0.8,3.1,3.4,5.5,6.4,4.4s4.7-4.2,6.1-7c-1.2,3.5,1.7,7.5,5.3,8.3s7.4-0.9,10.1-3.5c2.6-2.6,4.3-6,6-9.3
				c0.4,3.6,1.1,7.5,3.6,10.1s7.6,3.1,9.5-0.1c0.8,3,4.7,4.4,7.6,3.4c2.9-1,4.9-3.8,6-6.8c-0.7,4.6,3.6,9.3,8.3,9s8.4-5.5,7.2-10
				c2.4,1.7,5,3.5,7.8,4.3c2.9,0.8,6.3,0.5,8.5-1.6c1.9-1.8,2.3-4.9,1-7c3.7,3.7,10.2,4.3,14.4,1c1.6-1.3,2.7-2.9,3.3-4.7
				c2.3,2.6,4.8,5,7.5,7.2c0.2,3.6-0.5,6.6-5.1,6.7c-2.2,0.1-4.3-0.8-6.3-1.6c2.3,2.5,4.7,5.1,5.3,8.4c0.7,3.3-1.1,7.3-4.4,7.9
				c-3.1,0.5-5.8-2.2-7.9-4.6c0.7,3.2,1.1,7.3-1.5,9.2c-2.2,1.6-5.3,0.8-7.5-0.8c-2.2-1.6-3.8-3.9-5.9-5.5
				c-5.3-4.2-13.8-3.7-18.6,1.1c-1.9,1.9-3.3,4.4-5.7,5.5s-6.2-0.6-5.5-3.2c-0.3,2.7-2.5,5.1-5.2,5.7c-2.7,0.6-5.7-0.8-7-3.2
				c0.9,4.4-2.9,9-7.4,9.1c-4.4,0-8.3-4.6-7.5-8.9c-1.6,1.5-3.3,3.1-5.4,3.9c-2.1,0.8-4.6,0.9-6.3-0.5s-2.1-4.4-0.3-5.8
				c-2.5,1.9-5.4,3.9-8.5,3.6c-2.7-0.2-5.1-2.9-4.8-5.3c-1.1,2-3.5,3.2-5.7,2.6c-2.7-0.7-4.4-3.9-3.4-6.5c-1.6,2.4-4.9,3.4-7.5,2.2
				c-2.6-1.1-4.2-4.3-3.5-7C150.5,181.8,143.5,180.2,139.2,175.9z"/>
		</g>
		<path class="st4" d="M26.3,121.2c9.6-16.2,27-26.7,44.4-26.7c0.6,0,1.3,0,1.9,0c11.1,0.5,22.2,5.4,30.3,13.3
			c8,7.9,13.1,18.5,14.4,29.8c0.4,3.6,0.4,7.2,0.4,10.7c0,2.7,0,5.4,0.2,8.1c0.5,7.4,2.3,12.8,5.6,16.8c2.7,3.3,7.1,5.4,11,5.4
			c1,0,2-0.1,2.9-0.4c-0.1,0.3-0.1,0.5-0.2,0.8c-2.1,8.5-7.8,15.9-13.5,22.3c-7.4,8.3-15.8,16-20.4,26.2c-1.5,3.3-2.5,6.9-3.5,10.5
			c-0.3,0.7-0.6,1.3-0.9,1.9c-0.4,0.8-1,2.3-2.4,2.9c-0.4,0.2-0.9,0.3-1.3,0.3c-1.4,0-2.9-0.9-4.2-2.6c-0.5-0.6-0.9-1.2-1.3-1.8
			l-1.1-1.5l-0.1,1.9c-0.1,2.8-0.6,5.6-1.4,8.1c-0.1,0.4-0.4,0.7-0.8,0.8c-0.1,0-0.3,0.1-0.4,0.1c-0.3,0-0.5-0.1-0.8-0.3
			c-9.3-7-16.2-17.8-18.9-29.5v-0.1v-0.1c-2.4-4.2-4.4-8.7-6.1-13.6l-1.2,0.2c-0.2,9.3,1.9,18.7,7.1,30.2c0.2,0.6,0.1,1.2-0.4,1.6
			c-0.2,0.2-0.5,0.2-0.7,0.2c-0.3,0-0.6-0.1-0.9-0.3c-8.7-8.2-15.6-16.9-20.5-25.9l-1.1-2l-0.1,2.3c0,0.5-0.3,0.9-0.7,1.1
			c-0.2,0.1-0.4,0.1-0.6,0.1c-0.3,0-0.6-0.1-0.8-0.3c-12.8-10.4-18.5-25.6-20.9-36.5C15,155.7,17.5,136.1,26.3,121.2z"/>
		<path class="st5" d="M96.1,142.1c7.3,5,11.4,14.2,10.4,23c-14-2-28,7.2-34.7,19.8c-5.3,9.9-6.5,21.4-5.6,32.8
			c-2.3-4.1-4.3-8.5-5.9-13.2l-1.2,0.2c0,0.2,0,0.3,0,0.5c-2.5-7.7-4.3-15.5-4.6-23.6C53.5,160.9,70.6,124.6,96.1,142.1z"/>
		<path class="st3" d="M65.4,131.5c12.8-2.9,26.8,3.1,34.9,13.5c-4.9-5.6-13.2-7.5-20.4-5.6c-7.2,2-13.1,7.3-16.8,13.8
			s-5.2,13.9-5.6,21.4c-0.6,10.8,1,21.5,3.5,32c-0.3-0.7-0.5-1.4-0.8-2.2l-1.2,0.2c-0.2,9.3,1.9,18.7,7.1,30.2
			c0.2,0.6,0.1,1.2-0.4,1.6c-0.2,0.2-0.5,0.2-0.7,0.2c-0.3,0-0.6-0.1-0.9-0.3c-8.7-8.2-15.6-16.9-20.5-25.9l-1.1-2l-0.1,2.1
			c-0.6-1.5-1.1-3.1-1.5-4.8c-1.9-7-3.4-14.2-4.2-21.4c-1.1-10.9-0.1-22.3,4.6-32.2C45.9,142.2,54.7,133.9,65.4,131.5z"/>
		<g>
			<path class="st6" d="M228.5,116.7c0.4-3.8,0.2-7.7,1.2-11.3s3.5-7.3,7.3-8c4.4-0.9,8.6,2.5,11.2,6.2c3,4.1,5,8.9,6.1,13.8
				c0.5,2.4,0.8,5.1,2.6,6.9c1.5,1.5,3.6,2,5.6,2.7c2.3,0.9,4.4,2.3,5.7,4.4c1.2,2.1,1.2,5-0.6,6.7c-2,2-5.4,1.7-8.2,2.3
				c-4,1-7.2,4.5-7.8,8.6c-5.6-4.8-12.5-9.9-19.6-8.1c-2.3,0.6-4.4,1.9-6.6,2.7c-2.2,0.9-4.8,1.2-6.9,0.1c-3.2-1.8-3.5-6.4-1.8-9.6
				c1.8-3.2,5.1-4.5,7.5-7.1C226.6,124.3,228,120.4,228.5,116.7z"/>
			<path class="st7" d="M152.2,332.7l-0.1-0.2l-0.4,0.2l0.3-0.3c-0.1-0.1-0.2-0.2-0.3-0.4c-0.8-1-1.5-2.1-1.8-3.3
				c-1.2-4.4,0.8-9.5,5-13c3-2.5,6.6-3.9,9.8-5.1l0.4-0.1l0.1-0.4c0.6-3.4,0.9-6.7,0.9-10c0-1-0.1-1.7-0.4-2.1
				c-0.2-0.2-0.5-0.4-0.8-0.5c3.3-1.2,6.8-2.1,10.2-2.9c3.6,3,9.9,1.2,11.5-3.2c4.3,2.7,9.8,1.7,14.8,0.6c17.5-3.8,35-7.7,52.5-11.5
				c4.6,3.1,8.8,1.6,12.9-0.5c-1.1,2.8-1.4,5.7-0.5,8.2c1.1,3.4,3.9,5.6,8.2,6.4c1.1,0.2,2.2,0.3,3.3,0.3c4.1,0,8.1-1.2,11.6-2.4
				c2-0.7,5.3-1.8,8.5-1.8c2.8,0,5,0.8,6.7,2.5c0.4,0.4,0.7,0.8,1.1,1.4l0.2,0.3h0.3c4.5,0.2,8.6,3.5,9.9,7.7
				c0.5,1.6,0.5,3.4,0.2,5.2l-0.1,0.3l0.2,0.2c0.2,0.2,0.4,0.6,0.5,0.9c0.7,2.6,0.3,5.8-1.1,7.7c-0.1,0.2-0.4,0.3-0.7,0.3
				c-0.2,0-0.3-0.1-0.3-0.2s-0.7-1.9-0.7-1.9l-0.7,1.2c-0.5,1-1.2,1.9-2,2.6l-0.2,0.2v0.2c0,0.4-0.1,0.7-0.4,1c-0.7,1-1.4,2-2.1,3
				l-0.4,0.7c-0.6,0.9-1.1,1.6-1.9,1.9c-0.5-0.7-0.5-1.5-0.5-2.6V322l-0.8,0.1c-0.6,0.1-1.1,0.1-1.7,0.1c-0.8,0-1.6-0.1-2.3-0.2
				c-3.7-0.8-6.5-3.3-9.2-5.8l-1.1-0.9c-2.4-2.1-7.4-5.2-10.8-5.4c-3,0.1-5.9,0.8-8.4,2.2c-2.7,1.4-4.9,3.4-7.4,5.5
				c-0.7,0.6-1.4,1.2-2.1,1.8c-2.9,2.4-6.8,5.2-11.4,5.8c-0.5,0.1-1,0.1-1.6,0.1c-2.7,0-5.4-0.9-7.4-2.5l-0.8-0.6l-0.2,1
				c-0.2,0.7-0.4,1.2-0.7,1.4c-0.1,0.1-0.2,0.1-0.2,0.1s-0.1,0-0.2,0c-0.5-0.2-1.3-1.1-1.1-4.4c0-0.6,0.1-1.2,0.2-1.7v-0.1v-0.1
				c-1.1-4.5,1.7-8.9,4.8-11.2c2-1.5,4.5-2.5,7.6-3.2l1-0.2l-0.6-0.8c-4-5.4-10.7-9.2-18.8-10.6c-3.3-0.6-7.4-0.9-12.2-0.9
				c-6.4,0-12.4,0.5-15.5,0.9h-0.1h-0.1c-5.8,2.4-10.8,5.3-15.1,8.7c-2.6,2.1-4.1,4.9-3.9,7.2c0.2,1.6,1.2,2.8,3.1,3.8
				c1.5,0.7,3.2,1,5.8,1c0.7,0,1.5,0,2.3-0.1c0.9,0,1.8-0.1,2.7-0.1c1.8,0,4.2,0.1,6.5,1.1c4.8,2.1,7.5,8,6.1,13.1
				c-0.7,2.4-2.2,4.7-4.4,6.3l-0.2,0.1l-0.1,0.2c-0.3,1.1-0.6,1.8-1.5,2.6c-0.1,0.1-0.2,0.1-0.2,0.1l0,0c-0.2-0.1-0.3-0.2-0.5-0.3
				c-0.3-0.2-0.5-0.3-0.8-0.6l-0.3-0.3l-0.4,0.1c-1.1,0.3-2.2,0.5-3.3,0.5c-5,0-10-3.3-12-8.1c-1.2-2.7-1.8-3.4-2.3-3.5l-0.3-0.1
				l-0.2,0.2c-0.4,0.3-0.6,1.3-0.3,2.1c0.3,0.7,0.8,1.4,1.4,2.1c0.4,0.5,0.8,1,1.1,1.5c1.5,2.3,1.8,5.3,0.9,8.2
				c-1,3.1-3.2,5.6-5.9,6.7c-1.3,0.6-2.7,0.8-4.2,0.8h-0.4l-0.2,0.4c-0.2,0.6-0.5,0.9-1,1.3c-0.1,0-0.2,0.1-0.4,0.1s-0.3,0-0.4-0.1
				c-0.6-0.5-0.9-1-1.2-1.9l-0.1-0.3l-0.3-0.1c-3-1-5.4-3.1-6.9-5.7c-1.3-2.4-1.9-5.4-1.5-8.3l-1.2-0.4c-0.8,1.2-1.7,2.6-3.2,3.6
				c-1.1,0.7-2.4,1.1-3.7,1.1c-1,0-2-0.2-3-0.6h-0.1l-0.5-0.2l-0.3,0.5l-0.1,0.1c0,0.1-0.1,0.1-0.1,0.2s-0.1,0.1-0.2,0.1
				c-0.1,0-0.2,0-0.3-0.1c-0.5-0.5-1-1-1.3-1.5C152.4,333.4,152.3,333.1,152.2,332.7z"/>
		</g>
		<g>
			<path class="st8" d="M145.4,274.5c12.8-7,24-17.9,29.2-31.6s3.7-30.3-5.8-41.4c3.4,1.8,5.1,5.6,6.6,9.1c1.6,3.5,3.5,7.2,7.1,8.7
				c3.1,1.2,7.3-0.7,7.8-3.7c0.3,6.6,0.9,13.4,4.9,18.6c4.3,5.5,13.9,7.4,18,1.7c-0.6,6.6,4.9,13.1,11.5,13.5
				c6.6,0.5,13-5.2,13.3-11.8c2,4.1,7.2,6.3,11.6,4.9c4.3-1.4,7.2-6.3,6.4-10.8c0.3,2.7,2.1,5.2,4.5,6.5c2.4-3.5,2.9-8.2,1.6-12.3
				c1.5,2.6,4.4,4.4,7.4,4.4c-1.5-6.7-3-13.4-4.5-20.1c2.4,4.2,4.9,8.5,8.4,11.8s8.3,5.7,13.1,5.2c4.5-0.5,8.7-4,9.3-8.4
				c0.2,2.8,3.7,5,6.6,4.1c3.2-1.1,4.9-4.8,4.7-8.1c-0.2-3.3-1.8-6.4-3.6-9.3c2.1,1.8,4.3,3.5,6.4,5.3c1-3.9,0.8-8.1-0.7-11.8
				c0.9,1.1,2.7,1.3,3.8,0.3c0.2-6.4-1.4-11.8-3.9-17.2c0.9,1.1,1.7,2.4,2.5,3.7l0.1,0.2l0.2,0.1c11.6,3.5,20.5,14.8,21.7,27.6
				c1.1,11.9-4.3,24.9-14.1,33.7c-10.7,9.7-23.8,13-33,14.1h-0.2l-0.2,0.2c-1.8,1.8-3.7,3.5-5.6,4.9c-1,0.8-2,1.5-3.1,2.3
				c-2.8,2-5.4,4-7.6,6.4c-3.5,3.9-4.9,9-3.6,13c0.3,0.9,0.8,1.8,1.3,2.5c-4.4,3.7-8.3,7.9-11.3,12.9c-2.2,0.2-4.4,0.4-6.6,0.6
				c0.6-0.2,1.2-0.3,1.8-0.5l1-0.2l-0.6-0.8c-4-5.4-10.7-9.2-18.8-10.6c-3.3-0.6-7.4-0.9-12.2-0.9c-6.4,0-12.4,0.5-15.5,0.9h-0.1
				h-0.1c-5.8,2.4-10.8,5.3-15.1,8.7c-2.6,2.1-4.1,4.9-3.9,7.2c0.2,1.6,1.2,2.8,3.1,3.8c1.5,0.7,3.2,1,5.8,1c0.3,0,0.7,0,1,0
				c-4.2,2.8-7.7,7-8.8,11.7c-0.2-0.3-0.5-0.4-0.7-0.4l-0.3-0.1l-0.2,0.2c-0.4,0.3-0.6,1.3-0.3,2.1c0.2,0.6,0.7,1.2,1.1,1.8
				c0,0.2,0,0.4,0,0.6c-1.9-4.1-6.4-6.8-10.9-6.6c-4.5,0.2-8.7,3.4-10.3,7.6c1.2-3.6,2.5-7.4,2-11.2c-0.4-3-2.2-5.9-4.8-7.2
				c0.6-0.2,1.2-0.5,1.8-0.7l0.4-0.1l0.1-0.4c0.6-3.4,0.9-6.7,0.9-10c0-1-0.1-1.7-0.4-2.1c-0.3-0.4-0.9-0.6-1.8-0.8
				c-9.7-2.9-18.5-9-24.7-17l-0.3-0.4l-0.4,0.2c-0.8,0.3-1.7,0.6-2.5,0.9C138.4,278.2,142.1,276.3,145.4,274.5z"/>
			<path class="st8" d="M84.8,197.6c0.5-6.7,4.1-12.8,8.8-17.5c4.7-4.8,10.4-8.4,16.1-11.9c3-1.9,6-3.8,9.1-5.7
				c0.9,4.4,2.5,7.9,4.8,10.7c2.7,3.3,7.1,5.4,11,5.4c1.1,0,2.1-0.2,3.1-0.5l0.2-0.1l0.1-0.2c1.5-2.4,3.2-5.5,4.1-11.2
				c1-5.7-0.9-11.8-2.9-17c0.5-0.3,1.1-0.7,1.6-1c0.7,5.2,5.4,9.6,10.6,10s10.5-3.2,12-8.3c1.5,4.7,3.2,9.8,7.2,12.7
				s11,1.9,12.3-2.9c0.6,3.7,1.4,7.7,4.1,10.3c2.7,2.6,8.1,2.7,9.6-0.8c-0.4,3,2.9,5.7,5.9,5.3c3-0.3,5.5-2.8,6.9-5.5
				c0.8,3.9,4,7.1,7.8,7.9c3.9,0.8,8.1-1,10.3-4.2c0.1,2,1.6,3.8,3.5,4.2c1.9,0.5,4.1-0.5,5-2.2c-2.7,4.7-4.9,8.6-5.8,14
				c-0.7,4.5-0.4,10.1-3.8,13.6c-2.5,2.5-7.7,2.3-8.7-1.1c-1.1,3.6-4.6,6.4-8.3,6.7c-3.8,0.3-7.6-1.8-9.3-5.2
				c-2.1,2.4-5.8,3.4-8.9,2.3c-3.1-1.1-5.3-4.1-5.5-7.4c-3.2,3.9-10.3,3.1-12.7-1.3c-1,1.5-2,3.1-2.9,4.6
				c-5.1-5.6-13.4-7.3-20.9-6.2c-7.5,1-14.4,4.5-21.2,7.8c-7.3,3.6-14.9,7.6-19.5,14.2c3.4-5.6,6.4-11.4,8.9-17.4
				c1.1-2.6,2.1-5.6,1.1-8.3c-1.3-3.5-5.5-4.8-9.2-5.1C100,185.9,90.5,190.2,84.8,197.6z"/>
		</g>
		<g>
			<path class="st4" d="M232.1,184.7c1.4-4.5,3.9-8.2,5.6-12.5c1.9-4.5,4.1-8.9,6.7-13.1c0.6-0.9,1.4-1.9,2.4-1.6
				c0.5,0.1,0.9,0.6,1.2,1c2.4,3.2,4.5,5.7,8,7.6c3.4,1.8,7.5,2.9,9.2,6.3c1.5,3,0.4,6.8-1.7,9.3c-1.7,2-4.1,3.5-6.7,3.7
				c-2.6,0.2-5.4-1-6.6-3.2c-0.8,2.5-0.5,5.3-0.8,7.9c-0.2,2.7-1.1,5.5-3.3,7c-2.3,1.5-5.3,1.1-7.9,0.3c-2.5-0.7-5.1-1.9-6.4-4.1
				C230.5,190.9,231.2,187.6,232.1,184.7z"/>
			<path class="st4" d="M142.1,73.1c-0.5-1.6-0.1-3.8,1-5.4c0.4-0.6,0.9-1.2,1.4-1.8c1-1.2,1.8-2.2,2.1-3.4c0.3-1.4-0.3-2.8-1-4.5
				c-0.6-1.5-1.3-3.3-1.3-5.1c0.1-2.9,2.3-5.7,5.4-6.8c1.2-0.4,2.5-0.7,4-0.7c1.4,0,2.8,0.2,4.4,0.6c0.8,0.2,2,0.5,3,0.5
				c0.8,0,1.3-0.2,1.6-0.6c0.7-0.9,0-2.2-1.1-4.1c-0.3-0.5-0.6-1-0.8-1.5c-1.8-3.7-0.8-8.5,2.3-11.1c1.7-1.4,3.8-2.2,6.2-2.2
				c1.9,0,3.7,0.5,5.2,1.5s2.7,2.4,3.7,3.8c0.6,0.8,1.2,1.6,1.9,2.2c1.2,1.2,2.7,1.9,4,1.9c0.6,0,1.1-0.2,1.6-0.5
				c1.1-0.9,1.4-2.6,1.7-4.4l0.1-0.8c1.2-7.3,6.3-13.7,12.8-15.8c1.6-0.5,3.3-0.8,5-0.8c5.9,0,11.3,3.1,13.8,7.9
				c0.2,0.4,0.5,0.9,0.7,1.4c1,2.2,1.8,3.6,3.2,3.9c0.1,0,0.3,0,0.4,0c1.4,0,2.8-1.2,4.1-2.3l0.2-0.1c4.8-4.1,11-6.5,16.7-6.5
				c2.8,0,5.5,0.6,7.9,1.8c8.6,4.2,11.9,14.3,14.3,23.5c0.6,2.1,1.2,4.5,1,7c-0.2,2.9-1.7,5.4-3.9,6.5c-0.9,0.5-1.9,0.7-2.9,0.7
				c-2.8,0-5.8-1.7-9-4.8l-0.6-0.6c-2.8-2.8-5.7-5.8-9.3-6.6c-0.4-0.1-0.8-0.1-1.3-0.1c-13.1,0-4.7,20.7-11.1,25
				c-3.1,2.1-7.3,0.6-10.8-0.8c-21.1-8.3-45.3-8.1-66.2,0.4C149.1,71.5,145.6,73.1,142.1,73.1z"/>
		</g>
		<g>
			<path class="st0" d="M259.3,38.1c-2.6-3.4-5.9-6.6-9.7-8.6c-3.2-1.7-6.6-0.8-9.8-1.9c-0.1,0-0.2-0.2-0.2-0.3
				c0.8-4.6,7.9-3.8,11-2.4c5.4,2.5,7.3,7.7,9.3,12.9C260.1,38.2,259.5,38.4,259.3,38.1z"/>
			<path class="st0" d="M240.4,102.3c11.2,4.7,12.9,21,11.5,31.3c0,0.3-0.5,0.3-0.6,0c-1.7-5.3-2.7-10.8-4.4-16.1
				c-1.7-5.4-4.7-9.3-7.7-14.1C238.8,102.7,239.7,102,240.4,102.3z"/>
			<path class="st0" d="M255.8,170.4c0.7-0.2,1.1-0.3,1.8-0.1c0.7,0.2,1.3,0.5,1.9,0.9c1.2,0.7,2.7,1.8,2.9,3.2
				c0.2,1.3-1,2.4-2.3,1.7c-1-0.6-1.7-1.7-2.5-2.6c-0.4-0.4-0.8-0.7-1.2-1.1c-0.5-0.4-0.7-0.8-1-1.3
				C255.3,170.9,255.5,170.4,255.8,170.4z"/>
			<path class="st0" d="M244.2,187.2c0.1-0.8,1.1-0.6,1.4,0c0.8,1.9,1.6,4.2,0.5,6.2c-0.8,1.6-3,0.7-3.1-0.8
				c-0.1-0.9,0.3-1.9,0.6-2.8C243.9,188.9,244.1,188.1,244.2,187.2z"/>
		</g>
		<g>
			<ellipse class="st0" cx="261.9" cy="102.7" rx="6.4" ry="14.6"/>
			<path class="st0" d="M184.5,112.1c1.8,9.9,9.9,16.8,18.2,15.3c8.3-1.5,13.5-10.7,11.7-20.6s-9.9-16.8-18.2-15.3
				C188,93,182.7,102.2,184.5,112.1z"/>
		</g>
	</g>
	<g>
		<g>
			<path class="st9" d="M18.7,175.3c2.5,11,8.2,26.4,21.2,36.8c0.3,0.3,0.8,0.4,1.2,0.4c0.3,0,0.6-0.1,0.8-0.2
				c0.6-0.3,1-0.9,1.1-1.6c4.9,9.1,11.8,17.8,20.6,26.1c0.4,0.3,0.8,0.5,1.3,0.5c0.4,0,0.8-0.1,1.1-0.4c0.7-0.5,1-1.5,0.6-2.3
				c-4.9-11.1-7.3-20.3-7-30c1.7,4.9,3.8,9.5,6.1,13.7c2.7,11.8,9.5,22.6,19.1,29.9c0.3,0.3,0.7,0.4,1.2,0.4c0.2,0,0.4,0,0.6-0.1
				c0.6-0.2,1.1-0.7,1.2-1.2c0.8-2.7,1.3-5.5,1.4-8.3c0.4,0.6,0.9,1.2,1.3,1.8c1.5,1.9,3.1,2.9,4.7,2.9c0.5,0,1-0.1,1.5-0.3
				c1.6-0.7,2.3-2.3,2.7-3.2c0.6-1.3,1.3-2.7,2-4.2c0,0.3,0,0.7,0,1c-0.9,1.3-1.6,2.7-2.2,4.1c-3.5,8-4.5,19.1-3,27.9
				c-0.6,1.1-1.2,2.1-1.6,3.2c-2.2,5.2-1.1,8.3,0.2,9.9c1.7,2.1,4.4,2.7,7,3c3,0.3,5.9,0.5,8.9,0.5c9.6,0,19-1.7,27.6-5
				c6.3,8.1,15.1,14.2,25,17.2c0.6,0.2,1.3,0.4,1.5,0.6c0.3,0.3,0.3,1.3,0.3,1.7c0,3.3-0.3,6.6-0.9,9.9c-3.4,1.2-7,2.7-10,5.2
				c-4.4,3.7-6.4,9-5.2,13.7c0.3,1.3,1,2.5,1.9,3.5c0.1,0.2,0.3,0.4,0.5,0.6c-0.1-0.1-0.2-0.2-0.3-0.3c0.2,0.5,0.3,1,0.6,1.5
				c0.4,0.6,0.9,1.1,1.5,1.6c0.4,0.4,1.2,0.4,1.5-0.2c0.1-0.1,0.1-0.2,0.2-0.3c0.1,0,0.1,0.1,0.2,0.1c2.5,1,5.2,0.8,7.2-0.6
				c1.5-1,2.5-2.4,3.4-3.8c-0.4,3,0.1,6.1,1.6,8.7c1.6,2.9,4.3,5,7.2,6c0.3,0.9,0.6,1.7,1.4,2.3c0.4,0.3,1.2,0.3,1.6,0
				c0.6-0.4,0.9-1,1.2-1.5c1.5,0,3-0.3,4.4-0.9c2.9-1.2,5.2-3.9,6.2-7.1c1-3.1,0.6-6.2-1-8.7c-0.4-0.6-0.8-1.1-1.1-1.6
				c-0.5-0.7-1-1.3-1.3-1.9c-0.2-0.6-0.1-1.2,0.1-1.4c0.3,0.1,0.9,0.7,1.9,3.1c2.1,5,7.3,8.5,12.6,8.5h0.1c1.2,0,2.3-0.2,3.4-0.5
				c0,0,0,0,0,0.1c0.4,0.4,0.9,0.6,1.3,0.9c0.3,0.2,0.7,0.1,1-0.1c1.1-0.9,1.4-1.8,1.7-2.9c2.2-1.7,4-4,4.7-6.7
				c1.4-5.4-1.5-11.6-6.5-13.8c-3.1-1.3-6.4-1.2-9.4-1.1s-5.6,0.1-7.7-0.9c-1.7-0.8-2.6-1.9-2.8-3.3c-0.2-2,1.3-4.7,3.7-6.6
				c4.6-3.6,9.6-6.4,15-8.7c5.4-0.6,18.2-1.6,27.5,0c7.9,1.4,14.5,5.2,18.4,10.4c-2.7,0.6-5.5,1.6-7.8,3.3c-3.5,2.5-6.1,7.2-5,11.8
				c-0.1,0.6-0.2,1.2-0.3,1.8c-0.1,1.4-0.1,4.4,1.5,5c0.4,0.2,0.7,0.1,1-0.1c0.5-0.4,0.7-1.1,0.9-1.8c2.2,1.8,5,2.6,7.8,2.6
				c0.6,0,1.1,0,1.7-0.1c4.7-0.6,8.7-3.5,11.7-6c0.7-0.6,1.4-1.2,2.1-1.8c2.4-2,4.6-4,7.2-5.3c2.5-1.3,5.3-2,8.2-2.1
				c3.1,0.1,7.8,3,10.4,5.2c0.4,0.3,0.7,0.6,1.1,0.9c2.8,2.5,5.6,5.1,9.5,5.9c0.8,0.2,1.6,0.3,2.4,0.3c0.6,0,1.2,0,1.8-0.1
				c0,0.2,0,0.3,0,0.5c0,1.2,0,2.2,0.8,3.2c0.1,0.1,0.2,0.1,0.3,0.1c1.3-0.3,1.9-1.2,2.6-2.3c0.8-1.1,1.5-2.3,2.3-3.4
				c0.3-0.4,0.5-0.9,0.5-1.3c0.8-0.8,1.5-1.7,2.1-2.8c0.1,0.2,0.1,0.4,0.2,0.6c0.4,0.9,1.6,0.6,2.1,0c1.6-2.2,2-5.6,1.3-8.2
				c-0.1-0.5-0.4-0.9-0.6-1.2c0.4-1.8,0.3-3.7-0.2-5.5c-1.4-4.6-5.7-8-10.5-8.2c-0.3-0.5-0.7-1-1.1-1.5c-4.6-4.6-12.2-2.1-15.8-0.9
				c-4.5,1.5-9.7,3-14.6,2.1c-4-0.8-6.6-2.8-7.7-6c-1.3-3.8,0.1-8.7,3.4-12.4c2.2-2.4,4.8-4.3,7.5-6.3c1-0.8,2.1-1.5,3.1-2.3
				c2-1.6,3.9-3.2,5.7-5c9.5-1.1,22.6-4.6,33.3-14.3c9.9-9,15.4-22.1,14.3-34.2c-1.2-13-10.4-24.6-22.1-28.1
				c-2.3-3.9-5.2-7.1-7.5-9.2c-2.6-2.5-5.5-4.8-8.2-7.1c-4.4-3.6-8.6-7-12-11.1c-5-6.1-8.2-15.2-4.7-22.3h2.5c1,0,1.8-0.7,1.9-1.7
				c0.2-2.3-0.4-4.6-1.6-6.6l3.4-0.7c0.8-0.2,1.4-0.8,1.5-1.5c0.1-0.8-0.2-1.5-0.9-2c-7.2-4.4-14.3-9.3-17.5-16.1
				c-0.4,1.6-1,3.2-1.9,4.5c3.2,4.9,8.1,8.8,13.4,12.3l-2,0.4c-0.7,0.2-1.3,0.7-1.5,1.5s0.1,1.5,0.7,1.9c1.3,1,2.2,2.5,2.5,4.1h-1.7
				c-0.7,0-1.3,0.4-1.7,0.9c-5.2,8.9-1.5,20.3,4.6,27.6c2.9,3.5,6.2,6.5,9.7,9.3c0.1,0.3,0.2,0.6,0.1,0.9c0,0.3-0.1,0.5-0.3,0.7
				c-0.4,0.3-1.1,0.3-1.7,0.3c-2.5-0.1-5.1-0.7-7.4-1.8c-0.5-0.2-1.1-0.1-1.5,0.3c-0.4,0.4-0.4,1.1-0.1,1.5c2,3,3.5,6.5,4.3,10
				c0.2,1,0.4,2.1,0.1,2.9c-0.3,0.7-0.9,1.1-1.3,1.3c-1,0.4-2.2,0.4-3.2,0c-2-0.8-3.5-2.7-4.8-4.4c-0.4-0.5-1-0.6-1.6-0.4
				c-0.5,0.3-0.8,0.9-0.7,1.5c0.7,2.6,1.4,5.5,0,7.4c-1.3,1.9-4.3,2.1-6.4,1.3c-2-0.8-3.8-2.3-5.3-3.9c2.6-1.5,4.7-4.2,5.9-7.6
				c1.5-4.1,1-7.9-1.1-10.3c-1.5-1.7-3.6-2.3-5.4-2.9c-0.4-0.1-0.9-0.3-1.3-0.4c-5.7-2.1-10.7-7.7-13.9-12.7
				c0.2,0.4,0.1,1.8,0.2,2.3c0.2,1,0.5,1.9,1,2.8c0.7,1.5,1.4,3.1,2.4,4.4c2.2,3,5.5,5.4,9.1,6.7c0.5,0.2,0.9,0.3,1.4,0.5
				c1.5,0.5,2.9,1,3.8,1.9c1.8,1.9,0.7,5.4,0.4,6.4c-0.5,1.5-2.2,5.1-5.5,6.2c-1.3,0.4-2.8,0.2-4-0.6c-0.5-0.3-1.4-1-1.5-2.2
				c-0.1-0.8-0.8-1.5-1.6-1.6s-1.7,0.3-2,1.1c-1.1,2.4-0.8,5.1-0.6,7.5s0.5,4.6-0.7,6c-1.3,1.6-4.1,1.7-6.8,1.6
				c-4.9-0.2-7.8-1.3-8.5-3.4c-0.5-1.4,0.1-5.1,0.6-6.9c2.3-8.2,3.5-11.7,6.7-17.8c-4.7,5-7.8,11.8-10.2,18.4
				c-0.1,0.4-0.3,0.8-0.4,1.3L227,187c-0.5-0.2-1.1-0.1-1.4,0.3c-0.4,0.4-0.4,1-0.2,1.5c0.6,1,0.5,2.3,0,3.5
				c-0.6,1.2-1.6,2.1-2.7,2.3c-1.1,0.2-2.4-0.2-3.4-1.1c-1-0.9-1.5-2.1-1.4-3.2c0.1-0.7-0.4-1.3-1.1-1.4c-0.7-0.1-1.3,0.3-1.5,1
				c-0.7,2.9-1.4,6.2-3.4,8.4c-1.7,1.9-5.1,2.9-7,1.3c-1.8-1.5-2-4.4-0.7-9.1c0.2-0.6-0.2-1.3-0.8-1.6c-0.6-0.2-1.3,0.1-1.6,0.7
				c-0.8,1.7-2.2,4.1-4.5,5.2c-2.1,1-4.6,0.7-5.9-0.7c-0.7-0.7-1-1.8-0.9-2.9v-0.1c0.7-0.8,1.2-1.7,1.6-2.4c0.3-0.5,0.2-1.1-0.2-1.5
				s-1.1-0.5-1.5-0.2c-1.1,0.6-1.9,1.7-2.2,3c-0.9,1-2.1,2-3.5,2.6c-2.3,0.9-4.9,0.6-6.4-0.9c-0.6-0.6-1-1.4-1.2-2.4
				c0.8-1.2,1.3-2.6,1.4-4.1c0-0.5-0.3-1-0.7-1.2c-0.5-0.2-1-0.1-1.4,0.2c-1.2,1.1-1.8,2.6-1.8,4.3c-0.4,0.4-0.8,0.7-1.3,1
				c-1.6,0.7-3.6,0.3-4.5-1c-0.4-0.6-0.6-1.5-0.4-2.3c0-0.1,0-0.1,0.1-0.2c0.6-0.6,1.2-1.2,1.6-1.8c0.3-0.5,0.3-1.1-0.1-1.6
				c-0.4-0.4-1-0.6-1.5-0.3c-0.9,0.4-1.6,1.2-2.1,2.1c-1.9,1.5-4.6,2.3-6.8,1.2c-1.4-0.6-2.4-2.2-2.6-3.9c-0.1-0.8,0-1.6,0.3-2.2
				c0.5-0.5,0.9-1,1.2-1.6c0.3-0.5,0.2-1.2-0.3-1.6c-0.5-0.4-1.2-0.4-1.6,0c-0.6,0.5-1,1-1.4,1.7c-0.9,0.8-2,1.4-3.3,1.6
				c-1.9,0.4-3.8,0-5.2-1c-1.3-1-2.4-2.8-2.9-4.8c0.7-1.9,1.3-4.1,1.8-6.8c1.3-7.4-1.6-14.8-3.8-20.8c-0.8-2.1-1.7-4.3-2.6-6.4
				c-1.7-4.1-3.4-8.3-4.6-12.5c-5.2-18.3-0.2-38.8,12.6-52.8c23.2-12.7,52.2-13.4,76-1.7c1.6,0.8,3.6,1.8,5.8,1.3
				c2-0.4,5.2-2.2,5.2-9.2c5.7,0.9,11.4,2.1,16.6,4.6c6.6,3.2,11.1,8.2,12.5,13.8c0.4,1.7,0.6,3.4,0.6,5.1c1.4-0.4,3.1,0.1,3.6,1.9
				c0.1,0.2,0.1,0.4,0.2,0.6c0.1-2.9,0.1-5.8-0.7-8.6c-1.7-6.7-7-12.6-14.6-16.3c-5.9-2.8-12.2-4-18.4-5c-0.1-4,0.1-8.3,1.5-12.2
				c0.4-0.5,0.8-0.9,1-1.1c1.4-1.4,3.7-2,5.5-1.6c3.5,0.8,6.3,3.6,9,6.4l0.6,0.6c4.5,4.6,9,6.1,12.6,4.3c2.4-1.2,4-3.9,4.3-7
				c0.2-2.6-0.4-5-1-7.2c-2.5-9.3-5.8-19.6-14.7-23.9c-8.6-4.2-18.9-0.6-25.3,4.8l-0.2,0.1c-1.3,1.1-2.8,2.4-4,2.2
				c-1.1-0.2-1.8-1.5-2.7-3.5c-0.2-0.5-0.5-1-0.7-1.4c-3.5-6.6-12.1-9.9-19.5-7.4c-6.7,2.2-12.1,8.8-13.3,16.3l-0.1,0.8
				c-0.2,1.7-0.5,3.3-1.4,4c-1.2,0.9-3.4,0-4.7-1.4c-0.7-0.6-1.2-1.4-1.9-2.2c-1.1-1.4-2.3-2.8-3.9-3.9c-3.6-2.4-8.8-2.1-12.1,0.7
				c-3.3,2.9-4.3,8-2.4,11.9c0.2,0.5,0.5,1,0.8,1.6c0.9,1.6,1.5,2.8,1.1,3.4c-0.5,0.7-2.7,0.1-3.9-0.2c-3.3-0.9-6.3-0.8-8.7,0.1
				c-3.3,1.2-5.7,4.2-5.8,7.4c-0.1,2,0.7,3.8,1.3,5.4c0.6,1.5,1.2,2.9,1,4.1c-0.2,1.1-1,2-1.9,3.2c-0.5,0.6-1,1.2-1.4,1.9
				c-1.2,1.8-1.6,4.1-1.1,5.9c0.1,0.4,0.3,0.8,0.6,1.2c-12.1,14.9-16.6,35.5-11.4,54.1c1.3,4.5,3,8.8,4.8,12.9
				c0.8,2,1.7,4.2,2.5,6.3c2.1,5.6,4.7,12.5,3.7,18.8c-0.9,5.1-2.3,8.2-4,11c-4.9,1.5-10.4-1.2-13.4-4.7c-3.2-3.8-5-9.2-5.5-16.4
				c-0.2-2.7-0.2-5.4-0.2-8.1c0-3.5,0-7.2-0.4-10.8c-1.3-11.5-6.5-22.3-14.6-30.2c-8.2-8.1-19.4-13-30.7-13.5
				c-18-0.8-36.8,10-46.9,27C16.9,135.9,14.3,155.7,18.7,175.3z M145.7,71l-0.3-0.3c-0.1,0.1-0.2,0.2-0.2,0.3c0.1-0.5,0.3-1,0.6-1.5
				s0.8-1,1.2-1.6c1.1-1.3,2.3-2.9,2.7-4.9c0.4-2.3-0.4-4.4-1.2-6.2c-0.6-1.4-1.1-2.6-1-3.8c0.1-1.6,1.4-3.3,3.3-4
				c1.7-0.6,3.9-0.6,6.5,0c2.2,0.6,5.8,1.5,7.9-1.2c2-2.6,0.3-5.5-0.8-7.5c-0.3-0.5-0.5-0.9-0.7-1.3c-1.2-2.4-0.5-5.6,1.5-7.3
				s5.3-1.9,7.5-0.5c1.1,0.8,2,1.9,3,3.1c0.7,0.8,1.4,1.7,2.2,2.5c2.6,2.6,6.7,4,9.7,1.7c2.2-1.7,2.6-4.4,2.9-6.5l0.1-0.8
				c1-6.2,5.3-11.5,10.7-13.3c5.7-1.9,12.4,0.6,15,5.6c0.2,0.4,0.4,0.8,0.6,1.3c1.1,2.2,2.4,5,5.4,5.6s5.5-1.5,7.3-3l0.2-0.1
				c5.4-4.6,14.1-7.8,21.1-4.3c7.4,3.6,10.4,13,12.7,21.4c0.5,2,1.1,4,0.9,5.9c-0.1,1.8-1,3.3-2.2,3.9c-2.8,1.4-6.6-2-8.1-3.5
				l-0.6-0.6c-3-3-6.3-6.5-10.9-7.5c-1.2-0.3-2.6-0.3-3.9,0c2.7-3.6,6.6-6.3,13.5-5c-5.5-5.3-14.9-0.4-18.6,5.7
				c-3.8,6.4-3.9,13.9-3.6,20.5c0.1,1.5,0.2,6.2-2.1,6.7c-0.9,0.2-2.2-0.4-3.3-1C199.9,57.4,169.9,58,145.7,71z M290.6,257.6
				c7.9-9.7,12.2-21.3,11.8-32.3c2,0.3,4.3-0.2,5.8-2c1.9-2.5,2.1-6.2,0.5-10.3c-0.2-0.6-0.5-1.2-0.8-1.8c-0.1-0.3-0.3-0.6-0.4-0.9
				l2.4,2c0.5,0.4,1.3,0.5,1.9,0.3c0.6-0.3,1.1-0.8,1.2-1.5c0.3-2.5,0.2-5.1-0.5-7.6l0.5,0.3c0.5,0.3,1.2,0.3,1.7,0
				c0.6-0.3,0.9-0.8,1-1.4c0.7-4.2,0-8.1-1.3-11.6c8.5,4.1,14.9,13.3,15.9,23.4c1,11-4,22.9-13,31.1
				C310.4,251.2,301.1,255.6,290.6,257.6z M303.6,313.1c0.5-0.3,1-0.7,1.4-1.2c0,0.1,0.1,0.1,0.1,0.2c0.7,0.8,2.3,0.6,2.7-0.4
				c0.9-2,1-3.7,0.1-5.7c-0.1-0.3-0.3-0.6-0.4-0.9c0-0.5,0.1-1,0.1-1.5c0.1-1.7,0.1-3.5-0.2-5.2c2.5,0.7,4.6,2.7,5.3,5.2
				c0.4,1.4,0.3,2.9-0.1,4.3c-0.6,0.5-1.1,1.3-1,2.2c-0.5,0.8-1.2,1.5-2,2.1C308,313.3,305.7,313.6,303.6,313.1z M294.6,314.3
				C294.7,314.3,294.7,314.3,294.6,314.3c1.3,0.3,2.5,0.4,3.7,0.4c2,1.7,4.6,2.5,7.2,2.5c0.2,0,0.4,0,0.6,0c-0.4,0.5-0.7,1-0.8,1.7
				c-1.2,0.3-2.4,0.3-3.5,0C299.2,318.3,297,316.4,294.6,314.3z M29.1,122.8c9.3-15.8,26.8-25.9,43.4-25.1
				c10.4,0.5,20.7,5,28.2,12.4c7.5,7.3,12.3,17.3,13.5,27.9c0.4,3.4,0.4,6.9,0.4,10.4c0,2.7,0,5.5,0.2,8.3
				c0.5,8.1,2.6,14.1,6.4,18.6c3.1,3.7,8.2,6.5,13.4,6.5c-2.7,3.8-5.9,10.1-7.1,18c4.4-8.4,8-12.8,10.6-16.3c1.5-2,2.9-3.9,4.1-6.3
				c0.7,1.5,1.7,2.8,2.9,3.6c2,1.5,4.6,2,7.2,1.5c0.7-0.1,1.4-0.4,2.1-0.6c0,0.2,0,0.4,0.1,0.6c0.3,2.6,1.9,4.9,4.1,5.9
				c2.4,1.1,5.1,0.8,7.4-0.2c0.1,0.8,0.4,1.6,0.9,2.3c1.6,2.3,5,3.1,7.7,1.8c0.3-0.1,0.5-0.3,0.8-0.4c0.3,0.8,0.8,1.6,1.5,2.2
				c2.3,2.2,5.9,2.7,9.2,1.4c0.9-0.4,1.8-0.9,2.5-1.5c0.3,0.9,0.7,1.7,1.4,2.4c2.1,2.2,5.8,2.7,8.8,1.3c0.9-0.4,1.7-1,2.4-1.6
				c0,2.3,0.6,4.5,2.5,6.1c1.2,1,2.6,1.4,4.1,1.4c2.4,0,4.9-1.2,6.5-3c1.4-1.6,2.3-3.5,2.9-5.4c0.2,0.3,0.5,0.6,0.8,0.8
				c1.6,1.4,3.7,2.1,5.6,1.7c1.9-0.4,3.6-1.8,4.5-3.7c0.5-1,0.7-2,0.7-3.1l0.2,0.1c-0.2,1.2-0.1,2.4,0.3,3.6c1.9,5.7,9.5,6,11.9,6.1
				c0.5,0,1,0,1.6,0c2.6,0,6.2-0.4,8.4-3.1c2.1-2.6,1.8-5.9,1.5-8.8c0-0.4-0.1-0.8-0.1-1.2c1.9,1.2,4.4,1.6,6.6,1.1
				c1.9,2,4.1,4.2,7,5.2c1,0.4,2.2,0.6,3.3,0.6c2.3,0,4.6-0.8,6-2.8c1.1-1.5,1.3-3.2,1.3-4.9c0.8,0.7,1.7,1.3,2.7,1.7
				c1.6,0.7,3.6,0.6,5.2,0c1.3-0.6,2.2-1.5,2.7-2.7c0.6-1.5,0.4-3.1,0.1-4.4c-0.6-2.7-1.6-5.3-2.8-7.7c1.6,0.4,3.2,0.7,4.9,0.8
				c1.1,0.1,2.3,0,3.4-0.8c0.5-0.4,0.9-1,1.1-1.6c0.1,0.1,0.3,0.2,0.4,0.3c2.7,2.2,5.5,4.5,8,6.9c4,3.8,10.3,11.2,10.3,19.8
				l-2.8-1.5c-0.8-0.4-1.7-0.2-2.3,0.4c-0.6,0.6-0.7,1.6-0.2,2.3c1.3,2,2.1,4.3,2.3,6.6l-3.7-3c-0.6-0.5-1.3-0.6-2-0.3
				s-1.1,0.9-1.1,1.7c-0.1,2.7,0.9,5.2,1.9,7.5c0.2,0.6,0.5,1.1,0.7,1.7c0.6,1.7,1.5,4.8,0.1,6.6c-0.5,0.7-1.7,0.8-2.5,0.5
				c-0.4-0.1-0.5-0.3-0.6-0.4c0-0.2-0.1-0.4-0.1-0.6c-0.2-1-1.1-1.7-2-1.6c-1,0.1-1.8,0.9-1.8,1.9c0,0.4,0.1,0.8,0.2,1.2
				c2.1,14.7-5.6,31.2-19.8,42.2c-1,0.8-2,1.5-3,2.2c-2.8,2-5.7,4.1-8.1,6.8c-2.7,3-4.4,6.6-4.8,10.2c-1.1,0.9-2.1,1.6-3.4,2.2
				c-3,1.4-6,2.3-9.2,3.2c-0.1,0-0.1,0.1,0,0.1c4.1,0.8,9,0,12.5-2.5c0.1,1,0.3,2,0.6,2.9c0,0.1,0.1,0.2,0.2,0.4
				c-0.5,0.6-1,1.3-1.6,1.9c-1.5,1.5-3.6,2.6-5.7,3.2c-0.1,0-0.1,0.2,0,0.2c2.3,0.3,4.3,0,6.4-1.2c0.6-0.3,1.5-0.9,2.2-1.5
				c0.4,0.7,1,1.3,1.5,1.8c-2,2.7-2.6,6.4-1.2,9.5h0.1c0.5-2.9,1.6-5.4,3.4-7.7c1.2,0.7,2.6,1.3,4.1,1.7c-0.1,0.7-0.1,1.4-0.1,2
				c0.1,1.8,0.5,3.5,1.4,5.1c0.1,0.2,0.5,0.1,0.4-0.2c-0.6-2-0.7-4.5,0.1-6.5c1.9,0.3,3.7,0.3,5.5,0.2c0,1.9,0.7,3.9,2,5.4
				c0.1,0.2,0.4,0,0.3-0.2c-0.8-1.8-0.9-3.6-0.2-5.4c1.7-0.3,3.4-0.7,5-1.1c-0.1,2.4,1.1,5,2.1,7c0,0.1,0.1,0,0.1-0.1
				c-0.9-1.9-1.1-4.2-0.8-6.2c0.1-0.5,0.2-0.9,0.4-1.3c0.5-0.2,1.1-0.3,1.6-0.5c1.5-0.5,3.1-1,4.7-1.3c-0.1,0.2-0.2,0.4-0.3,0.6
				c-1.4,3-1.5,6.2-0.7,9.3c0,0.2,0.3,0.1,0.2-0.1c-0.4-2.7,0-5.4,1.4-7.8c0.6-1,1.3-1.7,2-2.4c1.8,0,3.4,0.4,4.6,1.5
				c1.1,1.1,1.5,2.7,1.7,4.4c-2.6-1.4-6,2.4-3.5,4.9c1,1.1,1.8,2.2,2.4,3.5l0,0c-0.2,0.3-0.3,0.5-0.5,0.8c-1.6,1.8-4.5,1.9-6.7,1.4
				c-1.5-0.3-3-0.9-4.6-1.6c-1.3-0.5-2.6-1-4-1.5c-2.2-0.6-4.6-0.9-6.9-0.8c-0.5,0-0.9,0-1.3,0.1l0,0c-3,0.3-5.9,1.1-8.5,2.5
				c-3,1.6-5.5,3.7-7.9,5.8c-0.7,0.6-1.4,1.2-2.1,1.8c-2.6,2.1-6,4.6-9.8,5.1c-2.4,0.3-5.4-0.4-7.1-2.3c0.5-0.6,1.1-1.1,1.6-1.6
				c2.3-1.9,0.1-5.1-2.2-5.4c0.3-0.6,0.6-1.1,1-1.6c0.5-0.1,1-0.2,1.5,0c1,0.3,1.8,1.1,2.7,1.7c1.6,1.3,3.3,2.6,4.4,4.4
				c0,0.1,0.1,0,0.1,0c-1.1-2.8-2-5.3-4.4-7.2c-0.5-0.4-1-0.7-1.6-1c0.7-0.3,1.8-0.8,3-1.3c1,0.2,1.9,0.6,2.9,1.5
				c1.5,1.4,2.8,3.3,3.9,5c0.1,0.2,0.4,0.1,0.3-0.1c-0.8-2.7-1.8-5.2-4.1-6.9c-0.2-0.1-0.4-0.2-0.6-0.4c0.5-0.2,1-0.3,1.4-0.5
				c1.1,0.2,2.3,0.3,3.3,0.9c1.8,1,3.2,2.7,4.6,4.2c0,0,0.1,0,0.1-0.1c-0.4-2.4-2.8-5.6-5.5-7.1c-3.5-8.9-13.4-13.7-22.4-15.3
				c-5.1-0.9-10-1-14.4-0.8c5.5-1.4,11.2-2.5,16.8-3.5c-14.4-1.1-34.3,3-47.9,13.7c-3.5,2.7-5.4,6.7-5.1,10c0.2,1.9,1.2,4.5,4.9,6.3
				c0.3,0.2,0.7,0.3,1,0.4c-0.8,0.8-1.2,1.8-1.1,3.1c0,0.1,0.2,0.2,0.2,0c0.4-1,1.2-2.1,2.1-2.7c1.2,0.3,2.4,0.5,3.6,0.5
				c-1.2,1.3-1.7,3.2-1.5,4.9c0,0.4,0.6,0.5,0.7,0.1c0.2-1.7,1.2-2.9,2.5-4c0.6-0.5,1.3-0.8,2-1c0.1,0,0.2-0.1,0.2-0.1
				c2.1-0.1,4.2-0.1,6.1,0.3c-0.5,0.1-1,0.2-1.5,0.4c-3.5,1.3-6.2,4.6-7.1,8.2c-0.1,0.2,0.3,0.3,0.3,0.1c2.1-5,7.6-7.7,12.5-5.8
				c1.4,2,2.1,4.6,1.5,7c-0.2,0.6-0.5,1.3-0.8,1.8c-0.1-0.3-0.2-0.7-0.3-1c-0.9-2.5-3.4-3.9-6-2.9c-2.3,1-3.6,4.1-2.1,6.3
				c0.4,0.7,0.8,1.3,1.2,2l0.1,0.1c-0.2,0-0.4,0.1-0.6,0.1c-3.8,0.1-7.6-2.5-9.1-6.1c-0.9-2.1-2.7-6.4-6.5-5.3
				c-1.1,0.3-1.9,1-2.4,2.1c-0.6,1.3-0.7,3-0.1,4.3c0.5,1.2,1.2,2.1,1.8,2.9c0.3,0.4,0.7,0.8,0.9,1.2c1,1.5,1.2,3.5,0.5,5.5
				c-0.7,2.2-2.2,4-4.1,4.8c-0.4,0.2-0.8,0.3-1.2,0.4c0.2-0.6,0.2-1.4,0.4-2c0.5-2.7-1.2-5.4-4.1-5.4c-2.9,0-4.5,2.6-4.1,5.3
				c-0.8-0.7-1.5-1.5-2-2.5c-2.1-3.7-1.4-9,1.5-12.5c0.5-0.6,0.6-1.3,0.3-2s-1-1.1-1.7-1.1c-2.6-0.1-5,1.5-6.9,4.6
				c-0.3,0.4-0.5,0.8-0.7,1.2c-0.8,1.4-1.6,2.8-2.8,3.5c-1,0.7-2.1,0.6-2.9,0.5c0.6-0.8,1.1-1.8,1.8-2.8c1.4-1.9,0.3-4.8-1.5-5.9
				c-1.4-0.8-3.2-0.7-4.6,0.1c0.5-1.6,1.5-3,2.6-4.2c0.4-0.1,0.8-0.2,1.2-0.1c0.8,0.1,1.5,0.5,2.1,0.9c1.5,0.9,2.8,2.3,3.1,4.1
				c0,0.2,0.3,0.1,0.4,0c0.3-2.6-1.3-4.7-3.4-5.8c-0.4-0.2-1-0.4-1.5-0.6c1.4-1,2.9-1.9,4.5-2.6c0.6,0.2,1,0.5,1.5,0.9
				c1.2,0.9,2.1,1.8,2.8,3.1c0.1,0.2,0.4,0.1,0.3-0.1c-0.4-1.7-1.2-3.5-2.6-4.7c1.1-0.4,2.3-0.8,3.4-1.2c0.8,0.5,1.8,0.8,2.7,0.9
				c3.1,0.6,6.3-0.5,9.2-1.4c0.1,0,0.1-0.1,0-0.1c-2.6,0.3-5.2,0.7-7.8,0.1c-1.3-0.3-2.4-1-3.5-1.6c0.2-1,0.3-2,0.5-3.1
				c3.3,0.8,8-0.6,10.2-1.3c0.1,0,0-0.1,0-0.1c-2.6,0.5-5.4,0.9-8.1,0.3c-0.7-0.2-1.3-0.4-1.8-0.8c0.1-1.2,0.2-2.4,0.2-3.5
				c1,0.3,2.1,0.5,3.1,0.7c2.6,0.3,4.6-0.3,6.8-1.6c0.1,0,0-0.1,0-0.1c-2.1,0.5-4.4,0.5-6.5,0.2c-1.2-0.2-2.2-0.6-3.2-1.1
				c0-0.1,0-0.2,0-0.4c0-1,0-2.8-1.2-4.1c-0.9-1.1-2.2-1.5-3.2-1.8c-8.8-2.7-16.7-8-22.5-15.1c4.2-1.9,8.2-4.1,11.8-6.8
				c15.5-11.2,24.9-29.1,24.6-46.9c-0.2-9.8-3.3-18.9-8.7-25.7c-6.1-7.6-14.6-12.2-24.4-8c7.8-0.3,16,3.7,21.4,10.4
				c4.9,6.1,7.7,14.4,7.9,23.3c0.3,16.5-8.6,33.3-23,43.7c-13.3,9.6-31.3,14-49.3,12c-1.8-0.2-3.6-0.5-4.5-1.6
				c-1.3-1.6-0.3-4.4,0.3-6c3.1-7.2,8.5-13.4,15.4-17.4c-4.7,0-9.9,3.5-13.9,8c-0.9-7.3,0.2-15,3.2-21.7c3.4-7.8,9.3-14.4,16.6-18.8
				c-4.5,0.2-9.6,3.5-13.8,7.9c0.4-2.6,1.1-5.1,2-7.6c0.1-0.1,0.1-0.3,0.2-0.4l0,0c3-7.3,8.5-13.7,14.8-16.3
				c-9,1.2-15.4,7.7-18.7,15.7c-1,2.2-2.4,4.7-3.7,7.1c-1.5,2.9-3.2,5.8-4.3,8.4c-0.3,0.7-0.6,1.2-0.7,1.2c-0.1,0.1-0.9-0.3-1.8-1.4
				c-5.7-7.3-8.8-16.7-8.6-26c0.2-9.2,3.8-18.5,9.8-25.5c-10,4.4-13.3,15.2-13.6,25.5c-0.1,6.3,1.1,12.5,3.5,18.3
				c1,4.1,1.1,8.5,0.2,12.7c-11.2-8.6-17.5-22.3-17.5-36c0-14.7,7.4-29.2,19.1-38c-16,4-22.9,22.1-23,38c0,0.3,0,0.5,0,0.8
				c-4.8-10.7-6.7-22.6-5.5-34.3c1-9.5,3.8-17.2,8.5-23c5.5-6.7,13.5-10.4,21-9.5c-7.3-4.2-17.7-0.6-24,7.1
				c-5.2,6.4-8.3,14.8-9.4,25c-0.7,6.9,0,14.4,1.7,21.8c-2.4,13.2-0.3,23.6,2.8,32.4c-8-8.7-13.9-18-17.5-27.5
				c-5.3-13.9-5.7-28.4-1.2-40.7c5-13.5,16.1-23.8,28.9-26.8c-15-1.5-27.1,10.8-32.5,25.5c-4,10.9-4.4,23.4-1.2,35.7
				c0.1,3.1,0.8,6,1.6,8.8c0.3,1.1,0.6,2.2,0.8,3.3c-9.5-9.5-14-22-16.1-31.3C18.3,155.8,20.7,137,29.1,122.8z"/>
			<path class="st9" d="M230.2,101.3c0.3-1.2,0.8-2.5,1.7-3.4c1.6-1.7,4.5-2.4,6.8-2.2c3.2,0.3,6.3,2.1,9.4,5.4
				c5.7,6.2,9.2,14.4,9.7,22.8c3,0.5,6.4,1.2,9.1,3.3c3.4,2.6,5.3,7.9,2.7,11.7c-1.9,2.7-4.9,3.4-7.7,3.4c-1.8,0-3.6-0.3-4.8-0.6
				c-1.6,2.8-2.9,5.7-4,8.6c-0.2,0.6-0.7,1-1.3,1.1c-0.2,0-0.3,0.1-0.5,0.1c-0.4,0-0.9-0.2-1.2-0.4c-4.3-3.6-8.6-6.6-13.4-9.1
				l-8.5,3.3c-1.7,0.7-3.7,1.5-5.9,1.7c-0.3,0-0.7,0-1,0c-2.2,0-4.3-0.7-5.7-2.1c-3.3-3.2-2.4-8.7,0.4-12.3c1.2-1.6,2.7-2.8,4.2-4.1
				c1.3-1.1,2.5-2.2,3.5-3.4c3.7-4.5,5.7-10.6,5.9-17.7c1.3,6.1,1.8,14.3-3,20.1c-1.2,1.5-2.6,2.7-4,3.9s-2.6,2.3-3.6,3.5
				c-1.7,2.1-2.5,5.5-0.8,7.1c0.8,0.8,2.2,1.2,3.7,1c1.6-0.2,3.2-0.8,4.8-1.4l5-2c-2.2-0.9-4.6-1.7-7.1-2.3c-0.6,0.9-1,2.1-1.8,2.7
				c-0.6,0.4-1.3-0.1-1.4-0.8c0-1,0.9-2.1,1.7-2.5c0.4-0.2,0.8-0.4,1.3-0.5s1-0.1,1.5-0.3c0.1,0,0.1,0.1,0,0.1
				c-0.5,0.2-0.9,0.6-1.2,1.1c9.8,0.3,17.9,3.4,25.8,9.3c2.4-5,6.5-10.4,11.3-12.2c-0.3-0.2-0.6-0.4-0.8-0.7c-0.1-0.2,0-0.4,0.1-0.5
				c0.6-0.4,1.7,0,2.4,0.3c1,0.4,1.8,1.2,1.5,2.4c-0.2,0.7-0.9,0.8-1.4,0.6c-0.7-0.3-0.8-1-1.3-1.6l0,0c-1.1,1-2.1,2.2-3,3.4
				c3.6,0.6,5.9,0.1,7-1.5c1.3-1.9,0.1-5-1.9-6.5c-2.4-1.9-5.9-2.3-8.9-2.8c-0.9-0.1-1.6-0.9-1.6-1.9c-0.1-8-3.3-16-8.8-21.9
				c-2.4-2.6-4.7-4-6.9-4.2c-3.4-0.4-7,2.4-8.2,5.4C230.4,104,229.9,102.3,230.2,101.3z"/>
			<path class="st9" d="M254.6,235.2c0-1.4-0.9-3.3,0.8-4.1c0.9-0.5,2.1-0.1,2.6,0.9l2.1,4.3c0.2-0.2,0.3-0.5,0.4-0.7
				c0.2-0.5,0.4-1,0.5-1.5c0.1-0.3,0.1-0.5,0.1-0.8v-0.4v-0.5c-0.1-2.3-1-4.7-2.3-7c-0.4-0.8-0.2-1.8,0.5-2.4c0.8-0.6,2-0.5,2.7,0.3
				l5.3,6.8c0-0.2,0-0.3,0-0.5c0-0.7,0-1.3-0.1-2s-0.1-1.3-0.3-2c-0.8-4-2.2-8.1-4.1-11.7c-0.3-0.7-0.7-1.3-1.1-2
				c0.7,0.4,1.3,0.8,1.9,1.2c0.6,0.5,1.2,1,1.8,1.5c2.6,2.4,3.8,4.6,4.8,7.9c0.2,0.8,0.4,1.5,0.5,2.3c0.2,0.8,0.2,1.6,0.3,2.3
				c0.1,0.8,0.1,1.6,0.1,2.4c0,0.4,0,0.8,0,1.2s0,0.8-0.1,1.4c-0.1,0.6-0.4,1.4-1.3,2.1l-0.2,0.1l-0.1,0.1l0,0l-0.2,0.1l-0.1,0.1
				c-0.2,0.1-0.7,0.2-0.9,0.2c-0.5,0.1-1,0-1.4-0.2c-0.7-0.3-1.2-0.7-1.6-1c-0.1-0.1-0.2-0.2-0.3-0.4v0.4c0,0.4-0.1,0.8-0.2,1.2
				c-0.2,0.8-0.4,1.6-0.8,2.4c-0.7,1.5-1.9,3-3.6,3.9h-0.1c-0.9,0.5-2.1,0.1-2.6-0.9l-0.5-1c-0.2,0.3-0.3,0.5-0.5,0.8
				c-0.4,0.5-0.8,1-1.2,1.5s-0.9,0.9-1.4,1.3c-0.5,0.4-1,0.7-1.5,1s-1.1,0.5-1.7,0.7c0.4-0.4,0.8-0.8,1.1-1.3
				C253.7,240.9,254.7,237.9,254.6,235.2z"/>
			<path class="st9" d="M176.2,329c2.6-0.1,5,1.3,6.5,3.4c0,0.1,0,0.1-0.1,0.1c-1.6-1.6-3.8-2.5-6.1-2.2c-0.8,0.1-1.7,0.4-2.5,0.8
				s-1.1,1.2-1.8,1.7c-0.2,0.2-0.5,0-0.5-0.2C171.5,330.3,174.4,329.1,176.2,329z"/>
			<path class="st9" d="M180.7,326.7c-1.3-0.6-3-1.1-4.4-0.9s-2,1.2-3.1,1.8c-0.5,0.3-1-0.2-0.9-0.7c0.2-1.6,2.3-2.3,3.7-2.4
				c1.9-0.1,3.5,0.7,4.9,1.9C180.9,326.6,180.8,326.7,180.7,326.7z"/>
		</g>
		<g>
			<path class="st9" d="M255.6,102.3c-0.4,5.4,1.4,10,4,10.3s5-3.7,5.3-9.1c0.4-5.4-1.4-10-4-10.3C258.4,92.8,256,96.9,255.6,102.3z
				"/>
			<path class="st9" d="M264.2,116.7c0,0,0.2-0.1,0.6-0.4c0.4-0.3,1-0.8,1.5-1.5c1.2-1.4,2.4-3.8,3.2-6.9c0.4-1.5,0.7-3.2,0.8-5.1
				c0.1-1.8,0.1-3.8-0.2-5.8c-0.3-2-0.8-4.1-1.9-6.1c-0.6-1-1.3-2-2.4-2.9c-0.6-0.4-1.2-0.8-2-1c-0.4-0.1-0.8-0.2-1.2-0.2h-0.3h-0.2
				H262l0,0h-0.2l-0.4,0.1c-0.1,0-0.2,0-0.4,0.1c-0.2,0.1-0.4,0.1-0.6,0.2c-0.5,0.2-0.7,0.4-1,0.6c-0.6,0.4-1.1,0.8-1.5,1.3
				c-0.8,0.9-1.4,2-1.9,3c-1,2-1.4,4.1-1.7,6.1s-0.3,3.9-0.2,5.8c0.1,0.8,0.1,1.8,0.3,2.6c0.1,0.8,0.3,1.7,0.5,2.4
				c0.8,3.1,2.1,5.5,3.5,6.8c0.7,0.7,1.3,1,1.8,1.2s0.7,0.2,0.7,0.2s-0.2-0.1-0.6-0.4s-0.8-0.8-1.3-1.5c-0.9-1.4-1.6-3.8-1.9-6.7
				c-0.1-0.7-0.1-1.5-0.1-2.3s0-1.5,0-2.4c0.1-1.6,0.3-3.4,0.7-5.1s0.9-3.5,1.7-5.1c0.4-0.8,0.9-1.5,1.4-2.1
				c0.2-0.3,0.5-0.5,0.8-0.7c0.1-0.1,0.3-0.2,0.3-0.2s0,0,0.1-0.1c0,0,0.2,0,0.3-0.1c0.5-0.1,0.8,0,1.4,0.3c0.5,0.4,1,1,1.4,1.7
				c0.8,1.5,1.5,3.2,1.8,4.9c0.4,1.7,0.6,3.4,0.7,5.1s0,3.2-0.1,4.7c-0.3,2.9-0.9,5.3-1.7,6.9c-0.4,0.8-0.8,1.3-1,1.7
				C264.4,116.5,264.2,116.7,264.2,116.7z"/>
		</g>
		<g>
			
				<ellipse transform="matrix(0.1199 -0.9928 0.9928 0.1199 65.3437 287.2376)" class="st9" cx="194.7" cy="106.8" rx="12.3" ry="10.9"/>
			<path class="st9" d="M209,124.6c0,0,0.3-0.2,0.9-0.6c0.6-0.4,1.4-1.1,2.3-2.2c0.9-1,1.9-2.4,2.7-4.2c0.8-1.8,1.4-3.9,1.6-6.4
				c0.2-2.4-0.1-5.2-1-7.7c-0.9-2.8-2.4-5.4-4.6-7.7c-2.1-2.3-5-4.1-8.2-5c-1.6-0.4-3.3-0.7-5.1-0.6c-1.7,0.1-3.5,0.4-5,1l-0.5,0.2
				l-0.6,0.3c-0.4,0.2-0.8,0.4-1.2,0.6c-0.7,0.5-1.5,0.9-2.1,1.5c-1.4,1-2.5,2.3-3.5,3.7c-2,2.7-3,6-3.3,9.1s0.2,6.1,1.1,8.8
				c0.1,0.3,0.2,0.6,0.3,0.9s0.3,0.6,0.4,1c0.3,0.7,0.6,1.2,0.9,1.8c0.3,0.6,0.7,1.1,1.1,1.6c0.4,0.5,0.8,1,1.2,1.4
				c1.6,1.8,3.5,3.1,5.2,4s3.4,1.4,4.7,1.6c1.4,0.2,2.4,0.2,3.2,0.2c0.7-0.1,1.1-0.1,1.1-0.1s-0.4,0-1.1-0.1c-0.7-0.1-1.7-0.3-3-0.7
				c-1.2-0.4-2.7-1.1-4.2-2.1s-2.9-2.4-4.2-4.1c-0.3-0.4-0.6-0.9-0.9-1.4c-0.3-0.5-0.6-1-0.8-1.5s-0.5-1.1-0.7-1.6l-0.3-0.8
				c-0.1-0.3-0.2-0.6-0.3-0.9c-0.6-2.3-0.9-5-0.5-7.5c0.1-1.3,0.5-2.6,1-3.8c0.5-1.2,1.1-2.4,1.9-3.5c0.8-1.1,1.7-2.1,2.8-2.9
				c0.5-0.4,1.1-0.7,1.7-1.1l0.8-0.4l0.4-0.2l0.5-0.2c2.6-1,5.3-1,7.9-0.4c2.6,0.7,5,2,6.8,3.9c1.9,1.8,3.4,4,4.3,6.2
				c1,2.4,1.4,4.6,1.5,6.8c0.1,2.2-0.2,4.2-0.7,5.9c-0.5,1.7-1.2,3.2-1.9,4.3c-0.7,1.1-1.4,1.9-1.8,2.4
				C209.3,124.3,209,124.6,209,124.6z"/>
		</g>
	</g>
	<g>
		<ellipse class="st0" cx="264" cy="99.2" rx="2.4" ry="4.1"/>
		<path class="st0" d="M199.3,105c0.8,3,3.3,4.9,5.7,4.3s3.7-3.5,3-6.5c-0.8-3-3.3-4.9-5.7-4.3C199.8,99.1,198.5,102,199.3,105z"/>
	</g>
</g>
<g>
	<path class="st10" d="M354.1,131.4v-0.7c0-7.6,2.8-10.6,6.3-10.6c1,0,1.7,0.1,2.5,0.5v3.9c-0.8-0.5-1.4-0.7-2.1-0.7
		c-1.7,0-2.9,1.5-2.9,6.9v0.8c0,5.7,1.2,6.9,2.9,6.9c0.6,0,1.3-0.2,2.1-0.7v3.7c-0.9,0.5-1.7,0.6-2.8,0.6
		C356.7,142,354.1,138.9,354.1,131.4z"/>
	<path class="st10" d="M365.4,134.1v-1c0-5.3,2.2-8.1,5.1-8.1s5.1,2.7,5.1,8.1v1c0,5.3-2.2,8.1-5.1,8.1S365.4,139.4,365.4,134.1z
		 M372,134.2V133c0-3.3-0.6-4.8-1.5-4.8s-1.5,1.5-1.5,4.8v1.1c0,3.2,0.6,4.8,1.5,4.8C371.4,138.9,372,137.4,372,134.2z"/>
	<path class="st10" d="M378.3,134.1v-1c0-5.3,2.2-8.1,5.2-8.1c1,0,1.5,0.1,2.3,0.4v3.7c-0.6-0.4-1.2-0.6-1.8-0.6c-1.1,0-2,1.2-2,4.4
		v1.1c0,3.2,0.8,4.4,2,4.4c0.5,0,1.2-0.3,1.8-0.7v3.6c-0.8,0.5-1.5,0.7-2.4,0.7C380.3,142.1,378.3,139.4,378.3,134.1z"/>
	<path class="st10" d="M388.6,120.1h3.6v11.5l2.3-6.3h3.9l-2.8,6.7l2.7,9.8h-4l-1.4-6.3l-0.7,1.8v4.5h-3.6V120.1z"/>
	<path class="st10" d="M406.7,134.1v-1c0-5.3,2.2-8.1,5.1-8.1s5.1,2.7,5.1,8.1v1c0,5.3-2.2,8.1-5.1,8.1S406.7,139.4,406.7,134.1z
		 M413.3,134.2V133c0-3.3-0.6-4.8-1.5-4.8s-1.5,1.5-1.5,4.8v1.1c0,3.2,0.6,4.8,1.5,4.8C412.7,138.9,413.3,137.4,413.3,134.2z"/>
	<path class="st10" d="M420.3,128.3h-1v-3h1v-1.2c0-2.8,1.6-4.1,4.2-4.1c0.6,0,1,0,1.4,0.1v3c-0.2,0-0.2,0-0.4,0
		c-0.9,0-1.5,0.5-1.5,1.5v0.6h1.9v3H424v13.6h-3.7V128.3z"/>
	<path class="st10" d="M434.1,131.4v-0.7c0-7,3-10.6,7.2-10.6c1.1,0,2.1,0.2,2.9,0.6v3.9c-0.9-0.6-1.8-0.9-2.7-0.9
		c-2.2,0-3.5,2.2-3.5,6.8v1c0,5.6,1.7,6.9,3.2,6.9c0.1,0,0.2,0,0.3,0v-5.5h-1.9v-3.4h5.3V141c-1.4,0.6-2.5,0.9-3.9,0.9
		C437.2,142,434.1,138.9,434.1,131.4z"/>
	<path class="st10" d="M448.1,125.3h3.6v2.1c0.5-1.4,1.3-2.3,2.7-2.3v4.4h-0.1c-1.7,0-2.6,1.2-2.6,3.5v8.8h-3.6V125.3z"/>
	<path class="st10" d="M456.3,134v-0.8c0-5.3,2.3-8.1,5-8.1c2.9,0,4.7,2.9,4.7,8.3v1.9h-6.1c0.2,2.6,1.3,3.5,2.5,3.5
		c1.1,0,1.8-0.5,2.9-1.2l0.3,3.3c-1.3,0.8-2.3,1.3-3.6,1.3C458.9,142.1,456.3,139.3,456.3,134z M462.6,132.4c0-2.8-0.4-4.1-1.3-4.1
		c-0.8,0-1.4,1.2-1.4,4.1H462.6z"/>
	<path class="st10" d="M468.3,134v-0.8c0-5.3,2.3-8.1,5-8.1c2.9,0,4.7,2.9,4.7,8.3v1.9h-6.1c0.2,2.6,1.3,3.5,2.5,3.5
		c1.1,0,1.8-0.5,2.9-1.2l0.3,3.3c-1.3,0.8-2.3,1.3-3.6,1.3C470.9,142.1,468.3,139.3,468.3,134z M474.6,132.4c0-2.8-0.4-4.1-1.3-4.1
		c-0.8,0-1.4,1.2-1.4,4.1H474.6z"/>
	<path class="st10" d="M480.5,134.3v-1.5c0-5.9,1.5-7.8,3.5-7.8c1.6,0,2.3,1.3,2.9,2.3v-7.2h3.6v21.8h-3.6v-2.1
		c-0.5,1-1.3,2.4-2.9,2.4C482.1,142.1,480.5,140.3,480.5,134.3z M487,134.1V133c0-2.9-0.5-4.5-1.5-4.5s-1.4,1.6-1.4,4.5v1.1
		c0,3,0.4,4.5,1.4,4.5S487,137.1,487,134.1z"/>
	<path class="st10" d="M355.1,153.3h1.4v20.4h5.4v1.2h-6.8V153.3z"/>
	<path class="st10" d="M364,166.9v-0.3c0-5.1,2.2-8.2,4.6-8.2s4.6,3.1,4.6,8.2v0.3c0,5.1-2.2,8.2-4.6,8.2S364,172,364,166.9z
		 M371.9,166.9v-0.3c0-4.3-1.5-7-3.3-7s-3.3,2.7-3.3,7v0.3c0,4.3,1.5,7,3.3,7S371.9,171.1,371.9,166.9z"/>
	<path class="st10" d="M377.1,158.7h1.3v2.4c0.6-1.5,1.9-2.7,3.8-2.6v1.4h-0.1c-2,0-3.7,1.3-3.7,4.1v10.9h-1.3L377.1,158.7
		L377.1,158.7z"/>
	<path class="st10" d="M384.3,167v-0.3c0-5.6,2.1-8.4,4.4-8.4c2.4,0,4.2,2.9,4.2,7.9v1h-7.4c0.1,4.4,1.9,6.5,4,6.5
		c1,0,1.8-0.2,2.8-1l0.2,1.3c-1.1,0.6-1.9,0.9-3.1,0.9C386.7,175.1,384.3,172.4,384.3,167z M391.7,166.1c0-3.7-1.2-6.5-3-6.5
		c-1.7,0-3,2.3-3.1,6.5H391.7z"/>
	<path class="st10" d="M396.9,158.7h1.3v2.4c0.6-1.4,1.5-2.6,3.2-2.6c1.8,0,2.7,1.2,3.2,2.7c0.6-1.3,1.6-2.7,3.6-2.7
		c2.2,0,3.7,1.8,3.7,5.1V175h-1.3v-11.3c0-2.7-1-4.1-2.6-4.1c-1.7,0-3,1.7-3,4.3v11h-1.3v-11.3c0-2.7-1-4.1-2.6-4.1
		c-1.7,0-3,1.7-3,4.3v11h-1.3L396.9,158.7L396.9,158.7z"/>
	<path class="st10" d="M422.7,153h1.4v2.2h-1.4V153z M422.8,158.7h1.3v16.2h-1.3V158.7z"/>
	<path class="st10" d="M428.7,158.7h1.3v3.1c0.6-1.9,1.8-3.4,3.4-3.4c2.2,0,4.2,2.8,4.2,8.1v0.6c0,5.2-2,8.1-4.2,8.1
		c-1.6,0-2.7-1.5-3.4-3.4v7.1h-1.3V158.7z M436.4,167v-0.5c0-4.4-1.4-6.9-3.1-6.9c-1.6,0-3.3,2.5-3.3,6.8v0.8c0,4.4,1.7,6.8,3.3,6.8
		C434.9,174,436.4,171.5,436.4,167z"/>
	<path class="st10" d="M440.7,174.3v-1.4c1.1,0.6,2.3,0.9,3.3,0.9c1.4,0,2.5-0.9,2.5-2.4v-0.1c0-1.1-0.6-2.3-2.6-4.1
		c-2.4-2.3-3.2-3.5-3.2-5.2l0,0c0-2.3,1.8-3.5,3.7-3.5c1.1,0,1.8,0.2,2.7,0.5v1.4c-0.9-0.5-1.8-0.7-2.7-0.7c-1.3,0-2.3,0.9-2.3,2.3
		v0.1c0,1.2,0.6,2.1,2.6,4c2.3,2.3,3.2,3.6,3.2,5.3v0.1c0,2.3-1.9,3.7-3.8,3.7C442.7,175,441.8,174.8,440.7,174.3z"/>
	<path class="st10" d="M451.3,170v-11.3h1.3v11.2c0,2.7,1,4.1,2.7,4.1s3.1-1.8,3.1-4.4v-11h1.3v16.2h-1.4v-2.4
		c-0.6,1.4-1.5,2.6-3.3,2.6C452.8,175.1,451.3,173.3,451.3,170z"/>
	<path class="st10" d="M464.1,158.7h1.3v2.4c0.6-1.4,1.5-2.6,3.2-2.6c1.8,0,2.7,1.2,3.2,2.7c0.6-1.3,1.6-2.7,3.6-2.7
		c2.2,0,3.7,1.8,3.7,5.1V175h-1.3v-11.3c0-2.7-1-4.1-2.6-4.1c-1.7,0-3,1.7-3,4.3v11h-1.3v-11.3c0-2.7-1-4.1-2.6-4.1
		c-1.7,0-3,1.7-3,4.3v11H464L464.1,158.7L464.1,158.7z"/>
	<path class="st10" d="M489.2,167v-0.6c0-5.2,2-8.1,4.2-8.1c1.6,0,2.7,1.5,3.4,3.4V153h1.3v21.8h-1.3v-3.1c-0.6,1.9-1.8,3.4-3.4,3.4
		C491.2,175.1,489.2,172.3,489.2,167z M496.9,167.1v-0.8c0-4.4-1.7-6.8-3.3-6.8c-1.7,0-3.1,2.5-3.1,6.9v0.5c0,4.4,1.4,6.9,3.1,6.9
		C495.2,174,496.9,171.5,496.9,167.1z"/>
	<path class="st10" d="M502,166.9v-0.3c0-5.1,2.2-8.2,4.6-8.2s4.6,3.1,4.6,8.2v0.3c0,5.1-2.2,8.2-4.6,8.2
		C504.2,175.1,502,172,502,166.9z M509.9,166.9v-0.3c0-4.3-1.5-7-3.3-7s-3.3,2.7-3.3,7v0.3c0,4.3,1.5,7,3.3,7
		S509.9,171.1,509.9,166.9z"/>
	<path class="st10" d="M515.2,153h1.3v21.8h-1.3V153z"/>
	<path class="st10" d="M520.6,166.9v-0.3c0-5.1,2.2-8.2,4.6-8.2c2.4,0,4.6,3.1,4.6,8.2v0.3c0,5.1-2.2,8.2-4.6,8.2
		C522.7,175.1,520.6,172,520.6,166.9z M528.5,166.9v-0.3c0-4.3-1.5-7-3.3-7s-3.3,2.7-3.3,7v0.3c0,4.3,1.5,7,3.3,7
		S528.5,171.1,528.5,166.9z"/>
	<path class="st10" d="M533.6,158.7h1.3v2.4c0.6-1.5,1.9-2.7,3.8-2.6v1.4h-0.1c-2,0-3.7,1.3-3.7,4.1v10.9h-1.3V158.7z"/>
	<path class="st10" d="M547.5,174.3v-1.4c1.1,0.6,2.3,0.9,3.3,0.9c1.4,0,2.5-0.9,2.5-2.4v-0.1c0-1.1-0.6-2.3-2.6-4.1
		c-2.4-2.3-3.2-3.5-3.2-5.2l0,0c0-2.3,1.8-3.5,3.7-3.5c1.1,0,1.8,0.2,2.7,0.5v1.4c-0.9-0.5-1.8-0.7-2.7-0.7c-1.3,0-2.3,0.9-2.3,2.3
		v0.1c0,1.2,0.6,2.1,2.6,4c2.3,2.3,3.2,3.6,3.2,5.3v0.1c0,2.3-1.9,3.7-3.8,3.7C549.5,175,548.6,174.8,547.5,174.3z"/>
	<path class="st10" d="M558.4,153h1.4v2.2h-1.4V153z M558.4,158.7h1.3v16.2h-1.3V158.7z"/>
	<path class="st10" d="M564.9,172.1v-12.3h-1.5v-1.2h1.5V154h1.3v4.6h2.6v1.2h-2.6v12.1c0,1.4,0.6,1.8,1.7,1.8c0.3,0,0.7-0.1,1-0.2
		v1.2c-0.3,0.1-0.8,0.2-1.1,0.2C566,175,564.9,174.2,564.9,172.1z"/>
	<path class="st10" d="M578.1,170.1v-0.2c0-3,1.5-5.2,4.3-5.2c1.1,0,2,0.3,2.7,0.6v-2c0-2.3-1-3.6-3.1-3.6c-1.1,0-2,0.2-3,0.7v-1.3
		c0.9-0.4,1.9-0.7,3.1-0.7c2.7,0,4.3,1.6,4.3,4.7v11.7h-1.3v-2.3c-0.6,1.6-1.7,2.6-3.3,2.6C579.6,175.1,578.1,173,578.1,170.1z
		 M585.1,169.8v-3.2c-0.9-0.4-1.7-0.6-2.7-0.6c-2,0-3,1.7-3,3.9v0.2c0,2.2,0.9,3.9,2.6,3.9C583.9,174,585.1,171.9,585.1,169.8z"/>
	<path class="st10" d="M590.8,158.7h1.3v2.4c0.6-1.4,1.5-2.6,3.2-2.6c1.8,0,2.7,1.2,3.2,2.7c0.6-1.3,1.6-2.7,3.6-2.7
		c2.2,0,3.7,1.8,3.7,5.1V175h-1.3v-11.3c0-2.7-1-4.1-2.6-4.1c-1.7,0-3,1.7-3,4.3v11h-1.3v-11.3c0-2.7-1-4.1-2.6-4.1
		c-1.7,0-3,1.7-3,4.3v11h-1.3L590.8,158.7L590.8,158.7z"/>
	<path class="st10" d="M609.5,167v-0.3c0-5.6,2.1-8.4,4.4-8.4c2.4,0,4.2,2.9,4.2,7.9v1h-7.4c0.1,4.4,1.9,6.5,4,6.5
		c1,0,1.8-0.2,2.8-1l0.2,1.3c-1.1,0.6-1.9,0.9-3.1,0.9C611.9,175.1,609.5,172.4,609.5,167z M616.9,166.1c0-3.7-1.2-6.5-3-6.5
		c-1.7,0-3,2.3-3.1,6.5H616.9z"/>
	<path class="st10" d="M622.4,172.1v-12.3h-1.5v-1.2h1.5V154h1.3v4.6h2.6v1.2h-2.6v12.1c0,1.4,0.6,1.8,1.7,1.8c0.3,0,0.7-0.1,1-0.2
		v1.2c-0.3,0.1-0.8,0.2-1.1,0.2C623.6,175,622.4,174.2,622.4,172.1z"/>
	<path class="st10" d="M629.1,177.3c1.2-0.5,1.7-1.2,1.6-2.4h-0.8v-2.5h1.9v2.2c0,1.9-0.6,2.7-2.3,3.5L629.1,177.3z"/>
	<path class="st10" d="M354.3,200v-0.3c0-5.6,2.5-8.2,4.9-8.2c0.8,0,1.5,0.2,1.9,0.6v1.4c-0.6-0.4-1.2-0.7-2-0.7
		c-1.7,0-3.6,2.1-3.6,6.9v0.4c0,4.9,1.9,6.8,3.7,6.8c0.7,0,1.3-0.3,1.9-0.7v1.4c-0.5,0.4-1.1,0.6-1.9,0.6
		C356.8,208.1,354.3,205.6,354.3,200z"/>
	<path class="st10" d="M363.9,199.9v-0.3c0-5.1,2.2-8.2,4.6-8.2s4.6,3.1,4.6,8.2v0.3c0,5.1-2.2,8.2-4.6,8.2S363.9,205,363.9,199.9z
		 M371.8,199.9v-0.3c0-4.3-1.5-7-3.3-7s-3.3,2.7-3.3,7v0.3c0,4.3,1.5,7,3.3,7S371.8,204.2,371.8,199.9z"/>
	<path class="st10" d="M377,191.7h1.3v2.4c0.6-1.4,1.5-2.6,3.3-2.6c2.2,0,3.7,1.8,3.7,5.1v11.3H384v-11.2c0-2.7-1-4.1-2.7-4.1
		s-3.1,1.8-3.1,4.4v11h-1.3v-16.3H377z"/>
	<path class="st10" d="M388.8,207.3v-1.4c1.1,0.6,2.3,0.9,3.3,0.9c1.4,0,2.5-0.9,2.5-2.4v-0.1c0-1.1-0.6-2.3-2.6-4.1
		c-2.4-2.3-3.2-3.5-3.2-5.2l0,0c0-2.3,1.8-3.5,3.7-3.5c1.1,0,1.8,0.2,2.7,0.5v1.4c-0.9-0.5-1.8-0.7-2.7-0.7c-1.3,0-2.3,0.9-2.3,2.3
		v0.1c0,1.2,0.6,2.1,2.6,4c2.3,2.3,3.2,3.6,3.2,5.3v0.1c0,2.3-1.9,3.7-3.8,3.7C390.8,208.1,389.9,207.8,388.8,207.3z"/>
	<path class="st10" d="M398.9,200.1v-0.3c0-5.6,2.1-8.4,4.4-8.4c2.4,0,4.2,2.9,4.2,7.9v1h-7.4c0.1,4.4,1.9,6.5,4,6.5
		c1,0,1.8-0.2,2.8-1l0.2,1.3c-1.1,0.6-1.9,0.9-3.1,0.9C401.3,208.1,398.9,205.4,398.9,200.1z M406.3,199.2c0-3.7-1.2-6.5-3-6.5
		c-1.7,0-3,2.3-3.1,6.5H406.3z"/>
	<path class="st10" d="M410.9,200v-0.3c0-5.6,2.5-8.2,4.9-8.2c0.8,0,1.5,0.2,1.9,0.6v1.4c-0.6-0.4-1.2-0.7-2-0.7
		c-1.7,0-3.6,2.1-3.6,6.9v0.4c0,4.9,1.9,6.8,3.7,6.8c0.7,0,1.3-0.3,1.9-0.7v1.4c-0.5,0.4-1.1,0.6-1.9,0.6
		C413.3,208.1,410.9,205.6,410.9,200z"/>
	<path class="st10" d="M421.7,205.2v-12.3h-1.5v-1.2h1.5v-4.6h1.3v4.6h2.6v1.2H423V205c0,1.4,0.6,1.8,1.7,1.8c0.3,0,0.7-0.1,1-0.2
		v1.2c-0.3,0.1-0.8,0.2-1.1,0.2C422.8,208,421.7,207.2,421.7,205.2z"/>
	<path class="st10" d="M428.5,200.1v-0.3c0-5.6,2.1-8.4,4.4-8.4c2.4,0,4.2,2.9,4.2,7.9v1h-7.4c0.1,4.4,1.9,6.5,4,6.5
		c1,0,1.8-0.2,2.8-1l0.2,1.3c-1.1,0.6-1.9,0.9-3.1,0.9C430.9,208.1,428.5,205.4,428.5,200.1z M435.9,199.2c0-3.7-1.2-6.5-3-6.5
		c-1.7,0-3,2.3-3.1,6.5H435.9z"/>
	<path class="st10" d="M441.4,205.2v-12.3h-1.5v-1.2h1.5v-4.6h1.3v4.6h2.6v1.2h-2.6V205c0,1.4,0.6,1.8,1.7,1.8c0.3,0,0.7-0.1,1-0.2
		v1.2c-0.3,0.1-0.8,0.2-1.1,0.2C442.5,208,441.4,207.2,441.4,205.2z"/>
	<path class="st10" d="M449,203v-11.3h1.3v11.2c0,2.7,1,4.1,2.7,4.1s3.1-1.8,3.1-4.4v-11h1.3v16.2h-1.3v-2.4
		c-0.6,1.4-1.5,2.6-3.3,2.6C450.5,208.1,449,206.3,449,203z"/>
	<path class="st10" d="M461.2,200.1v-0.3c0-5.6,2.1-8.4,4.4-8.4c2.4,0,4.2,2.9,4.2,7.9v1h-7.4c0.1,4.4,1.9,6.5,4,6.5
		c1,0,1.8-0.2,2.8-1l0.2,1.3c-1.1,0.6-1.9,0.9-3.1,0.9C463.6,208.1,461.2,205.4,461.2,200.1z M468.6,199.2c0-3.7-1.2-6.5-3-6.5
		c-1.7,0-3,2.3-3.1,6.5H468.6z"/>
	<path class="st10" d="M473.8,191.7h1.3v2.4c0.6-1.5,1.9-2.7,3.8-2.6v1.4h-0.1c-2,0-3.7,1.3-3.7,4.1v10.9h-1.3L473.8,191.7
		L473.8,191.7z"/>
	<path class="st10" d="M487.8,203.1v-0.2c0-3,1.5-5.2,4.3-5.2c1.1,0,2,0.3,2.7,0.6v-2c0-2.3-1-3.6-3.1-3.6c-1.1,0-2,0.2-3,0.7v-1.3
		c0.9-0.4,1.9-0.7,3.1-0.7c2.7,0,4.3,1.6,4.3,4.7v11.7h-1.3v-2.3c-0.6,1.6-1.7,2.6-3.3,2.6C489.3,208.1,487.8,206,487.8,203.1z
		 M494.7,202.8v-3.2c-0.9-0.4-1.7-0.6-2.7-0.6c-2,0-3,1.7-3,3.9v0.2c0,2.2,0.9,3.9,2.6,3.9C493.6,207,494.7,204.9,494.7,202.8z"/>
	<path class="st10" d="M499.8,200.1v-0.6c0-5.2,2-8.1,4.2-8.1c1.6,0,2.7,1.5,3.4,3.4v-8.7h1.3v21.8h-1.3v-3.1
		c-0.6,1.9-1.8,3.4-3.4,3.4C501.8,208.1,499.8,205.3,499.8,200.1z M507.5,200.2v-0.8c0-4.3-1.7-6.8-3.3-6.8c-1.7,0-3.1,2.5-3.1,6.9
		v0.5c0,4.4,1.4,6.9,3.1,6.9C505.9,207,507.5,204.5,507.5,200.2z"/>
	<path class="st10" d="M513.4,186.1h1.4v2.2h-1.4V186.1z M513.4,191.7h1.3v16.2h-1.3V191.7z"/>
	<path class="st10" d="M519.4,191.7h1.3v3.1c0.6-1.9,1.8-3.4,3.4-3.4c2.2,0,4.2,2.8,4.2,8.1v0.6c0,5.2-2,8.1-4.2,8.1
		c-1.6,0-2.7-1.5-3.4-3.4v7.1h-1.3V191.7z M527,200v-0.5c0-4.4-1.4-6.9-3.1-6.9c-1.6,0-3.3,2.5-3.3,6.8v0.8c0,4.4,1.7,6.8,3.3,6.8
		C525.6,207,527,204.5,527,200z"/>
	<path class="st10" d="M532.4,186.1h1.4v2.2h-1.4V186.1z M532.4,191.7h1.3v16.2h-1.3V191.7z"/>
	<path class="st10" d="M537.6,207.3v-1.4c1.1,0.6,2.3,0.9,3.3,0.9c1.4,0,2.5-0.9,2.5-2.4v-0.1c0-1.1-0.6-2.3-2.6-4.1
		c-2.4-2.3-3.2-3.5-3.2-5.2l0,0c0-2.3,1.8-3.5,3.7-3.5c1.1,0,1.8,0.2,2.7,0.5v1.4c-0.9-0.5-1.8-0.7-2.7-0.7c-1.3,0-2.3,0.9-2.3,2.3
		v0.1c0,1.2,0.6,2.1,2.6,4c2.3,2.3,3.2,3.6,3.2,5.3v0.1c0,2.3-1.9,3.7-3.8,3.7C539.5,208.1,538.6,207.8,537.6,207.3z"/>
	<path class="st10" d="M547.6,200v-0.3c0-5.6,2.5-8.2,4.9-8.2c0.8,0,1.5,0.2,1.9,0.6v1.4c-0.6-0.4-1.2-0.7-2-0.7
		c-1.7,0-3.6,2.1-3.6,6.9v0.4c0,4.9,1.9,6.8,3.7,6.8c0.7,0,1.3-0.3,1.9-0.7v1.4c-0.5,0.4-1.1,0.6-1.9,0.6
		C550,208.1,547.6,205.6,547.6,200z"/>
	<path class="st10" d="M558.3,186.1h1.4v2.2h-1.4V186.1z M558.3,191.7h1.3v16.2h-1.3V191.7z"/>
	<path class="st10" d="M564.3,191.7h1.3v2.4c0.6-1.4,1.5-2.6,3.3-2.6c2.2,0,3.7,1.8,3.7,5.1v11.3h-1.3v-11.2c0-2.7-1-4.1-2.7-4.1
		s-3.1,1.8-3.1,4.4v11h-1.2V191.7z"/>
	<path class="st10" d="M577.1,211.3V210c1.2,0.5,2.6,0.8,3.6,0.8c2.2,0,3.3-1,3.3-3.3v-3.8c-0.6,1.9-1.8,3.4-3.4,3.4
		c-2.2,0-4.2-2.7-4.2-7.7v-0.3c0-4.9,2.1-7.7,4.2-7.7c1.6,0,2.7,1.5,3.4,3.4v-3.1h1.3v15.7c0,3.1-1.7,4.5-4.7,4.5
		C579.6,211.9,578.2,211.7,577.1,211.3z M584.1,199.3V199c0-4.1-1.7-6.5-3.3-6.5s-3.1,2.3-3.1,6.5v0.2c0,4.2,1.5,6.5,3.1,6.5
		C582.4,205.9,584.1,203.5,584.1,199.3z"/>
	<path class="st10" d="M595.5,200.1v-0.3c0-5.6,2.1-8.4,4.4-8.4c2.4,0,4.2,2.9,4.2,7.9v1h-7.4c0.1,4.4,1.9,6.5,4,6.5
		c1,0,1.8-0.2,2.8-1l0.2,1.3c-1.1,0.6-1.9,0.9-3.1,0.9C598,208.1,595.5,205.4,595.5,200.1z M602.9,199.2c0-3.7-1.2-6.5-3-6.5
		c-1.7,0-3,2.3-3.1,6.5H602.9z"/>
	<path class="st10" d="M608.3,186.1h1.3v21.8h-1.3V186.1z"/>
	<path class="st10" d="M614.5,186.1h1.4v2.2h-1.4V186.1z M614.5,191.7h1.3v16.2h-1.3V191.7z"/>
	<path class="st10" d="M621,205.2v-12.3h-1.5v-1.2h1.5v-4.6h1.3v4.6h2.6v1.2h-2.6V205c0,1.4,0.6,1.8,1.7,1.8c0.3,0,0.7-0.1,1-0.2
		v1.2c-0.3,0.1-0.8,0.2-1.1,0.2C622.1,208,621,207.2,621,205.2z"/>
	<path class="st10" d="M627.7,210.3c1.2-0.5,1.7-1.2,1.6-2.4h-0.8v-2.5h1.9v2.2c0,1.9-0.6,2.7-2.3,3.5L627.7,210.3z"/>
	<path class="st10" d="M640,207.3v-1.4c1.1,0.6,2.3,0.9,3.3,0.9c1.4,0,2.5-0.9,2.5-2.4v-0.1c0-1.1-0.6-2.3-2.6-4.1
		c-2.4-2.3-3.2-3.5-3.2-5.2l0,0c0-2.3,1.8-3.5,3.7-3.5c1.1,0,1.8,0.2,2.7,0.5v1.4c-0.9-0.5-1.8-0.7-2.7-0.7c-1.3,0-2.3,0.9-2.3,2.3
		v0.1c0,1.2,0.6,2.1,2.6,4c2.3,2.3,3.2,3.6,3.2,5.3v0.1c0,2.3-1.9,3.7-3.8,3.7C642,208.1,641,207.8,640,207.3z"/>
	<path class="st10" d="M650,200.1v-0.3c0-5.6,2.1-8.4,4.4-8.4c2.4,0,4.2,2.9,4.2,7.9v1h-7.3c0.1,4.4,1.9,6.5,4,6.5
		c1,0,1.8-0.2,2.8-1l0.2,1.3c-1.1,0.6-1.9,0.9-3.1,0.9C652.5,208.1,650,205.4,650,200.1z M657.5,199.2c0-3.7-1.2-6.5-3-6.5
		c-1.7,0-3,2.3-3.1,6.5H657.5z"/>
	<path class="st10" d="M662.1,200.1v-0.6c0-5.2,2-8.1,4.2-8.1c1.6,0,2.7,1.5,3.4,3.4v-8.7h1.3v21.8h-1.3v-3.1
		c-0.6,1.9-1.8,3.4-3.4,3.4C664.1,208.1,662.1,205.3,662.1,200.1z M669.8,200.2v-0.8c0-4.3-1.7-6.8-3.3-6.8c-1.7,0-3.1,2.5-3.1,6.9
		v0.5c0,4.4,1.4,6.9,3.1,6.9C668.1,207,669.8,204.5,669.8,200.2z"/>
</g>
</svg>
