<?xml version="1.0" encoding="utf-8"?>
<!-- Generator: Adobe Illustrator 22.1.0, SVG Export Plug-In . SVG Version: 6.00 Build 0)  -->
<svg version="1.1" id="Layer_1" xmlns="http://www.w3.org/2000/svg" xmlns:xlink="http://www.w3.org/1999/xlink" x="0px" y="0px"
	 viewBox="0 0 731.6 507.7" style="enable-background:new 0 0 731.6 507.7;" xml:space="preserve">
<style type="text/css">
	.st0{fill:#FFFFFF;}
	.st1{fill:#CC216C;}
	.st2{fill:#F393BE;}
	.st3{opacity:0.65;fill:#F38699;}
	.st4{fill:#DD6799;}
	.st5{fill:#FAC2B5;}
	.st6{opacity:0.65;fill:#EBA99F;}
	.st7{fill:#F8951F;}
	.st8{fill:#EBA99F;}
	.st9{fill:#A41E22;}
	.st10{opacity:0.5;fill:#BF8683;}
	.st11{fill:#D71F26;}
	.st12{fill:#F1B2D1;}
</style>
<g>
	<g>
		<g>
			<path class="st0" d="M7.3,55.9h19.5l19.7,66.8l-2.3-66.8h17.6l21.1,66.8l-3.7-66.8h19l2.8,109.4H81.1l-20.4-64.7l2.4,64.7H43.1
				L7.3,55.9z"/>
			<path class="st0" d="M111.3,113.2l-1-5.6c-6.3-36,2.3-53.3,19.6-53.3s32,17.3,38.4,53.3l1,5.6c6.3,36-2.3,53.3-19.6,53.3
				S117.7,149.2,111.3,113.2z M150,113.2l-1-5.6c-4.9-28-10.2-35.8-16-35.8s-8.3,7.8-3.3,35.8l1,5.6c4.9,28,10.2,35.8,16,35.8
				S154.9,141.3,150,113.2z"/>
			<path class="st0" d="M168.5,55.9h19.6c19.5,0,35.5,10.3,39.8,34.7l0.2,1.4c2.5,14.2-1.5,23.2-7.7,28.7l22.4,44.2h-20.3l-19-38
				c-0.2,0-0.3,0-0.3,0h-3.3l6.7,38h-19L168.5,55.9z M198,109.8c8.3,0,13.5-4.8,11.2-17.6l-0.2-1.2c-2.4-13.7-9.6-17.3-17.9-17.3
				h-0.5l6.4,36.1H198z"/>
			<path class="st0" d="M230.5,55.9h19l8,45.6l7.4-45.6h21.5L276.2,102l29.8,62.9h-21.2l-19.1-41.3l-2.1,12l5.2,29.3h-19L230.5,55.9
				z"/>
			<path class="st0" d="M294.3,59l-0.5-3.1h22.4l0.5,3.1l6.1,72h-9.3L294.3,59z M309.7,143.3h21.5l3.8,21.7h-21.5L309.7,143.3z"/>
		</g>
		<g>
			<path class="st0" d="M0,5.5h7.1l11.6,22.1L14.8,5.5h7.4l7.7,43.7h-6.7L11,26l4.1,23.1H7.7L0,5.5z"/>
			<path class="st0" d="M26.8,5.5h7.6l7.7,43.7h-7.6L26.8,5.5z"/>
			<path class="st0" d="M42.3,28.1L42,26.6c-2.7-15.3,1.9-21.4,9-21.4c2.1,0,3.4,0.2,5.2,1l1.4,7.9c-1.7-0.9-3.1-1.4-4.5-1.4
				c-3.4,0-5.3,3-3.3,13.9l0.3,1.6c2,11.5,4.9,13.9,8.4,13.9c1.2,0,2.6-0.4,4-1.4l1.3,7.5c-1.6,1-3.2,1.3-5.4,1.3
				C51.4,49.5,45,43.3,42.3,28.1z"/>
			<path class="st0" d="M60,5.5h16.7l1.3,7.2h-9.1l1.9,10.9h8l1.3,7.2h-8l2,11.1h9.3l1.3,7.2H67.7L60,5.5z"/>
		</g>
	</g>
	<g>
		<g>
			<path class="st1" d="M13.9,51.5h19.5l19.7,66.8l-2.3-66.8h17.6l21.1,66.8l-3.7-66.8h19l2.8,109.4H87.7L67.3,96.2l2.4,64.7H49.7
				L13.9,51.5z"/>
			<path class="st1" d="M117.9,108.8l-1-5.6c-6.3-36,2.3-53.3,19.6-53.3s32,17.3,38.4,53.3l1,5.6c6.3,36-2.3,53.3-19.6,53.3
				S124.3,144.8,117.9,108.8z M156.6,108.8l-1-5.6c-4.9-28-10.2-35.8-16-35.8s-8.3,7.8-3.3,35.8l1,5.6c4.9,28,10.2,35.8,16,35.8
				S161.5,136.8,156.6,108.8z"/>
			<path class="st1" d="M175.1,51.5h19.6c19.5,0,35.5,10.3,39.8,34.7l0.2,1.4c2.5,14.2-1.5,23.2-7.7,28.7l22.4,44.2h-20.3l-19-38
				c-0.2,0-0.3,0-0.3,0h-3.3l6.7,38h-19L175.1,51.5z M204.6,105.4c8.3,0,13.5-4.8,11.2-17.6l-0.2-1.2c-2.4-13.7-9.6-17.3-17.8-17.3
				h-0.5l6.4,36.1H204.6z"/>
			<path class="st1" d="M237.1,51.5h19l8,45.6l7.4-45.6h21.5l-10.3,46.1l29.8,62.9h-21.2l-19.1-41.3l-2.1,12l5.2,29.3h-19
				L237.1,51.5z"/>
			<path class="st1" d="M300.9,54.6l-0.5-3.1h22.4l0.5,3.1l6.1,72h-9.3L300.9,54.6z M316.3,138.9h21.5l3.8,21.7h-21.5L316.3,138.9z"
				/>
		</g>
		<g>
			<path class="st1" d="M6.6,1.1h7.1l11.6,22.1L21.4,1.1h7.4l7.7,43.7h-6.7L17.7,21.6l4.1,23.1h-7.4L6.6,1.1z"/>
			<path class="st1" d="M33.4,1.1h7.6l7.7,43.7h-7.6L33.4,1.1z"/>
			<path class="st1" d="M48.9,23.7l-0.3-1.5c-2.7-15.3,1.9-21.4,9-21.4c2.1,0,3.4,0.2,5.2,1l1.4,7.9c-1.7-0.9-3.1-1.4-4.5-1.4
				c-3.4,0-5.3,3-3.3,13.9l0.3,1.6c2,11.5,4.9,13.9,8.4,13.9c1.2,0,2.6-0.4,4-1.4l1.3,7.5c-1.6,1-3.2,1.3-5.4,1.3
				C58,45.1,51.6,38.9,48.9,23.7z"/>
			<path class="st1" d="M66.6,1.1h16.7l1.3,7.2h-9.1l1.9,10.9h8l1.3,7.2h-8l2,11.1H90l1.3,7.2H74.3L66.6,1.1z"/>
		</g>
	</g>
</g>
<g id="Buddha_9_">
	<g>
		<path class="st2" d="M639,340.6l0.3,1.3l1.1-0.7c9.4-5.7,15.9-15.6,17.4-26.4c0-0.4,0.3-0.6,0.6-0.8c0.1,0,0.2-0.1,0.3-0.1
			c0.2,0,0.5,0.1,0.7,0.3c12.6,12,19.1,30.3,17.1,47.8l-0.2,2l1.7-1c7.9-4.9,14.2-11.9,18.3-20.2c0.2-0.3,0.5-0.5,0.8-0.5
			c0.4,0,0.7,0.1,0.9,0.5c14.1,23.1,11.3,54.9-6.5,75.5l-2,2.3l3-0.8c13.3-3.5,25-11.9,32.3-23c0.2-0.3,0.5-0.4,0.8-0.4
			c0.2,0,0.4,0.1,0.5,0.2c0.2,0.1,0.3,0.4,0.4,0.5c0.1,0.3,0.4,0.8,0.6,1.4l0.2,0.5c1.5,3,2.7,5.6,2.9,6.4c0.9,4.1,0.5,8.8,0,13.3
			c-1,9.1-4,17.9-8.6,25.6c-11.2,18.4-34.7,32.3-54.8,32.3c-4.7,0-9.2-0.8-13.5-2.3l-0.4-0.1l-0.3,0.2c-5.9,2.8-12.3,4.3-18.5,4.3
			c-1.1,0-2.2-0.1-3.5-0.2l-0.7-0.1l-0.3,0.6c-4.6,10.6-13.1,19.3-23.1,24c-5.9,2.7-12.5,4.2-19.3,4.2c-10.3,0-20.4-3.3-28.4-9.4
			l-0.5-0.4l-1.1,0.5c-0.3,0.2-0.6,0.3-0.9,0.5c-7.9,3.6-17.7,5.6-27.4,5.6c-15.6,0-28.9-4.9-36.5-13.5l-0.7-0.8l-0.7,0.9
			c-5,6-14,8.2-22.1,9.6c-4.4,0.7-8.6,1.1-12.5,1.1c-13.7,0-24.3-4.5-31.3-13.4l-0.5-0.6l-0.7,0.4c-5.1,3-11.2,4.6-17.7,4.6
			c-10.8,0-21.4-4.3-29.2-11.7l-0.4-0.6l-0.7,0.3c-4.5,1.8-9.3,2.7-14.5,2.7c-6.5,0-13.3-1.5-19.6-4.3c-9.6-4.3-18.6-11.7-26.6-21.9
			c-10.3-13.1-17.4-28.7-20.6-45.1c-0.8-4.1,0.1-7,2.5-7.9c0.5-0.2,1-0.3,1.6-0.3c2.4,0,4.6,2.3,6.1,3.9c6.6,6.9,16.7,8.8,24.8,9.6
			l2.6,0.3l-1.8-1.9c-17.4-18-17.4-41.1-16-61.4c0.1-1.8,0.7-4.1,2.6-4.7c0.3-0.1,0.6-0.1,0.9-0.1c1.5,0,2.9,1.2,3.5,1.8l20.3,18
			l-0.4-2.6c-2-13.4-1.1-27.4,2.6-40.4c1-3.5,2.5-7.2,5.8-9.1c1.3-0.7,2.8-1.1,4.6-1.1c2,0,4.1,0.5,5.7,0.9
			c13.5,3.7,25.9,10.9,35.8,20.8l1.6-1c-5.4-15.4-6.2-32.5-2.2-48.1c0.1-0.4,0.5-0.7,0.9-0.7c0.1,0,0.2,0,0.2,0
			c22.2,5.2,41.4,22.9,54.5,40.8c1.5-19.8,12.7-37.1,26.1-52c9.5,7,18.5,18,23.4,28.7c5,10.7,6.1,20.9,8.9,32.3
			c2.6-11.1,5.2-22.3,9.7-32.9c4.5-10.5,11-20.4,20.2-27.3c19.4,18,25.8,36.4,29.5,59.5c6.6-15.1,16-26.9,25.9-40
			c-0.3,0.5,3.6,8.6,4,9.7c1.1,3.1,2.3,6.5,2.4,9.9c0.2,6.9,1.4,13.6,0.3,20.5c8-7.3,15.3-15.3,21.9-23.9c0.4-0.5,0.9-1.1,1.5-1.1
			c0.7,0,1.2,0.7,1.5,1.3C631.5,322.1,636.6,330.1,639,340.6z"/>
		<path class="st3" d="M726.4,396.9c0,0-0.1-0.1-0.1-0.2c0-0.1-0.2-0.3-0.4-0.5c-0.2-0.1-0.3-0.2-0.5-0.2c-0.3,0-0.6,0.2-0.8,0.4
			c-7.3,11.2-19,19.6-32.3,23l-3,0.8l2-2.3c17.9-20.6,20.6-52.3,6.5-75.5c-0.2-0.3-0.5-0.5-0.9-0.5c-0.3,0-0.7,0.2-0.8,0.5
			c-4.1,8.3-10.4,15.3-18.3,20.2l-1.7,1l0.2-2c2-17.5-4.5-35.8-17.1-47.8c-0.2-0.2-0.4-0.3-0.7-0.3c-0.1,0-0.2,0-0.3,0.1
			c-0.3,0.1-0.6,0.4-0.6,0.8c-1.5,10.8-8,20.7-17.4,26.4l-1.1,0.7l-0.3-1.3c-1.4-6.1-3.6-12-6.4-17.5c-2.3-4.6-5.7-7.6-8.7-11.6
			c-8.2,8.3-15.1,17.2-24.4,24.5c2.3-13.2,0.8-27-4.5-39.3c-10.2,12.7-18.9,26.6-25.8,41.3c-1.9-11.5-3.8-23.2-8.3-34
			c-4.5-10.8-11.9-20.8-22.3-26.1c-17.5,14.4-24.4,37.6-30,58.7c-1.6-11.7-4.2-23.4-9.3-34.1c-5.2-10.6-13.1-20.2-23.5-25.9
			c-6.6,7.3-12.1,15.6-16.6,24.4c-2.1,4.1-3.8,8.4-5.4,12.7c-0.8,2.2-5.1,12.7-3.5,14.7c-13.7-17.6-31.7-36-54.1-41.2
			c-0.1,0-0.2,0-0.2,0c-0.4,0-0.8,0.3-0.9,0.7c-3.9,15.6-3.2,32.7,2.2,48.1l-1.6,1c-9.9-9.9-22.3-17.2-35.8-20.8
			c-1-0.3-2.3-0.6-3.6-0.8c-1.8,2.4-3.1,5.3-4.5,8.6c-3.4,8.1-5.2,16.9-5.2,25.8c0,4.4,0.1,21.4,4.4,24c-3.1-1.9-6.3-3.7-9.4-5.6
			l0,0.2l-0.6-0.5c-0.2-0.1-0.4-0.2-0.5-0.3c6.4,6.1,12.8,12.2,19.2,18.3c1.1,1.1,2.3,2.3,2.8,3.8c0.8,3.1-2,6.2-5.2,6.7
			c-3.1,0.5-6.3-0.8-9.1-2.4c-12.6-7-22.3-19.1-26.3-33c2.2,18.4,12.2,35.7,27,46.9c-1.5,0.6-3,1-4.6,1.3c-5.4,1-11.1,0.7-16.3-0.8
			c-0.6-0.2-2.1-0.7-4-1.5c1.8,2.8,3.9,5.4,6.4,8l1.8,1.9l-2.6-0.3c-1.6-0.2-3.3-0.4-5-0.6c3.6,1.5,7.5,2.2,11.4,2.9
			c5.3,1,10.7,2,15.1,5c2.6,1.8,4.9,5.5,2.8,7.9c-1,1.2-2.8,1.5-4.4,1.6c-5.5,0.4-11-0.3-16.2-2c7.7,4.3,16.1,7.4,24.7,9.4
			c-22.2,0.1-44-11.5-56.5-29.8c8.4,17.1,16,33,31.1,45.5c15.1,12.5,35.6,19.4,54.8,15.3c7.7-1.7,15-5,22.7-7.1
			c11.6-3.1,22.2,0,33.6,2.1c36.1,6.7,72.7,13.5,109.3,11.2c31.1-1.9,62.3-6,93.3-9.2c11.6-1.2,23.4-2.4,34.6-5.9
			c11.2-3.4,21.9-9.3,29.4-18.3c-8.2,4-17.1,6.7-26.2,7.8c0.7-3,1.3-5.9,2-8.9c14.5-0.9,28.2-9.6,35.1-22.4
			c-1.2,7.6-4.5,14.8-9.5,20.6C723,430,727.2,413.2,726.4,396.9z"/>
		<path class="st4" d="M722.1,409.4c-3.4,21.2-22.7,32-42.5,34.3c-9.8,1.1-19.8,0.4-29.5-1.4c-3.2-0.6-6.3-1.5-9.4-2.5
			c3.8-4,7.4-8.5,12.2-11.4c5.7-3.5,12.4-4,18.9-4.7c4.6-0.5,10.8,0.6,14.8-2c3-2,4.9-5.1,6.7-8.2c6.8-11.7,13-24.7,11.4-38.2
			c-1.3,7.2-3.1,14.4-6.8,20.7c-3.7,6.3-9.2,11.8-16.2,14.1c-3,1-6.4,1.3-9-0.5c-1.4-1-2.3-2.4-3.1-3.9c5.9-3.6,11.1-8.9,14.6-13.6
			c8.1-10.8,11.1-24.1,11.4-37.4c-1.9,12.7-5.9,25-13.8,35.3c-3.6,4.7-7.8,8.6-12.8,11.8c-0.4,0.3-0.9,0.5-1.3,0.8
			c-3.2-4.9-7.3-9.2-12.2-12.5c8.3-6.5,15.4-14.7,20.6-23.9c-8.9,9.1-21,15-33.6,16.7c-2.9,0.4-6,0.5-8.7-0.7
			c-1.5-0.7-2.7-1.7-3.7-3c7.5-3.4,14.4-10.2,18.8-16c7.6-10,11.1-22,11.1-34.5c-0.5,9.8-3.1,19.2-8.2,27.4c1.4-2.6,2.5-5.2,3.3-7.6
			c-3.4,8.2-8.8,15.4-16.1,20.5c-3.6,2.6-7.6,4-11.6,5.5c-0.6-1.5-1.1-3-1.6-4.5c7.8-7.7,11.5-19.2,10.4-30
			c-0.6-5.3-2.3-10.9-4.2-15.8c-0.4-1.2-8.1-14.1-8.7-13.3c-3.3,5.1-6.6,9.9-10.8,14.4c-2.1,2.3-4.3,4.4-6.7,6.4
			c-1.2,1-6.6,4.1-6.9,5.4c2.2-10,1.8-20.4-1-30.2c1.3,16-4.2,32.5-14.8,44.5c5.1-13.4,8.6-27.3,10.4-41.5
			c-2.2,14-8.6,27.4-18.2,37.8c-1,1-2.2,2.2-3.6,1.9c-1.8-0.4-2.3-2.6-2.5-4.5c-2.1-19.1-8.5-37.8-18.6-54.2
			c5.2,8.5,9.2,17.3,11.1,27.1c1,4.8,1.7,9.9,1.4,14.9c-0.2,4.5,0.4,9.3-0.5,13.8c-0.8,4.2-3,8.3-6.6,10.5c-3.7,2.2-9,1.9-11.7-1.3
			c-2.6-3.1-2.4-7.6-2.1-11.7c1.2-17.3,0.2-34.8-2.8-51.9c0.9,14.8,0.4,29.7-2,44.3c-0.8,4.9-1.9,9.9-4.7,14.1
			c-2.8,4.1-7.8,7.1-12.7,6.3c-4.3-0.7-7.7-4.3-9.5-8.3c-1.8-4-2.2-8.5-2.5-12.8c-0.9-12-5.9-22.9-9.9-34.1
			c4.6,14.2,7.1,29.4,3.9,44c-0.5,2.3-1.4,4.9-3.6,5.8c-2,0.8-4.3-0.1-5.8-1.6c-1.5-1.5-2.2-3.6-2.9-5.6c-5.7-16.5-8-33.9-10.2-51.2
			c1.2,16.1,1.3,32.3,0.2,48.5c-0.2,3.5-0.8,7.5-3.7,9.4c-2.7,1.8-6.4,1-8.9-1c-2.5-1.9-4.2-4.8-5.9-7.5
			c-7.4-12.1-16.6-23-27.3-32.4c-5.4-4.7-11.1-9.1-17.1-13c-6.1-3.9-12.8-5.4-19.4-8.3c0.7,0.3,0.9,15.7,1.1,17.5
			c0.7,6,1.9,12,3.4,17.9c1.5,5.9,3.4,11.7,5.6,17.4c1.9,4.8,5.1,8,7.7,12.4c-8.9-2.3-17.2-9.2-22.5-16.5c6.4,9.2,13.4,20.2,10.6,32
			c-1.2,5.2-3.9,10.2-7.6,14.1c-3-2.6-6.2-4.9-8.9-7.7c-4.4-4.7-8.4-9.8-12-15.1c-7.1-10.5-13-22-17.7-33.8
			c-0.1-0.1-0.2-0.1-0.2,0.1c5.6,13.2,10.8,26.5,18.7,38.5c4.4,6.7,10.4,15.3,17.5,20.5c-3.5,2.9-7.5,4.9-12.1,5.4
			c-10.9,1.4-22.2-3.9-29.1-12.4c8.1,9.6,16,19,24.9,27.9c2.6,2.6,5.4,5.5,5.5,9.2c0.1,4.7-4.6,8.4-9.3,9c-4.2,0.5-7.8-1.8-11.7-1.7
			c4.8,5.4,11,10,17.7,13.8c-5.7,1.6-11.4,2.6-17.2,2.8c-23.3,0.8-44.1-9.5-59-27.2c0-0.1-0.1,0-0.1,0.1
			c13.2,19,36.1,30.1,59.1,31.1c8.5,0.3,17.1-0.4,25.3-2.5c8,3.8,16.3,6.9,23.7,9.5c18.3,6.3,37.2,10.2,56.2,14
			c6.6,1.3,13.4,2.7,20,1.5c5.1-0.9,10.1-3.6,13.1-7.7c-0.6,3.8,1.1,8.2,4.3,10.8c4.3,3.6,10.3,4.4,15.9,5
			c21.4,2.1,43.3,1.8,64.2-3.3c19.3-4.7,37.9-13.7,52.4-27.4c5.9,1.6,12.2,2.4,17.8,3c11.3,1.1,23.1,0.8,34.1-2.1
			C705.7,440,720.9,427.8,722.1,409.4z"/>
		<g>
			<path class="st0" d="M318.3,444.1c-7.2-12.3-12.5-25.4-19.2-37.9c-1.4-2.6-5.8-0.8-4.9,2.1c7.8,25,23.8,58.9,51.3,67.2
				c0.2,0.1,0.3-0.2,0.2-0.3C335.2,465.6,325.6,456.4,318.3,444.1z"/>
			<path class="st0" d="M327.7,407.9c-7-17.7-10.8-37.2-8.1-56.2c0.5-3.2-4.5-4.6-5-1.4c-3.1,20.8,0.1,40.6,12.9,57.6
				C327.6,408,327.7,408,327.7,407.9z"/>
		</g>
		<path class="st1" d="M731,404.8c-0.2-0.8-1.1-2.8-2.9-6.6c-0.4-0.8-0.7-1.5-0.8-1.7c-0.1-0.4-0.4-0.8-0.8-1
			c-0.9-0.6-2.1-0.3-2.6,0.6c-7.3,11.2-18.9,19.3-31.7,22.6c18-20.7,20.9-53.1,6.6-76.6c-0.4-0.6-1-0.9-1.7-0.9
			c-0.7,0-1.3,0.4-1.6,1.1c-4,8.1-10.3,15.1-18,19.8c2-17.6-4.6-36.3-17.4-48.5c-0.5-0.5-1.3-0.7-1.9-0.4c-0.7,0.2-1.2,0.8-1.3,1.5
			c-1.4,10.4-7.7,19.9-16.5,25.5c-1.4-10.7-8.6-24.4-14.8-31c-0.4-0.4-1-0.7-1.6-0.6c-0.6,0-1.1,0.4-1.5,0.8
			c-5.6,8.2-12.2,15.6-19.8,22.1c2-12.3-0.5-25.5-6.8-36.2c-0.3-0.6-0.9-0.9-1.6-0.9c-0.6,0-1.3,0.3-1.7,0.8
			c-8.6,11.4-16.2,23.6-22.6,36.3c-3.3-21.9-14.3-42.4-31-57c-0.4-0.3-0.9-0.5-1.4-0.5c-0.5,0-1,0.3-1.3,0.7
			c-12.8,14.7-22.2,32.8-27,51.8c-4.1-20.2-15.2-39.1-31.2-52c-0.4-0.3-0.9-0.5-1.5-0.4c-0.5,0.1-1,0.3-1.3,0.8
			c-1.5,2-3,3.9-4.4,5.8c-10,13.2-19.5,25.7-21.3,42.4c-7.5-10.5-18.9-24.1-43.3-33.4c-2.6-1.1-5.3-2-8-2.7c-0.1,0-0.2-0.1-0.2-0.1
			l0,0c-0.5-0.1-1-0.3-1.5-0.4c-1-0.2-2,0.4-2.3,1.4c-4,16-3.2,33.1,2.2,48.7c-10-10-22.5-17.3-36.3-21.1c-3.4-0.9-7.4-1.6-10.9,0.2
			c-3.6,2-5.2,6-6.3,9.6c-3.8,13.2-4.7,27.2-2.6,40.8L322,349.8c-0.9-0.8-2.9-2.6-5.3-1.8c-1.4,0.4-3,1.7-3.3,5.5
			c-1.4,20.7-1.3,43.9,16.3,62.1c-9.3-1-18.3-3-24.2-9.3c-2-2.1-5.1-5.4-8.7-3.9c-2.8,1.2-3.9,4.4-3,9c3.2,16.5,10.4,32.2,20.8,45.5
			c8.1,10.4,17.2,17.8,27,22.2c6.5,2.9,13.4,4.4,20,4.4c5.2,0,10.2-0.9,14.8-2.7c0,0,0,0,0,0c8.2,7.9,19.3,12.1,29.9,12.1
			c6.5,0,12.8-1.5,18.2-4.7c7.2,9.1,18,13.7,32,13.7c4,0,8.2-0.4,12.7-1.1c8.5-1.4,17.6-3.8,22.7-10c8.4,9.5,22.7,13.9,37.2,13.9
			c9.8,0,19.7-2,27.8-5.7c0.5-0.2,1-0.5,1.5-0.8c8.3,6.3,18.6,9.6,29,9.6c6.7,0,13.5-1.4,19.7-4.2c10.6-4.9,19-13.8,23.6-24.4
			c1.2,0.1,2.4,0.2,3.6,0.2c6.5,0,13-1.5,18.9-4.4c4.4,1.6,9.1,2.3,13.8,2.3c21.7,0,44.8-15,55.6-32.8c4.7-7.8,7.8-16.8,8.8-26
			C731.5,413.8,731.9,409,731,404.8z M317.1,353.7c0.1-1.7,0.5-2.1,0.6-2.1c0.1,0,0.4-0.1,1.7,1l21.8,19.2c0.1,0.1,0.2,0.1,0.2,0.2
			c0,0,0,0.1,0,0.1l0.1,0c9,8,18.3,16.2,27.1,24.7c-3.2,7.7-5.9,15.9-7.6,24.6c-7.7-4-16.7-4.8-25.4-5.4
			C317.9,400.4,315.3,380.5,317.1,353.7z M342.9,475.6c-9.2-4.1-17.8-11.2-25.5-21.1c-10-12.8-16.9-27.9-20-43.9
			c-0.4-1.9-0.4-4.3,0.8-4.8c1.2-0.5,3.2,1.5,4.6,3c7.6,8.1,19.2,10,30.5,10.8l1.7,0.1c8.9,0.7,18.1,1.4,25.5,5.6
			c-0.3,2-0.5,4-0.7,6c-1.4,17.8,3.7,34.8,13.6,46.3C364.1,480.8,353.1,480.1,342.9,475.6z M378.8,478c-11-10.6-16.7-27.9-15.3-46.3
			c1.3-17.1,8.1-33.1,14.7-46.7c23,13.9,38.1,39.6,39.2,66.4c-2.6,10.9-1.7,21.6,2.8,30.4v0c0.6,1.1,1.2,2.2,1.9,3.2
			C409.2,492.3,390.7,489.5,378.8,478z M490.3,485.8c-3.5,7.1-13.1,9.6-22,11.1c-22,3.7-37.1-2-44.7-17v0
			c-5.9-11.5-4.9-26.9,2.6-41.2c6.6-12.5,16.8-22.6,26.9-32.4c10.1,9.4,20.4,19.2,27.6,31.1c5.6,9.2,9.1,21,10.7,36.1
			C491.9,477.9,492,482.3,490.3,485.8z M493,459.4c-2-9.3-5-17.2-9-23.8c-7.8-12.9-18.9-23.2-29.6-33.1c-0.7-0.7-1.9-0.7-2.6,0
			c-10.7,10.3-21.8,21-28.9,34.6c-0.9,1.8-1.7,3.5-2.5,5.3c-3.8-25.5-19.5-48.9-41.9-61.7c-0.5-0.3-1-0.3-1.5-0.2
			c-0.5,0.2-0.9,0.5-1.1,1c-1.8,3.7-3.7,7.6-5.5,11.7c-8.2-8-16.9-15.6-25.3-23.1c-3-14.5-2.4-29.6,1.7-43.8c0.8-2.9,2-6,4.4-7.3
			c2.3-1.2,5.4-0.6,8.1,0.1c17.1,4.7,32.2,15.1,42.6,29.5c0.6,0.8,1.7,1,2.5,0.5c0.8-0.5,1.1-1.6,0.7-2.5
			c-9.1-16.9-11.8-37.2-7.5-56c2.2,0.6,4.6,1.3,6.9,2.1c24.8,9.4,36,23.5,45.3,37.2c0.5,0.7,1.4,1,2.2,0.8c0.8-0.3,1.4-1,1.4-1.9
			c-0.1-18.4,9.6-31.2,20.8-45.9c1.1-1.4,2.1-2.8,3.2-4.2c17.3,14.8,28.4,36.9,29.7,59.6c0.1,1,0.9,1.8,1.9,1.8c1,0,1.9-0.7,2-1.7
			c3.3-21.8,13-43,27.2-59.9c16.8,15.4,27.3,37.1,29,59.8c0.1,0.9,0.7,1.6,1.6,1.8c0.9,0.2,1.7-0.3,2.1-1.1
			c6.5-13.8,14.3-27,23.3-39.3c5.6,11,7.1,24.3,3.8,36.1c-0.2,0.8,0.1,1.7,0.8,2.1c0.7,0.5,1.6,0.4,2.3-0.1
			c9-6.9,16.9-15.1,23.4-24.3c3.5,4.4,7.2,10.9,9.6,17.4c1.4,3.9,2.1,8.7,2.9,12.7c0.1,0.6,0.5,1.1,1,1.3c0.5,0.3,1.2,0.3,1.7,0
			c10.2-5.2,17.8-15,20.5-26.2c11.2,12.3,16.3,30.2,13.2,46.5c-0.1,0.7,0.1,1.4,0.7,1.9c0.6,0.4,1.4,0.5,2,0.2
			c8.9-4.6,16.3-11.7,21.3-20.4c11.7,22.1,6.4,54.1-10.5,72.8c-2.8,0.4-5.6,0.6-8.4,0.6c-0.8-3.6-1.9-7.2-3.5-10.6
			c-6.9-15-21-26.8-37.6-31.6c-0.6-0.2-1.3,0-1.7,0.4c-0.5,0.4-0.7,1-0.7,1.6c1.8,17.7-1.8,35.9-9.9,51.7
			c-4.4-5.9-10.1-10.8-16.7-14.1c-0.6-0.3-1.3-0.3-1.9,0.1c-0.6,0.4-0.9,1-0.9,1.6c0.3,16.9-9.3,33.6-23.6,42.5
			c0.3-4.1,0.3-8.4-0.1-13c-1.9-21.8-17.3-42.1-38.4-50.5c-0.5-0.2-1-0.2-1.5,0.1c-0.5,0.2-0.8,0.7-1,1.2
			c-3.8,12.5-14.3,21.8-24.4,30.8l-2.3,2C505.6,440.1,497,448.9,493,459.4z M555,495.5c-19.2,8.8-48.7,7.5-61.3-8.1
			c2.1-4.4,2-9.4,1.4-14.1c-0.2-1.7-0.4-3.4-0.6-5.1c1.7-13.1,12-23.9,22-32.8l2.2-2c10-8.9,20.3-18,24.9-30.6
			c18.8,8.3,32.4,26.7,34.2,46.5C579.8,472.5,572.4,487.6,555,495.5z M605.2,500.1c-13.9,6.4-30.9,4.7-43.4-3.9
			c10.7-6.5,17.1-16.3,19.3-29.4c16-8.6,27-25.9,28-44.1c13.2,7.9,21.8,22.9,21.5,38.3C630.4,477.5,620.1,493.2,605.2,500.1z
			 M631.8,475.4c1.6-4.6,2.5-9.4,2.6-14.3c0.1-9-2.5-17.9-7.2-25.6c8.7-16,12.8-34.6,11.5-52.8c14.5,4.9,26.5,15.5,32.6,28.7
			c1.8,4,3.1,8.2,3.7,12.5l0,0.3c0,0,0,0,0.1,0c1.7,11.3-0.5,23.1-6.5,32.4C660.6,468.8,645.9,476.2,631.8,475.4z M727.3,418
			c-0.9,8.7-3.8,17.1-8.2,24.5c-11.7,19.3-39.5,35.1-61.5,29.9c5.6-3.5,10.6-8.2,14.2-13.8c6.4-9.8,8.8-22.3,7.1-34.4
			c18-0.1,35.5-9,46.2-23.4c0.8,1.7,2,4.2,2.2,4.8C728.1,409.3,727.7,413.7,727.3,418z"/>
	</g>
	<g id="Buddha_3_">
		<g>
			<path class="st5" d="M497.5,425c-1.8,0-3.6-0.8-4.6-2.1c-0.4-0.5-0.7-1.1-0.9-1.7l-0.2-0.6l-0.6,0c-0.8,0-1.6,0-2.5,0
				c-6.1,0-12.2-0.5-18.1-1.6l-0.5-0.1l-0.3,0.4c-1.4,1.7-3.9,3.2-5,3.5c-0.3,0.1-0.7,0.1-1.1,0.1c-1.7,0-3.2-1.1-4.5-2
				c-0.6-0.4-1.1-0.8-1.7-1.1c-4.5-2.5-9.5-3.5-14.8-4.6c-4.2-0.9-8.6-1.8-12.7-3.5c-5.4-2.3-9.8-5.8-12.7-10.2
				c-2.2-3.3-3.6-7-5-10.6c-1.8-4.8-3.6-9.7-4-15c-0.5-7.5,2.2-15.9,7.6-22.9l0.5-0.6l-0.6-0.5c-4.6-4.2-8.6-8-10.7-13.2
				c-1.4-3.3-1.9-6.8-2.3-10.1c-1.5-14-0.2-28.6,3.6-42.2l0.1-0.4l-2.4-3.1c-0.2-0.3-0.2-0.6-0.1-0.9c7.1-12.3,15.9-27.7,30.1-35.7
				c0.5-0.3,1.1-0.6,1.6-0.9c2.1-1.1,4.1-2.2,5.6-3.8c1.8-1.9,2.9-4.9,1.5-7.1c-0.2-0.3-0.2-0.6,0-0.9c0.2-0.2,0.4-0.4,0.7-0.4
				l7.6,1.2l-0.4-1.2c-1-3.4-0.6-8.1,1.1-11.7l0.3-0.7l-0.7-0.4c-9.5-5.2-16.9-11.6-21.9-19.1l-1.1-1.5l-0.4,1.8
				c-0.6,2.7-1.8,5.3-3.3,7.2c-1.6,2-3.3,3.1-5,3.1h0c-4.9,0-9.6-3.4-11.7-8.4c-1.7-3.9-2-8.7-1.1-14.6c0.3-2,0.7-4,1.1-5.9
				c0.6-2.7,1.2-5.5,1.5-8.2c0.8-7.7-0.7-15.7-4.4-22.6c-0.3-0.5-0.5-0.9-0.8-1.4c-0.9-1.6-1.9-3.3-2.4-5.2
				c-0.8-2.9-0.3-5.8,1.3-7.6c1.2-1.3,3-2.1,5-2.1c1.7,0,3.5,0.5,4.9,1.4c1,0.7,1.9,1.4,2.6,2.2l1.4,1.5l0.1-2
				c0.1-3.9,0-6.9-0.3-9.7l-0.3-2.1c-3-21.2-11.9-85.6,56.8-112.5c13.4-5.3,27.2-7.9,40.8-7.9c18.6,0,36.3,4.8,52.5,14.4
				c23.5,13.8,40.6,36.1,43.4,56.7c3.2,23.6,2.1,34.9,1.3,44c-0.4,3.8-0.7,7.3-0.6,11.1l0.1,2.3l1.4-1.8c1.9-2.4,3.9-3.6,6.3-3.6
				c4.1,0,7,4,7.4,7.9c0.3,3.3-0.7,6.5-1.7,9.6l-0.4,1.1c-3.6,11.5-4.6,23.8-3,35.7c0.1,0.9,0.3,1.8,0.4,2.7l0,0.2
				c0.4,2.8,0.9,5.6,0.9,8.5c0,5.2-2.1,13.9-8.1,15.4c-0.7,0.2-1.3,0.2-2,0.2c-1.5,0-2.9-0.4-4.2-1.3c-3.5-2.3-5.4-7.3-6.4-11.1
				l-0.5-1.7l-1,1.5c-6.6,9.9-15.9,17.7-27.5,23.4l-0.9,0.4l0.5,0.8c1.8,2.6,3,6.1,4,8.6c0.1,0.3,0,0.6-0.1,0.8l-3.5,4.1l4.2,3.5
				l5.7-3.8c0.1-0.1,0.3-0.1,0.5-0.1c0.3,0,0.5,0.1,0.7,0.3c7.1,9.8,15.3,18.8,24.3,26.8l0.1,0.1c1.5,1.3,3.2,2.8,4.1,4.8
				c0.8,1.6,1,4.1-0.2,5.9l-0.3,0.4l0.3,0.4c1.8,3,4.2,5.5,6.8,8.2c0.6,0.6,1.1,1.2,1.7,1.8c3.2,3.4,6.6,7.5,7.5,12.6
				c0.8,4.2-0.7,9.8-4.9,12.3l-0.6,0.4l0.3,0.7c2.4,6,0.1,13.2-2.8,20l-6,14.2l0.1,0.3c0.7,3,1.9,6,3.2,9.2c1.3,3.1,2.7,6.4,3.4,9.8
				c1.8,8.7,2.9,16.5,3.4,23.7c0.2,3.6,0.3,7.8-1.3,11.4c-3.7,8.1-13.8,9.9-18,10.3c-1,0.1-1.9,0.1-2.9,0.2
				c-2.9,0.2-5.6,0.3-8.1,1.2c-1.7,0.6-3.3,1.5-5,2.4l-1.2,0.7c-5.7,3.1-11.8,5.3-18.1,6.7c-6,1.3-13.5,2.9-20.5,2.9
				c-1.7,0-3.4-0.1-4.8-0.3c-3.3-0.5-6.6-0.7-9.9-0.7c-3.2,0-6.4,0.2-9.6,0.6l-1,0.1c-1.5,0.2-3.1,0.4-4.7,0.4c-0.5,0-0.9,0-1.4-0.1
				c-2.6-0.2-4.8-1.3-6.2-3l-0.3-0.4l-0.5,0.1c-1,0.1-1.9,0.2-2.7,0.3l-0.5,0c-1.1,0.1-2.3,0.1-3.3,0.6c-0.6,0.3-1.2,0.8-1.8,1.4
				c-0.6,0.5-1.2,1.1-1.9,1.5C499.5,424.8,498.5,425,497.5,425z"/>
			<path class="st6" d="M620.5,284.7c-0.6-0.6-1.1-1.2-1.7-1.8c-2.6-2.7-5-5.2-6.8-8.2l-0.3-0.4l0.3-0.4c1.2-1.8,0.9-4.3,0.2-5.9
				c-0.9-2-2.6-3.5-4.1-4.8l-0.1-0.1c-9-8-17.2-17-24.3-26.8c-0.2-0.2-0.4-0.3-0.7-0.3c-0.2,0-0.3,0-0.5,0.1l-5.7,3.8l-4.2-3.5
				l3.5-4.1c0.2-0.2,0.2-0.5,0.1-0.8c-0.9-2.5-2.2-6-4-8.6l-0.5-0.8l0.9-0.4c11.7-5.7,20.9-13.6,27.5-23.4l1-1.5l0.5,1.7
				c1,3.8,3,8.8,6.4,11.1c1.3,0.9,2.7,1.3,4.2,1.3c0.6,0,1.3-0.1,2-0.2c5.9-1.4,8.1-10.2,8.1-15.4c0-2.9-0.5-5.7-0.9-8.5l0-0.2
				c-0.1-0.9-0.3-1.8-0.4-2.7c-1.6-11.9-0.6-24.2,3-35.7l0.4-1.1c1-3.1,2-6.3,1.7-9.6c-0.4-3.6-3.3-8.3-7.4-7.9
				c-3.6,0.3-5.5,4.9-8.2,6.6c-2.5-3.7,0.9-13.5,1.2-17.9c0.6-7.2,0.6-14.5,0.1-21.7c-0.4-6.2-0.8-13.3-2.7-19.3
				c-1.3-4.2-4.7-8.5-5.5-12.7c3,15.6,3.6,31.6,1.8,47.4c-0.4,3.5-0.9,7.1-2.5,10.3c-1.6,3.2-4.5,5.9-8,6.4c2.3,1.2,4.3,3.1,5.6,5.3
				c-1.6,0.6-3.2,1.1-4.8,1.7c4.6-1.6,6.7,22.7,6.5,25c-0.9,11-5.4,21.7-12.7,29.9c-7.8,8.8-18.7,14.6-30.3,16.5
				c-5.7,0.9-11.2-0.1-17,1.2c-13.9,3.2-22.5,16.1-38,11.5c-6.5-1.9-11.9-6.3-17.7-9.9c-8.1-5-14.7-4.2-23.5-5.6
				c-8.4-1.3-16.3-5.2-22.3-11.2c-9.3-9.4-13.3-22.7-15.5-35.6c-2.3-13-3.2-26.3-7.9-38.6c2.5,7.5,2.6,15.8,0.3,23.4
				c-2.6-3.4-4.4-6.5-9.2-6.5c-2,0-3.8,0.7-5,2.1c-1.6,1.8-2.1,4.7-1.3,7.6c0.5,1.9,1.5,3.6,2.4,5.2c0.3,0.5,0.5,0.9,0.8,1.4
				c3.6,6.9,5.2,14.9,4.4,22.6c-0.3,2.7-0.9,5.5-1.5,8.2c-0.4,1.9-0.8,3.9-1.1,5.9c-0.9,5.9-0.6,10.7,1.1,14.6
				c2.2,5.1,6.8,8.4,11.8,8.4c1.7,0,3.5-1.1,5-3.1c1.5-1.9,2.7-4.5,3.3-7.2l0.4-1.8l1.1,1.5c10.5,15.3,31.7,19.4,32.8,40.3
				c0.5,9.9-2.8,19.6-6.1,29c18.5-1.9,37.2-3.8,55.8-3.1c18.6,0.7,37.4,4.1,54.1,12.4c0.2,0.1-4.8,7.5-5.4,8.1
				c-2.2,2.2-5.1,3.7-8.3,3.8c-4.3,0-8.2-2.6-11.3-5.6c-3.1-3-5.6-6.6-9.1-9.2c-2.4-1.8-5.3-3.2-8.3-3.3c-2.4-0.1-5.1-0.4-7.5-0.2
				c-1.4,0.1-2.9,1-3,2.4c0.8-1,2.7-0.8,3.4,0.3c0.8,1.1,0.6,2.6,0,3.8c-0.6,1.2-1.6,2.1-2.6,3c0.9-0.6,2.3-0.6,3.2,0
				c3.1,2.1,0.3,5.5-1.5,7.1c0.8,0,1.5,0,2.3,0c1.5,4.3-1.7,9.9-2.9,14c1.4-1.8,3.4-3.4,5.6-3.2c2.2,0.2,3.8,3.5,2,4.8
				c4.2,0.9,7.2,4.5,9.3,8.2c2.1,3.7,3.8,7.8,6.9,10.7c2.1,2,4.8,3.3,7.2,5c2.4,1.7,4.5,4.1,4.9,7c-3.7,1.3-7.5,2.6-11.5,2.5
				s-8.1-1.6-10.2-4.9c-1.6-2.6-1.8-5.8-2.2-8.9c-0.6-4.7-2.1-8.7-3.8-13.1c-0.2-0.4-0.5-0.9-0.9-0.9c-0.3,0.1-0.4,0.3-0.6,0.5
				c-2.5,3.9-4.9,7.8-8,11.3c-2,2.3-6.2,8.2-9.6,8.2c-4.7,2.2-10.1,2.3-15.3,2.9c-11.2,1.3-22.3,5.3-33.4,3.3
				c-5.2-0.9-10.1-3.2-14.2-6.4c-1.5-1.2-2.9-2.5-3.4-4.3c-0.6-1.8-0.1-3.8,0.4-5.7c2.2-8,5.7-15.8,11.5-21.7s14.4-9.4,22.6-7.9
				c-4.2-6.6-12.6-7.6-19.7-6.4c-23.3,4-52.5,36.2-32.2,58.9c10.4,11.7,28,10.6,42.2,11.2c7.5,0.3,15.1,0.5,22.1,3.5
				c5.9,2.5,7.8,9,15.1,10.2c3.5,0.6,6.5-1.5,9.4,1.7c1.6,1.7,2.4,4,3,6.3c3.8,13.4,3.4,28-1,41.2c-0.9,2.7,7.6,5.5,9.3,5.8
				c4.5,0.7,8.8-1.4,13.2-1.4c3.3,0,6.6,0.2,9.9,0.7c1.5,0.2,3.1,0.3,4.8,0.3c7,0,14.5-1.6,20.5-2.9c6.3-1.4,12.4-3.6,18.1-6.7
				l1.2-0.7c1.7-0.9,3.3-1.8,5-2.4c2.6-0.9,5.3-1,8.1-1.2c1-0.1,1.9-0.1,2.9-0.2c4.2-0.4,14.3-2.1,18-10.3c1.6-3.6,1.5-7.8,1.3-11.4
				c-0.5-7.2-1.6-15-3.4-23.7c-0.7-3.4-2.1-6.7-3.4-9.8c-1.4-3.2-2.5-6.2-3.2-9.2l-0.1-0.3l6-14.2c2.9-6.9,5.2-14,2.8-20l-0.3-0.7
				l0.6-0.4c4.2-2.5,5.7-8.1,4.9-12.3C627.1,292.2,623.7,288.1,620.5,284.7z"/>
			<path class="st7" d="M628,297.3c-0.9-5.1-4.3-9.2-7.5-12.6c-0.6-0.6-1.1-1.2-1.7-1.8c-2.6-2.7-5-5.2-6.8-8.2l-0.3-0.4l0.3-0.4
				c1.2-1.8,0.9-4.3,0.2-5.9c-0.9-2-2.6-3.5-4.1-4.8l-0.1-0.1c-9-8-17.2-17-24.3-26.8c-0.2-0.2-0.4-0.3-0.7-0.3
				c-0.2,0-0.3,0-0.5,0.1l-5.7,3.8l-4.2-3.5l3.5-4.1c0.2-0.2,0.2-0.5,0.1-0.8c-1.3-3.6-3.1-6.3-5.2-9.5c-6.8,3.2-13.9,6-21.1,8.2
				c-0.9,5.7-4.5,10.6-9,14.2c-4.5,3.6-9.7,6.1-15,8.5c-5.2,2.4-10.5,4.9-15,8.5c-0.7,0.6-9.1-4.9-10.1-5.5c-3.5-2.1-7-4.4-10.3-6.8
				c-3.4-2.5-5.6-5.6-7.8-9.1c-1.2-1.8-2.8-3.3-4-5.1c-0.4-0.6-2.4-5.3-2.9-5.4c-6.4-1.1-12.5-3.3-18.1-6.6c-1.4-0.8-3-1.8-4.6-1.5
				c-4,0.6-3.1,9.2-2.4,11.6c0,0,0.4,1.2,0.4,1.2l-7.6-1.2c-0.3,0-0.5,0.1-0.7,0.4c-0.2,0.3-0.2,0.6,0,0.9c1.3,2.2,0.2,5.2-1.5,7.1
				c-1.5,1.6-3.5,2.7-5.6,3.8c-0.5,0.3-1.1,0.6-1.6,0.9c-14.2,8-23,23.4-30.1,35.7c-0.2,0.3-0.1,0.7,0.1,0.9l2.4,3.1l-0.1,0.4
				c-3.8,13.6-5.1,28.3-3.6,42.2c0.4,3.3,0.9,6.8,2.3,10.1c2.2,5.2,6.2,9,10.7,13.2l0.6,0.5l-0.5,0.6c-5.3,7-8.1,15.4-7.6,22.9
				c0.4,5.3,2.2,10.2,4,15c1.4,3.6,2.8,7.4,5,10.6c3,4.4,7.4,7.9,12.7,10.2c4,1.7,8.4,2.6,12.7,3.5c5.3,1.1,10.3,2.1,14.8,4.6
				c0.5,0.3,1.1,0.7,1.7,1.1c1.3,0.9,2.9,2,4.5,2c0.4,0,0.7,0,1.1-0.1c1.2-0.3,3.6-1.8,5-3.5l0.3-0.4l0.5,0.1
				c6.1,1.1,14.3,2.8,20.4,0.7c-3.6-1.8-5-6.8-2.9-10.2c-2.2-0.2-4.3-1.5-5.4-3.5c-1.1-1.9-1.2-4.4-0.3-6.4
				c-3.1-0.8-5.3-4.1-4.9-7.3c0.4-3.2,3.5-5.8,6.7-5.7c-3.2-1.2-5.9-3.7-7.1-6.9c-1.3-3.1-1.2-6.8,0.3-9.9c1.2-2.4,3.3-4.5,5.8-5.2
				c3.8-1,5.6,0.9,8.9,2.2c3.5,1.4,7.3,2,11,1.7c1.8-0.2,3.6-0.5,5.3,0.1c1.4,0.5,2.5,1.6,3.4,2.8c3.5,4.3,5.4,10.2,6.7,15.5
				c1.7,6.9,2.9,13.9,3.5,21c0.2,2.1,0.3,4.3-0.7,6.1c-0.9,1.8-2.8,3.1-4.7,3.7c-2,0.6-4,0.8-6.1,0.9c1.1,2.8,3.7,4.8,6.7,5.1
				c0.5,0,0.9,0.1,1.4,0.1c1.6,0,3.2-0.2,4.7-0.4l1-0.1c3.2-0.4,6.4-0.6,9.6-0.6c3.3,0,6.6,0.2,9.9,0.7c1.5,0.2,3.1,0.3,4.8,0.3
				c7,0,14.5-1.6,20.5-2.9c6.3-1.4,12.4-3.6,18.1-6.7l1.2-0.7c1.7-0.9,3.3-1.8,5-2.4c2.6-0.9,5.3-1,8.1-1.2c1-0.1,1.9-0.1,2.9-0.2
				c4.2-0.4,14.3-2.1,18-10.3c1.6-3.6,1.5-7.8,1.3-11.4c-0.5-7.2-1.6-15-3.4-23.7c-0.7-3.4-2.1-6.7-3.4-9.8
				c-1.4-3.2-2.5-6.2-3.2-9.2l-0.1-0.3l6-14.2c2.9-6.9,5.2-14,2.8-20l-0.3-0.7l0.6-0.4C627.4,307.1,628.8,301.5,628,297.3z
				 M470.1,343.9c-7.2,2.3-14.9,2.6-22.3,1.4c-6.3-1-11.1-4.5-17.3-6.2c-3.5-1-7.3-2.9-8.3-6.4c-0.6-2.1-0.1-4.3,0.5-6.4
				c2.6-9.5,6.6-18.7,13.3-25.9c6.7-7.2,16.3-12,26.1-11.2c6.6,0.5,12.8,3.6,19.4,4.3c9.5,1.1,19.4-2.8,25.6-10
				c2.1-2.4,3.8-5.2,6.4-7c2.6-1.8,6.6-2.2,8.7,0.2c2.1-2.3,5.8-0.7,8.4,1c6.9,4.9,13.3,10.5,19,16.7c5.8-2,11.7-4,17.5-6
				c5.3-1.8,10.3-3.3,15.8-1.2c5.7,2.2,9.7,7.6,11.6,13.4s2.2,12,2.5,18.1c0.2,4.7,0.6,9.4,1.8,13.9c0.4,1.4,0.8,2.8,1.4,4.1
				c-10.6,5.1-23,6.6-34.6,4.2c-5.6-1.2-11.1-3.3-16.8-3c-3.2,0.1-6.2,1-9.4,1.3c-3.1,0.3-6.6,0-9.1-1.9c-3.4-2.6-3.7-6.7-4.1-10.6
				c-0.6-5.1-2.2-10.3-4-15.1c-0.8,7.3-2.1,15.6-6.5,21.7c-2.7,3.8-6.8,6.7-11.4,7.3c-3.6,0.5-7.2-0.5-10.8-1.1
				C485.1,337.9,478,341.5,470.1,343.9z"/>
			<g>
				<path class="st6" d="M488.2,409.5c-2.2-0.2-4.3-1.5-5.4-3.5c-1.1-1.9-1.2-4.4-0.3-6.4c-3.1-0.8-5.3-4.1-4.9-7.3
					c0.4-3.2,3.5-5.8,6.7-5.7c-3.2-1.2-5.9-3.7-7.1-6.9c-0.2-0.5-0.4-1.1-0.5-1.7c-0.8,1.9-1.3,4-1.7,6c-1,5.7-0.6,11.6-0.1,17.4
					c0.2,2.3-21-6.8-22.5-7.7c-8.4-4.9-16.3-10.3-23.8-16.4c3.1,2.6,4.4,6.6,6.2,10.1c2.7,5.2,6.5,10,9.7,14.9
					c-8.1-3.2-15.1-9-19.7-16.3c0.6,7.1,2.9,14.1,6.7,20.2c-4.7-2.2-9.4-4.4-14.1-6.5c0.2,1,0.6,2,0.9,3c2.9,3.9,7,7,12,9.1
					c4,1.7,8.4,2.6,12.7,3.5c5.3,1.1,10.3,2.1,14.8,4.6c0.5,0.3,1.1,0.7,1.7,1.1c1.3,0.9,2.9,2,4.5,2c0.4,0,0.7,0,1.1-0.1
					c1.2-0.3,3.6-1.8,5-3.5l0.3-0.4l0.5,0.1c6.1,1.1,14.3,2.8,20.4,0.7C487.5,418,486.1,412.9,488.2,409.5z"/>
				<path class="st6" d="M622.7,399.3c1.6-3.6,1.5-7.8,1.3-11.4c-0.5-7.2-1.6-15-3.4-23.7c-0.7-3.4-2.1-6.7-3.4-9.8
					c-1.4-3.2-2.5-6.2-3.2-9.2l-0.1-0.3l6-14.2c2.9-6.9,5.2-14,2.8-20l-0.3-0.7l0.6-0.4c4.2-2.5,5.7-8.1,4.9-12.3
					c-0.9-5.1-4.3-9.2-7.5-12.6c-0.6-0.6-1.1-1.2-1.7-1.8c-2.6-2.7-5-5.2-6.8-8.2l-0.3-0.4l0.3-0.4c1.2-1.8,0.9-4.3,0.2-5.9
					c-0.9-2-2.6-3.5-4.1-4.8l-0.1-0.1c-9-8-17.2-17-24.3-26.8c-0.2-0.2-0.4-0.3-0.7-0.3c-0.2,0-0.3,0-0.5,0.1l-5.7,3.8l-4.2-3.5
					l3.5-4.1c0.2-0.2,0.2-0.5,0.1-0.8c-1.3-3.6-3.1-6.3-5.2-9.5c-6.8,3.2-13.9,6-21.1,8.2c-0.9,5.7-4.5,10.6-9,14.2
					c-4.5,3.6-9.7,6.1-15,8.5c-5.2,2.4-10.5,4.9-15,8.5c-0.7,0.6-9.1-4.9-10.1-5.5c-3.5-2.1-7-4.4-10.3-6.8
					c-3.4-2.5-5.6-5.6-7.8-9.1c-1.2-1.8-2.8-3.3-4-5.1c-0.4-0.6-2.4-5.3-2.9-5.4c-6.4-1.1-12.5-3.3-18.1-6.6
					c-0.9-0.5-1.9-1.1-2.9-1.4c1.8,1.8,3.8,3.5,5.5,5c11.6,9.9,21,21.8,26.5,36.2c-12.1-4.8-22.8-13.4-30-24.3
					c1.8,10.4,5.9,20.4,11.8,29.2c-5.5-1.5-10.9-3-16.4-4.4c3.5,2.9,4.5,8.4,2.3,12.4c1.1-1.9-16.8-8.6-18.7-8.8
					c-6.5-0.8-13.5,3.4-13.5,10.7c6.4-2.9,14.4-1.9,19.9,2.5c-2.7,0.5-5.4,1.1-8.1,1.6c5-0.7,10.2,0.3,14.5,2.8
					c-12.6,8.1-21.9,21.1-25.4,35.7c-3.5,14.5-1.2,30.4,6.3,43.3c3.3-6,9.7-9.8,16.4-11.5c6.6-1.7,13.6-1.6,20.5-1.5
					c12.7,0.2,25.4,0.5,38.2,0.7c-2.8,4.9-4.6,10.4-5.3,16c-2.8-1.7-6.2-2.1-9.5-1.4c0.7,0.4,1.4,0.7,2.3,1.1c3.5,1.4,7.3,2,11,1.7
					c1.8-0.2,3.6-0.5,5.3,0.1c1,0.4,1.9,1.1,2.7,1.9c-1.6-2.2-3.4-4.4-5.3-6.4c11.2-1.1,16.7,7.9,21.8,16.2
					c5.7,9.3,10.3,19.2,13.7,29.5c-1.7-1.3-3-3.2-3.3-5.3c-0.9,3.1-1.9,6.4-4.3,8.6c-2.4,2.2-6.6,2.8-8.7,0.3
					c-1.4-1.7-1.4-4.1-1.5-6.3c-0.2-10.5-3.1-20.9-8.2-30.1c1.5,3.2,2.5,6.6,3.3,9.9c1.7,6.9,2.9,13.9,3.5,21
					c0.2,2.1,0.3,4.3-0.7,6.1c-0.9,1.8-2.8,3.1-4.7,3.7c-2,0.6-4,0.8-6.1,0.9c1.1,2.8,3.7,4.8,6.7,5.1c0.5,0,0.9,0.1,1.4,0.1
					c1.6,0,3.2-0.2,4.7-0.4l1-0.1c3.2-0.4,6.4-0.6,9.6-0.6c2.5,0,5.1,0.2,7.6,0.4c10.8-1,21.6-2.2,32.3-3.6
					c4.6-1.4,9.1-3.2,13.4-5.5l1.2-0.7c1.7-0.9,3.3-1.8,5-2.4c2.6-0.9,5.3-1,8.1-1.2c1-0.1,1.9-0.1,2.9-0.2
					C608.9,409.2,619,407.4,622.7,399.3z M515.8,333.1c-2.7,3.8-6.8,6.7-11.4,7.3c-3.6,0.5-7.2-0.5-10.8-1.1
					c-8.5-1.5-15.6,2.1-23.5,4.6c-7.2,2.3-14.9,2.6-22.3,1.4c-6.3-1-11.1-4.5-17.3-6.2c-3.5-1-7.3-2.9-8.3-6.4
					c-0.6-2.1-0.1-4.3,0.5-6.4c2.6-9.5,6.6-18.7,13.3-25.9c6.7-7.2,16.3-12,26.1-11.2c6.6,0.5,12.8,3.6,19.4,4.3
					c9.5,1.1,19.4-2.8,25.6-10c2.1-2.4,3.8-5.2,6.4-7c2.6-1.8,6.6-2.2,8.7,0.2c2.1-2.3,5.8-0.7,8.4,1c6.9,4.9,13.3,10.5,19,16.7
					c5.8-2,11.7-4,17.5-6c5.3-1.8,10.3-3.3,15.8-1.2c5.7,2.2,9.7,7.6,11.6,13.4c1.9,5.8,2.2,12,2.5,18.1c0.2,4.7,0.6,9.4,1.8,13.9
					c0.4,1.4,0.8,2.8,1.4,4.1c-10.6,5.1-23,6.6-34.6,4.2c-5.6-1.2-11.1-3.3-16.8-3c-3.2,0.1-6.2,1-9.4,1.3c-3.1,0.3-6.6,0-9.1-1.9
					c-3.4-2.6-3.7-6.7-4.1-10.6c-0.6-5.1-2.2-10.3-4-15.1C521.5,318.7,520.1,327.1,515.8,333.1z M602.5,389.5
					c0.7-6.9,1.5-13.8,2.2-20.7c-3.8,7.6-7.7,15.3-13.1,21.9c-7.8,9.5-18.8,13.7-29.8,18.4c-4.3,1.8-8.8,3.7-13.4,3.5
					c-2.4-0.1-4.9-1-6.8-2.5c-1.2-18.9-7-37.5-16.8-53.7c-2.2-3.7,18.1-13.6,20.4-13.9c5.3-0.7,10.5,1.6,15.6,3.2
					c9,2.9,18.6,3.8,28,2.6c1-0.1,5,3.2,6.2,3.8c2.7,1.4,5.6,2,8.4,3.2c4.2,1.7,5.4,3.9,6.6,8.5
					C612.2,372.8,609.5,383.2,602.5,389.5z"/>
			</g>
			<g>
				<path class="st8" d="M468.5,272.6c-3.8-2.3-8-3.8-12.4-4.4c2.6,2.2,5.2,4.4,7.2,7.1c1.1,1.5,2.1,3.3,2.7,5.1
					c0.4,1.4,0.7,2.8,0.6,4.3c0-0.2,3.9,2.1,4.3,2.4c1.4,1.3,2.5,2.9,3.1,4.7c2.5,0.7,5.1,1.4,7.6,1.7c11.1,1.3,22.9-4.9,29.8-13.3
					c-3.4,2.3-7.9,2.4-11.9,1.2c-3.9-1.2-7.4-3.5-10.8-5.7c4.9-4.1,9.9-8.2,14.8-12.3c-3.4,1.6-6.8,3.2-10.5,3.9
					c-3.7,0.8-7.6,0.6-10.9-1.2c2.3,0.3,3.5,3.5,2.3,5.5c-1.2,2-4,2.7-6.2,2.1c-3.6-0.9-9.9-6.5-11.8-9.6c0.8,1.3,1.5,2.5,2.4,3.7
					c-0.4-0.1-0.7-0.2-1.1-0.3C468.2,269.1,468.5,270.8,468.5,272.6z"/>
				<path class="st8" d="M552.6,259.6c5.7-4.3,11.8-8.2,17.9-11.9c2.2-1.4,4.5-2.8,5.5-5.2c1-2.4-0.3-5.8-2.8-6
					c-3.8,3.6-7.7,7.4-12.4,9.8c-5,2.6-10,5.4-14.8,8.3c-9.9,6-19.4,12.5-28.5,19.7c1.4,1.1,2.8,2.3,4.2,3.4
					c2.9-2.4,5.9-2.2,8.9-0.1c6.9,4.9,13.3,10.5,19,16.7c2.9-1,13-2.3,14.8-4.7c6.9-9.5,19.2-13,30.5-16c-7.4-0.9-15-0.2-22.2,2.1
					c2.7-3.5,6.1-6.4,9.9-8.6c-13.1,2.2-25.3,9.5-33.3,20.1c-1.4-1.2-14.5-10.1-14.9-9.4C539.4,270.7,545.7,264.8,552.6,259.6z"/>
				<path class="st8" d="M545.5,337.5c0.2-0.3,0.5-0.5,0.7-0.8c-4.2,1.5-12,3.5-15.9,0.5c-3.4-2.6-3.7-6.7-4.1-10.6
					c-0.6-5.1-2.2-10.3-4-15.1c-0.8,7.3-2.1,15.6-6.5,21.7c-2.7,3.8-6.8,6.7-11.4,7.3c-3.6,0.5-7.2-0.5-10.8-1.1
					c-2.3-0.4-4.7-0.3-7-0.2c-1.2,0.1-7.1,2.2-7.6,1.9c10.8,5.6,22.7,9.5,34.8,9.4C525.5,350.4,537.6,346.1,545.5,337.5z"/>
			</g>
			<path class="st9" d="M532.1,172c-10.7-4-23-3.8-33.6,0.5c-0.5,0.2-0.9,0.4-1.2,0.8c-0.5,0.8-0.1,1.8,0.4,2.5
				c3,4.6,8,7.8,13.4,8.7c4.5,0.7,9-0.3,12.9-2.5C528.1,179.9,529.7,175.9,532.1,172z"/>
			<path class="st10" d="M485.9,35.4c8,3,15.6,8.1,24.1,7.9c6.9-0.2,13.1-3.8,19.5-6.3c25.8-10.1,57.8-0.4,73.8,22.2
				c0.7,1,1.4,2,2.3,2.9c-7.1-15.6-21.1-30.7-38.7-41c-16.3-9.6-34-14.4-52.5-14.4c-13.6,0-27.4,2.7-40.8,7.9
				c-28.8,11.3-43.9,29.1-51.6,47.5c0.8-0.5,1.5-1.1,2.3-1.9c3.9-3.8,6.1-9.3,10-13.3c4.7-4.8,10.4-8.6,16.6-11.1
				C462,31.4,474.7,31.3,485.9,35.4z"/>
			<path class="st0" d="M528.4,171.3c-1,0.3-5.2-2-6.5-2.3c-2.5-0.5-5-0.6-7.5-0.4c-3.9,0.4-9.2,1.4-12.4,3.7
				C510.3,174.7,520.3,173.6,528.4,171.3z"/>
			<g>
				<path class="st0" d="M413.8,361.9c-0.1-0.4-0.6-0.5-0.8-0.1c-4.5,7.4-2.3,16.3,0.6,23.9c2.9,7.8,6.6,18.1,14.4,21.9
					c0.9,0.4,1.9-0.1,2-1.1c0.5-7.4-4.1-13.5-7.3-19.8C418.6,378.5,416.5,370.5,413.8,361.9z"/>
				<path class="st0" d="M467,241.6c-2.8-3.8-5.1-7.8-6.6-12.2c-0.7-1.9-1.2-3.8-2.3-5.4c-1.1-1.6-3.1-2.9-5-2.5
					c-2.4,5-2.9,9.2-0.1,14c2.2,3.9,5.3,7.2,8.4,10.4c7,6.9,15.3,11.5,24.1,15.7c0.4,0.2,0.8-0.3,0.5-0.6
					C479.4,255.3,472.3,248.9,467,241.6z"/>
				<path class="st0" d="M515.6,148.4c-0.6-1.2-1.5-2.2-2.7-3c-1.3-0.8-3-1.3-4.2-0.5c-1.3,0.8-1.7,2.5-1.3,4
					c0.6,2.3,2.6,4.4,4.6,5.7c1.1,0.7,3.3,0.8,4.1-0.4c0.4-0.6,0.5-1.3,0.5-1.9C516.6,151,516.2,149.6,515.6,148.4z M514.1,147.2
					C514.1,147.2,514.1,147.2,514.1,147.2C514.2,147.3,514.3,147.6,514.1,147.2z"/>
				<path class="st0" d="M450.6,241.9c-1.5-2.5-3-5.5-4.9-8.3l-2.1-0.3c-0.3,0-0.5,0.1-0.7,0.4c-0.2,0.3-0.2,0.6,0,0.9
					c1.3,2.2,0.2,5.2-1.5,7.1c-1.5,1.6-3.5,2.7-5.6,3.8c-0.5,0.3-1.1,0.6-1.6,0.9c-14.2,8-23,23.4-30.1,35.7
					c-0.2,0.3-0.1,0.7,0.1,0.9l2.4,3.1l-0.1,0.4c10.4-14.7,21.5-27.5,38-36.4c1.2-0.7,2-1.5,2.5-2.5c0.1,0.1,0.2,0.2,0.3,0.4
					c4.6,5.7,9.3,12.1,15.9,15.6c0.3,0.2,0.6-0.2,0.4-0.5C457.6,257.2,454.6,248.8,450.6,241.9z"/>
				<path class="st0" d="M410.9,174.7c-0.1,6-1.9,11.6-2.6,17.5c-0.7,5.6-0.1,10.9,2.6,15.4c2.4,2.7,5.7,4.3,9,4.3
					c2.2,0,4.2-2.7,5-4.5c0.2-0.4,0.3-0.9,0.2-1.3c-0.2-0.5-0.7-0.8-1.2-1.1c-10.3-5.7-6.5-17.7-7.4-27.2c-0.8-8.1-2.9-15.6-7-22.6
					c-0.1-0.2-0.3,0-0.3,0.1C410.2,161.8,411,168.2,410.9,174.7z"/>
				<path class="st0" d="M445.4,408.6c1.7,0.6,3-1.2,2.8-2.8c-1.3-6.8-8.2-12.7-12.7-17.7c-5.2-5.8-11-10.9-16.1-16.9
					c-0.2-0.2-0.7-0.1-0.7,0.3c0.9,7.1,5.1,14.1,9.3,19.8C432.3,397.3,438.3,406.1,445.4,408.6z"/>
				<path class="st0" d="M426.2,361.6c0.7,0.8,1.3,1.5,1.3,2c-0.6-7.6-1.7-15.2-3.4-22.6c-1.5-6.7-1-14.2,0.4-20.9
					c0.5-2.3,1-4.7,0.5-7c-0.5-2.1-1.8-4-2.9-5.8c-4.6-7.8-5.3-17.9-1.8-26.3c-17.2,3.2-17.8,22.9-17.9,36.7
					c-0.1,8.1,1.1,16.5,5,23.7c2.4,4.5,6.1,8.2,9.9,11.6c1.7,1.6,3.4,3.1,4.9,4.9C422.8,358.5,424.8,360.2,426.2,361.6z"/>
				<path class="st0" d="M417.5,126.5c1.7,11.6-0.8,23,0.8,34.7c2.5,19.2,8.2,37.4,25.7,47.7c0.2,0.1,0.5-0.2,0.3-0.4
					c-6.7-7.6-11.7-17.5-14-27.4c-2-8.5-1.6-17.2-0.5-25.8c0.5-3.6,0.7-7.5,1.6-11c0.2-0.9,4-10.2,4.8-9.6c-1.6-1.1-3.1-2.2-4.7-3.2
					c0.5-2.1,4.2-1.3,5.2-3.2c0.5-1,0.1-2.2-0.4-3.2c-3.1-7-5.1-14.6-5.9-22.2c-0.8-7.2,0.1-14,1-21.2c1.4-12.7,5-24.1,10.8-35.5
					c5.8-11.5,15.4-20,25.6-27.5c0.2-0.1,0.1-0.5-0.2-0.4c-3.5,0.9-6.8,2.2-10.1,3.8c-11.9,7-20.7,15.3-27,24.3
					c-2.6,3.9-4.9,7.9-6.7,11.9c-5.2,11.7-7.9,23.6-8.1,36.4c0,2.6-0.2,5.9-0.1,9.3C414.3,111.3,416.5,119.7,417.5,126.5z"/>
			</g>
		</g>
		<g>
			<path class="st9" d="M510.3,236.9c-10.8-4.1-20.6-9.4-26.4-13.6C489.4,231.2,498,235.7,510.3,236.9z"/>
			<path class="st9" d="M422.1,277.5c2.9,0.8,6.5-0.1,9.5,0c3.8,0.1,7.2,0.8,10.5,2.3c-2.8,0.2-5.6,0.7-8.4,1.3
				c-0.2,0.1-0.2,0.5,0.1,0.5c3.8-0.5,7.6-0.6,11.5-0.3c0.9,0.1,1-1.1,0.4-1.6c-5.2-3.9-11.5-4.5-17.9-4.5c-1,0-1.9,0-2.9,0.1
				c0-2.3,1.1-3.5,3.3-3.4c2.3-0.6,4.2-0.6,6.6-0.4c4.2,0.3,8.6,1.1,12.7,2.2c0.1,0,0.1-0.1,0.1-0.2c-5.2-3.1-13.1-5.5-19.2-4.4
				c-3.4,0.6-7.8,3.6-7,7.6C421.4,277.1,421.8,277.4,422.1,277.5z"/>
			<path class="st9" d="M583.2,266.5c-0.2-0.2-0.4-0.3-0.7-0.3c-9.1-0.3-17.7,6.9-21.2,14.9c0,0.1,0.1,0.2,0.1,0.1
				c4.1-5.6,9.9-11.1,16.8-12.6c-0.6,0.5-1.2,1-1.7,1.4c-2.2,1.8-4,3.9-5.5,6.2c-0.3,0.5,0.3,1.1,0.8,0.8c1.9-1.1,3.8-2.2,5.7-3.3
				c0.1-0.1,0-0.4-0.1-0.3c-1.2,0.5-2.5,1-3.7,1.5c1.2-1.3,2.5-2.5,4-3.6c1.8-1.3,4.5-2.1,5.9-3.7
				C583.8,267.3,583.7,266.7,583.2,266.5z"/>
			<path class="st9" d="M628.9,297.2c-1-5.3-4.5-9.6-7.7-13c-0.6-0.6-1.1-1.2-1.7-1.8c-2.5-2.6-4.9-5.1-6.6-8
				c1.3-2.1,1.1-4.8,0.2-6.7c-1-2.1-2.8-3.7-4.3-5l-0.1-0.1c-9-7.9-17.1-16.9-24.2-26.6c-0.5-0.7-1.5-0.9-2.2-0.4L577,239l-3.1-2.6
				l2.9-3.5c0.4-0.5,0.5-1.1,0.3-1.6c-1-2.7-2.2-6.1-4.1-8.8c12.8-6.2,21.7-14.6,27.9-23.7c1,3.9,3.1,9.1,6.8,11.6
				c1.4,1,3,1.5,4.7,1.5c0.7,0,1.4-0.1,2.2-0.3c6.4-1.5,8.7-10.7,8.7-16.2c0-2.9-0.5-5.8-0.9-8.6c-0.1-1-0.3-1.9-0.4-2.9
				c-1.6-11.8-0.5-24,3-35.3l0.4-1.1c1-3.2,2.1-6.5,1.7-10c-0.4-4.2-3.6-8.6-8.2-8.6c0,0,0,0,0,0c-3,0-5.2,1.7-6.9,3.9
				c-0.1-3.7,0.2-7.1,0.6-11c0.9-9.2,2-20.5-1.3-44.2c-2.8-20.8-20-43.3-43.8-57.3c-28.6-16.8-62-19.1-94-6.5
				C403.9,41,413,105.9,416,127.2l0.3,2.1c0.4,3.1,0.5,6.3,0.3,9.6c-0.7-0.8-1.6-1.5-2.8-2.3c-3.2-2.1-8.2-2.3-11,0.8
				c-1.8,2-2.3,5.2-1.4,8.3c0.6,2,1.5,3.7,2.5,5.4c0.3,0.5,0.5,0.9,0.8,1.4c3.6,6.7,5.1,14.6,4.3,22.1c-0.3,2.7-0.9,5.4-1.4,8.1
				c-0.4,1.9-0.8,4-1.2,6c-1,6.1-0.6,11,1.2,15.1c2.3,5.4,7.3,8.9,12.4,8.9c0.1,0,0.1,0,0.2,0c2,0,4-1.2,5.7-3.4
				c1.6-2.1,2.8-4.8,3.4-7.5c5.8,8.5,14,14.8,22.2,19.3c-1.7,3.5-2.3,8.4-1.2,12.2l-6.2-1c-0.6-0.1-1.3,0.2-1.6,0.7
				c-0.4,0.5-0.4,1.2,0,1.8c1.1,1.8,0.1,4.5-1.4,6.1c-1.5,1.5-3.4,2.6-5.4,3.7c-0.5,0.3-1.1,0.6-1.6,0.9
				c-14.4,8.1-23.3,23.6-30.4,36c-0.3,0.6-0.3,1.3,0.1,1.8l2.1,2.8c-3.9,13.8-5.1,28.4-3.6,42.6c0.4,3.4,0.9,7,2.3,10.4
				c2.3,5.5,6.7,9.6,10.9,13.5c-5.5,7.2-8.3,15.6-7.7,23.4c0.4,5.4,2.3,10.4,4.1,15.2c1.4,3.7,2.8,7.5,5.1,10.8
				c3.1,4.5,7.6,8.1,13.1,10.5c4.1,1.7,8.5,2.7,12.8,3.5c5.2,1.1,10.2,2.1,14.6,4.5c0.5,0.3,1,0.7,1.6,1c1.4,1,3.1,2.2,5,2.2
				c0.4,0,0.8-0.1,1.3-0.2c1.3-0.4,3.9-1.8,5.5-3.8c6.8,1.2,13.8,1.8,20.7,1.6c0.2,0.7,0.5,1.4,1,2c1.2,1.6,3.2,2.5,5.3,2.5
				c1.1,0,2.3-0.3,3.3-0.9c0.8-0.5,1.4-1.1,2-1.6c0.6-0.5,1.1-1,1.6-1.3c0.8-0.4,1.8-0.4,2.9-0.5l0.5,0c0.9,0,1.8-0.2,2.8-0.3
				c1.5,1.9,3.9,3.1,6.8,3.3c0.5,0,1,0.1,1.5,0.1c1.6,0,3.3-0.2,4.8-0.5l1-0.1c6.4-0.9,12.9-0.9,19.2,0c8.2,1.1,18.3-1,25.6-2.6
				c6.4-1.4,12.6-3.7,18.3-6.8l1.2-0.7c1.7-0.9,3.2-1.8,4.9-2.3c2.5-0.8,5.1-1,7.9-1.2c1-0.1,2-0.1,2.9-0.2
				c4.3-0.4,14.8-2.2,18.7-10.7c1.7-3.8,1.6-8.1,1.4-11.8c-0.5-7.3-1.6-15.1-3.4-23.9c-0.7-3.5-2.1-6.8-3.4-9.9
				c-1.2-2.9-2.5-6-3.2-9.1l5.9-14c3-7.1,5.3-14.4,2.8-20.7C627.9,307.7,629.7,301.9,628.9,297.2z M618.7,132.2
				C618.7,132.2,618.7,132.2,618.7,132.2c2.6,0,4.7,2.9,5,5.7c0.3,2.8-0.6,5.6-1.6,8.6l-0.4,1.1c-3.7,11.8-4.7,24.5-3.1,36.8
				c0.1,1,0.3,2,0.4,2.9c0.4,2.8,0.8,5.4,0.8,8.1c0,4-1.8,11.9-6.2,12.9c-1.6,0.4-3,0.1-4.2-0.7c-3.5-2.3-5.4-8.8-6.1-12.8
				c6.2-10.7,8.8-22.3,9.7-32.7c0.8-2.8,0.5-5.7,1.3-8.5c1-3.5,3.1-6.8,5.6-9.5c0.1-0.1,0-0.2-0.1-0.1c-2.3,1.5-4.7,3.9-6.5,6.7
				c-0.1-4.8-0.6-9-1.1-12.5c0,0,0,0,0,0C613.7,135.5,615.8,132.2,618.7,132.2z M423,207.3c-1.1,1.4-2.2,2.1-3.1,2.1
				c-3.8,0-7.7-2.8-9.4-7c-1.5-3.4-1.8-7.8-0.9-13.2c0.3-1.9,0.7-3.9,1.1-5.8c0.6-2.7,1.2-5.5,1.5-8.4c0.9-8.2-0.8-16.7-4.6-24
				c-0.3-0.5-0.5-1-0.8-1.5c-0.9-1.6-1.7-3.1-2.2-4.7c-0.5-1.6-0.5-3.9,0.7-5.3c1.6-1.8,4.7-1.5,6.7-0.2c2.1,1.4,3,2.7,4.3,5
				c0,0.3,0,0.7-0.1,1c-0.2,3.2-0.4,6.4-0.5,9.9c-2-3.4-4.9-6.4-7.3-8.8c-0.1-0.1-0.3,0-0.2,0.2c1.8,2.7,3.5,5.4,4.9,8.4
				c1.3,2.8,1.9,5.6,2.8,8.5c0.7,9.4,3.2,20.2,10.1,33.4C426.7,199.5,425.2,204.4,423,207.3z M429.2,195.6
				c-11.5-21.9-10.5-36.8-9.7-50c0.4-5.8,0.7-11.2,0-16.7l-0.3-2.2c-2.9-20.7-11.7-83.6,55.3-109.9c31.1-12.2,63.5-9.9,91.2,6.3
				c22.9,13.5,39.5,35,42.2,54.9c3.2,23.3,2.1,34.5,1.2,43.5c-0.6,5.8-1,10.8-0.1,17.3c3.4,22.9,4.4,76.6-68.6,93.3
				c2.7-0.4,5.3-0.9,7.8-1.4c-0.8,5-4.6,10-11.6,14.6c-6.7,4.4-14.2,7.9-21.4,11.3c-1.7,0.8-3.3,1.6-5,2.4
				c-15-6.5-24.3-13.8-33.1-28.6c2.7,0.4,4.6,0.5,5.4,0.2C482.1,230.6,442.6,221.1,429.2,195.6z M407.3,337.8
				c-1.3-3-1.8-6.3-2.1-9.4c-1.5-14-0.2-28.5,3.8-42.1c0.1-0.5,0-1-0.3-1.5l-2-2.5c6.9-11.9,15.4-26.3,28.6-33.8
				c0.5-0.3,1-0.6,1.6-0.9c2.2-1.2,4.4-2.4,6.2-4.3c1.7-1.8,3-4.5,2.8-7.2l6.7,1c0.1,0,0.1,0,0.2,0c0.7,1.1,1.4,2.2,2.3,3.3
				c-0.2,3.1,2.1,6.8,3.7,9.1c2.4,3.6,5.4,6.8,8.8,9.5c0.2,0.1,0.4-0.1,0.2-0.2c-3-3-5.5-6.4-7.4-10.2c-0.6-1.2-1.1-2.6-1.6-4
				c0.3,0.2,0.5,0.5,0.8,0.7c5.2,4.9,11.3,9.4,17.1,13.4c0.1,0,0.1,0,0.1-0.1c-3.4-5.3-9.3-8.6-13.9-12.8
				c-6.2-5.5-13.5-14.7-8.9-23.2c6.6,3.3,13.1,5.5,18.3,6.8c8.8,14.7,19.4,24.6,34,31.4c-1.5,0.7-2.9,1.4-4.4,2.2
				c-2.8,1.5-7.2,4.1-11.9,7.7c-3-2.8-6.6-5.2-9.8-7.7c-0.1-0.1-0.2,0-0.1,0.1c2.6,2.9,5.2,6.3,8.1,9c-2.1,1.7-4.2,3.6-6.2,5.7
				c-0.6-0.7-1.4-1.1-2.3-1.8c-1.9-1.4-3.7-2.9-5.4-4.5c-3-2.8-5.9-5.8-8.5-8.9c-0.1-0.1-0.2,0-0.1,0.1c2.1,4,4.5,7.4,7.7,10.6
				c1.8,1.8,4.4,5,7.2,6.2c-2.1,2.4-4,4.9-5.7,7.7c-1.4-1.9-3.8-3.3-6.1-4.3c0.2-9.2-10.8-14.5-17.8-17.3c-0.2-0.1-0.3,0.2-0.1,0.3
				c3.6,2.2,7.1,4.4,10.1,7.4c2.7,2.7,3.9,5.3,5.2,8.5c-6-2.2-12.4-2.4-18.6-0.6c-0.1,0-0.1,0.2,0,0.2c6.1,0.1,12.4,0.2,18,3.2
				c2.6,1.4,4.6,4.1,7.1,5.7c-1.7-0.6-3.3-1.2-5.1-1.9c-0.3-0.2-0.7-0.3-1.1-0.4c-0.4-0.2-0.9-0.4-1.4-0.5l0,0.1
				c-3.8-1.1-8.4-1-12.2,0.2c-9.8,3.3-18.4,9.8-24.1,18.4c-5.8,8.7-8.4,19.1-7.5,29.3c0.7,7.2,3.1,14,5.4,20.6
				c-0.3-6.1-1.3-12.6-1.9-18.8c5.7,4.1,12.3,6.9,19.2,8.5c-6.3,4.2-11.8,9.6-16.1,15.9c-2.6-4.3-6.3-7.7-10-11
				C413.6,346.7,409.5,342.9,407.3,337.8z M521,282C521,282,521,282,521,282c0.2,2.2,0,4.4-0.8,6.5c-0.4,0-0.8-0.1-1.2,0
				c-1.4,0.1-2.6,0.8-3.5,1.3c-6.9,4.2-10.9,13-12.2,19.2c3.6-5.9,7.7-12.6,13.9-16.4c0.7-0.4,1.4-0.8,2.2-0.9c0.3,0,0.8,0,1,0.2
				c0.9,1.1-0.3,5.5-0.8,7.4c-0.1,0.3-0.2,0.6-0.2,0.9c-0.9,0-1.7,0.3-2.5,0.6c-1.8,0.9-3,2.4-4.2,3.8c-3.3,4.3-3.9,7.4-6.4,12.3
				c4.5-4.7,5.8-6.1,9-10.3c0.9-1.1,1.8-2.3,3-2.9c0.9-0.5,2.1-0.4,2.5,0.2c0.4,0.5,0.5,1.3,0.5,2.1c0.2,4.2-0.9,8.5-2.2,13.2
				c-1.4,4.8-2.7,9.1-5.1,12.8c-2.7,4.1-6.4,6.7-10.2,7.2c-2.4,0.3-4.9-0.2-7.5-0.7c-1.7-0.3-3.4-0.7-5.1-0.8
				c-5.5-0.4-10.8,1.3-16,2.9c-1.9,0.6-3.8,1.2-5.6,1.7c-15.5,4.1-32.7,0.4-45-9.4c-0.3-8.6,2.2-17.6,7-24.9
				c5.3-8,13.3-14.1,22.4-17.1c3.4-1.1,7.9-1,11.3,0.2c0.4,0.1,0.7,0.3,1.1,0.4c0.3,0.2,0.7,0.3,1,0.5l0.1-0.1
				c5.1,2,11,3.9,17.1,3.9c2,0,4.1-0.2,6.1-0.7c4.8-1.2,9-4,12.2-6.3c4.2-3,8.1-6.4,11.7-10.1c1.9-1.9,3.4-2.7,4.3-2.3
				c1,0.5,1.2,0.9,1.3,2.4c-0.1,0.1-0.3,0.1-0.4,0.2c-7.9,3.8-15,12.3-16.7,18.9C507.7,292,513.6,285.5,521,282z M467.8,415
				c-6.4-2.6-12.2-6.6-17-11.5c-7.6-7.7-14.5-16.2-21.8-24.3c-0.1-0.1-0.2,0-0.1,0.1c9.3,12,21.8,33.7,38.3,39.3
				c-1,0.9-2.3,1.6-2.9,1.8c-1,0.3-2.2-0.6-3.5-1.5c-0.6-0.4-1.3-0.9-1.9-1.2c-1.9-1-3.9-1.8-5.9-2.5c-4.4-3.1-8.7-6.2-12.5-10.3
				c-5.6-6-10.7-12.7-15.3-19.5c-1.2-1.7-2.3-2.1-2-0.2c0.8,5.4,3.3,10.1,6.7,14.2c0.1,0.1,0.2,0,0.1-0.1c-0.9-1-6.4-10.7-4.8-11.2
				c0.3-0.1,3.7,5.7,3.9,6c2.6,3.7,5.4,7.2,8.4,10.5c2.7,3,5.8,6.2,9.2,8.9c-1.1-0.2-2.2-0.5-3.3-0.7c-4.1-0.9-8.4-1.7-12.2-3.3
				c-4.9-2.1-9-5.3-11.7-9.3c-2.1-3.1-3.4-6.7-4.7-10.1c-1.7-4.6-3.5-9.3-3.9-14.3c-0.5-6.9,2-14.5,6.9-21c3.6,3.3,6.8,6.6,8.7,10.8
				c0.3,0.6,0.8,0.9,1.4,1c0,0,0.1,0,0.1,0c0.6,0,1.1-0.3,1.4-0.8c4.9-7.9,11.6-14.5,19.6-19.1c2.6,0.4,5.2,0.6,7.8,0.6
				c4.6,0,9.2-0.6,13.7-1.7c2-0.5,3.9-1.1,5.8-1.7c5.1-1.6,9.8-3.1,14.7-2.8c1.6,0.1,3.1,0.4,4.7,0.8c2.8,0.6,5.6,1.1,8.6,0.7
				c4.8-0.6,9.3-3.8,12.5-8.7c2.6-4,4-8.6,5.5-13.7c0.3-1.2,0.6-2.3,0.9-3.4c1.1,4,2,8.4,2.3,12.6l0,0.3c0.2,3.2,0.5,7.1,3.2,9.6
				c2.1,1.8,5.2,2.5,8.8,1.8c0.6-0.1,1.1-0.2,1.7-0.4c-0.9,0.4-1.7,0.9-2.4,1.3c-1.6,1-3,2.1-4.5,3.2c-12.9,4.5-29.1,4.9-42,0.6
				c-0.1,0-0.1,0.1-0.1,0.2c9.5,4.1,24.5,6.8,36.1,3.9c-1.4,1-2.8,2-4.4,2.9c-4.5,2.5-11,4.1-15.6,1c-0.7-0.4-1.5-0.4-2.1,0.2
				c-3.4,3.4-5.6,8-6.1,12.8c-1,0-2-0.2-2.9-0.5c-1-0.4-2-1-3-1.7c-1.3-0.8-2.6-1.7-4.3-2.2c-3.3-0.9-7.3,0.2-10.1,2.9
				c-4.2,4.1-5.2,11.1-2.2,16c1,1.7,2.8,3.3,4.9,4.5c-3,1.4-5,4.4-4.9,7.5c0.1,2.4,1.4,5,3.4,6.5c0.5,0.4,0.9,0.6,1.4,0.8
				c-0.6,1.4-0.9,2.9-0.6,4.4c0.4,1.9,1.6,3.6,3.3,4.6c0.8,0.5,1.7,0.8,2.6,1c-0.4,1.1-0.6,2.2-0.5,3.4c0.2,1.7,1.1,3.2,2.5,4.3
				C481,418.1,474.1,417.5,467.8,415z M528.7,290c-1.2-0.6-3.1-1.4-5-0.9c-0.1,0-0.2,0.1-0.3,0.1c0.8-2.5,1.1-5.2,0.8-7.9
				c0.1,0,0.1-0.1,0.2-0.1c1-0.3,1.4,0.5,2.1,1c5.9,4.1,11,9.2,15.7,14.1c-3.6-6.6-7.7-12.5-13.8-16.8c-0.8-0.5-1.6-1.1-2.7-1.3
				c-0.8-0.2-1.7-0.1-2.4,0.1l0,0c0-0.2-0.1-0.4-0.1-0.5c0-0.3,0.2-0.7,0.5-1c0.3-0.4,0.8-0.6,1.2-0.6c1-0.1,3.6,0.8,4.2,1.3
				c4.5,3.8,8.6,7.7,12.5,11.5c4,3.8,8.1,6.6,12.7,10.5c-0.8-1.3-1.6-2.6-2.5-3.8c3.9-0.9,7.5-2.5,11.1-4.2
				c5.3-2.5,10.4-4.8,15.7-4.2c8.1,0.9,13.3,8.3,15.4,14.4c2.1,6.3,2.3,13.3,2.5,20c0,1.2,0.1,2.4,0.1,3.6c0.1,3.3,0.3,6.7,0.8,10
				c0.1,0.5,0.2,1,0.3,1.5l-0.2-0.4c-11.3,5.1-24.6,6.1-36.4,2.7c-0.7-0.2-1.5-0.4-2.2-0.7c-0.7-0.3-1.3-0.5-2.1-0.6
				c-3.9-1.2-7.9-2.3-12.1-1.8c-1.6,0.2-3.1,0.6-4.5,1c-1.1,0.3-2.2,0.6-3.2,0.8c-1.5,0.3-4.3,0.5-6-1c-1.8-1.6-1.9-4.5-2.1-7.4
				l0-0.3c-0.4-6.8-2.5-14.3-4.3-19.4c0.1-1.3,0.2-2.6,0.1-3.9c-0.1-1.1-0.3-2.4-1-3.5c0,0,0.1-0.1,0.1-0.1c0.8-0.5,1.6,0,2.3,0.4
				c4.8,2.9,8.6,7.4,10.8,12.6c-1-6.2-3.8-12.1-9.1-15.4c-1.1-0.7-2.7-1.5-4.3-1.1c-0.1,0-0.2,0.1-0.3,0.1c0.5-1.9,1-4.1,0.8-6
				c0,0,0.1-0.1,0.1-0.1c0.9-0.9,2.3-0.3,3.2,0.2c5.6,2.8,9.6,8.3,13.2,13.1C537.6,299.1,535,293.2,528.7,290z M507.6,418.3l-0.5,0
				c-1.3,0.1-2.8,0.1-4.2,0.8c-1,0.5-1.7,1.2-2.4,1.8c-0.5,0.5-1,0.9-1.5,1.2c-1.4,0.8-3.3,0.4-4.3-0.8c-2.8-3.6,2.4-6.3,5.4-6.1
				c0.1-0.4-0.1-0.9-0.4-1.2c-0.3-0.3-0.7-0.5-1.1-0.7c-2-0.8-4.5-0.3-6,1.3c-0.4,0.4-0.8,1-1,1.5c-0.6,0-1.2-0.2-1.8-0.6
				c-0.7-0.5-1.2-1.4-1.3-2.2c-0.2-1.7,1-3.6,2.7-4.5c2-1,4.5-0.8,6.6-0.2c-0.2-1.2-0.9-2.4-2-3c-1.8-1.1-4.3-0.6-6.1,0.2
				c-0.8,0.4-1.5,0.9-2.1,1.5c-1-0.1-2.2-0.4-2.8-0.8c-0.9-0.6-1.6-1.5-1.8-2.4c-0.4-2,1-4.4,3.1-5.2c2-0.8,4.3-0.7,6.4-0.1
				c0.3,0.1,0.6,0.2,0.9,0.2c0.3,0,0.6-0.2,0.7-0.5c0-0.2-0.1-0.4-0.2-0.6c-2-2.7-5.9-3.2-8.9-2c-0.9,0.4-1.8,0.9-2.5,1.6
				c-0.5,0-1.1-0.3-1.4-0.6c-1.2-0.9-2.1-2.6-2.1-4c-0.1-2.1,1.8-4.3,4-4.8c2.8-0.6,5.6-0.1,8.3,0.5c0.1,0,0.2,0,0.3,0
				c0.1-0.1,0-0.3,0-0.4c-0.5-0.8-1.2-1.5-2-2c0.5-0.3,0.9-0.6,1.5-0.8c0.7-0.3,1.5-0.3,2,0.2c-0.1-1.1-0.2-2.1-0.5-3.1
				c-0.1-0.4-0.3-0.8-0.7-1c-0.3-0.1-0.7,0-1,0.1c-0.3,0.2-0.5,0.4-0.7,0.7c-3.4,3.4-9.4,0.7-11.6-2.9c-2.2-3.6-1.5-8.9,1.6-11.9
				c2-1.9,4.7-2.8,6.9-2.1c1.2,0.3,2.2,1,3.4,1.8c1.1,0.7,2.3,1.5,3.7,2c2.5,0.9,5.1,0.7,7.6,0.6c2.7-0.2,6.4,0.2,8.3,1.4l0-0.1
				c2.1,3.7,4.3,7.5,5.3,10.2c2.3,6.2,3.3,13,4.3,19.5c0.7,4.5,1.4,9.6,0.2,14.2C516.1,416.9,511.9,418.1,507.6,418.3z M615,355.3
				c1.3,3.2,2.6,6.2,3.2,9.3c1.8,8.6,2.9,16.3,3.3,23.4c0.2,3.5,0.3,7.1-1.1,10.3c-2.2,4.8-8.1,8.1-16,8.8c-0.9,0.1-1.9,0.1-2.8,0.2
				c-1.8,0.1-3.7,0.2-5.6,0.6c7.6-7.8,12.5-20.4,13.7-29.4c0-0.1-0.1-0.1-0.2,0c-3,11-10.1,23.1-19,31.1c-1.1,0.5-2.2,1.1-3.2,1.7
				l-1.2,0.6c-4.6,2.5-9.5,4.4-14.6,5.7c5-3.6,9.4-8.3,13.4-12.8c8-9.2,15.9-20,17.1-32.5c0-0.1-0.1-0.1-0.2,0
				c-4.7,18.8-21.5,39.1-39.9,47.5c-5.8,1.1-12.2,1.9-17.6,1.2c-6.7-0.9-13.4-0.9-20.1,0l-1,0.1c-1.9,0.3-3.8,0.5-5.5,0.4
				c-1.1-0.1-2.1-0.4-3-0.9c2.8-0.7,5.6-1.7,7.9-3c2-5.8,1.1-11.9,0.3-17.2c-1-6.7-2-13.7-4.4-20.2c-1.9-5.2-5.7-12.3-12.6-16.7
				c0.5,1,1.1,2.1,1.7,3.2c-2-0.4-4-0.3-6-0.2c0,0,0,0,0,0c0.4-3.4,1.9-6.8,4.2-9.4c5.7,3,12.8,1.3,17.9-1.5
				c3.1-1.7,5.9-3.9,8.5-6.1c2.1-1.7,4.2-3.4,6.5-4.8c4.4-2.8,12.3-4.8,17.3-3.8c0.3,0.1,0.6,0.2,1,0.3c1.1,0.3,2.2,0.7,3.3,1
				c4.9,1.4,10,2.1,15.2,2.1c2.1,0,4.1-0.1,6.2-0.3c7.8,6.1,16.5,11,25.9,14.5c0.2,0.1,0.4,0.1,0.6,0.1c0.6,0,1.3-0.4,1.5-1l3.3-7.7
				C613.5,351.6,614.2,353.5,615,355.3z M622.4,307.1c-3.4-9.7-11-19.2-16.5-25.3c-0.1-0.1-0.2,0-0.1,0.1c4.4,6.5,8.9,12.9,12,20.1
				c1.8,4.3,3.1,9,3.4,13.7c0.3,4.9-1.5,9.5-3.4,13.9l-10.6,25c-7.5-2.9-14.5-6.8-21-11.5c4.2-0.8,8.3-2,12.2-3.7
				c0.5,1.6,1,3.3,1.4,5c-1.4-0.6-2.8-1-4.2-1.3c0.3,0.1,1.4,1.8,1.7,2.2c0.8,0.8,1.8,1.4,2.6,2.1c1.1,0.9,2.3,2.7,3.9,2.7
				c0.4,0,0.8-0.2,1.2-0.5c0.6-0.6,0.6-1.4,0.2-2.1c-4.2-6.4-5.1-14.6-5.3-22.4c0-1.2-0.1-2.4-0.1-3.6c-0.2-7-0.4-14.2-2.7-21
				c-3.1-9.3-10.3-15.8-18.2-16.7c-2.9-0.3-5.7,0.1-8.4,0.9c3.1-2,6.5-3.3,10.1-4.8c6.5-2.8,13.1-6.4,20.4-6c0.1,0,0.1-0.1,0-0.2
				c-7.8-1.1-14.3,1.3-21.5,4.3c-4.6,1.9-12.2,3.6-14.3,8.6c-1.2,0.5-2.5,1.1-3.7,1.7c-3.9,1.8-7.9,3.7-11.9,4.3
				c-1.8-2.2-3.7-4.2-5.7-6.1c-3.3-3.1-6.7-6.3-10.3-9.5c5.8-6.8,11.5-12.9,19.2-17.7c0.1-0.1,0-0.2-0.1-0.1
				c-7.7,4-15.4,9.5-20.5,16.6c-0.3-0.3-0.7-0.6-1-0.9c-1.3-1.1-4.8-2.1-6.4-2.1c-1.2,0-2.4,0.6-3.3,1.5c-0.4-0.4-0.8-0.7-1.4-1
				c-3.5-1.7-6.9,1.8-8.1,3c-3.5,3.5-7.3,6.8-11.3,9.7c-2.9,2.1-6.8,4.7-11,5.8c-4.3,1.1-8.7,0.7-13.3-0.5
				c4.9-9.5,14.9-18.9,27.2-25.5c4.3-2.3,8.7-4.4,13-6.4c7.3-3.4,14.9-7,21.8-11.6c8.3-5.5,12.8-11.6,13.3-18.1
				c6.8-1.6,12.9-3.6,18.3-6c1.6,2.1,2.8,5.2,3.7,7.6l-3.4,4c-0.1,0.2-0.3,0.4-0.3,0.6c-5.9,5.6-11.9,10.2-19.1,14.6
				c-6.8,4.2-13.5,8.3-19.2,14c-0.1,0.1,0,0.2,0.1,0.1c11.3-9.6,30.5-13.8,39.7-26.1l4.1,3.4c-0.9,0.9-1.9,1.8-2.9,2.7
				c-3.5,2.9-7.5,5.5-11.4,7.7c-0.1,0,0,0.2,0.1,0.2c6.7-2.2,15.2-6.2,19.6-12.3l1.8-1.2c7,9.4,14.9,18.1,23.7,25.9l0.1,0.1
				c1.4,1.3,2.8,2.5,3.5,4c0.5,1.1,0.6,2.7-0.1,3.6c-0.9-0.7-1.8-1.3-2.7-1.8c-3.5-1.8-6.7-2-10.3-0.5c-0.1,0-0.1,0.2,0,0.2
				c2.8-0.9,5.9,0.1,8.4,1.5c2.5,1.3,3.9,3.5,5.6,5.6c1.9,2.5,4,4.8,6.2,7c0.6,0.6,1.1,1.1,1.7,1.7c3,3.1,6.1,6.9,6.9,11.3
				C626.2,301,625.1,305,622.4,307.1z"/>
			<path class="st9" d="M532.8,375.6c2.3,9.5,5.7,17.1,6.1,26.5c-5.5-14-8.4-30-21.5-38.9c-0.1-0.1-0.2,0.1-0.1,0.1
				c13.6,10.5,14.9,30.9,21.7,45.7c0.6,1.4,2.4,0.5,2.6-0.7c1.3-11.5-2.2-23.1-8-33C533.3,374.9,532.7,375.2,532.8,375.6z"/>
			<path class="st9" d="M483.7,126.3c0.6-0.7,0.9-2.5,1.4-2.9c-4.2,3.6-8.2,1.4-12.4-0.3c-5-2.1-10.9-1.5-15.7,0.9
				c-2.9,1.4-5.5,3.4-7.8,5.8c-2.5,2.6-3.8,5.5-8,3.8c1.5,0.6,2.2,2.7,4.2,3.2c0.3,0.1,0.5,0.1,0.7,0.1c1.5,0.1,2-0.7,3.1-2.1
				c2.6-3.2,5.5-6,9.3-7.8c4.7-2.3,10.1-2.4,14.1-0.3c0.4,0.2,0.8,0.5,1.3,0.7c2.4,1.4,4.4,2.4,7,1.1
				C481.9,127.9,482.9,127.2,483.7,126.3z"/>
			<path class="st9" d="M548.6,126.5c2.1,1.3,3.4-0.3,5.6-1.1c4.5-1.6,9.4-1.9,14-0.8c6,1.5,11.4,5.3,14.7,10.5
				c0.3,0.5,0.8,0.7,1.4,0.7c0.8,0,1.7-0.4,2.4-0.8c0.7-0.5,2-3,2.3-3.1c-4.5,1.4-6.3-2.9-9.4-5.4c-3.1-2.4-6.7-4.2-10.6-5.2
				c-4.1-1-8.5-1-12.6-0.1c-3.6,0.8-7.6,3.9-10.9,0.4C546.8,123.1,546.7,125.3,548.6,126.5z"/>
			<path class="st9" d="M515.8,156.5c0.2,0,0.4,0,0.5,0c4.5,0,8.7-3.6,9.4-8.1c-1.3,2.4-6.7,5-9.7,4.8c-3-0.2-7.5-2.8-9-5.9
				C507,152,511.1,156.2,515.8,156.5z"/>
			<path class="st9" d="M492.6,174.9c0.3-0.8,0.7-1.5,1.1-2.2c0.5,0.2,1,0.4,1.5,0.6c3,7.8,11.2,13.3,19.5,13.3c0.1,0,0.2,0,0.3,0
				c8.3-0.1,16.3-5.8,19.2-13.5c1.8-0.2,3.6-0.9,5-2.1c0.1,0.1,0.1,0.2,0.2,0.3c0.4,0.9,0.3,1.7,0.8,2.5c0.7,1.1,2.2,1,2.9,0
				c1.2-1.8-0.2-4.1-1.4-5.5c-1.1-1.3-2.6-2.4-4.3-2.5c0,0-0.1,0-0.1,0.1c-0.2,0.8-0.1,1.5,0.2,2.3c-1.5,1.6-4.2,2-6.2,1.7
				c-1.8-0.2-3.5-0.8-5.4-1.4c-1.1-0.4-2.2-0.7-3.3-1c-5-1.2-10.2-1.1-15.1,0.4c-1,0.3-1.9,0.6-2.8,1c-1.5,0.6-3,1.1-4.5,1.4
				c-1,0.2-3.2,0.4-5-0.4c0.4-1.2,0.8-2.4,0.8-3.6c0-0.2-0.2-0.2-0.3-0.1c-1.2,1.5-2.8,2.2-4.2,3.5c-1.2,1.1-2.1,2.8-2.5,4.3
				C488.2,176.3,491.8,177.2,492.6,174.9z M500.8,173.5c1.8-0.3,3.4-0.9,5-1.5c0.9-0.3,1.8-0.6,2.7-0.9c4.3-1.3,8.9-1.4,13.3-0.3
				c1,0.3,2.1,0.6,3.1,0.9c1.8,0.6,3.7,1.2,5.7,1.4c-2.8,5.9-9.1,10.1-15.7,10.2c-6.5,0.1-12.9-3.9-15.9-9.6
				C499.6,173.7,500.2,173.6,500.8,173.5z"/>
			<path class="st9" d="M448.9,102.2C448.9,102.2,448.9,102.2,448.9,102.2c0.1-0.1,0.1-0.1,0.2-0.1c2.3-0.7,4.1-1.9,6.3-2.8
				c2.1-0.9,4.6-1.8,6.4-3c0.9-0.6,0.9-1.6,0.5-2.3c0.6-1.5-0.8-3.5-3.2-3.4c-3,0.1-5.6,2.4-7.5,4.2c-2,2.1-3.2,4.3-3.6,7.1
				C448,102.4,448.6,102.5,448.9,102.2z"/>
			<path class="st9" d="M564.4,96.5c-0.1,0.3-0.1,0.6,0,0.9c0.8,2.2,3.2,2.3,5.2,2.8c2.1,0.5,4.3,0.5,6.2,1.7c0.5,0.3,1.1-0.2,1-0.7
				c0.1,0,0.3-0.1,0.3-0.3c0.2-2.7-1.1-4.3-3.2-5.9c-2.5-1.8-5.1-3.4-8.2-3.7C562.9,91.1,562.1,95.5,564.4,96.5z"/>
		</g>
		<path class="st11" d="M514.9,87.4c-1.1,4-2,8.1-2.3,12.2c-0.1,1.6,1.3,2.6,2.7,2.7c0.2,0,0.5-0.1,0.7-0.1c1.1-0.2,2.1-1.5,2-2.6
			c-0.5-4.2-1.6-8.3-3-12.2C515,87.4,514.9,87.4,514.9,87.4L514.9,87.4z"/>
	</g>
	<g>
		<path class="st12" d="M587.1,506.8c-10.3,0-20.4-3.3-28.4-9.4l-0.5-0.4l-1.1,0.5c-0.3,0.2-0.6,0.3-0.9,0.5
			c-7.9,3.6-17.7,5.6-27.4,5.6c-15.6,0-28.9-4.9-36.5-13.5l-0.7-0.8l-0.7,0.9c-5,6-14,8.2-22.1,9.6c-4.4,0.7-8.6,1.1-12.5,1.1
			c-13.7,0-24.3-4.5-31.3-13.4l-0.5-0.6l-0.7,0.4c-5.1,3-11.2,4.6-17.7,4.6c-18.8,0-35.8-13.5-42.4-33.6c-2.7-8.3-3.8-17.6-3-26.8
			c0.5-6.4,1.8-13.2,3.9-20.2c0.7-2.4,1.5-4.8,2.4-7.3c0.1-0.2,0.3-0.7,0.6-1.3c2.4-5.5,2.4-5.8,1.8-6.4l-0.1-0.1
			c0.4-0.5,0.7-1.1,0.9-1.8l0.5,0.5l0.5-1.2c1.6-3.6,3.4-7.4,5.5-11.7c0.1-0.2,0.3-0.4,0.6-0.5c0.1,0,0.2,0,0.3,0
			c0.2,0,0.3,0,0.5,0.1c22.1,12.6,37.6,35.4,41.5,61l0.5,3.4l1.3-3.2c0.8-1.9,1.6-3.6,2.4-5.2c7.1-13.4,18.1-24.1,28.7-34.3
			c0.2-0.2,0.4-0.3,0.7-0.3c0.2,0,0.5,0.1,0.6,0.3c10.7,9.9,21.7,20.2,29.4,32.9c4,6.5,6.9,14.2,8.9,23.5l0.7,3.1l1.1-2.9
			c4.2-10.7,13.3-19.8,20.8-26.5l2.2-2c10.2-9.1,20.8-18.5,24.7-31.2c0.1-0.3,0.3-0.5,0.5-0.6c0.1-0.1,0.3-0.1,0.4-0.1
			c0.1,0,0.2,0,0.4,0.1c20.7,8.3,35.9,28.2,37.8,49.7c0.4,4.5,0.4,8.8,0.1,12.8l-0.2,1.9l1.6-1c14.9-9.2,24.4-26.2,24.1-43.3
			c0-0.3,0.2-0.6,0.4-0.8c0.2-0.1,0.3-0.1,0.5-0.1c0.1,0,0.3,0,0.4,0.1c6.3,3.1,12,7.9,16.4,13.9l0.9,1.2l0.7-1.3
			c8.2-15.9,11.8-34.5,10-52.2c0-0.3,0.1-0.6,0.3-0.8c0.2-0.1,0.4-0.2,0.6-0.2c0.1,0,0.2,0,0.3,0c16.4,4.7,30.3,16.4,37,31.1
			c7.1,15.4,6,34.2-2.9,47.8c-2.3,3.5-5.1,6.8-8.4,9.5c-8.1,6.9-18.3,10.7-28.6,10.7c-1.1,0-2.2-0.1-3.5-0.2l-0.7-0.1l-0.3,0.6
			c-4.6,10.6-13.1,19.3-23.1,24C600.5,505.4,593.8,506.8,587.1,506.8z"/>
		<g>
			<path class="st0" d="M407.6,488.6c-17-7.5-29.6-22.7-33.4-41c-1.9-8.8-1.9-18.1-1.7-27.1c0.4,2.1,0.8,4.2,1.2,6.1
				c3.2,15,9.2,28.9,17.5,41.7c0.1,0.1,0.2,0,0.2-0.1c-6-12.5-10.6-25.9-13.1-39.5c-1.3-7.1-2.2-14.4-2.1-21.7
				c0.1-6.4,2.1-12.3,2.5-18.6c0-0.6-0.2-1-0.6-1.2c0.1-0.7,0.3-1.4,0.4-2.1c0.1-0.6-0.6-1-1-0.4c-0.9,1.5-1.8,3-2.6,4.6
				c-0.2,0.4-0.4,0.7-0.6,1.1c-10.2,19.4-14.8,43.7-8.9,64.6c5.4,19.2,20.6,35.8,41.6,36.3C408.2,491.2,408.9,489.1,407.6,488.6z"/>
			<path class="st0" d="M453.2,406.6c-0.2,0.1-0.3,0.3-0.5,0.4c-0.5-0.5-1.3-0.5-1.8,0c-0.9,1-1.6,2-2.2,3.1
				c-6.7,5.7-12.2,13-17.2,20c-6.6,9.2-11.6,17.9-12.4,29.5c-1.1,15.8,5.4,38.8,24.9,38.9c0.7,0,0.9-0.7,0.7-1.2
				c-6.6-14.4-12.1-27.1-9.2-43.4c1.6-8.7,3.5-17.2,7.3-25.3c0.3-0.6,0.6-1.3,1-1.9c-1.2,4.8-2.2,9.6-2.9,14.4
				c-1.9,14.2-0.3,27.7,4.7,41.1c0.1,0.2,0.3,0.1,0.3-0.1c-3.2-14.4-3.6-29.2,0-43.6c2.4-9.4,8.8-20.6,7.3-30.3
				c0.2-0.4,0.3-0.9,0.5-1.3C453.7,406.6,453.4,406.4,453.2,406.6z"/>
			<path class="st0" d="M545,404.3c-0.3-0.4-0.9-0.6-1.3-0.2c-0.2-0.1-0.4-0.3-0.6-0.4c-0.5-0.3-1.2-0.1-1.5,0.4
				c-0.8,1.7-1.1,3.3-1.2,4.8c-1.4,2.3-2.6,4.8-4,7.1c-3.7,6.1-8.5,10.7-14.1,15.2c-8.4,6.9-17.7,14.6-22.1,24.8
				c-0.1,0.1,0.1,0.4,0.2,0.2c10.6-8.1,23-13.4,33-22.3c-0.7,1.1-1.3,2.2-2,3.3c-6.7,11-14.3,21.4-22.1,31.7
				c-0.1,0.1,0.1,0.2,0.1,0.1c10.9-11.1,22.8-22.8,31.3-35.9c3.7-5.7,9.2-18.4,5.6-25.7C546.1,406.3,545.7,405.3,545,404.3z"/>
			<path class="st0" d="M611,422.7c-0.5-0.3-1,0-1.2,0.5c-4.2,13.4-9,26.1-16.4,38.1c0,0.1,0,0.2,0.1,0.1
				c7.7-4.4,13.9-10.7,17.4-18.9C613.1,437.2,617.6,426.5,611,422.7z"/>
			<path class="st0" d="M643.8,384.7c0-0.2,0-0.3-0.1-0.5c-0.6-3.8-6.5-2.2-5.8,1.6c1.5,9.1,0.8,17.5-1.2,26.5
				c-1.4,6.1-4,11.5-6.1,17.2c-1.4,0.4-2.4,1.8-1.3,3.3c0,0,0.1,0.1,0.1,0.1c0,0,0,0,0,0c0,0.1,0,0.1,0.1,0.1
				c4.7,6.3,7.9,13.6,9,21.4c0,0,0,0,0,0.1c-0.1,0.4-0.2,0.9-0.3,1.3c0,0.1,0.1,0.2,0.2,0.1c0.3-0.5,0.5-1,0.8-1.4c0,0,0,0,0,0
				c0,0,0,0,0,0c1-1.7,1.9-3.4,2.7-5.2c0.9-0.7,1.4-1.9,1.5-3.3c3.7-8.6,5.8-17.5,6.1-27.3C649.8,409.5,650.1,392.4,643.8,384.7z
				 M639.6,450.1c0-0.1,0-0.2,0-0.3c0,0,0,0,0,0C639.6,450,639.6,450,639.6,450.1z"/>
		</g>
		<path class="st1" d="M678.9,424.4c-0.7-5-2.1-10-4.2-14.5c-6.9-15-21-26.8-37.6-31.6c-0.6-0.2-1.3,0-1.7,0.4
			c-0.5,0.4-0.7,1-0.7,1.6c1.8,17.7-1.8,35.9-9.9,51.7c-4.4-5.9-10.1-10.8-16.7-14.1c-0.6-0.3-1.3-0.3-1.9,0.1
			c-0.6,0.4-0.9,1-0.9,1.6c0.3,16.9-9.3,33.6-23.6,42.5c0.3-4.1,0.3-8.4-0.1-13c-1.9-21.8-17.3-42.1-38.4-50.5
			c-0.5-0.2-1-0.2-1.5,0.1c-0.5,0.2-0.8,0.7-1,1.2c-3.8,12.5-14.3,21.8-24.4,30.8l-2.3,2c-8.4,7.5-17,16.3-21.1,26.8
			c-2-9.3-5-17.2-9-23.8c-7.8-12.9-18.9-23.2-29.6-33.1c-0.7-0.7-1.9-0.7-2.6,0c-10.7,10.3-21.8,21-28.9,34.6
			c-0.9,1.8-1.7,3.5-2.5,5.3c-3.8-25.5-19.5-48.9-41.9-61.7c-0.5-0.3-1-0.3-1.5-0.2c-0.5,0.2-0.9,0.5-1.1,1
			c-7.7,15.5-14.6,32.6-16,49.9c-1.7,21.6,6.5,46.6,27.1,56.8c6,3,12.6,4.6,19.3,4.6c6.5,0,12.8-1.5,18.2-4.7
			c7.2,9.1,18,13.7,32,13.7c4,0,8.2-0.4,12.7-1.1c8.5-1.4,17.6-3.8,22.7-10c8.4,9.5,22.7,13.9,37.2,13.9c9.8,0,19.7-2,27.8-5.7
			c0.5-0.2,1-0.5,1.5-0.8c8.3,6.3,18.6,9.6,29,9.6c6.7,0,13.5-1.4,19.7-4.2c10.6-4.9,19-13.8,23.6-24.4c1.2,0.1,2.4,0.2,3.6,0.2
			c15.2,0,29.6-8,37.8-20.7C678.3,448.6,680.6,436.2,678.9,424.4z M378.8,478c-11-10.6-16.7-27.9-15.3-46.3
			c1.3-17.1,8.1-33.1,14.7-46.7c23,13.9,38.1,39.6,39.2,66.4c-2.6,10.9-1.7,21.6,2.8,30.4v0c0.6,1.1,1.2,2.2,1.9,3.2
			C409.2,492.3,390.7,489.5,378.8,478z M490.3,485.8c-3.5,7.1-13.1,9.6-22,11.1c-22,3.7-37.1-2-44.7-17v0
			c-5.9-11.5-4.9-26.9,2.6-41.2c6.6-12.5,16.8-22.6,26.9-32.4c10.1,9.4,20.4,19.2,27.6,31.1c5.6,9.2,9.1,21,10.7,36.1
			C491.9,477.9,492,482.3,490.3,485.8z M555,495.5c-19.2,8.8-48.7,7.5-61.3-8.1c2.1-4.4,2-9.4,1.4-14.1c-0.2-1.7-0.4-3.4-0.6-5.1
			c1.7-13.1,12-23.9,22-32.8l2.2-2c10-8.9,20.3-18,24.9-30.6c18.8,8.3,32.4,26.7,34.2,46.5C579.8,472.5,572.4,487.6,555,495.5z
			 M605.2,500.1c-13.9,6.4-30.9,4.7-43.4-3.9c10.7-6.5,17.1-16.3,19.3-29.4c16-8.6,27-25.9,28-44.1c13.2,7.9,21.8,22.9,21.5,38.3
			C630.4,477.5,620.1,493.2,605.2,500.1z M668.6,456.5c-8,12.3-22.7,19.7-36.8,18.9c1.6-4.6,2.5-9.4,2.6-14.3
			c0.1-9-2.5-17.9-7.2-25.6c8.7-16,12.8-34.6,11.5-52.8c14.5,4.9,26.5,15.5,32.6,28.7c1.8,4,3.1,8.2,3.7,12.5l0,0.3c0,0,0,0,0.1,0
			C676.8,435.5,674.6,447.3,668.6,456.5z"/>
	</g>
</g>
</svg>
