<?xml version="1.0" encoding="utf-8"?>
<!-- Generator: Adobe Illustrator 22.1.0, SVG Export Plug-In . SVG Version: 6.00 Build 0)  -->
<svg version="1.1" id="Layer_1" xmlns="http://www.w3.org/2000/svg" xmlns:xlink="http://www.w3.org/1999/xlink" x="0px" y="0px"
	 viewBox="0 0 731.6 507.7" style="enable-background:new 0 0 731.6 507.7;" xml:space="preserve">
<style type="text/css">
	.st0{fill:#FFFFFF;}
	.st1{fill:#CC216C;}
	.st2{fill:#F393BE;}
	.st3{opacity:0.65;fill:#F38699;}
	.st4{fill:#DD6799;}
	.st5{fill:#FAC2B5;}
	.st6{fill:#F8951F;}
	.st7{opacity:0.65;fill:#EBA99F;}
	.st8{fill:#EBA99F;}
	.st9{opacity:0.5;fill:#BF8683;}
	.st10{fill:#A41E22;}
	.st11{fill:#F1B2D1;}
</style>
<g>
	<g>
		<g>
			<path class="st0" d="M6.7,55.7h41.8l3.2,18.1H28.8l4.8,27.1h20.1l3.2,18.1H36.8l4.9,27.7h23.2l3.2,18.1H25.9L6.7,55.7z"/>
			<path class="st0" d="M58.1,55.7h39.7l3.2,18.1H80.3l4.8,27.4h18.1l3.2,18.1H88.3l8,45.5h-19L58.1,55.7z"/>
			<path class="st0" d="M106.4,55.7h39.7l3.2,18.1h-20.7l4.8,27.4h18.1l3.2,18.1h-18.1l8,45.5h-19L106.4,55.7z"/>
			<path class="st0" d="M161.3,113l-1-5.6c-6.3-36,2.3-53.3,19.6-53.3s32,17.3,38.4,53.3l1,5.6c6.3,36-2.3,53.3-19.6,53.3
				S167.7,149,161.3,113z M200,113l-1-5.6c-4.9-28-10.2-35.8-16-35.8c-5.8,0-8.3,7.8-3.3,35.8l1,5.6c4.9,28,10.2,35.8,16,35.8
				C202.4,148.9,204.9,141.1,200,113z"/>
			<path class="st0" d="M218.5,55.7h19.6c19.5,0,35.5,10.3,39.8,34.7l0.2,1.4c2.5,14.2-1.5,23.2-7.7,28.7l22.4,44.2h-20.3l-19-38
				c-0.2,0-0.3,0-0.3,0h-3.3l6.7,38h-19L218.5,55.7z M248,109.6c8.3,0,13.5-4.8,11.2-17.6l-0.2-1.2c-2.4-13.7-9.6-17.3-17.8-17.3
				h-0.5l6.4,36.1H248z"/>
			<path class="st0" d="M292.3,73.8h-13.4l-3.2-18.1h45.8l3.2,18.1h-13.4l16,91h-19L292.3,73.8z"/>
			<path class="st0" d="M330.5,58.8l-0.5-3.1h22.4l0.5,3.1l6.1,72h-9.3L330.5,58.8z M345.8,143.1h21.5l3.8,21.7h-21.5L345.8,143.1z"
				/>
		</g>
		<g>
			<path class="st0" d="M0.9,27.9l-0.3-1.5C-1.8,12.3,2.9,5,11.5,5c2.3,0,4.3,0.5,6,1.2l1.4,7.9C16.8,13,15,12.3,13,12.3
				c-4.4,0-6.3,4.4-4.7,13.8l0.4,2.1c2,11.4,5.8,14,9,14c0.2,0,0.3,0,0.7-0.1l-2-11.2h-3.7l-1.2-6.8h10.7l4.1,23.2
				c-2.5,1.2-4.7,1.9-7.6,1.9C11,49.3,3.6,43.1,0.9,27.9z"/>
			<path class="st0" d="M23,5.3h7.9c7.8,0,14.2,4.1,15.9,13.9l0.1,0.6c1,5.7-0.6,9.3-3.1,11.5l9,17.7h-8.1L37,33.8
				c-0.1,0-0.1,0-0.1,0h-1.3L38.3,49h-7.6L23,5.3z M34.8,26.9c3.3,0,5.4-1.9,4.5-7l-0.1-0.5c-1-5.5-3.8-6.9-7.1-6.9h-0.2l2.6,14.5
				H34.8z"/>
			<path class="st0" d="M47.8,5.3h16.7l1.3,7.2h-9.1l1.9,10.9h8l1.3,7.2h-8l2,11.1h9.3l1.3,7.2H55.5L47.8,5.3z"/>
			<path class="st0" d="M74.5,5.2h8.1l16,43.8H91l-3-8.7h-6.9l0.2,8.7h-7.4L74.5,5.2z M85.7,33.5L80.8,19L81,33.5H85.7z"/>
			<path class="st0" d="M96.7,12.5h-5.4L90,5.3h18.3l1.3,7.2h-5.4l6.4,36.4h-7.6L96.7,12.5z"/>
		</g>
	</g>
	<g>
		<g>
			<path class="st1" d="M13.7,50.7h41.8l3.2,18.1H35.8l4.8,27.1h20.1l3.2,18.1H43.8l4.9,27.7h23.2l3.2,18.1H32.9L13.7,50.7z"/>
			<path class="st1" d="M65.1,50.7h39.7l3.2,18.1H87.3l4.8,27.4h18.1l3.2,18.1H95.3l8,45.5h-19L65.1,50.7z"/>
			<path class="st1" d="M113.4,50.7h39.7l3.2,18.1h-20.7l4.8,27.4h18.1l3.2,18.1h-18.1l8,45.5h-19L113.4,50.7z"/>
			<path class="st1" d="M168.3,108l-1-5.6c-6.3-36,2.3-53.3,19.6-53.3s32,17.3,38.4,53.3l1,5.6c6.3,36-2.3,53.3-19.6,53.3
				S174.7,144,168.3,108z M207,108l-1-5.6c-4.9-28-10.2-35.8-16-35.8c-5.8,0-8.3,7.8-3.3,35.8l1,5.6c4.9,28,10.2,35.8,16,35.8
				C209.4,143.9,211.9,136.1,207,108z"/>
			<path class="st1" d="M225.5,50.7h19.6c19.5,0,35.5,10.3,39.8,34.7l0.2,1.4c2.5,14.2-1.5,23.2-7.7,28.7l22.4,44.2h-20.3l-19-38
				c-0.2,0-0.3,0-0.3,0h-3.3l6.7,38h-19L225.5,50.7z M255,104.6c8.3,0,13.5-4.8,11.2-17.6l-0.2-1.2c-2.4-13.7-9.6-17.3-17.8-17.3
				h-0.5l6.4,36.1H255z"/>
			<path class="st1" d="M299.3,68.8h-13.4l-3.2-18.1h45.8l3.2,18.1h-13.4l16,91h-19L299.3,68.8z"/>
			<path class="st1" d="M337.5,53.8l-0.5-3.1h22.4l0.5,3.1l6.1,72h-9.3L337.5,53.8z M352.8,138.1h21.5l3.8,21.7h-21.5L352.8,138.1z"
				/>
		</g>
		<g>
			<path class="st1" d="M7.9,22.9l-0.3-1.5C5.2,7.3,9.9,0,18.5,0c2.3,0,4.3,0.5,6,1.2l1.4,7.9C23.8,8,22,7.3,20,7.3
				c-4.4,0-6.3,4.4-4.7,13.8l0.4,2.1c2,11.4,5.8,14,9,14c0.2,0,0.3,0,0.7-0.1l-2-11.2h-3.7l-1.2-6.8h10.7l4.1,23.2
				c-2.5,1.2-4.7,1.9-7.6,1.9C18,44.3,10.6,38.1,7.9,22.9z"/>
			<path class="st1" d="M30,0.3h7.9c7.8,0,14.2,4.1,15.9,13.9l0.1,0.6c1,5.7-0.6,9.3-3.1,11.5l9,17.7h-8.1L44,28.8
				c-0.1,0-0.1,0-0.1,0h-1.3L45.3,44h-7.6L30,0.3z M41.8,21.9c3.3,0,5.4-1.9,4.5-7l-0.1-0.5c-1-5.5-3.8-6.9-7.1-6.9h-0.2l2.6,14.5
				H41.8z"/>
			<path class="st1" d="M54.8,0.3h16.7l1.3,7.2h-9.1l1.9,10.9h8l1.3,7.2h-8l2,11.1h9.3l1.3,7.2H62.5L54.8,0.3z"/>
			<path class="st1" d="M81.5,0.2h8.1l16,43.8H98l-3-8.7h-6.9l0.2,8.7h-7.4L81.5,0.2z M92.7,28.5L87.8,14L88,28.5H92.7z"/>
			<path class="st1" d="M103.7,7.5h-5.4L97,0.3h18.3l1.3,7.2h-5.4l6.4,36.4h-7.6L103.7,7.5z"/>
		</g>
	</g>
</g>
<g id="Buddha_4_">
	<g>
		<path class="st2" d="M637.1,339.9l0.3,1.3l1.1-0.7c9.4-5.7,15.9-15.6,17.4-26.4c0-0.4,0.3-0.6,0.6-0.8c0.1,0,0.2-0.1,0.3-0.1
			c0.2,0,0.5,0.1,0.7,0.3c12.6,12,19.1,30.3,17.1,47.8l-0.2,2l1.7-1c7.9-4.9,14.2-11.9,18.3-20.2c0.2-0.3,0.5-0.5,0.8-0.5
			c0.4,0,0.7,0.1,0.9,0.5c14.1,23.1,11.3,54.9-6.5,75.5l-2,2.3l3-0.8c13.3-3.5,25-11.9,32.3-23c0.2-0.3,0.5-0.4,0.8-0.4
			c0.2,0,0.4,0.1,0.5,0.2c0.2,0.1,0.3,0.4,0.4,0.5c0.1,0.3,0.4,0.8,0.6,1.4l0.2,0.5c1.5,3,2.7,5.6,2.9,6.4c0.9,4.1,0.5,8.8,0,13.3
			c-1,9.1-4,17.9-8.6,25.6c-11.2,18.4-34.7,32.3-54.8,32.3c-4.7,0-9.2-0.8-13.5-2.3l-0.4-0.1l-0.3,0.2c-5.9,2.8-12.3,4.3-18.5,4.3
			c-1.1,0-2.2-0.1-3.5-0.2l-0.7-0.1l-0.3,0.6c-4.6,10.6-13.1,19.3-23.1,24c-5.9,2.7-12.5,4.2-19.3,4.2c-10.3,0-20.4-3.3-28.4-9.4
			l-0.5-0.4l-1.1,0.5c-0.3,0.2-0.6,0.3-0.9,0.5c-7.9,3.6-17.7,5.6-27.4,5.6c-15.6,0-28.9-4.9-36.5-13.5l-0.7-0.8l-0.7,0.9
			c-5,6-14,8.2-22.1,9.6c-4.4,0.7-8.6,1.1-12.5,1.1c-13.7,0-24.3-4.5-31.3-13.4l-0.5-0.6l-0.7,0.4c-5.1,3-11.2,4.6-17.7,4.6
			c-10.8,0-21.4-4.3-29.2-11.7l-0.4-0.6l-0.7,0.3c-4.5,1.8-9.3,2.7-14.5,2.7c-6.5,0-13.3-1.5-19.6-4.3c-9.6-4.3-18.6-11.7-26.6-21.9
			c-10.3-13.1-17.4-28.7-20.6-45.1c-0.8-4.1,0.1-7,2.5-7.9c0.5-0.2,1-0.3,1.6-0.3c2.4,0,4.6,2.3,6.1,3.9c6.6,6.9,16.7,8.8,24.8,9.6
			l2.6,0.3l-1.8-1.9c-17.4-18-17.4-41.1-16-61.4c0.1-1.8,0.7-4.1,2.6-4.7c0.3-0.1,0.6-0.1,0.9-0.1c1.5,0,2.9,1.2,3.5,1.8l20.3,18
			l-0.4-2.6c-2-13.4-1.1-27.4,2.6-40.4c1-3.5,2.5-7.2,5.8-9.1c1.3-0.7,2.8-1.1,4.6-1.1c2,0,4.1,0.5,5.7,0.9
			c13.5,3.7,25.9,10.9,35.8,20.8l1.6-1c-5.4-15.4-6.2-32.5-2.2-48.1c0.1-0.4,0.5-0.7,0.9-0.7c0.1,0,0.2,0,0.2,0
			c22.2,5.2,41.4,22.9,54.5,40.8c1.5-19.8,12.7-37.1,26.1-52c9.5,7,18.5,18,23.4,28.7c5,10.7,6.1,20.9,8.9,32.3
			c2.6-11.1,5.2-22.3,9.7-32.9c4.5-10.5,11-20.4,20.2-27.3c19.4,18,25.8,36.4,29.5,59.5c6.6-15.1,16-26.9,25.9-40
			c-0.3,0.5,3.6,8.6,4,9.7c1.1,3.1,2.3,6.5,2.4,9.9c0.2,6.9,1.4,13.6,0.3,20.5c8-7.3,15.3-15.3,21.9-23.9c0.4-0.5,0.9-1.1,1.5-1.1
			c0.7,0,1.2,0.7,1.5,1.3C629.6,321.3,634.7,329.3,637.1,339.9z"/>
		<path class="st3" d="M724.5,396.2c0,0-0.1-0.1-0.1-0.2c0-0.1-0.2-0.3-0.4-0.5c-0.2-0.1-0.3-0.2-0.5-0.2c-0.3,0-0.6,0.2-0.8,0.4
			c-7.3,11.2-19,19.6-32.3,23l-3,0.8l2-2.3c17.9-20.6,20.6-52.3,6.5-75.5c-0.2-0.3-0.5-0.5-0.9-0.5c-0.3,0-0.7,0.2-0.8,0.5
			c-4.1,8.3-10.4,15.3-18.3,20.2l-1.7,1l0.2-2c2-17.5-4.5-35.8-17.1-47.8c-0.2-0.2-0.4-0.3-0.7-0.3c-0.1,0-0.2,0-0.3,0.1
			c-0.3,0.1-0.6,0.4-0.6,0.8c-1.5,10.8-8,20.7-17.4,26.4l-1.1,0.7l-0.3-1.3c-1.4-6.1-3.6-12-6.4-17.5c-2.3-4.6-5.7-7.6-8.7-11.6
			c-8.2,8.3-15.1,17.2-24.4,24.5c2.3-13.2,0.8-27-4.5-39.3c-10.2,12.7-18.9,26.6-25.8,41.3c-1.9-11.5-3.8-23.2-8.3-34
			c-4.5-10.8-11.9-20.8-22.3-26.1c-17.5,14.4-24.4,37.6-30,58.7c-1.6-11.7-4.2-23.4-9.3-34.1c-5.2-10.6-13.1-20.2-23.5-25.9
			c-6.6,7.3-12.1,15.6-16.6,24.4c-2.1,4.1-3.8,8.4-5.4,12.7c-0.8,2.2-5.1,12.7-3.5,14.7c-13.7-17.6-31.7-36-54.1-41.2
			c-0.1,0-0.2,0-0.2,0c-0.4,0-0.8,0.3-0.9,0.7c-3.9,15.6-3.2,32.7,2.2,48.1l-1.6,1c-9.9-9.9-22.3-17.2-35.8-20.8
			c-1-0.3-2.3-0.6-3.6-0.8c-1.8,2.4-3.1,5.3-4.5,8.6c-3.4,8.1-5.2,16.9-5.2,25.8c0,4.4,0.1,21.4,4.4,24c-3.1-1.9-6.3-3.7-9.4-5.6
			l0,0.2l-0.6-0.5c-0.2-0.1-0.4-0.2-0.5-0.3c6.4,6.1,12.8,12.2,19.2,18.3c1.1,1.1,2.3,2.3,2.8,3.8c0.8,3.1-2,6.2-5.2,6.7
			c-3.1,0.5-6.3-0.8-9.1-2.4c-12.6-7-22.3-19.1-26.3-33c2.2,18.4,12.2,35.7,27,46.9c-1.5,0.6-3,1-4.6,1.3c-5.4,1-11.1,0.7-16.3-0.8
			c-0.6-0.2-2.1-0.7-4-1.5c1.8,2.8,3.9,5.4,6.4,8l1.8,1.9l-2.6-0.3c-1.6-0.2-3.3-0.4-5-0.6c3.6,1.5,7.5,2.2,11.4,2.9
			c5.3,1,10.7,2,15.1,5c2.6,1.8,4.9,5.5,2.8,7.9c-1,1.2-2.8,1.5-4.4,1.6c-5.5,0.4-11-0.3-16.2-2c7.7,4.3,16.1,7.4,24.7,9.4
			c-22.2,0.1-44-11.5-56.5-29.8c8.4,17.1,16,33,31.1,45.5c15.1,12.5,35.6,19.4,54.8,15.3c7.7-1.7,15-5,22.7-7.1
			c11.6-3.1,22.2,0,33.6,2.1c36.1,6.7,72.7,13.5,109.3,11.2c31.1-1.9,62.3-6,93.3-9.2c11.6-1.2,23.4-2.4,34.6-5.9
			c11.2-3.4,21.9-9.3,29.4-18.3c-8.2,4-17.1,6.7-26.2,7.8c0.7-3,1.3-5.9,2-8.9c14.5-0.9,28.2-9.6,35.1-22.4
			c-1.2,7.6-4.5,14.8-9.5,20.6C721,429.2,725.3,412.5,724.5,396.2z"/>
		<path class="st4" d="M720.1,408.6c-3.4,21.2-22.7,32-42.5,34.3c-9.8,1.1-19.8,0.4-29.5-1.4c-3.2-0.6-6.3-1.5-9.4-2.5
			c3.8-4,7.4-8.5,12.2-11.4c5.7-3.5,12.4-4,18.9-4.7c4.6-0.5,10.8,0.6,14.8-2c3-2,4.9-5.1,6.7-8.2c6.8-11.7,13-24.7,11.4-38.2
			c-1.3,7.2-3.1,14.4-6.8,20.7c-3.7,6.3-9.2,11.8-16.2,14.1c-3,1-6.4,1.3-9-0.5c-1.4-1-2.3-2.4-3.1-3.9c5.9-3.6,11.1-8.9,14.6-13.6
			c8.1-10.8,11.1-24.1,11.4-37.4c-1.9,12.7-5.9,25-13.8,35.3c-3.6,4.7-7.8,8.6-12.8,11.8c-0.4,0.3-0.9,0.5-1.3,0.8
			c-3.2-4.9-7.3-9.2-12.2-12.5c8.3-6.5,15.4-14.7,20.6-23.9c-8.9,9.1-21,15-33.6,16.7c-2.9,0.4-6,0.5-8.7-0.7
			c-1.5-0.7-2.7-1.7-3.7-3c7.5-3.4,14.4-10.2,18.8-16c7.6-10,11.1-22,11.1-34.5c-0.5,9.8-3.1,19.2-8.2,27.4c1.4-2.6,2.5-5.2,3.3-7.6
			c-3.4,8.2-8.8,15.4-16.1,20.5c-3.6,2.6-7.6,4-11.6,5.5c-0.6-1.5-1.1-3-1.6-4.5c7.8-7.7,11.5-19.2,10.4-30
			c-0.6-5.3-2.3-10.9-4.2-15.8c-0.4-1.2-8.1-14.1-8.7-13.3c-3.3,5.1-6.6,9.9-10.8,14.4c-2.1,2.3-4.3,4.4-6.7,6.4
			c-1.2,1-6.6,4.1-6.9,5.4c2.2-10,1.8-20.4-1-30.2c1.3,16-4.2,32.5-14.8,44.5c5.1-13.4,8.6-27.3,10.4-41.5
			c-2.2,14-8.6,27.4-18.2,37.8c-1,1-2.2,2.2-3.6,1.9c-1.8-0.4-2.3-2.6-2.5-4.5c-2.1-19.1-8.5-37.8-18.6-54.2
			c5.2,8.5,9.2,17.3,11.1,27.1c1,4.8,1.7,9.9,1.4,14.9c-0.2,4.5,0.4,9.3-0.5,13.8c-0.8,4.2-3,8.3-6.7,10.5c-3.7,2.2-9,1.9-11.7-1.3
			c-2.6-3.1-2.4-7.6-2.1-11.7c1.2-17.3,0.2-34.8-2.8-51.9c0.9,14.8,0.4,29.7-2,44.3c-0.8,4.9-1.9,9.9-4.7,14.1
			c-2.8,4.1-7.8,7.1-12.7,6.3c-4.3-0.7-7.7-4.3-9.5-8.3c-1.8-4-2.2-8.5-2.5-12.8c-0.9-12-5.9-22.9-9.9-34.1
			c4.6,14.2,7.1,29.4,3.9,44c-0.5,2.3-1.4,4.9-3.6,5.8c-2,0.8-4.3-0.1-5.8-1.6c-1.5-1.5-2.2-3.6-2.9-5.6c-5.7-16.5-8-33.9-10.2-51.2
			c1.2,16.1,1.3,32.3,0.2,48.5c-0.2,3.5-0.8,7.5-3.7,9.4c-2.7,1.8-6.4,1-8.9-1c-2.5-1.9-4.2-4.8-5.9-7.5
			c-7.4-12.1-16.6-23-27.3-32.4c-5.4-4.7-11.1-9.1-17.1-13c-6.1-3.9-12.8-5.4-19.4-8.3c0.7,0.3,0.9,15.7,1.1,17.5
			c0.7,6,1.9,12,3.4,17.9c1.5,5.9,3.4,11.7,5.6,17.4c1.9,4.8,5.1,8,7.7,12.4c-8.9-2.3-17.2-9.2-22.5-16.5c6.4,9.2,13.4,20.2,10.6,32
			c-1.2,5.2-3.9,10.2-7.6,14.1c-3-2.6-6.2-4.9-8.9-7.7c-4.4-4.7-8.4-9.8-12-15.1c-7.1-10.5-13-22-17.7-33.8
			c-0.1-0.1-0.2-0.1-0.2,0.1c5.6,13.2,10.8,26.5,18.7,38.5c4.4,6.7,10.4,15.3,17.5,20.5c-3.5,2.9-7.5,4.9-12.1,5.4
			c-10.9,1.4-22.2-3.9-29.1-12.4c8.1,9.6,16,19,24.9,27.9c2.6,2.6,5.4,5.5,5.5,9.2c0.1,4.7-4.6,8.4-9.3,9c-4.2,0.5-7.8-1.8-11.7-1.7
			c4.8,5.4,11,10,17.7,13.8c-5.7,1.6-11.4,2.6-17.2,2.8c-23.3,0.8-44.1-9.5-59-27.2c0-0.1-0.1,0-0.1,0.1
			c13.2,19,36.1,30.1,59.1,31.1c8.5,0.3,17.1-0.4,25.3-2.5c8,3.8,16.3,6.9,23.7,9.5c18.3,6.3,37.2,10.2,56.2,14
			c6.6,1.3,13.4,2.7,20,1.5c5.1-0.9,10.1-3.6,13.1-7.7c-0.6,3.8,1.1,8.2,4.3,10.8c4.3,3.6,10.3,4.4,15.9,5
			c21.4,2.1,43.3,1.8,64.2-3.3c19.3-4.7,37.9-13.7,52.4-27.4c5.9,1.6,12.2,2.4,17.8,3c11.3,1.1,23.1,0.8,34.1-2.1
			C703.8,439.3,719,427.1,720.1,408.6z"/>
		<g>
			<path class="st0" d="M316.4,443.3c-7.2-12.3-12.5-25.4-19.2-37.9c-1.4-2.6-5.8-0.8-4.9,2.1c7.8,25,23.8,58.9,51.3,67.2
				c0.2,0.1,0.3-0.2,0.2-0.3C333.3,464.9,323.6,455.7,316.4,443.3z"/>
			<path class="st0" d="M325.8,407.1c-7-17.7-10.8-37.2-8.1-56.2c0.5-3.2-4.5-4.6-5-1.4c-3.1,20.8,0.1,40.6,12.9,57.6
				C325.6,407.2,325.8,407.2,325.8,407.1z"/>
		</g>
		<path class="st1" d="M729.1,404c-0.2-0.8-1.1-2.8-2.9-6.6c-0.4-0.8-0.7-1.5-0.8-1.7c-0.1-0.4-0.4-0.8-0.8-1
			c-0.9-0.6-2.1-0.3-2.6,0.6c-7.3,11.2-18.9,19.3-31.7,22.6c18-20.7,20.9-53.1,6.6-76.6c-0.4-0.6-1-0.9-1.7-0.9
			c-0.7,0-1.3,0.4-1.6,1.1c-4,8.1-10.3,15.1-18,19.8c2-17.6-4.6-36.3-17.4-48.5c-0.5-0.5-1.3-0.7-1.9-0.4c-0.7,0.2-1.2,0.8-1.3,1.5
			c-1.4,10.4-7.7,19.9-16.5,25.5c-1.4-10.7-8.6-24.4-14.8-31c-0.4-0.4-1-0.7-1.6-0.6c-0.6,0-1.1,0.4-1.5,0.8
			c-5.6,8.2-12.2,15.6-19.8,22.1c2-12.3-0.5-25.5-6.8-36.2c-0.3-0.6-0.9-0.9-1.6-0.9c-0.6,0-1.3,0.3-1.7,0.8
			c-8.6,11.4-16.2,23.6-22.6,36.3c-3.3-21.9-14.3-42.4-31-57c-0.4-0.3-0.9-0.5-1.4-0.5c-0.5,0-1,0.3-1.3,0.7
			c-12.8,14.7-22.2,32.8-27,51.8c-4.1-20.2-15.2-39.1-31.2-52c-0.4-0.3-0.9-0.5-1.5-0.4c-0.5,0.1-1,0.3-1.3,0.8
			c-1.5,2-3,3.9-4.4,5.8c-10,13.2-19.5,25.7-21.3,42.4c-7.5-10.5-18.9-24.1-43.3-33.4c-2.6-1.1-5.3-2-8-2.7c-0.1,0-0.2-0.1-0.2-0.1
			l0,0c-0.5-0.1-1-0.3-1.5-0.4c-1-0.2-2,0.4-2.3,1.4c-4,16-3.2,33.1,2.2,48.7c-10-10-22.5-17.3-36.3-21.1c-3.4-0.9-7.4-1.6-10.9,0.2
			c-3.6,2-5.2,6-6.3,9.6c-3.8,13.2-4.7,27.2-2.6,40.8L320,349c-0.9-0.8-2.9-2.6-5.3-1.8c-1.4,0.4-3,1.7-3.3,5.5
			c-1.4,20.7-1.3,43.9,16.3,62.1c-9.3-1-18.3-3-24.2-9.3c-2-2.1-5.1-5.4-8.7-3.9c-2.8,1.2-3.9,4.4-3,9c3.2,16.5,10.4,32.2,20.8,45.5
			c8.1,10.4,17.2,17.8,27,22.2c6.5,2.9,13.4,4.4,20,4.4c5.2,0,10.2-0.9,14.8-2.7c0,0,0,0,0,0c8.2,7.9,19.3,12.1,29.9,12.1
			c6.5,0,12.8-1.5,18.2-4.7c7.2,9.1,18,13.7,32,13.7c4,0,8.2-0.4,12.7-1.1c8.5-1.4,17.6-3.8,22.7-10c8.4,9.5,22.7,13.9,37.2,13.9
			c9.8,0,19.7-2,27.8-5.7c0.5-0.2,1-0.5,1.5-0.8c8.3,6.3,18.6,9.6,29,9.6c6.7,0,13.5-1.4,19.7-4.2c10.6-4.9,19-13.8,23.6-24.4
			c1.2,0.1,2.4,0.2,3.6,0.2c6.5,0,13-1.5,18.9-4.4c4.4,1.6,9.1,2.3,13.8,2.3c21.7,0,44.8-15,55.6-32.8c4.7-7.8,7.8-16.8,8.8-26
			C729.6,413.1,730,408.3,729.1,404z M315.2,353c0.1-1.7,0.5-2.1,0.6-2.1c0.1,0,0.4-0.1,1.7,1l21.8,19.2c0.1,0.1,0.2,0.1,0.2,0.2
			c0,0,0,0.1,0,0.1l0.1,0c9,8,18.3,16.2,27.1,24.7c-3.2,7.7-5.9,15.9-7.6,24.6c-7.7-4-16.7-4.8-25.4-5.4
			C316,399.6,313.4,379.7,315.2,353z M341,474.8c-9.2-4.1-17.8-11.2-25.5-21.1c-10-12.8-16.9-27.9-20-43.9c-0.4-1.9-0.4-4.3,0.8-4.8
			c1.2-0.5,3.2,1.5,4.6,3c7.6,8.1,19.2,10,30.5,10.8l1.7,0.1c8.9,0.7,18.1,1.4,25.5,5.6c-0.3,2-0.5,4-0.7,6
			c-1.4,17.8,3.7,34.8,13.6,46.3C362.1,480.1,351.2,479.4,341,474.8z M376.9,477.2c-11-10.6-16.7-27.9-15.3-46.3
			c1.3-17.1,8.1-33.1,14.7-46.7c23,13.9,38.1,39.6,39.2,66.4c-2.6,10.9-1.7,21.6,2.8,30.4v0c0.6,1.1,1.2,2.2,1.9,3.2
			C407.3,491.6,388.8,488.7,376.9,477.2z M488.4,485.1c-3.5,7.1-13.1,9.6-22,11.1c-22,3.7-37.1-2-44.7-17v0
			c-5.9-11.5-4.9-26.9,2.6-41.2c6.6-12.5,16.8-22.6,26.9-32.4c10.1,9.4,20.4,19.2,27.6,31.1c5.6,9.2,9.1,21,10.7,36.1
			C490,477.1,490.1,481.5,488.4,485.1z M491,458.7c-2-9.3-5-17.2-9-23.8c-7.8-12.9-18.9-23.2-29.6-33.1c-0.7-0.7-1.9-0.7-2.6,0
			c-10.7,10.3-21.8,21-28.9,34.6c-0.9,1.8-1.7,3.5-2.5,5.3c-3.8-25.5-19.5-48.9-41.9-61.7c-0.5-0.3-1-0.3-1.5-0.2
			c-0.5,0.2-0.9,0.5-1.1,1c-1.8,3.7-3.7,7.6-5.5,11.7c-8.2-8-16.9-15.6-25.3-23.1c-3-14.5-2.4-29.6,1.7-43.8c0.8-2.9,2-6,4.4-7.3
			c2.3-1.2,5.4-0.6,8.1,0.1c17.1,4.7,32.2,15.1,42.6,29.5c0.6,0.8,1.7,1,2.5,0.5c0.8-0.5,1.1-1.6,0.7-2.5
			c-9.1-16.9-11.8-37.2-7.5-56c2.2,0.6,4.6,1.3,6.9,2.1c24.8,9.4,36,23.5,45.3,37.2c0.5,0.7,1.4,1,2.2,0.8c0.8-0.3,1.4-1,1.4-1.9
			c-0.1-18.4,9.6-31.2,20.8-45.9c1.1-1.4,2.1-2.8,3.2-4.2c17.3,14.8,28.4,36.9,29.7,59.6c0.1,1,0.9,1.8,1.9,1.8c1,0,1.9-0.7,2-1.7
			c3.3-21.8,13-43,27.2-59.9c16.8,15.4,27.3,37.1,29,59.8c0.1,0.9,0.7,1.6,1.6,1.8c0.9,0.2,1.7-0.3,2.1-1.1
			c6.5-13.8,14.3-27,23.3-39.3c5.6,11,7.1,24.3,3.8,36.1c-0.2,0.8,0.1,1.7,0.8,2.1c0.7,0.5,1.6,0.4,2.3-0.1
			c9-6.9,16.9-15.1,23.4-24.3c3.5,4.4,7.2,10.9,9.6,17.4c1.4,3.9,2.1,8.7,2.9,12.7c0.1,0.6,0.5,1.1,1,1.3c0.5,0.3,1.2,0.3,1.7,0
			c10.2-5.2,17.8-15,20.5-26.2c11.2,12.3,16.3,30.2,13.2,46.5c-0.1,0.7,0.1,1.4,0.7,1.9c0.6,0.4,1.4,0.5,2,0.2
			c8.9-4.6,16.3-11.7,21.3-20.4c11.7,22.1,6.4,54.1-10.5,72.8c-2.8,0.4-5.6,0.6-8.4,0.6c-0.8-3.6-1.9-7.2-3.5-10.6
			c-6.9-15-21-26.8-37.6-31.6c-0.6-0.2-1.3,0-1.7,0.4c-0.5,0.4-0.7,1-0.7,1.6c1.8,17.7-1.8,35.9-9.9,51.7
			c-4.4-5.9-10.1-10.8-16.7-14.1c-0.6-0.3-1.3-0.3-1.9,0.1c-0.6,0.4-0.9,1-0.9,1.6c0.3,16.9-9.3,33.6-23.6,42.5
			c0.3-4.1,0.3-8.4-0.1-13c-1.9-21.8-17.3-42.1-38.4-50.5c-0.5-0.2-1-0.2-1.5,0.1c-0.5,0.2-0.8,0.7-1,1.2
			c-3.8,12.5-14.3,21.8-24.4,30.8l-2.3,2C503.7,439.3,495.1,448.1,491,458.7z M553.1,494.7c-19.2,8.8-48.7,7.5-61.3-8.1
			c2.1-4.4,2-9.4,1.4-14.1c-0.2-1.7-0.4-3.4-0.6-5.1c1.7-13.1,12-23.9,22-32.8l2.2-2c10-8.9,20.3-18,24.9-30.6
			c18.8,8.3,32.4,26.7,34.2,46.5C577.9,471.7,570.5,486.8,553.1,494.7z M603.3,499.3c-13.9,6.4-30.9,4.7-43.4-3.9
			c10.7-6.5,17.1-16.3,19.3-29.4c16-8.6,27-25.9,28-44.1c13.2,7.9,21.8,22.9,21.5,38.3C628.4,476.7,618.2,492.4,603.3,499.3z
			 M629.9,474.6c1.6-4.6,2.5-9.4,2.6-14.3c0.1-9-2.5-17.9-7.2-25.6c8.7-16,12.8-34.6,11.5-52.8c14.5,4.9,26.5,15.5,32.6,28.7
			c1.8,4,3.1,8.2,3.7,12.5l0,0.3c0,0,0,0,0.1,0c1.7,11.3-0.5,23.1-6.5,32.4C658.7,468.1,644,475.5,629.9,474.6z M725.3,417.2
			c-0.9,8.7-3.8,17.1-8.2,24.5c-11.7,19.3-39.5,35.1-61.5,29.9c5.6-3.5,10.6-8.2,14.2-13.8c6.4-9.8,8.8-22.3,7.1-34.4
			c18-0.1,35.5-9,46.2-23.4c0.8,1.7,2,4.2,2.2,4.8C726.2,408.5,725.8,413,725.3,417.2z"/>
	</g>
	<g id="Buddha_6_">
		<path class="st5" d="M523.4,419.4c-8.5,0-16.3-0.3-22.2-0.5c-17.4-0.7-33.5-4.1-47.8-10.2c-12.3-5.2-22.1-12.9-28.4-22.1
			c-7.3-10.7-9.7-23.8-6.4-35c3.5-11.8,13.5-20.9,24.9-22.7l0.6-0.1l0-0.6c0.1-1.6,0.8-3.1,1.9-4.4c1.2-1.4,2.9-2.2,4.6-2.4l0.5-0.1
			l0.7-1.8l-1-0.1c-5.6-0.6-10.6-2.5-14.4-5.6c-10.4-8.4-11.1-23.8-7.4-34.5c3.8-10.9,11.6-19.9,19.2-28.3l0.3-0.3l-0.1-0.4
			c-0.1-0.3-0.2-0.6-0.2-1c-0.8-4,0.1-7.9,2.5-10.5c1.4-1.5,3.2-2.3,5-2.3c0.3,0,0.7,0,1,0.1c1,0.2,1.9,0.7,2.6,1.6l1.4,1.7l0-2.2
			c0-0.1,0-0.3,0-0.4c0-0.4-0.1-0.8-0.1-1.3c-0.2-1.4-0.4-2.9,0.1-4.3c0.4-1.3,1.6-2.3,3-2.5c0.2,0,0.3,0,0.5-0.1l0.7,0l0.1-0.7
			c0.4-2.7,1.7-6.1,4.5-7.7c0.9-0.5,1.9-0.8,2.9-0.8c1,0,2,0.2,3,0.7l0.5,0.2l0.4-0.4c0.6-0.6,1.4-1.1,2.4-1.7l1.1-0.6l-1.1-0.7
			c-25.2-17.1-39-42.3-36.9-67.4c0.3-4,1-8.1,2.1-12.5l0.1-0.3l-0.1-0.3c-3.3-7.3-3.4-16.8-2.6-22.8c0.4-2.7,0.9-5.3,2.2-7.6
			c1.5-2.7,4.1-4.5,6.6-4.6c0.1,0,0.2,0,0.4,0c1.5,0,3,0.6,4.1,1.7c0.1,0.1,0.1,0.1,0.2,0.2l0.2,0.2l0.9,1l0.6-1.6
			c0.6-1.6,1.2-3.2,1.8-4.7c1.9-5.1,3.5-10.5,5.1-15.6c4.7-14.9,9.5-30.2,19.2-42.6C498.1,20,524.2,8.3,553.6,8.3
			c8.1,0,16.4,0.9,24.4,2.8c25.9,5.9,49,21.6,63.4,43.3c14.6,21.9,20,50,14.6,75.2c-2.4,11.2-6.9,22.3-14.3,35.2l-0.6,1.1l1.3,0
			c1,0,1.9,0.3,2.6,0.8c2.4,1.7,3,5,2.5,7.4c-2.1,10.2-12.3,17.9-21.3,20.1l-0.4,0.1l-0.1,0.4c-0.7,1.8-1.7,4.1-3.1,6.4
			c-5.4,9-11.6,16.5-18.4,22.4c-7,6-16.6,10.5-27.7,13l-1.4,0.3l1,1c1.8,1.9,2.8,4.6,2.6,7.1l-0.1,0.8l0.8,0.1
			c2,0.3,4.5,0.8,6.3,2.5c1.3,1.2,2,3.2,1.7,5.1c0,0.1,0,0.3-0.1,0.4l-0.2,0.9l0.9,0.1c2.2,0.2,4.2,1,6,2.3c2.8,2.3,4.5,5.8,4.6,9.8
			c0.1,3.4-0.9,7.1-3.1,11.2l-0.2,0.4l0.2,0.4c2.8,5.1,5.1,10.4,6.9,15.6c2.1,6.1,5.9,21.6-3.3,32.2c-1.9,2.1-4.2,4-7.1,5.6
			l-1.4,0.8l1.5,0.6c12.3,5.1,18.4,19,20,29.4c1.7,11.8-1.8,24.4-9.4,33.6c-5.6,6.8-13.7,12.3-23.5,15.8c-7.7,2.8-16.2,4.5-27.8,5.6
			C542.7,419,533.6,419.4,523.4,419.4z"/>
		<g>
			<path class="st6" d="M611.9,363.2c-1.8-12.6-11.9-33.6-27.6-28.4c-19.1,6.3-38.4,6.5-58.3,5.2c-1.8-0.1-3.3-0.8-5.2-0.7
				c-1,0.1-2.1,0.2-3.1-0.3c-1-0.4-1.7-1.6-1.2-2.6c-1.2,0.5-2.6-0.6-2.8-1.8c-0.7-4.6,9.8-7.7,13-8.3c0.8-0.1,1.8-0.3,2.3-1
				c0.3-0.4,0.4-1,0.5-1.5c0.8-3.3,3.5-5.6,6.6-6.5c1.8-0.5,5.7-1.1,5.3,2c-0.1,0.7-0.6,1.3-0.9,1.9c-0.3,0.6-0.5,1.5,0.1,2
				c0.3,0.3,0.8,0.3,1.2,0.3c3.4,0,6.7-1.7,8.5-4.5c-1.4-0.2-2.8-0.5-4.1-1.1c-1.3-0.6-2.4-1.8-2.7-3.1c-1.1-5,6.8-7.1,10.4-6.9
				c1.2,0.1,2.4,0.3,3.5-0.2c0.8-0.4,1.3-1.1,1.8-1.8c1.9-2.9,3.2-6.3,5.4-8.9c2.3-2.7,4-5.7,5.7-8.8c2-3.8,3.9-7.6,6.3-11.1
				c2.3-3.4,5.3-5.6,7.7-8.7c0.8-1.1,2.2-2.1,3.5-1.5c0.7,0.3,1.1,1.1,1.5,1.8c1.6,3,3.1,6,4.7,9c2.8-2.8,4.7-6.7,4.7-10.7
				c-0.1-4-1.8-7.5-4.6-9.8c-1.7-1.4-3.8-2.2-6-2.3l-0.9-0.1l0.2-0.9c0-0.1,0.1-0.3,0.1-0.4c0.3-1.8-0.4-3.8-1.7-5.1
				c-1.8-1.7-4.3-2.2-6.3-2.5l-0.8-0.1l0.1-0.8c0.3-3.6-2-5.6-3.4-8.6c-11,2-22.3,2.8-33.5,2.1c-5.8,10.1-13.5,19-22.5,26.3
				c-10.9-8.6-19.4-19.9-23.7-33.2c-0.6-1.9-1.2-3.9-2.5-5.4c-1.2-1.4-2.9-2.2-4.6-2.9c-2.8-1.3-5.7-3-8.6-3.8
				c-1.4-0.4-1.5-0.8-2.8-0.2c-0.1,0.1-1.4,1.3-1.5,1.3c0,0-0.5-0.2-0.5-0.2c-1-0.5-2-0.7-3-0.7c-1,0-2,0.3-2.9,0.8
				c-2.8,1.6-4.2,5-4.5,7.7l-0.1,0.7l-0.7,0c-0.2,0-0.3,0-0.5,0.1c-1.3,0.3-2.5,1.3-3,2.5c-0.5,1.4-0.3,2.9-0.1,4.3
				c0.1,0.4,0.1,0.8,0.1,1.3c0,0.1,0,0.3,0,0.4l0,2.2l-1.4-1.7c-0.7-0.8-1.6-1.4-2.6-1.6c-0.3-0.1-0.7-0.1-1-0.1
				c-1.8,0-3.6,0.9-5,2.3c-5.9,6.3-0.7,15.8,3.9,21.3c1.1,1.4,15,13,15,12.8c0.6-1.9,1-4.5,2.5-5.8c1-0.8,2.7-0.9,3.4,0.1
				c-1.9-2.9,3.9-12.4,7.4-8.5c-0.2-2.6,1.7-5.4,4.4-5.6c3.3-0.3,6.3,3.5,5.2,6.6c0.3-0.7,2.5-1.9,3.2-2.1c1.9-0.4,2.4,0.3,3,2
				c1.8,5.5,1.7,11.5,3.4,16.9c1.3-0.5,2.5-2.7,3.9-2.5c1,0.2,1.7,1.1,2,2.1c0.3,1,0.4,2,0.6,3c0.6,2.3,2.4,4.2,3.2,6.5
				c1.1,3.2,0,6.8-1.4,9.9c-2.1,4.5-4.9,8.7-8.3,12.4c-1.6,1.7-3.6,3.4-5.9,3.4c-2,0-3.8-1.3-5.8-1.4c-2.2-0.2-4.2,1-6.3,1.7
				c-2.1,0.7-4.7,0.9-6.1-0.8c-4.5,4.1-10.7,6.3-16.8,6.2c-2.7-0.1-5.7-0.4-7.6,1.4c-0.9,0.8-1.4,2-2,3c-1.3,2-3.6,2.2-5.8,2.7
				c-1,1.2-1.6,2.6-1.7,4.1l0,0.6l-0.6,0.1c-11.4,1.7-21.4,10.8-24.9,22.7c-3.3,11.2-0.9,24.2,6.4,35c6.3,9.3,16.1,16.9,28.4,22.1
				c14.3,6.1,30.4,9.6,47.8,10.2c5.9,0.2,13.8,0.5,22.2,0.5c10.2,0,19.3-0.4,27.9-1.2c11.6-1.1,20.1-2.8,27.8-5.6
				c9.8-3.6,17.9-9,23.5-15.8C610.2,387.6,613.7,375.1,611.9,363.2z"/>
			<g>
				<path class="st7" d="M645,166.8c-0.7-0.5-1.6-0.8-2.6-0.8l-1.3,0l0.6-1.1c2.8-5,4.2-10.3,7.3-14.2c-7.6,10-9.7,10.1-24.4,36.4
					c-6.9,12.3-19.5,23.2-32.1,29.5c-39.8,20-96.2,8.3-125.5-26.6c-4.9-5.9-9.1-12.6-12.2-20.2c-7.9-18.9-7.8-41,0.1-59.9
					c1.4-3.3,3.1-6.7,3.1-10.4c0-0.4,0-0.8-0.1-1.2c-0.1,0.2-0.1,0.4-0.2,0.5c-0.6,1.6-1.2,3.2-1.8,4.7l-0.6,1.6l-0.9-1l-0.2-0.2
					c-0.1-0.1-0.1-0.1-0.2-0.2c-1.1-1.1-2.6-1.7-4.1-1.7c-0.1,0-0.2,0-0.4,0c-2.6,0.1-5.1,1.9-6.6,4.6c-1.3,2.3-1.8,4.9-2.2,7.6
					c-0.9,5.9-0.7,15.5,2.6,22.8l0.1,0.3l-0.1,0.3c-1.1,4.4-1.8,8.5-2.1,12.5c-2.1,25.2,11.7,50.4,36.9,67.4l1.1,0.7l-1.1,0.6
					c-1,0.6-1.8,1.1-2.4,1.7l-0.4,0.4l-0.5-0.2c-1-0.5-2-0.7-3-0.7c-1,0-2,0.3-2.9,0.8c-2.8,1.6-4.2,5-4.5,7.7l-0.1,0.7l-0.7,0
					c-0.2,0-0.3,0-0.5,0.1c-1.3,0.3-2.5,1.3-3,2.5c-0.5,1.4-0.3,2.9-0.1,4.3c0.1,0.4,0.1,0.8,0.1,1.3c0,0.1,0,0.3,0,0.4l0,2.2
					l-1.4-1.7c-0.7-0.8-1.6-1.4-2.6-1.6c-0.3-0.1-0.7-0.1-1-0.1c-1.8,0-3.6,0.9-5,2.3c-2.4,2.6-3.3,6.5-2.5,10.5
					c0.1,0.3,0.1,0.6,0.2,1l0.1,0.4l-0.3,0.3c-7.7,8.4-15.4,17.4-19.2,28.3c-3.7,10.7-3,26.1,7.4,34.5c3.8,3.1,8.8,5,14.4,5.6l1,0.1
					l-0.7,1.8l-0.5,0.1c-1.7,0.2-3.3,1.1-4.6,2.4c-1.1,1.3-1.8,2.8-1.9,4.4l0,0.6l-0.6,0.1c-11.4,1.7-21.4,10.8-24.9,22.7
					c-3.3,11.2-0.9,24.2,6.4,35c6.3,9.3,16.1,16.9,28.4,22.1c14.3,6.1,30.4,9.6,47.8,10.2c5.9,0.2,13.8,0.5,22.2,0.5
					c10.2,0,19.3-0.4,27.9-1.2c11.6-1.1,20.1-2.8,27.8-5.6c9.8-3.6,17.9-9,23.5-15.8c7.6-9.2,11.1-21.8,9.4-33.6
					c-1.5-10.4-7.7-24.4-20-29.4l-1.5-0.6l1.4-0.8c2.9-1.7,5.2-3.5,7.1-5.6c9.2-10.6,5.4-26,3.3-32.2c-1.8-5.2-4.1-10.5-6.9-15.6
					l-0.2-0.4l0.2-0.4c2.2-4.1,3.2-7.7,3.1-11.2c-0.1-4-1.8-7.5-4.6-9.8c-1.7-1.4-3.8-2.2-6-2.3l-0.9-0.1l0.2-0.9
					c0-0.1,0.1-0.3,0.1-0.4c0.3-1.8-0.4-3.8-1.7-5.1c-1.8-1.7-4.3-2.2-6.3-2.5l-0.8-0.1l0.1-0.8c0.2-2.5-0.7-5.2-2.6-7.1l-1-1
					l1.4-0.3c11.1-2.5,20.7-7,27.7-13c6.8-5.8,13-13.4,18.4-22.4c1.4-2.3,2.4-4.6,3.1-6.4l0.1-0.4l0.4-0.1c9-2.3,19.2-9.9,21.3-20.1
					C648,171.8,647.4,168.5,645,166.8z M577.9,311.3c4.5-3.1,10.1-6.4,15.3-4.4c5.4,2.1,7.2,9.3,5.1,14.7c-2.2,5.3-7.2,9-12.3,11.7
					c-5.4,2.9-11.2,4.9-17.2,6.2c2.8-0.2,5.6-0.4,8.4-0.2c7.7,0.4,15.8,3.4,20.1,9.9c5.5,8.4,3.5,19.3-0.7,27.8
					c-4.8,9.7-12.5,16.6-21.7,22c-5.3,3.1-11,5.6-16.8,7.5c-2.9,0.9-5.9,1.7-8.9,2.3c-2.9,0.6-5.3,0.3-8.1,0.2
					c-8.1-0.2-16.1,0.6-24.3,0.1c-7.9-0.4-15.9-1.3-23.8-2.3c-14.6-1.9-29.6-4.6-42.2-12.2c-12.7-7.6-22.7-21.1-22.2-35.9
					c-2.5,4.8-3.2,10.5-1.9,15.8c-4-8-6.6-17.3-4.2-26c1.5-5.5,5.6-10.4,10.7-12.8c5.9-2.7,11.5-0.9,16.6,2.7c-3.2,0-6.3,1-8.9,2.8
					c9.5,0.4,18.9,3.8,26.5,9.5c4.3,3.2,8,7.2,12.4,10.2c11.2,7.6,24.3,2.5,35.6-2.4c11.5-5,22.7-10.7,33.5-17.2
					c-8.7-0.2-17.4-0.5-26.2-1c-1.7-0.1-3.5-0.2-4.8-1.3c-1.3-1.1-1.7-3.4-0.2-4.4c-0.7,0.9-2.3,0.7-3-0.2c-0.7-0.9-0.7-2.2-0.1-3.2
					c0.6-1,1.6-1.6,2.7-2c-6.5,1.1-13.1,1.8-19.6,1.2c-6.5-0.6-13.1-2.6-18.5-6.3c9.8-0.6,19.4-3,28.3-6.9c-0.7-0.1-1.4-0.3-1.9-0.7
					c-1.4-1.2-1.9-3.2-1.7-5c0.3-2.2,1.5-3.9,2.4-5.8c1-2.1,1.5-4.4,2.8-6.4c-2.7,4.4-7.4,7.6-12.6,8.4c-2.5,0.4-5.3,0.1-7-1.7
					c-1.9-2.1-1.5-5.6,0.1-7.9c1.6-2.3,4.2-3.8,6.6-5.3c0.1-2.8-2-5.4-4.7-6.5c-2.6-1.1-5.6-0.8-8.3,0.2c-2.7,1-5,2.5-7.4,4.1
					c2.6,1.5,5.1,3.4,6.5,6c1.4,2.7,1.4,6.2-0.7,8.4c-2,2.2-6.2,2.3-7.7-0.3c-2.5,3.8-9.7,7.5-14.1,8.6c-5.1,1.2-11.1,0.9-16.1-0.6
					c-4.6-1.4-9-4.2-11.5-8.3c-2.6-4.1-3.1-9.6-0.8-13.8c2.8-5.1,9.2-7.5,15-7.2c4.5,0.3,8.8,1.9,12.9,3.9c1.9,0.9,3.9,1.8,5.8,2.8
					c1.6,0.8,4.3,1.7,5.7,2.9c-0.8-0.9-1.1-4.8-1.3-5.7c-0.3-2-0.4-4-0.4-6c0.1-3.3,0.6-7.4,2-10.4c-8.7-2.8-16.1-9.3-19.9-17.5
					c-0.6-1.3-1.1-2.6-1-4c0.2-1.8,1.5-3.3,3-4.2c1.5-0.9,3.3-1.4,5-1.8c1.7,9.3,9,17.3,18.1,19.8c-4.4-3.5-9.1-7.4-10.1-13
					c-0.4-2.3-0.1-4.8,1.2-6.7c5.8,4.2,11.2,8,15.3,13.9c0-2.4,1.6-4.7,3.8-5.6c-5.2-3.6-9.5-8.7-12-14.5c-0.7-1.7-1.3-3.7-0.2-5.2
					c1.1-1.5,3.3-1.6,4.9-0.7c2.3,1.2,4.1,4.1,5.8,5.9c1.7,1.8,5.8,4.8,6.6,7.1c-1.5-4.7-3-9.5-4.5-14.2c1.7,5.2,7.7,8.5,11.1,12.6
					c4.9,5.8,9.8,11.7,14.8,17.5c-0.9,1.1-2,1.9-3.3,2.4c-5.9-5.3-11.8-10.6-17.7-15.9c6.4,7.8,10.3,17.6,10.9,27.7
					c0.5-1.1,1.6-1.8,2.8-1.7c1.2,0.1,2.2,0.9,2.6,2.1c6.2-4.5,12.1-9.6,17.4-15.2c3-3.1,5.6-8.4,10.1-9.1c2.4-0.4,4.9,0.1,7.3,0.6
					c2.4,0.5,4.9,0.9,7.3,0.3c-6.1,11.5-14.9,21.5-25.4,29.1c7.4-1.5,13.8-6.1,19.6-10.9c5.8-4.8,11.4-10.1,18.1-13.5
					c-3.4,8-9.3,14.8-15.8,20.6c-6.5,5.8-13.6,10.9-20.2,16.6c-6.8,5.9-13.2,12.9-15.1,21.6c10.2-5.7,17.6-15.1,26-23.1
					c6.3-6,13.3-11.3,20.8-15.7c1.9-1.1,4.1-2.2,6.2-1.7c2.5,0.6,4,3.4,4,6c0,2.6-1.3,5-2.6,7.2c-4.3,7.3-9.7,13.8-15.1,20.3
					c1.8-2.2,7,0.7,8.7,1.8c3.9,2.3,5.3,6.1,4.9,10.7C569,317.4,573.4,314.4,577.9,311.3z"/>
				<path class="st8" d="M542.5,317.8c-0.7,2.5-1.4,5.1-2,7.6c-0.1,0.3-0.2,0.7-0.1,1c0.2,0.6,0.8,0.8,1.4,0.9
					c2.4,0.6,4.9,1.1,7.3,0.6c2.4-0.5,4.8-2.2,5.2-4.6C555.3,317.9,542.5,318.1,542.5,317.8z"/>
			</g>
			<path class="st9" d="M641.4,54.4C627,32.7,603.9,16.9,578,11.1c-8.1-1.8-16.3-2.8-24.4-2.8c-29.4,0-55.4,11.7-71.5,32.1
				c-3.6,4.6-6.5,9.6-9,14.8c5.7-7.5,11.7-14.9,19-20.9c8-6.6,17.7-11.4,28-11.8c13-0.6,22.7,6.1,28.8,17
				c3.9,7.1,5.6,15.9,11.3,21.9c9.1,9.7,27.2,11.5,39.2,8.1c7.5-2.1,15.1-5.1,22.9-4.4c11.1,1,20.3,9.6,25.3,19.6s6.6,21.2,8.4,32.2
				c0.2,1.3,0.6,2.7,1.7,3.3C660,97.7,654.3,73.6,641.4,54.4z"/>
			<g>
				<path class="st0" d="M514.9,418.2c-5.4-1.2-10.6-3.5-15.9-4.9c-10.3-2.6-20.2-4.6-29.6-9.8c-8.1-4.5-16.3-10.9-22.4-17.7
					c-6-6.7-9.8-15-15.7-21.7c-0.1-0.1-0.3,0-0.2,0.1c1.6,9.3,7.8,19.1,13.2,26.8c5.8,8.3,11.9,15,20.8,20c3.2,1.8,6.4,3.3,9.7,4.6
					c8.4,1.9,17.2,3.1,26.4,3.4c5.5,0.2,12.6,0.5,20.4,0.5C519.3,419.1,517.1,418.7,514.9,418.2z"/>
				<path class="st0" d="M482.1,40.5c-9.7,12.4-14.5,27.7-19.2,42.6c-0.3,0.9-0.6,1.8-0.9,2.7c-1.4,5.4-2.8,10.8-4.5,16.3
					c-4.2,13.3-11.3,25.6-14.1,39.3c-1.8,9.1-2.1,18.5-0.7,27.7c2.8,12.1,9,23.1,17.2,32.4c9.7,11,22,17.6,34.4,25.1
					c-5.2-3.8-10.1-8-14.7-12.7c-4-4.1-8.6-8.5-11.9-13.1c-6-8.4-9.8-19.5-12-29.6c-5.4-24.9,7.6-44.2,14.4-67.1
					c6.3-21.3,8-42.5,22.6-60.4C504.9,28.7,522,17,541,13.2c0.7-0.1,0.5-1.2-0.2-1.2c-11.5,0.2-22.8,2.6-33,7.2
					C497.8,24.5,489,31.7,482.1,40.5z"/>
				<path class="st0" d="M526.1,163.1c1.3,2.3,3.9,3.7,7.3,2.8c0.4-0.1,0.8-0.3,0.9-0.7c0-0.3-0.1-0.5-0.2-0.7
					c-1.8-3.2-3.6-6.5-5.5-9.7c-0.1-0.2-0.3-0.5-0.5-0.6c-0.5-0.2-1,0.2-1.3,0.7C524.8,157.5,524.8,160.8,526.1,163.1z"/>
				<path class="st0" d="M436.3,313.8c3.8,3.1,8.8,5,14.4,5.6l1,0.1l-0.1,0.4c5.1,0.6,10.4,0.2,15.3-1.5c1.3-0.5,10.6-6.6,11.4-5.4
					c-1.8-2.5-3.5-4.9-5.3-7.4c-8.2,2.9-20.7,4.9-28.5-0.1c-13.5-8.7-11.4-23.9-9.1-37.3c0-0.3-0.3-0.5-0.5-0.3
					c-0.6,0.6-1.1,1.2-1.6,1.9c-1.8,3-3.3,6.2-4.5,9.5C425.2,290,425.9,305.4,436.3,313.8z"/>
				<path class="st0" d="M461.5,411.7c0.7,0.2,1.4,0.5,2,0.7c0,0,0-0.1,0-0.1c-17.9-11.9-35.4-25.4-37-48.5
					c-0.6-9.4,4.3-23.1,14.8-25.4c7.8-1.8,20.3,0.5,25.9,6.9c-4.8-5.4-10.6-9.9-17-13.2c-0.3-3.7,1.2-7.4,3.8-10
					c-4.3-0.3-8.5,2.8-9.5,6.9c-12.2,0.3-22.6,11.4-25.9,22.6c-3.2,11-0.9,23.9,6.1,34.5C433.7,397.8,448.1,406.4,461.5,411.7z"/>
				<g>
					<path class="st0" d="M474.6,221.9c-4-1.5-8.2,1.2-9,5.5c-0.4,2.4,0,4.6,1.2,6.7c1.7,2.9,3.8,4.7,6.3,6.8
						c-1.2-1-1.8-4.9-2.1-6.3c-0.4-2.1-0.4-4.3,0.2-6.3c0.5-1.8,1.6-3.4,3.3-4.2c0.6-0.3,1.5-0.7,1.3-1.3c-0.1-0.3-0.4-0.5-0.7-0.6
						C474.9,222.1,474.7,222,474.6,221.9z"/>
					<path class="st0" d="M454.8,254.6c-1.5-4.5-3.3-13.2,3.3-13.9c1.2-0.1,1.8-1.7,0.6-2.4c-7.1-4.1-10.8,4.2-10.1,10.1
						c0.8,7,7.4,14.6,13.5,17.8c0.5,0.3,1-0.4,0.6-0.8C459.7,262.1,456.3,259,454.8,254.6z"/>
				</g>
			</g>
		</g>
		<g>
			<path class="st10" d="M517.3,310.4c-1.8,1.4-3.6,2.6-5.6,3.7c4.8-13,18.4-22.7,28.6-31.3c0.1-0.1-0.1-0.3-0.2-0.2
				c-10.5,8.3-26.5,18.5-30,32.4c-12.1,6.4-26.2,8-39.8,6.7c-0.2,0-0.2,0.3,0,0.3c14.8,2.1,29.8,1.2,43-6.5
				c14-8.1,21.9-23.2,34.4-33c0.1-0.1,0-0.2-0.1-0.1C536.2,290.2,528.3,302,517.3,310.4z"/>
			<path class="st10" d="M488.7,303.1c1.8-3.5,3.6-7.1,6.9-9.5c0.1-0.1,0.1-0.3-0.1-0.3c-4.1,1.3-7.9,5-7.3,9.7
				C488.2,303.2,488.5,303.3,488.7,303.1z"/>
			<path class="st10" d="M642.1,53.9c-14.6-21.8-37.9-37.7-63.9-43.6c-37.9-8.6-75.8,3.1-96.7,29.7c-9.8,12.5-14.6,27.8-19.3,42.7
				c-1.6,5.2-3.3,10.5-5.2,15.7c-0.6,1.7-1.3,3.4-1.9,5c-0.1-0.1-0.2-0.3-0.4-0.4c-1.3-1.3-3.2-2-5-1.9c-2.9,0.2-5.7,2.1-7.3,5
				c-1.4,2.4-1.8,5.1-2.2,7.9c-1,6.8-0.5,16.3,2.6,23.2c-1,4.1-1.8,8.4-2.2,12.6c-2.3,28.5,14.9,53,37.2,68.2
				c-0.9,0.5-1.8,1.1-2.5,1.8c-2.3-1.1-4.6-1-6.6,0.1c-2.8,1.6-4.5,5.1-4.9,8.3c-0.2,0-0.4,0-0.6,0.1c-1.6,0.3-3,1.5-3.6,3.1
				c-0.5,1.6-0.3,3.2-0.1,4.6c0.1,0.4,0.1,0.9,0.2,1.3c0,0.1,0,0.2,0,0.3c-0.8-0.9-1.9-1.6-3-1.8c-2.3-0.5-4.8,0.5-6.7,2.5
				c-2.6,2.7-3.6,6.9-2.7,11.2c0.1,0.3,0.2,0.7,0.2,1c-7.5,8.2-15.5,17.4-19.4,28.6c-3.8,11-3.1,26.8,7.6,35.4
				c4,3.2,9.1,5.2,14.8,5.8l-0.1,0.4c-1.9,0.2-3.7,1.2-5.1,2.7c-1.3,1.4-2,3.1-2.1,4.9c-11.6,1.7-21.9,11.1-25.5,23.2
				c-3.3,11.4-0.9,24.7,6.5,35.6c6.4,9.4,16.3,17.1,28.7,22.4c14.4,6.1,30.6,9.6,48.1,10.3c6.9,0.3,14.4,0.5,22.2,0.5
				c9,0,18.5-0.3,28-1.2c11.6-1.1,20.3-2.8,28-5.6c9.9-3.6,18.1-9.2,23.8-16c7.7-9.4,11.3-22.2,9.5-34.2c-1.7-11.9-8.7-25.2-20.4-30
				c2.7-1.5,5.2-3.4,7.3-5.8c9.5-10.9,5.6-26.7,3.5-32.9c-1.8-5.3-4.1-10.6-6.9-15.7c2.2-4.2,3.3-8,3.2-11.6
				c-0.1-4.2-1.9-8-4.9-10.4c-1.9-1.5-4-2.3-6.4-2.5c0-0.2,0.1-0.3,0.1-0.5c0.3-2.1-0.5-4.4-2-5.8c-1.9-1.8-4.5-2.4-6.8-2.7
				c0.3-2.8-0.8-5.7-2.8-7.7c11.1-2.5,20.8-6.9,28.1-13.2c6.9-5.9,13.1-13.5,18.6-22.6c1.3-2.1,2.2-4.3,3.1-6.5
				c9.2-2.3,19.7-10.1,21.9-20.7c0.6-2.7-0.1-6.4-2.8-8.3c-0.9-0.6-1.9-0.9-3-0.9c6.1-10.7,11.6-22.6,14.4-35.4
				C662.3,104.3,656.8,76,642.1,53.9z M443.3,114.5c0.4-2.5,0.8-4.8,1.9-6.8c0.9-1.6,2.6-3.3,4.7-3.4c0.9-0.1,1.9,0.3,2.7,1
				c0.3,0.3,0.9,1,0.8,1.8l0.3,0c-0.4,1.1-0.9,2.1-1.3,3.2c-0.7-0.5-1.5-0.9-2.4-0.9c-2.3-0.1-3.3,1.6-4.4,3.3
				c-0.1,0.1,0.1,0.2,0.1,0.1c0.5-1.2,2.1-2,3.3-2c1.4,0.1,2,1.2,2.1,2.4c-1.8,4.4-3.6,8.8-5.2,13.4c-0.1-0.4-0.2-0.7-0.3-1.1
				c-0.4-1.8-0.7-3.7-0.1-5.5c0-0.1-0.1-0.1-0.2,0c-0.9,2.6-2.1,6.5-0.3,9c-0.3,1-0.7,2-1,3C442.7,126.2,442.6,119.4,443.3,114.5z
				 M452.3,240.4c1.1-1.2,2.6-1.8,3.7-1.5c0.6,0.1,1.1,0.5,1.4,1c0,0,0,0,0,0.1c-2.3,8.3,6,15,12.3,18.6c0.1,0,0.1-0.1,0.1-0.1
				c-2.9-2.2-5.8-4.6-7.8-7.8c-1.6-2.6-2-5-2-7.6c2.3-1,3-3.8,2.8-6c0-0.5-0.1-1-0.2-1.5c-0.2-1.2-0.3-2.3,0-3.1
				c0.1-0.4,0.7-0.9,1.1-1c0.1,0,0.2,0,0.2,0c0.2,0.2,0.4,0.4,0.7,0.5c0.6,1.7,1.7,3.3,2.6,4.4c2.8,3.4,6.3,5.5,9.7,8.2
				c0.1,0.1,0.2-0.1,0.1-0.1c-2.9-2.4-5.7-5.2-7.7-8.4c-0.7-1.2-1.4-2.5-2-3.7c-0.3-0.6-0.5-1.3-0.7-1.9c-0.1-3.1,1.4-6.5,3.4-7.6
				c1.3-0.8,2.9-0.6,4.6,0.5c0,0,0.1,0,0.1,0c2.8,6.5,7.4,11.4,12.5,16.3c0.1,0.1,0.2,0,0.1-0.1c-3.9-5.3-8-10.9-10.2-17.2
				c0.5-0.6,2.1-1.6,3.5-2.2c3.6,2.2,7.2,4.2,10.9,6c2.9,15.2,11.5,28.6,26,39.5c-1.3,1.2-2.7,2.3-4.1,3.4
				c-7.2-8.3-16.4-15-23.1-23.8c-0.1-0.1-0.2,0-0.1,0.1c6.8,8.6,14.9,16.2,21.5,25c-1.1,0.8-2.2,1.6-3.3,2.4
				c-0.2-0.5-0.7-0.8-1.2-0.9c-1.5-0.2-3.1,0.2-4.4,1.1c-0.9-7.5-2.7-16.9-6.3-17.6c-1.4-0.3-2.6,0.2-3.5,0.9
				c-0.8-2.5-2.5-5.5-5.5-5.5c-0.8,0-1.4,0.1-2,0.4c-0.5-0.5-1.2-0.9-1.7-1.3c-1.2-0.9-2.8-1.6-4-2.6c-0.1-0.1-0.2,0.1-0.1,0.1
				c1.3,0.8,2.4,2.3,3.2,3.5c0.3,0.4,0.6,0.9,0.9,1.4c-0.6,0.7-1,1.5-1.3,2.4c-1.1-1.7-2.7-3.3-3.9-4.8c-3.5-3.9-7.7-7-11.4-10.7
				c-0.1-0.1-0.2,0-0.1,0.1c3.1,3.4,5.8,7,8.9,10.5c1.5,1.7,3,3.4,4.3,5.4c0,0.1,0.1,0.1,0.1,0.2c-0.2,0-0.5-0.1-0.7,0
				c-2.3,0.2-5,2.6-5.4,8.5c0,0.4,0,0.8-0.1,1.2c-1-0.6-2.1-0.8-3.1-0.3c-1,0.6-1.7,2.7-2.3,5.1c-5.5-3.2-10.4-7.4-14.3-12.4
				c-2.5-3.2-3.9-5.9-4.4-8.5C449.8,245.6,450.5,242.4,452.3,240.4z M431.2,280c3.7-10.6,10.5-18.5,17.7-26.3c0.9,1.8,2,3.6,3.5,5.5
				c4.4,5.6,9.9,10.3,16.1,13.7c-0.4,2.1-0.5,3.8-0.5,3.9c-0.3,2.6,0.9,15.3,4.2,18.2c-0.7-2.6-1.3-15.4-1-17.9
				c0.3-3.1,0.8-6.4,2-9.3c2.9,0.2,1.4,10,1.4,12c-0.3,0.4-0.5,0.7-0.8,1.1c0,0,0,0.1,0.1,0.1c2.3-0.1,3.8-0.8,4.1-3.1
				c0.2-1.8-0.2-3.5-0.2-5.2c0-2.9-0.1-5.9,0.1-8.8c0.2-3.7,1.6-5.5,2.4-5.6c0.4,0.1,1.4,1.4,2.1,2.7c0,2.8,0.2,5.5,0.3,8.3
				c0.1,2.5,1.1,6.4-0.5,8.5c1.3,0.2,3.2-0.4,3.8-1.6c0.5-1,0.1-2.9,0.1-4c-0.1-1.4-0.2-2.8-0.2-4.2c-0.1-2.5-0.3-4.9-0.3-7.4
				c0-5,0.6-6.9,2.4-6.9c1.6,0,2.9,3.9,3.2,6c0.1,2.6,0.3,5.1,0.4,7.7c0.1,1.8,0.2,3.6,0.3,5.4c0.1,1.8,0.2,4.1,2.7,3.7
				c0.2,0,0.9-0.1,0.9-0.4c0-0.2-0.2-0.3-0.3-0.5l0.1,0l-0.8-15.7c0.3-0.6,1.1-1.8,2-1.6c1.4,0.8,3.4,9.2,4.2,18.1
				c-0.9,2.4-0.4,5,0,7.2c0.4,1.9,0.9,4.1-0.2,5.9c-0.6,0.9-1.4,1.7-2,2.6c1.1-0.2,2.3-0.4,3.3-0.9c3.2-1.6,2.5-5.2,2-8.1
				c-0.5-2.7-1-5.1,0.8-7c0.4-0.4,0.8-0.7,1.3-0.9l0.5,0.7c0.3,2.1,0.9,4,1.8,5.6c0.4,0.7,0.8,1.4,1.3,2.1c1,1.6,1.8,2.9,2,4.6
				c0.3,2.6-1.2,5.4-2.4,7.7c-1.8,3.4-3.7,6.9-6.3,9.6c-2.8,2.9-6.3,4.5-9.4,4.3c-1.9-0.1-3.5-0.4-4.8-1.8c-1,1.2-1.9,1.7-3.4,2.2
				c-0.7,0.2-1.3,0.5-1.9,0.6c-3.8,0.7-7.2-2.8-10.1-6.3c0.2,2.3,1.5,4.9,3.4,6.8c-5.2,2.4-11.5,5-18.2,5.7
				c-7.8,0.8-15.1-1-20.1-5.1C428.3,304.3,427.7,290,431.2,280z M454.3,320.4c0.4,0,0.8,0,1.3,0c-0.6,0.1-1.1,0.2-1.7,0.3l0.1-0.3
				C454.1,320.4,454.2,320.4,454.3,320.4z M597.2,325.2c-5.1,5.9-13.1,8.5-20.2,10.2c-19,4.7-39.2,5.4-58.5,2.1
				c0.6-1.4,1.7-2.5,2.6-3.1c2.3-1.7,5.6-2.4,8.2-2c2.8,4.2,8.9,3.8,9.1,3.8c-0.1,0-5.1-1.9-6.7-6c-0.6-1.6-1.4-4.3-0.5-7
				c0.7-1.9,2-3.4,3.9-4.3c3-1.4,4.4-1,4.8-0.6c0.3,0.3,0.2,0.7,0,1.1c-1.6,2.8-2.1,5-1.5,6.8c0.3,1.1,1.1,2,2.2,2.5
				c2.9,1.4,12.5,1.3,14.5-1.9c0.9-1.5,1.7-4,0.9-6.3c-0.4-1.1-1.3-2.6-3.6-3.4c-1.5-0.5-2.9-0.7-4.2-0.8c-2.5-0.3-3.4-0.5-3.8-1.7
				c-0.2-0.6-0.1-1.1,0.3-1.7c0.9-1.4,3.7-3.1,7.6-3.2c3.7-0.2,7.1,0.9,9.1,3c1.7,1.7,2.5,4.1,2.3,7c2.2-3.7,2.3-6.9-0.1-9.3
				c-1.2-1.2-2.6-2-4-2.6c4.7-5.2,7.8-11.7,10.7-18c0.4-0.9,0.9-1.9,1.3-2.8c2.8-5.8,8-13.6,14-18.7c2.5,3.4,4.8,6.9,6.8,10.5
				c0,0,0,0,0,0.1l0.1,0.1c3,5.4,5.6,11,7.5,16.6C601.9,301.1,605.6,315.5,597.2,325.2z M516.3,334.8c-0.7-0.1-1.2-0.3-1.3-0.5
				c-0.1-0.2,0-0.7,0.5-1.5c2.5-3.5,9.2-4.5,12.3-4.6c0,0.3,0.1,0.5,0.2,0.8c-3,0-6.3,0.9-8.8,2.7C518,332.7,517,333.7,516.3,334.8z
				 M543.3,318c1.4,1,3.1,1.2,4.7,1.3c0.4,0,0.8,0.1,1.1,0.1c-0.9,1-2.1,1.6-3.6,2.1c-1.2,0.4-2.5,0.7-3.7,1.2
				c0.2-0.5,0.5-1.2,0.9-1.9C543.3,319.9,543.5,318.9,543.3,318z M551.3,319.9c0.1,0,0.1,0,0.2,0c0.9,0.3,1.4,0.8,1.6,1.5
				c0.4,1.2,0,2.7-0.6,3.6c-0.9,1.2-8.1,1.9-10.4,0.8c-0.4-0.2-0.5-0.4-0.6-0.6C544.9,324.9,550.7,323.1,551.3,319.9z M576,246.1
				c-1-1.3-3.3-1.8-4.8-1.8c-2.1,0.1-3.9,1.4-4.9,3.2c-0.1,0.1,0.1,0.3,0.2,0.2c1.4-1.4,3.3-2.1,5.3-1.8c0.9,0.1,1.6,0.7,2.2,1.1
				c-6.6,2.9-10.5,8.9-15,15c-0.1,0.1,0.1,0.2,0.1,0.1c4.6-5.9,10.8-11.9,18.2-14c2.7,0.3,5.1,0.6,6.6,2.1c0.7,0.7,1.2,1.9,1,3
				c-0.3,2.2-5.2,3-6.9,3.9c-2.5,1.3-4.7,3.1-6.8,4.9c-4.4,3.9-8.1,8.4-12.3,12.5c-1.7,1.6-3.4,3.2-5.3,4.6c-0.1,0.1,0,0.2,0.1,0.1
				c5.5-2.9,9.8-6.8,14.3-11.1c5.5-5.2,10.6-8.3,17.2-10.7c3.4-0.7,5.8,0.5,7.2,1.7c2.3,1.8,3.6,4.7,3.7,8c0.1,2.5-0.6,5.2-1.9,8.2
				c-1.8-3.1-3.8-6.1-6-9.1c1.1-0.8,2.2-1.4,3.3-1.9c-1.3,0.2-2.6,0.6-3.9,1.2c0,0,0,0,0,0l-0.1,0c-9.4,4.1-17.1,16.5-18.7,20
				c-0.4,0.9-0.9,1.9-1.3,2.8c-3.1,6.5-6.2,13.3-11.2,18.3c-0.8-0.1-1.5-0.2-2.1-0.3c2.1-1.7,3.6-4.4,5-6.4
				c3.5-5.2,6.1-10.6,8.4-16.4c0-0.1-0.1-0.1-0.1-0.1c-2.6,4.5-5.5,8.9-8.6,13.2c-2.4,3.5-6,6.3-8.3,9.8c-3.7,0.5-6.9,2.2-8.4,4.5
				c-0.9,1.4-1.1,2.9-0.7,4.3c-1.3-0.7-3.6-1.2-7.6,0.7c-2.7,1.3-4.6,3.4-5.6,6.2c-0.3,1-0.5,2-0.6,3c-2.6,0.1-11.2,0.9-14.8,5.9
				c-1.5,2.2-1.2,3.8-0.7,4.7c0.5,1,1.6,1.8,2.9,2.1c0,0.2-0.1,0.5-0.1,0.7c-0.1,0.8,0.5,1.6,1.3,1.7c5.6,1,11.2,1.7,16.9,2
				c-9.4,3.2-18.9,5.3-28.8,0.2c-0.1,0-0.2,0.1-0.1,0.1c8.4,5.6,25.5,5.3,34.8-0.1c1.1,0,2.2,0.1,3.3,0.1c-4.6,2-8.8,4.4-11.4,6.4
				c-2.5,1.9-5.2,3.7-8,5.2c-3.1-0.3-6.1-0.4-9.2-1.1c-5.2-1.2-10-3.7-14.6-6.5c-6-3.7-11.2-8.6-18-10.6c-0.1,0-0.1,0.1-0.1,0.1
				c10.7,6.2,22.5,20.3,36.2,20.9c-5.4,2.4-11.1,4.1-16.9,5.1c-2.7-0.2-5.2-0.5-7.9-1.4c-4.1-1.5-8.3-3.5-12.1-5.4
				c-0.1,0-0.2,0.1-0.1,0.1c3.5,2.6,7.7,5.8,12.2,7.7c-1.6,0.1-3.2,0.1-4.7,0.1c-3.7-1.4-7.1-3-10.4-5.6c-2.3-1.9-4.3-4-6.6-5.8
				c-5.8-4.6-11.8-7-19-8.8c-0.1,0-0.1,0.1,0,0.2c10.1,3.4,17.2,9.9,25.2,16.6c1.3,1.1,2.7,2.2,4.1,3.1c-3.5-0.4-7-1-10.4-1.9
				c2.7,2.2,11.2,5.4,17.4,5.4c16,0,32.1-5.2,44.8-14.8c5-3.8,15.4-8.5,22.1-9.4c0.7-0.1,1.3-0.1,2-0.2c0.1,0,0.2,0,0.3,0l0,0
				c6.9-0.7,13.8-1.8,20.5-3.5c3.3-0.8,7-1.9,10.6-3.5l0,0c12.3,3.2,19.5,16.6,21.2,28.5c1.6,11.2-1.7,23-8.9,31.7
				c-5.3,6.5-13.1,11.7-22.4,15.1c-3.8,1.4-7.8,2.5-12.2,3.4c13.7-5.4,25.6-15.1,32.6-28.1c-0.3,3.2-1.3,7-3.7,9.1
				c-0.1,0.1,0,0.2,0.1,0.1c2.7-3.1,4.7-5.8,4.4-10.1c0-0.2-0.1-0.2-0.2-0.3c0.6-1.1,1.1-2.2,1.6-3.4c0-0.1-0.1-0.2-0.1-0.1
				c-10.5,17.2-26.1,29.9-45.9,34.4c-1.2,0.1-2.5,0.3-3.7,0.4c-2.5,0.2-5.1,0.4-7.6,0.6c10.3-3.1,20.3-7.8,29.3-13.3
				c12.3-7.6,23.8-17.5,27.5-32c0-0.1-0.1-0.1-0.2,0c-4.4,14.9-18.3,24.2-31.1,31.5c-5.2,1.4-10.3,3.6-15.5,5
				c-7.1,1.8-14.3,3-21.6,3.6c-13.7,1.2-27.8,0.5-41.3-2.2c-0.1,0-0.1,0.1,0,0.2c14.1,3.7,28.1,5.4,42.7,4
				c5.9-0.6,12.6-1.4,19.1-2.8c-6.9,2.6-14,4.7-21.2,6.6c-10.6,0.2-20.7-0.1-29.8-0.4c-10.3-0.4-20.1-1.8-29.3-4.2
				c-20.4-10.2-37.6-24.5-46.4-46.7c0-0.1-0.2-0.1-0.2,0c5.8,16.3,16.9,32,31.6,41.8c-0.9-0.4-1.8-0.7-2.7-1.1
				c-11.9-5-21.3-12.4-27.4-21.3c-6.9-10.1-9.2-22.5-6.1-33c2.9-10,10.9-17.8,20.1-20.4c9.7-0.7,22.1,9.3,31.1,18
				c0.1,0.1,0.2,0,0.1-0.1c-5.1-5.6-8.8-10.1-15.1-14.4c-2.6-1.8-6.4-4.5-10.6-5.6c0-0.2,0-0.3,0-0.5c-0.2-1.3,0.3-2.7,1.3-3.9
				c2.7-3,9.2-1.4,12.5-0.2c3.8,1.4,7.5,3.5,10.9,5.8c0.1,0.1,0.2-0.1,0.1-0.1c-2.5-1.9-6.1-5.1-9.9-7.4c6.9,1.7,13.5,5.9,20,8.6
				c7.2,3,14.3,5.4,22,7c0.1,0,0.1-0.1,0.1-0.1c-12.8-4.2-21.1-8.5-31.4-13.4c-4.5-2.2-9.6-5.2-14.6-5.3c0.3,0,0.6,0,0.9-0.1
				c7.8-0.8,15-3.9,20.7-6.7c0.9,0.4,1.9,0.7,2.9,0.7c0.5,0,1,0,1.5-0.1c0.9-0.2,1.7-0.4,2.5-0.7c0.7-0.3,1.4-0.5,2.1-0.6
				c0.9-0.1,1.8,0,2.9,0.1c0.7,0.1,1.4,0.2,2,0.2c4.1,0.2,8.4-1.8,11.8-5.3c3-3,4.9-6.8,6.9-10.3c0.8-1.5,1.7-3.2,2.3-5.1
				c4.7-4.9,9.5-8.6,15.8-12c6.6-3.5,12.5-7,17.1-13c0.1-0.1,0-0.2-0.1-0.1c-3.7,3.7-8.8,6.4-14.1,9.1c8.7-6.7,16.3-14.5,22.8-23.7
				c0.1-0.1-0.1-0.2-0.1-0.1c-8.1,10.5-17.9,19.6-28.9,27c-4.6,2.5-8.9,5.2-12,8.7c0-0.1,0-0.2,0-0.3c-0.3-2.4-1.4-4.2-2.5-6
				c-0.4-0.6-0.8-1.2-1.1-1.9c-0.6-1.2-1-2.5-1.3-3.9c3.9-2.7,7.6-5.6,11.1-8.7c0,0,0,0,0.1,0l0.2-0.2c9.1-8.2,17-17.7,23.3-28.2
				c3.9,0.5,7.8,0.7,11.3,0.7c6,0,11.7-0.5,17.2-1.4l0,0C575.2,239.4,576.9,243.1,576,246.1z M640.1,169.7c0.2-0.7,0.8-1,1.1-1.1
				c0.8-0.3,1.8-0.2,2.4,0.2c1.5,1.1,1.8,3.3,1.5,5c-1.7,8.2-9.6,14.9-17.4,17.6c0.3-0.7,0.6-1.5,0.8-2.2c0.7-0.3,1.4-0.6,2.1-1
				c1.1-0.7,1.8-1.6,2.8-2.4c0.1-0.1,0-0.2-0.1-0.1c-1,1-2.6,1.6-4.1,1.9c0.8-2.1,1.8-4.1,3-6c1-1.5,2-3.1,3-4.7
				c0.2-0.1,0.3-0.3,0.5-0.4c0.5-0.6,1-1.2,1.8-1.3c2.4-0.5,2.9,2.8,2.4,4.4c0,0.1,0.1,0.1,0.1,0.1c1.5-2.1,1.4-5.3-1.3-6.3
				c-0.4-0.1-0.7-0.2-1.1-0.2c0.7-1.2,1.4-2.3,2.1-3.5L640.1,169.7z M653.7,129.1c-4.2,19.3-14.6,36.3-24,50.8
				c-2.3,3.5-3.6,7.2-4.9,10.7c-1.2,3.2-2.4,6.4-4.2,9.4c-5.3,8.8-11.3,16.1-17.9,21.8c-17,14.6-50.7,19.4-80.7,12.8
				c5.8,1.6,12.3,2.9,18.6,3.8c-5.6,9.6-12.3,17.7-20.2,24.9c-14.1-10.3-22.2-21.3-25.1-35.9c2.1,0.9,4.3,1.7,6.4,2.5
				c-29-13.7-60.9-43.4-57.9-79.8c0.4-4.3,1.2-8.6,2.3-12.8l0.2-0.1c0-0.1-0.1-0.2-0.1-0.3c2.2-8.2,5.4-16.3,8.6-24.1
				c1.8-4.4,3.6-8.9,5.2-13.3c1.9-5.2,3.6-10.6,5.2-15.8c4.6-14.6,9.3-29.7,18.7-41.7c22.9-29.2,63.5-35.3,93.5-28.5
				c25.3,5.7,47.9,21.1,62,42.3C653.7,77,659,104.5,653.7,129.1z"/>
			<path class="st10" d="M529.4,166.7c1.3,0.5,2.7,0.8,4.1,0.8c3.2,0,6.1-2.5,6.1-5.9c-2.1,2.5-6,3.5-9,2.2c-3-1.3-5.1-4.7-4.8-7.9
				C523,160.1,525.1,164.9,529.4,166.7z"/>
			<path class="st10" d="M511.2,132.7c0.3,0.6,0.8,0.9,1.4,0.9c0.1,0,0.3,0,0.4-0.1c1.3-0.3,2.5-0.7,3.7-1.5
				c0.6-0.4,1.2-0.9,1.7-1.4c0.2-0.2,0.9-1.4,1.1-1.5c-1.4,0.3-3.1,0.4-4.6,0.6c0.4-2.6-0.3-5.5-1-7.7c0-0.1-0.2-0.1-0.1,0
				c0.1,1.9,0.1,3.8-0.3,5.6c-0.1,0.6-0.3,1.3-0.4,1.9c-1.7-2.2-3.1-4.5-5.2-6.4c-2.2-2-4.8-3.6-7.5-4.7c-5.9-2.4-12.8-2.6-18.8-0.4
				l-0.6,0.2c-0.2,0.1-0.3,0.1-0.5,0.2c0.9-1.8,2-3.6,3.2-5.1c0.1-0.1,0-0.2-0.1-0.1c-2.1,1.6-3.7,3.4-4.8,5.6
				c-2.1,0.3-4.2-0.2-5.1-2.5c0.2,0.4,0,1.6,0,2.1c0.1,0.5,0.1,1,0.3,1.5c0.6,1.2,2,2,3.3,2.2c1.7,0.3,3.3-0.3,4.7-0.8l0.5-0.2
				c5.3-1.9,11.3-1.7,16.5,0.4C504.4,123.5,508.8,127.6,511.2,132.7z"/>
			<path class="st10" d="M541.7,183.8c-0.1,0-0.1,0-0.1,0.1c0.3,0.6,0.5,1.1,0.6,1.7c-11.5,2.2-24-2.1-31.7-10.8
				c0.5-0.4,1-0.9,1.5-1.4c0.1-0.1,0-0.3-0.1-0.3c-1.8,0-3.6,0.7-5.1,1.9c-1.6,1.3-2.1,2.9-1.6,4.9c0.3,1.3,2.1,0.9,2.3-0.3
				c0.1-0.6,0.4-1.1,0.7-1.7c0.1-0.2,0.2-0.5,0.3-0.7c7,7.7,17.4,12.1,27.7,12.1c2.1,0,4.2-0.2,6.2-0.6c0,0.3-0.1,0.5-0.1,0.8
				c-0.3,1.6,2.1,2.2,2.4,0.7C545,187.8,544,185.1,541.7,183.8z"/>
			<path class="st10" d="M516.9,194.2c-1.3-0.9-2.6-2.7-2.6-4.3c0-0.1-0.2-0.1-0.2,0c0.2,1.9,0.2,3.4,1.2,5.1c0.7,1.1,2.5,3.1,4,2.2
				c0.3-0.2,0.4-0.5,0.3-0.8C519.4,195.4,517.8,194.9,516.9,194.2z"/>
			<path class="st10" d="M609.9,116c-2.8-2-5.5,2.6-2.7,4.6c1.7,1.2,3.4,2.6,4.8,4.2c1,1.1,2.3,3,3.7,3.4c0.1,0,0.2,0,0.3-0.1
				c1.2-1.6,0-4.6-0.8-6.2C613.9,119.5,612.2,117.6,609.9,116z"/>
			<path class="st10" d="M493.4,85.4c2.3-0.4,4.5-0.7,6.8-0.7c2.1,0,4.2-0.5,6.2,0.5c2.7,1.4,5.1-2.8,2.4-4.1c-6-2.8-11,0-15.7,3.8
				C492.9,85.1,493.2,85.5,493.4,85.4z"/>
			<path class="st10" d="M603.7,161.3c0-0.1-0.1-0.1-0.1,0c0,1.3-0.2,2.7-0.6,3.9c-0.1,0.2-0.1,0.4-0.2,0.6c-1-1.8-1.7-3.6-2.9-5.3
				c-2.4-3.4-5.6-6.4-9.2-8.4c-3-1.7-6.3-2.8-9.7-3.3c-1.7-0.3-3.4-0.4-5.1-0.3c-0.8,0-1.8,0.3-2.8,0.3c0.3-0.7,0.6-1.3,1-1.9
				c1.1-1.8,2.5-3.5,4.1-4.9c0.1-0.1,0-0.2-0.1-0.1c-1.9,1.1-3.7,2.5-5.1,4.2c-0.5,0.6-1.3,1.4-1.8,2.3c-0.4-0.3-0.8-0.8-1.1-1.3
				c-0.6-0.8-1.1-1.7-1.7-2.5c0.1,0.2-0.2,1.4-0.3,1.7c0,0.6,0,1.3,0.1,1.9c0.2,1,0.5,2.1,0.9,3c0.3,0.8,1.1,1.2,1.9,1
				c6.1-1.4,12.7-0.5,18.1,2.6c5.4,3.1,9.6,8.2,11.5,14.2c0.2,0.7,0.8,1.1,1.5,1.1c0,0,0.1,0,0.1,0c1-0.1,2-0.1,2.9-0.3
				c0.5-0.1,1.1-0.2,1.7-0.3c0.4-0.1,1.3-0.8,1.6-0.8c-1.5,0-3.4-0.6-4.6-1.6C604.2,165.2,604,163,603.7,161.3z"/>
		</g>
	</g>
	<g>
		<path class="st11" d="M585.2,506c-10.3,0-20.4-3.3-28.4-9.4l-0.5-0.4l-1.1,0.5c-0.3,0.2-0.6,0.3-0.9,0.5
			c-7.9,3.6-17.7,5.6-27.4,5.6c-15.6,0-28.9-4.9-36.5-13.5l-0.7-0.8l-0.7,0.9c-5,6-14,8.2-22.1,9.6c-4.4,0.7-8.6,1.1-12.5,1.1
			c-13.7,0-24.3-4.5-31.3-13.4l-0.5-0.6l-0.7,0.4c-5.1,3-11.2,4.6-17.7,4.6c-18.8,0-35.8-13.5-42.4-33.6c-2.7-8.3-3.8-17.6-3-26.8
			c0.5-6.4,1.8-13.2,3.9-20.2c0.7-2.4,1.5-4.8,2.4-7.3c0.1-0.2,0.3-0.7,0.6-1.3c2.4-5.5,2.4-5.8,1.8-6.4l-0.1-0.1
			c0.4-0.5,0.7-1.1,0.9-1.8l0.5,0.5l0.5-1.2c1.6-3.6,3.4-7.4,5.5-11.7c0.1-0.2,0.3-0.4,0.6-0.5c0.1,0,0.2,0,0.3,0
			c0.2,0,0.3,0,0.5,0.1c22.1,12.6,37.6,35.4,41.5,61l0.5,3.4l1.3-3.2c0.8-1.9,1.6-3.6,2.4-5.2c7.1-13.4,18.1-24.1,28.7-34.3
			c0.2-0.2,0.4-0.3,0.7-0.3c0.2,0,0.5,0.1,0.6,0.3c10.7,9.9,21.7,20.2,29.4,32.9c4,6.5,6.9,14.2,8.9,23.5l0.7,3.1l1.1-2.9
			c4.2-10.7,13.3-19.8,20.8-26.5l2.2-2c10.2-9.1,20.8-18.5,24.7-31.2c0.1-0.3,0.3-0.5,0.5-0.6c0.1-0.1,0.3-0.1,0.4-0.1
			c0.1,0,0.2,0,0.4,0.1c20.7,8.3,35.9,28.2,37.8,49.7c0.4,4.5,0.4,8.8,0.1,12.8l-0.2,1.9l1.6-1c14.9-9.2,24.4-26.2,24.1-43.3
			c0-0.3,0.2-0.6,0.4-0.8c0.2-0.1,0.3-0.1,0.5-0.1c0.1,0,0.3,0,0.4,0.1c6.3,3.1,12,7.9,16.4,13.9l0.9,1.2l0.7-1.3
			c8.2-15.9,11.8-34.5,10-52.2c0-0.3,0.1-0.6,0.3-0.8c0.2-0.1,0.4-0.2,0.6-0.2c0.1,0,0.2,0,0.3,0c16.4,4.7,30.3,16.4,37,31.1
			c7.1,15.4,6,34.2-2.9,47.8c-2.3,3.5-5.1,6.8-8.4,9.5c-8.1,6.9-18.3,10.7-28.6,10.7c-1.1,0-2.2-0.1-3.5-0.2l-0.7-0.1l-0.3,0.6
			c-4.6,10.6-13.1,19.3-23.1,24C598.6,504.6,591.9,506,585.2,506z"/>
		<g>
			<path class="st0" d="M405.6,487.8c-17-7.5-29.6-22.7-33.4-41c-1.9-8.8-1.9-18.1-1.7-27.1c0.4,2.1,0.8,4.2,1.2,6.1
				c3.2,15,9.2,28.9,17.5,41.7c0.1,0.1,0.2,0,0.2-0.1c-6-12.5-10.6-25.9-13.1-39.5c-1.3-7.1-2.2-14.4-2.1-21.7
				c0.1-6.4,2.1-12.3,2.5-18.6c0-0.6-0.2-1-0.6-1.2c0.1-0.7,0.3-1.4,0.4-2.1c0.1-0.6-0.6-1-1-0.4c-0.9,1.5-1.8,3-2.6,4.6
				c-0.2,0.4-0.4,0.7-0.6,1.1c-10.2,19.4-14.8,43.7-8.9,64.6c5.4,19.2,20.6,35.8,41.6,36.3C406.3,490.5,407,488.4,405.6,487.8z"/>
			<path class="st0" d="M451.3,405.8c-0.2,0.1-0.3,0.3-0.5,0.4c-0.5-0.5-1.3-0.5-1.8,0c-0.9,1-1.6,2-2.2,3.1
				c-6.7,5.7-12.2,13-17.2,20c-6.6,9.2-11.6,17.9-12.4,29.5c-1.1,15.8,5.4,38.8,24.9,38.9c0.7,0,0.9-0.7,0.7-1.2
				c-6.6-14.4-12.1-27.1-9.2-43.4c1.6-8.7,3.5-17.2,7.3-25.3c0.3-0.6,0.6-1.3,1-1.9c-1.2,4.8-2.2,9.6-2.9,14.4
				c-1.9,14.2-0.3,27.7,4.7,41.1c0.1,0.2,0.3,0.1,0.3-0.1c-3.2-14.4-3.6-29.2,0-43.6c2.4-9.4,8.8-20.6,7.3-30.3
				c0.2-0.4,0.3-0.9,0.5-1.3C451.8,405.9,451.5,405.7,451.3,405.8z"/>
			<path class="st0" d="M543.1,403.6c-0.3-0.4-0.9-0.6-1.3-0.2c-0.2-0.1-0.4-0.3-0.6-0.4c-0.5-0.3-1.2-0.1-1.5,0.4
				c-0.8,1.7-1.1,3.3-1.2,4.8c-1.4,2.3-2.6,4.8-4,7.1c-3.7,6.1-8.5,10.7-14.1,15.2c-8.4,6.9-17.7,14.6-22.1,24.8
				c-0.1,0.1,0.1,0.4,0.2,0.2c10.6-8.1,23-13.4,33-22.3c-0.7,1.1-1.3,2.2-2,3.3c-6.7,11-14.3,21.4-22.1,31.7
				c-0.1,0.1,0.1,0.2,0.1,0.1c10.9-11.1,22.8-22.8,31.3-35.9c3.7-5.7,9.2-18.4,5.6-25.7C544.2,405.5,543.8,404.5,543.1,403.6z"/>
			<path class="st0" d="M609.1,421.9c-0.5-0.3-1,0-1.2,0.5c-4.2,13.4-9,26.1-16.4,38.1c0,0.1,0,0.2,0.1,0.1
				c7.7-4.4,13.9-10.7,17.4-18.9C611.2,436.4,615.6,425.7,609.1,421.9z"/>
			<path class="st0" d="M641.9,383.9c0-0.2,0-0.3-0.1-0.5c-0.6-3.8-6.5-2.2-5.8,1.6c1.5,9.1,0.8,17.5-1.2,26.5
				c-1.4,6.1-4,11.5-6.1,17.2c-1.4,0.4-2.4,1.8-1.3,3.3c0,0,0.1,0.1,0.1,0.1c0,0,0,0,0,0c0,0.1,0,0.1,0.1,0.1
				c4.7,6.3,7.9,13.6,9,21.4c0,0,0,0,0,0.1c-0.1,0.4-0.2,0.9-0.3,1.3c0,0.1,0.1,0.2,0.2,0.1c0.3-0.5,0.5-1,0.8-1.4c0,0,0,0,0,0
				c0,0,0,0,0,0c1-1.7,1.9-3.4,2.7-5.2c0.9-0.7,1.4-1.9,1.5-3.3c3.7-8.6,5.8-17.5,6.1-27.3C647.9,408.7,648.2,391.7,641.9,383.9z
				 M637.7,449.4c0-0.1,0-0.2,0-0.3c0,0,0,0,0,0C637.7,449.2,637.7,449.3,637.7,449.4z"/>
		</g>
		<path class="st1" d="M677,423.6c-0.7-5-2.1-10-4.2-14.5c-6.9-15-21-26.8-37.6-31.6c-0.6-0.2-1.3,0-1.7,0.4c-0.5,0.4-0.7,1-0.7,1.6
			c1.8,17.7-1.8,35.9-9.9,51.7c-4.4-5.9-10.1-10.8-16.7-14.1c-0.6-0.3-1.3-0.3-1.9,0.1c-0.6,0.4-0.9,1-0.9,1.6
			c0.3,16.9-9.3,33.6-23.6,42.5c0.3-4.1,0.3-8.4-0.1-13c-1.9-21.8-17.3-42.1-38.4-50.5c-0.5-0.2-1-0.2-1.5,0.1
			c-0.5,0.2-0.8,0.7-1,1.2c-3.8,12.5-14.3,21.8-24.4,30.8l-2.3,2c-8.4,7.5-17,16.3-21.1,26.8c-2-9.3-5-17.2-9-23.8
			c-7.8-12.9-18.9-23.2-29.6-33.1c-0.7-0.7-1.9-0.7-2.6,0c-10.7,10.3-21.8,21-28.9,34.6c-0.9,1.8-1.7,3.5-2.5,5.3
			c-3.8-25.5-19.5-48.9-41.9-61.7c-0.5-0.3-1-0.3-1.5-0.2c-0.5,0.2-0.9,0.5-1.1,1c-7.7,15.5-14.6,32.6-16,49.9
			c-1.7,21.6,6.5,46.6,27.1,56.8c6,3,12.6,4.6,19.3,4.6c6.5,0,12.8-1.5,18.2-4.7c7.2,9.1,18,13.7,32,13.7c4,0,8.2-0.4,12.7-1.1
			c8.5-1.4,17.6-3.8,22.7-10c8.4,9.5,22.7,13.9,37.2,13.9c9.8,0,19.7-2,27.8-5.7c0.5-0.2,1-0.5,1.5-0.8c8.3,6.3,18.6,9.6,29,9.6
			c6.7,0,13.5-1.4,19.7-4.2c10.6-4.9,19-13.8,23.6-24.4c1.2,0.1,2.4,0.2,3.6,0.2c15.2,0,29.6-8,37.8-20.7
			C676.4,447.9,678.6,435.4,677,423.6z M376.9,477.2c-11-10.6-16.7-27.9-15.3-46.3c1.3-17.1,8.1-33.1,14.7-46.7
			c23,13.9,38.1,39.6,39.2,66.4c-2.6,10.9-1.7,21.6,2.8,30.4v0c0.6,1.1,1.2,2.2,1.9,3.2C407.3,491.6,388.8,488.7,376.9,477.2z
			 M488.4,485.1c-3.5,7.1-13.1,9.6-22,11.1c-22,3.7-37.1-2-44.7-17v0c-5.9-11.5-4.9-26.9,2.6-41.2c6.6-12.5,16.8-22.6,26.9-32.4
			c10.1,9.4,20.4,19.2,27.6,31.1c5.6,9.2,9.1,21,10.7,36.1C490,477.1,490.1,481.5,488.4,485.1z M553.1,494.7
			c-19.2,8.8-48.7,7.5-61.3-8.1c2.1-4.4,2-9.4,1.4-14.1c-0.2-1.7-0.4-3.4-0.6-5.1c1.7-13.1,12-23.9,22-32.8l2.2-2
			c10-8.9,20.3-18,24.9-30.6c18.8,8.3,32.4,26.7,34.2,46.5C577.9,471.7,570.5,486.8,553.1,494.7z M603.3,499.3
			c-13.9,6.4-30.9,4.7-43.4-3.9c10.7-6.5,17.1-16.3,19.3-29.4c16-8.6,27-25.9,28-44.1c13.2,7.9,21.8,22.9,21.5,38.3
			C628.4,476.7,618.2,492.4,603.3,499.3z M666.7,455.8c-8,12.3-22.7,19.7-36.8,18.9c1.6-4.6,2.5-9.4,2.6-14.3
			c0.1-9-2.5-17.9-7.2-25.6c8.7-16,12.8-34.6,11.5-52.8c14.5,4.9,26.5,15.5,32.6,28.7c1.8,4,3.1,8.2,3.7,12.5l0,0.3c0,0,0,0,0.1,0
			C674.9,434.7,672.7,446.5,666.7,455.8z"/>
	</g>
</g>
</svg>
