<svg id="Layer_1" data-name="Layer 1" xmlns="http://www.w3.org/2000/svg" viewBox="0 0 404.64 72.75"><title>instructions</title><path d="M5.3,4.9h9.93V75.83H5.3Z" transform="translate(-5.3 -3.99)" style="fill:#00aeef"/><path d="M24.14,4.9h9.53l15.4,43V4.9h9.72V75.83h-9L33.87,31.25V75.83H24.14Z" transform="translate(-5.3 -3.99)" style="fill:#00aeef"/><path d="M65.58,73.3V62.76c4.46,2.73,8.11,4.15,11.55,4.15,4.26,0,7.5-2.43,7.5-7.29v-.21c0-4-1.32-7-7.8-14.79C68.12,34.19,65,29.73,65,21.72v-.2C65,11.09,72.07,4.2,81.19,4.2A21.85,21.85,0,0,1,92.13,6.73V17.27c-3.85-2.33-6.59-3.45-9.83-3.45A7,7,0,0,0,75,21v.21c0,4,1.32,6.08,7.81,13.78,9.42,11.14,11.85,15.9,11.85,23.91v.2c0,10.44-7.4,17.43-16.62,17.43A26.85,26.85,0,0,1,65.58,73.3Z" transform="translate(-5.3 -3.99)" style="fill:#00aeef"/><path d="M105.69,14.33H96.07V4.9h29.07v9.43h-9.52v61.5h-9.93Z" transform="translate(-5.3 -3.99)" style="fill:#00aeef"/><path d="M130.92,4.9h11.55C155,4.9,164,11.9,164,27v.71c0,9.42-3.95,15.61-9.53,19l10.75,29.18H154.42L144.9,49.89c-.4,0-.91.1-1.32.1H141V75.83h-10ZM142.67,41c6.69,0,11.25-4,11.25-13.17v-.61c0-9.72-4.86-13-11.55-13H141V41Z" transform="translate(-5.3 -3.99)" style="fill:#00aeef"/><path d="M170,55.87V4.9h9.93V56.78c0,7.4,2.84,10.74,7,10.74s7.1-3.34,7.1-10.74V4.9h9.82v51c0,14-7,20.87-16.92,20.87S170,69.85,170,55.87Z" transform="translate(-5.3 -3.99)" style="fill:#00aeef"/><path d="M210.74,41.48V39.25c0-24.52,9.12-34.85,20.17-34.85a15.56,15.56,0,0,1,7.8,1.72V16.46c-2.54-1.52-4.56-2.33-6.89-2.33-6.18,0-10.94,6.58-10.94,25v2.43c0,19.15,4.76,25,11,25a13.68,13.68,0,0,0,7-2.23v9.83a15.77,15.77,0,0,1-8.61,2.12C219.25,76.33,210.74,65.8,210.74,41.48Z" transform="translate(-5.3 -3.99)" style="fill:#00aeef"/><path d="M252.79,14.33h-9.62V4.9h29.08v9.43h-9.53v61.5h-9.93Z" transform="translate(-5.3 -3.99)" style="fill:#00aeef"/><path d="M278.42,4.9h9.93V75.83h-9.93Z" transform="translate(-5.3 -3.99)" style="fill:#00aeef"/><path d="M295.85,41.89v-3c0-23.91,7.5-34.86,18.24-34.86s18.24,11,18.24,34.86v3c0,23.91-7.5,34.85-18.24,34.85S295.85,65.8,295.85,41.89Zm26.34,0v-3c0-18.34-3.34-25.74-8.1-25.74S306,20.51,306,38.85v3c0,18.34,3.35,25.73,8.11,25.73S322.19,60.23,322.19,41.89Z" transform="translate(-5.3 -3.99)" style="fill:#00aeef"/><path d="M339.42,4.9h9.52l15.4,43V4.9h9.73V75.83h-9L349.14,31.25V75.83h-9.72Z" transform="translate(-5.3 -3.99)" style="fill:#00aeef"/><path d="M380.86,73.3V62.76c4.46,2.73,8.1,4.15,11.55,4.15,4.25,0,7.5-2.43,7.5-7.29v-.21c0-4-1.32-7-7.81-14.79-8.71-10.43-11.85-14.89-11.85-22.9v-.2c0-10.43,7.09-17.32,16.21-17.32A21.85,21.85,0,0,1,407.4,6.73V17.27c-3.85-2.33-6.58-3.45-9.82-3.45a6.94,6.94,0,0,0-7.3,7.19v.21c0,4,1.32,6.08,7.8,13.78,9.42,11.14,11.86,15.9,11.86,23.91v.2c0,10.44-7.4,17.43-16.62,17.43A26.85,26.85,0,0,1,380.86,73.3Z" transform="translate(-5.3 -3.99)" style="fill:#00aeef"/></svg>