<svg id="Layer_1" data-name="Layer 1" xmlns="http://www.w3.org/2000/svg" viewBox="0 0 388.91 257.73"><title>logo</title><path d="M28.14,163.38h15c16.68,0,33.42,6.78,36.66,25.15l.12.71C82.15,202,76,208.18,69.57,211.57c9,3.67,17.21,9.47,19.43,22.05l.22,1.27c3.09,17.52-8.73,27.42-27.95,27.42H45.58ZM53,204.93c7.63,0,11.95-4.39,10.43-13l-.05-.28c-1.52-8.62-7.26-12.29-14.89-12.29H48.2l4.51,25.58Zm7.44,41.41c7.92,0,12.75-4.67,11.3-12.86l-.12-.71c-1.45-8.2-7.92-12.86-15.84-12.86h-.42L60,246.34Z" transform="translate(-19.21 -113.4)" style="fill:#fff"/><path d="M95.9,233.48l-12.36-70.1h17.1l12.66,71.79c1.57,8.9,5.3,12.44,9.69,12.44s6.86-3.54,5.29-12.44l-12.66-71.79h17.1l12.36,70.1c3.67,20.77-5.15,30.1-19.28,30.1S99.57,254.25,95.9,233.48Z" transform="translate(-19.21 -113.4)" style="fill:#fff"/><path d="M142.62,163.38h16.11c22.05,0,37.44,16,43.05,47.77l.6,3.39c5.6,31.8-4.16,47.77-26.21,47.77H160.06Zm32.6,83.1c8.2,0,14-7.21,9.63-31.94l-.6-3.39c-4.36-24.74-12.7-31.94-20.89-31.94h-.71l11.86,67.27Z" transform="translate(-19.21 -113.4)" style="fill:#fff"/><path d="M201.84,163.38H218c22,0,37.44,16,43.05,47.77l.59,3.39c5.61,31.8-4.15,47.77-26.2,47.77H219.28Zm32.6,83.1c8.19,0,14-7.21,9.63-31.94l-.6-3.39c-4.36-24.74-12.7-31.94-20.9-31.94h-.7l11.86,67.27Z" transform="translate(-19.21 -113.4)" style="fill:#fff"/><path d="M261.05,163.38h17.24l7.23,41h15l-7.22-41h17.24L328,262.31H310.72l-7.33-41.55h-15l7.33,41.55H278.5Z" transform="translate(-19.21 -113.4)" style="fill:#fff"/><path d="M334.5,163.09h18.37l36.29,99.22H371.92l-6.72-19.65H349.52l.35,19.65H333.19Zm25.42,64-11-32.65.39,32.65Z" transform="translate(-19.21 -113.4)" style="fill:#fff"/><path d="M146,272.2h15c16.67,0,33.42,6.79,36.66,25.16l.12.71c2.24,12.72-3.87,18.93-10.34,22.33,9,3.67,17.22,9.47,19.44,22l.22,1.28c3.09,17.52-8.73,27.41-27.95,27.41H163.46Zm24.85,41.55c7.63,0,11.94-4.38,10.42-13l0-.28c-1.52-8.62-7.25-12.3-14.88-12.3h-.29l4.51,25.58Zm7.44,41.41c7.92,0,12.75-4.66,11.3-12.86l-.12-.7c-1.45-8.2-7.93-12.86-15.84-12.86h-.42l4.66,26.42Z" transform="translate(-19.21 -113.4)" style="fill:#fff"/><path d="M214.78,271.92h18.37l36.29,99.21H252.2l-6.72-19.64H229.8l.35,19.64H213.47Zm25.42,64-11-32.64.39,32.64Z" transform="translate(-19.21 -113.4)" style="fill:#fff"/><path d="M257.23,272.2h15c16.67,0,33.42,6.79,36.66,25.16l.12.71c2.24,12.72-3.87,18.93-10.34,22.33,9,3.67,17.22,9.47,19.44,22l.22,1.28c3.09,17.52-8.73,27.41-27.95,27.41H274.67Zm24.85,41.55c7.63,0,11.95-4.38,10.42-13l0-.28c-1.52-8.62-7.26-12.3-14.89-12.3h-.28l4.51,25.58Zm7.44,41.41c7.92,0,12.75-4.66,11.3-12.86l-.12-.7c-1.45-8.2-7.92-12.86-15.84-12.86h-.42l4.66,26.42Z" transform="translate(-19.21 -113.4)" style="fill:#fff"/><path d="M334.62,332.13,305.69,272.2h17.8l15.86,37,2.94-37h17.38l-7.8,59.93,6.87,39H341.5Z" transform="translate(-19.21 -113.4)" style="fill:#fff"/><path d="M365.68,275l-.49-2.83h20.35L386,275l5.58,65.29h-8.48Zm13.91,76.46h19.5l3.47,19.64H383.05Z" transform="translate(-19.21 -113.4)" style="fill:#fff"/><path d="M19.21,117.66h6.9l7,39.61H26.19Z" transform="translate(-19.21 -113.4)" style="fill:#fff"/><path d="M35.14,124.23H30.27l-1.16-6.57H45.75l1.16,6.57H42l5.83,33H41Z" transform="translate(-19.21 -113.4)" style="fill:#fff"/><path d="M50.53,131.92c4-.9,4.35-3.9,3.63-6.39H50.65l-1.39-7.87h7.81l1.14,6.45c1.06,6-1.15,9.85-6.62,10.58Z" transform="translate(-19.21 -113.4)" style="fill:#fff"/><path d="M67.27,155.92,66,148.73c2.69,1.41,4.75,2.21,6.62,2.21s3.51-1,3.08-3.4l0-.11c-.32-1.81-1.13-3.17-5.07-6.91-5.63-5.32-8-7.86-8.86-12.67l0-.12c-1.11-6.33,2.31-10.35,7.8-10.35a13.81,13.81,0,0,1,6.33,1.24l1.27,7.19c-2.37-1.25-3.77-1.81-5.58-1.81s-3.35,1.24-3,3.39l0,.12c.33,1.87,1,2.54,5,6.34,6.55,6.28,8.16,8.71,9,13.24l0,.11c1.1,6.23-2.53,10.36-8,10.36A17.8,17.8,0,0,1,67.27,155.92Z" transform="translate(-19.21 -113.4)" style="fill:#fff"/><path d="M33.71,159.4h15c16.67,0,33.41,6.79,36.65,25.16l.13.7C87.71,198,81.6,204.2,75.13,207.6c9,3.67,17.22,9.46,19.44,22l.22,1.27c3.09,17.53-8.73,27.42-27.95,27.42H51.15ZM58.56,201c7.63,0,11.94-4.38,10.42-13l0-.28c-1.52-8.62-7.25-12.3-14.88-12.3h-.29L58.27,201ZM66,242.36c7.91,0,12.74-4.66,11.3-12.86l-.13-.71c-1.44-8.19-7.92-12.86-15.83-12.86h-.42l4.65,26.43Z" transform="translate(-19.21 -113.4)" style="fill:#cc216c"/><path d="M101.47,229.5,89.11,159.4h17.1l12.66,71.8c1.57,8.9,5.3,12.43,9.68,12.43s6.87-3.53,5.3-12.43l-12.66-71.8h17.1l12.36,70.1c3.66,20.78-5.15,30.1-19.28,30.1S105.13,250.28,101.47,229.5Z" transform="translate(-19.21 -113.4)" style="fill:#cc216c"/><path d="M148.18,159.4h16.11c22.05,0,37.45,16,43.05,47.77l.6,3.39c5.61,31.8-4.15,47.77-26.2,47.77H165.63Zm32.6,83.1c8.2,0,14-7.2,9.64-31.94l-.6-3.39c-4.36-24.73-12.7-31.94-20.9-31.94h-.7l11.86,67.27Z" transform="translate(-19.21 -113.4)" style="fill:#cc216c"/><path d="M207.4,159.4h16.11c22.05,0,37.44,16,43.05,47.77l.6,3.39c5.6,31.8-4.16,47.77-26.2,47.77H224.84ZM240,242.5c8.2,0,14-7.2,9.63-31.94l-.59-3.39c-4.37-24.73-12.7-31.94-20.9-31.94h-.71l11.86,67.27Z" transform="translate(-19.21 -113.4)" style="fill:#cc216c"/><path d="M266.62,159.4h17.24l7.23,41h15l-7.23-41h17.24l17.45,98.93H316.29L309,216.78H294l7.32,41.55H284.06Z" transform="translate(-19.21 -113.4)" style="fill:#cc216c"/><path d="M340.06,159.12h18.37l36.29,99.21H377.48l-6.71-19.64H355.08l.35,19.64H338.76Zm25.42,64-11-32.65.38,32.65Z" transform="translate(-19.21 -113.4)" style="fill:#cc216c"/><path d="M151.58,268.23h15c16.68,0,33.42,6.78,36.66,25.16l.13.7c2.24,12.72-3.87,18.94-10.34,22.33,9,3.68,17.21,9.47,19.43,22.05l.23,1.27c3.09,17.53-8.74,27.42-28,27.42H169Zm24.85,41.55c7.63,0,11.95-4.38,10.43-13l-.05-.28c-1.52-8.63-7.26-12.3-14.89-12.3h-.28l4.51,25.58Zm7.45,41.41c7.91,0,12.74-4.66,11.3-12.86l-.13-.71c-1.44-8.19-7.92-12.86-15.83-12.86h-.43l4.66,26.43Z" transform="translate(-19.21 -113.4)" style="fill:#cc216c"/><path d="M220.34,268h18.37L275,367.16H257.76l-6.71-19.64H235.36l.36,19.64H219Zm25.42,64-11-32.65.38,32.65Z" transform="translate(-19.21 -113.4)" style="fill:#cc216c"/><path d="M262.79,268.23h15c16.68,0,33.42,6.78,36.66,25.16l.13.7c2.24,12.72-3.87,18.94-10.34,22.33,9,3.68,17.22,9.47,19.43,22.05l.23,1.27c3.09,17.53-8.74,27.42-28,27.42H280.24Zm24.85,41.55c7.64,0,11.95-4.38,10.43-13l-.05-.28c-1.52-8.63-7.26-12.3-14.89-12.3h-.28l4.51,25.58Zm7.45,41.41c7.91,0,12.74-4.66,11.3-12.86l-.13-.71c-1.44-8.19-7.92-12.86-15.83-12.86H290l4.66,26.43Z" transform="translate(-19.21 -113.4)" style="fill:#cc216c"/><path d="M340.19,328.15l-28.94-59.92h17.81l15.85,37,2.94-37h17.39l-7.81,59.92,6.88,39H347.07Z" transform="translate(-19.21 -113.4)" style="fill:#cc216c"/><path d="M371.25,271.06l-.5-2.83H391.1l.5,2.83,5.58,65.29H388.7Zm13.9,76.46h19.51l3.46,19.64h-19.5Z" transform="translate(-19.21 -113.4)" style="fill:#cc216c"/><path d="M24.77,113.69h6.91l7,39.61h-6.9Z" transform="translate(-19.21 -113.4)" style="fill:#cc216c"/><path d="M40.7,120.25H35.84l-1.16-6.56H51.32l1.15,6.56H47.61l5.82,33.05h-6.9Z" transform="translate(-19.21 -113.4)" style="fill:#cc216c"/><path d="M56.1,128c4-.91,4.34-3.91,3.62-6.4H56.21l-1.38-7.86h7.81l1.13,6.45c1.06,6-1.15,9.84-6.62,10.58Z" transform="translate(-19.21 -113.4)" style="fill:#cc216c"/><path d="M72.83,151.94l-1.26-7.19c2.68,1.42,4.74,2.21,6.61,2.21s3.51-1,3.08-3.39l0-.12c-.32-1.81-1.12-3.17-5.06-6.9-5.64-5.32-8-7.87-8.86-12.68l0-.11c-1.12-6.34,2.3-10.36,7.79-10.36a13.82,13.82,0,0,1,6.34,1.25l1.26,7.18c-2.37-1.24-3.77-1.81-5.58-1.81a2.75,2.75,0,0,0-3,3.4l0,.11c.33,1.87,1,2.55,5,6.34,6.54,6.28,8.16,8.72,9,13.24l0,.12c1.09,6.22-2.54,10.35-8,10.35A17.8,17.8,0,0,1,72.83,151.94Z" transform="translate(-19.21 -113.4)" style="fill:#cc216c"/></svg>