<?xml version="1.0" encoding="utf-8"?>
<!-- Generator: Adobe Illustrator 22.1.0, SVG Export Plug-In . SVG Version: 6.00 Build 0)  -->
<svg version="1.1" id="Layer_1" xmlns="http://www.w3.org/2000/svg" xmlns:xlink="http://www.w3.org/1999/xlink" x="0px" y="0px"
	 viewBox="0 0 193.3 158.3" style="enable-background:new 0 0 193.3 158.3;" xml:space="preserve">
<style type="text/css">
	.st0{fill:#00AEEF;}
	.st1{fill:#FFFFFF;}
</style>
<g>
	<g>
		<g>
			<g>
				<path class="st0" d="M50.9,122.8c-25.3,0-45.3-22.6-46.2-23.5l-1.4-1.6L4.8,96C5.6,95,25.7,72.5,51,72.5
					C76.2,72.4,96.3,95,97.1,96l1.4,1.6l-1.4,1.6C96.3,100.2,76.2,122.8,50.9,122.8L50.9,122.8z"/>
				<path class="st1" d="M50.9,74.9c24.5,0,44.3,22.7,44.3,22.7s-19.9,22.7-44.3,22.7c-24.5,0-44.3-22.7-44.3-22.7
					S26.5,74.9,50.9,74.9 M50.9,69.9c-26.4,0-47.2,23.4-48.1,24.4L0,97.6l2.9,3.3c0.9,1,21.6,24.4,48.1,24.4
					c26.4,0,47.2-23.4,48.1-24.4l2.9-3.3l-3-3.3C98.1,93.3,77.4,69.9,50.9,69.9L50.9,69.9z"/>
			</g>
		</g>
		<g>
			<g>
				<path class="st0" d="M142.3,122.8c-25.3,0-45.4-22.6-46.2-23.5l-1.4-1.6l1.4-1.6c0.8-1,20.9-23.5,46.2-23.5s45.3,22.6,46.2,23.5
					l1.4,1.6l-1.4,1.6C187.7,100.2,167.7,122.8,142.3,122.8L142.3,122.8z"/>
				<path class="st1" d="M142.3,74.9c24.5,0,44.3,22.7,44.3,22.7s-19.8,22.7-44.3,22.7S98,97.6,98,97.6S117.9,74.9,142.3,74.9
					 M142.3,69.9c-26.4,0-47.2,23.4-48.1,24.4l-2.9,3.3l2.9,3.3c0.9,1,21.6,24.4,48.1,24.4c26.4,0,47.2-23.4,48.1-24.4l2.9-3.3
					l-2.9-3.3C189.5,93.3,168.8,69.9,142.3,69.9L142.3,69.9z"/>
			</g>
		</g>
	</g>
	<g>
		<path class="st0" d="M95.5,155c-1.2-0.6-29.1-14.6-29.1-32.8S94.3,90,95.5,89.4l1.1-0.5l1.1,0.5c1.2,0.6,29.1,14.6,29.1,32.8
			S98.9,154.4,97.7,155l-1.1,0.5L95.5,155z"/>
		<path class="st1" d="M96.6,91.6c0,0,27.7,13.7,27.7,30.6s-27.7,30.6-27.7,30.6s-27.7-13.7-27.7-30.6S96.6,91.6,96.6,91.6 M96.6,86
			l-2.2,1.1c-0.3,0.2-7.5,3.7-14.8,9.5c-10.4,8.3-15.7,16.9-15.7,25.5s5.3,17.2,15.7,25.5c7.3,5.8,14.5,9.4,14.8,9.5l2.2,1.1
			l2.2-1.1c0.3-0.1,7.5-3.7,14.8-9.5c10.4-8.3,15.7-16.9,15.7-25.5S124,105,113.6,96.6c-7.3-5.8-14.5-9.4-14.8-9.5L96.6,86L96.6,86z
			"/>
	</g>
	<g>
		<g>
			<g>
				<path class="st0" d="M85.2,90.1c-10.9,0-21.2-6.5-29-18.2c-12-18.1-3.6-49.3-3.2-50.7l0.7-2.4l2.4,0.6
					c1.5,0.4,36.7,9.6,48.6,27.5c6.1,9.2,8.3,18,6.3,25.4c-1.6,6.2-6,11.2-12.6,14.5C94.1,89,89.7,90.1,85.2,90.1z"/>
				<g>
					<path class="st1" d="M55.4,22c0,0,35.6,9.2,47.2,26.5s6.9,30.2-5.3,36.3c-3.8,1.9-7.9,2.9-12,2.9c-9.3,0-18.9-5.1-26.9-17.1
						C46.7,53.2,55.4,22,55.4,22 M51.9,15.9l-1.3,4.7c-0.4,1.4-9.1,33.7,3.6,52.7c8.3,12.4,19.3,19.3,31.1,19.3
						c4.9,0,9.7-1.2,14.3-3.5c7.3-3.6,12.1-9.2,13.9-16.1c1.5-5.7,1.6-15.1-6.7-27.4C94.3,27,58.2,17.5,56.6,17.1L51.9,15.9
						L51.9,15.9z"/>
				</g>
			</g>
		</g>
		<g>
			<g>
				<path class="st0" d="M109.3,90.1c-4.5,0-8.9-1.1-13.1-3.2c-6.6-3.3-11-8.3-12.6-14.5c-2-7.4,0.2-16.2,6.3-25.4
					c11.9-17.9,47.2-27.1,48.6-27.5l2.4-0.6l0.7,2.4c0.4,1.3,8.8,32.6-3.2,50.7C130.4,83.7,120.1,90.1,109.3,90.1z"/>
				<g>
					<path class="st1" d="M139.1,22c0,0,8.7,31.3-2.9,48.6c-8,12-17.7,17.1-26.9,17.1c-4.2,0-8.2-1-12-2.9c-12.3-6.2-17-19-5.4-36.4
						C103.5,31.1,139.1,22,139.1,22 M142.6,15.9l-4.8,1.2c-1.5,0.4-37.6,9.8-50.1,28.5C79.4,58,79.5,67.3,81,73
						c1.9,7,6.7,12.5,14,16.2c4.6,2.3,9.4,3.4,14.3,3.4c11.8,0,22.8-6.8,31.1-19.3c12.7-19,3.9-51.3,3.6-52.7L142.6,15.9L142.6,15.9
						z"/>
				</g>
			</g>
		</g>
		<g>
			<path class="st0" d="M97.2,81.7c-13.6,0-28.1-8.3-28.1-31.6c0-20.9,25.3-44.2,26.4-45.2l1.7-1.5l1.7,1.5
				c1.1,1,26.4,24.3,26.4,45.2C125.3,73.4,110.8,81.7,97.2,81.7z"/>
			<g>
				<path class="st1" d="M97.2,6.8c0,0,25.6,23.3,25.6,43.4c0,20-11.5,29.1-25.6,29.1s-25.6-9.1-25.6-29.1
					C71.7,30.1,97.2,6.8,97.2,6.8 M97.2,0l-3.4,3.1c-1.1,1-27.2,25.1-27.2,47c0,10.7,3.1,19.5,8.9,25.5c5.4,5.6,12.9,8.6,21.7,8.6
					c8.7,0,16.2-3,21.7-8.6c5.8-6,8.9-14.8,8.9-25.5c0-22-26.1-46-27.2-47L97.2,0L97.2,0z"/>
			</g>
		</g>
		<g>
			<g>
				<path class="st0" d="M119.6,100.2c-7.3,0-13.9-2.7-19.1-7.7c-4.9-4.7-7.3-10.4-6.9-16.4c0.5-7.9,5.7-15.9,15.2-23.3
					C124.2,40.9,154.1,40,162.9,40c1.2,0,1.9,0,1.9,0l2.7,0.1l-0.3,2.7c-0.1,1.4-3.5,33.3-21.4,47.1
					C137.1,96.6,128,100.2,119.6,100.2z"/>
				<g>
					<path class="st1" d="M162.9,42.5c1.2,0,1.8,0,1.8,0s-3.2,32-20.4,45.3c-8.9,6.9-17.3,9.8-24.7,9.8c-6.9,0-12.9-2.6-17.4-7
						c-9.4-9.1-9.2-22.6,8.1-35.9C125.3,43.3,155.2,42.5,162.9,42.5 M162.9,37.5v5V37.5L162.9,37.5c-9,0-39.6,1-55.6,13.4
						c-12.8,9.8-15.9,19-16.2,25.1c-0.4,6.7,2.3,13,7.7,18.3c5.7,5.5,12.9,8.4,20.9,8.4c8.9,0,18.5-3.8,27.8-10.9
						c18.8-14.4,22.2-47.4,22.3-48.8l0.5-5.3l-5.4-0.2C164.9,37.5,164.2,37.5,162.9,37.5L162.9,37.5z"/>
				</g>
			</g>
		</g>
		<g>
			<g>
				<path class="st0" d="M73.6,100.2c-8.4,0-17.4-3.6-26.2-10.3C29.5,76,26.2,44.1,26,42.8l-0.3-2.7l2.7-0.1c0,0,0.7,0,1.9,0
					c8.8,0,38.7,0.9,54.1,12.8c9.5,7.3,14.8,15.4,15.2,23.3c0.3,6-2,11.6-6.9,16.4C87.6,97.5,81,100.2,73.6,100.2L73.6,100.2z"/>
				<g>
					<path class="st1" d="M30.4,42.5c7.7,0,37.6,0.8,52.6,12.3c17.3,13.3,17.5,26.7,8.1,35.9c-4.5,4.4-10.5,7-17.4,7
						c-7.4,0-15.8-3-24.7-9.8C31.7,74.6,28.5,42.5,28.5,42.5S29.2,42.5,30.4,42.5 M30.4,37.5c-1.3,0-2,0-2,0L23,37.7l0.5,5.3
						c0.1,1.4,3.6,34.4,22.3,48.8c9.2,7.1,18.8,10.9,27.8,10.9c8,0,15.2-2.9,20.9-8.4c5.4-5.2,8.1-11.6,7.7-18.3
						c-0.3-6-3.4-15.3-16.2-25.1C69.9,38.5,39.3,37.5,30.4,37.5L30.4,37.5z"/>
				</g>
			</g>
		</g>
		<g>
			<path class="st0" d="M97.2,103.6c-17.3,0-28.1-10.7-28.1-28c0-18.5,25.4-39.1,26.5-40l1.6-1.3l1.6,1.3c1.1,0.9,26.5,21.4,26.5,40
				C125.3,92.9,114.6,103.6,97.2,103.6z"/>
			<g>
				<path class="st1" d="M97.2,37.6c0,0,25.6,20.5,25.6,38s-11.5,25.5-25.6,25.5s-25.6-8-25.6-25.5C71.7,58.1,97.2,37.6,97.2,37.6
					 M97.2,31.2l-3.1,2.5c-0.3,0.2-6.8,5.5-13.4,13c-9.3,10.6-14,20.4-14,28.9c0,9.7,3.2,17.6,9.1,23c5.4,4.9,12.8,7.5,21.4,7.5
					s16-2.6,21.4-7.5c6-5.4,9.1-13.4,9.1-23c0-8.5-4.7-18.2-14-28.9c-6.6-7.6-13.1-12.8-13.4-13L97.2,31.2L97.2,31.2z"/>
			</g>
		</g>
	</g>
</g>
</svg>
