<?xml version="1.0" encoding="utf-8"?>
<!-- Generator: Adobe Illustrator 22.1.0, SVG Export Plug-In . SVG Version: 6.00 Build 0)  -->
<svg version="1.1" id="Layer_1" xmlns="http://www.w3.org/2000/svg" xmlns:xlink="http://www.w3.org/1999/xlink" x="0px" y="0px"
	 viewBox="0 0 584.5 170" style="enable-background:new 0 0 584.5 170;" xml:space="preserve">
<style type="text/css">
	.st0{fill:#FFFFFF;}
	.st1{fill:#333333;}
	.st2{fill:#EC008C;}
</style>
<g>
	<path class="st0" d="M538.7,150.3H116c-21.9,0-39.6-17.7-39.6-39.6V58.9c0-21.9,17.7-39.6,39.6-39.6h422.7
		c21.9,0,39.6,17.7,39.6,39.6v51.8C578.3,132.6,560.5,150.3,538.7,150.3z"/>
	<g>
		<path class="st1" d="M218.7,41.7h3.8v18h4v3.6h-7.7V41.7z"/>
		<path class="st1" d="M228.5,55.6v-1c0-5.3,2.2-8.1,5.1-8.1s5.1,2.7,5.1,8.1v1c0,5.3-2.2,8.1-5.1,8.1S228.5,60.9,228.5,55.6z
			 M235.1,55.6v-1.1c0-3.3-0.6-4.8-1.5-4.8c-0.9,0-1.5,1.5-1.5,4.8v1.1c0,3.2,0.6,4.8,1.5,4.8C234.6,60.4,235.1,58.8,235.1,55.6z"/>
		<path class="st1" d="M242.1,60.5V49.7h-1v-3h1v-4.2h3.6v4.2h1.9v3h-1.9v9.5c0,0.7,0.4,1,1,1c0.3,0,0.6-0.1,0.9-0.2V63
			c-0.6,0.3-1.4,0.6-2.2,0.6C243.8,63.5,242.1,63,242.1,60.5z"/>
		<path class="st1" d="M250.4,59.3V46.8h3.6v11.7c0,1.2,0.5,1.9,1.2,1.9c0.7,0,1.3-0.7,1.3-1.9V46.8h3.6v16.5h-3.6v-2
			c-0.6,1.3-1.5,2.3-2.9,2.3C251.5,63.6,250.4,61.8,250.4,59.3z"/>
		<path class="st1" d="M262.9,62.9v-3.6c1.2,0.6,2.2,1,3.1,1c0.8,0,1.3-0.5,1.3-1.2V59c0-0.7-0.3-1.2-1.9-2.7
			c-1.7-1.6-2.8-3.1-2.8-5.2V51c0-2.7,1.9-4.5,4.7-4.5c1,0,1.8,0.1,2.7,0.4v3.6c-0.8-0.4-1.7-0.7-2.5-0.7s-1.4,0.5-1.4,1.1V51
			c0,0.6,0.3,1,2,2.7c2,2,2.7,3.3,2.7,5.2v0.1c0,2.9-2,4.7-4.6,4.7C265.2,63.6,264,63.3,262.9,62.9z"/>
		<path class="st1" d="M279.6,41.7h3.4c4.1,0,7,2.2,7,7.3v0.1c0,4.9-2.7,7.2-6.5,7.5h0v6.8h-3.8V41.7z M283.4,53
			c1.6-0.1,2.8-1.2,2.8-3.9v-0.1c0-2.7-1-3.9-2.7-3.9h-0.1L283.4,53L283.4,53z"/>
		<path class="st1" d="M292.3,55.6v-1c0-5.3,2.2-8.1,5.1-8.1s5.1,2.7,5.1,8.1v1c0,5.3-2.2,8.1-5.1,8.1S292.3,60.9,292.3,55.6z
			 M298.9,55.6v-1.1c0-3.3-0.6-4.8-1.5-4.8s-1.5,1.5-1.5,4.8v1.1c0,3.2,0.6,4.8,1.5,4.8S298.9,58.8,298.9,55.6z"/>
		<path class="st1" d="M304.5,46.8h3.7l1.2,9.3l1.4-9.3h3l1.4,9.3l1.2-9.3h3.6l-2.8,16.6h-3.6l-1.4-9l-1.4,9h-3.6L304.5,46.8z"/>
		<path class="st1" d="M321.8,55.5v-0.8c0-5.3,2.3-8.1,5-8.1c2.9,0,4.7,2.9,4.7,8.3v1.9h-6.1c0.2,2.6,1.3,3.5,2.5,3.5
			c1.1,0,1.8-0.5,2.9-1.2l0.3,3.3c-1.3,0.8-2.3,1.3-3.6,1.3C324.4,63.6,321.8,60.8,321.8,55.5z M328.1,53.9c0-2.8-0.4-4.1-1.3-4.1
			c-0.8,0-1.4,1.2-1.4,4.1H328.1z"/>
		<path class="st1" d="M334.2,46.8h3.6v2.1c0.5-1.4,1.3-2.3,2.7-2.3V51h-0.1c-1.7,0-2.6,1.2-2.6,3.5v8.8h-3.6V46.8z"/>
		<path class="st1" d="M342.9,51.9h8v3.7h-8V51.9z"/>
		<path class="st1" d="M354.4,57V41.7h3.7v15.7c0,1.9,0.7,2.7,1.6,2.7c1,0,1.6-0.8,1.6-2.7V41.7h3.7V57c0,4.5-2.3,6.6-5.4,6.6
			C356.6,63.6,354.4,61.6,354.4,57z"/>
		<path class="st1" d="M368.4,46.8h3.6v2.1c0.5-1,1.3-2.4,2.9-2.4c2,0,3.5,1.9,3.5,7.8v1.5c0,5.9-1.5,7.8-3.5,7.8
			c-1.6,0-2.3-1.3-2.9-2.3v6h-3.6V46.8z M374.8,55.6v-1.1c0-3-0.4-4.5-1.4-4.5s-1.5,1.6-1.5,4.5v1.1c0,2.9,0.5,4.5,1.5,4.5
			S374.8,58.5,374.8,55.6z"/>
		<path class="st1" d="M219.3,74.7h1.4v20.4h5.4v1.2h-6.8V74.7z"/>
		<path class="st1" d="M228.3,88.4v-0.3c0-5.1,2.2-8.2,4.6-8.2s4.6,3.1,4.6,8.2v0.3c0,5.1-2.2,8.2-4.6,8.2S228.3,93.5,228.3,88.4z
			 M236.2,88.4v-0.3c0-4.3-1.5-7-3.3-7s-3.3,2.7-3.3,7v0.3c0,4.3,1.5,7,3.3,7S236.2,92.6,236.2,88.4z"/>
		<path class="st1" d="M241.3,80.1h1.3v2.4c0.6-1.5,1.9-2.7,3.8-2.6v1.4h-0.1c-2,0-3.7,1.3-3.7,4.1v10.9h-1.3V80.1z"/>
		<path class="st1" d="M248.5,88.5v-0.3c0-5.6,2.1-8.4,4.4-8.4c2.4,0,4.2,2.9,4.2,7.9v1h-7.4c0.1,4.4,1.9,6.5,4,6.5
			c1,0,1.8-0.2,2.8-1l0.2,1.3c-1.1,0.6-1.9,0.9-3.1,0.9C251,96.6,248.5,93.9,248.5,88.5z M255.9,87.6c0-3.7-1.2-6.5-3-6.5
			c-1.7,0-3,2.3-3.1,6.5H255.9z"/>
		<path class="st1" d="M261.1,80.1h1.3v2.4c0.6-1.4,1.5-2.6,3.2-2.6c1.8,0,2.7,1.2,3.2,2.7c0.6-1.3,1.6-2.7,3.6-2.7
			c2.2,0,3.7,1.8,3.7,5.1v11.4h-1.3V85.1c0-2.7-1-4.1-2.6-4.1c-1.7,0-3,1.7-3,4.3v11H268V85.1c0-2.7-1-4.1-2.6-4.1
			c-1.7,0-3,1.7-3,4.3v11h-1.3V80.1z"/>
		<path class="st1" d="M287,74.5h1.4v2.2H287V74.5z M287,80.1h1.3v16.2H287V80.1z"/>
		<path class="st1" d="M293,80.1h1.3v3.1c0.6-1.9,1.8-3.4,3.4-3.4c2.2,0,4.2,2.8,4.2,8.1v0.6c0,5.2-2,8.1-4.2,8.1
			c-1.6,0-2.7-1.5-3.4-3.4v7.1H293V80.1z M300.6,88.5V88c0-4.4-1.4-6.9-3.1-6.9c-1.6,0-3.3,2.5-3.3,6.8v0.8c0,4.4,1.7,6.8,3.3,6.8
			C299.2,95.4,300.6,92.9,300.6,88.5z"/>
		<path class="st1" d="M305,95.8v-1.4c1.1,0.6,2.3,0.9,3.3,0.9c1.4,0,2.5-0.9,2.5-2.4v-0.1c0-1.1-0.6-2.3-2.6-4.1
			c-2.4-2.3-3.2-3.5-3.2-5.2v-0.1c0-2.3,1.8-3.5,3.7-3.5c1.1,0,1.8,0.2,2.7,0.5v1.4c-0.9-0.5-1.8-0.7-2.7-0.7
			c-1.3,0-2.3,0.9-2.3,2.3v0.1c0,1.2,0.6,2.1,2.6,4c2.3,2.3,3.2,3.6,3.2,5.3v0.1c0,2.3-1.9,3.7-3.8,3.7C307,96.5,306,96.2,305,95.8z
			"/>
		<path class="st1" d="M315.6,91.5V80.1h1.3v11.2c0,2.7,1,4.1,2.7,4.1c1.7,0,3.1-1.8,3.1-4.4v-11h1.3v16.2h-1.3V94
			c-0.6,1.4-1.5,2.6-3.3,2.6C317.1,96.6,315.6,94.8,315.6,91.5z"/>
		<path class="st1" d="M328.4,80.1h1.3v2.4c0.6-1.4,1.5-2.6,3.2-2.6c1.8,0,2.7,1.2,3.2,2.7c0.6-1.3,1.6-2.7,3.6-2.7
			c2.2,0,3.7,1.8,3.7,5.1v11.4h-1.3V85.1c0-2.7-1-4.1-2.6-4.1c-1.7,0-3,1.7-3,4.3v11h-1.3V85.1c0-2.7-1-4.1-2.6-4.1
			c-1.7,0-3,1.7-3,4.3v11h-1.3V80.1z"/>
		<path class="st1" d="M353.5,88.5v-0.6c0-5.2,2-8.1,4.2-8.1c1.6,0,2.7,1.5,3.4,3.4v-8.7h1.3v21.8h-1.3v-3.1
			c-0.6,1.9-1.8,3.4-3.4,3.4C355.5,96.6,353.5,93.7,353.5,88.5z M361.2,88.6v-0.8c0-4.4-1.7-6.8-3.3-6.8c-1.7,0-3.1,2.5-3.1,6.9v0.5
			c0,4.4,1.4,6.9,3.1,6.9C359.5,95.4,361.2,93,361.2,88.6z"/>
		<path class="st1" d="M366.3,88.4v-0.3c0-5.1,2.2-8.2,4.6-8.2s4.6,3.1,4.6,8.2v0.3c0,5.1-2.2,8.2-4.6,8.2
			C368.4,96.6,366.3,93.5,366.3,88.4z M374.2,88.4v-0.3c0-4.3-1.5-7-3.3-7s-3.3,2.7-3.3,7v0.3c0,4.3,1.5,7,3.3,7
			S374.2,92.6,374.2,88.4z"/>
		<path class="st1" d="M379.5,74.5h1.3v21.8h-1.3V74.5z"/>
		<path class="st1" d="M384.8,88.4v-0.3c0-5.1,2.2-8.2,4.6-8.2s4.6,3.1,4.6,8.2v0.3c0,5.1-2.2,8.2-4.6,8.2
			C387,96.6,384.8,93.5,384.8,88.4z M392.7,88.4v-0.3c0-4.3-1.5-7-3.3-7s-3.3,2.7-3.3,7v0.3c0,4.3,1.5,7,3.3,7
			S392.7,92.6,392.7,88.4z"/>
		<path class="st1" d="M397.9,80.1h1.3v2.4c0.6-1.5,1.9-2.7,3.8-2.6v1.4h-0.1c-2,0-3.7,1.3-3.7,4.1v10.9h-1.3V80.1z"/>
		<path class="st1" d="M411.8,95.8v-1.4c1.1,0.6,2.3,0.9,3.3,0.9c1.4,0,2.5-0.9,2.5-2.4v-0.1c0-1.1-0.6-2.3-2.6-4.1
			c-2.4-2.3-3.2-3.5-3.2-5.2v-0.1c0-2.3,1.8-3.5,3.7-3.5c1.1,0,1.8,0.2,2.7,0.5v1.4c-0.9-0.5-1.8-0.7-2.7-0.7
			c-1.3,0-2.3,0.9-2.3,2.3v0.1c0,1.2,0.6,2.1,2.6,4c2.3,2.3,3.2,3.6,3.2,5.3v0.1c0,2.3-1.9,3.7-3.8,3.7
			C413.8,96.5,412.8,96.2,411.8,95.8z"/>
		<path class="st1" d="M422.6,74.5h1.4v2.2h-1.4V74.5z M422.7,80.1h1.3v16.2h-1.3V80.1z"/>
		<path class="st1" d="M429.2,93.6V81.3h-1.5v-1.2h1.5v-4.6h1.3v4.6h2.6v1.2h-2.6v12.1c0,1.4,0.6,1.8,1.7,1.8c0.3,0,0.7-0.1,1-0.2
			v1.2c-0.3,0.1-0.8,0.2-1.1,0.2C430.3,96.5,429.2,95.7,429.2,93.6z"/>
		<path class="st1" d="M442.4,91.6v-0.2c0-3,1.5-5.2,4.3-5.2c1.1,0,2,0.3,2.7,0.6v-2c0-2.3-1-3.6-3.1-3.6c-1.1,0-2,0.2-3,0.7v-1.3
			c0.9-0.4,1.9-0.7,3.1-0.7c2.7,0,4.3,1.6,4.3,4.7v11.7h-1.3V94c-0.6,1.6-1.7,2.6-3.3,2.6C443.9,96.6,442.4,94.5,442.4,91.6z
			 M449.4,91.3V88c-0.9-0.4-1.7-0.6-2.7-0.6c-2,0-3,1.7-3,3.9v0.2c0,2.2,0.9,3.9,2.6,3.9C448.2,95.5,449.4,93.4,449.4,91.3z"/>
		<path class="st1" d="M455,80.1h1.3v2.4c0.6-1.4,1.5-2.6,3.2-2.6c1.8,0,2.7,1.2,3.2,2.7c0.6-1.3,1.6-2.7,3.6-2.7
			c2.2,0,3.7,1.8,3.7,5.1v11.4h-1.3V85.1c0-2.7-1-4.1-2.6-4.1c-1.7,0-3,1.7-3,4.3v11h-1.3V85.1c0-2.7-1-4.1-2.6-4.1
			c-1.7,0-3,1.7-3,4.3v11H455V80.1z"/>
		<path class="st1" d="M473.8,88.5v-0.3c0-5.6,2.1-8.4,4.4-8.4c2.4,0,4.2,2.9,4.2,7.9v1h-7.4c0.1,4.4,1.9,6.5,4,6.5
			c1,0,1.8-0.2,2.8-1l0.2,1.3c-1.1,0.6-1.9,0.9-3.1,0.9C476.2,96.6,473.8,93.9,473.8,88.5z M481.2,87.6c0-3.7-1.2-6.5-3-6.5
			c-1.7,0-3,2.3-3.1,6.5H481.2z"/>
		<path class="st1" d="M486.7,93.6V81.3h-1.5v-1.2h1.5v-4.6h1.3v4.6h2.6v1.2H488v12.1c0,1.4,0.6,1.8,1.7,1.8c0.3,0,0.7-0.1,1-0.2
			v1.2c-0.3,0.1-0.8,0.2-1.1,0.2C487.8,96.5,486.7,95.7,486.7,93.6z"/>
		<path class="st1" d="M493.4,98.7c1.2-0.5,1.7-1.2,1.6-2.4h-0.8v-2.5h1.9V96c0,1.9-0.6,2.7-2.3,3.5L493.4,98.7z"/>
		<path class="st1" d="M218.6,121.5v-0.3c0-5.6,2.5-8.2,4.9-8.2c0.8,0,1.5,0.2,1.9,0.6v1.4c-0.6-0.4-1.2-0.7-2-0.7
			c-1.7,0-3.6,2.1-3.6,6.9v0.4c0,4.9,1.9,6.8,3.7,6.8c0.7,0,1.3-0.3,1.9-0.7v1.4c-0.5,0.4-1.1,0.6-1.9,0.6
			C221,129.6,218.6,127.1,218.6,121.5z"/>
		<path class="st1" d="M228.2,121.4v-0.3c0-5.1,2.2-8.2,4.6-8.2s4.6,3.1,4.6,8.2v0.3c0,5.1-2.2,8.2-4.6,8.2S228.2,126.5,228.2,121.4
			z M236.1,121.4v-0.3c0-4.3-1.5-7-3.3-7s-3.3,2.7-3.3,7v0.3c0,4.3,1.5,7,3.3,7S236.1,125.7,236.1,121.4z"/>
		<path class="st1" d="M241.3,113.2h1.3v2.4c0.6-1.4,1.5-2.6,3.3-2.6c2.2,0,3.7,1.8,3.7,5.1v11.3h-1.3v-11.2c0-2.7-1-4.1-2.7-4.1
			c-1.7,0-3.1,1.8-3.1,4.4v11h-1.3V113.2z"/>
		<path class="st1" d="M253.1,128.8v-1.4c1.1,0.6,2.3,0.9,3.3,0.9c1.4,0,2.5-0.9,2.5-2.4v-0.1c0-1.1-0.6-2.3-2.6-4.1
			c-2.4-2.3-3.2-3.5-3.2-5.2v-0.1c0-2.3,1.8-3.5,3.7-3.5c1.1,0,1.8,0.2,2.7,0.5v1.4c-0.9-0.5-1.8-0.7-2.7-0.7
			c-1.3,0-2.3,0.9-2.3,2.3v0.1c0,1.2,0.6,2.1,2.6,4c2.3,2.3,3.2,3.6,3.2,5.3v0.1c0,2.3-1.9,3.7-3.8,3.7
			C255.1,129.5,254.1,129.3,253.1,128.8z"/>
		<path class="st1" d="M263.2,121.5v-0.3c0-5.6,2.1-8.4,4.4-8.4c2.4,0,4.2,2.9,4.2,7.9v1h-7.4c0.1,4.4,1.9,6.5,4,6.5
			c1,0,1.8-0.2,2.8-1l0.2,1.3c-1.1,0.6-1.9,0.9-3.1,0.9C265.6,129.6,263.2,126.9,263.2,121.5z M270.6,120.7c0-3.7-1.2-6.5-3-6.5
			c-1.7,0-3,2.3-3.1,6.5H270.6z"/>
		<path class="st1" d="M275.1,121.5v-0.3c0-5.6,2.5-8.2,4.9-8.2c0.8,0,1.5,0.2,1.9,0.6v1.4c-0.6-0.4-1.2-0.7-2-0.7
			c-1.7,0-3.6,2.1-3.6,6.9v0.4c0,4.9,1.9,6.8,3.7,6.8c0.7,0,1.3-0.3,1.9-0.7v1.4c-0.5,0.4-1.1,0.6-1.9,0.6
			C277.5,129.6,275.1,127.1,275.1,121.5z"/>
		<path class="st1" d="M286,126.6v-12.3h-1.5v-1.2h1.5v-4.6h1.3v4.6h2.6v1.2h-2.6v12.1c0,1.4,0.6,1.8,1.7,1.8c0.3,0,0.7-0.1,1-0.2
			v1.2c-0.3,0.1-0.8,0.2-1.1,0.2C287.1,129.5,286,128.7,286,126.6z"/>
		<path class="st1" d="M292.7,121.5v-0.3c0-5.6,2.1-8.4,4.4-8.4c2.4,0,4.2,2.9,4.2,7.9v1H294c0.1,4.4,1.9,6.5,4,6.5
			c1,0,1.8-0.2,2.8-1l0.2,1.3c-1.1,0.6-1.9,0.9-3.1,0.9C295.2,129.6,292.7,126.9,292.7,121.5z M300.1,120.7c0-3.7-1.2-6.5-3-6.5
			c-1.7,0-3,2.3-3.1,6.5H300.1z"/>
		<path class="st1" d="M305.7,126.6v-12.3h-1.5v-1.2h1.5v-4.6h1.3v4.6h2.6v1.2H307v12.1c0,1.4,0.6,1.8,1.7,1.8c0.3,0,0.7-0.1,1-0.2
			v1.2c-0.3,0.1-0.8,0.2-1.1,0.2C306.8,129.5,305.7,128.7,305.7,126.6z"/>
		<path class="st1" d="M313.2,124.5v-11.3h1.3v11.2c0,2.7,1,4.1,2.7,4.1c1.7,0,3.1-1.8,3.1-4.4v-11h1.3v16.2h-1.3V127
			c-0.6,1.4-1.5,2.6-3.3,2.6C314.7,129.6,313.2,127.8,313.2,124.5z"/>
		<path class="st1" d="M325.4,121.5v-0.3c0-5.6,2.1-8.4,4.4-8.4c2.4,0,4.2,2.9,4.2,7.9v1h-7.4c0.1,4.4,1.9,6.5,4,6.5
			c1,0,1.8-0.2,2.8-1l0.2,1.3c-1.1,0.6-1.9,0.9-3.1,0.9C327.9,129.6,325.4,126.9,325.4,121.5z M332.8,120.7c0-3.7-1.2-6.5-3-6.5
			c-1.7,0-3,2.3-3.1,6.5H332.8z"/>
		<path class="st1" d="M338,113.2h1.3v2.4c0.6-1.5,1.9-2.7,3.8-2.6v1.4h-0.1c-2,0-3.7,1.3-3.7,4.1v10.9H338V113.2z"/>
		<path class="st1" d="M352,124.6v-0.2c0-3,1.5-5.2,4.3-5.2c1.1,0,2,0.3,2.7,0.6v-2c0-2.3-1-3.6-3.1-3.6c-1.1,0-2,0.2-3,0.7v-1.3
			c0.9-0.4,1.9-0.7,3.1-0.7c2.7,0,4.3,1.6,4.3,4.7v11.7H359V127c-0.6,1.6-1.7,2.6-3.3,2.6C353.6,129.6,352,127.5,352,124.6z
			 M359,124.3v-3.2c-0.9-0.4-1.7-0.6-2.7-0.6c-2,0-3,1.7-3,3.9v0.2c0,2.2,0.9,3.9,2.6,3.9C357.8,128.5,359,126.4,359,124.3z"/>
		<path class="st1" d="M364.1,121.5V121c0-5.2,2-8.1,4.2-8.1c1.6,0,2.7,1.5,3.4,3.4v-8.7h1.3v21.8h-1.3v-3.1
			c-0.6,1.9-1.8,3.4-3.4,3.4C366.1,129.6,364.1,126.8,364.1,121.5z M371.8,121.6v-0.8c0-4.3-1.7-6.8-3.3-6.8c-1.7,0-3.1,2.5-3.1,6.9
			v0.5c0,4.4,1.4,6.9,3.1,6.9C370.1,128.5,371.8,126,371.8,121.6z"/>
		<path class="st1" d="M377.6,107.5h1.4v2.2h-1.4V107.5z M377.7,113.2h1.3v16.2h-1.3V113.2z"/>
		<path class="st1" d="M383.7,113.2h1.3v3.1c0.6-1.9,1.8-3.4,3.4-3.4c2.2,0,4.2,2.8,4.2,8.1v0.6c0,5.2-2,8.1-4.2,8.1
			c-1.6,0-2.7-1.5-3.4-3.4v7.1h-1.3V113.2z M391.3,121.5V121c0-4.4-1.4-6.9-3.1-6.9c-1.6,0-3.3,2.5-3.3,6.8v0.8
			c0,4.4,1.7,6.8,3.3,6.8C389.9,128.5,391.3,126,391.3,121.5z"/>
		<path class="st1" d="M396.6,107.5h1.4v2.2h-1.4V107.5z M396.7,113.2h1.3v16.2h-1.3V113.2z"/>
		<path class="st1" d="M401.8,128.8v-1.4c1.1,0.6,2.3,0.9,3.3,0.9c1.4,0,2.5-0.9,2.5-2.4v-0.1c0-1.1-0.6-2.3-2.6-4.1
			c-2.4-2.3-3.2-3.5-3.2-5.2v-0.1c0-2.3,1.8-3.5,3.7-3.5c1.1,0,1.8,0.2,2.7,0.5v1.4c-0.9-0.5-1.8-0.7-2.7-0.7
			c-1.3,0-2.3,0.9-2.3,2.3v0.1c0,1.2,0.6,2.1,2.6,4c2.3,2.3,3.2,3.6,3.2,5.3v0.1c0,2.3-1.9,3.7-3.8,3.7
			C403.8,129.5,402.9,129.3,401.8,128.8z"/>
		<path class="st1" d="M411.9,121.5v-0.3c0-5.6,2.5-8.2,4.9-8.2c0.8,0,1.5,0.2,1.9,0.6v1.4c-0.6-0.4-1.2-0.7-2-0.7
			c-1.7,0-3.6,2.1-3.6,6.9v0.4c0,4.9,1.9,6.8,3.7,6.8c0.7,0,1.3-0.3,1.9-0.7v1.4c-0.5,0.4-1.1,0.6-1.9,0.6
			C414.3,129.6,411.9,127.1,411.9,121.5z"/>
		<path class="st1" d="M422.5,107.5h1.4v2.2h-1.4V107.5z M422.6,113.2h1.3v16.2h-1.3V113.2z"/>
		<path class="st1" d="M428.6,113.2h1.3v2.4c0.6-1.4,1.5-2.6,3.3-2.6c2.2,0,3.7,1.8,3.7,5.1v11.3h-1.3v-11.2c0-2.7-1-4.1-2.7-4.1
			c-1.7,0-3.1,1.8-3.1,4.4v11h-1.3V113.2z"/>
		<path class="st1" d="M441.4,132.8v-1.3c1.2,0.5,2.6,0.8,3.6,0.8c2.2,0,3.3-1,3.3-3.3v-3.8c-0.6,1.9-1.8,3.4-3.4,3.4
			c-2.2,0-4.2-2.7-4.2-7.7v-0.3c0-4.9,2.1-7.7,4.2-7.7c1.6,0,2.7,1.5,3.4,3.4v-3.1h1.3v15.7c0,3.1-1.7,4.5-4.7,4.5
			C443.8,133.4,442.5,133.2,441.4,132.8z M448.4,120.8v-0.3c0-4.1-1.7-6.5-3.3-6.5c-1.6,0-3.1,2.3-3.1,6.5v0.2
			c0,4.2,1.5,6.5,3.1,6.5C446.7,127.3,448.4,125,448.4,120.8z"/>
		<path class="st1" d="M459.8,121.5v-0.3c0-5.6,2.1-8.4,4.4-8.4c2.4,0,4.2,2.9,4.2,7.9v1h-7.4c0.1,4.4,1.9,6.5,4,6.5
			c1,0,1.8-0.2,2.8-1l0.2,1.3c-1.1,0.6-1.9,0.9-3.1,0.9C462.2,129.6,459.8,126.9,459.8,121.5z M467.2,120.7c0-3.7-1.2-6.5-3-6.5
			c-1.7,0-3,2.3-3.1,6.5H467.2z"/>
		<path class="st1" d="M472.6,107.5h1.3v21.8h-1.3V107.5z"/>
		<path class="st1" d="M478.7,107.5h1.4v2.2h-1.4V107.5z M478.8,113.2h1.3v16.2h-1.3V113.2z"/>
		<path class="st1" d="M485.3,126.6v-12.3h-1.5v-1.2h1.5v-4.6h1.3v4.6h2.6v1.2h-2.6v12.1c0,1.4,0.6,1.8,1.7,1.8c0.3,0,0.7-0.1,1-0.2
			v1.2c-0.3,0.1-0.8,0.2-1.1,0.2C486.4,129.5,485.3,128.7,485.3,126.6z"/>
		<path class="st1" d="M491.9,131.8c1.2-0.5,1.7-1.2,1.6-2.4h-0.8v-2.5h1.9v2.2c0,1.9-0.6,2.7-2.3,3.5L491.9,131.8z"/>
		<path class="st1" d="M504.3,128.8v-1.4c1.1,0.6,2.3,0.9,3.3,0.9c1.4,0,2.5-0.9,2.5-2.4v-0.1c0-1.1-0.6-2.3-2.6-4.1
			c-2.4-2.3-3.2-3.5-3.2-5.2v-0.1c0-2.3,1.8-3.5,3.7-3.5c1.1,0,1.8,0.2,2.7,0.5v1.4c-0.9-0.5-1.8-0.7-2.7-0.7
			c-1.3,0-2.3,0.9-2.3,2.3v0.1c0,1.2,0.6,2.1,2.6,4c2.3,2.3,3.2,3.6,3.2,5.3v0.1c0,2.3-1.9,3.7-3.8,3.7
			C506.2,129.5,505.3,129.3,504.3,128.8z"/>
		<path class="st1" d="M514.3,121.5v-0.3c0-5.6,2.1-8.4,4.4-8.4c2.4,0,4.2,2.9,4.2,7.9v1h-7.4c0.1,4.4,1.9,6.5,4,6.5
			c1,0,1.8-0.2,2.8-1l0.2,1.3c-1.1,0.6-1.9,0.9-3.1,0.9C516.7,129.6,514.3,126.9,514.3,121.5z M521.7,120.7c0-3.7-1.2-6.5-3-6.5
			c-1.7,0-3,2.3-3.1,6.5H521.7z"/>
		<path class="st1" d="M526.3,121.5V121c0-5.2,2-8.1,4.2-8.1c1.6,0,2.7,1.5,3.4,3.4v-8.7h1.3v21.8H534v-3.1
			c-0.6,1.9-1.8,3.4-3.4,3.4C528.3,129.6,526.3,126.8,526.3,121.5z M534,121.6v-0.8c0-4.3-1.7-6.8-3.3-6.8c-1.7,0-3.1,2.5-3.1,6.9
			v0.5c0,4.4,1.4,6.9,3.1,6.9C532.4,128.5,534,126,534,121.6z"/>
	</g>
	<g>
		<g>
			<g>
				<g>
					<path class="st2" d="M55.5,128.4c-25.3,0-45.3-22.6-46.2-23.5l-1.4-1.6l1.4-1.6c0.8-1,20.9-23.5,46.2-23.5
						c25.3,0,45.4,22.6,46.2,23.5l1.4,1.6l-1.4,1.6C100.8,105.9,80.8,128.4,55.5,128.4L55.5,128.4z"/>
					<path class="st0" d="M55.5,80.6c24.5,0,44.3,22.7,44.3,22.7s-19.9,22.7-44.3,22.7c-24.5,0-44.3-22.7-44.3-22.7
						S31,80.6,55.5,80.6 M55.5,75.6C29.1,75.6,8.3,99,7.4,100l-2.9,3.3l2.9,3.3c0.9,1,21.6,24.4,48.1,24.4
						c26.4,0,47.2-23.4,48.1-24.4l2.9-3.3l-2.9-3.3C102.7,99,81.9,75.6,55.5,75.6L55.5,75.6z"/>
				</g>
			</g>
			<g>
				<g>
					<path class="st2" d="M146.9,128.4c-25.3,0-45.4-22.6-46.2-23.5l-1.4-1.6l1.4-1.6c0.8-1,20.9-23.5,46.2-23.5
						c25.3,0,45.3,22.6,46.2,23.5l1.4,1.6l-1.4,1.6C192.2,105.9,172.2,128.4,146.9,128.4L146.9,128.4z"/>
					<path class="st0" d="M146.9,80.6c24.5,0,44.3,22.7,44.3,22.7s-19.8,22.7-44.3,22.7c-24.5,0-44.3-22.7-44.3-22.7
						S122.4,80.6,146.9,80.6 M146.9,75.6c-26.4,0-47.2,23.4-48.1,24.4l-2.9,3.3l2.9,3.3c0.9,1,21.6,24.4,48.1,24.4
						c26.4,0,47.2-23.4,48.1-24.4l2.9-3.3l-2.9-3.3C194.1,99,173.3,75.6,146.9,75.6L146.9,75.6z"/>
				</g>
			</g>
		</g>
		<g>
			<path class="st2" d="M100.1,160.6C98.9,160,71,146,71,127.8S98.9,95.6,100.1,95l1.1-0.5l1.1,0.5c1.2,0.6,29.1,14.6,29.1,32.8
				s-27.9,32.2-29.1,32.8l-1.1,0.5L100.1,160.6z"/>
			<path class="st0" d="M101.2,97.2c0,0,27.7,13.7,27.7,30.6s-27.7,30.6-27.7,30.6s-27.7-13.7-27.7-30.6S101.2,97.2,101.2,97.2
				 M101.2,91.6L99,92.7c-0.3,0.2-7.5,3.7-14.8,9.5c-10.4,8.3-15.7,16.9-15.7,25.5s5.3,17.2,15.7,25.5c7.3,5.8,14.5,9.4,14.8,9.5
				l2.2,1.1l2.2-1.1c0.3-0.1,7.5-3.7,14.8-9.5c10.4-8.3,15.7-16.9,15.7-25.5s-5.3-17.2-15.7-25.5c-7.3-5.8-14.5-9.4-14.8-9.5
				L101.2,91.6L101.2,91.6z"/>
		</g>
		<g>
			<g>
				<g>
					<path class="st2" d="M89.8,95.7c-10.9,0-21.2-6.5-29-18.2c-12-18.1-3.6-49.3-3.2-50.7l0.7-2.4l2.4,0.6
						c1.5,0.4,36.7,9.6,48.6,27.5c6.1,9.2,8.3,18,6.3,25.4c-1.6,6.2-6,11.2-12.6,14.5C98.7,94.7,94.2,95.7,89.8,95.7z"/>
					<g>
						<path class="st0" d="M59.9,27.6c0,0,35.6,9.2,47.2,26.5c11.6,17.3,6.9,30.2-5.3,36.3c-3.8,1.9-7.9,2.9-12,2.9
							c-9.3,0-18.9-5.1-26.9-17.1C51.3,58.9,59.9,27.6,59.9,27.6 M56.4,21.5l-1.3,4.7C54.7,27.6,46,60,58.7,79
							C67,91.4,78,98.2,89.8,98.2c4.9,0,9.7-1.2,14.3-3.5c7.3-3.6,12.1-9.2,13.9-16.1c1.5-5.7,1.6-15.1-6.7-27.4
							C98.8,32.6,62.7,23.1,61.2,22.7L56.4,21.5L56.4,21.5z"/>
					</g>
				</g>
			</g>
			<g>
				<g>
					<path class="st2" d="M113.8,95.7c-4.5,0-8.9-1.1-13.1-3.2c-6.6-3.3-11-8.3-12.6-14.5c-2-7.4,0.2-16.2,6.3-25.4
						c11.9-17.9,47.2-27.1,48.6-27.5l2.4-0.6l0.7,2.4c0.4,1.3,8.8,32.6-3.2,50.7C135,89.3,124.7,95.7,113.8,95.7z"/>
					<g>
						<path class="st0" d="M143.6,27.6c0,0,8.7,31.3-2.9,48.6c-8,12-17.7,17.1-26.9,17.1c-4.2,0-8.2-1-12-2.9
							c-12.2-6.1-16.9-18.9-5.3-36.3C108,36.7,143.6,27.6,143.6,27.6 M147.1,21.5l-4.8,1.2c-1.5,0.4-37.6,9.8-50.1,28.5
							C84,63.7,84.1,73,85.6,78.7c1.8,6.9,6.6,12.4,13.9,16.1c4.6,2.3,9.4,3.4,14.3,3.4c11.8,0,22.8-6.8,31.1-19.3
							c12.7-19,3.9-51.3,3.6-52.7L147.1,21.5L147.1,21.5z"/>
					</g>
				</g>
			</g>
			<g>
				<path class="st2" d="M101.8,87.3c-13.6,0-28.1-8.3-28.1-31.6c0-20.9,25.3-44.2,26.4-45.2l1.7-1.5l1.7,1.5
					c1.1,1,26.4,24.3,26.4,45.2C129.8,79,115.3,87.3,101.8,87.3z"/>
				<g>
					<path class="st0" d="M101.8,12.4c0,0,25.6,23.3,25.6,43.4c0,20-11.5,29.1-25.6,29.1c-14.1,0-25.6-9.1-25.6-29.1
						C76.2,35.7,101.8,12.4,101.8,12.4 M101.8,5.6l-3.4,3.1c-1.1,1-27.2,25.1-27.2,47c0,10.7,3.1,19.5,8.9,25.5
						c5.4,5.6,12.9,8.6,21.7,8.6c8.7,0,16.2-3,21.7-8.6c5.8-6,8.9-14.8,8.9-25.5c0-22-26.1-46-27.2-47L101.8,5.6L101.8,5.6z"/>
				</g>
			</g>
			<g>
				<g>
					<path class="st2" d="M124.2,105.8c-7.3,0-13.9-2.7-19.1-7.7c-4.9-4.7-7.3-10.4-6.9-16.4c0.5-7.9,5.7-15.9,15.2-23.3
						c15.4-11.9,45.3-12.8,54.1-12.8c1.2,0,1.9,0,1.9,0l2.7,0.1l-0.3,2.7c-0.1,1.4-3.5,33.3-21.4,47.1
						C141.6,102.2,132.5,105.8,124.2,105.8z"/>
					<g>
						<path class="st0" d="M167.5,48.1c1.2,0,1.8,0,1.8,0s-3.2,32-20.4,45.3c-8.9,6.9-17.3,9.8-24.7,9.8c-6.9,0-12.9-2.6-17.4-7
							c-9.4-9.1-9.2-22.6,8.1-35.9C129.8,48.9,159.8,48.1,167.5,48.1 M167.5,43.1v5V43.1L167.5,43.1c-9,0-39.6,1-55.6,13.4
							C99,66.3,95.9,75.6,95.6,81.6c-0.4,6.7,2.3,13,7.7,18.3c5.7,5.5,12.9,8.4,20.9,8.4c8.9,0,18.5-3.8,27.8-10.9
							C170.7,83,174.1,50,174.3,48.6l0.5-5.3l-5.4-0.2C169.4,43.1,168.7,43.1,167.5,43.1L167.5,43.1z"/>
					</g>
				</g>
			</g>
			<g>
				<g>
					<path class="st2" d="M78.2,105.8c-8.4,0-17.4-3.6-26.2-10.3C34,81.7,30.7,49.7,30.6,48.4l-0.3-2.7l2.7-0.1c0,0,0.7,0,1.9,0
						c8.8,0,38.7,0.9,54.1,12.8c9.5,7.3,14.8,15.4,15.2,23.3c0.3,6-2,11.6-6.9,16.4C92.1,103.1,85.5,105.8,78.2,105.8
						C78.2,105.8,78.2,105.8,78.2,105.8z"/>
					<g>
						<path class="st0" d="M34.9,48.1c7.7,0,37.6,0.8,52.6,12.3c17.3,13.3,17.5,26.7,8.1,35.9c-4.5,4.4-10.5,7-17.4,7
							c-7.4,0-15.8-3-24.7-9.8C36.2,80.2,33.1,48.1,33.1,48.1S33.7,48.1,34.9,48.1 M34.9,43.1c-1.3,0-2,0-2,0l-5.4,0.2l0.5,5.3
							C28.2,50,31.7,83,50.4,97.4c9.2,7.1,18.8,10.9,27.8,10.9c8,0,15.2-2.9,20.9-8.4c5.4-5.2,8.1-11.6,7.7-18.3
							c-0.3-6-3.4-15.3-16.2-25.1C74.5,44.1,43.9,43.1,34.9,43.1L34.9,43.1z"/>
					</g>
				</g>
			</g>
			<g>
				<path class="st2" d="M101.8,109.3c-17.3,0-28.1-10.7-28.1-28c0-18.5,25.4-39.1,26.5-40l1.6-1.3l1.6,1.3
					c1.1,0.9,26.5,21.4,26.5,40C129.8,98.5,119.1,109.3,101.8,109.3z"/>
				<g>
					<path class="st0" d="M101.8,43.2c0,0,25.6,20.5,25.6,38c0,17.5-11.5,25.5-25.6,25.5c-14.1,0-25.6-8-25.6-25.5
						C76.2,63.7,101.8,43.2,101.8,43.2 M101.8,36.8l-3.1,2.5c-0.3,0.2-6.8,5.5-13.4,13c-9.3,10.6-14,20.4-14,28.9
						c0,9.7,3.2,17.6,9.1,23c5.4,4.9,12.8,7.5,21.4,7.5c8.6,0,16-2.6,21.4-7.5c6-5.4,9.1-13.4,9.1-23c0-8.5-4.7-18.2-14-28.9
						c-6.6-7.6-13.1-12.8-13.4-13L101.8,36.8L101.8,36.8z"/>
				</g>
			</g>
		</g>
	</g>
</g>
</svg>
