<?xml version="1.0" encoding="utf-8"?>
<!-- Generator: Adobe Illustrator 22.1.0, SVG Export Plug-In . SVG Version: 6.00 Build 0)  -->
<svg version="1.1" id="Layer_1" xmlns="http://www.w3.org/2000/svg" xmlns:xlink="http://www.w3.org/1999/xlink" x="0px" y="0px"
	 viewBox="0 0 613.6 273.4" style="enable-background:new 0 0 613.6 273.4;" xml:space="preserve">
<style type="text/css">
	.st0{fill:#FFFFFF;}
	.st1{fill:#333333;}
	.st2{fill:#00ADEE;}
</style>
<path class="st0" d="M574.1,273.4H151.4c-21.9,0-39.6-17.7-39.6-39.6V41.1c0-21.9,17.7-39.6,39.6-39.6h422.7
	c21.9,0,39.6,17.7,39.6,39.6v192.7C613.6,255.7,595.9,273.4,574.1,273.4z"/>
<g>
	<path class="st1" d="M224.8,43h3.8v18h4v3.6h-7.7V43z"/>
	<path class="st1" d="M234.6,56.9v-1c0-5.3,2.2-8.1,5.1-8.1s5.1,2.7,5.1,8.1v1c0,5.3-2.2,8.1-5.1,8.1S234.6,62.2,234.6,56.9z
		 M241.2,57v-1.1c0-3.3-0.6-4.8-1.5-4.8c-0.9,0-1.5,1.5-1.5,4.8V57c0,3.2,0.6,4.8,1.5,4.8C240.6,61.7,241.2,60.2,241.2,57z"/>
	<path class="st1" d="M248.2,61.8V51.1h-1v-3h1v-4.2h3.6v4.2h1.9v3h-1.9v9.5c0,0.7,0.4,1,1,1c0.3,0,0.6-0.1,0.9-0.2v2.9
		c-0.6,0.3-1.4,0.6-2.2,0.6C249.9,64.9,248.2,64.3,248.2,61.8z"/>
	<path class="st1" d="M256.5,60.6V48.1h3.6v11.7c0,1.2,0.5,1.9,1.2,1.9c0.7,0,1.3-0.7,1.3-1.9V48.1h3.6v16.5h-3.6v-2
		c-0.6,1.3-1.5,2.3-2.9,2.3C257.5,64.9,256.5,63.2,256.5,60.6z"/>
	<path class="st1" d="M269,64.2v-3.6c1.2,0.6,2.2,1,3.1,1c0.8,0,1.3-0.5,1.3-1.2v-0.1c0-0.7-0.3-1.2-1.9-2.7
		c-1.7-1.6-2.8-3.1-2.8-5.2v-0.1c0-2.7,1.9-4.5,4.7-4.5c1,0,1.8,0.1,2.7,0.4v3.6c-0.8-0.4-1.7-0.7-2.5-0.7s-1.4,0.5-1.4,1.1v0.1
		c0,0.6,0.3,1,2,2.7c2,2,2.7,3.3,2.7,5.2v0.1c0,2.9-2,4.7-4.6,4.7C271.3,64.9,270,64.6,269,64.2z"/>
	<path class="st1" d="M285.7,43h3.4c4.1,0,7,2.2,7,7.3v0.1c0,4.9-2.7,7.2-6.5,7.5h0v6.8h-3.8V43z M289.5,54.4
		c1.6-0.1,2.8-1.2,2.8-3.9v-0.1c0-2.7-1-3.9-2.7-3.9h-0.1L289.5,54.4L289.5,54.4z"/>
	<path class="st1" d="M298.4,56.9v-1c0-5.3,2.2-8.1,5.1-8.1s5.1,2.7,5.1,8.1v1c0,5.3-2.2,8.1-5.1,8.1S298.4,62.2,298.4,56.9z
		 M305,57v-1.1c0-3.3-0.6-4.8-1.5-4.8c-0.9,0-1.5,1.5-1.5,4.8V57c0,3.2,0.6,4.8,1.5,4.8C304.4,61.7,305,60.2,305,57z"/>
	<path class="st1" d="M310.6,48.1h3.7l1.2,9.3l1.4-9.3h3l1.4,9.3l1.2-9.3h3.6l-2.8,16.6h-3.6l-1.4-9l-1.4,9h-3.6L310.6,48.1z"/>
	<path class="st1" d="M327.9,56.8V56c0-5.3,2.3-8.1,5-8.1c2.9,0,4.7,2.9,4.7,8.3v1.9h-6.1c0.2,2.6,1.3,3.5,2.5,3.5
		c1.1,0,1.8-0.5,2.9-1.2l0.3,3.3c-1.3,0.8-2.3,1.3-3.6,1.3C330.5,64.9,327.9,62.1,327.9,56.8z M334.2,55.2c0-2.8-0.4-4.1-1.3-4.1
		c-0.8,0-1.4,1.2-1.4,4.1H334.2z"/>
	<path class="st1" d="M340.3,48.1h3.6v2.1c0.5-1.4,1.3-2.3,2.7-2.3v4.4h-0.1c-1.7,0-2.6,1.2-2.6,3.5v8.8h-3.6V48.1z"/>
	<path class="st1" d="M349,53.2h8v3.7h-8V53.2z"/>
	<path class="st1" d="M360.4,58.3V43h3.7v15.7c0,1.9,0.7,2.7,1.6,2.7c1,0,1.6-0.8,1.6-2.7V43h3.7v15.3c0,4.5-2.3,6.6-5.4,6.6
		C362.7,64.9,360.4,62.9,360.4,58.3z"/>
	<path class="st1" d="M374.5,48.1h3.6v2.1c0.5-1,1.3-2.4,2.9-2.4c2,0,3.5,1.9,3.5,7.8v1.5c0,5.9-1.5,7.8-3.5,7.8
		c-1.6,0-2.3-1.3-2.9-2.3v6h-3.6V48.1z M380.9,56.9v-1.1c0-3-0.4-4.5-1.4-4.5c-0.9,0-1.4,1.6-1.4,4.5v1.1c0,2.9,0.5,4.5,1.4,4.5
		C380.4,61.5,380.9,59.9,380.9,56.9z"/>
	<path class="st1" d="M227.6,77.3h-3.5v-1.2h8.4v1.2h-3.5v20.4h-1.4V77.3z"/>
	<path class="st1" d="M235.7,75.8h1.3v8c0.6-1.4,1.5-2.6,3.3-2.6c2.2,0,3.7,1.8,3.7,5.1v11.3h-1.3V86.5c0-2.7-1-4.1-2.7-4.1
		c-1.7,0-3.1,1.8-3.1,4.4v11h-1.3V75.8z"/>
	<path class="st1" d="M247.8,89.8v-0.3c0-5.6,2.1-8.4,4.4-8.4c2.4,0,4.2,2.9,4.2,7.9v1H249c0.1,4.4,1.9,6.5,4,6.5c1,0,1.8-0.2,2.8-1
		l0.2,1.3c-1.1,0.6-1.9,0.9-3.1,0.9C250.2,97.9,247.8,95.2,247.8,89.8z M255.2,89c0-3.7-1.2-6.5-3-6.5c-1.7,0-3,2.3-3.1,6.5H255.2z"
		/>
	<path class="st1" d="M266.9,75.8h1.3v21.8h-1.3V75.8z"/>
	<path class="st1" d="M272.2,89.7v-0.3c0-5.1,2.2-8.2,4.6-8.2s4.6,3.1,4.6,8.2v0.3c0,5.1-2.2,8.2-4.6,8.2S272.2,94.8,272.2,89.7z
		 M280.1,89.7v-0.3c0-4.3-1.5-7-3.3-7s-3.3,2.7-3.3,7v0.3c0,4.3,1.5,7,3.3,7S280.1,94,280.1,89.7z"/>
	<path class="st1" d="M285.8,94.9V82.7h-1.5v-1.2h1.5v-4.6h1.3v4.6h2.6v1.2h-2.6v12.1c0,1.4,0.6,1.8,1.7,1.8c0.3,0,0.7-0.1,1-0.2
		v1.2c-0.3,0.1-0.8,0.2-1.1,0.2C286.9,97.8,285.8,97,285.8,94.9z"/>
	<path class="st1" d="M293.3,92.8V81.5h1.3v11.2c0,2.7,1,4.1,2.7,4.1c1.7,0,3.1-1.8,3.1-4.4v-11h1.3v16.2h-1.3v-2.4
		c-0.6,1.4-1.5,2.6-3.3,2.6C294.8,97.9,293.3,96.1,293.3,92.8z"/>
	<path class="st1" d="M305.3,97.1v-1.4c1.1,0.6,2.3,0.9,3.3,0.9c1.4,0,2.5-0.9,2.5-2.4v-0.1c0-1.1-0.6-2.3-2.6-4.1
		c-2.4-2.3-3.2-3.5-3.2-5.2v-0.1c0-2.3,1.8-3.5,3.7-3.5c1.1,0,1.8,0.2,2.7,0.5v1.4c-0.9-0.5-1.8-0.7-2.7-0.7c-1.3,0-2.3,0.9-2.3,2.3
		v0.1c0,1.2,0.6,2.1,2.6,4c2.3,2.3,3.2,3.6,3.2,5.3v0.1c0,2.3-1.9,3.7-3.8,3.7C307.3,97.8,306.3,97.6,305.3,97.1z"/>
	<path class="st1" d="M322.4,101.1v-1.3c1.2,0.5,2.6,0.8,3.6,0.8c2.2,0,3.3-1,3.3-3.3v-3.8c-0.6,1.9-1.8,3.4-3.4,3.4
		c-2.2,0-4.2-2.7-4.2-7.7v-0.3c0-4.9,2.1-7.7,4.2-7.7c1.6,0,2.7,1.5,3.4,3.4v-3.1h1.3v15.7c0,3.1-1.7,4.5-4.7,4.5
		C324.8,101.7,323.5,101.5,322.4,101.1z M329.4,89.1v-0.3c0-4.1-1.7-6.5-3.3-6.5c-1.6,0-3.1,2.3-3.1,6.5v0.2c0,4.2,1.5,6.5,3.1,6.5
		C327.7,95.6,329.4,93.3,329.4,89.1z"/>
	<path class="st1" d="M335.1,81.5h1.3v2.4c0.6-1.5,1.9-2.7,3.8-2.6v1.4h-0.1c-2,0-3.7,1.3-3.7,4.1v10.9h-1.3V81.5z"/>
	<path class="st1" d="M342.3,89.7v-0.3c0-5.1,2.2-8.2,4.6-8.2s4.6,3.1,4.6,8.2v0.3c0,5.1-2.2,8.2-4.6,8.2S342.3,94.8,342.3,89.7z
		 M350.2,89.7v-0.3c0-4.3-1.5-7-3.3-7s-3.3,2.7-3.3,7v0.3c0,4.3,1.5,7,3.3,7S350.2,94,350.2,89.7z"/>
	<path class="st1" d="M354.1,81.5h1.4l2.6,14l2.7-14h1.2l2.7,14l2.7-14h1.3l-3.4,16.3H364l-2.7-13.6l-2.7,13.6h-1.2L354.1,81.5z"/>
	<path class="st1" d="M371.4,97.1v-1.4c1.1,0.6,2.3,0.9,3.3,0.9c1.4,0,2.5-0.9,2.5-2.4v-0.1c0-1.1-0.6-2.3-2.6-4.1
		c-2.4-2.3-3.2-3.5-3.2-5.2v-0.1c0-2.3,1.8-3.5,3.7-3.5c1.1,0,1.8,0.2,2.7,0.5v1.4c-0.9-0.5-1.8-0.7-2.7-0.7c-1.3,0-2.3,0.9-2.3,2.3
		v0.1c0,1.2,0.6,2.1,2.6,4c2.3,2.3,3.2,3.6,3.2,5.3v0.1c0,2.3-1.9,3.7-3.8,3.7C373.4,97.8,372.5,97.6,371.4,97.1z"/>
	<path class="st1" d="M388.6,75.8h1.4V78h-1.4V75.8z M388.6,81.5h1.3v16.2h-1.3V81.5z"/>
	<path class="st1" d="M394.6,81.5h1.3v2.4c0.6-1.4,1.5-2.6,3.3-2.6c2.2,0,3.7,1.8,3.7,5.1v11.3h-1.3V86.5c0-2.7-1-4.1-2.7-4.1
		c-1.7,0-3.1,1.8-3.1,4.4v11h-1.3V81.5z"/>
	<path class="st1" d="M413.6,81.5h1.3v2.4c0.6-1.4,1.5-2.6,3.2-2.6c1.8,0,2.7,1.2,3.2,2.7c0.6-1.3,1.6-2.7,3.6-2.7
		c2.2,0,3.7,1.8,3.7,5.1v11.4h-1.3V86.4c0-2.7-1-4.1-2.6-4.1c-1.7,0-3,1.7-3,4.3v11h-1.3V86.4c0-2.7-1-4.1-2.6-4.1
		c-1.7,0-3,1.7-3,4.3v11h-1.3V81.5z"/>
	<path class="st1" d="M432.9,92.8V81.5h1.3v11.2c0,2.7,1,4.1,2.7,4.1c1.7,0,3.1-1.8,3.1-4.4v-11h1.3v16.2h-1.3v-2.4
		c-0.6,1.4-1.5,2.6-3.3,2.6C434.4,97.9,432.9,96.1,432.9,92.8z"/>
	<path class="st1" d="M445.1,89.8v-0.6c0-5.2,2-8.1,4.2-8.1c1.6,0,2.7,1.5,3.4,3.4v-8.7h1.3v21.8h-1.3v-3.1
		c-0.6,1.9-1.8,3.4-3.4,3.4C447.1,97.9,445.1,95.1,445.1,89.8z M452.8,89.9v-0.8c0-4.3-1.7-6.8-3.3-6.8c-1.7,0-3.1,2.5-3.1,6.9v0.5
		c0,4.4,1.4,6.9,3.1,6.9C451.1,96.8,452.8,94.3,452.8,89.9z"/>
	<path class="st1" d="M458,89.8v-0.6c0-5.2,2-8.1,4.2-8.1c1.6,0,2.7,1.5,3.4,3.4v-8.7h1.3v21.8h-1.3v-3.1c-0.6,1.9-1.8,3.4-3.4,3.4
		C460,97.9,458,95.1,458,89.8z M465.6,89.9v-0.8c0-4.3-1.7-6.8-3.3-6.8c-1.7,0-3.1,2.5-3.1,6.9v0.5c0,4.4,1.4,6.9,3.1,6.9
		C464,96.8,465.6,94.3,465.6,89.9z"/>
	<path class="st1" d="M474.5,97.5l-3.9-16h1.3l3.2,13.8l3.2-13.8h1.3l-4.9,20.2h-1.2L474.5,97.5z"/>
	<path class="st1" d="M489,81.5h1.4l2.6,14l2.7-14h1.2l2.7,14l2.7-14h1.3l-3.4,16.3h-1.2l-2.7-13.6l-2.7,13.6h-1.2L489,81.5z"/>
	<path class="st1" d="M506,92.9v-0.2c0-3,1.5-5.2,4.3-5.2c1.1,0,2,0.3,2.7,0.6v-2c0-2.3-1-3.6-3.1-3.6c-1.1,0-2,0.2-3,0.7V82
		c0.9-0.4,1.9-0.7,3.1-0.7c2.7,0,4.3,1.6,4.3,4.7v11.7H513v-2.3c-0.6,1.6-1.7,2.6-3.3,2.6C507.6,97.9,506,95.8,506,92.9z M513,92.6
		v-3.2c-0.9-0.4-1.7-0.6-2.7-0.6c-2,0-3,1.7-3,3.9v0.2c0,2.2,0.9,3.9,2.6,3.9C511.8,96.8,513,94.7,513,92.6z"/>
	<path class="st1" d="M519,94.9V82.7h-1.5v-1.2h1.5v-4.6h1.3v4.6h2.6v1.2h-2.6v12.1c0,1.4,0.6,1.8,1.7,1.8c0.3,0,0.7-0.1,1-0.2v1.2
		c-0.3,0.1-0.8,0.2-1.1,0.2C520.1,97.8,519,97,519,94.9z"/>
	<path class="st1" d="M525.7,89.8v-0.3c0-5.6,2.1-8.4,4.4-8.4c2.4,0,4.2,2.9,4.2,7.9v1H527c0.1,4.4,1.9,6.5,4,6.5c1,0,1.8-0.2,2.8-1
		L534,97c-1.1,0.6-1.9,0.9-3.1,0.9C528.2,97.9,525.7,95.2,525.7,89.8z M533.2,89c0-3.7-1.2-6.5-3-6.5c-1.7,0-3,2.3-3.1,6.5H533.2z"
		/>
	<path class="st1" d="M538.4,81.5h1.3v2.4c0.6-1.5,1.9-2.7,3.8-2.6v1.4h-0.1c-2,0-3.7,1.3-3.7,4.1v10.9h-1.3V81.5z"/>
	<path class="st1" d="M544.7,100.1c1.2-0.5,1.7-1.2,1.6-2.4h-0.8v-2.5h1.9v2.2c0,1.9-0.6,2.7-2.3,3.5L544.7,100.1z"/>
	<path class="st1" d="M234.7,130.5l-3.9-16h1.3l3.2,13.8l3.2-13.8h1.3l-4.9,20.2h-1.2L234.7,130.5z"/>
	<path class="st1" d="M242.3,122.9v-0.3c0-5.6,2.1-8.4,4.4-8.4c2.4,0,4.2,2.9,4.2,7.9v1h-7.4c0.1,4.4,1.9,6.5,4,6.5
		c1,0,1.8-0.2,2.8-1l0.2,1.3c-1.1,0.6-1.9,0.9-3.1,0.9C244.7,130.9,242.3,128.2,242.3,122.9z M249.7,122c0-3.7-1.2-6.5-3-6.5
		c-1.7,0-3,2.3-3.1,6.5H249.7z"/>
	<path class="st1" d="M255.2,128v-12.3h-1.5v-1.2h1.5v-4.6h1.3v4.6h2.6v1.2h-2.6v12.1c0,1.4,0.6,1.8,1.7,1.8c0.3,0,0.7-0.1,1-0.2
		v1.2c-0.3,0.1-0.8,0.2-1.1,0.2C256.4,130.8,255.2,130,255.2,128z"/>
	<path class="st1" d="M269.2,114.5h1.3v2.4c0.6-1.5,1.9-2.7,3.8-2.6v1.4h-0.1c-2,0-3.7,1.3-3.7,4.1v10.9h-1.3V114.5z"/>
	<path class="st1" d="M276.4,122.9v-0.3c0-5.6,2.1-8.4,4.4-8.4c2.4,0,4.2,2.9,4.2,7.9v1h-7.4c0.1,4.4,1.9,6.5,4,6.5
		c1,0,1.8-0.2,2.8-1l0.2,1.3c-1.1,0.6-1.9,0.9-3.1,0.9C278.9,130.9,276.4,128.2,276.4,122.9z M283.8,122c0-3.7-1.2-6.5-3-6.5
		c-1.7,0-3,2.3-3.1,6.5H283.8z"/>
	<path class="st1" d="M289,114.5h1.3v2.4c0.6-1.4,1.5-2.6,3.2-2.6c1.8,0,2.7,1.2,3.2,2.7c0.6-1.3,1.6-2.7,3.6-2.7
		c2.2,0,3.7,1.8,3.7,5.1v11.4h-1.3v-11.3c0-2.7-1-4.1-2.6-4.1c-1.7,0-3,1.7-3,4.3v11h-1.3v-11.3c0-2.7-1-4.1-2.6-4.1
		c-1.7,0-3,1.7-3,4.3v11H289V114.5z"/>
	<path class="st1" d="M307.6,126v-0.2c0-3,1.5-5.2,4.3-5.2c1.1,0,2,0.3,2.7,0.6v-2c0-2.3-1-3.6-3.1-3.6c-1.1,0-2,0.2-3,0.7V115
		c0.9-0.4,1.9-0.7,3.1-0.7c2.7,0,4.3,1.6,4.3,4.7v11.7h-1.3v-2.3c-0.6,1.6-1.7,2.6-3.3,2.6C309.2,130.9,307.6,128.8,307.6,126z
		 M314.6,125.6v-3.2c-0.9-0.4-1.7-0.6-2.7-0.6c-2,0-3,1.7-3,3.9v0.2c0,2.2,0.9,3.9,2.6,3.9C313.4,129.8,314.6,127.7,314.6,125.6z"/>
	<path class="st1" d="M320.4,108.9h1.4v2.2h-1.4V108.9z M320.5,114.5h1.3v16.2h-1.3V114.5z"/>
	<path class="st1" d="M326.5,114.5h1.3v2.4c0.6-1.4,1.5-2.6,3.3-2.6c2.2,0,3.7,1.8,3.7,5.1v11.3h-1.3v-11.2c0-2.7-1-4.1-2.7-4.1
		c-1.7,0-3.1,1.8-3.1,4.4v11h-1.3V114.5z"/>
	<path class="st1" d="M338.3,130.1v-1.4c1.1,0.6,2.3,0.9,3.3,0.9c1.4,0,2.5-0.9,2.5-2.4v-0.1c0-1.1-0.6-2.3-2.6-4.1
		c-2.4-2.3-3.2-3.5-3.2-5.2v-0.1c0-2.3,1.8-3.5,3.7-3.5c1.1,0,1.8,0.2,2.7,0.5v1.4c-0.9-0.5-1.8-0.7-2.7-0.7c-1.3,0-2.3,0.9-2.3,2.3
		v0.1c0,1.2,0.6,2.1,2.6,4c2.3,2.3,3.2,3.6,3.2,5.3v0.1c0,2.3-1.9,3.7-3.8,3.7C340.3,130.9,339.4,130.6,338.3,130.1z"/>
	<path class="st1" d="M354.7,122.9v-0.6c0-5.2,2-8.1,4.2-8.1c1.6,0,2.7,1.5,3.4,3.4v-8.7h1.3v21.8h-1.3v-3.1
		c-0.6,1.9-1.8,3.4-3.4,3.4C356.8,130.9,354.7,128.1,354.7,122.9z M362.4,123v-0.8c0-4.3-1.7-6.8-3.3-6.8c-1.7,0-3.1,2.5-3.1,6.9
		v0.5c0,4.4,1.4,6.9,3.1,6.9C360.8,129.8,362.4,127.3,362.4,123z"/>
	<path class="st1" d="M368.2,114.5h1.3v2.4c0.6-1.5,1.9-2.7,3.8-2.6v1.4h-0.1c-2,0-3.7,1.3-3.7,4.1v10.9h-1.3V114.5z"/>
	<path class="st1" d="M379.7,130.5l-3.9-16h1.3l3.2,13.8l3.2-13.8h1.3l-4.9,20.2h-1.2L379.7,130.5z"/>
	<path class="st1" d="M394.1,126v-0.2c0-3,1.5-5.2,4.3-5.2c1.1,0,2,0.3,2.7,0.6v-2c0-2.3-1-3.6-3.1-3.6c-1.1,0-2,0.2-3,0.7V115
		c0.9-0.4,1.9-0.7,3.1-0.7c2.7,0,4.3,1.6,4.3,4.7v11.7h-1.3v-2.3c-0.6,1.6-1.7,2.6-3.3,2.6C395.6,130.9,394.1,128.8,394.1,126z
		 M401.1,125.6v-3.2c-0.9-0.4-1.7-0.6-2.7-0.6c-2,0-3,1.7-3,3.9v0.2c0,2.2,0.9,3.9,2.6,3.9C399.9,129.8,401.1,127.7,401.1,125.6z"/>
	<path class="st1" d="M406.7,114.5h1.3v2.4c0.6-1.4,1.5-2.6,3.3-2.6c2.2,0,3.7,1.8,3.7,5.1v11.3h-1.3v-11.2c0-2.7-1-4.1-2.7-4.1
		c-1.7,0-3.1,1.8-3.1,4.4v11h-1.3V114.5z"/>
	<path class="st1" d="M418.8,122.9v-0.6c0-5.2,2-8.1,4.2-8.1c1.6,0,2.7,1.5,3.4,3.4v-8.7h1.3v21.8h-1.3v-3.1
		c-0.6,1.9-1.8,3.4-3.4,3.4C420.8,130.9,418.8,128.1,418.8,122.9z M426.5,123v-0.8c0-4.3-1.7-6.8-3.3-6.8c-1.7,0-3.1,2.5-3.1,6.9
		v0.5c0,4.4,1.4,6.9,3.1,6.9C424.9,129.8,426.5,127.3,426.5,123z"/>
	<path class="st1" d="M438.5,125.8v-11.3h1.3v11.2c0,2.7,1,4.1,2.7,4.1c1.7,0,3.1-1.8,3.1-4.4v-11h1.3v16.2h-1.3v-2.4
		c-0.6,1.4-1.5,2.6-3.3,2.6C440,130.9,438.5,129.1,438.5,125.8z"/>
	<path class="st1" d="M451.3,114.5h1.3v2.4c0.6-1.4,1.5-2.6,3.3-2.6c2.2,0,3.7,1.8,3.7,5.1v11.3h-1.3v-11.2c0-2.7-1-4.1-2.7-4.1
		c-1.7,0-3.1,1.8-3.1,4.4v11h-1.3V114.5z"/>
	<path class="st1" d="M463.1,130.1v-1.4c1.1,0.6,2.3,0.9,3.3,0.9c1.4,0,2.5-0.9,2.5-2.4v-0.1c0-1.1-0.6-2.3-2.6-4.1
		c-2.4-2.3-3.2-3.5-3.2-5.2v-0.1c0-2.3,1.8-3.5,3.7-3.5c1.1,0,1.8,0.2,2.7,0.5v1.4c-0.9-0.5-1.8-0.7-2.7-0.7c-1.3,0-2.3,0.9-2.3,2.3
		v0.1c0,1.2,0.6,2.1,2.6,4c2.3,2.3,3.2,3.6,3.2,5.3v0.1c0,2.3-1.9,3.7-3.8,3.7C465.1,130.9,464.2,130.6,463.1,130.1z"/>
	<path class="st1" d="M473.2,122.7v-0.3c0-5.1,2.2-8.2,4.6-8.2s4.6,3.1,4.6,8.2v0.3c0,5.1-2.2,8.2-4.6,8.2
		C475.4,130.9,473.2,127.8,473.2,122.7z M481.1,122.7v-0.3c0-4.3-1.5-7-3.3-7c-1.8,0-3.3,2.7-3.3,7v0.3c0,4.3,1.5,7,3.3,7
		C479.6,129.7,481.1,127,481.1,122.7z"/>
	<path class="st1" d="M486.4,108.9h1.4v2.2h-1.4V108.9z M486.4,114.5h1.3v16.2h-1.3V114.5z"/>
	<path class="st1" d="M492.6,108.9h1.3v21.8h-1.3V108.9z"/>
	<path class="st1" d="M497.9,122.9v-0.3c0-5.6,2.1-8.4,4.4-8.4c2.4,0,4.2,2.9,4.2,7.9v1h-7.4c0.1,4.4,1.9,6.5,4,6.5
		c1,0,1.8-0.2,2.8-1l0.2,1.3c-1.1,0.6-1.9,0.9-3.1,0.9C500.4,130.9,497.9,128.2,497.9,122.9z M505.3,122c0-3.7-1.2-6.5-3-6.5
		c-1.7,0-3,2.3-3.1,6.5H505.3z"/>
	<path class="st1" d="M510,122.9v-0.6c0-5.2,2-8.1,4.2-8.1c1.6,0,2.7,1.5,3.4,3.4v-8.7h1.3v21.8h-1.3v-3.1c-0.6,1.9-1.8,3.4-3.4,3.4
		C512,130.9,510,128.1,510,122.9z M517.6,123v-0.8c0-4.3-1.7-6.8-3.3-6.8c-1.7,0-3.1,2.5-3.1,6.9v0.5c0,4.4,1.4,6.9,3.1,6.9
		C516,129.8,517.6,127.3,517.6,123z"/>
	<path class="st1" d="M523.1,128.1h1.9v2.5h-1.9V128.1z"/>
	<path class="st1" d="M535.7,109.1h1.4v20.4h5.4v1.2h-6.8V109.1z"/>
	<path class="st1" d="M545.7,108.9h1.4v2.2h-1.4V108.9z M545.7,114.5h1.3v16.2h-1.3V114.5z"/>
	<path class="st1" d="M551.7,108.9h1.3v14.6l4.7-9h1.5l-3.6,6.5l3.9,9.7H558l-3.3-8.3l-1.7,3.1v5.2h-1.3V108.9z"/>
	<path class="st1" d="M561.8,122.9v-0.3c0-5.6,2.1-8.4,4.4-8.4c2.4,0,4.2,2.9,4.2,7.9v1h-7.4c0.1,4.4,1.9,6.5,4,6.5
		c1,0,1.8-0.2,2.8-1l0.2,1.3c-1.1,0.6-1.9,0.9-3.1,0.9C564.2,130.9,561.8,128.2,561.8,122.9z M569.2,122c0-3.7-1.2-6.5-3-6.5
		c-1.7,0-3,2.3-3.1,6.5H569.2z"/>
	<path class="st1" d="M238.5,161v-12.3h-1.5v-1.2h1.5v-4.6h1.3v4.6h2.6v1.2h-2.6v12.1c0,1.4,0.6,1.8,1.7,1.8c0.3,0,0.7-0.1,1-0.2
		v1.2c-0.3,0.1-0.8,0.2-1.1,0.2C239.6,163.8,238.5,163,238.5,161z"/>
	<path class="st1" d="M246.1,141.9h1.3v8c0.6-1.4,1.5-2.6,3.3-2.6c2.2,0,3.7,1.8,3.7,5.1v11.3h-1.3v-11.2c0-2.7-1-4.1-2.7-4.1
		c-1.7,0-3.1,1.8-3.1,4.4v11h-1.3V141.9z"/>
	<path class="st1" d="M258.2,155.9v-0.3c0-5.6,2.1-8.4,4.4-8.4c2.4,0,4.2,2.9,4.2,7.9v1h-7.4c0.1,4.4,1.9,6.5,4,6.5
		c1,0,1.8-0.2,2.8-1l0.2,1.3c-1.1,0.6-1.9,0.9-3.1,0.9C260.6,163.9,258.2,161.2,258.2,155.9z M265.6,155c0-3.7-1.2-6.5-3-6.5
		c-1.7,0-3,2.3-3.1,6.5H265.6z"/>
	<path class="st1" d="M277.3,141.9h1.3v21.8h-1.3V141.9z"/>
	<path class="st1" d="M282.7,155.7v-0.3c0-5.1,2.2-8.2,4.6-8.2s4.6,3.1,4.6,8.2v0.3c0,5.1-2.2,8.2-4.6,8.2S282.7,160.8,282.7,155.7z
		 M290.6,155.7v-0.3c0-4.3-1.5-7-3.3-7s-3.3,2.7-3.3,7v0.3c0,4.3,1.5,7,3.3,7S290.6,160,290.6,155.7z"/>
	<path class="st1" d="M296.2,161v-12.3h-1.5v-1.2h1.5v-4.6h1.3v4.6h2.6v1.2h-2.6v12.1c0,1.4,0.6,1.8,1.7,1.8c0.3,0,0.7-0.1,1-0.2
		v1.2c-0.3,0.1-0.8,0.2-1.1,0.2C297.3,163.8,296.2,163,296.2,161z"/>
	<path class="st1" d="M303.8,158.8v-11.3h1.3v11.2c0,2.7,1,4.1,2.7,4.1c1.7,0,3.1-1.8,3.1-4.4v-11h1.3v16.2h-1.3v-2.4
		c-0.6,1.4-1.5,2.6-3.3,2.6C305.3,163.9,303.8,162.1,303.8,158.8z"/>
	<path class="st1" d="M315.7,163.1v-1.4c1.1,0.6,2.3,0.9,3.3,0.9c1.4,0,2.5-0.9,2.5-2.4v-0.1c0-1.1-0.6-2.3-2.6-4.1
		c-2.4-2.3-3.2-3.5-3.2-5.2v-0.1c0-2.3,1.8-3.5,3.7-3.5c1.1,0,1.8,0.2,2.7,0.5v1.4c-0.9-0.5-1.8-0.7-2.7-0.7c-1.3,0-2.3,0.9-2.3,2.3
		v0.1c0,1.2,0.6,2.1,2.6,4c2.3,2.3,3.2,3.6,3.2,5.3v0.1c0,2.3-1.9,3.7-3.8,3.7C317.7,163.9,316.8,163.6,315.7,163.1z"/>
	<path class="st1" d="M325.4,166.1c1.2-0.5,1.7-1.2,1.6-2.4h-0.8v-2.5h1.9v2.2c0,1.9-0.6,2.7-2.3,3.5L325.4,166.1z"/>
	<path class="st1" d="M338,147.5h1.4l2.6,14l2.7-14h1.2l2.7,14l2.7-14h1.3l-3.4,16.3h-1.2l-2.7-13.6l-2.7,13.6h-1.2L338,147.5z"/>
	<path class="st1" d="M355,155.9v-0.3c0-5.6,2.1-8.4,4.4-8.4c2.4,0,4.2,2.9,4.2,7.9v1h-7.4c0.1,4.4,1.9,6.5,4,6.5c1,0,1.8-0.2,2.8-1
		l0.2,1.3c-1.1,0.6-1.9,0.9-3.1,0.9C357.5,163.9,355,161.2,355,155.9z M362.4,155c0-3.7-1.2-6.5-3-6.5c-1.7,0-3,2.3-3.1,6.5H362.4z"
		/>
	<path class="st1" d="M374,147.5h1.3v2.4c0.6-1.4,1.5-2.6,3.2-2.6c1.8,0,2.7,1.2,3.2,2.7c0.6-1.3,1.6-2.7,3.6-2.7
		c2.2,0,3.7,1.8,3.7,5.1v11.4h-1.3v-11.3c0-2.7-1-4.1-2.6-4.1c-1.7,0-3,1.7-3,4.3v11h-1.3v-11.3c0-2.7-1-4.1-2.6-4.1
		c-1.7,0-3,1.7-3,4.3v11H374V147.5z"/>
	<path class="st1" d="M393.2,158.8v-11.3h1.3v11.2c0,2.7,1,4.1,2.7,4.1c1.7,0,3.1-1.8,3.1-4.4v-11h1.3v16.2h-1.3v-2.4
		c-0.6,1.4-1.5,2.6-3.3,2.6C394.7,163.9,393.2,162.1,393.2,158.8z"/>
	<path class="st1" d="M405.2,163.1v-1.4c1.1,0.6,2.3,0.9,3.3,0.9c1.4,0,2.5-0.9,2.5-2.4v-0.1c0-1.1-0.6-2.3-2.6-4.1
		c-2.4-2.3-3.2-3.5-3.2-5.2v-0.1c0-2.3,1.8-3.5,3.7-3.5c1.1,0,1.8,0.2,2.7,0.5v1.4c-0.9-0.5-1.8-0.7-2.7-0.7c-1.3,0-2.3,0.9-2.3,2.3
		v0.1c0,1.2,0.6,2.1,2.6,4c2.3,2.3,3.2,3.6,3.2,5.3v0.1c0,2.3-1.9,3.7-3.8,3.7C407.2,163.9,406.2,163.6,405.2,163.1z"/>
	<path class="st1" d="M416.2,161v-12.3h-1.5v-1.2h1.5v-4.6h1.3v4.6h2.6v1.2h-2.6v12.1c0,1.4,0.6,1.8,1.7,1.8c0.3,0,0.7-0.1,1-0.2
		v1.2c-0.3,0.1-0.8,0.2-1.1,0.2C417.3,163.8,416.2,163,416.2,161z"/>
	<path class="st1" d="M429.4,163.1v-1.4c1.1,0.6,2.3,0.9,3.3,0.9c1.4,0,2.5-0.9,2.5-2.4v-0.1c0-1.1-0.6-2.3-2.6-4.1
		c-2.4-2.3-3.2-3.5-3.2-5.2v-0.1c0-2.3,1.8-3.5,3.7-3.5c1.1,0,1.8,0.2,2.7,0.5v1.4c-0.9-0.5-1.8-0.7-2.7-0.7c-1.3,0-2.3,0.9-2.3,2.3
		v0.1c0,1.2,0.6,2.1,2.6,4c2.3,2.3,3.2,3.6,3.2,5.3v0.1c0,2.3-1.9,3.7-3.8,3.7C431.3,163.9,430.4,163.6,429.4,163.1z"/>
	<path class="st1" d="M440.4,161v-12.3h-1.5v-1.2h1.5v-4.6h1.3v4.6h2.6v1.2h-2.6v12.1c0,1.4,0.6,1.8,1.7,1.8c0.3,0,0.7-0.1,1-0.2
		v1.2c-0.3,0.1-0.8,0.2-1.1,0.2C441.5,163.8,440.4,163,440.4,161z"/>
	<path class="st1" d="M448.1,147.5h1.3v2.4c0.6-1.5,1.9-2.7,3.8-2.6v1.4h-0.1c-2,0-3.7,1.3-3.7,4.1v10.9h-1.3V147.5z"/>
	<path class="st1" d="M456.7,141.9h1.4v2.2h-1.4V141.9z M456.7,147.5h1.3v16.2h-1.3V147.5z"/>
	<path class="st1" d="M461.9,147.5h1.3l3.2,14l3.3-14h1.3l-4,16.3h-1.1L461.9,147.5z"/>
	<path class="st1" d="M473.4,155.9v-0.3c0-5.6,2.1-8.4,4.4-8.4c2.4,0,4.2,2.9,4.2,7.9v1h-7.4c0.1,4.4,1.9,6.5,4,6.5
		c1,0,1.8-0.2,2.8-1l0.2,1.3c-1.1,0.6-1.9,0.9-3.1,0.9C475.8,163.9,473.4,161.2,473.4,155.9z M480.8,155c0-3.7-1.2-6.5-3-6.5
		c-1.7,0-3,2.3-3.1,6.5H480.8z"/>
	<path class="st1" d="M492.8,161v-12.3h-1.5v-1.2h1.5v-4.6h1.3v4.6h2.6v1.2h-2.6v12.1c0,1.4,0.6,1.8,1.7,1.8c0.3,0,0.7-0.1,1-0.2
		v1.2c-0.3,0.1-0.8,0.2-1.1,0.2C493.9,163.8,492.8,163,492.8,161z"/>
	<path class="st1" d="M499.6,155.7v-0.3c0-5.1,2.2-8.2,4.6-8.2s4.6,3.1,4.6,8.2v0.3c0,5.1-2.2,8.2-4.6,8.2
		C501.7,163.9,499.6,160.8,499.6,155.7z M507.5,155.7v-0.3c0-4.3-1.5-7-3.3-7c-1.8,0-3.3,2.7-3.3,7v0.3c0,4.3,1.5,7,3.3,7
		C506,162.7,507.5,160,507.5,155.7z"/>
	<path class="st1" d="M518.9,147.5h1.3v2.4c0.6-1.5,1.9-2.7,3.8-2.6v1.4H524c-2,0-3.7,1.3-3.7,4.1v10.9h-1.3V147.5z"/>
	<path class="st1" d="M527.5,141.9h1.4v2.2h-1.4V141.9z M527.6,147.5h1.3v16.2h-1.3V147.5z"/>
	<path class="st1" d="M532.7,163.1v-1.4c1.1,0.6,2.3,0.9,3.3,0.9c1.4,0,2.5-0.9,2.5-2.4v-0.1c0-1.1-0.6-2.3-2.6-4.1
		c-2.4-2.3-3.2-3.5-3.2-5.2v-0.1c0-2.3,1.8-3.5,3.7-3.5c1.1,0,1.8,0.2,2.7,0.5v1.4c-0.9-0.5-1.8-0.7-2.7-0.7c-1.3,0-2.3,0.9-2.3,2.3
		v0.1c0,1.2,0.6,2.1,2.6,4c2.3,2.3,3.2,3.6,3.2,5.3v0.1c0,2.3-1.9,3.7-3.8,3.7C534.7,163.9,533.7,163.6,532.7,163.1z"/>
	<path class="st1" d="M542.7,155.9v-0.3c0-5.6,2.1-8.4,4.4-8.4c2.4,0,4.2,2.9,4.2,7.9v1H544c0.1,4.4,1.9,6.5,4,6.5
		c1,0,1.8-0.2,2.8-1l0.2,1.3c-1.1,0.6-1.9,0.9-3.1,0.9C545.2,163.9,542.7,161.2,542.7,155.9z M550.1,155c0-3.7-1.2-6.5-3-6.5
		c-1.7,0-3,2.3-3.1,6.5H550.1z"/>
	<path class="st1" d="M230.9,192v-0.2c0-3,1.5-5.2,4.3-5.2c1.1,0,2,0.3,2.7,0.6v-2c0-2.3-1-3.6-3.1-3.6c-1.1,0-2,0.2-3,0.7V181
		c0.9-0.4,1.9-0.7,3.1-0.7c2.7,0,4.3,1.6,4.3,4.7v11.7h-1.3v-2.3c-0.6,1.6-1.7,2.6-3.3,2.6C232.4,197,230.9,194.8,230.9,192z
		 M237.9,191.6v-3.2c-0.9-0.4-1.7-0.6-2.7-0.6c-2,0-3,1.7-3,3.9v0.2c0,2.2,0.9,3.9,2.6,3.9C236.7,195.8,237.9,193.8,237.9,191.6z"/>
	<path class="st1" d="M243.5,180.5h1.3v2.4c0.6-1.4,1.5-2.6,3.3-2.6c2.2,0,3.7,1.8,3.7,5.1v11.3h-1.3v-11.2c0-2.7-1-4.1-2.7-4.1
		c-1.7,0-3.1,1.8-3.1,4.4v11h-1.3V180.5z"/>
	<path class="st1" d="M255.6,188.9v-0.6c0-5.2,2-8.1,4.2-8.1c1.6,0,2.7,1.5,3.4,3.4v-8.7h1.3v21.8h-1.3v-3.1
		c-0.6,1.9-1.8,3.4-3.4,3.4C257.7,196.9,255.6,194.1,255.6,188.9z M263.3,189v-0.8c0-4.4-1.7-6.8-3.3-6.8c-1.7,0-3.1,2.5-3.1,6.9
		v0.5c0,4.4,1.4,6.9,3.1,6.9C261.7,195.8,263.3,193.3,263.3,189z"/>
	<path class="st1" d="M276.7,193.6v3.1h-1.3v-21.8h1.3v8.7c0.6-1.9,1.8-3.4,3.4-3.4c2.2,0,4.2,2.8,4.2,8.1v0.6c0,5.2-2,8.1-4.2,8.1
		C278.4,196.9,277.3,195.4,276.7,193.6z M283,188.9v-0.5c0-4.4-1.4-6.9-3.1-6.9c-1.6,0-3.3,2.5-3.3,6.8v0.8c0,4.3,1.7,6.8,3.3,6.8
		C281.6,195.8,283,193.3,283,188.9z"/>
	<path class="st1" d="M288.4,174.9h1.3v21.8h-1.3V174.9z"/>
	<path class="st1" d="M293.7,188.7v-0.3c0-5.1,2.2-8.2,4.6-8.2s4.6,3.1,4.6,8.2v0.3c0,5.1-2.2,8.2-4.6,8.2S293.7,193.8,293.7,188.7z
		 M301.6,188.7v-0.3c0-4.3-1.5-7-3.3-7s-3.3,2.7-3.3,7v0.3c0,4.3,1.5,7,3.3,7S301.6,193,301.6,188.7z"/>
	<path class="st1" d="M306.1,188.7v-0.3c0-5.1,2.2-8.2,4.6-8.2s4.6,3.1,4.6,8.2v0.3c0,5.1-2.2,8.2-4.6,8.2S306.1,193.8,306.1,188.7z
		 M314,188.7v-0.3c0-4.3-1.5-7-3.3-7s-3.3,2.7-3.3,7v0.3c0,4.3,1.5,7,3.3,7S314,193,314,188.7z"/>
	<path class="st1" d="M319.2,180.5h1.3v2.4c0.6-1.4,1.5-2.6,3.2-2.6c1.8,0,2.7,1.2,3.2,2.7c0.6-1.3,1.6-2.7,3.6-2.7
		c2.2,0,3.7,1.8,3.7,5.1v11.4h-1.3v-11.3c0-2.7-1-4.1-2.6-4.1c-1.7,0-3,1.7-3,4.3v11H326v-11.3c0-2.7-1-4.1-2.6-4.1
		c-1.7,0-3,1.7-3,4.3v11h-1.3V180.5z"/>
	<path class="st1" d="M344.1,192v-0.2c0-3,1.5-5.2,4.3-5.2c1.1,0,2,0.3,2.7,0.6v-2c0-2.3-1-3.6-3.1-3.6c-1.1,0-2,0.2-3,0.7V181
		c0.9-0.4,1.9-0.7,3.1-0.7c2.7,0,4.3,1.6,4.3,4.7v11.7h-1.3v-2.3c-0.6,1.6-1.7,2.6-3.3,2.6C345.6,197,344.1,194.8,344.1,192z
		 M351.1,191.6v-3.2c-0.9-0.4-1.7-0.6-2.7-0.6c-2,0-3,1.7-3,3.9v0.2c0,2.2,0.9,3.9,2.6,3.9C349.9,195.8,351.1,193.8,351.1,191.6z"/>
	<path class="st1" d="M358.1,193.6v3.1h-1.3v-21.8h1.3v8.7c0.6-1.9,1.8-3.4,3.4-3.4c2.2,0,4.2,2.8,4.2,8.1v0.6c0,5.2-2,8.1-4.2,8.1
		C359.8,196.9,358.7,195.4,358.1,193.6z M364.4,188.9v-0.5c0-4.4-1.4-6.9-3.1-6.9c-1.6,0-3.3,2.5-3.3,6.8v0.8c0,4.3,1.7,6.8,3.3,6.8
		C363,195.8,364.4,193.3,364.4,188.9z"/>
	<path class="st1" d="M368.9,188.7v-0.3c0-5.1,2.2-8.2,4.6-8.2s4.6,3.1,4.6,8.2v0.3c0,5.1-2.2,8.2-4.6,8.2S368.9,193.8,368.9,188.7z
		 M376.8,188.7v-0.3c0-4.3-1.5-7-3.3-7s-3.3,2.7-3.3,7v0.3c0,4.3,1.5,7,3.3,7S376.8,193,376.8,188.7z"/>
	<path class="st1" d="M380.6,180.5h1.3l3.2,14l3.3-14h1.3l-4,16.3h-1.1L380.6,180.5z"/>
	<path class="st1" d="M392.1,188.9v-0.3c0-5.6,2.1-8.4,4.4-8.4c2.4,0,4.2,2.9,4.2,7.9v1h-7.4c0.1,4.4,1.9,6.5,4,6.5
		c1,0,1.8-0.2,2.8-1l0.2,1.3c-1.1,0.6-1.9,0.9-3.1,0.9C394.5,196.9,392.1,194.3,392.1,188.9z M399.5,188c0-3.7-1.2-6.5-3-6.5
		c-1.7,0-3,2.3-3.1,6.5H399.5z"/>
	<path class="st1" d="M411.5,194v-12.3H410v-1.2h1.5v-4.6h1.3v4.6h2.6v1.2h-2.6v12.1c0,1.4,0.6,1.8,1.7,1.8c0.3,0,0.7-0.1,1-0.2v1.2
		c-0.3,0.1-0.8,0.2-1.1,0.2C412.6,196.8,411.5,196.1,411.5,194z"/>
	<path class="st1" d="M419.2,174.9h1.3v8c0.6-1.4,1.5-2.6,3.3-2.6c2.2,0,3.7,1.8,3.7,5.1v11.3h-1.3v-11.2c0-2.7-1-4.1-2.7-4.1
		c-1.7,0-3.1,1.8-3.1,4.4v11h-1.3V174.9z"/>
	<path class="st1" d="M431.2,188.9v-0.3c0-5.6,2.1-8.4,4.4-8.4c2.4,0,4.2,2.9,4.2,7.9v1h-7.4c0.1,4.4,1.9,6.5,4,6.5
		c1,0,1.8-0.2,2.8-1l0.2,1.3c-1.1,0.6-1.9,0.9-3.1,0.9C433.7,196.9,431.2,194.3,431.2,188.9z M438.7,188c0-3.7-1.2-6.5-3-6.5
		c-1.7,0-3,2.3-3.1,6.5H438.7z"/>
	<path class="st1" d="M450.2,180.5h1.3v2.4c0.6-1.4,1.5-2.6,3.2-2.6c1.8,0,2.7,1.2,3.2,2.7c0.6-1.3,1.6-2.7,3.6-2.7
		c2.2,0,3.7,1.8,3.7,5.1v11.4h-1.3v-11.3c0-2.7-1-4.1-2.6-4.1c-1.7,0-3,1.7-3,4.3v11H457v-11.3c0-2.7-1-4.1-2.6-4.1
		c-1.7,0-3,1.7-3,4.3v11h-1.3V180.5z"/>
	<path class="st1" d="M469.4,191.8v-11.3h1.3v11.2c0,2.7,1,4.1,2.7,4.1c1.7,0,3.1-1.8,3.1-4.4v-11h1.3v16.2h-1.3v-2.4
		c-0.6,1.4-1.5,2.6-3.3,2.6C470.9,196.9,469.4,195.1,469.4,191.8z"/>
	<path class="st1" d="M482.3,180.5h1.3v2.4c0.6-1.5,1.9-2.7,3.8-2.6v1.4h-0.1c-2,0-3.7,1.3-3.7,4.1v10.9h-1.3V180.5z"/>
	<path class="st1" d="M490.7,174.9h1.3v14.6l4.7-9h1.5l-3.6,6.5l3.9,9.7H497l-3.3-8.3l-1.7,3.1v5.2h-1.3V174.9z"/>
	<path class="st1" d="M508.5,174.9h1.4v2.2h-1.4V174.9z M508.6,180.5h1.3v16.2h-1.3V180.5z"/>
	<path class="st1" d="M514.6,180.5h1.3v2.4c0.6-1.4,1.5-2.6,3.3-2.6c2.2,0,3.7,1.8,3.7,5.1v11.3h-1.3v-11.2c0-2.7-1-4.1-2.7-4.1
		c-1.7,0-3.1,1.8-3.1,4.4v11h-1.3V180.5z"/>
	<path class="st1" d="M532.9,188.7v-0.3c0-5.1,2.2-8.2,4.6-8.2s4.6,3.1,4.6,8.2v0.3c0,5.1-2.2,8.2-4.6,8.2
		C535.1,196.9,532.9,193.8,532.9,188.7z M540.8,188.7v-0.3c0-4.3-1.5-7-3.3-7s-3.3,2.7-3.3,7v0.3c0,4.3,1.5,7,3.3,7
		S540.8,193,540.8,188.7z"/>
	<path class="st1" d="M545.9,191.8v-11.3h1.3v11.2c0,2.7,1,4.1,2.7,4.1c1.7,0,3.1-1.8,3.1-4.4v-11h1.3v16.2h-1.3v-2.4
		c-0.6,1.4-1.5,2.6-3.3,2.6C547.4,196.9,545.9,195.1,545.9,191.8z"/>
	<path class="st1" d="M558.7,180.5h1.3v2.4c0.6-1.5,1.9-2.7,3.8-2.6v1.4h-0.1c-2,0-3.7,1.3-3.7,4.1v10.9h-1.3V180.5z"/>
	<path class="st1" d="M225.3,213.5h1.3v3.1c0.6-1.9,1.8-3.4,3.4-3.4c2.2,0,4.2,2.8,4.2,8.1v0.6c0,5.2-2,8.1-4.2,8.1
		c-1.6,0-2.7-1.5-3.4-3.4v7.1h-1.3V213.5z M232.9,221.9v-0.5c0-4.4-1.4-6.9-3.1-6.9c-1.6,0-3.3,2.5-3.3,6.8v0.8
		c0,4.3,1.7,6.8,3.3,6.8C231.5,228.8,232.9,226.3,232.9,221.9z"/>
	<path class="st1" d="M237.4,225v-0.2c0-3,1.5-5.2,4.3-5.2c1.1,0,2,0.3,2.7,0.6v-2c0-2.3-1-3.6-3.1-3.6c-1.1,0-2,0.2-3,0.7V214
		c0.9-0.4,1.9-0.7,3.1-0.7c2.7,0,4.3,1.6,4.3,4.7v11.7h-1.3v-2.3c-0.6,1.6-1.7,2.6-3.3,2.6C238.9,230,237.4,227.9,237.4,225z
		 M244.4,224.7v-3.2c-0.9-0.4-1.7-0.6-2.7-0.6c-2,0-3,1.7-3,3.9v0.2c0,2.2,0.9,3.9,2.6,3.9C243.2,228.9,244.4,226.8,244.4,224.7z"/>
	<path class="st1" d="M250.4,227v-12.3h-1.5v-1.2h1.5V209h1.3v4.6h2.6v1.2h-2.6v12.1c0,1.4,0.6,1.8,1.7,1.8c0.3,0,0.7-0.1,1-0.2v1.2
		c-0.3,0.1-0.8,0.2-1.1,0.2C251.5,229.8,250.4,229.1,250.4,227z"/>
	<path class="st1" d="M258.1,207.9h1.3v8c0.6-1.4,1.5-2.6,3.3-2.6c2.2,0,3.7,1.8,3.7,5.1v11.3h-1.3v-11.2c0-2.7-1-4.1-2.7-4.1
		c-1.7,0-3.1,1.8-3.1,4.4v11h-1.3V207.9z"/>
	<path class="st1" d="M277.6,227v-12.3H276v-1.2h1.5V209h1.3v4.6h2.6v1.2h-2.6v12.1c0,1.4,0.6,1.8,1.7,1.8c0.3,0,0.7-0.1,1-0.2v1.2
		c-0.3,0.1-0.8,0.2-1.1,0.2C278.7,229.8,277.6,229.1,277.6,227z"/>
	<path class="st1" d="M284.3,221.8v-0.3c0-5.1,2.2-8.2,4.6-8.2s4.6,3.1,4.6,8.2v0.3c0,5.1-2.2,8.2-4.6,8.2S284.3,226.8,284.3,221.8z
		 M292.2,221.8v-0.3c0-4.3-1.5-7-3.3-7s-3.3,2.7-3.3,7v0.3c0,4.3,1.5,7,3.3,7S292.2,226,292.2,221.8z"/>
	<path class="st1" d="M296.1,213.5h1.4l2.6,14l2.7-14h1.2l2.7,14l2.7-14h1.3l-3.4,16.3H306l-2.7-13.6l-2.7,13.6h-1.2L296.1,213.5z"
		/>
	<path class="st1" d="M313.2,225v-0.2c0-3,1.5-5.2,4.3-5.2c1.1,0,2,0.3,2.7,0.6v-2c0-2.3-1-3.6-3.1-3.6c-1.1,0-2,0.2-3,0.7V214
		c0.9-0.4,1.9-0.7,3.1-0.7c2.7,0,4.3,1.6,4.3,4.7v11.7h-1.3v-2.3c-0.6,1.6-1.7,2.6-3.3,2.6C314.7,230,313.2,227.9,313.2,225z
		 M320.1,224.7v-3.2c-0.9-0.4-1.7-0.6-2.7-0.6c-2,0-3,1.7-3,3.9v0.2c0,2.2,0.9,3.9,2.6,3.9C319,228.9,320.1,226.8,320.1,224.7z"/>
	<path class="st1" d="M325.8,213.5h1.3v2.4c0.6-1.5,1.9-2.7,3.8-2.6v1.4h-0.1c-2,0-3.7,1.3-3.7,4.1v10.9h-1.3V213.5z"/>
	<path class="st1" d="M333.1,221.9v-0.6c0-5.2,2-8.1,4.2-8.1c1.6,0,2.7,1.5,3.4,3.4v-8.7h1.3v21.8h-1.3v-3.1
		c-0.6,1.9-1.8,3.4-3.4,3.4C335.1,230,333.1,227.1,333.1,221.9z M340.7,222v-0.8c0-4.4-1.7-6.8-3.3-6.8c-1.7,0-3.1,2.5-3.1,6.9v0.5
		c0,4.4,1.4,6.9,3.1,6.9C339.1,228.8,340.7,226.4,340.7,222z"/>
	<path class="st1" d="M345.6,229.1v-1.4c1.1,0.6,2.3,0.9,3.3,0.9c1.4,0,2.5-0.9,2.5-2.4v-0.1c0-1.1-0.6-2.3-2.6-4.1
		c-2.4-2.3-3.2-3.5-3.2-5.2v-0.1c0-2.3,1.8-3.5,3.7-3.5c1.1,0,1.8,0.2,2.7,0.5v1.4c-0.9-0.5-1.8-0.7-2.7-0.7c-1.3,0-2.3,0.9-2.3,2.3
		v0.1c0,1.2,0.6,2.1,2.6,4c2.3,2.3,3.2,3.6,3.2,5.3v0.1c0,2.3-1.9,3.7-3.8,3.7C347.6,229.9,346.7,229.6,345.6,229.1z"/>
	<path class="st1" d="M362,221.9v-0.3c0-5.6,2.1-8.4,4.4-8.4c2.4,0,4.2,2.9,4.2,7.9v1h-7.4c0.1,4.4,1.9,6.5,4,6.5c1,0,1.8-0.2,2.8-1
		l0.2,1.3c-1.1,0.6-1.9,0.9-3.1,0.9C364.4,229.9,362,227.3,362,221.9z M369.4,221c0-3.7-1.2-6.5-3-6.5c-1.7,0-3,2.3-3.1,6.5H369.4z"
		/>
	<path class="st1" d="M374.6,213.5h1.3v2.4c0.6-1.4,1.5-2.6,3.3-2.6c2.2,0,3.7,1.8,3.7,5.1v11.3h-1.3v-11.2c0-2.7-1-4.1-2.7-4.1
		c-1.7,0-3.1,1.8-3.1,4.4v11h-1.3V213.5z"/>
	<path class="st1" d="M387.5,207.9h1.3v21.8h-1.3V207.9z"/>
	<path class="st1" d="M393.6,207.9h1.4v2.2h-1.4V207.9z M393.7,213.5h1.3v16.2h-1.3V213.5z"/>
	<path class="st1" d="M399.7,233.1v-1.3c1.2,0.5,2.6,0.8,3.6,0.8c2.2,0,3.3-1,3.3-3.3v-3.8c-0.6,1.9-1.8,3.4-3.4,3.4
		c-2.2,0-4.2-2.7-4.2-7.7v-0.3c0-4.9,2.1-7.7,4.2-7.7c1.6,0,2.7,1.5,3.4,3.4v-3.1h1.3v15.7c0,3.1-1.7,4.5-4.7,4.5
		C402.2,233.8,400.9,233.5,399.7,233.1z M406.8,221.2v-0.3c0-4.1-1.7-6.5-3.3-6.5c-1.6,0-3.1,2.3-3.1,6.5v0.2c0,4.2,1.5,6.5,3.1,6.5
		C405,227.7,406.8,225.3,406.8,221.2z"/>
	<path class="st1" d="M412.5,207.9h1.3v8c0.6-1.4,1.5-2.6,3.3-2.6c2.2,0,3.7,1.8,3.7,5.1v11.3h-1.3v-11.2c0-2.7-1-4.1-2.7-4.1
		c-1.7,0-3.1,1.8-3.1,4.4v11h-1.3V207.9z"/>
	<path class="st1" d="M425.5,227v-12.3H424v-1.2h1.5V209h1.3v4.6h2.6v1.2h-2.6v12.1c0,1.4,0.6,1.8,1.7,1.8c0.3,0,0.7-0.1,1-0.2v1.2
		c-0.3,0.1-0.8,0.2-1.1,0.2C426.6,229.8,425.5,229.1,425.5,227z"/>
	<path class="st1" d="M432.3,221.9v-0.3c0-5.6,2.1-8.4,4.4-8.4c2.4,0,4.2,2.9,4.2,7.9v1h-7.4c0.1,4.4,1.9,6.5,4,6.5
		c1,0,1.8-0.2,2.8-1l0.2,1.3c-1.1,0.6-1.9,0.9-3.1,0.9C434.7,229.9,432.3,227.3,432.3,221.9z M439.7,221c0-3.7-1.2-6.5-3-6.5
		c-1.7,0-3,2.3-3.1,6.5H439.7z"/>
	<path class="st1" d="M444.9,213.5h1.3v2.4c0.6-1.4,1.5-2.6,3.3-2.6c2.2,0,3.7,1.8,3.7,5.1v11.3h-1.3v-11.2c0-2.7-1-4.1-2.7-4.1
		c-1.7,0-3.1,1.8-3.1,4.4v11h-1.3V213.5z"/>
	<path class="st1" d="M457.6,213.5h1.3v2.4c0.6-1.4,1.5-2.6,3.2-2.6c1.8,0,2.7,1.2,3.2,2.7c0.6-1.3,1.6-2.7,3.6-2.7
		c2.2,0,3.7,1.8,3.7,5.1v11.4h-1.3v-11.3c0-2.7-1-4.1-2.6-4.1c-1.7,0-3,1.7-3,4.3v11h-1.3v-11.3c0-2.7-1-4.1-2.6-4.1
		c-1.7,0-3,1.7-3,4.3v11h-1.3V213.5z"/>
	<path class="st1" d="M476.3,221.9v-0.3c0-5.6,2.1-8.4,4.4-8.4c2.4,0,4.2,2.9,4.2,7.9v1h-7.4c0.1,4.4,1.9,6.5,4,6.5
		c1,0,1.8-0.2,2.8-1l0.2,1.3c-1.1,0.6-1.9,0.9-3.1,0.9C478.7,229.9,476.3,227.3,476.3,221.9z M483.7,221c0-3.7-1.2-6.5-3-6.5
		c-1.7,0-3,2.3-3.1,6.5H483.7z"/>
	<path class="st1" d="M488.9,213.5h1.3v2.4c0.6-1.4,1.5-2.6,3.3-2.6c2.2,0,3.7,1.8,3.7,5.1v11.3H496v-11.2c0-2.7-1-4.1-2.7-4.1
		c-1.7,0-3.1,1.8-3.1,4.4v11h-1.3V213.5z"/>
	<path class="st1" d="M502.1,227v-12.3h-1.5v-1.2h1.5V209h1.3v4.6h2.6v1.2h-2.6v12.1c0,1.4,0.6,1.8,1.7,1.8c0.3,0,0.7-0.1,1-0.2v1.2
		c-0.3,0.1-0.8,0.2-1.1,0.2C503.2,229.8,502.1,229.1,502.1,227z"/>
	<path class="st1" d="M509.5,227.2h1.9v2.5h-1.9V227.2z"/>
</g>
<g>
	<g>
		<g>
			<g>
				<path class="st2" d="M59,188c-29.3,0-52.5-26.1-53.4-27.2l-1.7-1.9l1.7-1.9c1-1.1,24.2-27.3,53.5-27.3
					c29.3,0,52.5,26.1,53.5,27.3l1.7,1.9l-1.7,1.9C111.5,161.9,88.2,188,59,188L59,188z"/>
				<path class="st0" d="M59,132.6c28.3,0,51.3,26.3,51.3,26.3s-23,26.2-51.3,26.2c-28.3,0-51.3-26.2-51.3-26.2S30.6,132.6,59,132.6
					 M59,126.8c-30.6,0-54.6,27.1-55.6,28.2L0,158.8l3.3,3.8c1,1.2,25,28.2,55.6,28.2c30.6,0,54.6-27.1,55.6-28.2l3.3-3.8l-3.3-3.8
					C113.6,153.9,89.5,126.8,59,126.8L59,126.8z"/>
			</g>
		</g>
		<g>
			<g>
				<path class="st2" d="M164.7,188c-29.3,0-52.5-26.1-53.5-27.2l-1.7-1.9l1.7-1.9c1-1.1,24.2-27.3,53.5-27.3
					c29.3,0,52.5,26.1,53.4,27.3l1.7,1.9l-1.7,1.9C217.2,161.9,194,188,164.7,188L164.7,188z"/>
				<path class="st0" d="M164.7,132.6c28.3,0,51.3,26.3,51.3,26.3s-22.9,26.2-51.3,26.2c-28.3,0-51.3-26.2-51.3-26.2
					S136.4,132.6,164.7,132.6 M164.7,126.8c-30.6,0-54.6,27.1-55.6,28.2l-3.3,3.8l3.3,3.8c1,1.2,25.1,28.2,55.7,28.2
					c30.6,0,54.6-27.1,55.6-28.2l3.3-3.8l-3.3-3.8C219.4,153.9,195.3,126.8,164.7,126.8L164.7,126.8z"/>
			</g>
		</g>
	</g>
	<g>
		<path class="st2" d="M110.6,225.2c-1.4-0.7-33.7-16.9-33.7-38s32.3-37.3,33.7-38l1.3-0.6l1.3,0.6c1.4,0.7,33.7,16.9,33.7,38
			s-32.3,37.3-33.7,38l-1.3,0.6L110.6,225.2z"/>
		<path class="st0" d="M111.9,151.8c0,0,32.1,15.9,32.1,35.4s-32.1,35.4-32.1,35.4s-32.1-15.9-32.1-35.4S111.9,151.8,111.9,151.8
			 M111.9,145.4l-2.6,1.3c-0.4,0.2-8.7,4.3-17.1,11C80.1,167.4,74,177.3,74,187.2c0,10,6.1,19.9,18.2,29.6
			c8.4,6.7,16.7,10.9,17.1,11l2.6,1.3l2.6-1.3c0.4-0.2,8.7-4.3,17.1-11c12.1-9.7,18.2-19.6,18.2-29.6c0-10-6.1-19.9-18.2-29.6
			c-8.4-6.7-16.7-10.9-17.1-11L111.9,145.4L111.9,145.4z"/>
	</g>
	<g>
		<g>
			<g>
				<path class="st2" d="M98.6,150.1c-12.6,0-24.5-7.5-33.6-21c-13.9-20.9-4.2-57.1-3.7-58.6l0.8-2.7l2.8,0.7
					c1.7,0.4,42.5,11.1,56.3,31.8c7.1,10.6,9.6,20.8,7.3,29.4c-1.9,7.1-7,12.9-14.6,16.8C108.9,148.9,103.8,150.1,98.6,150.1z"/>
				<g>
					<path class="st0" d="M64.1,71.3c0,0,41.2,10.6,54.6,30.6c13.4,20.1,8,34.9-6.2,42c-4.4,2.2-9.1,3.4-13.9,3.4
						c-10.7,0-21.9-5.9-31.2-19.7C54.1,107.5,64.1,71.3,64.1,71.3 M60,64.2l-1.5,5.5c-0.4,1.6-10.5,39,4.1,61
						c9.6,14.4,22.4,22.3,36,22.3c5.6,0,11.2-1.3,16.5-4c8.4-4.2,14-10.6,16.1-18.6c1.7-6.6,1.8-17.4-7.7-31.8
						c-14.4-21.6-56.2-32.6-58-33L60,64.2L60,64.2z"/>
				</g>
			</g>
		</g>
		<g>
			<g>
				<path class="st2" d="M126.5,150.1c-5.2,0-10.3-1.2-15.2-3.7c-7.7-3.8-12.7-9.6-14.6-16.8c-2.3-8.6,0.3-18.8,7.3-29.4
					c13.8-20.7,54.6-31.4,56.3-31.8l2.8-0.7l0.8,2.7c0.4,1.5,10.2,37.7-3.8,58.6C151,142.7,139.1,150.1,126.5,150.1z"/>
				<g>
					<path class="st0" d="M161,71.3c0,0,10,36.2-3.4,56.3c-9.2,13.8-20.4,19.7-31.2,19.7c-4.8,0-9.5-1.2-13.9-3.4
						c-14.2-7.1-19.6-21.9-6.2-42C119.7,81.9,161,71.3,161,71.3 M165,64.2l-5.5,1.4c-1.8,0.5-43.5,11.4-58,33
						c-9.6,14.3-9.5,25.2-7.7,31.7c2.1,8,7.7,14.4,16.1,18.6c5.3,2.6,10.8,4,16.5,4c13.6,0,26.4-7.9,36-22.3
						c14.7-22,4.6-59.4,4.1-61L165,64.2L165,64.2z"/>
				</g>
			</g>
		</g>
		<g>
			<path class="st2" d="M112.5,140.4c-15.7,0-32.5-9.6-32.5-36.6c0-24.2,29.3-51.2,30.5-52.3l2-1.8l2,1.8
				c1.2,1.1,30.5,28.2,30.5,52.3C145,130.8,128.3,140.4,112.5,140.4z"/>
			<g>
				<path class="st0" d="M112.5,53.7c0,0,29.6,27,29.6,50.2c0,23.2-13.3,33.7-29.6,33.7S83,127,83,103.9
					C83,80.7,112.5,53.7,112.5,53.7 M112.5,45.8l-3.9,3.6c-1.3,1.2-31.5,29-31.5,54.5c0,12.4,3.6,22.6,10.3,29.5
					c6.3,6.5,15,9.9,25.1,9.9c10.1,0,18.8-3.4,25.1-9.9c6.7-6.9,10.3-17.2,10.3-29.5c0-25.4-30.2-53.3-31.5-54.5L112.5,45.8
					L112.5,45.8z"/>
			</g>
		</g>
		<g>
			<g>
				<path class="st2" d="M138.4,161.8c-8.5,0-16.1-3.1-22.2-8.9c-5.6-5.5-8.4-12-8-18.9c0.5-9.1,6.6-18.5,17.6-26.9
					c17.9-13.8,52.5-14.9,62.6-14.9c1.4,0,2.2,0,2.2,0l3.1,0.1l-0.3,3.1c-0.2,1.6-4,38.5-24.8,54.5
					C158.6,157.7,148.1,161.8,138.4,161.8z"/>
				<g>
					<path class="st0" d="M188.6,95c1.4,0,2.1,0,2.1,0s-3.7,37.1-23.6,52.5c-10.3,7.9-20.1,11.4-28.6,11.4c-8,0-14.9-3-20.1-8.1
						c-10.9-10.6-10.6-26.1,9.4-41.5C145,95.9,179.7,95,188.6,95 M188.6,89.2V95V89.2L188.6,89.2c-10.4,0-45.8,1.1-64.4,15.5
						c-14.8,11.4-18.4,22.1-18.8,29.1c-0.4,7.8,2.6,15.1,8.9,21.2c6.6,6.4,14.9,9.8,24.2,9.8c10.3,0,21.4-4.3,32.1-12.6
						c21.7-16.7,25.7-54.9,25.9-56.5l0.6-6.2l-6.2-0.2C190.8,89.3,190,89.2,188.6,89.2L188.6,89.2z"/>
				</g>
			</g>
		</g>
		<g>
			<g>
				<path class="st2" d="M85.2,161.8c-9.7,0-20.2-4.1-30.4-12c-20.7-16-24.6-52.9-24.7-54.5l-0.3-3.1l3.1-0.1c0,0,0.8,0,2.2,0
					c10.2,0,44.8,1.1,62.6,14.9c11,8.5,17.1,17.8,17.6,26.9c0.4,6.9-2.4,13.5-8,18.9C101.4,158.7,93.7,161.8,85.2,161.8
					C85.2,161.8,85.2,161.8,85.2,161.8z"/>
				<g>
					<path class="st0" d="M35.1,95c8.9,0,43.5,0.9,60.9,14.3c20,15.4,20.3,30.9,9.4,41.5c-5.3,5.1-12.2,8.1-20.1,8.1
						c-8.5,0-18.3-3.4-28.6-11.4C36.7,132.1,33,95,33,95S33.8,95,35.1,95 M35.1,89.2c-1.5,0-2.3,0-2.3,0l-6.2,0.2l0.6,6.2
						c0.2,1.6,4.2,39.8,25.9,56.5c10.7,8.2,21.8,12.6,32.1,12.6c9.3,0,17.6-3.4,24.2-9.8c6.3-6.1,9.3-13.4,8.9-21.2
						c-0.4-7-4-17.7-18.8-29.1C80.9,90.4,45.5,89.2,35.1,89.2L35.1,89.2z"/>
				</g>
			</g>
		</g>
		<g>
			<path class="st2" d="M112.5,165.8c-20,0-32.5-12.4-32.5-32.4c0-21.5,29.4-45.3,30.7-46.3l1.8-1.4l1.8,1.4
				c1.3,1,30.7,24.8,30.7,46.3C145,153.4,132.6,165.8,112.5,165.8z"/>
			<g>
				<path class="st0" d="M112.5,89.4c0,0,29.6,23.7,29.6,44c0,20.3-13.3,29.5-29.6,29.5S83,153.7,83,133.4
					C83,113.1,112.5,89.4,112.5,89.4 M112.5,81.9l-3.6,2.9c-0.3,0.3-7.9,6.3-15.5,15.1c-10.8,12.3-16.2,23.6-16.2,33.4
					c0,11.2,3.7,20.4,10.6,26.7c6.3,5.7,14.8,8.6,24.8,8.6c10,0,18.6-3,24.8-8.6c6.9-6.3,10.6-15.5,10.6-26.7
					c0-9.9-5.5-21.1-16.2-33.4c-7.6-8.8-15.2-14.8-15.5-15.1L112.5,81.9L112.5,81.9z"/>
			</g>
		</g>
	</g>
</g>
</svg>
