<?xml version="1.0" encoding="utf-8"?>
<!-- Generator: Adobe Illustrator 22.1.0, SVG Export Plug-In . SVG Version: 6.00 Build 0)  -->
<svg version="1.1" id="Layer_1" xmlns="http://www.w3.org/2000/svg" xmlns:xlink="http://www.w3.org/1999/xlink" x="0px" y="0px"
	 viewBox="0 0 684 230.8" style="enable-background:new 0 0 684 230.8;" xml:space="preserve">
<style type="text/css">
	.st0{fill:#FFFFFF;}
	.st1{fill:none;stroke:#FFFFFF;stroke-width:22;stroke-miterlimit:10;}
	.st2{fill:#F8B3AB;}
	.st3{opacity:0.8;}
	.st4{fill:#F38188;}
	.st5{fill:#951A1D;}
	.st6{fill:#333333;}
</style>
<path class="st0" d="M444.8,211H42.6C20.8,211,3,193.3,3,171.4V86.8C3,65,20.8,47.3,42.6,47.3h402.2c21.9,0,39.6,17.7,39.6,39.6
	v84.6C484.4,193.3,466.6,211,444.8,211z"/>
<path class="st1" d="M665.2,181.3c-1.4-2.4-3.5-4.2-5.4-5.8l-11.3-8.8c2.1-13.8,0.3-27.8-5.1-39.3c-3.5-7.5-8.6-14.1-14.7-19.2
	c0.3-1.1,1.1-2.1,2.1-2.7c0.4,1.1,1,2.1,1.6,3c2.2,3.3,5.6,5.2,8.9,5.2c0.4,0,0.8,0,1.1-0.1c2.2-0.3,4.2-1.6,5.6-3.6
	c1.5-2.1,2.1-4.9,1.7-7.3c-0.7-3.7-3.7-6.9-7.5-8.4c1-2.5,3.1-5.1,6.1-7.7c0.5-0.4,0.7-1.2,0.5-1.8c-0.2-0.7-0.8-1.1-1.5-1.2
	c-6.3-0.6-12.3,2.3-15.4,7.5c-0.2,0.3-0.3,0.5-0.4,0.8c-3.2-0.2-6.5,0.6-9.3,2.4c-2.4,1.5-4.4,3.7-5.8,6.3c-0.8-0.4-1.7-0.7-2.5-1
	c-12.4-4.5-26.3-3.4-37.1,2.9c-1.4-4-3.2-7.7-5.5-11.1c0.8-0.1,1.5-0.3,2.3-0.6c3.5-1.2,6.7-4.5,7.9-8.1c0.9-2.6,0.6-5.3-0.4-7.6
	c0.1,0,0.1,0,0.1,0c2.9,0,5.9-0.7,7.6-3.3c2.2-3.3,1-7-0.1-10.3c-0.2-0.7-0.5-1.5-0.7-2.2c-1.2-4.6-0.3-9.7,2.5-13.6
	c4.3,1.1,9.1,0.6,12.9-1.5c2.3-1.2,4.1-3.6,3-6.1c-0.9-2.2-3.4-2.6-5.1-2.8c-6.6-0.9-12.2-5.7-17.5-10.4l-1.6-1.4
	c-5.4-4.7-13.7-10.7-22.6-9.2c-7,1.2-12,6.7-15,11.1c-1.6,2.4-3,4.9-4.4,7.3c-1.5,2.7-3,5.4-4.8,7.9c-1,1.4-2.5,3.5-4.4,5.4
	c-21.8-17.9-55.8-22.6-86.5-12c-18,6.2-33.8,18.6-43.2,35.5l-21.1-8.9c-3.8-1.6-8.5-3.6-13.4-2.9c-7.1,1-11.9,7-15.9,12.6
	c-3.9,5.5-7.9,10.6-13.4,11.5c-0.8,0.1-1.6,0.2-2.5,0.3c-3.1,0.3-6.9,0.7-8.6,4c-0.8,1.6-0.8,3.4-0.1,5.1c1,2.4,3.4,4.4,6,5.1
	c1.3,0.3,2.5,0.5,3.8,0.5c2.4,0,4.8-0.6,7.2-1.6c2.8,1.2,4.9,4.2,6.6,9.5l0.4,1.2c1.3,4.2,2.9,9,6.7,12c1.1,0.9,2.4,1.5,3.6,2.1
	c0.9,0.4,1.7,0.9,2.4,1.4c1.2,0.8,2.3,1.8,3.4,2.9c1.2,1.1,2.4,2.3,3.8,3.3c2.5,1.7,5.4,2.5,8.4,2.5c3.1,0,6.2-0.9,8.7-2.6
	c0.5,3.5,1.4,7.1,2.8,10.4l0.7,1.7c3.1,7.1,5.8,13.3,5.2,21.1c-0.5,7.2-0.5,16.4,4,24.1c5.9,10.1,17.5,14.6,25.7,17.2
	c13,4,26.3,6.1,39.8,6.1c3.3,0,6.6-0.1,9.9-0.4c4.3-0.3,8.8-0.2,13.2-0.1c11.9,0.3,24.2,0.6,34-7.2c0.4,2.3,1.7,4.3,3.6,5.2
	c1.2,0.6,2.5,0.7,3.8,0.3c0.5,1.5,1.7,2.9,3.1,3.6c1.7,0.9,3.5,1.2,5.3,1.2c0.8,0,1.7-0.1,2.5-0.1c9.6-0.8,19.2-3.5,27.1-7.5
	c1.6-0.8,3.3-1.8,5.1-3.1c0.2,0,0.3,0,0.5,0c12.7,0,25.6-2.4,37.4-6.8c2.1,2.1,5,3.9,8.6,5.3c8.5,3.5,17.5,4.4,26.1,5.1
	c1.2,0.1,2.5,0.2,3.8,0.2c1.4,0,2.9-0.1,4.4-0.5c3.3-0.8,5.9-2.8,7.1-5.4c0.8-1.7,0.8-3.6,0.3-5.3c1.7-0.5,3.2-1.6,4-3.1
	C667.1,187.5,666.9,184.2,665.2,181.3z"/>
<g id="pig_2_">
	<g>
		<path class="st2" d="M538.8,210.5c-2.1,0-3.7-0.4-5-1.1c-1.3-0.7-2.3-1.9-2.8-3.3l-0.2-0.5l-0.5,0.1c-0.4,0.1-0.9,0.2-1.3,0.2
			c-0.7,0-1.5-0.2-2.1-0.5c-1.7-0.8-2.9-2.6-3.3-4.8l-0.2-0.9l-0.8,0.6c-8,6.3-17.7,7.2-26.9,7.2c-2.3,0-4.6-0.1-6.8-0.1
			c-2.3-0.1-4.5-0.1-6.7-0.1c-2.5,0-4.6,0.1-6.5,0.2c-3.3,0.2-6.6,0.4-9.9,0.4c-13.4,0-26.8-2-39.7-6c-8.1-2.5-19.6-7-25.4-16.9
			c-4.5-7.6-4.4-16.7-3.9-23.8c0.6-8-2.1-14.2-5.2-21.4l-0.7-1.7c-1.3-3.1-2.3-6.5-2.8-10.3l-0.1-0.9l-0.8,0.5
			c-2.4,1.6-5.4,2.5-8.4,2.5c-2.9,0-5.7-0.8-8-2.4c-1.4-0.9-2.6-2.1-3.8-3.2c-1.2-1.1-2.3-2.1-3.5-3c-0.8-0.5-1.6-0.9-2.5-1.4
			c-1.2-0.6-2.4-1.2-3.5-2.1c-3.7-2.9-5.2-7.5-6.5-11.7l-0.4-1.2c-1.8-5.5-4-8.6-6.9-9.9l-0.2-0.1l-0.2,0.1c-2.6,1-4.8,1.5-7,1.5
			c-1.2,0-2.5-0.2-3.6-0.5c-2.5-0.7-4.7-2.6-5.7-4.8c-0.7-1.6-0.7-3.2,0-4.6c1.5-3,5.2-3.4,8.1-3.7c0.9-0.1,1.7-0.2,2.5-0.3
			c5.8-1,9.8-6.2,13.8-11.8c3.9-5.5,8.6-11.4,15.5-12.4c0.6-0.1,1.3-0.1,1.9-0.1c4,0,8,1.7,11.2,3l21.6,9.1l0.3-0.4
			c9.2-16.4,24.4-28.9,42.9-35.2c10.7-3.7,21.8-5.5,33-5.5c20.4,0,39.2,6.2,53,17.5l0.4,0.3l0.4-0.4c1.8-1.9,3.2-3.8,4.3-5.3
			l0.2-0.2c1.8-2.5,3.3-5.3,4.8-8c1.4-2.5,2.7-5,4.3-7.3c2.9-4.3,7.9-9.7,14.7-10.9c0.9-0.2,1.9-0.2,2.8-0.2
			c7.7,0,14.7,5.3,19.3,9.3l1.6,1.4c5.4,4.7,11,9.6,17.8,10.5c1.6,0.2,3.8,0.5,4.7,2.4c0.9,2.1-0.8,4.2-2.8,5.3
			c-2.4,1.3-5.2,2-8.1,2c-1.5,0-3-0.2-4.4-0.6l-0.4-0.1l-0.2,0.3c-2.8,4-3.8,9.4-2.5,14.1c0.2,0.7,0.4,1.4,0.7,2.1
			c1.1,3.3,2.2,6.9,0.2,9.9c-1.4,2.1-3.7,3.1-7.2,3.1l-1.1,0l0.4,0.8c1,2.2,1.2,4.8,0.4,7.2c-1.1,3.4-4.2,6.6-7.5,7.7
			c-0.7,0.2-1.4,0.4-2.2,0.5l-0.9,0.1l0.5,0.7c2.2,3.3,4.1,6.9,5.4,10.9l0.2,0.7l0.6-0.3c6.3-3.6,13.6-5.5,21.2-5.5
			c5.3,0,10.5,0.9,15.4,2.7c0.8,0.3,1.6,0.6,2.5,1l0.5,0.2l0.2-0.5c1.3-2.5,3.2-4.6,5.6-6c2.4-1.5,5.3-2.3,8.2-2.3
			c0.3,0,0.5,0,0.8,0l0.4,0l0.2-0.3c0.1-0.3,0.3-0.5,0.4-0.8c2.7-4.5,7.7-7.3,13.2-7.3c0.5,0,1.1,0,1.7,0.1c0.5,0,0.8,0.4,1,0.8
			c0.1,0.4,0,0.9-0.3,1.2c-3.1,2.7-5.2,5.4-6.2,7.9l-0.2,0.5L642,95c3.7,1.4,6.5,4.5,7.2,8c0.4,2.3-0.1,4.9-1.6,6.9
			c-1.3,1.8-3.2,3-5.2,3.3c-0.3,0-0.7,0.1-1.1,0.1c-3.1,0-6.3-1.9-8.4-5c-0.6-0.9-1.1-1.9-1.5-2.9l-0.3-0.6l-0.6,0.4
			c-1.1,0.7-2,1.8-2.4,3l-0.1,0.4l0.3,0.2c6.1,5.1,11.1,11.6,14.5,19c5.3,11.4,7.2,25.2,5.1,39l-0.1,0.3l11.6,9
			c1.8,1.5,3.9,3.3,5.2,5.6c1.6,2.7,1.8,5.8,0.5,8.1c-0.7,1.3-2.1,2.4-3.7,2.8l-0.6,0.2l0.2,0.6c0.5,1.6,0.4,3.4-0.3,4.9
			c-1.1,2.5-3.6,4.3-6.7,5.1c-1.2,0.3-2.6,0.4-4.2,0.4c-1.3,0-2.6-0.1-3.8-0.2c-8.5-0.7-17.5-1.6-25.9-5c-3.6-1.5-6.3-3.2-8.4-5.2
			l-0.3-0.3l-0.3,0.1c-11.8,4.4-24.7,6.8-37.2,6.8l-0.6,0l-0.2,0.1c-1.6,1.1-3.2,2.1-5,3c-7.8,4-17.4,6.6-26.9,7.4
			C540.5,210.4,539.7,210.5,538.8,210.5z"/>
		<g class="st3">
			<path class="st4" d="M389.6,114.5c1.9-14.1,5.8-28,11.6-41c0.7-1.7,1.5-3.5,1.7-5.3c-0.4,0.6-0.7,1.2-1.1,1.8l-0.3,0.4l-19.7-8.3
				c-0.9-0.1-1.6-0.2-1.7-0.3c2,2.9,4,6,4.5,9.5c0.5,3.5-0.9,7.6-4.2,8.9c-1.7,0.7-3.6,0.6-5.4,0.6c-8.7-0.1-17.3,2.3-24.7,6.8
				c-4.5,2.8-8.7,6.3-13.7,8.1c-1,0.3-1.9,0.5-2.8,0.6c0.7,0.1,1.5,0.2,2.3,0.2c2.2,0,4.4-0.5,7-1.5l0.2-0.1l0.2,0.1
				c3,1.3,5.2,4.4,6.9,9.9l0.4,1.2c1.3,4.1,2.8,8.8,6.5,11.7c1.1,0.9,2.3,1.5,3.5,2.1c0.9,0.5,1.7,0.9,2.5,1.4
				c1.2,0.8,2.3,1.9,3.5,3c1.2,1.1,2.4,2.3,3.8,3.2c2.3,1.5,5.1,2.4,8,2.4c3,0,6-0.9,8.4-2.5l0.8-0.5l0.1,0.9
				c0.2,1.1,0.4,2.3,0.6,3.4c0-2.1-0.2-4.3-0.1-6.1C388.8,121.4,389.2,117.9,389.6,114.5z"/>
			<path class="st4" d="M581.2,81.4c0.4-2,0.1-4.1-0.7-5.9l-0.4-0.8l1.1,0c3.4,0,5.8-1,7.2-3.1c2.1-3,0.9-6.6-0.2-9.9
				c-0.2-0.7-0.5-1.4-0.7-2.1c-0.8-3-0.5-5.8,0.1-8.8c0.1-0.6,1.8-7,2.3-6.5c-6.5-5.1-14.8-12.2-23.8-9c-4.1,1.5-6.9,5.1-9,8.9
				s-3.5,7.9-5.9,11.5c-2.4,3.6-6.1,6.7-10.4,6.9c2.9-0.2,5.8,1.2,7.5,3.5c1.7,2.3,2.1,5.5,1,8.2c4.4-0.1,7.4,4.4,11,7
				C566.3,85.3,574.5,84.2,581.2,81.4z"/>
			<path class="st4" d="M640.9,123.8c-3.3-5.8-7.5-10.9-12.5-15.1l-0.3-0.2l0.1-0.4c0.4-1.2,1.2-2.3,2.4-3l0.6-0.4l0.3,0.6
				c0.3,0.7,0.7,1.4,1,2.1c-0.9-2.3-1.1-4.9-1.2-7.4c0-2.5,0-5-0.4-7.5c-0.1,0-0.2,0-0.2,0c-2.9,0-5.8,0.8-8.2,2.3
				c-2.3,1.4-4.3,3.6-5.6,6l-0.2,0.5l-0.5-0.2c-0.9-0.4-1.7-0.7-2.5-1c-0.1,0-0.2-0.1-0.2-0.1c0,0-0.1,0-0.1,0.1
				C623.8,106.3,633.2,114.4,640.9,123.8z"/>
			<path class="st4" d="M660.9,198.1c0.7-1.5,0.8-3.3,0.3-4.9l-0.2-0.6l0.6-0.2c1.5-0.4,2.9-1.5,3.7-2.8c1.3-2.3,1.1-5.4-0.5-8.1
				c-1.3-2.3-3.4-4.1-5.2-5.6l-11.6-9l0.1-0.3c0.7-4.5,0.9-9.1,0.8-13.5c-3.5,2.6-8.9,3-13.5,2.7c-15.5-1.1-31.6-6.3-41.5-18.2
				c-9.1-10.9-11.2-28.2-3-39.4c-4.7,0.8-14.1,2.7-15.6,8.3c-0.6,2.2-0.1,4.5,0.1,6.8c0.9,8.1-1.2,15-3.9,22.5
				c-2.2,6.3-3.3,10.9-8.2,16.1c-13.1,14.1-35.2,19-53.1,11.8c-9.8,10.5-24.1,15.4-37.7,20c-3.8,1.3-7.6,2.5-11.6,2.4
				c-4-0.1-8.1-1.8-10-5.3c-5.5,4.3-12.2,6.8-19.1,7.6c-6,0.7-12.2,0.1-18-1.7c-2.9-0.9-5.7-2.2-8.3-3.7c-1.9-1.2-5.1-5-7-5.5
				c-0.1,0-0.3-0.1-0.4-0.1c0.6,2.6,1.6,5.2,3,7.6c5.8,9.9,17.3,14.4,25.4,16.9c12.9,4,26.2,6,39.7,6c3.3,0,6.6-0.1,9.9-0.4
				c1.9-0.1,4-0.2,6.5-0.2c2.2,0,4.5,0.1,6.7,0.1c2.2,0.1,4.5,0.1,6.8,0.1c6.9,0,15.2-0.2,21.3-3.7c5.8-3.3,10.6-11.6,15-16.7
				c3.1-3.7,6.2-7.3,10.1-10.2s8.5-4.9,13.3-4.7c4.8,0.2,9.6,2.8,11.6,7.2c1.5,3.5,1.1,7.6-0.4,11c-2.1,4.9-6,8.8-10.4,11.8
				c-4.4,2.9-9.4,5-14.3,7c5-2.1,11.5-2.2,16.8-3.9c5.2-1.6,10.6-5,16-5.3c12.8-0.8,24.5-2.7,36.3-7.4c-1.2-3-2.4-6-2.9-9.2
				c-0.4-3.2,0.1-6.6,2.1-9.2c3.7-4.8,10.9-4.9,16.9-4c9.9,1.5,23.1,6,25.7,17c1.3,5.6-0.5,11.9-4.8,15.9c0.4-0.4,6.2,0,7.4-0.5
				C657.6,201.7,659.9,200.3,660.9,198.1z"/>
			<path class="st4" d="M638.4,112.7c1,0.4,2,0.6,3,0.6c0.4,0,0.7,0,1.1-0.1c2-0.3,3.9-1.5,5.2-3.3c1.4-2,2-4.6,1.6-6.9
				c-0.7-3.4-3.5-6.6-7.2-8l0,0c-0.7,0.9-1.1,1.9-1,3.2c0.1,4,4.5,7.3,3.6,11.2C643.9,111.9,641.1,113.1,638.4,112.7z"/>
		</g>
		<g>
			<path class="st5" d="M541,199.7c-1.7-1.3-3.8-1.8-5.8-2.2c0.5-1.2-0.2-2.6-1.3-3.2c-1.1-0.6-2.4-0.6-3.7-0.3
				c-6.4,1.9-5,13.3,1.4,9.4c1.1,2.4,2.7,4.7,5.5,5.3c2.6,0.6,5.7-1,6.3-3.6C543.8,203.1,542.7,200.9,541,199.7z"/>
			<path class="st5" d="M660.5,184.8c-1.8-1-4.1-1.1-5.8-0.1c-1.7,1.1-2.7,3.3-2.2,5.2c-1.7-1.1-4.1-0.5-5.3,1.1
				c-1.2,1.6-1.1,3.9-0.1,5.7c1,1.7,2.8,2.9,4.8,3.4c3,0.7,5.8,0.7,7.4-2.1c0.9-1.7,1.3-5.7-0.4-7.2c1.3,1.2,3.7,0,4-1.7
				C663.2,187.5,662,185.7,660.5,184.8z"/>
		</g>
		<g>
			
				<ellipse transform="matrix(0.9331 -0.3597 0.3597 0.9331 -26.9782 162.719)" class="st0" cx="423.7" cy="153.8" rx="14.5" ry="17.6"/>
			<ellipse class="st0" cx="510.5" cy="128.6" rx="17.2" ry="19.9"/>
		</g>
	</g>
	<g>
		<g>
			<path class="st5" d="M436.3,146.3c3.4,5.7,2.2,12.6-2.7,15.5c-5,2.9-11.8,0.5-15.2-5.2c-3.4-5.7-2.2-12.6,2.7-15.5
				C426.1,138.3,432.9,140.6,436.3,146.3z"/>
			<path class="st5" d="M426.3,170.8c0,0-0.4,0-1.1,0.1c-0.7,0-1.8,0.1-3.1-0.2c-1.3-0.2-2.9-0.7-4.6-1.5c-1.7-0.8-3.4-2.1-5.1-3.8
				c-1.6-1.7-3.1-3.8-4.2-6.3c-0.1-0.3-0.3-0.6-0.4-0.9c-0.1-0.3-0.2-0.7-0.3-1c-0.2-0.7-0.4-1.4-0.6-2.1c-0.3-1.4-0.5-2.9-0.5-4.4
				c0-3,0.6-6.2,2.4-9c0.8-1.4,1.9-2.7,3.2-3.8c0.6-0.6,1.3-1,2.1-1.5l1.1-0.6l0.3-0.1l0.1,0c-0.1,0,0.1-0.1,0.1-0.1l0,0l0.1,0
				l0.5-0.2c0.6-0.3,1.6-0.5,2.4-0.6c0.8-0.1,1.7-0.2,2.5-0.2c1.7,0,3.3,0.3,4.8,0.8c3.1,1,5.7,2.9,7.8,5c2.1,2.2,3.6,4.7,4.5,7.2
				c0.2,0.6,0.4,1.2,0.6,1.9c0.2,0.7,0.3,1.3,0.4,1.9c0.2,1.2,0.3,2.5,0.3,3.6c0,2.3-0.5,4.5-1.1,6.2c-0.7,1.8-1.5,3.2-2.4,4.2
				c-0.9,1-1.7,1.7-2.2,2.1c-0.6,0.4-0.9,0.6-0.9,0.6s0.3-0.3,0.8-0.8c0.5-0.5,1.1-1.3,1.8-2.4c0.7-1.1,1.3-2.5,1.7-4.2
				c0.4-1.7,0.6-3.7,0.4-5.8c-0.1-1.1-0.3-2.1-0.6-3.2c-0.2-0.5-0.3-1.1-0.5-1.6c-0.2-0.5-0.4-1.1-0.7-1.7c-1-2.1-2.4-4.3-4.3-6
				c-0.9-0.9-2-1.7-3.1-2.4c-1.1-0.6-2.3-1.2-3.6-1.6c-1.2-0.4-2.5-0.6-3.8-0.6c-0.6,0-1.3,0.1-1.9,0.1c-0.6,0.2-1.1,0.2-1.9,0.5
				l-0.5,0.2l-0.1,0l0,0c0,0,0.2-0.1,0.1,0l-0.1,0l-0.2,0.1l-0.9,0.4c-0.5,0.4-1.1,0.7-1.6,1.1c-1,0.8-1.8,1.8-2.5,2.9
				c-1.4,2.2-2.1,4.8-2.2,7.3c0,1.3,0,2.5,0.3,3.8c0.1,0.6,0.2,1.2,0.4,1.8c0.1,0.3,0.1,0.6,0.2,0.9c0.1,0.3,0.2,0.6,0.3,0.9
				c0.8,2.2,2,4.3,3.3,5.9c1.3,1.6,2.8,3,4.3,3.9c1.5,1,2.9,1.6,4.1,2c0.6,0.2,1.2,0.3,1.6,0.5c0.5,0.1,0.9,0.2,1.3,0.2
				C426,170.8,426.3,170.8,426.3,170.8z"/>
		</g>
		<g>
			
				<ellipse transform="matrix(0.903 -0.4296 0.4296 0.903 -3.5443 232.8958)" class="st5" cx="514.1" cy="124.3" rx="11.8" ry="13.3"/>
			<path class="st5" d="M505.5,147.5c0,0-0.4-0.1-1.1-0.4c-0.7-0.3-1.8-0.7-3.1-1.4c-1.3-0.8-2.7-1.9-4.1-3.4
				c-1.4-1.6-2.7-3.6-3.7-6c-1-2.4-1.6-5.3-1.6-8.2c0-3.1,0.6-6.3,2.1-9.3c1.4-3,3.7-5.8,6.6-7.9c1.5-1,3.1-1.8,4.9-2.3
				c1.7-0.5,3.6-0.8,5.4-0.7l0.6,0l0.7,0.1c0.5,0.1,1,0.1,1.4,0.2c0.9,0.2,1.8,0.4,2.6,0.7c1.7,0.6,3.3,1.5,4.8,2.5
				c2.9,2.1,5,5,6.4,8c1.4,3,1.9,6.3,1.9,9.3c0,0.4,0,0.7,0,1.1c0,0.4-0.1,0.8-0.1,1.1c-0.1,0.8-0.2,1.5-0.3,2.2
				c-0.1,0.7-0.4,1.4-0.5,2c-0.2,0.6-0.4,1.3-0.7,1.9c-1,2.4-2.4,4.4-3.9,5.9c-1.4,1.5-3,2.6-4.2,3.3c-1.3,0.7-2.4,1.1-3.2,1.3
				c-0.8,0.2-1.2,0.3-1.2,0.3s0.4-0.2,1.1-0.5c0.7-0.3,1.7-0.9,2.9-1.7c1.1-0.9,2.4-2,3.6-3.6c1.2-1.5,2.3-3.5,3-5.7
				c0.2-0.6,0.3-1.2,0.5-1.7c0.1-0.6,0.3-1.2,0.3-1.8c0.1-0.6,0.2-1.3,0.2-1.9c0-0.3,0-0.6,0-1c0-0.4,0-0.7,0-1.1
				c-0.1-2.6-0.8-5.5-2.1-8c-0.6-1.3-1.5-2.5-2.4-3.7c-0.5-0.5-1-1.1-1.5-1.6l-0.8-0.7l-0.9-0.7c-1.2-0.9-2.5-1.6-3.9-2
				c-0.7-0.3-1.4-0.4-2.1-0.6l-1-0.1l-0.5-0.1l-0.6,0c-1.5-0.1-3,0.2-4.4,0.5c-1.4,0.4-2.8,1.1-4,1.8c-2.4,1.7-4.5,3.9-5.8,6.5
				c-1.3,2.5-2.1,5.3-2.2,8c0,0.4,0,0.7,0,1.1l0,0.5c0,0.1,0,0.3,0,0.4c0,0.7,0.1,1.3,0.1,1.9c0.1,1.3,0.4,2.5,0.7,3.6
				c0.7,2.3,1.7,4.2,2.9,5.8c1.1,1.6,2.4,2.8,3.5,3.7c0.5,0.5,1.1,0.8,1.5,1.1c0.5,0.3,0.9,0.5,1.2,0.7
				C505.1,147.3,505.5,147.5,505.5,147.5z"/>
		</g>
		<g>
			<path class="st5" d="M556,44c-0.7,1.1-1.3,2.2-1.8,3.4c-0.5,1.2-1,2.3-1.4,3.4c-0.2,0.6-0.5,1.1-0.7,1.6
				c-0.2,0.5-0.5,1.1-0.8,1.5c-0.2,0.3-0.3,0.5-0.5,0.8l-0.4,0.6c-0.3,0.4-0.7,0.9-1,1.3c-0.7,0.8-1.6,1.5-2.5,2.2
				c-0.9,0.6-1.8,1.2-2.8,1.6c-0.5,0.2-1,0.4-1.5,0.6c-0.5,0.2-1.1,0.3-1.6,0.4l-0.1,0c-0.5,0.1-1,0.5-1.2,1c-0.3,0.8,0.1,1.8,1,2.1
				c1.4,0.5,2.8,1,4,1.6c0.6,0.3,1.2,0.6,1.8,1c0.6,0.4,1.1,0.8,1.5,1.2c0.1,0.1,0.2,0.3,0.4,0.4l0.3,0.3c0.2,0.3,0.4,0.5,0.5,0.8
				c0.3,0.6,0.6,1.2,0.7,1.9c0.1,0.7,0.2,1.4,0.1,2.1c-0.1,0.3-0.2,0.7-0.3,1c-0.1,0.3-0.3,0.7-0.5,1c0.3-0.2,0.6-0.5,0.9-0.8
				c0.3-0.3,0.5-0.6,0.7-1c0.4-0.7,0.5-1.6,0.6-2.4c0-0.8-0.1-1.7-0.3-2.5c-0.1-0.4-0.3-0.8-0.5-1.2l-0.3-0.6
				c-0.1-0.2-0.2-0.3-0.3-0.5c-1-1.4-2.3-2.5-3.7-3.3c-0.1-0.1-0.2-0.1-0.3-0.2c0.5-0.2,1-0.5,1.5-0.8c0.6-0.3,1.2-0.7,1.7-1.1
				c0.5-0.4,1.1-0.8,1.6-1.3c0.5-0.5,0.9-1,1.4-1.5c0.4-0.5,0.8-1.1,1.2-1.7c0.2-0.3,0.4-0.6,0.5-0.9c0.2-0.3,0.3-0.6,0.4-0.8
				c0.3-0.7,0.5-1.2,0.7-1.9c0.2-0.6,0.4-1.2,0.5-1.8c0.3-1.2,0.6-2.4,0.8-3.6c0.3-1.2,0.5-2.3,1-3.4c0.2-0.6,0.4-1.1,0.7-1.6
				l0.4-0.8l0.5-0.8c-0.5,0.3-1,0.7-1.5,1.2C556.8,43,556.4,43.5,556,44z"/>
			<path class="st5" d="M665.2,181.3c-1.4-2.4-3.5-4.2-5.4-5.8l-11.3-8.8c2.1-13.8,0.3-27.8-5.1-39.3c-3.5-7.5-8.6-14.1-14.7-19.2
				c0.3-1.1,1.1-2.1,2.1-2.7c0.4,1.1,1,2.1,1.6,3c2.2,3.3,5.6,5.2,8.9,5.2c0.4,0,0.8,0,1.1-0.1c2.2-0.3,4.2-1.6,5.6-3.6
				c1.5-2.1,2.1-4.9,1.7-7.3c-0.7-3.7-3.7-6.9-7.5-8.4c1-2.5,3.1-5.1,6.1-7.7c0.5-0.4,0.7-1.2,0.5-1.8c-0.2-0.7-0.8-1.1-1.5-1.2
				c-6.3-0.6-12.3,2.3-15.4,7.5c-0.2,0.3-0.3,0.5-0.4,0.8c-3.2-0.2-6.5,0.7-9.3,2.4c-2.4,1.5-4.4,3.7-5.8,6.3
				c-0.8-0.4-1.7-0.7-2.5-1c-12.4-4.5-26.3-3.4-37.1,2.9c-1.4-4-3.2-7.7-5.5-11.1c0.8-0.1,1.5-0.3,2.3-0.6c3.5-1.2,6.7-4.5,7.9-8.1
				c0.9-2.6,0.6-5.3-0.4-7.6c0.1,0,0.1,0,0.1,0c2.9,0,5.9-0.7,7.6-3.3c2.2-3.3,1-7-0.1-10.3c-0.2-0.7-0.5-1.5-0.7-2.2
				c-1.2-4.6-0.3-9.7,2.5-13.6c4.3,1.1,9.1,0.6,12.9-1.5c2.3-1.2,4.1-3.6,3-6.1c-0.9-2.2-3.4-2.6-5.1-2.8
				c-6.6-0.9-12.2-5.7-17.5-10.4l-1.6-1.4c-5.4-4.7-13.7-10.7-22.6-9.2c-7,1.2-12,6.7-15,11.1c-1.6,2.4-3,4.9-4.4,7.3
				c-1.5,2.7-3,5.4-4.8,7.9c-1,1.4-2.5,3.5-4.4,5.4c-21.8-17.9-55.8-22.6-86.5-12c-18,6.2-33.8,18.6-43.2,35.5l-21.1-8.9
				c-3.8-1.6-8.5-3.6-13.4-2.9c-7.1,1-11.9,7-15.9,12.6c-3.9,5.5-7.9,10.6-13.4,11.5c-0.8,0.1-1.6,0.2-2.5,0.3
				c-3.1,0.3-6.9,0.7-8.6,4c-0.8,1.6-0.8,3.4-0.1,5.1c1,2.4,3.4,4.4,6,5.1c1.3,0.3,2.5,0.5,3.8,0.5c2.4,0,4.8-0.6,7.2-1.6
				c2.8,1.2,4.9,4.2,6.6,9.5l0.4,1.2c1.3,4.2,2.9,9,6.7,12c1.1,0.9,2.4,1.5,3.6,2.1c0.9,0.4,1.7,0.9,2.4,1.4
				c1.2,0.8,2.3,1.8,3.4,2.9c1.2,1.1,2.4,2.3,3.8,3.3c2.5,1.7,5.4,2.5,8.4,2.5c3.1,0,6.2-0.9,8.7-2.6c0.5,3.5,1.4,7.1,2.8,10.4
				l0.7,1.7c3.1,7.1,5.8,13.3,5.2,21.1c-0.5,7.2-0.5,16.4,4,24.1c5.9,10.1,17.5,14.6,25.7,17.2c13,4,26.3,6.1,39.8,6.1
				c3.3,0,6.6-0.1,9.9-0.4c4.3-0.3,8.8-0.2,13.2-0.1c11.9,0.3,24.2,0.6,34-7.2c0.4,2.3,1.7,4.3,3.6,5.2c1.2,0.6,2.5,0.7,3.8,0.3
				c0.5,1.5,1.7,2.9,3.1,3.6c1.7,0.9,3.5,1.2,5.3,1.2c0.8,0,1.7-0.1,2.5-0.1c9.6-0.8,19.2-3.5,27.1-7.5c1.6-0.8,3.3-1.8,5.1-3.1
				c0.2,0,0.3,0,0.5,0c12.7,0,25.6-2.4,37.4-6.8c2.1,2.1,5,3.9,8.6,5.3c8.5,3.5,17.5,4.4,26.1,5.1c1.2,0.1,2.5,0.2,3.8,0.2
				c1.4,0,2.9-0.1,4.4-0.5c3.3-0.8,5.9-2.8,7.1-5.4c0.8-1.7,0.8-3.6,0.3-5.3c1.7-0.5,3.2-1.6,4-3.1
				C667.1,187.5,666.9,184.2,665.2,181.3z M634.9,93c1.7-2.9,4.6-4.8,7.8-5.6c-1.7,1.9-2.9,3.9-3.7,5.8c-1.2,3-1.7,7.1,0.8,9.6
				c0.4,0.4,1,0.8,1.6,0.9c0.6,0.1,1.3-0.1,1.6-0.6c-0.5-0.9-0.7-1.8-1-2.7c-0.1-0.3-0.5-2.6-0.5-2.6c2.5,1.1,4.4,3.2,4.8,5.6
				c0.3,1.5-0.1,3.3-1.1,4.7c-0.9,1.2-2,2-3.3,2.1c-2.8,0.4-5.3-1.7-6.7-3.7C632.6,102.7,632.4,97.1,634.9,93z M624,97.3
				c1.8-1.1,4-1.8,6.2-1.9c-0.6,2.2-0.6,4.5-0.3,6.8c-1.7,0.8-3.1,2.2-4,3.9c-2-1.5-4.2-2.8-6.4-4C620.6,100.2,622.1,98.5,624,97.3z
				 M662.7,188.3c-0.4,0.7-1.2,1.3-2,1.5c-0.3,0.1-0.9,0.1-1.4-0.1c-0.2-0.1-0.3-0.2-0.5-0.3c-0.8-0.4-1.8-0.2-2.3,0.6
				c-0.5,0.8-0.3,1.8,0.4,2.3c0.2,0.1,0.4,0.2,0.5,0.4c1.2,0.9,1.4,2.9,0.8,4.3c-0.7,1.6-2.5,2.9-4.8,3.5c-2.1,0.5-4.4,0.4-7.1,0.2
				c-8.3-0.6-17.1-1.5-25-4.8c-4.5-1.8-7.5-4.1-9.4-6.8c-1.8-2.8-3.9-6.4-3.2-12c-2.8,3.7-2.6,9.4,0.3,13.9
				c-10,3.6-20.7,5.8-31.4,6.1c2.2-2.2,4.2-4.8,5.7-8c2-4.5,0.9-9.1-2.8-10.3c1.9,3.1,0.4,7.2-0.3,8.8c-3,6.6-8.9,10.6-13.4,12.9
				c-7.5,3.8-16.7,6.3-25.8,7.1c-2,0.2-4.2,0.3-5.8-0.6c-0.8-0.4-1.4-1.2-1.6-2.1c-0.1-0.3-0.1-0.6,0-0.9c0.2-0.3,0.3-0.6,0.4-0.9
				c0.3-0.8-0.1-1.7-0.9-2.1c-0.8-0.4-1.7-0.1-2.2,0.7c-0.2,0.2-0.3,0.5-0.4,0.8c-0.2,0.2-0.4,0.3-0.6,0.4c-0.6,0.2-1.2,0.2-1.7,0
				c-1.2-0.6-1.8-2.1-1.8-3.4c0-1.7,0.7-3.5,1.4-4.9c4.4-8.9,13.1-19.5,27.5-22.5c-13.7-1.9-26,11.8-30.6,20.9
				c-0.4,0.8-0.8,1.7-1.1,2.6c-9.3,9.4-21.5,9.2-34.5,8.8c-4.5-0.1-9.1-0.2-13.5,0.1c-16.2,1.2-33-0.7-48.5-5.5
				c-12.2-3.8-19.7-8.8-23.8-15.6c-4.1-6.9-4-15.5-3.5-22.1c0.6-8.7-2.2-15.2-5.5-22.8l-0.7-1.7c-4.3-10.1-5.3-21.6-3.1-30.5
				c-2.3,3.8-3.6,10.3-3.3,17.3c-3.8,3.7-10.4,4.3-14.8,1.4c-1.2-0.8-2.2-1.8-3.4-2.9c-1.2-1.1-2.4-2.3-3.9-3.3
				c-0.9-0.6-1.9-1.1-2.8-1.6c-1.1-0.6-2.2-1.1-3-1.8c-3-2.3-4.3-6.4-5.5-10.3l-0.4-1.2c-1.1-3.3-2.8-7.6-6.2-10.2
				c1.4-0.7,2.8-1.6,4.1-2.4c4.7-2.9,10.6-7.5,16.8-8.9c-7-1.3-13.7,2.9-18.6,6c-4.9,3.1-10.7,6.3-16.1,4.8
				c-1.6-0.5-3.2-1.7-3.8-3.2c-0.3-0.8-0.4-1.5,0-2.1c0.8-1.5,2.8-1.8,5.8-2.1c0.9-0.1,1.8-0.2,2.7-0.3c6.8-1.2,11.3-6.8,15.6-12.9
				c3.5-5,7.8-10.4,13.5-11.2c3.9-0.5,8,1.2,11.6,2.7l20.8,8.8c-4,8-6.6,16.9-7.4,26.5c6.2-28.5,27.1-52.8,53.3-61.8
				c29.4-10.1,61.8-5.8,82.8,11.1c-1.8,1.3-3.8,2.3-6,2.5c6.4,0.9,11.4-2.1,15.8-8.2c1.9-2.6,3.5-5.5,5-8.3c1.3-2.4,2.7-4.8,4.2-7.1
				c2.6-3.9,7-8.7,12.8-9.7c7.5-1.3,14.9,4.2,19.8,8.4l1.6,1.4c5.7,5,11.6,10.2,19.4,11.2c0.8,0.1,2.2,0.3,2.3,0.7
				c0.1,0.3-0.5,1.1-1.5,1.7c-4.1,2.2-9.3,2.3-13.4,0.1c-1.6-0.9-3-2-4.5-3.2c-1.4-1.1-2.8-2.3-4.4-3.2c-3.7-2.2-9-3-12.4,0.2
				c5.2-1.8,8.1,1.3,10.7,2.8c1.4,0.8,2.7,1.9,4,2.9c1.6,1.3,3.2,2.6,5.1,3.6c0.1,0.1,0.3,0.1,0.4,0.2c-3,4.6-3.9,10.4-2.5,15.7
				c0.2,0.8,0.5,1.6,0.7,2.3c0.9,2.8,1.8,5.5,0.5,7.3c-1.2,1.8-3.9,2.2-8.6,1.4c-0.8-0.1-1.6,0.3-1.9,1c-0.3,0.7,0,1.6,0.6,2.1
				c2.1,1.4,2.9,4.5,2,7.2c-2.6,7.8-12.6,7.7-19.2,7.5c0.6,0.6,2.5,1.3,3,1.5c0.8,0.2,1.5,0.4,2.3,0.6c0.5,0.1,1,0.2,1.5,0.2
				c0.4,0.1,0.9,0.1,1.3,0.1c7.4,9.5,10.5,22.9,8.5,36.9c-1.6,11.4-6.5,23.4-14.8,36.6c11.8-12.2,16.6-24.2,18.2-36.1
				c1.1-8,0.7-15.9-1.2-23.1c10-6.1,23.2-7.3,34.9-3c11.8,4.3,21.8,13.8,27.6,26c4.9,10.4,6.7,22.9,5.1,35.4l-3-2.4l8.3,8.8
				c3.1,3,10.5,10.4,11.6,12.3C663.3,184.8,663.5,186.9,662.7,188.3z"/>
			<path class="st5" d="M491.2,190.4c-0.5-0.2-1-0.6-1.5-0.9c-0.8-0.7-1.9-2-2.2-3.1c0-0.1-0.1,0-0.1,0c0,0.7-0.1,1.4,0,2.2
				c0.2,0.7,0.6,1.3,1,1.9c0.8,1,2.4,2.5,3.8,2.1c0.6-0.2,0.8-1,0.4-1.4C492.3,190.7,491.8,190.6,491.2,190.4z"/>
			<path class="st5" d="M516.7,93c-1.9-1.3-4-1.7-6.2-2c-1.7-0.2-3.2,1.6-3.2,3.2c0,1.9,1.5,3.1,3.2,3.2c1.7,0.2,3.5,0.6,5.2,0.9
				c1.3,0.2,3.5,0.9,4-0.9C520.1,95.5,518.1,93.9,516.7,93z"/>
			<path class="st5" d="M410.4,117.8c-1.4,1.5-2.6,3.1-3.4,5.1c-0.7,1.8-1,3.3-0.1,5c0.2,0.3,0.6,0.4,1,0.3c0.6-0.3,1.1-0.5,1.5-1
				c0.6-0.6,0.9-1.4,1.4-2.1c1-1.3,1.9-2.6,3-3.8C416.1,119.1,412.6,115.5,410.4,117.8z"/>
			<path class="st5" d="M441.6,92.7C441.6,92.7,441.5,92.6,441.6,92.7c-0.4,0.5-0.6,1.1-0.8,1.7c-0.1-0.1-0.4-0.1-0.5,0.1
				c-0.7,1.1-1.8,4.5-3.5,3.8c-1.5-0.6-2.6-5.4-2.8-6.7c-1-5-0.5-10.3,1.8-14.9c0.1-0.1-0.1-0.2-0.2-0.1c-4.3,6.1-5.1,13.5-1.9,20.3
				c0.7,1.5,2.3,5.3,4.7,4.7c0.9-0.2,1.4-1.1,1.8-2.1c0.2,1.7,0.9,3.3,2.4,4.2c0.4,0.2,0.8-0.1,0.7-0.5c-0.4-1.6-1.5-2.9-1.9-4.5
				C440.8,96.6,440.9,94.6,441.6,92.7z"/>
			<path class="st5" d="M450.4,107c0.2,0,0.5-0.3,0.4-0.6c-0.1-1.7-1.7-2.6-2.6-4c-1.1-1.6-1.7-3.7-2-5.6c0-0.2-0.4-0.2-0.4,0
				c-0.7,2.2-0.4,4.2,0.5,6.4C447.1,105,448.2,107.3,450.4,107z"/>
			<path class="st5" d="M507.3,162.1c-0.9,0.6-1.3,1.5-1.6,2.1c-1.6,3.8-4.7,6.9-8.4,8.8c0,0,0-0.1,0-0.1c2.5-5.3-0.6-11.5-4.8-15.3
				c-7.5-6.8-18.6-8.9-27.7-5.3c-9.4,3.7-15.9,13.6-15.5,23.4c0.2,4.6,2.3,10.8,7.8,12.8c1.3,0.5,2.6,0.7,3.9,0.7
				c4.1,0,8-2.3,11.4-4.3c2.1-1.3,4.1-2.5,6.1-3.1c1.5-0.5,3.2-0.8,5-1.2c2.8-0.5,5.9-1.1,8.5-2.4c0.7-0.1,1.3-0.2,1.9-0.3
				c-0.5,0.9-0.8,1.8-1.1,2.9c-0.5,2.1,1.9,4.3,3.8,2.9c4.1-2.8,6.9-6.8,7.7-11.6c0.8-0.8,1.5-1.6,2.2-2.5c0.3-0.3,3-4.9,2.6-4.9
				c1.5,0.2,3,0.3,4.6,0.4C511.9,163.7,509.9,160.6,507.3,162.1z M494.3,171.5c-1.9,4-6.5,4.9-11.4,5.8c-1.8,0.4-3.8,0.7-5.4,1.3
				c-2.3,0.8-4.6,2.1-6.8,3.4c-4.2,2.5-8.2,4.9-12.3,3.4c-3.6-1.3-5.4-5.8-5.5-9.7c-0.3-8.4,5.3-16.9,13.4-20.1
				c2.6-1,5.3-1.5,8.1-1.5c5.8,0,11.6,2.1,16,6.1C493.5,163.1,496,167.8,494.3,171.5z"/>
			<path class="st5" d="M464.3,175.3C464.3,175.3,464.2,175.3,464.3,175.3C464.2,175.2,464.2,175.2,464.3,175.3
				c0.2-1.2,0.8-2.4,0.6-3.6c0,0,0-0.1-0.1-0.1c-1.2,0.4-2,1.9-2.6,3c-0.8,1.5-1.4,3.1-1.8,4.7c-0.3,1.3,1,3,2.4,2.4
				C465.4,180.7,466.8,177.2,464.3,175.3z"/>
			<path class="st5" d="M485.3,166.4c-1.8-0.7-3.4-0.8-5.3-0.6c-0.5,0.1-0.4,0.8,0,0.9c0.7,0.1,1.4,0.4,2,0.6c0,0.1-0.1,0.3-0.1,0.4
				c-0.1,3.2,6.5,5.5,6.7,1.7C488.8,167.8,486.5,166.9,485.3,166.4z"/>
			<path class="st5" d="M375.6,82.1c3.6,1,7,2.8,10.1,4.9c2.5,1.7,4.8,3.3,7.9,3.8c1.2,0.2,1.6-1.6,0.5-1.8c-3.8-0.5-6.7-3-10-4.8
				c-2.7-1.4-5.4-2-8.4-2.3C375.5,82,375.5,82.1,375.6,82.1L375.6,82.1z"/>
		</g>
	</g>
	<g>
		<path class="st0" d="M420.9,150.7c0.8,2.8-0.2,5.5-2.3,6.1c-2.1,0.6-4.4-1.2-5.2-4c-0.8-2.8,0.2-5.5,2.3-6.1
			C417.7,146.1,420.1,147.9,420.9,150.7z"/>
		<path class="st0" d="M507.3,124.2c0.8,2.9-0.6,5.9-3.3,6.7c-2.7,0.8-5.5-0.9-6.4-3.8c-0.8-2.9,0.6-5.9,3.3-6.7
			C503.7,119.5,506.5,121.3,507.3,124.2z"/>
	</g>
</g>
<g>
	<path class="st6" d="M29.1,83.9h3.4c4.1,0,7,2.2,7,7.3v0.1c0,4.9-2.7,7.2-6.5,7.5h0v6.8h-3.8V83.9z M32.9,95.2
		c1.6-0.1,2.8-1.2,2.8-3.9v-0.1c0-2.7-1-3.9-2.7-3.9h-0.1L32.9,95.2L32.9,95.2z"/>
	<path class="st6" d="M42.1,83.8h3.7v3.6h-3.7V83.8z M42.2,89h3.6v16.5h-3.6V89z"/>
	<path class="st6" d="M49.5,109.1v-3.4c1,0.4,2.3,0.7,3.1,0.7c1.6,0,2.7-0.7,2.7-2.6v-1.6c-0.5,1-1.3,2.4-2.9,2.4
		c-2,0-3.5-2-3.5-7.8v-0.2c0-5.9,1.5-7.8,3.5-7.8c1.6,0,2.4,1.3,2.9,2.3v-2h3.6v15.1c0,4-2.3,5.5-5.8,5.5
		C51.6,109.6,50.7,109.4,49.5,109.1z M55.3,96.6L55.3,96.6c0-3-0.6-4.5-1.5-4.5s-1.4,1.5-1.4,4.4v0.1c0,3,0.5,4.4,1.4,4.4
		S55.3,99.6,55.3,96.6z"/>
	<path class="st6" d="M62.6,109.1v-3.4c1,0.4,2.3,0.7,3.1,0.7c1.6,0,2.7-0.7,2.7-2.6v-1.6c-0.5,1-1.3,2.4-2.9,2.4
		c-2,0-3.5-2-3.5-7.8v-0.2c0-5.9,1.5-7.8,3.5-7.8c1.6,0,2.4,1.3,2.9,2.3v-2H72v15.1c0,4-2.3,5.5-5.8,5.5
		C64.7,109.6,63.8,109.4,62.6,109.1z M68.4,96.6L68.4,96.6c0-3-0.6-4.5-1.5-4.5s-1.4,1.5-1.4,4.4v0.1c0,3,0.5,4.4,1.4,4.4
		S68.4,99.6,68.4,96.6z"/>
	<path class="st6" d="M78,104.9l-3.4-16h3.6l1.6,9.8l1.7-9.8h3.6l-4.6,20.5H77L78,104.9z"/>
	<path class="st6" d="M93.5,97.8v-1c0-5.3,2.2-8.1,5.1-8.1s5.1,2.7,5.1,8.1v1c0,5.3-2.2,8.1-5.1,8.1S93.5,103.1,93.5,97.8z
		 M100.1,97.8v-1.1c0-3.3-0.6-4.8-1.5-4.8c-0.9,0-1.5,1.5-1.5,4.8v1.1c0,3.2,0.6,4.8,1.5,4.8C99.5,102.6,100.1,101,100.1,97.8z"/>
	<path class="st6" d="M107.1,91.9h-1v-3h1v-1.2c0-2.8,1.6-4.1,4.2-4.1c0.6,0,1,0,1.4,0.1v3c-0.2,0-0.2,0-0.4,0
		c-0.9,0-1.5,0.5-1.5,1.5V89h1.9v3h-1.9v13.6h-3.6V91.9z"/>
	<path class="st6" d="M121.3,83.9h3.8v21.6h-3.8V83.9z"/>
	<path class="st6" d="M128.9,109.1v-3.4c1,0.4,2.3,0.7,3.1,0.7c1.6,0,2.7-0.7,2.7-2.6v-1.6c-0.5,1-1.3,2.4-2.9,2.4
		c-2,0-3.5-2-3.5-7.8v-0.2c0-5.9,1.5-7.8,3.5-7.8c1.6,0,2.4,1.3,2.9,2.3v-2h3.6v15.1c0,4-2.3,5.5-5.8,5.5
		C131,109.6,130.1,109.4,128.9,109.1z M134.7,96.6L134.7,96.6c0-3-0.6-4.5-1.5-4.5s-1.4,1.5-1.4,4.4v0.1c0,3,0.5,4.4,1.4,4.4
		S134.7,99.6,134.7,96.6z"/>
	<path class="st6" d="M141.6,89h3.6v2c0.6-1.3,1.5-2.3,2.9-2.3c2.1,0,3.2,1.8,3.2,4.3v12.5h-3.6V93.8c0-1.2-0.5-1.9-1.2-1.9
		s-1.3,0.7-1.3,1.9v11.7h-3.6V89z"/>
	<path class="st6" d="M154.2,97.8v-1c0-5.3,2.2-8.1,5.1-8.1s5.1,2.7,5.1,8.1v1c0,5.3-2.2,8.1-5.1,8.1S154.2,103.1,154.2,97.8z
		 M160.8,97.8v-1.1c0-3.3-0.6-4.8-1.5-4.8s-1.5,1.5-1.5,4.8v1.1c0,3.2,0.6,4.8,1.5,4.8S160.8,101,160.8,97.8z"/>
	<path class="st6" d="M167.4,89h3.6V91c0.5-1.4,1.3-2.3,2.7-2.3v4.4h-0.1c-1.7,0-2.6,1.2-2.6,3.5v8.8h-3.6V89z"/>
	<path class="st6" d="M175.5,100.9v-0.5c0-3.7,1.5-5.2,3.7-5.2c0.8,0,1.5,0.2,2.2,0.6v-1c0-1.7-0.8-2.6-2.3-2.6
		c-0.9,0-1.9,0.4-2.7,0.8v-3.5c1.1-0.5,2-0.7,3.5-0.7c3.4,0,5.2,2,5.2,5.7v11h-3.6v-1.8c-0.6,1.4-1.5,2-2.7,2
		C176.8,105.8,175.5,103.9,175.5,100.9z M181.3,101.2v-2.8c-0.3-0.2-0.8-0.3-1.1-0.3c-0.7,0-1.2,0.6-1.2,2.2v0.4
		c0,1.6,0.5,2.1,1.1,2.1C180.7,102.7,181.3,102.2,181.3,101.2z"/>
	<path class="st6" d="M188.1,89h3.6v2c0.6-1.3,1.5-2.3,2.9-2.3c2.1,0,3.2,1.8,3.2,4.3v12.5h-3.6V93.8c0-1.2-0.5-1.9-1.2-1.9
		s-1.3,0.7-1.3,1.9v11.7h-3.6V89z"/>
	<path class="st6" d="M200.7,97.8v-1c0-5.3,2.2-8.1,5.2-8.1c1,0,1.5,0.1,2.3,0.4v3.7c-0.6-0.4-1.2-0.6-1.8-0.6c-1.1,0-2,1.2-2,4.4
		v1.1c0,3.2,0.8,4.4,2,4.4c0.5,0,1.2-0.3,1.8-0.7v3.6c-0.8,0.5-1.5,0.7-2.4,0.7C202.7,105.8,200.7,103.1,200.7,97.8z"/>
	<path class="st6" d="M210.3,97.7v-0.8c0-5.3,2.3-8.1,5-8.1c2.9,0,4.7,2.9,4.7,8.3v1.9H214c0.2,2.6,1.3,3.5,2.5,3.5
		c1.1,0,1.8-0.5,2.9-1.2l0.3,3.3c-1.3,0.8-2.3,1.3-3.6,1.3C212.9,105.8,210.3,103,210.3,97.7z M216.6,96.1c0-2.8-0.4-4.1-1.3-4.1
		c-0.8,0-1.4,1.2-1.4,4.1H216.6z"/>
	<path class="st6" d="M33.6,116.8h1.5l4.7,21.7h-1.4l-1.3-6h-5.6l-1.3,6h-1.4L33.6,116.8z M36.9,131.2L34.3,119l-2.6,12.3H36.9z"/>
	<path class="st6" d="M42,122.3h1.3l3.2,14l3.3-14H51l-4,16.3h-1.1L42,122.3z"/>
	<path class="st6" d="M53.5,130.6v-0.3c0-5.1,2.2-8.2,4.6-8.2s4.6,3.1,4.6,8.2v0.3c0,5.1-2.2,8.2-4.6,8.2S53.5,135.7,53.5,130.6z
		 M61.4,130.6v-0.3c0-4.3-1.5-7-3.3-7s-3.3,2.7-3.3,7v0.3c0,4.3,1.5,7,3.3,7S61.4,134.8,61.4,130.6z"/>
	<path class="st6" d="M66.6,116.7H68v2.2h-1.4V116.7z M66.7,122.3H68v16.2h-1.3V122.3z"/>
	<path class="st6" d="M72.1,130.7v-0.6c0-5.2,2-8.1,4.2-8.1c1.6,0,2.7,1.5,3.4,3.4v-8.7H81v21.8h-1.3v-3.1c-0.6,1.9-1.8,3.4-3.4,3.4
		C74.1,138.8,72.1,135.9,72.1,130.7z M79.8,130.8V130c0-4.4-1.7-6.8-3.3-6.8c-1.7,0-3.1,2.5-3.1,6.9v0.5c0,4.4,1.4,6.9,3.1,6.9
		C78.1,137.6,79.8,135.2,79.8,130.8z"/>
	<path class="st6" d="M91.2,130.7v-0.6c0-5.2,2-8.1,4.2-8.1c1.6,0,2.7,1.5,3.4,3.4v-8.7h1.3v21.8h-1.3v-3.1
		c-0.6,1.9-1.8,3.4-3.4,3.4C93.2,138.8,91.2,135.9,91.2,130.7z M98.9,130.8V130c0-4.4-1.7-6.8-3.3-6.8c-1.7,0-3.1,2.5-3.1,6.9v0.5
		c0,4.4,1.4,6.9,3.1,6.9C97.3,137.6,98.9,135.2,98.9,130.8z"/>
	<path class="st6" d="M104,130.7v-0.3c0-5.6,2.1-8.4,4.4-8.4c2.4,0,4.2,2.9,4.2,7.9v1h-7.4c0.1,4.4,1.9,6.5,4,6.5c1,0,1.8-0.2,2.8-1
		l0.2,1.3c-1.1,0.6-1.9,0.9-3.1,0.9C106.4,138.7,104,136.1,104,130.7z M111.4,129.8c0-3.7-1.2-6.5-3-6.5c-1.7,0-3,2.3-3.1,6.5H111.4
		z"/>
	<path class="st6" d="M116.8,116.7h1.3v21.8h-1.3V116.7z"/>
	<path class="st6" d="M122.7,133.7v-11.3h1.3v11.2c0,2.7,1,4.1,2.7,4.1c1.7,0,3.1-1.8,3.1-4.4v-11h1.3v16.2h-1.3v-2.4
		c-0.6,1.4-1.5,2.6-3.3,2.6C124.2,138.8,122.7,137,122.7,133.7z"/>
	<path class="st6" d="M134.6,137.9v-1.4c1.1,0.6,2.3,0.9,3.3,0.9c1.4,0,2.5-0.9,2.5-2.4V135c0-1.1-0.6-2.3-2.6-4.1
		c-2.4-2.3-3.2-3.5-3.2-5.2v-0.1c0-2.3,1.8-3.5,3.7-3.5c1.1,0,1.8,0.2,2.7,0.5v1.4c-0.9-0.5-1.8-0.7-2.7-0.7c-1.3,0-2.3,0.9-2.3,2.3
		v0.1c0,1.2,0.6,2.1,2.6,4c2.3,2.3,3.2,3.6,3.2,5.3v0.1c0,2.3-1.9,3.7-3.8,3.7C136.6,138.7,135.7,138.4,134.6,137.9z"/>
	<path class="st6" d="M145.5,116.7h1.4v2.2h-1.4V116.7z M145.5,122.3h1.3v16.2h-1.3V122.3z"/>
	<path class="st6" d="M150.9,130.6v-0.3c0-5.1,2.2-8.2,4.6-8.2c2.4,0,4.6,3.1,4.6,8.2v0.3c0,5.1-2.2,8.2-4.6,8.2
		S150.9,135.7,150.9,130.6z M158.8,130.6v-0.3c0-4.3-1.5-7-3.3-7s-3.3,2.7-3.3,7v0.3c0,4.3,1.5,7,3.3,7S158.8,134.8,158.8,130.6z"/>
	<path class="st6" d="M163.9,122.3h1.3v2.4c0.6-1.4,1.5-2.6,3.3-2.6c2.2,0,3.7,1.8,3.7,5.1v11.3h-1.3v-11.2c0-2.7-1-4.1-2.7-4.1
		c-1.7,0-3.1,1.8-3.1,4.4v11h-1.3V122.3z"/>
	<path class="st6" d="M182.2,133.8v-0.2c0-3,1.5-5.2,4.3-5.2c1.1,0,2,0.3,2.7,0.6v-2c0-2.3-1-3.6-3.1-3.6c-1.1,0-2,0.2-3,0.7v-1.3
		c0.9-0.4,1.9-0.7,3.1-0.7c2.7,0,4.3,1.6,4.3,4.7v11.7h-1.3v-2.3c-0.6,1.6-1.7,2.6-3.3,2.6C183.7,138.8,182.2,136.7,182.2,133.8z
		 M189.1,133.5v-3.2c-0.9-0.4-1.7-0.6-2.7-0.6c-2,0-3,1.7-3,3.9v0.2c0,2.2,0.9,3.9,2.6,3.9C188,137.7,189.1,135.6,189.1,133.5z"/>
	<path class="st6" d="M194.8,122.3h1.3v2.4c0.6-1.4,1.5-2.6,3.3-2.6c2.2,0,3.7,1.8,3.7,5.1v11.3h-1.3v-11.2c0-2.7-1-4.1-2.7-4.1
		c-1.7,0-3.1,1.8-3.1,4.4v11h-1.3V122.3z"/>
	<path class="st6" d="M206.9,130.7v-0.6c0-5.2,2-8.1,4.2-8.1c1.6,0,2.7,1.5,3.4,3.4v-8.7h1.3v21.8h-1.3v-3.1
		c-0.6,1.9-1.8,3.4-3.4,3.4C208.9,138.8,206.9,135.9,206.9,130.7z M214.6,130.8V130c0-4.4-1.7-6.8-3.3-6.8c-1.7,0-3.1,2.5-3.1,6.9
		v0.5c0,4.4,1.4,6.9,3.1,6.9C213,137.6,214.6,135.2,214.6,130.8z"/>
	<path class="st6" d="M226.8,116.7h1.4v2.2h-1.4V116.7z M226.9,122.3h1.3v16.2h-1.3V122.3z"/>
	<path class="st6" d="M232.9,142v-1.3c1.2,0.5,2.6,0.8,3.6,0.8c2.2,0,3.3-1,3.3-3.3v-3.8c-0.6,1.9-1.8,3.4-3.4,3.4
		c-2.2,0-4.2-2.7-4.2-7.7v-0.3c0-4.9,2.1-7.7,4.2-7.7c1.6,0,2.7,1.5,3.4,3.4v-3.1h1.3v15.7c0,3.1-1.7,4.5-4.7,4.5
		C235.4,142.6,234.1,142.4,232.9,142z M239.9,130v-0.3c0-4.1-1.7-6.5-3.3-6.5c-1.6,0-3.1,2.3-3.1,6.5v0.2c0,4.2,1.5,6.5,3.1,6.5
		C238.2,136.5,239.9,134.2,239.9,130z"/>
	<path class="st6" d="M245.7,122.3h1.3v2.4c0.6-1.4,1.5-2.6,3.3-2.6c2.2,0,3.7,1.8,3.7,5.1v11.3h-1.3v-11.2c0-2.7-1-4.1-2.7-4.1
		c-1.7,0-3.1,1.8-3.1,4.4v11h-1.3V122.3z"/>
	<path class="st6" d="M257.7,130.6v-0.3c0-5.1,2.2-8.2,4.6-8.2s4.6,3.1,4.6,8.2v0.3c0,5.1-2.2,8.2-4.6,8.2
		C259.9,138.8,257.7,135.7,257.7,130.6z M265.6,130.6v-0.3c0-4.3-1.5-7-3.3-7c-1.8,0-3.3,2.7-3.3,7v0.3c0,4.3,1.5,7,3.3,7
		C264.2,137.6,265.6,134.8,265.6,130.6z"/>
	<path class="st6" d="M270.8,122.3h1.3v2.4c0.6-1.5,1.9-2.7,3.8-2.6v1.4h-0.1c-2,0-3.7,1.3-3.7,4.1v10.9h-1.3V122.3z"/>
	<path class="st6" d="M277.9,133.8v-0.2c0-3,1.5-5.2,4.3-5.2c1.1,0,2,0.3,2.7,0.6v-2c0-2.3-1-3.6-3.1-3.6c-1.1,0-2,0.2-3,0.7v-1.3
		c0.9-0.4,1.9-0.7,3.1-0.7c2.7,0,4.3,1.6,4.3,4.7v11.7h-1.3v-2.3c-0.6,1.6-1.7,2.6-3.3,2.6C279.4,138.8,277.9,136.7,277.9,133.8z
		 M284.8,133.5v-3.2c-0.9-0.4-1.7-0.6-2.7-0.6c-2,0-3,1.7-3,3.9v0.2c0,2.2,0.9,3.9,2.6,3.9C283.7,137.7,284.8,135.6,284.8,133.5z"/>
	<path class="st6" d="M290.5,122.3h1.3v2.4c0.6-1.4,1.5-2.6,3.3-2.6c2.2,0,3.7,1.8,3.7,5.1v11.3h-1.3v-11.2c0-2.7-1-4.1-2.7-4.1
		c-1.7,0-3.1,1.8-3.1,4.4v11h-1.3V122.3z"/>
	<path class="st6" d="M302.6,130.6v-0.3c0-5.6,2.5-8.2,4.9-8.2c0.8,0,1.5,0.2,1.9,0.6v1.4c-0.6-0.4-1.2-0.7-2-0.7
		c-1.7,0-3.6,2.1-3.6,6.9v0.4c0,4.9,1.9,6.8,3.7,6.8c0.7,0,1.3-0.3,1.9-0.7v1.4c-0.5,0.4-1.1,0.6-1.9,0.6
		C305,138.7,302.6,136.3,302.6,130.6z"/>
	<path class="st6" d="M312.1,130.7v-0.3c0-5.6,2.1-8.4,4.4-8.4c2.4,0,4.2,2.9,4.2,7.9v1h-7.4c0.1,4.4,1.9,6.5,4,6.5
		c1,0,1.8-0.2,2.8-1l0.2,1.3c-1.1,0.6-1.9,0.9-3.1,0.9C314.6,138.7,312.1,136.1,312.1,130.7z M319.6,129.8c0-3.7-1.2-6.5-3-6.5
		c-1.7,0-3,2.3-3.1,6.5H319.6z"/>
	<path class="st6" d="M29,163.6v-0.3c0-5.1,2.2-8.2,4.6-8.2s4.6,3.1,4.6,8.2v0.3c0,5.1-2.2,8.2-4.6,8.2S29,168.7,29,163.6z
		 M36.9,163.6v-0.3c0-4.3-1.5-7-3.3-7s-3.3,2.7-3.3,7v0.3c0,4.3,1.5,7,3.3,7S36.9,167.8,36.9,163.6z"/>
	<path class="st6" d="M42,155.3h1.3v2.4c0.6-1.4,1.5-2.6,3.3-2.6c2.2,0,3.7,1.8,3.7,5.1v11.3h-1.3v-11.2c0-2.7-1-4.1-2.7-4.1
		c-1.7,0-3.1,1.8-3.1,4.4v11H42V155.3z"/>
	<path class="st6" d="M61.6,168.8v-12.3H60v-1.2h1.5v-4.6h1.3v4.6h2.6v1.2h-2.6v12.1c0,1.4,0.6,1.8,1.7,1.8c0.3,0,0.7-0.1,1-0.2v1.2
		c-0.3,0.1-0.8,0.2-1.1,0.2C62.7,171.7,61.6,170.9,61.6,168.8z"/>
	<path class="st6" d="M69.3,149.7h1.3v8c0.6-1.4,1.5-2.6,3.3-2.6c2.2,0,3.7,1.8,3.7,5.1v11.3h-1.3v-11.2c0-2.7-1-4.1-2.7-4.1
		c-1.7,0-3.1,1.8-3.1,4.4v11h-1.3V149.7z"/>
	<path class="st6" d="M81.3,163.7v-0.3c0-5.6,2.1-8.4,4.4-8.4c2.4,0,4.2,2.9,4.2,7.9v1h-7.4c0.1,4.4,1.9,6.5,4,6.5
		c1,0,1.8-0.2,2.8-1l0.2,1.3c-1.1,0.6-1.9,0.9-3.1,0.9C83.8,171.8,81.3,169.1,81.3,163.7z M88.7,162.8c0-3.7-1.2-6.5-3-6.5
		c-1.7,0-3,2.3-3.1,6.5H88.7z"/>
	<path class="st6" d="M100.3,155.3h1.3v3.1c0.6-1.9,1.8-3.4,3.4-3.4c2.2,0,4.2,2.8,4.2,8.1v0.6c0,5.2-2,8.1-4.2,8.1
		c-1.6,0-2.7-1.5-3.4-3.4v7.1h-1.3V155.3z M107.9,163.7v-0.5c0-4.4-1.4-6.9-3.1-6.9c-1.6,0-3.3,2.5-3.3,6.8v0.8
		c0,4.3,1.7,6.8,3.3,6.8C106.5,170.7,107.9,168.2,107.9,163.7z"/>
	<path class="st6" d="M112.3,166.8v-0.2c0-3,1.5-5.2,4.3-5.2c1.1,0,2,0.3,2.7,0.6v-2c0-2.3-1-3.6-3.1-3.6c-1.1,0-2,0.2-3,0.7v-1.3
		c0.9-0.4,1.9-0.7,3.1-0.7c2.7,0,4.3,1.6,4.3,4.7v11.7h-1.3v-2.3c-0.6,1.6-1.7,2.6-3.3,2.6C113.8,171.8,112.3,169.7,112.3,166.8z
		 M119.3,166.5v-3.2c-0.9-0.4-1.7-0.6-2.7-0.6c-2,0-3,1.7-3,3.9v0.2c0,2.2,0.9,3.9,2.6,3.9C118.1,170.7,119.3,168.6,119.3,166.5z"/>
	<path class="st6" d="M125.3,168.8v-12.3h-1.5v-1.2h1.5v-4.6h1.3v4.6h2.6v1.2h-2.6v12.1c0,1.4,0.6,1.8,1.7,1.8c0.3,0,0.7-0.1,1-0.2
		v1.2c-0.3,0.1-0.8,0.2-1.1,0.2C126.4,171.7,125.3,170.9,125.3,168.8z"/>
	<path class="st6" d="M133,149.7h1.3v8c0.6-1.4,1.5-2.6,3.3-2.6c2.2,0,3.7,1.8,3.7,5.1v11.3H140v-11.2c0-2.7-1-4.1-2.7-4.1
		c-1.7,0-3.1,1.8-3.1,4.4v11H133V149.7z"/>
	<path class="st6" d="M152.5,168.8v-12.3H151v-1.2h1.5v-4.6h1.3v4.6h2.6v1.2h-2.6v12.1c0,1.4,0.6,1.8,1.7,1.8c0.3,0,0.7-0.1,1-0.2
		v1.2c-0.3,0.1-0.8,0.2-1.1,0.2C153.6,171.7,152.5,170.9,152.5,168.8z"/>
	<path class="st6" d="M159.2,163.6v-0.3c0-5.1,2.2-8.2,4.6-8.2s4.6,3.1,4.6,8.2v0.3c0,5.1-2.2,8.2-4.6,8.2
		C161.4,171.8,159.2,168.7,159.2,163.6z M167.1,163.6v-0.3c0-4.3-1.5-7-3.3-7s-3.3,2.7-3.3,7v0.3c0,4.3,1.5,7,3.3,7
		S167.1,167.8,167.1,163.6z"/>
	<path class="st6" d="M179.1,168.8v-12.3h-1.5v-1.2h1.5v-4.6h1.3v4.6h2.6v1.2h-2.6v12.1c0,1.4,0.6,1.8,1.7,1.8c0.3,0,0.7-0.1,1-0.2
		v1.2c-0.3,0.1-0.8,0.2-1.1,0.2C180.2,171.7,179.1,170.9,179.1,168.8z"/>
	<path class="st6" d="M186.8,155.3h1.3v2.4c0.6-1.5,1.9-2.7,3.8-2.6v1.4h-0.1c-2,0-3.7,1.3-3.7,4.1v10.9h-1.3V155.3z"/>
	<path class="st6" d="M195.1,166.7v-11.3h1.3v11.2c0,2.7,1,4.1,2.7,4.1c1.7,0,3.1-1.8,3.1-4.4v-11h1.3v16.2h-1.3v-2.4
		c-0.6,1.4-1.5,2.6-3.3,2.6C196.6,171.8,195.1,170,195.1,166.7z"/>
	<path class="st6" d="M208.4,168.8v-12.3h-1.5v-1.2h1.5v-4.6h1.3v4.6h2.6v1.2h-2.6v12.1c0,1.4,0.6,1.8,1.7,1.8c0.3,0,0.7-0.1,1-0.2
		v1.2c-0.3,0.1-0.8,0.2-1.1,0.2C209.5,171.7,208.4,170.9,208.4,168.8z"/>
	<path class="st6" d="M216.1,149.7h1.3v8c0.6-1.4,1.5-2.6,3.3-2.6c2.2,0,3.7,1.8,3.7,5.1v11.3h-1.3v-11.2c0-2.7-1-4.1-2.7-4.1
		c-1.7,0-3.1,1.8-3.1,4.4v11h-1.3V149.7z"/>
	<path class="st6" d="M228.5,169h1.9v2.5h-1.9V169z"/>
</g>
</svg>
