<?xml version="1.0" encoding="utf-8"?>
<!-- Generator: Adobe Illustrator 22.1.0, SVG Export Plug-In . SVG Version: 6.00 Build 0)  -->
<svg version="1.1" id="Layer_1" xmlns="http://www.w3.org/2000/svg" xmlns:xlink="http://www.w3.org/1999/xlink" x="0px" y="0px"
	 viewBox="0 0 684 230.8" style="enable-background:new 0 0 684 230.8;" xml:space="preserve">
<style type="text/css">
	.st0{fill:#FFFFFF;}
	.st1{fill:none;stroke:#FFFFFF;stroke-width:22;stroke-miterlimit:10;}
	.st2{fill:#F9B4AC;}
	.st3{opacity:0.8;}
	.st4{fill:#F48289;}
	.st5{fill:#961A1E;}
	.st6{fill:#333333;}
</style>
<path class="st0" d="M446.5,197H44.3c-21.9,0-39.6-17.7-39.6-39.6v-51.8C4.7,83.8,22.4,66,44.3,66h402.2c21.9,0,39.6,17.7,39.6,39.6
	v51.8C486.1,179.3,468.3,197,446.5,197z"/>
<path class="st1" d="M666.9,183.7c-1.4-2.4-3.5-4.2-5.4-5.8l-11.3-8.8c2.1-13.8,0.3-27.8-5.1-39.3c-3.5-7.5-8.6-14.1-14.7-19.2
	c0.3-1.1,1.1-2.1,2.1-2.7c0.4,1.1,1,2.1,1.6,3c2.2,3.3,5.6,5.2,8.9,5.2c0.4,0,0.8,0,1.1-0.1c2.2-0.3,4.2-1.6,5.6-3.6
	c1.5-2.1,2.1-4.9,1.7-7.3c-0.7-3.7-3.7-6.9-7.5-8.4c1-2.5,3.1-5.1,6.1-7.7c0.5-0.4,0.7-1.2,0.5-1.8c-0.2-0.7-0.8-1.1-1.5-1.2
	c-6.3-0.6-12.3,2.3-15.4,7.5c-0.2,0.3-0.3,0.5-0.4,0.8c-3.2-0.2-6.5,0.6-9.3,2.4c-2.4,1.5-4.4,3.7-5.8,6.3c-0.8-0.4-1.7-0.7-2.5-1
	c-12.4-4.5-26.3-3.4-37.1,2.9c-1.4-4-3.2-7.7-5.5-11.1c0.8-0.1,1.5-0.3,2.3-0.6c3.5-1.2,6.7-4.5,7.9-8.1c0.9-2.6,0.6-5.3-0.4-7.6
	c0.1,0,0.1,0,0.1,0c2.9,0,5.9-0.7,7.6-3.3c2.2-3.3,1-7-0.1-10.3c-0.2-0.7-0.5-1.5-0.7-2.2c-1.2-4.6-0.3-9.7,2.5-13.6
	c4.3,1.1,9.1,0.6,12.9-1.5c2.3-1.2,4.1-3.6,3-6.1c-0.9-2.2-3.4-2.6-5.1-2.8c-6.6-0.9-12.2-5.7-17.5-10.4L584,26
	c-5.4-4.7-13.7-10.7-22.6-9.2c-7,1.2-12,6.7-15,11.1c-1.6,2.4-3,4.9-4.4,7.3c-1.5,2.7-3,5.4-4.8,7.9c-1,1.4-2.5,3.5-4.4,5.4
	c-21.8-17.9-55.8-22.6-86.5-12c-18,6.2-33.8,18.6-43.2,35.5L382,63.2c-3.8-1.6-8.5-3.6-13.4-2.9c-7.1,1-11.9,7-15.9,12.6
	c-3.9,5.5-7.9,10.6-13.4,11.5c-0.8,0.1-1.6,0.2-2.5,0.3c-3.1,0.3-6.9,0.7-8.6,4c-0.8,1.6-0.8,3.4-0.1,5.1c1,2.4,3.4,4.4,6,5.1
	c1.3,0.3,2.5,0.5,3.8,0.5c2.4,0,4.8-0.6,7.2-1.6c2.8,1.2,4.9,4.2,6.6,9.5l0.4,1.2c1.3,4.2,2.9,9,6.7,12c1.1,0.9,2.4,1.5,3.6,2.1
	c0.9,0.4,1.7,0.9,2.4,1.4c1.2,0.8,2.3,1.8,3.4,2.9c1.2,1.1,2.4,2.3,3.8,3.3c2.5,1.7,5.4,2.5,8.4,2.5c3.1,0,6.2-0.9,8.7-2.6
	c0.5,3.5,1.4,7.1,2.8,10.4l0.7,1.7c3.1,7.1,5.8,13.3,5.2,21.1c-0.5,7.2-0.5,16.4,4,24.1c5.9,10.1,17.5,14.6,25.7,17.2
	c13,4,26.3,6.1,39.8,6.1c3.3,0,6.6-0.1,9.9-0.4c4.3-0.3,8.8-0.2,13.2-0.1c11.9,0.3,24.2,0.6,34-7.2c0.4,2.3,1.7,4.3,3.6,5.2
	c1.2,0.6,2.5,0.7,3.8,0.3c0.5,1.5,1.7,2.9,3.1,3.6c1.7,0.9,3.5,1.2,5.3,1.2c0.8,0,1.7-0.1,2.5-0.1c9.6-0.8,19.2-3.5,27.1-7.5
	c1.6-0.8,3.3-1.8,5.1-3.1c0.2,0,0.3,0,0.5,0c12.7,0,25.6-2.4,37.4-6.8c2.1,2.1,5,3.9,8.6,5.3c8.5,3.5,17.5,4.4,26.1,5.1
	c1.2,0.1,2.5,0.2,3.8,0.2c1.4,0,2.9-0.1,4.4-0.5c3.3-0.8,5.9-2.8,7.1-5.4c0.8-1.7,0.8-3.6,0.3-5.3c1.7-0.5,3.2-1.6,4-3.1
	C668.8,189.9,668.6,186.6,666.9,183.7z"/>
<g id="pig_1_">
	<g>
		<path class="st2" d="M540.5,212.9c-2.1,0-3.7-0.4-5-1.1c-1.3-0.7-2.3-1.9-2.8-3.3l-0.2-0.5L532,208c-0.4,0.1-0.9,0.2-1.3,0.2
			c-0.7,0-1.5-0.2-2.1-0.5c-1.7-0.8-2.9-2.6-3.3-4.8l-0.2-0.9l-0.8,0.6c-8,6.3-17.7,7.2-26.9,7.2c-2.3,0-4.6-0.1-6.8-0.1
			c-2.3-0.1-4.5-0.1-6.7-0.1c-2.5,0-4.6,0.1-6.5,0.2c-3.3,0.2-6.6,0.4-9.9,0.4c-13.4,0-26.8-2-39.7-6c-8.1-2.5-19.6-7-25.4-16.9
			c-4.5-7.6-4.4-16.7-3.9-23.8c0.6-8-2.1-14.2-5.2-21.4l-0.7-1.7c-1.3-3.1-2.3-6.5-2.8-10.3l-0.1-0.9l-0.8,0.5
			c-2.4,1.6-5.4,2.5-8.4,2.5c-2.9,0-5.7-0.8-8-2.4c-1.4-0.9-2.6-2.1-3.8-3.2c-1.2-1.1-2.3-2.1-3.5-3c-0.8-0.5-1.6-0.9-2.5-1.4
			c-1.2-0.6-2.4-1.2-3.5-2.1c-3.7-2.9-5.2-7.5-6.5-11.7l-0.4-1.2c-1.8-5.5-4-8.6-6.9-9.9l-0.2-0.1l-0.2,0.1c-2.6,1-4.8,1.5-7,1.5
			c-1.2,0-2.5-0.2-3.6-0.5c-2.5-0.7-4.7-2.6-5.7-4.8c-0.7-1.6-0.7-3.2,0-4.6c1.5-3,5.2-3.4,8.1-3.7c0.9-0.1,1.7-0.2,2.5-0.3
			c5.8-1,9.8-6.2,13.8-11.8c3.9-5.5,8.6-11.4,15.5-12.4c0.6-0.1,1.3-0.1,1.9-0.1c4,0,8,1.7,11.2,3l21.6,9.1l0.3-0.4
			c9.2-16.4,24.4-28.9,42.9-35.2c10.7-3.7,21.8-5.5,33-5.5c20.4,0,39.2,6.2,53,17.5l0.4,0.3l0.4-0.4c1.8-1.9,3.2-3.8,4.3-5.3
			l0.2-0.2c1.8-2.5,3.3-5.3,4.8-8c1.4-2.5,2.7-5,4.3-7.3c2.9-4.3,7.9-9.7,14.7-10.9c0.9-0.2,1.9-0.2,2.8-0.2
			c7.7,0,14.7,5.3,19.3,9.3l1.6,1.4c5.4,4.7,11,9.6,17.8,10.5c1.6,0.2,3.8,0.5,4.7,2.4c0.9,2.1-0.8,4.2-2.8,5.3
			c-2.4,1.3-5.2,2-8.1,2c-1.5,0-3-0.2-4.4-0.6l-0.4-0.1l-0.2,0.3c-2.8,4-3.8,9.4-2.5,14.1c0.2,0.7,0.4,1.4,0.7,2.1
			c1.1,3.3,2.2,6.9,0.2,9.9c-1.4,2.1-3.7,3.1-7.2,3.1l-1.1,0l0.4,0.8c1,2.2,1.2,4.8,0.4,7.2c-1.1,3.4-4.2,6.6-7.5,7.7
			c-0.7,0.2-1.4,0.4-2.2,0.5l-0.9,0.1l0.5,0.7c2.2,3.3,4.1,6.9,5.4,10.9l0.2,0.7l0.6-0.3c6.3-3.6,13.6-5.5,21.2-5.5
			c5.3,0,10.5,0.9,15.4,2.7c0.8,0.3,1.6,0.6,2.5,1l0.5,0.2l0.2-0.5c1.3-2.5,3.2-4.6,5.6-6c2.4-1.5,5.3-2.3,8.2-2.3
			c0.3,0,0.5,0,0.8,0l0.4,0l0.2-0.3c0.1-0.3,0.3-0.5,0.4-0.8c2.7-4.5,7.7-7.3,13.2-7.3c0.5,0,1.1,0,1.7,0.1c0.5,0,0.8,0.4,1,0.8
			c0.1,0.4,0,0.9-0.3,1.2c-3.1,2.7-5.2,5.4-6.2,7.9l-0.2,0.5l0.5,0.2c3.7,1.4,6.5,4.5,7.2,8c0.4,2.3-0.1,4.9-1.6,6.9
			c-1.3,1.8-3.2,3-5.2,3.3c-0.3,0-0.7,0.1-1.1,0.1c-3.1,0-6.3-1.9-8.4-5c-0.6-0.9-1.1-1.9-1.5-2.9l-0.3-0.6l-0.6,0.4
			c-1.1,0.7-2,1.8-2.4,3l-0.1,0.4l0.3,0.2c6.1,5.1,11.1,11.6,14.5,19c5.3,11.4,7.2,25.2,5.1,39l-0.1,0.3l11.6,9
			c1.8,1.5,3.9,3.3,5.2,5.6c1.6,2.7,1.8,5.8,0.5,8.1c-0.7,1.3-2.1,2.4-3.7,2.8l-0.6,0.2l0.2,0.6c0.5,1.6,0.4,3.4-0.3,4.9
			c-1.1,2.5-3.6,4.3-6.7,5.1c-1.2,0.3-2.6,0.4-4.2,0.4c-1.3,0-2.6-0.1-3.8-0.2c-8.5-0.7-17.5-1.6-25.9-5c-3.6-1.5-6.3-3.2-8.4-5.2
			l-0.3-0.3l-0.3,0.1c-11.8,4.4-24.7,6.8-37.2,6.8l-0.6,0l-0.2,0.1c-1.6,1.1-3.2,2.1-5,3c-7.8,4-17.4,6.6-26.9,7.4
			C542.2,212.8,541.4,212.9,540.5,212.9z"/>
		<g class="st3">
			<path class="st4" d="M391.3,116.9c1.9-14.1,5.8-28,11.6-41c0.7-1.7,1.5-3.5,1.7-5.3c-0.4,0.6-0.7,1.2-1.1,1.8l-0.3,0.4l-19.7-8.3
				c-0.9-0.1-1.6-0.2-1.7-0.3c2,2.9,4,6,4.5,9.5c0.5,3.5-0.9,7.6-4.2,8.9c-1.7,0.7-3.6,0.6-5.4,0.6c-8.7-0.1-17.3,2.3-24.7,6.8
				c-4.5,2.8-8.7,6.3-13.7,8.1c-1,0.3-1.9,0.5-2.8,0.6c0.7,0.1,1.5,0.2,2.3,0.2c2.2,0,4.4-0.5,7-1.5l0.2-0.1l0.2,0.1
				c3,1.3,5.2,4.4,6.9,9.9l0.4,1.2c1.3,4.1,2.8,8.8,6.5,11.7c1.1,0.9,2.3,1.5,3.5,2.1c0.9,0.5,1.7,0.9,2.5,1.4
				c1.2,0.8,2.3,1.9,3.5,3c1.2,1.1,2.4,2.3,3.8,3.2c2.3,1.5,5.1,2.4,8,2.4c3,0,6-0.9,8.4-2.5l0.8-0.5l0.1,0.9
				c0.2,1.1,0.4,2.3,0.6,3.4c0-2.1-0.2-4.3-0.1-6.1C390.5,123.8,390.9,120.3,391.3,116.9z"/>
			<path class="st4" d="M582.9,83.8c0.4-2,0.1-4.1-0.7-5.9l-0.4-0.8l1.1,0c3.4,0,5.8-1,7.2-3.1c2.1-3,0.9-6.6-0.2-9.9
				c-0.2-0.7-0.5-1.4-0.7-2.1c-0.8-3-0.5-5.8,0.1-8.8c0.1-0.6,1.8-7,2.3-6.5c-6.5-5.1-14.8-12.2-23.8-9c-4.1,1.5-6.9,5.1-9,8.9
				c-2,3.8-3.5,7.9-5.9,11.5c-2.4,3.6-6.1,6.7-10.4,6.9c2.9-0.2,5.8,1.2,7.5,3.5c1.7,2.3,2.1,5.5,1,8.2c4.4-0.1,7.4,4.4,11,7
				C568,87.7,576.2,86.6,582.9,83.8z"/>
			<path class="st4" d="M642.6,126.2c-3.3-5.8-7.5-10.9-12.5-15.1l-0.3-0.2l0.1-0.4c0.4-1.2,1.2-2.3,2.4-3l0.6-0.4l0.3,0.6
				c0.3,0.7,0.7,1.4,1,2.1c-0.9-2.3-1.1-4.9-1.2-7.4c0-2.5,0-5-0.4-7.5c-0.1,0-0.2,0-0.2,0c-2.9,0-5.8,0.8-8.2,2.3
				c-2.3,1.4-4.3,3.6-5.6,6l-0.2,0.5l-0.5-0.2c-0.9-0.4-1.7-0.7-2.5-1c-0.1,0-0.2-0.1-0.2-0.1c0,0-0.1,0-0.1,0.1
				C625.5,108.7,634.9,116.8,642.6,126.2z"/>
			<path class="st4" d="M662.6,200.5c0.7-1.5,0.8-3.3,0.3-4.9l-0.2-0.6l0.6-0.2c1.5-0.4,2.9-1.5,3.7-2.8c1.3-2.3,1.1-5.4-0.5-8.1
				c-1.3-2.3-3.4-4.1-5.2-5.6l-11.6-9l0.1-0.3c0.7-4.5,0.9-9.1,0.8-13.5c-3.5,2.6-8.9,3-13.5,2.7c-15.5-1.1-31.6-6.3-41.5-18.2
				c-9.1-10.9-11.2-28.2-3-39.4c-4.7,0.8-14.1,2.7-15.6,8.3c-0.6,2.2-0.1,4.5,0.1,6.8c0.9,8.1-1.2,15-3.9,22.5
				c-2.2,6.3-3.3,10.9-8.2,16.1c-13.1,14.1-35.2,19-53.1,11.8c-9.8,10.5-24.1,15.4-37.7,20c-3.8,1.3-7.6,2.5-11.6,2.4
				c-4-0.1-8.1-1.8-10-5.3c-5.5,4.3-12.2,6.8-19.1,7.6c-6,0.7-12.2,0.1-18-1.7c-2.9-0.9-5.7-2.2-8.3-3.7c-1.9-1.2-5.1-5-7-5.5
				c-0.1,0-0.3-0.1-0.4-0.1c0.6,2.6,1.6,5.2,3,7.6c5.8,9.9,17.3,14.4,25.4,16.9c12.9,4,26.2,6,39.7,6c3.3,0,6.6-0.1,9.9-0.4
				c1.9-0.1,4-0.2,6.5-0.2c2.2,0,4.5,0.1,6.7,0.1c2.2,0.1,4.5,0.1,6.8,0.1c6.9,0,15.2-0.2,21.3-3.7c5.8-3.3,10.6-11.6,15-16.7
				c3.1-3.7,6.2-7.3,10.1-10.2c3.8-2.9,8.5-4.9,13.3-4.7c4.8,0.2,9.6,2.8,11.6,7.2c1.5,3.5,1.1,7.6-0.4,11c-2.1,4.9-6,8.8-10.4,11.8
				c-4.4,2.9-9.4,5-14.3,7c5-2.1,11.5-2.2,16.8-3.9c5.2-1.6,10.6-5,16-5.3c12.8-0.8,24.5-2.7,36.3-7.4c-1.2-3-2.4-6-2.9-9.2
				c-0.4-3.2,0.1-6.6,2.1-9.2c3.7-4.8,10.9-4.9,16.9-4c9.9,1.5,23.1,6,25.7,17c1.3,5.6-0.5,11.9-4.8,15.9c0.4-0.4,6.2,0,7.4-0.5
				C659.3,204.1,661.6,202.7,662.6,200.5z"/>
			<path class="st4" d="M640.1,115.1c1,0.4,2,0.6,3,0.6c0.4,0,0.7,0,1.1-0.1c2-0.3,3.9-1.5,5.2-3.3c1.4-2,2-4.6,1.6-6.9
				c-0.7-3.4-3.5-6.6-7.2-8l0,0c-0.7,0.9-1.1,1.9-1,3.2c0.1,4,4.5,7.3,3.6,11.2C645.6,114.3,642.8,115.5,640.1,115.1z"/>
		</g>
		<g>
			<path class="st5" d="M542.7,202.1c-1.7-1.3-3.8-1.8-5.8-2.2c0.5-1.2-0.2-2.6-1.3-3.2c-1.1-0.6-2.4-0.6-3.7-0.3
				c-6.4,1.9-5,13.3,1.4,9.4c1.1,2.4,2.7,4.7,5.5,5.3c2.6,0.6,5.7-1,6.3-3.6C545.5,205.5,544.4,203.3,542.7,202.1z"/>
			<path class="st5" d="M662.2,187.2c-1.8-1-4.1-1.1-5.8-0.1c-1.7,1.1-2.7,3.3-2.2,5.2c-1.7-1.1-4.1-0.5-5.3,1.1
				c-1.2,1.6-1.1,3.9-0.1,5.7c1,1.7,2.8,2.9,4.8,3.4c3,0.7,5.8,0.7,7.4-2.1c0.9-1.7,1.3-5.7-0.4-7.2c1.3,1.2,3.7,0,4-1.7
				C664.9,189.9,663.7,188.1,662.2,187.2z"/>
		</g>
		<g>
			
				<ellipse transform="matrix(0.9331 -0.3597 0.3597 0.9331 -27.7279 163.4901)" class="st0" cx="425.4" cy="156.2" rx="14.5" ry="17.6"/>
			<ellipse class="st0" cx="512.2" cy="131" rx="17.2" ry="19.9"/>
		</g>
	</g>
	<g>
		<g>
			<path class="st5" d="M438,148.7c3.4,5.7,2.2,12.6-2.7,15.5c-5,2.9-11.8,0.5-15.2-5.2c-3.4-5.7-2.2-12.6,2.7-15.5
				C427.8,140.7,434.6,143,438,148.7z"/>
			<path class="st5" d="M428,173.2c0,0-0.4,0-1.1,0.1c-0.7,0-1.8,0.1-3.1-0.2c-1.3-0.2-2.9-0.7-4.6-1.5c-1.7-0.8-3.4-2.1-5.1-3.8
				c-1.6-1.7-3.1-3.8-4.2-6.3c-0.1-0.3-0.3-0.6-0.4-0.9c-0.1-0.3-0.2-0.7-0.3-1c-0.2-0.7-0.4-1.4-0.6-2.1c-0.3-1.4-0.5-2.9-0.5-4.4
				c0-3,0.6-6.2,2.4-9c0.8-1.4,1.9-2.7,3.2-3.8c0.6-0.6,1.3-1,2.1-1.5l1.1-0.6l0.3-0.1l0.1,0c-0.1,0,0.1-0.1,0.1-0.1l0,0l0.1,0
				l0.5-0.2c0.6-0.3,1.6-0.5,2.4-0.6c0.8-0.1,1.7-0.2,2.5-0.2c1.7,0,3.3,0.3,4.8,0.8c3.1,1,5.7,2.9,7.8,5c2.1,2.2,3.6,4.7,4.5,7.2
				c0.2,0.6,0.4,1.2,0.6,1.9c0.2,0.7,0.3,1.3,0.4,1.9c0.2,1.2,0.3,2.5,0.3,3.6c0,2.3-0.5,4.5-1.1,6.2c-0.7,1.8-1.5,3.2-2.4,4.2
				c-0.9,1-1.7,1.7-2.2,2.1c-0.6,0.4-0.9,0.6-0.9,0.6s0.3-0.3,0.8-0.8c0.5-0.5,1.1-1.3,1.8-2.4c0.7-1.1,1.3-2.5,1.7-4.2
				c0.4-1.7,0.6-3.7,0.4-5.8c-0.1-1.1-0.3-2.1-0.6-3.2c-0.2-0.5-0.3-1.1-0.5-1.6c-0.2-0.5-0.4-1.1-0.7-1.7c-1-2.1-2.4-4.3-4.3-6
				c-0.9-0.9-2-1.7-3.1-2.4c-1.1-0.6-2.3-1.2-3.6-1.6c-1.2-0.4-2.5-0.6-3.8-0.6c-0.6,0-1.3,0.1-1.9,0.1c-0.6,0.2-1.1,0.2-1.9,0.5
				l-0.5,0.2l-0.1,0l0,0c0,0,0.2-0.1,0.1,0l-0.1,0l-0.2,0.1l-0.9,0.4c-0.5,0.4-1.1,0.7-1.6,1.1c-1,0.8-1.8,1.8-2.5,2.9
				c-1.4,2.2-2.1,4.8-2.2,7.3c0,1.3,0,2.5,0.3,3.8c0.1,0.6,0.2,1.2,0.4,1.8c0.1,0.3,0.1,0.6,0.2,0.9c0.1,0.3,0.2,0.6,0.3,0.9
				c0.8,2.2,2,4.3,3.3,5.9c1.3,1.6,2.8,3,4.3,3.9c1.5,1,2.9,1.6,4.1,2c0.6,0.2,1.2,0.3,1.6,0.5c0.5,0.1,0.9,0.2,1.3,0.2
				C427.7,173.2,428,173.2,428,173.2z"/>
		</g>
		<g>
			
				<ellipse transform="matrix(0.903 -0.4296 0.4296 0.903 -4.4107 233.8576)" class="st5" cx="515.8" cy="126.7" rx="11.8" ry="13.3"/>
			<path class="st5" d="M507.2,149.9c0,0-0.4-0.1-1.1-0.4c-0.7-0.3-1.8-0.7-3.1-1.4c-1.3-0.8-2.7-1.9-4.1-3.4
				c-1.4-1.6-2.7-3.6-3.7-6c-1-2.4-1.6-5.3-1.6-8.2c0-3.1,0.6-6.3,2.1-9.3c1.4-3,3.7-5.8,6.6-7.9c1.5-1,3.1-1.8,4.9-2.3
				c1.7-0.5,3.6-0.8,5.4-0.7l0.6,0l0.7,0.1c0.5,0.1,1,0.1,1.4,0.2c0.9,0.2,1.8,0.4,2.6,0.7c1.7,0.6,3.3,1.5,4.8,2.5
				c2.9,2.1,5,5,6.4,8c1.4,3,1.9,6.3,1.9,9.3c0,0.4,0,0.7,0,1.1c0,0.4-0.1,0.8-0.1,1.1c-0.1,0.8-0.2,1.5-0.3,2.2
				c-0.1,0.7-0.4,1.4-0.5,2c-0.2,0.6-0.4,1.3-0.7,1.9c-1,2.4-2.4,4.4-3.9,5.9c-1.4,1.5-3,2.6-4.2,3.3c-1.3,0.7-2.4,1.1-3.2,1.3
				c-0.8,0.2-1.2,0.3-1.2,0.3s0.4-0.2,1.1-0.5c0.7-0.3,1.7-0.9,2.9-1.7c1.1-0.9,2.4-2,3.6-3.6c1.2-1.5,2.3-3.5,3-5.7
				c0.2-0.6,0.3-1.2,0.5-1.7c0.1-0.6,0.3-1.2,0.3-1.8c0.1-0.6,0.2-1.3,0.2-1.9c0-0.3,0-0.6,0-1c0-0.4,0-0.7,0-1.1
				c-0.1-2.6-0.8-5.5-2.1-8c-0.6-1.3-1.5-2.5-2.4-3.7c-0.5-0.5-1-1.1-1.5-1.6l-0.8-0.7l-0.9-0.7c-1.2-0.9-2.5-1.6-3.9-2
				c-0.7-0.3-1.4-0.4-2.1-0.6l-1-0.1l-0.5-0.1l-0.6,0c-1.5-0.1-3,0.2-4.4,0.5c-1.4,0.4-2.8,1.1-4,1.8c-2.4,1.7-4.5,3.9-5.8,6.5
				c-1.3,2.5-2.1,5.3-2.2,8c0,0.4,0,0.7,0,1.1l0,0.5c0,0.1,0,0.3,0,0.4c0,0.7,0.1,1.3,0.1,1.9c0.1,1.3,0.4,2.5,0.7,3.6
				c0.7,2.3,1.7,4.2,2.9,5.8c1.1,1.6,2.4,2.8,3.5,3.7c0.5,0.5,1.1,0.8,1.5,1.1c0.5,0.3,0.9,0.5,1.2,0.7
				C506.8,149.7,507.2,149.9,507.2,149.9z"/>
		</g>
		<g>
			<path class="st5" d="M557.7,46.4c-0.7,1.1-1.3,2.2-1.8,3.4c-0.5,1.2-1,2.3-1.4,3.4c-0.2,0.6-0.5,1.1-0.7,1.6
				c-0.2,0.5-0.5,1.1-0.8,1.5c-0.2,0.3-0.3,0.5-0.5,0.8l-0.4,0.6c-0.3,0.4-0.7,0.9-1,1.3c-0.7,0.8-1.6,1.5-2.5,2.2
				c-0.9,0.6-1.8,1.2-2.8,1.6c-0.5,0.2-1,0.4-1.5,0.6c-0.5,0.2-1.1,0.3-1.6,0.4l-0.1,0c-0.5,0.1-1,0.5-1.2,1c-0.3,0.8,0.1,1.8,1,2.1
				c1.4,0.5,2.8,1,4,1.6c0.6,0.3,1.2,0.6,1.8,1c0.6,0.4,1.1,0.8,1.5,1.2c0.1,0.1,0.2,0.3,0.4,0.4l0.3,0.3c0.2,0.3,0.4,0.5,0.5,0.8
				c0.3,0.6,0.6,1.2,0.7,1.9c0.1,0.7,0.2,1.4,0.1,2.1c-0.1,0.3-0.2,0.7-0.3,1c-0.1,0.3-0.3,0.7-0.5,1c0.3-0.2,0.6-0.5,0.9-0.8
				c0.3-0.3,0.5-0.6,0.7-1c0.4-0.7,0.5-1.6,0.6-2.4c0-0.8-0.1-1.7-0.3-2.5c-0.1-0.4-0.3-0.8-0.5-1.2l-0.3-0.6
				c-0.1-0.2-0.2-0.3-0.3-0.5c-1-1.4-2.3-2.5-3.7-3.3c-0.1-0.1-0.2-0.1-0.3-0.2c0.5-0.2,1-0.5,1.5-0.8c0.6-0.3,1.2-0.7,1.7-1.1
				c0.5-0.4,1.1-0.8,1.6-1.3c0.5-0.5,0.9-1,1.4-1.5c0.4-0.5,0.8-1.1,1.2-1.7c0.2-0.3,0.4-0.6,0.5-0.9c0.2-0.3,0.3-0.6,0.4-0.8
				c0.3-0.7,0.5-1.2,0.7-1.9c0.2-0.6,0.4-1.2,0.5-1.8c0.3-1.2,0.6-2.4,0.8-3.6c0.3-1.2,0.5-2.3,1-3.4c0.2-0.6,0.4-1.1,0.7-1.6
				l0.4-0.8l0.5-0.8c-0.5,0.3-1,0.7-1.5,1.2C558.5,45.4,558.1,45.9,557.7,46.4z"/>
			<path class="st5" d="M666.9,183.7c-1.4-2.4-3.5-4.2-5.4-5.8l-11.3-8.8c2.1-13.8,0.3-27.8-5.1-39.3c-3.5-7.5-8.6-14.1-14.7-19.2
				c0.3-1.1,1.1-2.1,2.1-2.7c0.4,1.1,1,2.1,1.6,3c2.2,3.3,5.6,5.2,8.9,5.2c0.4,0,0.8,0,1.1-0.1c2.2-0.3,4.2-1.6,5.6-3.6
				c1.5-2.1,2.1-4.9,1.7-7.3c-0.7-3.7-3.7-6.9-7.5-8.4c1-2.5,3.1-5.1,6.1-7.7c0.5-0.4,0.7-1.2,0.5-1.8c-0.2-0.7-0.8-1.1-1.5-1.2
				c-6.3-0.6-12.3,2.3-15.4,7.5c-0.2,0.3-0.3,0.5-0.4,0.8c-3.2-0.2-6.5,0.7-9.3,2.4c-2.4,1.5-4.4,3.7-5.8,6.3
				c-0.8-0.4-1.7-0.7-2.5-1c-12.4-4.5-26.3-3.4-37.1,2.9c-1.4-4-3.2-7.7-5.5-11.1c0.8-0.1,1.5-0.3,2.3-0.6c3.5-1.2,6.7-4.5,7.9-8.1
				c0.9-2.6,0.6-5.3-0.4-7.6c0.1,0,0.1,0,0.1,0c2.9,0,5.9-0.7,7.6-3.3c2.2-3.3,1-7-0.1-10.3c-0.2-0.7-0.5-1.5-0.7-2.2
				c-1.2-4.6-0.3-9.7,2.5-13.6c4.3,1.1,9.1,0.6,12.9-1.5c2.3-1.2,4.1-3.6,3-6.1c-0.9-2.2-3.4-2.6-5.1-2.8
				c-6.6-0.9-12.2-5.7-17.5-10.4L584,26c-5.4-4.7-13.7-10.7-22.6-9.2c-7,1.2-12,6.7-15,11.1c-1.6,2.4-3,4.9-4.4,7.3
				c-1.5,2.7-3,5.4-4.8,7.9c-1,1.4-2.5,3.5-4.4,5.4c-21.8-17.9-55.8-22.6-86.5-12c-18,6.2-33.8,18.6-43.2,35.5L382,63.2
				c-3.8-1.6-8.5-3.6-13.4-2.9c-7.1,1-11.9,7-15.9,12.6c-3.9,5.5-7.9,10.6-13.4,11.5c-0.8,0.1-1.6,0.2-2.5,0.3
				c-3.1,0.3-6.9,0.7-8.6,4c-0.8,1.6-0.8,3.4-0.1,5.1c1,2.4,3.4,4.4,6,5.1c1.3,0.3,2.5,0.5,3.8,0.5c2.4,0,4.8-0.6,7.2-1.6
				c2.8,1.2,4.9,4.2,6.6,9.5l0.4,1.2c1.3,4.2,2.9,9,6.7,12c1.1,0.9,2.4,1.5,3.6,2.1c0.9,0.4,1.7,0.9,2.4,1.4
				c1.2,0.8,2.3,1.8,3.4,2.9c1.2,1.1,2.4,2.3,3.8,3.3c2.5,1.7,5.4,2.5,8.4,2.5c3.1,0,6.2-0.9,8.7-2.6c0.5,3.5,1.4,7.1,2.8,10.4
				l0.7,1.7c3.1,7.1,5.8,13.3,5.2,21.1c-0.5,7.2-0.5,16.4,4,24.1c5.9,10.1,17.5,14.6,25.7,17.2c13,4,26.3,6.1,39.8,6.1
				c3.3,0,6.6-0.1,9.9-0.4c4.3-0.3,8.8-0.2,13.2-0.1c11.9,0.3,24.2,0.6,34-7.2c0.4,2.3,1.7,4.3,3.6,5.2c1.2,0.6,2.5,0.7,3.8,0.3
				c0.5,1.5,1.7,2.9,3.1,3.6c1.7,0.9,3.5,1.2,5.3,1.2c0.8,0,1.7-0.1,2.5-0.1c9.6-0.8,19.2-3.5,27.1-7.5c1.6-0.8,3.3-1.8,5.1-3.1
				c0.2,0,0.3,0,0.5,0c12.7,0,25.6-2.4,37.4-6.8c2.1,2.1,5,3.9,8.6,5.3c8.5,3.5,17.5,4.4,26.1,5.1c1.2,0.1,2.5,0.2,3.8,0.2
				c1.4,0,2.9-0.1,4.4-0.5c3.3-0.8,5.9-2.8,7.1-5.4c0.8-1.7,0.8-3.6,0.3-5.3c1.7-0.5,3.2-1.6,4-3.1
				C668.8,189.9,668.6,186.6,666.9,183.7z M636.5,95.4c1.7-2.9,4.6-4.8,7.8-5.6c-1.7,1.9-2.9,3.9-3.7,5.8c-1.2,3-1.7,7.1,0.8,9.6
				c0.4,0.4,1,0.8,1.6,0.9c0.6,0.1,1.3-0.1,1.6-0.6c-0.5-0.9-0.7-1.8-1-2.7c-0.1-0.3-0.5-2.6-0.5-2.6c2.5,1.1,4.4,3.2,4.8,5.6
				c0.3,1.5-0.1,3.3-1.1,4.7c-0.9,1.2-2,2-3.3,2.1c-2.8,0.4-5.3-1.7-6.7-3.7C634.3,105.1,634.1,99.5,636.5,95.4z M625.7,99.7
				c1.8-1.1,4-1.8,6.2-1.9c-0.6,2.2-0.6,4.5-0.3,6.8c-1.7,0.8-3.1,2.2-4,3.9c-2-1.5-4.2-2.8-6.4-4
				C622.3,102.6,623.8,100.9,625.7,99.7z M664.4,190.7c-0.4,0.7-1.2,1.3-2,1.5c-0.3,0.1-0.9,0.1-1.4-0.1c-0.2-0.1-0.3-0.2-0.5-0.3
				c-0.8-0.4-1.8-0.2-2.3,0.6c-0.5,0.8-0.3,1.8,0.4,2.3c0.2,0.1,0.4,0.2,0.5,0.4c1.2,0.9,1.4,2.9,0.8,4.3c-0.7,1.6-2.5,2.9-4.8,3.5
				c-2.1,0.5-4.4,0.4-7.1,0.2c-8.3-0.6-17.1-1.5-25-4.8c-4.5-1.8-7.5-4.1-9.4-6.8c-1.8-2.8-3.9-6.4-3.2-12
				c-2.8,3.7-2.6,9.4,0.3,13.9c-10,3.6-20.7,5.8-31.4,6.1c2.2-2.2,4.2-4.8,5.7-8c2-4.5,0.9-9.1-2.8-10.3c1.9,3.1,0.4,7.2-0.3,8.8
				c-3,6.6-8.9,10.6-13.4,12.9c-7.5,3.8-16.7,6.3-25.8,7.1c-2,0.2-4.2,0.3-5.8-0.6c-0.8-0.4-1.4-1.2-1.6-2.1c-0.1-0.3-0.1-0.6,0-0.9
				c0.2-0.3,0.3-0.6,0.4-0.9c0.3-0.8-0.1-1.7-0.9-2.1c-0.8-0.4-1.7-0.1-2.2,0.7c-0.2,0.2-0.3,0.5-0.4,0.8c-0.2,0.2-0.4,0.3-0.6,0.4
				c-0.6,0.2-1.2,0.2-1.7,0c-1.2-0.6-1.8-2.1-1.8-3.4c0-1.7,0.7-3.5,1.4-4.9c4.4-8.9,13.1-19.5,27.5-22.5
				c-13.7-1.9-26,11.8-30.6,20.9c-0.4,0.8-0.8,1.7-1.1,2.6c-9.3,9.4-21.5,9.2-34.5,8.8c-4.5-0.1-9.1-0.2-13.5,0.1
				c-16.2,1.2-33-0.7-48.5-5.5c-12.2-3.8-19.7-8.8-23.8-15.6c-4.1-6.9-4-15.5-3.5-22.1c0.6-8.7-2.2-15.2-5.5-22.8l-0.7-1.7
				c-4.3-10.1-5.3-21.6-3.1-30.5c-2.3,3.8-3.6,10.3-3.3,17.3c-3.8,3.7-10.4,4.3-14.8,1.4c-1.2-0.8-2.2-1.8-3.4-2.9
				c-1.2-1.1-2.4-2.3-3.9-3.3c-0.9-0.6-1.9-1.1-2.8-1.6c-1.1-0.6-2.2-1.1-3-1.8c-3-2.3-4.3-6.4-5.5-10.3l-0.4-1.2
				c-1.1-3.3-2.8-7.6-6.2-10.2c1.4-0.7,2.8-1.6,4.1-2.4c4.7-2.9,10.6-7.5,16.8-8.9c-7-1.3-13.7,2.9-18.6,6
				c-4.9,3.1-10.7,6.3-16.1,4.8c-1.6-0.5-3.2-1.7-3.8-3.2c-0.3-0.8-0.4-1.5,0-2.1c0.8-1.5,2.8-1.8,5.8-2.1c0.9-0.1,1.8-0.2,2.7-0.3
				c6.8-1.2,11.3-6.8,15.6-12.9c3.5-5,7.8-10.4,13.5-11.2c3.9-0.5,8,1.2,11.6,2.7l20.8,8.8c-4,8-6.6,16.9-7.4,26.5
				c6.2-28.5,27.1-52.8,53.3-61.8c29.4-10.1,61.8-5.8,82.8,11.1c-1.8,1.3-3.8,2.3-6,2.5c6.4,0.9,11.4-2.1,15.8-8.2
				c1.9-2.6,3.5-5.5,5-8.3c1.3-2.4,2.7-4.8,4.2-7.1c2.6-3.9,7-8.7,12.8-9.7c7.5-1.3,14.9,4.2,19.8,8.4l1.6,1.4
				c5.7,5,11.6,10.2,19.4,11.2c0.8,0.1,2.2,0.3,2.3,0.7c0.1,0.3-0.5,1.1-1.5,1.7c-4.1,2.2-9.3,2.3-13.4,0.1c-1.6-0.9-3-2-4.5-3.2
				c-1.4-1.1-2.8-2.3-4.4-3.2c-3.7-2.2-9-3-12.4,0.2c5.2-1.8,8.1,1.3,10.7,2.8c1.4,0.8,2.7,1.9,4,2.9c1.6,1.3,3.2,2.6,5.1,3.6
				c0.1,0.1,0.3,0.1,0.4,0.2c-3,4.6-3.9,10.4-2.5,15.7c0.2,0.8,0.5,1.6,0.7,2.3c0.9,2.8,1.8,5.5,0.5,7.3c-1.2,1.8-3.9,2.2-8.6,1.4
				c-0.8-0.1-1.6,0.3-1.9,1c-0.3,0.7,0,1.6,0.6,2.1c2.1,1.4,2.9,4.5,2,7.2c-2.6,7.8-12.6,7.7-19.2,7.5c0.6,0.6,2.5,1.3,3,1.5
				c0.8,0.2,1.5,0.4,2.3,0.6c0.5,0.1,1,0.2,1.5,0.2c0.4,0.1,0.9,0.1,1.3,0.1c7.4,9.5,10.5,22.9,8.5,36.9
				c-1.6,11.4-6.5,23.4-14.8,36.6c11.8-12.2,16.6-24.2,18.2-36.1c1.1-8,0.7-15.9-1.2-23.1c10-6.1,23.2-7.3,34.9-3
				c11.8,4.3,21.8,13.8,27.6,26c4.9,10.4,6.7,22.9,5.1,35.4l-3-2.4l8.3,8.8c3.1,3,10.5,10.4,11.6,12.3
				C665,187.2,665.2,189.3,664.4,190.7z"/>
			<path class="st5" d="M492.9,192.8c-0.5-0.2-1-0.6-1.5-0.9c-0.8-0.7-1.9-2-2.2-3.1c0-0.1-0.1,0-0.1,0c0,0.7-0.1,1.4,0,2.2
				c0.2,0.7,0.6,1.3,1,1.9c0.8,1,2.4,2.5,3.8,2.1c0.6-0.2,0.8-1,0.4-1.4C494,193.1,493.5,193,492.9,192.8z"/>
			<path class="st5" d="M518.4,95.4c-1.9-1.3-4-1.7-6.2-2c-1.7-0.2-3.2,1.6-3.2,3.2c0,1.9,1.5,3.1,3.2,3.2c1.7,0.2,3.5,0.6,5.2,0.9
				c1.3,0.2,3.5,0.9,4-0.9C521.8,97.9,519.8,96.3,518.4,95.4z"/>
			<path class="st5" d="M412.1,120.2c-1.4,1.5-2.6,3.1-3.4,5.1c-0.7,1.8-1,3.3-0.1,5c0.2,0.3,0.6,0.4,1,0.3c0.6-0.3,1.1-0.5,1.5-1
				c0.6-0.6,0.9-1.4,1.4-2.1c1-1.3,1.9-2.6,3-3.8C417.8,121.5,414.3,117.9,412.1,120.2z"/>
			<path class="st5" d="M443.3,95.1C443.3,95.1,443.2,95,443.3,95.1c-0.4,0.5-0.6,1.1-0.8,1.7c-0.1-0.1-0.4-0.1-0.5,0.1
				c-0.7,1.1-1.8,4.5-3.5,3.8c-1.5-0.6-2.6-5.4-2.8-6.7c-1-5-0.5-10.3,1.8-14.9c0.1-0.1-0.1-0.2-0.2-0.1c-4.3,6.1-5.1,13.5-1.9,20.3
				c0.7,1.5,2.3,5.3,4.7,4.7c0.9-0.2,1.4-1.1,1.8-2.1c0.2,1.7,0.9,3.3,2.4,4.2c0.4,0.2,0.8-0.1,0.7-0.5c-0.4-1.6-1.5-2.9-1.9-4.5
				C442.5,99,442.6,97,443.3,95.1z"/>
			<path class="st5" d="M452.1,109.4c0.2,0,0.5-0.3,0.4-0.6c-0.1-1.7-1.7-2.6-2.6-4c-1.1-1.6-1.7-3.7-2-5.6c0-0.2-0.4-0.2-0.4,0
				c-0.7,2.2-0.4,4.2,0.5,6.4C448.7,107.4,449.9,109.7,452.1,109.4z"/>
			<path class="st5" d="M509,164.5c-0.9,0.6-1.3,1.5-1.6,2.1c-1.6,3.8-4.7,6.9-8.4,8.8c0,0,0-0.1,0-0.1c2.5-5.3-0.6-11.5-4.8-15.3
				c-7.5-6.8-18.6-8.9-27.7-5.3c-9.4,3.7-15.9,13.6-15.5,23.4c0.2,4.6,2.3,10.8,7.8,12.8c1.3,0.5,2.6,0.7,3.9,0.7
				c4.1,0,8-2.3,11.4-4.3c2.1-1.3,4.1-2.5,6.1-3.1c1.5-0.5,3.2-0.8,5-1.2c2.8-0.5,5.9-1.1,8.5-2.4c0.7-0.1,1.3-0.2,1.9-0.3
				c-0.5,0.9-0.8,1.8-1.1,2.9c-0.5,2.1,1.9,4.3,3.8,2.9c4.1-2.8,6.9-6.8,7.7-11.6c0.8-0.8,1.5-1.6,2.2-2.5c0.3-0.3,3-4.9,2.6-4.9
				c1.5,0.2,3,0.3,4.6,0.4C513.6,166.1,511.6,163,509,164.5z M496,173.9c-1.9,4-6.5,4.9-11.4,5.8c-1.8,0.4-3.8,0.7-5.4,1.3
				c-2.3,0.8-4.6,2.1-6.8,3.4c-4.2,2.5-8.2,4.9-12.3,3.4c-3.6-1.3-5.4-5.8-5.5-9.7c-0.3-8.4,5.3-16.9,13.4-20.1
				c2.6-1,5.3-1.5,8.1-1.5c5.8,0,11.6,2.1,16,6.1C495.2,165.5,497.7,170.2,496,173.9z"/>
			<path class="st5" d="M466,177.7C466,177.7,465.9,177.7,466,177.7C465.9,177.6,465.9,177.6,466,177.7c0.2-1.2,0.8-2.4,0.6-3.6
				c0,0,0-0.1-0.1-0.1c-1.2,0.4-2,1.9-2.6,3c-0.8,1.5-1.4,3.1-1.8,4.7c-0.3,1.3,1,3,2.4,2.4C467.1,183.1,468.5,179.6,466,177.7z"/>
			<path class="st5" d="M487,168.8c-1.8-0.7-3.4-0.8-5.3-0.6c-0.5,0.1-0.4,0.8,0,0.9c0.7,0.1,1.4,0.4,2,0.6c0,0.1-0.1,0.3-0.1,0.4
				c-0.1,3.2,6.5,5.5,6.7,1.7C490.5,170.2,488.2,169.3,487,168.8z"/>
			<path class="st5" d="M377.3,84.5c3.6,1,7,2.8,10.1,4.9c2.5,1.7,4.8,3.3,7.9,3.8c1.2,0.2,1.6-1.6,0.5-1.8c-3.8-0.5-6.7-3-10-4.8
				c-2.7-1.4-5.4-2-8.4-2.3C377.2,84.4,377.2,84.5,377.3,84.5L377.3,84.5z"/>
		</g>
	</g>
	<g>
		<path class="st0" d="M422.6,153.1c0.8,2.8-0.2,5.5-2.3,6.1c-2.1,0.6-4.4-1.2-5.2-4c-0.8-2.8,0.2-5.5,2.3-6.1
			C419.4,148.5,421.8,150.3,422.6,153.1z"/>
		<path class="st0" d="M509,126.6c0.8,2.9-0.6,5.9-3.3,6.7c-2.7,0.8-5.5-0.9-6.4-3.8c-0.8-2.9,0.6-5.9,3.3-6.7
			C505.4,121.9,508.2,123.7,509,126.6z"/>
	</g>
</g>
<g>
	<path class="st6" d="M30.8,85.3h3.4c4.1,0,7,2.2,7,7.3v0.1c0,4.9-2.7,7.2-6.5,7.5h0v6.8h-3.8V85.3z M34.6,96.6
		c1.6-0.1,2.8-1.2,2.8-3.9v-0.1c0-2.7-1-3.9-2.7-3.9h-0.1L34.6,96.6L34.6,96.6z"/>
	<path class="st6" d="M43.8,85.2h3.7v3.6h-3.7V85.2z M43.9,90.4h3.6v16.5h-3.6V90.4z"/>
	<path class="st6" d="M51.2,110.5v-3.4c1,0.4,2.3,0.7,3.1,0.7c1.6,0,2.7-0.7,2.7-2.6v-1.6c-0.5,1-1.3,2.4-2.9,2.4
		c-2,0-3.5-2-3.5-7.8v-0.2c0-5.9,1.5-7.8,3.5-7.8c1.6,0,2.4,1.3,2.9,2.3v-2h3.6v15.1c0,4-2.3,5.5-5.8,5.5
		C53.3,111,52.4,110.8,51.2,110.5z M57,98L57,98c0-3-0.6-4.5-1.5-4.5S54.2,95,54.2,98V98c0,3,0.5,4.4,1.4,4.4S57,101,57,98z"/>
	<path class="st6" d="M64.3,110.5v-3.4c1,0.4,2.3,0.7,3.1,0.7c1.6,0,2.7-0.7,2.7-2.6v-1.6c-0.5,1-1.3,2.4-2.9,2.4
		c-2,0-3.5-2-3.5-7.8v-0.2c0-5.9,1.5-7.8,3.5-7.8c1.6,0,2.4,1.3,2.9,2.3v-2h3.6v15.1c0,4-2.3,5.5-5.8,5.5
		C66.4,111,65.5,110.8,64.3,110.5z M70.1,98L70.1,98c0-3-0.6-4.5-1.5-4.5S67.3,95,67.3,98V98c0,3,0.5,4.4,1.4,4.4S70.1,101,70.1,98z
		"/>
	<path class="st6" d="M79.7,106.3l-3.4-16h3.6l1.6,9.8l1.7-9.8h3.6l-4.6,20.5h-3.5L79.7,106.3z"/>
	<path class="st6" d="M95.2,99.2v-1c0-5.3,2.2-8.1,5.1-8.1s5.1,2.7,5.1,8.1v1c0,5.3-2.2,8.1-5.1,8.1S95.2,104.5,95.2,99.2z
		 M101.8,99.2v-1.1c0-3.3-0.6-4.8-1.5-4.8c-0.9,0-1.5,1.5-1.5,4.8v1.1c0,3.2,0.6,4.8,1.5,4.8C101.2,104,101.8,102.4,101.8,99.2z"/>
	<path class="st6" d="M108.8,93.3h-1v-3h1v-1.2c0-2.8,1.6-4.1,4.2-4.1c0.6,0,1,0,1.4,0.1v3c-0.2,0-0.2,0-0.4,0
		c-0.9,0-1.5,0.5-1.5,1.5v0.6h1.9v3h-1.9v13.6h-3.6V93.3z"/>
	<path class="st6" d="M123,85.3h3.8v21.6H123V85.3z"/>
	<path class="st6" d="M130.6,110.5v-3.4c1,0.4,2.3,0.7,3.1,0.7c1.6,0,2.7-0.7,2.7-2.6v-1.6c-0.5,1-1.3,2.4-2.9,2.4
		c-2,0-3.5-2-3.5-7.8v-0.2c0-5.9,1.5-7.8,3.5-7.8c1.6,0,2.4,1.3,2.9,2.3v-2h3.6v15.1c0,4-2.3,5.5-5.8,5.5
		C132.7,111,131.8,110.8,130.6,110.5z M136.4,98L136.4,98c0-3-0.6-4.5-1.5-4.5s-1.4,1.5-1.4,4.4V98c0,3,0.5,4.4,1.4,4.4
		S136.4,101,136.4,98z"/>
	<path class="st6" d="M143.3,90.4h3.6v2c0.6-1.3,1.5-2.3,2.9-2.3c2.1,0,3.2,1.8,3.2,4.3v12.5h-3.6V95.2c0-1.2-0.5-1.9-1.2-1.9
		s-1.3,0.7-1.3,1.9v11.7h-3.6V90.4z"/>
	<path class="st6" d="M155.9,99.2v-1c0-5.3,2.2-8.1,5.1-8.1s5.1,2.7,5.1,8.1v1c0,5.3-2.2,8.1-5.1,8.1S155.9,104.5,155.9,99.2z
		 M162.5,99.2v-1.1c0-3.3-0.6-4.8-1.5-4.8s-1.5,1.5-1.5,4.8v1.1c0,3.2,0.6,4.8,1.5,4.8S162.5,102.4,162.5,99.2z"/>
	<path class="st6" d="M169.1,90.4h3.6v2.1c0.5-1.4,1.3-2.3,2.7-2.3v4.4h-0.1c-1.7,0-2.6,1.2-2.6,3.5v8.8h-3.6V90.4z"/>
	<path class="st6" d="M177.2,102.3v-0.5c0-3.7,1.5-5.2,3.7-5.2c0.8,0,1.5,0.2,2.2,0.6v-1c0-1.7-0.8-2.6-2.3-2.6
		c-0.9,0-1.9,0.4-2.7,0.8v-3.5c1.1-0.5,2-0.7,3.5-0.7c3.4,0,5.2,2,5.2,5.7v11H183v-1.8c-0.6,1.4-1.5,2-2.7,2
		C178.5,107.2,177.2,105.3,177.2,102.3z M183,102.6v-2.8c-0.3-0.2-0.8-0.3-1.1-0.3c-0.7,0-1.2,0.6-1.2,2.2v0.4
		c0,1.6,0.5,2.1,1.1,2.1C182.4,104.1,183,103.6,183,102.6z"/>
	<path class="st6" d="M189.8,90.4h3.6v2c0.6-1.3,1.5-2.3,2.9-2.3c2.1,0,3.2,1.8,3.2,4.3v12.5h-3.6V95.2c0-1.2-0.5-1.9-1.2-1.9
		s-1.3,0.7-1.3,1.9v11.7h-3.6V90.4z"/>
	<path class="st6" d="M202.4,99.2v-1c0-5.3,2.2-8.1,5.2-8.1c1,0,1.5,0.1,2.3,0.4v3.7c-0.6-0.4-1.2-0.6-1.8-0.6c-1.1,0-2,1.2-2,4.4
		v1.1c0,3.2,0.8,4.4,2,4.4c0.5,0,1.2-0.3,1.8-0.7v3.6c-0.8,0.5-1.5,0.7-2.4,0.7C204.4,107.2,202.4,104.5,202.4,99.2z"/>
	<path class="st6" d="M212,99.1v-0.8c0-5.3,2.3-8.1,5-8.1c2.9,0,4.7,2.9,4.7,8.3v1.9h-6.1c0.2,2.6,1.3,3.5,2.5,3.5
		c1.1,0,1.8-0.5,2.9-1.2l0.3,3.3c-1.3,0.8-2.3,1.3-3.6,1.3C214.6,107.2,212,104.4,212,99.1z M218.3,97.5c0-2.8-0.4-4.1-1.3-4.1
		c-0.8,0-1.4,1.2-1.4,4.1H218.3z"/>
	<path class="st6" d="M31.4,118.3h1.4v20.4h5.4v1.2h-6.8V118.3z"/>
	<path class="st6" d="M40.4,132v-0.3c0-5.1,2.2-8.2,4.6-8.2s4.6,3.1,4.6,8.2v0.3c0,5.1-2.2,8.2-4.6,8.2S40.4,137.1,40.4,132z
		 M48.3,132v-0.3c0-4.3-1.5-7-3.3-7s-3.3,2.7-3.3,7v0.3c0,4.3,1.5,7,3.3,7S48.3,136.2,48.3,132z"/>
	<path class="st6" d="M53.4,123.7h1.3v2.4c0.6-1.5,1.9-2.7,3.8-2.6v1.4h-0.1c-2,0-3.7,1.3-3.7,4.1v10.9h-1.3V123.7z"/>
	<path class="st6" d="M60.6,132.1v-0.3c0-5.6,2.1-8.4,4.4-8.4c2.4,0,4.2,2.9,4.2,7.9v1h-7.4c0.1,4.4,1.9,6.5,4,6.5
		c1,0,1.8-0.2,2.8-1l0.2,1.3c-1.1,0.6-1.9,0.9-3.1,0.9C63.1,140.1,60.6,137.5,60.6,132.1z M68,131.2c0-3.7-1.2-6.5-3-6.5
		c-1.7,0-3,2.3-3.1,6.5H68z"/>
	<path class="st6" d="M73.2,123.7h1.3v2.4c0.6-1.4,1.5-2.6,3.2-2.6c1.8,0,2.7,1.2,3.2,2.7c0.6-1.3,1.6-2.7,3.6-2.7
		c2.2,0,3.7,1.8,3.7,5.1v11.4h-1.3v-11.3c0-2.7-1-4.1-2.6-4.1c-1.7,0-3,1.7-3,4.3v11h-1.3v-11.3c0-2.7-1-4.1-2.6-4.1
		c-1.7,0-3,1.7-3,4.3v11h-1.3V123.7z"/>
	<path class="st6" d="M99.1,118.1h1.4v2.2h-1.4V118.1z M99.1,123.7h1.3v16.2h-1.3V123.7z"/>
	<path class="st6" d="M105.1,123.7h1.3v3.1c0.6-1.9,1.8-3.4,3.4-3.4c2.2,0,4.2,2.8,4.2,8.1v0.6c0,5.2-2,8.1-4.2,8.1
		c-1.6,0-2.7-1.5-3.4-3.4v7.1h-1.3V123.7z M112.7,132.1v-0.5c0-4.4-1.4-6.9-3.1-6.9c-1.6,0-3.3,2.5-3.3,6.8v0.8
		c0,4.3,1.7,6.8,3.3,6.8C111.3,139,112.7,136.5,112.7,132.1z"/>
	<path class="st6" d="M117.1,139.3V138c1.1,0.6,2.3,0.9,3.3,0.9c1.4,0,2.5-0.9,2.5-2.4v-0.1c0-1.1-0.6-2.3-2.6-4.1
		c-2.4-2.3-3.2-3.5-3.2-5.2v-0.1c0-2.3,1.8-3.5,3.7-3.5c1.1,0,1.8,0.2,2.7,0.5v1.4c-0.9-0.5-1.8-0.7-2.7-0.7c-1.3,0-2.3,0.9-2.3,2.3
		v0.1c0,1.2,0.6,2.1,2.6,4c2.3,2.3,3.2,3.6,3.2,5.3v0.1c0,2.3-1.9,3.7-3.8,3.7C119,140.1,118.1,139.8,117.1,139.3z"/>
	<path class="st6" d="M127.6,135.1v-11.3h1.3v11.2c0,2.7,1,4.1,2.7,4.1c1.7,0,3.1-1.8,3.1-4.4v-11h1.3v16.2h-1.3v-2.4
		c-0.6,1.4-1.5,2.6-3.3,2.6C129.2,140.2,127.6,138.4,127.6,135.1z"/>
	<path class="st6" d="M140.5,123.7h1.3v2.4c0.6-1.4,1.5-2.6,3.2-2.6c1.8,0,2.7,1.2,3.2,2.7c0.6-1.3,1.6-2.7,3.6-2.7
		c2.2,0,3.7,1.8,3.7,5.1v11.4h-1.3v-11.3c0-2.7-1-4.1-2.6-4.1c-1.7,0-3,1.7-3,4.3v11h-1.3v-11.3c0-2.7-1-4.1-2.6-4.1
		c-1.7,0-3,1.7-3,4.3v11h-1.3V123.7z"/>
	<path class="st6" d="M165.6,132.1v-0.6c0-5.2,2-8.1,4.2-8.1c1.6,0,2.7,1.5,3.4,3.4v-8.7h1.3v21.8h-1.3v-3.1
		c-0.6,1.9-1.8,3.4-3.4,3.4C167.6,140.2,165.6,137.3,165.6,132.1z M173.3,132.2v-0.8c0-4.4-1.7-6.8-3.3-6.8c-1.7,0-3.1,2.5-3.1,6.9
		v0.5c0,4.4,1.4,6.9,3.1,6.9C171.6,139,173.3,136.6,173.3,132.2z"/>
	<path class="st6" d="M178.4,132v-0.3c0-5.1,2.2-8.2,4.6-8.2s4.6,3.1,4.6,8.2v0.3c0,5.1-2.2,8.2-4.6,8.2
		C180.5,140.2,178.4,137.1,178.4,132z M186.3,132v-0.3c0-4.3-1.5-7-3.3-7s-3.3,2.7-3.3,7v0.3c0,4.3,1.5,7,3.3,7
		S186.3,136.2,186.3,132z"/>
	<path class="st6" d="M191.6,118.1h1.3v21.8h-1.3V118.1z"/>
	<path class="st6" d="M196.9,132v-0.3c0-5.1,2.2-8.2,4.6-8.2s4.6,3.1,4.6,8.2v0.3c0,5.1-2.2,8.2-4.6,8.2
		C199.1,140.2,196.9,137.1,196.9,132z M204.8,132v-0.3c0-4.3-1.5-7-3.3-7s-3.3,2.7-3.3,7v0.3c0,4.3,1.5,7,3.3,7
		S204.8,136.2,204.8,132z"/>
	<path class="st6" d="M210,123.7h1.3v2.4c0.6-1.5,1.9-2.7,3.8-2.6v1.4H215c-2,0-3.7,1.3-3.7,4.1v10.9H210V123.7z"/>
	<path class="st6" d="M223.9,139.3V138c1.1,0.6,2.3,0.9,3.3,0.9c1.4,0,2.5-0.9,2.5-2.4v-0.1c0-1.1-0.6-2.3-2.6-4.1
		c-2.4-2.3-3.2-3.5-3.2-5.2v-0.1c0-2.3,1.8-3.5,3.7-3.5c1.1,0,1.8,0.2,2.7,0.5v1.4c-0.9-0.5-1.8-0.7-2.7-0.7c-1.3,0-2.3,0.9-2.3,2.3
		v0.1c0,1.2,0.6,2.1,2.6,4c2.3,2.3,3.2,3.6,3.2,5.3v0.1c0,2.3-1.9,3.7-3.8,3.7C225.9,140.1,224.9,139.8,223.9,139.3z"/>
	<path class="st6" d="M234.7,118.1h1.4v2.2h-1.4V118.1z M234.8,123.7h1.3v16.2h-1.3V123.7z"/>
	<path class="st6" d="M241.2,137.2v-12.3h-1.5v-1.2h1.5v-4.6h1.3v4.6h2.6v1.2h-2.6V137c0,1.4,0.6,1.8,1.7,1.8c0.3,0,0.7-0.1,1-0.2
		v1.2c-0.3,0.1-0.8,0.2-1.1,0.2C242.4,140.1,241.2,139.3,241.2,137.2z"/>
	<path class="st6" d="M254.5,135.2V135c0-3,1.5-5.2,4.3-5.2c1.1,0,2,0.3,2.7,0.6v-2c0-2.3-1-3.6-3.1-3.6c-1.1,0-2,0.2-3,0.7v-1.3
		c0.9-0.4,1.9-0.7,3.1-0.7c2.7,0,4.3,1.6,4.3,4.7v11.7h-1.3v-2.3c-0.6,1.6-1.7,2.6-3.3,2.6C256,140.2,254.5,138.1,254.5,135.2z
		 M261.5,134.9v-3.2c-0.9-0.4-1.7-0.6-2.7-0.6c-2,0-3,1.7-3,3.9v0.2c0,2.2,0.9,3.9,2.6,3.9C260.3,139.1,261.5,137,261.5,134.9z"/>
	<path class="st6" d="M267.1,123.7h1.3v2.4c0.6-1.4,1.5-2.6,3.2-2.6c1.8,0,2.7,1.2,3.2,2.7c0.6-1.3,1.6-2.7,3.6-2.7
		c2.2,0,3.7,1.8,3.7,5.1v11.4h-1.3v-11.3c0-2.7-1-4.1-2.6-4.1c-1.7,0-3,1.7-3,4.3v11H274v-11.3c0-2.7-1-4.1-2.6-4.1
		c-1.7,0-3,1.7-3,4.3v11h-1.3V123.7z"/>
	<path class="st6" d="M285.8,132.1v-0.3c0-5.6,2.1-8.4,4.4-8.4c2.4,0,4.2,2.9,4.2,7.9v1h-7.4c0.1,4.4,1.9,6.5,4,6.5
		c1,0,1.8-0.2,2.8-1l0.2,1.3c-1.1,0.6-1.9,0.9-3.1,0.9C288.3,140.1,285.8,137.5,285.8,132.1z M293.3,131.2c0-3.7-1.2-6.5-3-6.5
		c-1.7,0-3,2.3-3.1,6.5H293.3z"/>
	<path class="st6" d="M298.8,137.2v-12.3h-1.5v-1.2h1.5v-4.6h1.3v4.6h2.6v1.2h-2.6V137c0,1.4,0.6,1.8,1.7,1.8c0.3,0,0.7-0.1,1-0.2
		v1.2c-0.3,0.1-0.8,0.2-1.1,0.2C299.9,140.1,298.8,139.3,298.8,137.2z"/>
	<path class="st6" d="M305.5,142.3c1.2-0.5,1.7-1.2,1.6-2.4h-0.8v-2.5h1.9v2.2c0,1.9-0.6,2.7-2.3,3.5L305.5,142.3z"/>
	<path class="st6" d="M30.7,165v-0.3c0-5.6,2.5-8.2,4.9-8.2c0.8,0,1.5,0.2,1.9,0.6v1.4c-0.6-0.4-1.2-0.7-2-0.7
		c-1.7,0-3.6,2.1-3.6,6.9v0.4c0,4.9,1.9,6.8,3.7,6.8c0.7,0,1.3-0.3,1.9-0.7v1.4c-0.5,0.4-1.1,0.6-1.9,0.6
		C33.1,173.2,30.7,170.7,30.7,165z"/>
	<path class="st6" d="M40.3,165v-0.3c0-5.1,2.2-8.2,4.6-8.2s4.6,3.1,4.6,8.2v0.3c0,5.1-2.2,8.2-4.6,8.2S40.3,170.1,40.3,165z
		 M48.2,165v-0.3c0-4.3-1.5-7-3.3-7s-3.3,2.7-3.3,7v0.3c0,4.3,1.5,7,3.3,7S48.2,169.2,48.2,165z"/>
	<path class="st6" d="M53.3,156.7h1.3v2.4c0.6-1.4,1.5-2.6,3.3-2.6c2.2,0,3.7,1.8,3.7,5.1v11.3h-1.3v-11.2c0-2.7-1-4.1-2.7-4.1
		c-1.7,0-3.1,1.8-3.1,4.4v11h-1.3V156.7z"/>
	<path class="st6" d="M65.2,172.4V171c1.1,0.6,2.3,0.9,3.3,0.9c1.4,0,2.5-0.9,2.5-2.4v-0.1c0-1.1-0.6-2.3-2.6-4.1
		c-2.4-2.3-3.2-3.5-3.2-5.2v-0.1c0-2.3,1.8-3.5,3.7-3.5c1.1,0,1.8,0.2,2.7,0.5v1.4c-0.9-0.5-1.8-0.7-2.7-0.7c-1.3,0-2.3,0.9-2.3,2.3
		v0.1c0,1.2,0.6,2.1,2.6,4c2.3,2.3,3.2,3.6,3.2,5.3v0.1c0,2.3-1.9,3.7-3.8,3.7C67.2,173.1,66.2,172.9,65.2,172.4z"/>
	<path class="st6" d="M75.2,165.1v-0.3c0-5.6,2.1-8.4,4.4-8.4c2.4,0,4.2,2.9,4.2,7.9v1h-7.4c0.1,4.4,1.9,6.5,4,6.5
		c1,0,1.8-0.2,2.8-1l0.2,1.3c-1.1,0.6-1.9,0.9-3.1,0.9C77.7,173.2,75.2,170.5,75.2,165.1z M82.6,164.2c0-3.7-1.2-6.5-3-6.5
		c-1.7,0-3,2.3-3.1,6.5H82.6z"/>
	<path class="st6" d="M87.2,165v-0.3c0-5.6,2.5-8.2,4.9-8.2c0.8,0,1.5,0.2,1.9,0.6v1.4c-0.6-0.4-1.2-0.7-2-0.7
		c-1.7,0-3.6,2.1-3.6,6.9v0.4c0,4.9,1.9,6.8,3.7,6.8c0.7,0,1.3-0.3,1.9-0.7v1.4c-0.5,0.4-1.1,0.6-1.9,0.6
		C89.6,173.2,87.2,170.7,87.2,165z"/>
	<path class="st6" d="M98.1,170.2V158h-1.5v-1.2h1.5v-4.6h1.3v4.6h2.6v1.2h-2.6V170c0,1.4,0.6,1.8,1.7,1.8c0.3,0,0.7-0.1,1-0.2v1.2
		c-0.3,0.1-0.8,0.2-1.1,0.2C99.2,173.1,98.1,172.3,98.1,170.2z"/>
	<path class="st6" d="M104.8,165.1v-0.3c0-5.6,2.1-8.4,4.4-8.4c2.4,0,4.2,2.9,4.2,7.9v1h-7.4c0.1,4.4,1.9,6.5,4,6.5
		c1,0,1.8-0.2,2.8-1l0.2,1.3c-1.1,0.6-1.9,0.9-3.1,0.9C107.3,173.2,104.8,170.5,104.8,165.1z M112.2,164.2c0-3.7-1.2-6.5-3-6.5
		c-1.7,0-3,2.3-3.1,6.5H112.2z"/>
	<path class="st6" d="M117.8,170.2V158h-1.5v-1.2h1.5v-4.6h1.3v4.6h2.6v1.2h-2.6V170c0,1.4,0.6,1.8,1.7,1.8c0.3,0,0.7-0.1,1-0.2v1.2
		c-0.3,0.1-0.8,0.2-1.1,0.2C118.9,173.1,117.8,172.3,117.8,170.2z"/>
	<path class="st6" d="M125.3,168.1v-11.3h1.3v11.2c0,2.7,1,4.1,2.7,4.1c1.7,0,3.1-1.8,3.1-4.4v-11h1.3v16.2h-1.3v-2.4
		c-0.6,1.4-1.5,2.6-3.3,2.6C126.8,173.2,125.3,171.4,125.3,168.1z"/>
	<path class="st6" d="M137.5,165.1v-0.3c0-5.6,2.1-8.4,4.4-8.4c2.4,0,4.2,2.9,4.2,7.9v1h-7.4c0.1,4.4,1.9,6.5,4,6.5
		c1,0,1.8-0.2,2.8-1l0.2,1.3c-1.1,0.6-1.9,0.9-3.1,0.9C139.9,173.2,137.5,170.5,137.5,165.1z M144.9,164.2c0-3.7-1.2-6.5-3-6.5
		c-1.7,0-3,2.3-3.1,6.5H144.9z"/>
	<path class="st6" d="M150.1,156.7h1.3v2.4c0.6-1.5,1.9-2.7,3.8-2.6v1.4h-0.1c-2,0-3.7,1.3-3.7,4.1v10.9h-1.3V156.7z"/>
	<path class="st6" d="M164.1,168.2V168c0-3,1.5-5.2,4.3-5.2c1.1,0,2,0.3,2.7,0.6v-2c0-2.3-1-3.6-3.1-3.6c-1.1,0-2,0.2-3,0.7v-1.3
		c0.9-0.4,1.9-0.7,3.1-0.7c2.7,0,4.3,1.6,4.3,4.7v11.7h-1.3v-2.3c-0.6,1.6-1.7,2.6-3.3,2.6C165.6,173.2,164.1,171.1,164.1,168.2z
		 M171.1,167.9v-3.2c-0.9-0.4-1.7-0.6-2.7-0.6c-2,0-3,1.7-3,3.9v0.2c0,2.2,0.9,3.9,2.6,3.9C169.9,172.1,171.1,170,171.1,167.9z"/>
	<path class="st6" d="M176.2,165.1v-0.6c0-5.2,2-8.1,4.2-8.1c1.6,0,2.7,1.5,3.4,3.4v-8.7h1.3v21.8h-1.3v-3.1
		c-0.6,1.9-1.8,3.4-3.4,3.4C178.2,173.2,176.2,170.4,176.2,165.1z M183.9,165.2v-0.8c0-4.4-1.7-6.8-3.3-6.8c-1.7,0-3.1,2.5-3.1,6.9
		v0.5c0,4.4,1.4,6.9,3.1,6.9C182.2,172.1,183.9,169.6,183.9,165.2z"/>
	<path class="st6" d="M189.7,151.1h1.4v2.2h-1.4V151.1z M189.8,156.7h1.3v16.2h-1.3V156.7z"/>
	<path class="st6" d="M195.8,156.7h1.3v3.1c0.6-1.9,1.8-3.4,3.4-3.4c2.2,0,4.2,2.8,4.2,8.1v0.6c0,5.2-2,8.1-4.2,8.1
		c-1.6,0-2.7-1.5-3.4-3.4v7.1h-1.3V156.7z M203.4,165.1v-0.5c0-4.4-1.4-6.9-3.1-6.9c-1.6,0-3.3,2.5-3.3,6.8v0.8
		c0,4.3,1.7,6.8,3.3,6.8C202,172.1,203.4,169.6,203.4,165.1z"/>
	<path class="st6" d="M208.7,151.1h1.4v2.2h-1.4V151.1z M208.8,156.7h1.3v16.2h-1.3V156.7z"/>
	<path class="st6" d="M213.9,172.4V171c1.1,0.6,2.3,0.9,3.3,0.9c1.4,0,2.5-0.9,2.5-2.4v-0.1c0-1.1-0.6-2.3-2.6-4.1
		c-2.4-2.3-3.2-3.5-3.2-5.2v-0.1c0-2.3,1.8-3.5,3.7-3.5c1.1,0,1.8,0.2,2.7,0.5v1.4c-0.9-0.5-1.8-0.7-2.7-0.7c-1.3,0-2.3,0.9-2.3,2.3
		v0.1c0,1.2,0.6,2.1,2.6,4c2.3,2.3,3.2,3.6,3.2,5.3v0.1c0,2.3-1.9,3.7-3.8,3.7C215.9,173.1,215,172.9,213.9,172.4z"/>
	<path class="st6" d="M224,165v-0.3c0-5.6,2.5-8.2,4.9-8.2c0.8,0,1.5,0.2,1.9,0.6v1.4c-0.6-0.4-1.2-0.7-2-0.7
		c-1.7,0-3.6,2.1-3.6,6.9v0.4c0,4.9,1.9,6.8,3.7,6.8c0.7,0,1.3-0.3,1.9-0.7v1.4c-0.5,0.4-1.1,0.6-1.9,0.6
		C226.4,173.2,224,170.7,224,165z"/>
	<path class="st6" d="M234.6,151.1h1.4v2.2h-1.4V151.1z M234.7,156.7h1.3v16.2h-1.3V156.7z"/>
	<path class="st6" d="M240.7,156.7h1.3v2.4c0.6-1.4,1.5-2.6,3.3-2.6c2.2,0,3.7,1.8,3.7,5.1v11.3h-1.3v-11.2c0-2.7-1-4.1-2.7-4.1
		c-1.7,0-3.1,1.8-3.1,4.4v11h-1.3V156.7z"/>
	<path class="st6" d="M253.5,176.4V175c1.2,0.5,2.6,0.8,3.6,0.8c2.2,0,3.3-1,3.3-3.3v-3.8c-0.6,1.9-1.8,3.4-3.4,3.4
		c-2.2,0-4.2-2.7-4.2-7.7v-0.3c0-4.9,2.1-7.7,4.2-7.7c1.6,0,2.7,1.5,3.4,3.4v-3.1h1.3v15.7c0,3.1-1.7,4.5-4.7,4.5
		C255.9,177,254.6,176.8,253.5,176.4z M260.5,164.4v-0.3c0-4.1-1.7-6.5-3.3-6.5c-1.6,0-3.1,2.3-3.1,6.5v0.2c0,4.2,1.5,6.5,3.1,6.5
		C258.8,170.9,260.5,168.6,260.5,164.4z"/>
	<path class="st6" d="M271.9,165.1v-0.3c0-5.6,2.1-8.4,4.4-8.4c2.4,0,4.2,2.9,4.2,7.9v1h-7.4c0.1,4.4,1.9,6.5,4,6.5
		c1,0,1.8-0.2,2.8-1l0.2,1.3c-1.1,0.6-1.9,0.9-3.1,0.9C274.3,173.2,271.9,170.5,271.9,165.1z M279.3,164.2c0-3.7-1.2-6.5-3-6.5
		c-1.7,0-3,2.3-3.1,6.5H279.3z"/>
	<path class="st6" d="M284.7,151.1h1.3v21.8h-1.3V151.1z"/>
	<path class="st6" d="M290.8,151.1h1.4v2.2h-1.4V151.1z M290.9,156.7h1.3v16.2h-1.3V156.7z"/>
	<path class="st6" d="M297.3,170.2V158h-1.5v-1.2h1.5v-4.6h1.3v4.6h2.6v1.2h-2.6V170c0,1.4,0.6,1.8,1.7,1.8c0.3,0,0.7-0.1,1-0.2v1.2
		c-0.3,0.1-0.8,0.2-1.1,0.2C298.5,173.1,297.3,172.3,297.3,170.2z"/>
	<path class="st6" d="M304,175.4c1.2-0.5,1.7-1.2,1.6-2.4h-0.8v-2.5h1.9v2.2c0,1.9-0.6,2.7-2.3,3.5L304,175.4z"/>
</g>
</svg>
