<?xml version="1.0" encoding="utf-8"?>
<!-- Generator: Adobe Illustrator 22.1.0, SVG Export Plug-In . SVG Version: 6.00 Build 0)  -->
<svg version="1.1" id="Layer_1" xmlns="http://www.w3.org/2000/svg" xmlns:xlink="http://www.w3.org/1999/xlink" x="0px" y="0px"
	 viewBox="0 0 362.6 219.7" style="enable-background:new 0 0 362.6 219.7;" xml:space="preserve">
<style type="text/css">
	.st0{fill:#FFFFFF;}
	.st1{fill:#F9B4AC;}
	.st2{opacity:0.8;}
	.st3{fill:#F48289;}
	.st4{fill:#961A1E;}
</style>
<g>
	<path class="st0" d="M223.9,218.9c-4.1,0-7.5-0.8-10.6-2.6c-1.3-0.7-2.5-1.6-3.6-2.6c-0.9-0.3-1.9-0.6-2.8-1
		c-0.5-0.3-1.1-0.6-1.6-0.9c-10.6,4.5-22,4.2-31.6,3.9c-4.2-0.1-8.4-0.2-12.1,0.1c-18.2,1.3-36.4-0.8-53.8-6.2
		c-10-3.1-24.1-8.8-32-22.1c-6.1-10.4-6.1-21.7-5.5-30.5c0.4-4.9-1.2-8.9-4.3-16l-0.7-1.7c-0.2-0.4-0.3-0.8-0.5-1.2
		c-5.5,0.2-10.9-1.3-15.4-4.3c-2.2-1.5-3.9-3.1-5.3-4.4c-0.7-0.7-1.5-1.4-1.9-1.7c-0.2-0.2-0.9-0.5-1.4-0.8
		c-1.4-0.7-3.4-1.7-5.3-3.2c-6.5-5.1-8.9-12.4-10.4-17.3l-0.4-1.2c-0.1-0.2-0.1-0.4-0.2-0.5c-3.4,0.4-6.7,0.2-9.9-0.7
		c-5.8-1.6-10.8-5.9-13.2-11.3c-2.1-4.7-2-10,0.3-14.5c4.4-8.6,13.4-9.6,17.2-9.9c0.6-0.1,1.3-0.1,1.6-0.2c0.7-0.1,2.4-1.5,6.4-7.1
		c3.5-5,10.9-15.5,23.4-17.2c7.9-1.1,14.7,1.8,19.2,3.7l12.6,5.3c10.7-14.7,26-26,43.9-32.1c30.1-10.4,63.3-7.4,87.7,7.3
		c0.7-1.1,1.3-2.3,2-3.5c1.4-2.6,3-5.4,4.9-8.2c6-8.9,13.7-14.3,22.3-15.8c15.1-2.6,27.6,8.2,31.7,11.7l1.6,1.4
		c4.1,3.6,8.4,7.3,11.8,7.8c6.9,0.9,11.5,4.1,13.7,9.4c3.1,7.4-0.2,15.8-7.9,20c-3,1.7-6.4,2.8-9.9,3.2c0.1,0.3,0.2,0.7,0.3,1
		c1.4,4.3,4,12.2-1.2,20c-1,1.5-2.7,3.4-5.2,5.1c-0.2,1.1-0.4,2.1-0.8,3.2c6.9-0.8,14-0.3,20.9,1.5c1.1-1,2.4-1.9,3.6-2.7
		c2.8-1.7,5.9-2.9,9.1-3.5c5.7-6.3,14.2-9.6,23-8.7c5.1,0.5,9.3,4,10.8,8.8c1.3,4,0.5,8.2-2,11.5c1.6,2.3,2.6,4.9,3.2,7.7
		c1.1,5.4-0.2,11.2-3.5,15.8c-1.3,1.8-2.8,3.3-4.4,4.5c0.3,0.5,0.5,1.1,0.8,1.6c5.4,11.6,7.8,25.3,6.8,39.1l6.8,5.3
		c2.3,1.9,5.4,4.6,7.8,8.6l0,0c3.6,6.2,3.8,13.7,0.6,19.5c-0.7,1.3-1.6,2.5-2.6,3.6c-0.3,1.4-0.7,2.7-1.3,4
		c-2.6,5.7-7.9,9.9-14.6,11.5c-2.1,0.5-4.4,0.8-6.9,0.8c-1.8,0-3.5-0.1-4.7-0.2c-9.4-0.7-19.5-1.8-29.4-5.9c-2.4-1-4.5-2-6.4-3.2
		c-10.6,3.3-21.7,5.2-32.6,5.5c-1.1,0.7-2.3,1.3-3.4,1.9c-9.1,4.6-20.2,7.7-31.1,8.6C226.3,218.8,225.1,218.9,223.9,218.9z
		 M222.4,189.8l2.5,7c0.2,0,0.3,0,0.5,0c8.2-0.7,16.4-2.9,23-6.3c1.3-0.7,2.6-1.4,3.7-2.2l2.9-2.1l3.9,0c11.3,0,22.9-2.1,33.6-6.1
		l6.5-2.4l5,4.8c1.1,1.1,2.9,2.1,5.1,3.1c7,2.9,15.1,3.7,22.8,4.3c1.1,0.1,2.3,0.2,3.3,0.2l-2.4-7.8l5.1-1.4l-16.2-12.6l1-6.4
		c1.8-11.7,0.3-23.4-4.2-33c-2.8-6-6.9-11.3-11.8-15.4l-4.5-3.8l-5.1-2.2c-0.7-0.3-1.3-0.6-1.9-0.8c-9.3-3.4-19.7-2.6-27.8,2.1
		l-11.6,6.7l-4.3-12.6c-1.1-3.1-2.5-5.9-4.2-8.4l-9.8-14.2l17-2.9c0.3-0.1,0.5-0.1,0.5-0.1c0.2-0.1,0.7-0.6,0.9-0.9l-7.3-15.7
		L263,61c-0.2-0.6-0.4-1.2-0.6-1.9c-2.1-7.7-0.6-16.2,4.1-22.8l0.9-1.3c-2.1-1.6-4-3.3-5.8-4.8l-1.6-1.4c-5.7-5-10.3-7.2-13.5-6.7
		c-2.5,0.4-5.3,2.8-7.8,6.5c-1.3,2-2.5,4.2-3.8,6.5c-1.6,2.8-3.3,6-5.5,9l-0.1,0.2c-1.2,1.6-2.9,4.1-5.3,6.5l-7,7.2l-7.8-6.4
		c-19-15.5-48.8-19.5-76-10.1C117.4,46.9,103.8,58,96,71.9l-4.8,8.6L61,67.8c-2.6-1.1-5.7-2.4-7.6-2.2c-3,0.4-6.6,5.6-8.4,8.1
		c-2.1,2.9-4.9,7-8.9,10.3c6.3,4.4,8.6,11.8,9.5,14.5l0.4,1.2c0.8,2.4,1.8,5.7,2.9,6.6c0.3,0.3,1.1,0.7,1.9,1c1.1,0.5,2.2,1.2,3.5,2
		c2,1.3,3.6,2.8,4.9,4.1c0.9,0.9,1.7,1.6,2.4,2.1c1.3,0.8,3.5,0.8,4.9-0.1l14.6-9.7l2.4,17.3c0.4,2.8,1.1,5.3,2,7.6l0.7,1.6
		c3.4,7.8,6.8,15.8,6.1,26.3c-0.4,5.6-0.5,12.6,2.5,17.8c4,6.8,13,10.2,19.5,12.2c14.8,4.6,30.2,6.4,45.7,5.2
		c4.8-0.3,9.5-0.2,14.2-0.1c10.9,0.3,20.3,0.5,27.1-4.8l14.5-11.4l2.3,13.4L222.4,189.8z M340.7,183.6
		C340.7,183.6,340.7,183.6,340.7,183.6C340.7,183.6,340.7,183.6,340.7,183.6z M266.7,61C266.7,61,266.7,61,266.7,61
		S266.7,61,266.7,61z"/>
</g>
<g id="pig_1_">
	<g>
		<path class="st1" d="M223.9,207.3c-2.1,0-3.7-0.4-5-1.1c-1.3-0.7-2.3-1.9-2.8-3.3l-0.2-0.5l-0.5,0.1c-0.4,0.1-0.9,0.2-1.3,0.2
			c-0.7,0-1.5-0.2-2.1-0.5c-1.7-0.8-2.9-2.6-3.3-4.8l-0.2-0.9l-0.8,0.6c-8,6.3-17.7,7.2-26.9,7.2c-2.3,0-4.6-0.1-6.8-0.1
			c-2.3-0.1-4.5-0.1-6.7-0.1c-2.5,0-4.6,0.1-6.5,0.2c-3.3,0.2-6.6,0.4-9.9,0.4c-13.4,0-26.8-2-39.7-6c-8.1-2.5-19.6-7-25.4-16.9
			c-4.5-7.6-4.4-16.7-3.9-23.8c0.6-8-2.1-14.2-5.2-21.4l-0.7-1.7c-1.3-3.1-2.3-6.5-2.8-10.3l-0.1-0.9l-0.8,0.5
			c-2.4,1.6-5.4,2.5-8.4,2.5c-2.9,0-5.7-0.8-8-2.4c-1.4-0.9-2.6-2.1-3.8-3.2c-1.2-1.1-2.3-2.1-3.5-3c-0.8-0.5-1.6-0.9-2.5-1.4
			c-1.2-0.6-2.4-1.2-3.5-2.1c-3.7-2.9-5.2-7.5-6.5-11.7l-0.4-1.2c-1.8-5.5-4-8.6-6.9-9.9l-0.2-0.1l-0.2,0.1c-2.6,1-4.8,1.5-7,1.5
			c-1.2,0-2.5-0.2-3.6-0.5c-2.5-0.7-4.7-2.6-5.7-4.8c-0.7-1.6-0.7-3.2,0-4.6c1.5-3,5.2-3.4,8.1-3.7c0.9-0.1,1.7-0.2,2.5-0.3
			c5.8-1,9.8-6.2,13.8-11.8c3.9-5.5,8.6-11.4,15.5-12.4c0.6-0.1,1.3-0.1,1.9-0.1c4,0,8,1.7,11.2,3l21.6,9.1l0.3-0.4
			c9.2-16.4,24.4-28.9,42.9-35.2c10.7-3.7,21.8-5.5,33-5.5c20.4,0,39.2,6.2,53,17.5l0.4,0.3l0.4-0.4c1.8-1.9,3.2-3.8,4.3-5.3L221,38
			c1.8-2.5,3.3-5.3,4.8-8c1.4-2.5,2.7-5,4.3-7.3c2.9-4.3,7.9-9.7,14.7-10.9c0.9-0.2,1.9-0.2,2.8-0.2c7.7,0,14.7,5.3,19.3,9.3
			l1.6,1.4c5.4,4.7,11,9.6,17.8,10.5c1.6,0.2,3.8,0.5,4.7,2.4c0.9,2.1-0.8,4.2-2.8,5.3c-2.4,1.3-5.2,2-8.1,2c-1.5,0-3-0.2-4.4-0.6
			l-0.4-0.1l-0.2,0.3c-2.8,4-3.8,9.4-2.5,14.1c0.2,0.7,0.4,1.4,0.7,2.1c1.1,3.3,2.2,6.9,0.2,9.9c-1.4,2.1-3.7,3.1-7.2,3.1l-1.1,0
			l0.4,0.8c1,2.2,1.2,4.8,0.4,7.2c-1.1,3.4-4.2,6.6-7.5,7.7c-0.7,0.2-1.4,0.4-2.2,0.5l-0.9,0.1l0.5,0.7c2.2,3.3,4.1,6.9,5.4,10.9
			l0.2,0.7l0.6-0.3c6.3-3.6,13.6-5.5,21.2-5.5c5.3,0,10.5,0.9,15.4,2.7c0.8,0.3,1.6,0.6,2.5,1l0.5,0.2l0.2-0.5
			c1.3-2.5,3.3-4.6,5.6-6c2.4-1.5,5.3-2.3,8.2-2.3c0.3,0,0.5,0,0.8,0l0.4,0l0.2-0.3c0.1-0.3,0.3-0.5,0.4-0.8
			c2.7-4.5,7.7-7.3,13.2-7.3c0.5,0,1.1,0,1.7,0.1c0.5,0,0.8,0.4,1,0.8c0.1,0.4,0,0.9-0.3,1.2c-3.1,2.7-5.2,5.4-6.2,7.9l-0.2,0.5
			l0.5,0.2c3.7,1.4,6.5,4.5,7.2,8c0.4,2.3-0.1,4.9-1.6,6.9c-1.3,1.8-3.2,3-5.2,3.3c-0.3,0-0.7,0.1-1.1,0.1c-3.1,0-6.3-1.9-8.4-5
			c-0.6-0.9-1.1-1.9-1.5-2.9l-0.3-0.6l-0.6,0.4c-1.1,0.7-2,1.8-2.4,3l-0.1,0.4l0.3,0.2c6.1,5.1,11.1,11.6,14.5,19
			c5.3,11.4,7.2,25.2,5.1,39l-0.1,0.3l11.6,9c1.8,1.5,3.9,3.3,5.2,5.6c1.6,2.7,1.8,5.8,0.5,8.1c-0.7,1.3-2.1,2.4-3.7,2.8l-0.6,0.2
			l0.2,0.6c0.5,1.6,0.4,3.4-0.3,4.9c-1.1,2.5-3.6,4.3-6.7,5.1c-1.2,0.3-2.6,0.4-4.2,0.4c-1.3,0-2.6-0.1-3.8-0.2
			c-8.5-0.7-17.5-1.6-25.9-5c-3.6-1.5-6.3-3.2-8.4-5.2l-0.3-0.3l-0.3,0.1c-11.8,4.4-24.7,6.8-37.2,6.8l-0.6,0l-0.2,0.1
			c-1.6,1.1-3.2,2.1-5,3c-7.8,4-17.4,6.6-26.9,7.4C225.6,207.2,224.7,207.3,223.9,207.3z"/>
		<g class="st2">
			<path class="st3" d="M74.7,111.3c1.9-14.1,5.8-28,11.6-41c0.7-1.7,1.5-3.5,1.7-5.3c-0.4,0.6-0.7,1.2-1.1,1.8l-0.3,0.4L66.9,59
				c-0.9-0.1-1.6-0.2-1.7-0.3c2,2.9,4,6,4.5,9.5c0.5,3.5-0.9,7.6-4.2,8.9c-1.7,0.7-3.6,0.6-5.4,0.6c-8.7-0.1-17.3,2.3-24.7,6.8
				c-4.5,2.8-8.7,6.3-13.7,8.1c-1,0.3-1.9,0.5-2.8,0.6c0.7,0.1,1.5,0.2,2.3,0.2c2.2,0,4.4-0.5,7-1.5l0.2-0.1l0.2,0.1
				c3,1.3,5.2,4.4,6.9,9.9l0.4,1.2c1.3,4.1,2.8,8.8,6.5,11.7c1.1,0.9,2.3,1.5,3.5,2.1c0.9,0.5,1.7,0.9,2.5,1.4
				c1.2,0.8,2.3,1.9,3.5,3c1.2,1.1,2.4,2.3,3.8,3.2c2.3,1.5,5.1,2.4,8,2.4c3,0,6-0.9,8.4-2.5l0.8-0.5l0.1,0.9
				c0.2,1.1,0.4,2.3,0.6,3.4c0-2.1-0.2-4.3-0.1-6.1C73.9,118.3,74.2,114.8,74.7,111.3z"/>
			<path class="st3" d="M266.2,78.2c0.4-2,0.1-4.1-0.7-5.9l-0.4-0.8l1.1,0c3.4,0,5.8-1,7.2-3.1c2.1-3,0.9-6.6-0.2-9.9
				c-0.2-0.7-0.5-1.4-0.7-2.1c-0.8-3-0.5-5.8,0.1-8.8c0.1-0.6,1.8-7,2.4-6.5c-6.5-5.1-14.8-12.2-23.8-9c-4.1,1.5-6.9,5.1-9,8.9
				c-2,3.8-3.5,7.9-5.9,11.5c-2.4,3.6-6.1,6.7-10.4,6.9c2.9-0.2,5.8,1.2,7.5,3.5c1.7,2.3,2.1,5.5,1,8.2c4.4-0.1,7.4,4.4,11,7
				C251.4,82.1,259.6,81,266.2,78.2z"/>
			<path class="st3" d="M325.9,120.6c-3.3-5.8-7.5-10.9-12.5-15.1l-0.3-0.2l0.1-0.4c0.4-1.2,1.2-2.3,2.4-3l0.6-0.4l0.3,0.6
				c0.3,0.7,0.7,1.4,1,2.1c-0.9-2.3-1.1-4.9-1.2-7.4c0-2.5,0-5-0.4-7.5c-0.1,0-0.2,0-0.2,0c-2.9,0-5.8,0.8-8.2,2.3
				c-2.3,1.4-4.3,3.6-5.6,6l-0.2,0.5l-0.5-0.2c-0.9-0.4-1.7-0.7-2.5-1c-0.1,0-0.2-0.1-0.2-0.1c0,0-0.1,0-0.1,0.1
				C308.9,103.2,318.2,111.2,325.9,120.6z"/>
			<path class="st3" d="M345.9,194.9c0.7-1.5,0.8-3.3,0.3-4.9l-0.2-0.6l0.6-0.2c1.5-0.4,2.9-1.5,3.7-2.8c1.3-2.3,1.1-5.4-0.5-8.1
				c-1.3-2.3-3.4-4.1-5.2-5.6l-11.6-9l0.1-0.3c0.7-4.5,0.9-9.1,0.8-13.5c-3.5,2.6-8.9,3-13.5,2.7c-15.5-1.1-31.6-6.3-41.5-18.2
				c-9.1-10.9-11.2-28.2-3-39.4c-4.7,0.8-14.1,2.7-15.6,8.3c-0.6,2.2-0.1,4.5,0.1,6.8c0.9,8.1-1.2,15-3.9,22.5
				c-2.2,6.3-3.3,10.9-8.2,16.1c-13.1,14.1-35.2,19-53.1,11.8c-9.8,10.5-24.1,15.4-37.7,20c-3.8,1.3-7.6,2.5-11.6,2.4
				c-4-0.1-8.1-1.8-10-5.3c-5.5,4.3-12.2,6.8-19.1,7.6c-6,0.7-12.2,0.1-18-1.7c-2.9-0.9-5.7-2.2-8.3-3.7c-1.9-1.2-5.1-5-7-5.5
				c-0.1,0-0.3-0.1-0.4-0.1c0.6,2.6,1.6,5.2,3,7.6c5.8,9.9,17.3,14.4,25.4,16.9c12.9,4,26.2,6,39.7,6c3.3,0,6.6-0.1,9.9-0.4
				c1.9-0.1,4-0.2,6.5-0.2c2.2,0,4.5,0.1,6.7,0.1c2.2,0.1,4.5,0.1,6.8,0.1c6.9,0,15.2-0.2,21.3-3.7c5.8-3.3,10.6-11.6,15-16.7
				c3.1-3.7,6.2-7.3,10.1-10.2c3.8-2.9,8.5-4.9,13.3-4.7c4.8,0.2,9.6,2.8,11.6,7.2c1.5,3.5,1.1,7.6-0.4,11c-2.1,4.9-6,8.8-10.4,11.8
				c-4.4,2.9-9.4,5-14.3,7c5-2.1,11.5-2.2,16.8-3.9c5.2-1.6,10.6-5,16-5.3c12.8-0.8,24.5-2.7,36.3-7.4c-1.2-3-2.4-6-2.9-9.2
				c-0.4-3.2,0.1-6.6,2.1-9.2c3.7-4.8,10.9-4.9,16.9-4c9.9,1.5,23.1,6,25.7,17c1.3,5.6-0.5,11.9-4.8,15.9c0.4-0.4,6.2,0,7.4-0.5
				C342.7,198.5,344.9,197.1,345.9,194.9z"/>
			<path class="st3" d="M323.4,109.5c1,0.4,2,0.6,3,0.6c0.4,0,0.7,0,1.1-0.1c2-0.3,3.9-1.5,5.2-3.3c1.4-2,2-4.6,1.6-6.9
				c-0.7-3.4-3.5-6.6-7.2-8l0,0c-0.7,0.9-1.1,1.9-1,3.2c0.1,4,4.5,7.3,3.6,11.2C329,108.8,326.1,109.9,323.4,109.5z"/>
		</g>
		<g>
			<path class="st4" d="M226,196.5c-1.7-1.3-3.8-1.8-5.8-2.2c0.5-1.2-0.2-2.6-1.3-3.2c-1.1-0.6-2.4-0.6-3.7-0.3
				c-6.4,1.9-5,13.3,1.4,9.4c1.1,2.4,2.7,4.7,5.5,5.3c2.6,0.6,5.7-1,6.3-3.6C228.9,199.9,227.7,197.8,226,196.5z"/>
			<path class="st4" d="M345.6,181.7c-1.8-1-4.1-1.1-5.8-0.1s-2.7,3.3-2.2,5.2c-1.7-1.1-4.1-0.5-5.3,1.1c-1.2,1.6-1.1,3.9-0.1,5.7
				c1,1.7,2.8,2.9,4.8,3.4c3,0.7,5.8,0.7,7.4-2.1c0.9-1.7,1.3-5.7-0.4-7.2c1.3,1.2,3.7,0,4-1.7C348.2,184.3,347.1,182.6,345.6,181.7
				z"/>
		</g>
		<g>
			
				<ellipse transform="matrix(0.9331 -0.3597 0.3597 0.9331 -46.9231 49.21)" class="st0" cx="108.8" cy="150.7" rx="14.5" ry="17.6"/>
			<ellipse class="st0" cx="195.5" cy="125.4" rx="17.2" ry="19.9"/>
		</g>
	</g>
	<g>
		<g>
			<path class="st4" d="M121.4,143.1c3.4,5.7,2.2,12.6-2.7,15.5c-5,2.9-11.8,0.5-15.2-5.2c-3.4-5.7-2.2-12.6,2.7-15.5
				C111.1,135.1,117.9,137.4,121.4,143.1z"/>
			<path class="st4" d="M111.4,167.7c0,0-0.4,0-1.1,0.1c-0.7,0-1.8,0.1-3.1-0.2c-1.3-0.2-2.9-0.7-4.6-1.5c-1.7-0.8-3.4-2.1-5.1-3.8
				c-1.6-1.7-3.1-3.8-4.2-6.3c-0.1-0.3-0.3-0.6-0.4-0.9c-0.1-0.3-0.2-0.7-0.3-1c-0.2-0.7-0.4-1.4-0.6-2.1c-0.3-1.4-0.5-2.9-0.5-4.4
				c0-3,0.6-6.2,2.4-9c0.8-1.4,1.9-2.7,3.2-3.8c0.6-0.6,1.3-1,2.1-1.5l1.1-0.6l0.3-0.1l0.1,0c-0.1,0,0.1-0.1,0.1-0.1l0,0l0.1,0
				l0.5-0.2c0.6-0.3,1.6-0.5,2.4-0.6c0.8-0.1,1.7-0.2,2.5-0.2c1.7,0,3.3,0.3,4.8,0.8c3.1,1,5.7,2.9,7.8,5c2.1,2.2,3.6,4.7,4.5,7.2
				c0.2,0.6,0.4,1.2,0.6,1.9c0.2,0.7,0.3,1.3,0.4,1.9c0.2,1.2,0.3,2.5,0.3,3.6c0,2.3-0.5,4.5-1.1,6.2c-0.7,1.8-1.5,3.2-2.4,4.2
				c-0.9,1-1.7,1.7-2.2,2.1c-0.6,0.4-0.9,0.6-0.9,0.6s0.3-0.3,0.8-0.8c0.5-0.5,1.1-1.3,1.8-2.4c0.7-1.1,1.3-2.5,1.7-4.2
				c0.4-1.7,0.6-3.7,0.4-5.8c-0.1-1.1-0.3-2.1-0.6-3.2c-0.2-0.5-0.3-1.1-0.5-1.6c-0.2-0.5-0.4-1.1-0.7-1.7c-1-2.1-2.4-4.3-4.3-6
				c-0.9-0.9-2-1.7-3.1-2.4c-1.1-0.6-2.3-1.2-3.6-1.6c-1.2-0.4-2.5-0.6-3.8-0.6c-0.6,0-1.3,0.1-1.9,0.1c-0.6,0.2-1.1,0.2-1.9,0.5
				l-0.5,0.2l-0.1,0l0,0c0,0,0.2-0.1,0.1,0l-0.1,0l-0.2,0.1l-0.9,0.4c-0.5,0.4-1.1,0.7-1.6,1.1c-1,0.8-1.8,1.8-2.5,2.9
				c-1.4,2.2-2.1,4.8-2.2,7.3c0,1.3,0,2.5,0.3,3.8c0.1,0.6,0.2,1.2,0.4,1.8c0.1,0.3,0.1,0.6,0.2,0.9c0.1,0.3,0.2,0.6,0.3,0.9
				c0.8,2.2,2,4.3,3.3,5.9c1.3,1.6,2.8,3,4.3,3.9c1.5,1,2.9,1.6,4.1,2c0.6,0.2,1.2,0.3,1.6,0.5c0.5,0.1,0.9,0.2,1.3,0.2
				C111,167.7,111.4,167.7,111.4,167.7z"/>
		</g>
		<g>
			
				<ellipse transform="matrix(0.903 -0.4296 0.4296 0.903 -32.7273 97.2873)" class="st4" cx="199.1" cy="121.1" rx="11.8" ry="13.3"/>
			<path class="st4" d="M190.5,144.3c0,0-0.4-0.1-1.1-0.4c-0.7-0.3-1.8-0.7-3.1-1.4c-1.3-0.8-2.7-1.9-4.1-3.4
				c-1.4-1.6-2.7-3.6-3.7-6c-1-2.4-1.6-5.3-1.6-8.2c0-3.1,0.6-6.3,2.1-9.3c1.4-3,3.7-5.8,6.6-7.9c1.5-1,3.1-1.8,4.9-2.3
				c1.7-0.5,3.6-0.8,5.4-0.7l0.6,0l0.7,0.1c0.5,0.1,1,0.1,1.4,0.2c0.9,0.2,1.8,0.4,2.6,0.7c1.7,0.6,3.3,1.5,4.8,2.5
				c2.9,2.1,5,5,6.4,8c1.4,3,1.9,6.3,1.9,9.3c0,0.4,0,0.7,0,1.1c0,0.4-0.1,0.8-0.1,1.1c-0.1,0.8-0.2,1.5-0.3,2.2
				c-0.1,0.7-0.4,1.4-0.5,2c-0.2,0.6-0.4,1.3-0.7,1.9c-1,2.4-2.4,4.4-3.9,5.9c-1.4,1.5-3,2.6-4.2,3.3c-1.3,0.7-2.4,1.1-3.2,1.3
				c-0.8,0.2-1.2,0.3-1.2,0.3s0.4-0.2,1.1-0.5c0.7-0.3,1.7-0.9,2.9-1.7c1.1-0.9,2.4-2,3.6-3.6c1.2-1.5,2.3-3.5,3-5.7
				c0.2-0.6,0.3-1.2,0.5-1.7c0.1-0.6,0.3-1.2,0.3-1.8c0.1-0.6,0.2-1.3,0.2-1.9c0-0.3,0-0.6,0-1c0-0.4,0-0.7,0-1.1
				c-0.1-2.6-0.8-5.5-2.1-8c-0.6-1.3-1.5-2.5-2.4-3.7c-0.5-0.5-1-1.1-1.5-1.6l-0.8-0.7l-0.9-0.7c-1.2-0.9-2.5-1.6-3.9-2
				c-0.7-0.3-1.4-0.4-2.1-0.6l-1-0.1l-0.5-0.1l-0.6,0c-1.5-0.1-3,0.2-4.4,0.5c-1.4,0.4-2.8,1.1-4,1.8c-2.4,1.7-4.5,3.9-5.8,6.5
				c-1.3,2.5-2.1,5.3-2.2,8c0,0.4,0,0.7,0,1.1l0,0.5c0,0.1,0,0.3,0,0.4c0,0.7,0.1,1.3,0.1,1.9c0.1,1.3,0.4,2.5,0.7,3.6
				c0.7,2.3,1.7,4.2,2.9,5.8c1.1,1.6,2.4,2.8,3.5,3.7c0.5,0.5,1.1,0.8,1.5,1.1c0.5,0.3,0.9,0.5,1.2,0.7
				C190.1,144.1,190.5,144.3,190.5,144.3z"/>
		</g>
		<g>
			<path class="st4" d="M241.1,40.9c-0.7,1.1-1.3,2.2-1.8,3.4c-0.5,1.2-1,2.3-1.4,3.4c-0.2,0.6-0.5,1.1-0.7,1.6
				c-0.2,0.5-0.5,1.1-0.8,1.5c-0.2,0.3-0.3,0.5-0.5,0.8l-0.4,0.6c-0.3,0.4-0.7,0.9-1,1.3c-0.7,0.8-1.6,1.5-2.5,2.2
				c-0.9,0.6-1.8,1.2-2.8,1.6c-0.5,0.2-1,0.4-1.5,0.6c-0.5,0.2-1.1,0.3-1.6,0.4l-0.1,0c-0.5,0.1-1,0.5-1.2,1c-0.3,0.8,0.1,1.8,1,2.1
				c1.4,0.5,2.8,1,4,1.6c0.6,0.3,1.2,0.6,1.8,1c0.6,0.4,1.1,0.8,1.5,1.2c0.1,0.1,0.2,0.3,0.4,0.4l0.3,0.3c0.2,0.3,0.4,0.5,0.5,0.8
				c0.3,0.6,0.6,1.2,0.7,1.9c0.1,0.7,0.2,1.4,0.1,2.1c-0.1,0.3-0.2,0.7-0.3,1c-0.1,0.3-0.3,0.7-0.5,1c0.3-0.2,0.6-0.5,0.9-0.8
				c0.3-0.3,0.5-0.6,0.7-1c0.4-0.7,0.5-1.6,0.6-2.4c0-0.8-0.1-1.7-0.3-2.5c-0.1-0.4-0.3-0.8-0.5-1.2l-0.3-0.6
				c-0.1-0.2-0.2-0.3-0.3-0.5c-1-1.4-2.3-2.5-3.7-3.3c-0.1-0.1-0.2-0.1-0.3-0.2c0.5-0.2,1-0.5,1.5-0.8c0.6-0.3,1.2-0.7,1.7-1.1
				c0.5-0.4,1.1-0.8,1.6-1.3c0.5-0.5,0.9-1,1.4-1.5c0.4-0.5,0.8-1.1,1.2-1.7c0.2-0.3,0.4-0.6,0.5-0.9c0.2-0.3,0.3-0.6,0.4-0.8
				c0.3-0.7,0.5-1.2,0.7-1.9c0.2-0.6,0.4-1.2,0.5-1.8c0.3-1.2,0.6-2.4,0.8-3.6c0.3-1.2,0.5-2.3,1-3.4c0.2-0.6,0.4-1.1,0.7-1.6
				l0.4-0.8l0.5-0.8c-0.5,0.3-1,0.7-1.5,1.2C241.9,39.9,241.4,40.3,241.1,40.9z"/>
			<path class="st4" d="M350.3,178.1c-1.4-2.4-3.5-4.2-5.4-5.8l-11.3-8.8c2.1-13.8,0.3-27.8-5.1-39.3c-3.5-7.5-8.6-14.1-14.7-19.2
				c0.3-1.1,1.1-2.1,2.1-2.7c0.4,1.1,1,2.1,1.6,3c2.2,3.3,5.6,5.2,8.9,5.2c0.4,0,0.8,0,1.1-0.1c2.2-0.3,4.2-1.6,5.6-3.6
				c1.5-2.1,2.1-4.9,1.7-7.3c-0.7-3.7-3.7-6.9-7.5-8.4c1-2.5,3.1-5.1,6.1-7.7c0.5-0.4,0.7-1.2,0.5-1.8c-0.2-0.7-0.8-1.1-1.5-1.2
				c-6.3-0.6-12.3,2.3-15.4,7.5c-0.2,0.3-0.3,0.5-0.4,0.8c-3.2-0.2-6.5,0.7-9.3,2.4c-2.4,1.5-4.4,3.7-5.8,6.3
				c-0.8-0.4-1.7-0.7-2.5-1c-12.4-4.5-26.3-3.4-37.1,2.9c-1.4-4-3.2-7.7-5.5-11.1c0.8-0.1,1.5-0.3,2.3-0.6c3.5-1.2,6.7-4.5,7.9-8.1
				c0.9-2.6,0.6-5.3-0.4-7.6c0.1,0,0.1,0,0.1,0c2.9,0,5.9-0.7,7.6-3.3c2.2-3.3,1-7-0.1-10.3c-0.2-0.7-0.5-1.5-0.7-2.2
				c-1.2-4.6-0.3-9.7,2.5-13.6c4.3,1.1,9.1,0.6,12.9-1.5c2.3-1.2,4.1-3.6,3-6.1c-0.9-2.2-3.4-2.6-5.1-2.8
				c-6.6-0.9-12.2-5.7-17.5-10.4l-1.6-1.4c-5.4-4.7-13.7-10.7-22.6-9.2c-7,1.2-12,6.7-15,11.1c-1.6,2.4-3,4.9-4.4,7.3
				c-1.5,2.7-3,5.4-4.8,7.9c-1,1.4-2.5,3.5-4.4,5.4c-21.8-17.9-55.8-22.6-86.5-12c-18,6.2-33.8,18.6-43.2,35.5l-21.1-8.9
				c-3.8-1.6-8.5-3.6-13.4-2.9c-7.1,1-11.9,7-15.9,12.6c-3.9,5.5-7.9,10.6-13.4,11.5c-0.8,0.1-1.6,0.2-2.5,0.3
				c-3.1,0.3-6.9,0.7-8.6,4c-0.8,1.6-0.8,3.4-0.1,5.1c1,2.4,3.4,4.4,6,5.1c1.3,0.3,2.5,0.5,3.8,0.5c2.4,0,4.8-0.6,7.2-1.6
				c2.8,1.2,4.9,4.2,6.6,9.5l0.4,1.2c1.3,4.2,2.9,9,6.7,12c1.1,0.9,2.4,1.5,3.6,2.1c0.9,0.4,1.7,0.9,2.4,1.4
				c1.2,0.8,2.3,1.8,3.4,2.9c1.2,1.1,2.4,2.3,3.8,3.3c2.5,1.7,5.4,2.5,8.4,2.5c3.1,0,6.2-0.9,8.7-2.6c0.5,3.5,1.4,7.1,2.8,10.4
				l0.7,1.7c3.1,7.1,5.8,13.3,5.2,21.1c-0.5,7.2-0.5,16.4,4,24.1c5.9,10.1,17.5,14.6,25.7,17.2c13,4,26.3,6.1,39.8,6.1
				c3.3,0,6.6-0.1,9.9-0.4c4.3-0.3,8.8-0.2,13.2-0.1c11.9,0.3,24.2,0.6,34-7.2c0.4,2.3,1.7,4.3,3.6,5.2c1.2,0.6,2.5,0.7,3.8,0.3
				c0.5,1.5,1.7,2.9,3.1,3.6c1.7,0.9,3.5,1.2,5.3,1.2c0.8,0,1.7-0.1,2.5-0.1c9.6-0.8,19.2-3.5,27.1-7.5c1.6-0.8,3.3-1.8,5.1-3.1
				c0.2,0,0.3,0,0.5,0c12.7,0,25.6-2.4,37.4-6.8c2.1,2.1,5,3.9,8.6,5.3c8.5,3.5,17.5,4.4,26.1,5.1c1.2,0.1,2.5,0.2,3.8,0.2
				c1.4,0,2.9-0.1,4.4-0.5c3.3-0.8,5.9-2.8,7.1-5.4c0.8-1.7,0.8-3.6,0.3-5.3c1.7-0.5,3.2-1.6,4-3.1
				C352.1,184.3,351.9,181,350.3,178.1z M319.9,89.8c1.7-2.9,4.6-4.8,7.8-5.6c-1.7,1.9-2.9,3.9-3.7,5.8c-1.2,3-1.7,7.1,0.8,9.6
				c0.4,0.4,1,0.8,1.6,0.9c0.6,0.1,1.3-0.1,1.6-0.6c-0.5-0.9-0.7-1.8-1-2.7c-0.1-0.3-0.5-2.6-0.5-2.6c2.5,1.1,4.4,3.2,4.8,5.6
				c0.3,1.5-0.1,3.3-1.1,4.7c-0.9,1.2-2,2-3.3,2.1c-2.8,0.4-5.3-1.7-6.7-3.7C317.6,99.6,317.4,93.9,319.9,89.8z M309,94.1
				c1.8-1.1,4-1.8,6.2-1.9c-0.6,2.2-0.6,4.5-0.3,6.8c-1.7,0.8-3.1,2.2-4,3.9c-2-1.5-4.2-2.8-6.4-4C305.6,97,307.1,95.3,309,94.1z
				 M347.7,185.1c-0.4,0.7-1.2,1.3-2,1.5c-0.3,0.1-0.9,0.1-1.4-0.1c-0.2-0.1-0.3-0.2-0.5-0.3c-0.8-0.4-1.8-0.2-2.3,0.6
				c-0.5,0.8-0.3,1.8,0.4,2.3c0.2,0.1,0.4,0.2,0.5,0.4c1.2,0.9,1.4,2.9,0.8,4.3c-0.7,1.6-2.5,2.9-4.8,3.5c-2.1,0.5-4.4,0.4-7.1,0.2
				c-8.3-0.6-17.1-1.5-25-4.8c-4.5-1.8-7.5-4.1-9.4-6.8c-1.8-2.8-3.9-6.4-3.2-12c-2.8,3.7-2.6,9.4,0.3,13.9
				c-10,3.6-20.7,5.8-31.4,6.1c2.2-2.2,4.2-4.8,5.7-8c2-4.5,0.9-9.1-2.8-10.3c1.9,3.1,0.4,7.2-0.3,8.8c-3,6.6-8.9,10.6-13.4,12.9
				c-7.5,3.8-16.7,6.3-25.8,7.1c-2,0.2-4.2,0.3-5.8-0.6c-0.8-0.4-1.4-1.2-1.6-2.1c-0.1-0.3-0.1-0.6,0-0.9c0.2-0.3,0.3-0.6,0.4-0.9
				c0.3-0.8-0.1-1.7-0.9-2.1c-0.8-0.4-1.7-0.1-2.2,0.7c-0.2,0.2-0.3,0.5-0.4,0.8c-0.2,0.2-0.4,0.3-0.6,0.4c-0.6,0.2-1.2,0.2-1.7,0
				c-1.2-0.6-1.8-2.1-1.8-3.4c0-1.7,0.7-3.5,1.4-4.9c4.4-8.9,13.1-19.5,27.5-22.5c-13.7-1.9-26,11.8-30.6,20.9
				c-0.4,0.8-0.8,1.7-1.1,2.6c-9.3,9.4-21.5,9.2-34.5,8.8c-4.5-0.1-9.1-0.2-13.5,0.1c-16.2,1.2-33-0.7-48.5-5.5
				c-12.2-3.8-19.7-8.8-23.8-15.6c-4.1-6.9-4-15.5-3.5-22.1c0.6-8.7-2.2-15.2-5.5-22.8l-0.7-1.7c-4.3-10.1-5.3-21.6-3.1-30.5
				c-2.3,3.8-3.6,10.3-3.3,17.3c-3.8,3.7-10.4,4.3-14.8,1.4c-1.2-0.8-2.2-1.8-3.4-2.9c-1.2-1.1-2.4-2.3-3.9-3.3
				c-0.9-0.6-1.9-1.1-2.8-1.6c-1.1-0.6-2.2-1.1-3-1.8c-3-2.3-4.3-6.4-5.5-10.3l-0.4-1.2c-1.1-3.3-2.8-7.6-6.2-10.2
				c1.4-0.7,2.8-1.6,4.1-2.4c4.7-2.9,10.6-7.5,16.8-8.9c-7-1.3-13.7,2.9-18.6,6c-4.9,3.1-10.7,6.3-16.1,4.8
				c-1.6-0.5-3.2-1.7-3.8-3.2c-0.3-0.8-0.4-1.5,0-2.1c0.8-1.5,2.8-1.8,5.8-2.1c0.9-0.1,1.8-0.2,2.7-0.3c6.8-1.2,11.3-6.8,15.6-12.9
				c3.5-5,7.8-10.4,13.5-11.2c3.9-0.5,8,1.2,11.6,2.7l20.8,8.8c-4,8-6.6,16.9-7.4,26.5c6.2-28.5,27.1-52.8,53.3-61.8
				c29.4-10.1,61.8-5.8,82.8,11.1c-1.8,1.3-3.8,2.3-6,2.5c6.4,0.9,11.4-2.1,15.8-8.2c1.9-2.6,3.5-5.5,5-8.3c1.3-2.4,2.7-4.8,4.2-7.1
				c2.6-3.9,7-8.7,12.8-9.7c7.5-1.3,14.9,4.2,19.8,8.4l1.6,1.4c5.7,5,11.6,10.2,19.4,11.2c0.8,0.1,2.2,0.3,2.3,0.7
				c0.1,0.3-0.5,1.1-1.5,1.7c-4.1,2.2-9.3,2.3-13.4,0.1c-1.6-0.9-3-2-4.5-3.2c-1.4-1.1-2.8-2.3-4.4-3.2c-3.7-2.2-9-3-12.4,0.2
				c5.2-1.8,8.1,1.3,10.7,2.8c1.4,0.8,2.7,1.9,4,2.9c1.6,1.3,3.2,2.6,5.1,3.6c0.1,0.1,0.3,0.1,0.4,0.2c-3,4.6-3.9,10.4-2.5,15.7
				c0.2,0.8,0.5,1.6,0.7,2.3c0.9,2.8,1.8,5.5,0.5,7.3c-1.2,1.8-3.9,2.2-8.6,1.4c-0.8-0.1-1.6,0.3-1.9,1c-0.3,0.7,0,1.6,0.6,2.1
				c2.1,1.4,2.9,4.5,2,7.2c-2.6,7.8-12.6,7.7-19.2,7.5c0.6,0.6,2.5,1.3,3,1.5c0.8,0.2,1.5,0.4,2.3,0.6c0.5,0.1,1,0.2,1.5,0.2
				c0.4,0.1,0.9,0.1,1.3,0.1c7.4,9.5,10.5,22.9,8.5,36.9c-1.6,11.4-6.5,23.4-14.8,36.6c11.8-12.2,16.6-24.2,18.2-36.1
				c1.1-8,0.7-15.9-1.2-23.1c10-6.1,23.2-7.3,34.9-3c11.8,4.3,21.8,13.8,27.6,26c4.9,10.4,6.7,22.9,5.1,35.4l-3-2.4l8.3,8.8
				c3.1,3,10.5,10.4,11.6,12.3C348.3,181.7,348.5,183.7,347.7,185.1z"/>
			<path class="st4" d="M176.3,187.2c-0.5-0.2-1-0.6-1.5-0.9c-0.8-0.7-1.9-2-2.2-3.1c0-0.1-0.1,0-0.1,0c0,0.7-0.1,1.4,0,2.2
				c0.2,0.7,0.6,1.3,1,1.9c0.8,1,2.4,2.5,3.8,2.1c0.6-0.2,0.8-1,0.4-1.4C177.4,187.5,176.8,187.5,176.3,187.2z"/>
			<path class="st4" d="M201.8,89.8c-1.9-1.3-4-1.7-6.2-2c-1.7-0.2-3.2,1.6-3.2,3.2c0,1.9,1.5,3.1,3.2,3.2c1.7,0.2,3.5,0.6,5.2,0.9
				c1.3,0.2,3.5,0.9,4-0.9C205.2,92.4,203.1,90.8,201.8,89.8z"/>
			<path class="st4" d="M95.4,114.7c-1.4,1.5-2.6,3.1-3.4,5.1c-0.7,1.8-1,3.3-0.1,5c0.2,0.3,0.6,0.4,1,0.3c0.6-0.3,1.1-0.5,1.5-1
				c0.6-0.6,0.9-1.4,1.4-2.1c1-1.3,1.9-2.6,3-3.8C101.2,115.9,97.6,112.3,95.4,114.7z"/>
			<path class="st4" d="M126.6,89.5C126.6,89.5,126.5,89.5,126.6,89.5c-0.4,0.5-0.6,1.1-0.8,1.7c-0.1-0.1-0.4-0.1-0.5,0.1
				c-0.7,1.1-1.8,4.5-3.5,3.8c-1.5-0.6-2.6-5.4-2.8-6.7c-1-5-0.5-10.3,1.8-14.9c0.1-0.1-0.1-0.2-0.2-0.1c-4.3,6.1-5.1,13.5-1.9,20.3
				c0.7,1.5,2.3,5.3,4.7,4.7c0.9-0.2,1.4-1.1,1.8-2.1c0.2,1.7,0.9,3.3,2.4,4.2c0.4,0.2,0.8-0.1,0.7-0.5c-0.4-1.6-1.5-2.9-1.9-4.5
				C125.8,93.5,125.9,91.5,126.6,89.5z"/>
			<path class="st4" d="M135.5,103.9c0.2,0,0.5-0.3,0.4-0.6c-0.1-1.7-1.7-2.6-2.6-4c-1.1-1.6-1.7-3.7-2-5.6c0-0.2-0.4-0.2-0.4,0
				c-0.7,2.2-0.4,4.2,0.5,6.4C132.1,101.8,133.3,104.2,135.5,103.9z"/>
			<path class="st4" d="M192.4,159c-0.9,0.6-1.3,1.5-1.6,2.1c-1.6,3.8-4.7,6.9-8.4,8.8c0,0,0-0.1,0-0.1c2.5-5.3-0.6-11.5-4.8-15.3
				c-7.5-6.8-18.6-8.9-27.7-5.3c-9.4,3.7-15.9,13.6-15.5,23.4c0.2,4.6,2.3,10.8,7.8,12.8c1.3,0.5,2.6,0.7,3.9,0.7
				c4.1,0,8-2.3,11.4-4.3c2.1-1.3,4.1-2.5,6.1-3.1c1.5-0.5,3.2-0.8,5-1.2c2.8-0.5,5.9-1.1,8.5-2.4c0.7-0.1,1.3-0.2,1.9-0.3
				c-0.5,0.9-0.8,1.8-1.1,2.9c-0.5,2.1,1.9,4.3,3.8,2.9c4.1-2.8,6.9-6.8,7.7-11.6c0.8-0.8,1.5-1.6,2.2-2.5c0.3-0.3,3-4.9,2.6-4.9
				c1.5,0.2,3,0.3,4.6,0.4C197,160.5,194.9,157.4,192.4,159z M179.3,168.3c-1.9,4-6.5,4.9-11.4,5.8c-1.8,0.4-3.8,0.7-5.4,1.3
				c-2.3,0.8-4.6,2.1-6.8,3.4c-4.2,2.5-8.2,4.9-12.3,3.4c-3.6-1.3-5.4-5.8-5.5-9.7c-0.3-8.4,5.3-16.9,13.4-20.1
				c2.6-1,5.3-1.5,8.1-1.5c5.8,0,11.6,2.1,16,6.1C178.6,160,181,164.6,179.3,168.3z"/>
			<path class="st4" d="M149.3,172.1C149.3,172.1,149.3,172.1,149.3,172.1C149.3,172.1,149.3,172,149.3,172.1
				c0.2-1.2,0.8-2.4,0.6-3.6c0,0,0-0.1-0.1-0.1c-1.2,0.4-2,1.9-2.6,3c-0.8,1.5-1.4,3.1-1.8,4.7c-0.3,1.3,1,3,2.4,2.4
				C150.5,177.5,151.8,174,149.3,172.1z"/>
			<path class="st4" d="M170.3,163.2c-1.8-0.7-3.4-0.8-5.3-0.6c-0.5,0.1-0.4,0.8,0,0.9c0.7,0.1,1.4,0.4,2,0.6c0,0.1-0.1,0.3-0.1,0.4
				c-0.1,3.2,6.5,5.5,6.7,1.7C173.8,164.7,171.6,163.7,170.3,163.2z"/>
			<path class="st4" d="M60.6,78.9c3.6,1,7,2.8,10.1,4.9c2.5,1.7,4.8,3.3,7.9,3.8c1.2,0.2,1.6-1.6,0.5-1.8c-3.8-0.5-6.7-3-10-4.8
				c-2.7-1.4-5.4-2-8.4-2.3C60.6,78.8,60.6,78.9,60.6,78.9L60.6,78.9z"/>
		</g>
	</g>
	<g>
		<path class="st0" d="M105.9,147.5c0.8,2.8-0.2,5.5-2.3,6.1c-2.1,0.6-4.4-1.2-5.2-4c-0.8-2.8,0.2-5.5,2.3-6.1
			C102.8,143,105.1,144.8,105.9,147.5z"/>
		<path class="st0" d="M192.4,121c0.8,2.9-0.6,5.9-3.3,6.7c-2.7,0.8-5.5-0.9-6.4-3.8c-0.8-2.9,0.6-5.9,3.3-6.7
			C188.7,116.4,191.5,118.1,192.4,121z"/>
	</g>
</g>
</svg>
