<?xml version="1.0" encoding="utf-8"?>
<!-- Generator: Adobe Illustrator 22.1.0, SVG Export Plug-In . SVG Version: 6.00 Build 0)  -->
<svg version="1.1" id="Layer_1" xmlns="http://www.w3.org/2000/svg" xmlns:xlink="http://www.w3.org/1999/xlink" x="0px" y="0px"
	 viewBox="0 0 192.4 41.4" style="enable-background:new 0 0 192.4 41.4;" xml:space="preserve">
<style type="text/css">
	.st0{fill:#00AEEF;}
</style>
<g>
	<path class="st0" d="M0,0.3h6c7.7,0,12.8,4.5,12.8,13.5V14c0,8.8-4.9,13.4-12.3,13.8H5.8v13.5H0V0.3z M6.6,22.5
		c3.9-0.1,6.5-2.9,6.5-8.3V14c0-5.7-2.5-8.4-6.3-8.4H5.8v16.8H6.6z"/>
	<path class="st0" d="M22.2,0.3H28v35.6h8.4v5.5H22.2V0.3z"/>
	<path class="st0" d="M45.5,0.2h6.2l8.2,41.2H54l-1.6-9.2h-7.7l-1.6,9.2h-5.6L45.5,0.2z M51.4,27l-3-16.5l-3,16.5H51.4z"/>
	<path class="st0" d="M65.7,24.7L57.8,0.3h6l4.8,16.8l4.9-16.8h5.9l-7.9,24.4v16.7h-5.8V24.7z"/>
	<path class="st0" d="M97.7,0.2h6.2l8.2,41.2h-5.8l-1.6-9.2h-7.7l-1.6,9.2h-5.6L97.7,0.2z M103.7,27l-3-16.5l-3,16.5H103.7z"/>
	<path class="st0" d="M113.3,21.5v-1.3C113.3,6.8,119,0,126.6,0c2.2,0,3.9,0.5,5.3,1.2v6.1c-1.8-1.1-3.3-1.8-5.2-1.8
		c-4.4,0-7.6,4.7-7.6,14.4v1.8c0,11.1,3.5,14.7,7.2,14.7c0.5,0,0.8-0.1,1.3-0.2V23.9h-4.3v-5.2h9.6V40c-2.5,1.1-4.3,1.7-6.9,1.7
		C119.1,41.7,113.3,35.5,113.3,21.5z"/>
	<path class="st0" d="M143.9,0.2h6.2l8.2,41.2h-5.8l-1.6-9.2H143l-1.6,9.2h-5.6L143.9,0.2z M149.9,27l-3-16.5l-3,16.5H149.9z"/>
	<path class="st0" d="M161.5,0.3h5.7v41.1h-5.7V0.3z"/>
	<path class="st0" d="M172.4,0.3h5.5l8.9,24.9V0.3h5.6v41.1h-5.2L178,15.5v25.8h-5.6V0.3z"/>
</g>
</svg>
