<?xml version="1.0" encoding="utf-8"?>
<!-- Generator: Adobe Illustrator 22.1.0, SVG Export Plug-In . SVG Version: 6.00 Build 0)  -->
<svg version="1.1" id="Layer_1" xmlns="http://www.w3.org/2000/svg" xmlns:xlink="http://www.w3.org/1999/xlink" x="0px" y="0px"
	 viewBox="0 0 110.2 47.4" style="enable-background:new 0 0 110.2 47.4;" xml:space="preserve">
<style type="text/css">
	.st0{fill:#00AEEF;}
</style>
<g>
	<path class="st0" d="M0.4,45.3v-6.9c2.9,1.8,5.3,2.7,7.6,2.7c2.8,0,4.9-1.6,4.9-4.8v-0.1c0-2.7-0.9-4.6-5.1-9.7
		C2.1,19.6,0,16.7,0,11.5v-0.1C0,4.5,4.6,0,10.6,0c3.1,0,5.1,0.6,7.2,1.7v6.9c-2.5-1.5-4.3-2.3-6.4-2.3c-2.7,0-4.8,1.8-4.8,4.7v0.1
		c0,2.6,0.9,4,5.1,9c6.2,7.3,7.8,10.4,7.8,15.7V36c0,6.8-4.8,11.4-10.9,11.4C5.5,47.4,2.9,46.5,0.4,45.3z"/>
	<path class="st0" d="M26.7,6.6h-6.3V0.5h19v6.2h-6.2v40.3h-6.5V6.6z"/>
	<path class="st0" d="M47.9,0.3h7l9.2,46.6h-6.6l-1.9-10.4h-8.8L45,46.9h-6.4L47.9,0.3z M54.7,30.7L51.3,12l-3.4,18.7H54.7z"/>
	<path class="st0" d="M67.5,0.5h7.6c8.2,0,14.1,4.6,14.1,14.5v0.5c0,6.2-2.6,10.2-6.2,12.4l7,19.1h-7l-6.2-17
		c-0.3,0-0.6,0.1-0.9,0.1h-1.7v16.9h-6.6V0.5z M75.2,24.1c4.4,0,7.4-2.7,7.4-8.6v-0.4c0-6.4-3.2-8.5-7.6-8.5h-0.9v17.5H75.2z"/>
	<path class="st0" d="M97.4,6.6h-6.3V0.5h19v6.2h-6.2v40.3h-6.5V6.6z"/>
</g>
</svg>
