<?xml version="1.0" encoding="utf-8"?>
<!-- Generator: Adobe Illustrator 22.1.0, SVG Export Plug-In . SVG Version: 6.00 Build 0)  -->
<svg version="1.1" id="Layer_1" xmlns="http://www.w3.org/2000/svg" xmlns:xlink="http://www.w3.org/1999/xlink" x="0px" y="0px"
	 viewBox="0 0 104.8 59.7" style="enable-background:new 0 0 104.8 59.7;" xml:space="preserve">
<style type="text/css">
	.st0{fill:#FFFFFF;}
</style>
<g>
	<path class="st0" d="M20.7,51.4c-0.8-0.6-1.6-1.4-2.4-2.1c-0.4-0.4-1.3-1.4-2-1.3c-0.4,0-0.8,0.3-0.6,0.8c0,0,0.1,0,0.1,0
		c-0.1-1.2,1.5-0.1,1.7,0.1c0.3,0.2,0.6,0.5,0.9,0.8c0.5,0.5,1,1,1.6,1.5c1,0.8,2.1,1.7,3.3,2.2c0.1,0,0.1-0.1,0.1-0.1
		C22.5,52.6,21.5,52.1,20.7,51.4z"/>
	<path class="st0" d="M23.6,53.4c-0.2,0-0.2,0.4,0,0.4C23.9,53.8,23.9,53.4,23.6,53.4z"/>
	<path class="st0" d="M24.2,53.7c-0.2,0-0.2,0.4,0,0.4C24.4,54.1,24.4,53.7,24.2,53.7z"/>
	<path class="st0" d="M37.1,52c-0.1,0-0.1,0-0.1,0c-0.2,0,0,0.4,0.1,0.2c0,0,0-0.1,0.1-0.1C37.2,52.1,37.2,52,37.1,52z"/>
	<path class="st0" d="M36.6,52.4c-0.1,0-0.1,0.1,0,0.1c0,0,0.1,0,0.1,0C36.8,52.4,36.7,52.3,36.6,52.4z"/>
	<path class="st0" d="M37.3,51.8c-0.1,0-0.2,0.1-0.1,0.1C37.3,52,37.4,52,37.3,51.8C37.4,51.9,37.4,51.9,37.3,51.8
		C37.4,51.8,37.4,51.8,37.3,51.8C37.4,51.8,37.3,51.8,37.3,51.8z"/>
	<path class="st0" d="M44.2,52.6c0.1,0,0.1-0.2,0-0.2C44.1,52.4,44.1,52.6,44.2,52.6z"/>
	<path class="st0" d="M44.6,52.4c0.1,0,0.1-0.1,0-0.2c0,0,0,0,0,0c0,0,0,0,0,0c0,0,0,0,0,0C44.5,52.3,44.5,52.4,44.6,52.4z"/>
	<path class="st0" d="M40.8,51c0.1,0,0.1-0.2,0-0.2C40.7,50.7,40.7,51,40.8,51z"/>
	<path class="st0" d="M13.5,28.1C13.5,28.1,13.5,28.1,13.5,28.1c0.3,0.1,0.3-0.3,0-0.2c0,0,0,0,0,0C13.4,27.9,13.4,28,13.5,28.1z"/>
	<path class="st0" d="M26.4,37c-0.1,0-0.2,0.1-0.1,0.2c0,0,0,0,0,0c0,0,0.1,0,0.1,0c0,0,0,0,0,0C26.6,37.1,26.5,37,26.4,37z"/>
	<path class="st0" d="M26.7,37.4c-0.1,0-0.1,0.2,0,0.2C26.8,37.5,26.8,37.4,26.7,37.4z"/>
	<path class="st0" d="M32.3,19.4c0,0.1,0.1,0.2,0.2,0.1c0.1-0.1,0.1-0.1,0.1-0.2C32.5,19.2,32.2,19.3,32.3,19.4
		C32.3,19.4,32.3,19.4,32.3,19.4z"/>
	<path class="st0" d="M25.3,6.1C25.3,6,25.3,6,25.3,6.1c-0.1-0.1-0.2-0.1-0.2,0c0,0,0,0,0,0C25,6.3,25.4,6.3,25.3,6.1z"/>
	<path class="st0" d="M25.3,5.8c0.1-0.2,0.3-0.9,0.3-1c0.4,0.5,0.7,1.1,1.1,1.7c0.6,1,1.4,2,1.7,3.1c0,0,0,0,0,0
		c-0.2-1-0.8-1.8-1.3-2.7c-0.3-0.5-0.6-1-0.9-1.4c-0.2-0.3-0.3-0.7-0.6-1c-0.1-0.1-0.2,0-0.2,0.1C25.3,5,25.2,5.4,25.3,5.8
		C25.2,5.8,25.3,5.8,25.3,5.8z"/>
	<path class="st0" d="M20.3,9.4C20.4,9.4,20.4,9.3,20.3,9.4c-0.4-0.3-0.8-0.5-1.2-0.7c-0.1,0-0.2,0-0.2,0.1c0,1.4-0.4,2.8-0.2,4.2
		c0,0,0,0,0,0c-0.1-1.3,0.3-2.6,0.4-4C19.5,9.2,19.9,9.3,20.3,9.4z"/>
	<path class="st0" d="M40.2,41.8c-0.1,0-0.1,0.1-0.1,0.1c0,0,0,0,0,0.1c-0.1,0-0.1,0.1,0,0.1c0.1,0,0.1,0,0.2,0
		c0.1,0,0.2-0.2,0.1-0.3C40.4,41.8,40.3,41.8,40.2,41.8z"/>
	<path class="st0" d="M40.5,41.4C40.5,41.4,40.5,41.4,40.5,41.4c-0.2,0.1-0.1,0.3,0.1,0.3C40.8,41.6,40.7,41.3,40.5,41.4z"/>
	<path class="st0" d="M49.5,46.9c-0.1,0-0.1,0.2,0,0.2C49.6,47.1,49.6,46.9,49.5,46.9z"/>
	<path class="st0" d="M46.5,42.7C46.4,42.7,46.5,42.7,46.5,42.7c0.1,0.1,0.1,0.1,0.1,0c0.1-0.1,0-0.2-0.1-0.2c0,0,0,0,0,0
		C46.4,42.6,46.4,42.6,46.5,42.7C46.5,42.7,46.5,42.7,46.5,42.7z"/>
	<path class="st0" d="M42.2,45.4c-0.2,0-0.4,0.2-0.4,0.4s0.2,0.4,0.4,0.4c0.2,0,0.4-0.2,0.4-0.4S42.5,45.4,42.2,45.4z"/>
	<path class="st0" d="M42.9,43.4c-0.3,0-0.5,0.2-0.5,0.5c0,0.3,0.2,0.5,0.5,0.5c0.3,0,0.5-0.2,0.5-0.5
		C43.5,43.6,43.2,43.4,42.9,43.4z"/>
	<path class="st0" d="M44.1,41.7c-0.3,0-0.6,0.3-0.6,0.6c0,0.3,0.3,0.6,0.6,0.6c0.3,0,0.6-0.3,0.6-0.6C44.6,42,44.4,41.7,44.1,41.7z
		"/>
	<path class="st0" d="M45.7,40.6c-0.9,0-0.9,1.4,0,1.4C46.6,41.9,46.6,40.6,45.7,40.6z"/>
	<path class="st0" d="M47.5,39.9C47.5,39.9,47.5,39.9,47.5,39.9c-0.3,0-0.5,0.3-0.5,0.5c0,0.1,0.1,0.3,0.2,0.4
		c0.3,0.2,0.6,0.2,0.8-0.1c0,0,0,0,0,0c0.1-0.2,0.1-0.4,0-0.5C47.8,40,47.7,39.9,47.5,39.9z"/>
	<path class="st0" d="M49,39.2c-0.2,0-0.4,0.2-0.4,0.4c0,0.2,0.2,0.4,0.4,0.4s0.4-0.2,0.4-0.4C49.4,39.4,49.2,39.2,49,39.2z"/>
	<path class="st0" d="M50.4,38.3c-0.4,0-0.4,0.6,0,0.6C50.8,38.9,50.8,38.3,50.4,38.3z"/>
	<path class="st0" d="M51.3,37.1c-0.3,0-0.3,0.5,0,0.5C51.6,37.6,51.6,37.1,51.3,37.1z"/>
	<path class="st0" d="M27.1,52.2c-0.8,0-0.8,1.2,0,1.2C27.9,53.4,27.9,52.2,27.1,52.2z"/>
	<circle class="st0" cx="28.9" cy="52.5" r="0.5"/>
	<path class="st0" d="M30.6,51.2c-0.3,0-0.5,0.2-0.5,0.5c0,0.3,0.2,0.5,0.5,0.5c0.3,0,0.5-0.2,0.5-0.5
		C31.1,51.4,30.9,51.2,30.6,51.2z"/>
	<path class="st0" d="M32.3,50.6c-0.2-0.1-0.6,0-0.7,0.3c-0.1,0.2,0,0.4,0.2,0.5c0.2,0.1,0.4,0.1,0.6-0.1
		C32.6,51.1,32.6,50.7,32.3,50.6z"/>
	<path class="st0" d="M33.7,49.9C33.7,50,33.7,50,33.7,49.9c-0.1,0.2-0.1,0.4,0.1,0.5c0.2,0.1,0.4,0,0.5-0.2c0,0,0,0,0,0
		C34.4,49.8,33.8,49.6,33.7,49.9z"/>
	<path class="st0" d="M35.5,49.6c0.3,0,0.3-0.5,0-0.5C35.2,49.1,35.2,49.6,35.5,49.6z"/>
	<path class="st0" d="M36.9,49.1c0.3,0,0.3-0.4,0-0.4C36.6,48.7,36.6,49.1,36.9,49.1z"/>
	<path class="st0" d="M48.1,25.8c0-0.1-0.1-0.1-0.1,0c0,0,0,0.1,0,0.1C47.9,26,48.2,26,48.1,25.8C48.1,25.8,48.1,25.8,48.1,25.8z"/>
	<path class="st0" d="M48.1,24.9c-0.1,0.2,0.2,0.3,0.3,0.1C48.5,24.9,48.2,24.8,48.1,24.9z"/>
	<path class="st0" d="M48.9,24c-0.2,0-0.2,0.3,0,0.3C49.1,24.3,49.1,24,48.9,24z"/>
	<path class="st0" d="M49.7,23.1c-0.2,0-0.2,0.4,0,0.4C49.9,23.5,49.9,23.1,49.7,23.1z"/>
	<path class="st0" d="M50.7,22.2c-0.2,0-0.2,0.4,0,0.4C51,22.6,51,22.2,50.7,22.2z"/>
	<path class="st0" d="M51.6,21.3c-0.2,0-0.3,0.4,0,0.4C51.8,21.6,51.8,21.3,51.6,21.3z"/>
	<path class="st0" d="M46.6,23.2C46.6,23.2,46.6,23.3,46.6,23.2C46.5,23.3,46.6,23.3,46.6,23.2C46.6,23.3,46.6,23.3,46.6,23.2
		C46.8,23.3,46.6,23,46.6,23.2z"/>
	<path class="st0" d="M46.6,22.3c-0.2,0-0.2,0.3,0,0.3C46.8,22.6,46.8,22.3,46.6,22.3z"/>
	<path class="st0" d="M46.8,21.2c-0.2,0-0.2,0.3,0,0.3C47,21.6,47,21.2,46.8,21.2z"/>
	<path class="st0" d="M47.2,20.3c-0.1,0-0.1,0-0.1,0c-0.1,0-0.1,0.2,0,0.2c0,0,0,0,0,0c0,0,0.1,0,0.1,0c0,0,0,0,0,0
		C47.3,20.5,47.3,20.3,47.2,20.3z"/>
	<path class="st0" d="M47.8,19.1c-0.2,0-0.2,0.2-0.2,0.3c0,0.1,0.2,0.2,0.3,0.1c0.1,0,0.1-0.1,0.1-0.2C48,19.2,47.9,19.1,47.8,19.1z
		"/>
	<path class="st0" d="M48.5,18.3c-0.3,0-0.3,0.4,0,0.4C48.8,18.7,48.8,18.3,48.5,18.3z"/>
	<path class="st0" d="M49.4,17.6c-0.3,0-0.3,0.4,0,0.4C49.6,18,49.6,17.6,49.4,17.6z"/>
	<path class="st0" d="M50.1,17.3c0.3,0,0.3-0.4,0-0.4C49.8,16.9,49.8,17.3,50.1,17.3z"/>
	<path class="st0" d="M51,16.5c0.3,0,0.3-0.4,0-0.4C50.7,16.1,50.7,16.5,51,16.5z"/>
	<path class="st0" d="M51.7,15.7c0.3,0,0.3-0.4,0-0.4C51.4,15.3,51.4,15.7,51.7,15.7z"/>
	<path class="st0" d="M51.9,28.2c0.1,0,0.2-0.1,0.1-0.2c0,0,0,0,0,0c0-0.1-0.1-0.1-0.2,0c0,0,0,0,0,0C51.8,28.1,51.8,28.2,51.9,28.2
		z"/>
	<path class="st0" d="M51.2,28.8c0.1,0,0.2-0.1,0.1-0.2c0,0,0,0,0,0c-0.1-0.1-0.1-0.1-0.2,0c0,0,0,0,0,0
		C51.1,28.7,51.1,28.8,51.2,28.8z"/>
	<path class="st0" d="M50.6,29c-0.2,0-0.2,0.2,0,0.2C50.8,29.2,50.8,29,50.6,29z"/>
	<path class="st0" d="M50.1,29.5C50.1,29.5,50.1,29.5,50.1,29.5c-0.2,0.1,0,0.2,0,0.1C50.1,29.6,50.1,29.6,50.1,29.5
		C50.2,29.5,50.1,29.5,50.1,29.5z"/>
	<path class="st0" d="M45.5,18.8c-0.2,0-0.2,0.3,0,0.3C45.7,19.1,45.7,18.8,45.5,18.8z"/>
	<path class="st0" d="M45.9,17.7C45.9,17.8,45.9,17.8,45.9,17.7c0,0.1,0,0.2,0,0.2c0,0,0.1,0,0.1,0c0,0,0,0,0,0
		c0.1,0,0.2-0.1,0.1-0.2C46.1,17.6,45.9,17.6,45.9,17.7z"/>
	<path class="st0" d="M46.5,16.6c-0.3,0-0.3,0.4,0,0.4C46.8,17.1,46.8,16.6,46.5,16.6z"/>
	<path class="st0" d="M46.9,15.7c-0.3,0.2,0.1,0.6,0.3,0.3C47.3,15.8,47.1,15.6,46.9,15.7z"/>
	<path class="st0" d="M47.8,14.7C47.8,14.7,47.7,14.7,47.8,14.7c-0.2,0-0.3,0.2-0.2,0.4c0.1,0.1,0.4,0,0.4-0.2c0,0,0,0,0,0
		C48,14.8,47.9,14.7,47.8,14.7z"/>
	<path class="st0" d="M48.4,13.9c-0.3,0-0.3,0.5,0,0.5C48.7,14.3,48.7,13.9,48.4,13.9z"/>
	<path class="st0" d="M49,13.1c-0.3,0-0.3,0.5,0,0.5C49.3,13.6,49.3,13.1,49,13.1z"/>
	<path class="st0" d="M50.1,12.3c-0.1-0.2-0.2-0.3-0.4-0.2c0,0-0.1,0.1-0.1,0.1c0,0,0,0,0,0c-0.1,0.1,0,0.2,0,0.3
		c0.1,0.1,0.3,0.1,0.4,0C50,12.6,50.1,12.4,50.1,12.3C50.1,12.3,50.1,12.3,50.1,12.3z"/>
	<path class="st0" d="M50.7,11.1c-0.4,0-0.4,0.6,0,0.6S51,11.1,50.7,11.1z"/>
	<path class="st0" d="M51.4,9.9c-0.5,0-0.5,0.7,0,0.7C51.8,10.7,51.8,9.9,51.4,9.9z"/>
	<path class="st0" d="M52.8,29.1c0.5,0.4,1.1,0.5,1.4,1c0,0,0.1,0,0.1,0c-0.2-0.3-0.5-0.6-0.9-0.8c-0.2-0.2-0.5-0.3-0.7-0.5
		c-0.1-0.1-0.4-0.4-0.3-0.5c-0.1,0.2-0.2,0.4-0.3,0.5c-0.2,0.2-0.4,0.3-0.7,0.5c-0.3,0.2-0.7,0.4-0.9,0.8c0,0,0,0.1,0.1,0
		c0.3-0.5,0.9-0.6,1.4-1c0.1-0.1,0.3-0.2,0.4-0.4C52.5,28.9,52.7,29,52.8,29.1z"/>
	<path class="st0" d="M34.6,3.3c0.5-0.9,1.6-2.9,2.8-1.9c0.9,0.7,1.7,1.6,2.5,2.4c0,0,0.1,0,0.1-0.1c-0.6-0.7-1.2-1.3-1.9-1.9
		c-0.3-0.3-0.9-1-1.4-1C35.7,0.9,34.9,2.5,34.6,3.3C34.6,3.3,34.6,3.3,34.6,3.3z"/>
	<path class="st0" d="M43.8,3.5c0.9-0.6,2,0.8,2.7,1.3c0,0,0.1,0,0,0c-0.6-0.6-1.3-1.5-2.2-1.6c-0.7-0.1-1.5,0.9-2,1.3c0,0,0,0,0,0
		C42.9,4.2,43.3,3.8,43.8,3.5z"/>
	<path class="st0" d="M44.7,7.4c-0.3,0-0.5,0.2-0.7,0.5c-0.4,0.6-0.8,1.2-1.1,1.9c0,0,0,0.1,0,0c0.4-0.7,0.8-1.4,1.3-2
		c0.4-0.6,1.1,0.6,1.2,0.9c0.2,0.3,0.5,0.7,0.7,1c0,0.1,0.1,0,0.1-0.1C46,9,45.6,8.5,45.3,7.9C45.1,7.7,44.9,7.4,44.7,7.4z"/>
	<path class="st0" d="M47.6,23c0.1,0.2,0.2,0.4,0.3,0.7c0,0,0.1,0,0.1,0c0-0.4-0.3-1-0.7-1.2c0,0-0.1,0,0,0
		C47.4,22.7,47.5,22.8,47.6,23z"/>
	<path class="st0" d="M48.4,16.5c0.1,0.2,0.1,0.5,0.3,0.8c0,0,0.1,0,0.1,0c0-0.5-0.4-1-0.7-1.4c0,0-0.1,0,0,0
		C48.2,16,48.3,16.2,48.4,16.5z"/>
	<path class="st0" d="M28.6,38.2c-0.4-1.1-0.8-2.2-0.8-3.4c0-0.9-0.1-1.6-0.8-2.2c-0.3-0.2-1-0.6-1.3-0.3c-0.4,0.4,0.2,1.7,0.4,2
		c0,0,0,0,0,0c-0.2-0.4-0.3-0.8-0.4-1.3c-0.1-0.7,0.6-0.6,1-0.4c0.9,0.4,0.9,1.4,0.9,2.2C27.6,36,28,37.2,28.6,38.2
		C28.5,38.3,28.6,38.3,28.6,38.2z"/>
	<path class="st0" d="M32.6,36.9c0.2,0.2,0.3,0.4,0.5,0.5c0.4,0.4,0.8,0.7,1.1,1.2c0.6,0.8-0.2,1.7,0.1,2.6c0,0,0.1,0,0.1,0
		c-0.1-0.7,0.4-1.4,0.2-2.1c-0.2-0.7-0.7-1.1-1.2-1.6c-0.4-0.5-0.9-1.2-1.5-1.3c-0.3-0.1-0.5,0.3-0.5,0.5c0,0,0.1,0,0.1,0
		C31.5,35.7,32.5,36.8,32.6,36.9z"/>
	<path class="st0" d="M25.6,34.8c-0.4-0.8-0.7-1.6-0.9-2.5c-0.2-0.5-0.1-1-0.5-1.4c-0.4-0.4-1.1-0.7-1.6-0.8c-0.1,0-0.1,0.1-0.1,0.1
		c0.5,1.1,1,2.2,1.7,3.1c0,0,0,0,0,0c-0.4-0.8-0.9-1.6-1.3-2.4c0,0-0.3-0.6-0.2-0.5c0.3,0,0.6,0.2,0.8,0.4c0.6,0.3,0.8,0.7,0.9,1.3
		c0.3,1.8,1.2,3.4,2.3,4.8c0,0,0.1,0,0.1,0C26.4,36.1,25.9,35.5,25.6,34.8z"/>
	<path class="st0" d="M19.2,32.2c0.1,0.1,0.2,0,0.2-0.1c0-0.1-0.1-0.1-0.2-0.1c0,0,0,0,0,0C19.2,32.1,19.2,32.1,19.2,32.2
		C19.2,32.1,19.2,32.1,19.2,32.2z"/>
	<path class="st0" d="M102.9,21.8c-2-0.2-4,0.8-5.7,1.7c-4.1,2.1-8.2,4.4-12.1,6.9c0.3-0.7,0.7-1.5,1-2.2c1.2-3,2.4-6.3,2.7-9.6
		c0-0.1,0-0.2,0-0.2c0-0.2,0-0.3,0-0.5c0-0.1,0-0.1-0.1-0.1c0,0-0.1-0.1-0.1,0c-0.8,0.9-1.8,1.6-2.8,2.4c0.8-1.5,1-3.4,1.1-5
		c0.2-2.2,0.2-5.2-0.8-7.2c-0.1-0.1-0.2-0.1-0.3,0c0,0,0,0-0.1,0c0,0-0.1,0.1-0.1,0.1c-1.7,0.6-4,1.7-5,3.3c0.1-2,0-4.1-0.5-5.9
		c0-0.6-0.2-1.2-0.4-1.7c-0.1-0.2-0.3-0.3-0.5-0.1c-1.6,1.8-2.7,3.8-3.5,6.1c-0.8,2.1-1.2,4.4-1.9,6.5c0,0,0,0,0,0
		c-0.4,0.4-0.9,0.8-1.4,1.2c-0.1-0.2-0.2-0.4-0.3-0.5c0,0,0,0,0-0.1c0.5-3.4,0.5-7.2-0.3-10.6c-0.2-0.6-0.4-1.2-0.6-1.8
		c-0.3-0.8-0.7-1.7-1.2-2.5c-0.2-0.3-0.4-0.7-0.7-1c-0.1-0.1-0.2-0.2-0.4-0.3c-0.1-0.1-0.3-0.2-0.5-0.3C68.3,0,68,0.2,67.8,0.3
		c-0.2,0.1-0.5,0.2-0.7,0.4c-0.4,0.3-0.8,0.6-1.2,1c-0.9,0.9-2,1.7-2.8,2.7c-0.6-0.7-1.5-1.7-2.4-1.9c-0.9-0.3-2.1,1-2.7,1.5
		c-0.5,0.4-1.1,0.9-1.6,1.5c-0.2-0.7-0.9-1.4-1.3-2c-0.4-0.5-0.8-0.9-1.3-1.4C53.4,1.7,53,1.4,52.6,1c0,0-0.3-0.4-0.2-0.4
		c-0.3,0.5-0.7,0.9-1.2,1.3c-0.5,0.4-0.9,0.9-1.3,1.4c-0.6,0.6-1.4,1.4-1.6,2.2c-0.5-0.6-1.1-1.1-1.6-1.5c-0.6-0.5-1.8-1.8-2.7-1.5
		c-0.9,0.2-1.8,1.3-2.4,1.9c-0.8-1-1.9-1.8-2.8-2.7c-0.4-0.4-0.8-0.7-1.2-1c-0.2-0.1-0.4-0.2-0.7-0.4C36.8,0.2,36.6,0,36.4,0
		c-0.1,0-0.1,0-0.1,0.1c-0.4,0.2-0.7,0.5-1,0.8c-0.6,0.7-1.1,1.6-1.5,2.5c-0.3,0.7-0.6,1.4-0.8,2.1c-1.1,3.4-1,7.5-0.5,11
		c0,0,0,0.1,0,0.1c-0.1,0.2-0.2,0.4-0.3,0.5c-0.5-0.4-0.9-0.8-1.4-1.2c0,0,0,0,0,0c-0.7-2-1.1-4.1-1.7-6.1c-0.8-2.4-2-4.6-3.7-6.5
		c-0.2-0.2-0.4-0.1-0.5,0.1c-0.2,0.6-0.4,1.1-0.4,1.7c-0.6,1.9-0.6,3.9-0.5,6c-1-1.6-3.4-2.7-5-3.3c0,0-0.1-0.1-0.1-0.1
		c0,0-0.1,0-0.1,0c-0.1-0.1-0.3-0.1-0.3,0c-1,2.1-0.9,5-0.8,7.2c0.1,1.6,0.4,3.5,1.1,5c-1-0.7-2-1.5-2.8-2.4c-0.1-0.1-0.1,0-0.1,0
		c-0.1,0-0.1,0.1-0.1,0.1c0,0.2,0,0.3,0,0.5c0,0.1,0,0.2,0,0.2c0.3,3.3,1.5,6.6,2.7,9.6c0.3,0.7,0.6,1.5,1,2.2
		c-3.9-2.5-8-4.7-12.1-6.9c-1.6-0.9-3.4-1.6-5.2-1.7c-0.9-0.1-2.5,0.1-2.4,1.3c0,0,0,0,0,0.1c0,3,2.8,5.5,4.7,7.5
		c2.7,2.9,5.7,5.6,9,7.9c3.4,2.4,7.1,4.7,10.9,6.4c3.3,1.6,7.3,2.6,10.9,2c0.2,0.1,0.5,0.2,0.8,0.2c0.1,0.1,0.2,0.1,0.3,0.2
		c-2.1,0.1-4.2,0.8-6,1.4c-1.5,0.5-3,1.1-4.5,1.5c-1.2,0.4-3.1,0.9-4.5,0.6c-0.6-0.4-1.2-0.9-1.8-1.5c-0.8-0.8-1.7-2.1-3-2.1
		c-0.5,0-0.9,0.1-1.2,0.2c-0.1,0-0.2,0-0.2,0.1c-0.1,0.1-0.1,0.2-0.2,0.2c-0.2,0.2-0.3,0.4-0.4,0.7c0,0,0,0.1,0,0.1
		c-0.8,2.4,1.7,5.3,3.4,6.6c3.4,2.5,7.8,3.9,12,4.3c4.4,0.5,8.9,0.4,13.1-1.1c3.4-1.2,6.6-3.3,8.8-6.2c0.2-0.1,0.5-0.1,0.6-0.3
		c0.2,0.1,0.4,0.2,0.7,0.3c2.2,2.8,5.1,4.7,8.4,6c4.3,1.7,8.9,1.7,13.5,1.3c4.1-0.4,8.3-1.7,11.6-4.1c1.8-1.3,4.6-4.4,3.7-6.8
		c0,0,0-0.1,0-0.1c-0.1-0.3-0.2-0.5-0.4-0.7c-0.1-0.1-0.1-0.1-0.2-0.2c-0.1-0.1-0.2-0.1-0.2-0.1c-0.3-0.1-0.5-0.2-0.9-0.3
		c-1.2-0.2-2.3,1.1-3,1.8c-0.6,0.7-1.3,1.2-2,1.8c-1.3,0.4-3-0.1-4.2-0.4c-1.5-0.4-3-1-4.5-1.5c-2-0.7-4.3-1.5-6.6-1.6
		c0.1,0,0.2-0.1,0.3-0.1c0.3-0.1,0.5-0.2,0.8-0.2c7.7,1.2,15.3-4,21.3-8.1c3.3-2.2,6.3-4.9,9-7.8c2-2.1,5-4.7,5-7.9c0,0,0,0,0-0.1
		C104.9,22.1,103.7,21.9,102.9,21.8z M96.1,31.4c-1.2-0.2-2.4-0.2-3.3,0.6c-0.6,0.5-1.2,1.2-1.7,1.7c-0.4,0.4-0.9,0.9-1.3,1.3
		c-0.7,0.4-1.4,0.7-2,1.1c-1.1,0.6-2.1,1.2-3.1,1.9c1-1.2,1.9-2.4,2.8-3.7c0.7-1,1.6-1.7,2.8-2.1c0.4-0.1,0.9-0.2,1.3-0.3
		c0,0,0.5-0.1,0.5-0.1c-0.2,0.3-0.4,0.5-0.6,0.8c0,0,0,0,0,0c0.3-0.3,0.6-0.5,0.8-0.9c0-0.1,0-0.1-0.1-0.1c-1.9,0.3-3.5,0.8-4.8,2.4
		c-1.1,1.5-2.3,2.9-3.5,4.4c-1.3,0.9-2.5,1.8-3.8,2.6c-0.1,0.1-0.2,0.2-0.4,0.2c1-1.1,1.7-2.7,2.3-3.9c0.3-0.7,0.6-1.4,1.1-2
		c0.5-0.6,1.2-1,1.8-1.3c0.7-0.3,1.5-0.5,2.2-0.7c0.5-0.1-0.1,0.5-0.3,0.7c-0.3,0.4-0.5,0.8-0.7,1.2c0,0,0,0.1,0,0
		c0.5-0.7,1-1.4,1.4-2.1c0-0.1,0-0.1-0.1-0.1c-1.1,0.2-2.3,0.5-3.3,1.1c-1.1,0.6-1.7,1.6-2.3,2.7c-0.9,1.9-1.7,3.8-3.3,5.1
		c-0.8,0.5-1.5,0.9-2.3,1.3c0.6-0.6,1-1.5,1.3-2.2c1.4-1.4,2.7-3,3.9-4.6c0.5-0.6,0.9-1.3,1.3-2c2.1-0.9,4.1-1.9,6.3-2.6
		c1.3-0.4,2.6-0.7,4-0.8c0.6-0.1,1.2-0.1,1.8-0.1c0.3,0,0.7,0,1,0c0.3,0,0.7-0.1,0.5,0.3c0,0,0,0,0,0c-0.1,0.1-0.3,0.2-0.4,0.2
		c0,0,0,0,0.1-0.1C96.2,31.4,96.1,31.4,96.1,31.4z M95.7,31.7c0.1,0,0.1,0,0.2,0c-1.8,1.1-3.8,2.1-5.6,3.1c0.7-0.7,1.4-1.4,2.1-2.1
		c0.5-0.5,1-1,1.7-1.2c0.4-0.1,0.8-0.1,1.1-0.1C95.3,31.4,96.1,31.4,95.7,31.7C95.7,31.6,95.7,31.7,95.7,31.7z M76.8,40
		c0.2-0.1,0.3-0.2,0.4-0.3c-0.2,0.2-0.5,0.5-0.7,0.7C76.5,40.3,76.6,40.1,76.8,40C76.7,40,76.7,40,76.8,40z M76.7,39.8
		c0,0,0-0.1,0-0.1c0.1-0.1,0.2-0.3,0.3-0.4c1.1-0.8,2.1-1.9,3-2.9c0.2-0.2,0.3-0.4,0.5-0.6c-0.4,0.6-0.9,1.2-1.4,1.8
		c-0.5,0.5-0.9,1.1-1.4,1.6C77.5,39.4,77.2,39.6,76.7,39.8C76.8,39.8,76.8,39.8,76.7,39.8C76.7,39.8,76.7,39.8,76.7,39.8z
		 M76.4,40.3c-0.1,0.2-0.3,0.4-0.3,0.6c-1,0.9-2,1.8-2.9,2.7c-0.1,0.1-0.2,0.1-0.2,0.2c0.7-0.7,1.4-1.4,2.1-2.1
		c0.6-0.6,1.1-1.2,1.6-1.8C76.5,40,76.4,40.1,76.4,40.3z M75.1,43.4c0.7-0.6,1.4-1.2,2.1-1.9c-0.1,0.3-0.3,0.5-0.4,0.8
		c-0.4,0.8-1,1.2-1.7,1.6c-0.4,0.2-0.9,0.4-1.4,0.6C74.2,44.1,74.7,43.7,75.1,43.4z M81.3,35.3c-1.6,2.4-3.5,4.5-5.7,6.4
		c0.2-0.2,0.5-0.5,0.7-0.7c1.1-1.1,2.2-2.3,3.2-3.5c1.7-2.2,3.3-4.6,4.4-7.2c0,0,0,0,0,0c-0.3,0.6-0.7,1.3-1,1.9
		c0.1-0.3,0.2-0.6,0.4-0.9c0.5-1.4,1-2.9,1.3-4.4c0-0.1,0.1-0.2,0.1-0.2c0,0,0,0,0,0c0,0,0,0.1-0.1,0.1c0-0.1,0.1-0.1,0.1-0.2
		c0,0,0,0,0,0c0,0,0,0.1,0,0.1c0,0,0,0,0-0.1c0,0,0-0.1-0.1,0c0,0.1-0.1,0.2-0.1,0.3c-0.5,0.7-1,1.4-1.6,2c-0.8,0.8-1.7,1.3-2.7,1.9
		c0.7-1.2,1.3-2.5,2-3.7c0.3-0.4,0.6-0.8,1-1.2c0.4,0,0.8,0.1,1.1,0.3c0,0,0,0,0,0c-0.3-0.3-0.7-0.4-1.1-0.4
		c0.2-0.3,0.5-0.5,0.8-0.8c0.8-0.5,1.6-1.1,2.1-1.8c-0.3,0.7-0.6,1.5-0.9,2.2c0,0,0,0,0,0c0.6-1,1-2,1.5-3.1
		c-0.2,0.6-0.4,1.2-0.6,1.8c-0.3,0.6-0.3,1.2-0.5,1.8c-0.3,1.3-0.6,2.6-1.2,3.8c0,0,0,0,0,0c-0.1,0.2-0.2,0.3-0.3,0.5c0,0,0,0,0,0
		C83.3,32.2,82.3,33.7,81.3,35.3z M73.4,40.5c-0.1,0-0.1,0.1-0.2,0.1c-1,0.3-2,0.7-2.9,1.3c-0.6,0.3-1.2,0.7-1.7,1.1
		c-0.7,0.5-1.4,1-2,1.6c0,0,0-0.1,0-0.1c0.1-0.4,0.1-0.8,0.1-1.2c0.2-0.6,0.9-1.1,1.3-1.6c0.3-0.2,0.5-0.5,0.8-0.7
		c0.1-0.1,1.2-1.3,1.2-0.5c0,0,0.1,0,0.1,0c0.1-1.3-1-0.1-1.4,0.3c-0.4,0.4-0.9,0.9-1.3,1.3c0.2-0.3,0.4-0.6,0.7-0.9
		c0.6-0.7,1.2-1.4,1.8-2.1c0.1,0.1,0.1,0.2,0.1,0.3c0.1,0.3,0.2,0.6,0.3,0.8c0.1,0.5,0.2,1,0.2,1.5c0,0,0.1,0,0.1,0
		c0.1-0.6,0-1.1-0.1-1.7c-0.1-0.3-0.2-0.9-0.4-1.1c0.1-0.1,0.2-0.2,0.3-0.3c1.1-1.2,2.1-2.4,3.4-3.4c0.2,0.8,0.4,1.5,0.4,2.3
		C73.7,38.6,73.5,39.5,73.4,40.5C73.3,40.5,73.4,40.5,73.4,40.5z M66,41.2C66,41.2,66,41.2,66,41.2c0,0.1-0.1,0.2-0.1,0.3
		c-0.3-0.5-0.6-1-1-1.4c0.1,0,0.1,0,0.2,0c0.8-1.9,1.5-3.7,2.1-5.7c-0.4,1.7-0.2,3.4-0.5,5.1c-0.1,0.3-0.2,0.6-0.4,0.8
		C66.2,40.6,66,40.9,66,41.2C65.9,41.2,66,41.3,66,41.2z M68.3,52.6c1.2,1.1,2.6,2,4.1,2.5c0.6,0.2,1.3,0.4,2.1,0.5
		c-0.2,0.1-0.4,0.2-0.7,0.3c-1,0-1.9,0-2.9-0.4c-0.8-0.3-1.5-0.9-2.2-1.5c-1.3-1.1-2.6-2.1-4.1-2.9c0,0-0.1,0,0,0
		c0.9,0.6,1.8,1.2,2.6,1.9c0.7,0.6,1.3,1.2,2,1.8c1,0.8,2.3,1.5,3.6,1.5c-0.5,0.2-1.1,0.4-1.7,0.6c-1.2-0.1-2.3-0.3-3.4-0.8
		c-1.1-0.5-1.9-1.6-2.7-2.5c-0.8-0.9-1.7-1.7-2.7-2.3c-0.5-0.3-1.1-0.7-1.7-0.8c0.1-0.1,0.3-0.2,0.4-0.2c0.8,0,1.6,0.2,2.4,0.5
		c0,0,0.1,0,0,0c-0.6-0.4-1.3-0.7-2.1-0.8c0.1-0.1,0.2-0.1,0.3-0.2c0.8,0.2,1.6,0.3,2.4,0.6c1.1,0.4,2.1,0.9,3,1.5c0,0,0,0,0,0
		c-1.3-1.1-3.1-2-4.9-2.3c0.5-0.1,0.9-0.2,1.5-0.2c0.9,0,1.7,0.3,2.6,0.5c1.5,0.5,2.8,1.3,4.1,2.2c1.1,0.8,2.3,1.8,3.6,2.3
		c0.8,0.3,1.6,0.4,2.3,0.3c0,0,0,0,0,0c-0.4,0.2-0.7,0.4-1.1,0.5c-1,0.1-2-0.2-3-0.5C70.9,54.3,69.5,53.6,68.3,52.6
		C68.3,52.6,68.2,52.6,68.3,52.6z M40.1,51.1C38.6,52,37.3,53,36,54.1c-0.7,0.6-1.4,1.1-2.2,1.5c-1,0.5-1.9,0.4-3,0.4
		c-0.2-0.1-0.4-0.2-0.6-0.3c0.7,0,1.5-0.3,2.2-0.5c1.6-0.5,2.9-1.4,4.1-2.5c0,0,0-0.1,0,0c-1.1,0.9-2.4,1.6-3.7,2.1
		c-1,0.4-2.2,0.7-3.3,0.5c-0.2-0.1-0.4-0.2-0.6-0.3c-0.1-0.1-0.3-0.2-0.4-0.2c0.8,0.1,1.6,0,2.3-0.3c1.3-0.5,2.5-1.5,3.6-2.3
		c1.3-0.9,2.6-1.7,4.1-2.2c0.8-0.2,1.5-0.4,2.3-0.5c0.6-0.1,1.2,0,1.7,0.1c-1.8,0.3-3.6,1.2-4.9,2.3c0,0,0,0,0,0
		c0.9-0.6,1.9-1.1,3-1.5c0.8-0.3,1.6-0.4,2.5-0.6c0.1,0.1,0.2,0.1,0.3,0.2c-0.8,0.1-1.5,0.3-2.1,0.8c0,0,0,0.1,0,0
		c0.8-0.4,1.6-0.5,2.5-0.5c0.1,0.1,0.2,0.2,0.4,0.3c-0.5,0.1-1,0.4-1.5,0.7c-1.1,0.6-2,1.3-2.8,2.3c-0.8,0.9-1.6,1.9-2.7,2.5
		c-1.1,0.6-2.4,0.7-3.7,0.9c-0.6-0.2-1.1-0.4-1.7-0.6c1.3,0.1,2.7-0.7,3.7-1.5c0.7-0.5,1.2-1.1,1.9-1.6
		C38.2,52.4,39.2,51.8,40.1,51.1C40.1,51.2,40.1,51.1,40.1,51.1z M62.7,47.7c0.1-0.2,0-0.5-0.3-0.5c-0.1,0-0.2,0.1-0.3,0.1
		c0-0.1,0-0.2,0-0.4c-0.2-1.6-1.1-3.1-2.4-4.1c-1.5-1.1-3.4-1.6-4.9-2.8c-0.7-0.6-1.3-1.3-1.7-2.1c-0.3-0.5-0.4-1-0.6-1.5
		c0-0.1,0.1-0.3,0.1-0.4c0,0.1,0.1,0.3,0.3,0.3c0.4,0,0.4-0.6,0-0.6c-0.1,0-0.2,0.1-0.3,0.2c0-0.1,0-0.2-0.1-0.3
		c-0.1-0.1-0.1-0.3-0.1-0.5c0,0.1,0,0.2,0,0.3c0,0.2-0.1,0.3-0.2,0.5c0-0.2-0.3-0.2-0.4-0.1c-0.1,0-0.2,0.1-0.2,0.2
		c-0.1,0.2,0.1,0.4,0.3,0.4c0.2,0,0.3-0.1,0.3-0.2c0,0.1,0,0.3,0.1,0.4c-0.1,0.4-0.3,0.9-0.5,1.3c-0.4,0.8-1,1.6-1.7,2.2
		c-1.4,1.3-3.5,1.8-5,2.9c-1.3,1-2.1,2.4-2.4,4c0,0.1,0,0.3,0,0.4c-0.1-0.1-0.1-0.1-0.3-0.1c-0.3,0-0.4,0.3-0.3,0.5
		c-0.4-0.7-0.6-1.6-0.7-2.5c0-2.1,1.3-4,2.7-5.4c1.4-1.3,3-2.3,4.7-3.3c0.6-0.4,1.3-0.8,1.9-1.3c0.5-0.4,1-0.8,1.5-1.2
		c0,0,0.1-0.1,0.1-0.1c0.1,0,0.2,0,0.2,0.1c0.5,0.4,1,0.8,1.4,1.2c0.6,0.5,1.3,0.9,1.9,1.3c1.6,1,3.3,2,4.7,3.3
		c1.5,1.4,2.7,3.3,2.7,5.4C63.4,46,63.1,46.9,62.7,47.7z M63.3,48.4c0,0-0.1,0-0.1,0C63.2,48.4,63.2,48.4,63.3,48.4
		C63.2,48.4,63.2,48.4,63.3,48.4C63.3,48.4,63.3,48.4,63.3,48.4z M62.7,47.7C62.6,47.7,62.6,47.7,62.7,47.7
		c-0.3,0.3-0.5,0.5-0.7,0.6c0.1-0.2,0.1-0.4,0.1-0.6c0.1,0.1,0.2,0.2,0.3,0.2C62.5,47.8,62.6,47.8,62.7,47.7z M52.5,37.2
		c0,0.1-0.1,0.1-0.1,0.2c0-0.1-0.1-0.1-0.1-0.2c0-0.1,0.1-0.2,0.1-0.3C52.4,37,52.5,37.1,52.5,37.2z M42.8,48.4
		c-0.2-0.1-0.4-0.3-0.5-0.5c0-0.1-0.1-0.1-0.1-0.2c0.1,0.1,0.1,0.1,0.2,0.1c0.1,0,0.2-0.1,0.3-0.1C42.7,47.9,42.8,48.1,42.8,48.4z
		 M41.7,48.4c-0.1,0-0.1,0-0.2,0c0,0,0,0,0.1,0C41.6,48.4,41.6,48.4,41.7,48.4C41.6,48.4,41.6,48.4,41.7,48.4z M41.8,48.6
		c0.2,0.2,0.3,0.3,0.5,0.5c-0.8-0.2-1.8,0-2.5,0.2c-1.4,0.3-2.8,0.8-4,1.6c-1.3,0.8-2.4,1.7-3.6,2.5c-0.7,0.5-1.5,0.8-2.3,1
		c-0.7,0.2-1.4,0.1-2-0.1c-0.1-0.1-0.2-0.1-0.4-0.2c0.3,0,0.5,0,0.7,0c1.6-0.1,3-0.9,4.3-1.7C35.2,50.6,38.3,48.5,41.8,48.6z
		 M38.8,54.9c0.8-0.8,1.4-1.7,2.3-2.4c0.5-0.4,1-0.8,1.6-1.1c0.5-0.3,1-0.7,1.6-0.7c0.1,0.1,0.2,0.1,0.3,0.2
		c-1.5,0.4-2.7,1.6-3.7,2.7c-0.8,1-1.6,2-2.6,2.7c-1,0.7-2,0.9-3.1,0.9c-0.4-0.1-0.8-0.2-1.1-0.2C35.8,56.9,37.5,56.3,38.8,54.9z
		 M44.5,49.5c-0.2-0.1-0.3-0.2-0.5-0.3c-0.5-1.1-0.7-2-0.4-3.3c0.3-1.4,1.4-2.4,2.6-3.2c0,0,0,0,0,0c-1.3,0.7-2.2,1.8-2.7,3.1
		c-0.3,0.9-0.3,2,0,3c0,0,0,0,0,0c-0.7-1.1-0.4-2.9,0.2-4c0.9-1.6,2.5-2.4,4.1-3.2c1.3-0.6,2.5-1.4,3.4-2.5c0.4-0.5,0.7-1.1,1-1.7
		c0,0.1,0,0.2,0.1,0.3c-0.1,0.3-0.3,0.6-0.4,0.9c-0.3,0.6-0.8,1.2-1.3,1.6c-1.1,0.9-2.4,1.6-3.6,2.3c0,0,0,0,0,0
		c2-0.8,4.6-2.2,5.5-4.4c0.9,2.2,3.5,3.6,5.5,4.4c0,0,0,0,0,0c-1.2-0.6-2.4-1.3-3.4-2.1c-0.6-0.4-1-0.9-1.4-1.6
		c-0.2-0.4-0.4-0.7-0.5-1.1c0-0.1,0-0.2,0.1-0.3c0.2,0.6,0.5,1.1,0.9,1.5c0.9,1.3,2.2,2,3.5,2.7c1.6,0.8,3.1,1.5,4,3
		c0.7,1.1,1.1,2.9,0.4,4.1c0,0,0,0-0.1,0.1c0.3-0.9,0.3-2,0-2.9c-0.4-1.3-1.4-2.5-2.7-3.1c0,0,0,0,0,0c1.1,0.7,2,1.7,2.5,3
		c0.4,1.2,0.2,2.3-0.3,3.4c-0.2,0.1-0.4,0.2-0.6,0.4c0.1-0.2,0.1-0.3,0.1-0.5c0.2-1.3-0.7-2.5-1.6-3.3c-0.9-0.9-2.1-1.6-3.4-1.9
		c-0.8-0.2-1.6-0.3-2.3-0.9c-0.6-0.5-0.7-1.6-0.7-2.3c-0.1,0.7-0.1,1.6-0.6,2.2c-0.5,0.7-1.5,0.8-2.2,1c-1.3,0.3-2.4,0.9-3.4,1.8
		c-1,0.9-1.8,2.1-1.7,3.4C44.4,49.1,44.5,49.3,44.5,49.5z M60.5,50.7c0.5,0.1,1,0.4,1.4,0.6c0.6,0.4,1.2,0.8,1.8,1.2
		c0.9,0.7,1.5,1.6,2.3,2.4c1.2,1.3,2.9,2,4.7,2.1c-0.4,0.1-0.7,0.2-1.1,0.2c-1-0.1-1.9-0.2-2.9-0.8c-1.1-0.7-2-1.8-2.8-2.8
		c-1-1.1-2.3-2.3-3.7-2.8C60.3,50.8,60.4,50.7,60.5,50.7z M75.5,54.5c-0.9,0-1.8-0.5-2.6-0.9c-1.3-0.7-2.4-1.7-3.6-2.5
		c-1.2-0.8-2.6-1.3-4-1.7c-0.8-0.2-1.8-0.4-2.7-0.3c0.2-0.2,0.3-0.3,0.5-0.5c3.4-0.1,6.5,1.9,9.3,3.7c1.3,0.8,2.7,1.7,4.3,1.8
		c0.2,0,0.6,0,0.9,0c-0.1,0.1-0.2,0.1-0.3,0.2C76.6,54.5,76.1,54.5,75.5,54.5z M65,42.7c0-0.1-0.2-0.1-0.2,0c0.3,1.6-0.4,3-1.4,4.2
		c0.1-0.2,0.1-0.4,0.2-0.6c0.5-1.9-0.3-4-1.5-5.5c-1.3-1.6-2.9-2.8-4.6-3.8c-1.5-0.9-3.1-1.8-4.4-3c-0.3-0.2-0.6-0.5-0.7-0.9
		c0,0.4-0.5,0.7-0.7,1c-0.3,0.3-0.7,0.6-1,0.9c-0.7,0.5-1.5,1-2.3,1.5c-0.3,0.2-0.6,0.3-0.8,0.5c-1.8,1-3.5,2.3-4.8,3.9
		c-1.2,1.5-1.8,3.4-1.6,5.3c0,0.3,0.1,0.6,0.2,0.8c-1-1.2-1.6-2.7-1.4-4.2c0-0.1-0.1-0.2-0.2,0c-0.4,1.1-0.2,2.3,0.2,3.3
		c-0.8-1.2-1-2.7-0.2-4.2c1-1.9,3.1-3,4.8-4.1c1.7-1,3.5-1.9,5.2-3.1c0.7-0.6,1.6-1.2,2.3-1.9c0,0,0.1,0.1,0.1,0.1
		c-1.5,1.7-3.5,2.9-5.5,4c-2.1,1.2-4.4,2.3-6,4.2c0,0,0,0.1,0,0c1.9-1.7,4.1-2.9,6.3-4.2c1.9-1.1,3.9-2.2,5.4-3.9
		c1.4,1.6,3.3,2.8,5.2,3.8c2.3,1.3,4.5,2.5,6.5,4.3c0,0,0.1,0,0,0c-1.6-1.8-3.8-3-5.9-4.1c-2.1-1.1-4.1-2.3-5.7-4.1
		c0,0,0.1-0.1,0.1-0.1c0.7,0.8,1.6,1.4,2.3,2c1.6,1.2,3.4,2.1,5.2,3.1c1.8,1.1,3.7,2.2,4.8,4.1c0.9,1.5,0.6,3-0.2,4.2
		C65.2,44.9,65.4,43.7,65,42.7z M38.9,41.1c-0.1-0.3-0.3-0.5-0.4-0.8c-0.1-0.3-0.2-0.5-0.3-0.8c-0.3-1.7-0.1-3.4-0.5-5.1
		c0.6,1.9,1.3,3.8,2.1,5.6c0,0.1,0.1,0.1,0.1,0.1c-0.4,0.4-0.7,0.9-1,1.4c0-0.1-0.1-0.2-0.1-0.4C38.8,41.2,38.8,41.2,38.9,41.1
		C38.8,41.2,38.9,41.2,38.9,41.1z M22.4,26c1.2,0.7,2.3,1.4,3.3,2.2c0.2,0.3,0.4,0.5,0.6,0.8c-0.2,0.1-0.3,0.2-0.4,0.3
		c-0.4,0.4-1.1,1-1.1,1.7c0,0,0,0,0,0c0,0,0,0,0,0c-0.5-1.4-1.4-2.7-2.2-3.9c-0.2-0.3-0.5-0.7-0.8-1C22,26,22.2,26,22.4,26z
		 M21.7,25.8c-0.2-0.2-0.3-0.4-0.5-0.5c0.3,0.2,0.5,0.3,0.8,0.4c0.1,0,0.1,0.1,0.2,0.1C22,25.8,21.9,25.8,21.7,25.8z M37.5,36.8
		c-0.2-0.5-0.6-0.9-1.1-1.3c-0.3-0.3-0.6-0.5-0.8-0.7c-0.1-0.4-0.2-0.7-0.4-1.1c0-0.1-0.1-0.2-0.1-0.3c0.1,0.1,0.2,0.3,0.3,0.4
		c0.6,0.6,1.4,1.2,1.8,2c0,0,0,0,0,0c-0.1-0.5-0.6-0.9-0.9-1.2c-0.5-0.5-1.2-1.1-1.5-1.8c-0.2-0.7-0.4-1.5-0.6-2.2
		c0.7,1.6,1.8,3,2.9,4.3c0,0,0.1,0,0.1,0c-1.4-1.8-2.8-3.7-3.3-6c-0.2-1.2-0.3-2.4-0.2-3.7c0.2,1.4,0.6,2.8,1.1,4.1
		c0.6,1.6,1.3,3.2,2.3,4.6c0,0,0,0,0,0c0.1,1.1,0.2,2.2,0.2,3.4c0,0.4,0,0.7,0.1,1c-0.1-0.2-0.3-0.5-0.4-0.7c0,0,0.1,0.1,0.2,0.1
		c0,0,0.1,0,0,0c-0.1-0.2-0.3-0.3-0.4-0.4c-0.3-0.5-0.7-1-1-1.5c-0.1-0.2-0.2-0.4-0.2-0.6c0,0,0.1,0.1,0.1,0.1
		C36.5,35.7,36.9,36.2,37.5,36.8C37.4,36.9,37.5,36.9,37.5,36.8z M42.9,15c0.6,1.6,1.1,3.3,1.7,4.9c0.3,0.9,0.5,1.9,0.9,2.9
		c-0.2-0.2-0.3-0.4-0.5-0.6c-0.1-0.2-0.3-0.3-0.4-0.5c-0.5-2.3-1.7-4.5-3-6.3c-0.7-0.9-1.5-1.8-2.2-2.7c-0.8-0.9-1.3-1.8-1.8-2.8
		c0.1-0.4,0.2-0.7,0.3-1.1c0.3-1.1,0.8-2.2,1-3.4c0.3,0.4,0.6,0.8,0.9,1.3C40.7,9.4,41.9,12.2,42.9,15z M40.2,6.1
		c0,0.1,0.1,0.1,0.1,0.2c0,0.1,0.1,0.1,0.1,0.2c0,0,0,0,0,0c0,0-0.1-0.1-0.1-0.1C40.2,6.3,40.2,6.2,40.2,6.1z M52.3,8.2
		C52.3,8.2,52.3,8.2,52.3,8.2c0-0.1,0.1-0.1,0.2-0.1c0,0,0.1,0,0.1,0c0,0,0,0,0,0c0,0,0,0,0,0c0,0,0,0,0.1,0c1,0.7,1.6,1.9,2.4,2.9
		c0.8,0.9,1.5,1.8,2.3,2.7c0.5,0.7,1,1.4,1.5,2.2c0.2,0.4,0.4,0.8,0.6,1.2c0.1,0.2,0.2,0.4,0.2,0.6c0,0.1,0.2,0.5,0.2,0.6
		c0,0.1,0,0.1-0.1,0.2c-0.5-1.6-1.4-3.1-2.4-4.4c-1.4-1.8-3-3.5-4.3-5.4c0,0,0,0,0,0c1.1,1.9,2.5,3.4,3.8,5.1
		c1.2,1.6,2.2,3.3,2.7,5.2c0,0.1-0.1,0.3-0.1,0.4c-0.1,0-0.1,0.2-0.1,0.2c-0.1,0.3-0.2,0.6-0.3,0.9c-0.2-1.4-0.8-2.7-1.6-3.8
		c0,0,0,0,0,0c0.1,0.1,0.1,0.2,0.2,0.3c0,0,0,0,0,0c-0.1,0.1-0.2,0.3-0.3,0.5c-0.1,0.1-0.2,0.3-0.2,0.5c0,0,0,0,0.1,0
		c0.1-0.1,0.2-0.3,0.2-0.5c0.1-0.2,0.2-0.3,0.3-0.5c0.3,0.5,0.5,0.9,0.6,1.4c-0.2,0.1-0.4,0.3-0.5,0.6c-0.2-0.4-0.5-0.8-0.8-1.1
		c-0.5-0.6-1.2-1.1-1.8-1.7c0.1-0.6,0.4-1.2,0.7-1.8c0,0,0-0.1,0,0c-0.3,0.5-0.6,1.1-0.7,1.7c0,0,0,0,0,0c0,0,0,0,0,0
		c-0.3-0.3-0.6-0.5-0.9-0.8c0.2-0.7,0.4-1.5,0.6-2.2c0.8,0.9,1.6,1.8,2.2,2.7c0,0,0.1,0,0,0c-0.7-1-1.4-2.1-2.2-3
		c-0.4-0.6-0.9-1.1-1.3-1.7c-0.2-0.3-0.4-0.6-0.7-0.9c-0.2-0.2-0.3-0.4-0.4-0.7c0,0,0,0,0,0c-0.1,0.3-0.3,0.5-0.5,0.7
		c-0.2,0.3-0.4,0.6-0.7,0.9c-0.4,0.5-0.9,1.1-1.3,1.6c-0.8,1-1.5,2-2.2,3c0,0,0,0,0,0c0.7-1,1.5-1.9,2.2-2.7
		c0.2,0.7,0.4,1.5,0.6,2.2c-0.3,0.3-0.6,0.6-0.9,0.8c0,0,0,0,0-0.1c0,0,0,0,0,0c-0.2-0.6-0.4-1.2-0.7-1.7c0,0-0.1,0,0,0
		c0.3,0.6,0.6,1.2,0.7,1.8c-0.6,0.6-1.3,1.1-1.8,1.7c-0.3,0.3-0.6,0.7-0.8,1.1c-0.1-0.2-0.3-0.5-0.5-0.6c0.2-0.5,0.4-1,0.6-1.4
		c0.1,0.2,0.2,0.3,0.3,0.5c0.1,0.2,0.1,0.3,0.2,0.5c0,0,0.1,0,0.1,0c0-0.2-0.1-0.4-0.2-0.5c-0.1-0.2-0.2-0.3-0.3-0.5c0,0,0,0,0,0
		c0.1-0.1,0.1-0.2,0.2-0.3c0,0,0,0,0,0c-0.8,1.1-1.4,2.5-1.6,3.9c-0.1-0.2-0.1-0.4-0.2-0.5c0-0.1-0.1-0.2-0.1-0.4
		c0.1-0.1,0-0.2-0.1-0.2c0-0.1-0.1-0.3-0.1-0.4c0.5-1.9,1.4-3.5,2.6-5c1.3-1.8,2.9-3.4,4-5.3c0,0,0,0,0,0c-1.3,1.9-2.9,3.6-4.3,5.4
		c-1,1.3-2,2.8-2.5,4.4c0-0.1,0-0.1-0.1-0.2c0.6-2.3,2.1-4.2,3.6-6c0.6-0.7,1.2-1.4,1.7-2.1c0.6-0.7,1.1-1.5,1.8-2.1
		C52.2,8.2,52.2,8.2,52.3,8.2C52.2,8.2,52.2,8.2,52.3,8.2C52.2,8.2,52.3,8.2,52.3,8.2z M65.2,6.7c0.3-0.5,0.6-0.9,0.9-1.3
		c0.1,1,0.5,2,0.8,2.9c0.2,0.5,0.3,1.1,0.4,1.6c-0.5,0.9-1,1.8-1.7,2.6c-0.7,0.9-1.6,1.7-2.3,2.7c-1.4,1.9-2.7,4.2-3.2,6.5
		c-0.1,0.2-0.3,0.3-0.4,0.5c-0.2,0.2-0.3,0.4-0.5,0.6c0.3-0.8,0.5-1.6,0.7-2.4c0.6-1.8,1.2-3.6,1.8-5.4C62.9,12.2,64.1,9.5,65.2,6.7
		z M64.5,6.5c0,0,0-0.1,0.1-0.1c0-0.1,0.1-0.1,0.1-0.2c0,0.1-0.1,0.1-0.1,0.2C64.5,6.4,64.5,6.5,64.5,6.5
		C64.5,6.5,64.5,6.5,64.5,6.5z M67.5,35.9c0.4-0.7,1.1-1.3,1.7-1.9c0.2-0.2,0.4-0.4,0.5-0.5c0,0,0,0,0,0c-0.1,0.5-0.3,0.9-0.4,1.3
		c-0.3,0.3-0.5,0.5-0.8,0.7c-0.4,0.3-0.8,0.8-1.1,1.3c0-0.5,0-1.1,0-1.6c0.1-1,0.2-1.9,0.4-2.8c0,0,0,0,0,0c0.6-2,1.2-4.1,1.5-6.1
		c0,0,0,0,0,0c-0.6,2.1-1.1,4.2-1.7,6.2c-0.2,0.5-0.6,0.9-1,1.3c-0.1,0.1-0.3,0.2-0.4,0.3c0.6-1.6,1-3.3,1.3-5
		c0.3-1.7,0.5-3.6,0.4-5.3c0,0,0,0,0,0c0,0,0.1,0,0.1-0.1c0.7-0.6,1.7-1.3,2.3-2.2c-0.1,0.5-0.1,1-0.2,1.5c0,0.1,0.1,0.1,0.1,0
		c0.1-0.5,0.2-0.9,0.3-1.4c0,1.1,0.4,2.1,0.6,3.1c-0.4,1.6-0.6,3.1-1.2,4.6c-0.6,1.6-1.4,3.1-2.3,4.6c0,0,0,0.1,0.1,0
		c0.9-1.3,1.7-2.8,2.2-4.3c0.5-1.3,1-2.8,1.2-4.3c0.1,1.2,0,2.5-0.2,3.7c-0.5,2.3-1.9,4.1-3.3,6c0,0,0,0.1,0,0
		c1.1-1.3,2.2-2.7,2.9-4.4c-0.2,0.8-0.4,1.5-0.6,2.3c-0.3,0.6-0.8,1.1-1.3,1.6C68.1,34.9,67.6,35.3,67.5,35.9
		C67.5,35.9,67.5,35.9,67.5,35.9z M78.4,29c-0.1,0-0.2-0.1-0.2-0.1c0.3-0.2,0.5-0.4,0.8-0.6C78.8,28.5,78.6,28.7,78.4,29z
		 M78.4,29.1c0.2,0.1,0.4,0.3,0.6,0.5c0.4,0.4,0.9,0.8,0.9,1.4c0,0-0.1,0-0.1,0.1c-1,0.6-2,1.2-3,1.7c0,0,0,0,0,0
		C77.1,31.4,77.7,30.2,78.4,29.1z M78.3,29.1c-0.8,1.1-1.4,2.3-1.5,3.7c0,0,0,0,0,0c-0.3-0.7-0.9-1.2-1.5-1.1
		c0.1-0.1,0.1-0.2,0.2-0.3c0.2-0.3,0.5-0.5,0.7-0.8c0.6-0.6,1.2-1.1,1.8-1.6C78.1,29,78.2,29,78.3,29.1z M76,31.9
		c0.4,0.2,0.6,0.6,0.8,0.9c0,0,0,0,0,0c0,0,0,0,0,0c-0.9,0.5-1.8,1.1-2.7,1.7c-0.2,0.1-0.4,0.3-0.6,0.4c0.3-0.6,0.6-1.3,1-1.9
		c0.2-0.4,0.5-0.8,0.7-1.2C75.4,31.7,75.7,31.7,76,31.9z M73.3,35.2c0,0-0.1,0.1-0.1,0.1c0-0.3-0.1-0.6-0.4-0.8c0,0,0,0-0.1,0
		c0.7-0.9,1.5-1.7,2.3-2.6C74.3,32.9,73.7,34.1,73.3,35.2z M72.8,34.7c0.2,0.2,0.3,0.4,0.3,0.7c-1.2,1-2.3,2.3-3.3,3.4
		c0.6-1.1,1.3-2.2,2-3.2c0.3-0.3,0.5-0.7,0.8-1C72.7,34.6,72.7,34.6,72.8,34.7z M69.4,39.1C69.4,39.1,69.4,39.1,69.4,39.1
		c-0.6,0.7-1.2,1.3-1.8,2c0.2-0.2,0.3-0.5,0.5-0.7c0.8-1.1,1.6-2.2,2.4-3.3c0-0.1,0.1-0.1,0.1-0.2C70.2,37.6,69.8,38.4,69.4,39.1z
		 M67.9,37.3c-0.1,0.1-0.3,0.3-0.4,0.4c0,0,0,0.1,0,0c0,0,0.1-0.1,0.1-0.1c-0.2,0.2-0.3,0.5-0.4,0.8c0.1-0.3,0.1-0.5,0.1-0.8
		c0-0.2,0-0.5,0-0.7c0,0,0,0,0,0c0.4-0.6,0.9-1.1,1.5-1.5c0.1-0.1,0.2-0.1,0.3-0.2c-0.1,0.2-0.1,0.4-0.2,0.6
		C68.5,36.3,68.2,36.8,67.9,37.3z M67.2,34.3c0,0,0-0.1,0-0.1c0,0,0,0,0-0.1c0,0,0,0,0,0c0.1-0.2,0.1-0.4,0.2-0.6
		c0-0.1,0.1-0.3,0.1-0.4c-0.3,1.1-0.4,2.2-0.4,3.4c0,0.8,0,1.6-0.2,2.4c0,0,0,0.1,0,0.1C67.2,37.5,66.9,35.9,67.2,34.3
		C67.2,34.4,67.2,34.3,67.2,34.3z M63.6,35.9c-0.8,0.3-1.5,0.9-2.1,1.6c-0.1-0.1-0.2-0.1-0.4-0.2c0.8-1.5,2.6-1.9,4.1-2.6
		c0.9-0.4,1.6-1,2.1-1.8c0,0.1-0.1,0.2-0.1,0.3c-0.1,0.4-0.3,0.8-0.4,1.3C66.1,35.4,64.7,35.4,63.6,35.9z M66.9,34.7
		c-0.6,1.8-1.3,3.6-2,5.3c0,0,0,0,0,0.1c-0.2-0.2-0.3-0.3-0.5-0.5c-0.8-0.8-1.7-1.4-2.6-2c0.8-1,1.8-1.6,3.1-1.9
		C65.5,35.4,66.3,35.2,66.9,34.7z M61.1,21.9c-2.7,3.4-4.9,7.5-6.1,11.7c0,0-0.1-0.1-0.1-0.1c0,0,0.1-0.1,0.1-0.2
		c1.1-3.9,2.7-7.6,5.3-10.8c1.3-1.7,2.8-3.3,4.6-4.5c1.7-1.2,3.7-1.9,5.5-3c0.1,1.3,0.1,2.7,0.1,4.1c-0.6,1.8-2.4,3-4,4
		c-1.5,1-3.1,1.9-4.5,3c-2.4,2.1-4.6,5.2-5.4,8.3c-0.4-0.2-0.8-0.5-1.2-0.7c0,0,0,0,0,0c0.6-2.1,1.3-4.1,2.3-6.1
		C58.6,25.7,59.8,23.8,61.1,21.9C61.2,21.9,61.1,21.9,61.1,21.9z M50.8,32.7c-0.3-1-0.7-2-1.1-2.9c0-0.1,0.1-0.2,0.1-0.3
		c0.3-0.6,1-1,1.5-1.4c0.5-0.4,0.8-1,1-1.6c0.2,0.6,0.5,1.2,1,1.6c0.5,0.4,1,0.7,1.4,1.2c0.1,0.1,0.2,0.3,0.2,0.4
		c-0.4,1-0.8,1.9-1.1,3c-0.3-0.3-0.6-0.7-0.9-1c-0.2-0.4-0.4-0.8-0.6-1.2C52.2,31.4,51.6,32.1,50.8,32.7z M52.5,32.5
		c0,0-0.1,0.1-0.1,0.1c0,0-0.1-0.1-0.1-0.1c0,0,0.1-0.1,0.1-0.1C52.4,32.4,52.5,32.4,52.5,32.5z M43.7,21.9c1.3,1.8,2.5,3.6,3.4,5.6
		c1,2.1,1.7,4.1,2.4,6.3c-0.4,0.3-0.8,0.5-1.2,0.8c-0.8-3.2-2.9-6.2-5.4-8.3c-1.4-1.2-2.9-2.1-4.5-3c-1.6-1-3.4-2.2-4-4
		c-0.1-1.4-0.1-2.8,0.1-4.1c1.6,1,3.4,1.8,5.1,2.7c1.9,1.1,3.4,2.7,4.7,4.4c2.7,3.2,4.4,7.1,5.5,11.2c0,0.1,0,0.1,0.1,0.2
		c0,0-0.1,0.1-0.1,0.1c0,0,0,0,0,0C48.6,29.4,46.4,25.2,43.7,21.9C43.7,21.9,43.6,21.9,43.7,21.9z M41.2,35.9
		c-1.1-0.5-2.4-0.5-3.3-1.4c-0.1-0.4-0.3-0.8-0.4-1.3c0-0.1-0.1-0.2-0.1-0.3c0.5,0.8,1.2,1.3,2.1,1.8c1.5,0.7,3.3,1.1,4.1,2.6
		c-0.1,0.1-0.2,0.1-0.3,0.2C42.7,36.8,42,36.2,41.2,35.9z M43.1,37.6c-0.8,0.5-1.6,1.1-2.3,1.7c-0.3,0.2-0.5,0.5-0.8,0.8
		c0,0,0,0,0,0c-0.7-1.8-1.4-3.5-2-5.3c0.5,0.5,1.3,0.8,2,1C41.3,36,42.3,36.6,43.1,37.6z M37.9,39C37.9,38.9,37.9,38.9,37.9,39
		c-0.3-0.8-0.3-1.5-0.3-2.2c0-1.2-0.1-2.5-0.4-3.7c0,0.1,0,0.1,0,0.2c0.1,0.3,0.2,0.6,0.3,0.9c0,0,0,0,0,0c0,0,0,0,0,0.1
		c0,0,0,0.1,0,0.1c0,0,0,0,0,0C37.9,35.8,37.7,37.5,37.9,39z M34.6,21.4c0.5,0.9,1.5,1.6,2.2,2.2c0,0,0.1,0.1,0.1,0.1c0,0,0,0,0,0
		c-0.1,1.7,0.1,3.4,0.3,5c0.3,1.8,0.7,3.6,1.4,5.3c0,0-0.1,0-0.1,0c-0.6-0.4-1-0.9-1.3-1.5c-0.6-2.1-1.1-4.2-1.7-6.3c0,0,0,0,0,0
		c0.3,2.1,0.9,4.1,1.5,6.1c0,0,0,0,0,0c0.1,0.5,0.2,1,0.3,1.5c-0.9-1.5-1.6-2.9-2.2-4.5c-0.6-1.5-0.8-3-1.2-4.6
		c0.2-1.1,0.6-2.1,0.6-3.1c0.1,0.5,0.2,0.9,0.3,1.4c0,0.1,0.1,0,0.1,0C34.8,22.5,34.7,21.9,34.6,21.4z M39.4,25.3
		c0.6,0.4,1.2,0.8,1.7,1.1c0.3,0.2,0.5,0.4,0.8,0.6c0,0,0,0,0,0c-0.6,1.1-0.8,2.6-0.9,3.8c-0.2,1.4-0.2,2.8,0,4.1c0,0,0.1,0,0.1,0
		c-0.1-1.3,0-2.6,0.1-3.9c0.2-1.4,0.6-2.7,0.9-4c0,0,0,0,0,0c0.7,0.5,1.3,1.1,1.9,1.7c0,0-0.1,0-0.1,0c-0.9,2.1-1.7,4.4-1.7,6.7
		c-0.3-0.2-0.7-0.3-1-0.5c-0.4-0.2-0.8-0.3-1.2-0.5c0,0,0,0,0,0C39.2,31.5,39,28.5,39.4,25.3C39.4,25.3,39.4,25.3,39.4,25.3z
		 M43.9,28.9c0.4,0.4,0.8,0.9,1.1,1.4c0.2,0.3,0.4,0.6,0.6,1c0,0,0,0,0,0C45,32,44.5,32.8,44,33.6c-0.4,0.8-0.6,1.8-1.1,2.5
		c-0.2-0.2-0.5-0.4-0.8-0.5c0.2-1.1,0.4-2.2,0.6-3.3C43,31.2,43.5,30.1,43.9,28.9C44,28.9,44,28.9,43.9,28.9z M39.2,25.3
		c-0.4,3-0.3,6.3,0.5,9.3c0,0,0,0,0,0c-0.3-0.1-0.7-0.3-1-0.5c0,0,0,0,0,0c-0.5-1.6-0.9-3.2-1.2-4.9c-0.3-1.8-0.3-3.6-0.4-5.5
		C37.8,24.3,38.5,24.8,39.2,25.3C39.2,25.3,39.2,25.3,39.2,25.3z M42.9,36.2c0.5-0.6,0.7-1.4,1-2.1c0.5-1,1.1-1.9,1.9-2.7
		c0.3,0.6,0.6,1.2,0.9,1.8c-1.3,0.9-2.4,2.3-3.1,3.7C43.4,36.7,43.2,36.4,42.9,36.2z M43.7,37c0.9-1.4,1.9-2.5,3.2-3.6
		c0.2,0.5,0.5,1,0.7,1.6c-0.3,0.2-0.7,0.4-1,0.6c-0.9,0.5-1.9,1-2.8,1.6C43.7,37.1,43.7,37.1,43.7,37C43.6,37,43.6,37,43.7,37z
		 M42.1,27.1c-1.3-1-2.7-1.8-4.1-2.7c-1.2-0.8-2.9-1.9-3.5-3.3c-0.1-0.5-0.1-1-0.1-1.5c0.5,1.3,1.6,2.3,2.7,3.1
		c1.6,1.2,3.4,2,4.9,3.3c1.4,1.1,2.7,2.5,3.7,4c1,1.5,1.7,3.1,2.3,4.8c-0.1,0.1-0.2,0.1-0.4,0.2C46.6,31.9,44.7,29,42.1,27.1z
		 M36.7,7c-0.2,0.4-0.4,0.9-0.6,1.3C36.1,8,36,7.8,35.8,7.5c0.2-0.5,0.5-1,0.7-1.5C36.6,6.4,36.6,6.7,36.7,7z M36.5,6
		c0.2-0.5,0.3-1,0.5-1.4c0,0,0,0,0,0c0,0,0.2,0.2,0.3,0.2c0.1,0.1,0.3,0.2,0.4,0.2c-0.3,0.6-0.6,1.2-0.9,1.8
		C36.8,6.5,36.6,6.3,36.5,6C36.5,6,36.5,6,36.5,6z M36.1,8.5c-0.2,0.4-0.3,0.8-0.5,1.1c-0.1-0.2-0.2-0.4-0.4-0.6c0,0-0.1,0,0,0
		c0.1,0.2,0.2,0.4,0.3,0.7c0,0,0,0.1-0.1,0.1c-0.1,0.2-0.2,0.4-0.3,0.7c-0.1-0.1-0.2-0.2-0.3-0.2c0,0-0.1,0,0,0
		c0.1,0.1,0.2,0.2,0.3,0.3c-0.2,0.4-0.4,0.8-0.6,1.3c0.2-1.2,0.4-2.3,0.8-3.5c0.1-0.3,0.2-0.6,0.4-0.9C35.9,7.9,36,8.2,36.1,8.5z
		 M35.2,14.9C35.2,14.9,35.2,14.8,35.2,14.9C35.2,14.9,35.2,14.9,35.2,14.9C35.2,14.9,35.2,14.9,35.2,14.9z M40,16.4
		c0.5,0.4,0.9,0.9,1.3,1.3c-0.1,0.1-0.2,0.3-0.3,0.5c-0.4-0.3-0.8-0.6-1.2-0.9C40,17.1,40,16.7,40,16.4z M39.8,17.3
		c-0.4-0.3-0.9-0.6-1.3-0.8c0-0.2,0-0.3,0-0.5c0-0.2,0-0.4,0.1-0.6c0.5,0.3,1,0.6,1.4,0.9C39.9,16.7,39.8,17,39.8,17.3z M41.2,18.2
		c0-0.1,0.1-0.2,0.2-0.4c0.4,0.5,0.7,1,1.1,1.6c-0.4-0.4-0.8-0.8-1.3-1.1C41.2,18.3,41.2,18.3,41.2,18.2z M41.5,17.7
		C41.5,17.7,41.5,17.7,41.5,17.7c-0.3-0.3-0.5-0.6-0.8-0.8c-0.2-0.2-0.5-0.4-0.7-0.7c0,0,0,0,0,0c0,0,0,0,0,0
		c-0.3-0.2-0.6-0.4-0.8-0.6c-0.7-0.5-1.3-0.8-1.9-1.5c0-0.3-0.1-0.5-0.1-0.8c0-1.1,0-2.1,0.2-3.1c0.3,0.7,0.7,1.3,1.2,1.9
		c0.8,1,1.6,1.8,2.4,2.8c1.6,2,2.5,4.2,3.3,6.5c-0.4-0.5-0.9-1-1.4-1.5C42.6,19.1,42.1,18.4,41.5,17.7z M38.5,15.3
		c-0.1,0.3-0.2,0.7-0.2,1.1c-0.1-0.1-0.3-0.2-0.5-0.3c-0.1-0.4-0.3-0.9-0.4-1.3c0-0.2-0.1-0.3-0.1-0.5C37.7,14.7,38,15,38.5,15.3z
		 M46.1,19.9c0.1-0.4,0.2-0.8,0.3-1.2c0.2,0.2,0.4,0.4,0.5,0.6c-0.5,0.8-0.8,1.7-0.8,2.6c0-0.1-0.1-0.3-0.1-0.4
		C46,21,46,20.5,46.1,19.9c0.1,0.2,0.1,0.3,0.2,0.4c0,0,0,0,0,0C46.3,20.2,46.2,20,46.1,19.9z M52.9,13.9c-0.2-0.4-0.3-0.9-0.5-1.3
		c0,0,0-0.1,0-0.1c0,0.3-0.1,0.5-0.2,0.8c0,0.1-0.3,0.5-0.2,0.6c-0.1-0.7-0.3-1.4-0.6-2c0.4-0.5,0.8-0.9,1.1-1.4
		c0.4,0.5,0.7,0.9,1.1,1.4C53.1,12.5,52.9,13.2,52.9,13.9z M53.6,12c0.4,0.4,0.8,0.9,1.1,1.3c-0.3,0.6-0.6,1.4-0.6,2.2
		c-0.4-0.4-0.7-0.8-1-1.3C53.1,13.4,53.3,12.7,53.6,12z M51.8,14.1c-0.3,0.5-0.6,0.9-1,1.3c0-0.7-0.3-1.5-0.6-2.2
		c0.4-0.4,0.8-0.9,1.1-1.3C51.5,12.7,51.7,13.4,51.8,14.1z M50.9,15.4c0.6-0.6,1.2-1.3,1.4-2.2c0,0.1,0.2,0.4,0.2,0.5
		c0.4,0.7,0.8,1.3,1.3,1.9c0.6,0.6,1.2,1.2,1.8,1.7c0.8,0.8,1.6,1.6,2.1,2.6c0.4,0.8,0.6,1.7,0.6,2.6c-0.2,0.6-0.3,1.2-0.3,1.8
		c-0.2,0.3-0.4,0.6-0.7,1c-0.2-0.9-0.9-1.6-1.5-2.2c0.3-0.8,0.6-1.6,1.1-2.3c0.2,0.4,0.4,0.8,0.6,1.3c0,0,0,0,0,0
		c-0.4-1.4-1.1-2.5-2.1-3.5c-0.5-0.5-1.1-0.9-1.7-1.4c-0.3-0.3-0.6-0.6-0.8-0.9c-0.1-0.1-0.2-0.3-0.3-0.4c0-0.1-0.3-0.5-0.3-0.6
		c-0.1,0.1-0.1,0.3-0.2,0.4c-0.1,0.2-0.3,0.4-0.5,0.6c-0.2,0.2-0.4,0.4-0.6,0.6c-0.5,0.5-1.1,0.9-1.7,1.3c-1.1,1-1.9,2.2-2.3,3.6
		c0,0,0,0,0,0c0.2-0.4,0.4-0.9,0.6-1.3c0.5,0.7,0.7,1.5,1.1,2.3c-0.6,0.6-1.3,1.4-1.5,2.3c-0.2-0.3-0.4-0.6-0.6-1
		c-0.1-0.6-0.2-1.2-0.3-1.7c0-0.8,0.1-1.5,0.4-2.3c0.4-1.1,1.3-2,2.1-2.9C49.6,16.8,50.3,16.1,50.9,15.4z M58.4,20.3
		c0.1-0.1,0.2-0.2,0.3-0.3c0.1,0.5,0.1,1,0.2,1.5c0,0.1-0.1,0.3-0.1,0.4c-0.1-0.9-0.4-1.7-0.8-2.5c0.1-0.3,0.2-0.5,0.5-0.6
		c0.1,0.4,0.2,0.8,0.3,1.2C58.6,20.1,58.5,20.2,58.4,20.3C58.4,20.3,58.4,20.3,58.4,20.3z M56.4,26.1c-0.6,0.8-1.3,1.6-1.7,2.5
		c-0.2-0.2-0.5-0.4-0.7-0.6c0.5-1.1,1-2.1,1.6-3.1c0,0,0-0.1-0.1,0c-0.6,1-1.3,2-1.6,3.1c-0.1-0.1-0.3-0.2-0.4-0.3
		c-0.1-0.1-0.2-0.3-0.3-0.4c0,0,0,0,0.1,0c0.4-1.2,0.7-2.4,1.3-3.6c0.4,0.4,0.8,0.9,1.2,1.3c0,0,0,0,0,0c-0.4-0.7-0.9-1.3-1.5-1.8
		c-0.3-0.3-0.6-0.6-0.9-0.9c-0.3-0.3-0.5-0.7-0.7-1.1c0,0,0-0.1,0-0.2c-0.1,0.1-0.1,0.3-0.2,0.5c-0.1,0.2-0.3,0.3-0.4,0.4
		c-0.3,0.4-0.6,0.7-0.9,1c-0.6,0.6-1.2,1.2-1.7,1.9c0,0,0,0,0,0c0.4-0.5,0.8-0.9,1.2-1.3c0.5,1.2,0.9,2.4,1.3,3.6c0,0,0,0,0,0
		c-0.1,0.1-0.1,0.2-0.2,0.3c-0.2,0.2-0.3,0.4-0.5,0.5c-0.4-1.1-1-2.1-1.7-3.1c0,0-0.1,0-0.1,0c0.6,1,1.1,2.1,1.6,3.1
		c-0.2,0.2-0.5,0.4-0.7,0.6c-0.5-0.9-1.1-1.7-1.8-2.5c0,0-0.1,0,0,0c0.6,0.8,1.1,1.7,1.7,2.6c-0.1,0-0.1,0.1-0.2,0.1
		c-0.2,0.2-0.3,0.4-0.4,0.6c-0.6-1.2-1.2-2.4-1.9-3.5c0.3-1.6,1.7-2.7,2.8-3.9c0.2-0.2,0.4-0.4,0.6-0.6c0,0,0,0,0,0
		c0.6-0.6,1.2-1.4,1.4-2.2c0.2,0.8,0.8,1.6,1.4,2.2c0,0,0,0,0,0c0.2,0.2,0.4,0.4,0.6,0.6c1.1,1.2,2.5,2.2,2.8,3.8
		c-0.7,1.2-1.4,2.4-1.9,3.6c-0.1-0.2-0.2-0.4-0.4-0.6c0-0.1-0.1-0.1-0.2-0.2C55.3,27.8,55.8,26.9,56.4,26.1
		C56.4,26.1,56.4,26.1,56.4,26.1z M52.4,24.5c-0.1-0.7-0.4-1.4-0.8-2c0,0,0,0,0,0c0.3-0.2,0.6-0.5,0.8-0.8c0.2,0.3,0.5,0.6,0.8,0.8
		c0,0,0,0,0,0C52.8,23.1,52.5,23.8,52.4,24.5z M52.4,25.6c0,0,0,0.1,0,0.1C52.4,25.7,52.4,25.7,52.4,25.6c0,0,0-0.1,0-0.1
		C52.4,25.6,52.4,25.6,52.4,25.6z M51.9,23.5c0.1,0.3,0.2,0.7,0.3,1.1c0.1,0.4,0.1,0.9,0,1.3c0,0.2-0.1,0.4-0.1,0.6
		c0,0.1-0.3,0.5-0.3,0.6c-0.2-1.2-0.7-2.5-1.3-3.6c0,0,0,0,0,0c0.2-0.2,0.4-0.4,0.7-0.6c0.1-0.1,0.3-0.2,0.4-0.4
		C51.6,22.6,51.9,23.4,51.9,23.5z M52.6,24.6c0.1-0.4,0.2-0.7,0.3-1.1c0-0.1,0.4-1,0.3-1c0.1,0.1,0.2,0.1,0.3,0.2
		c0.3,0.2,0.6,0.5,0.8,0.7c-0.6,1.1-1.1,2.4-1.2,3.6c0-0.1-0.3-0.4-0.3-0.5c-0.1-0.2-0.1-0.4-0.2-0.7c0,0,0-0.1,0-0.1
		C52.5,25.4,52.5,25,52.6,24.6z M55.8,19.4c-0.4,0.8-0.8,1.7-1,2.7c-0.3-0.3-0.7-0.6-1-1c0.2-0.9,0.3-1.9,0.6-2.8c0,0,0-0.1-0.1,0
		c-0.4,0.8-0.7,1.8-0.7,2.7c-0.3-0.4-0.6-0.7-0.8-1.1c0.1-0.7,0.1-1.4,0.3-2.2c0,0,0,0,0,0c-0.2,0.7-0.4,1.4-0.4,2.1
		c0-0.1-0.2-0.4-0.2-0.5c-0.1-0.2-0.1-0.5-0.1-0.7c0-0.1,0-0.2,0-0.2c0,0-0.1-0.1-0.1-0.1c0,0.3,0,0.6-0.1,0.8
		c0,0.1-0.1,0.3-0.1,0.4c0,0.1-0.2,0.2-0.2,0.3c0-0.7-0.2-1.4-0.4-2.1c0,0-0.1,0,0,0c0.2,0.7,0.2,1.4,0.3,2.2
		c-0.2,0.4-0.5,0.8-0.8,1.1c0-0.9-0.3-1.9-0.7-2.7c0,0-0.1,0-0.1,0c0.3,0.9,0.5,1.8,0.6,2.8c-0.3,0.3-0.6,0.7-1,1
		c-0.1-0.9-0.5-1.8-1-2.7c0,0-0.1,0-0.1,0c0.5,0.9,0.7,1.8,0.9,2.7c-0.3,0.2-0.5,0.5-0.7,0.7C49,22.9,49,22.9,48.9,23
		c-0.1-0.8-0.6-1.6-1.1-2.3c0.5-0.9,1.3-1.8,2.1-2.5c0.4-0.3,0.8-0.6,1.2-0.9c0.2-0.2,0.4-0.3,0.6-0.5c0.2-0.2,0.3-0.2,0.5-0.4
		c0.1-0.1,0.2-0.2,0.3-0.2c0.4,0.3,0.7,0.7,1.1,1c0.2,0.2,0.4,0.3,0.6,0.5c0.1,0.1,0.4,0.4,0.6,0.4c0.9,0.7,1.7,1.6,2.3,2.6
		c-0.5,0.7-1,1.5-1.1,2.3c0,0,0,0,0,0c-0.3-0.3-0.6-0.6-0.9-0.8C55.2,21.2,55.4,20.3,55.8,19.4C55.9,19.4,55.9,19.4,55.8,19.4z
		 M66.4,15.4c0.4-0.3,0.8-0.6,1.1-1c0,0.1-0.1,0.3-0.1,0.4c-0.1,0.4-0.3,0.9-0.4,1.3c-0.2,0.1-0.3,0.2-0.5,0.2
		C66.5,16.1,66.4,15.7,66.4,15.4z M65.8,15.4c-0.4,0.2-0.7,0.5-1,0.8c0,0,0,0,0,0c0,0,0,0,0,0c-0.2,0.2-0.4,0.3-0.5,0.5
		c-0.9,0.8-1.7,1.9-2.2,3c-0.5,0.5-1,1.1-1.5,1.7c0.8-2.4,1.7-4.5,3.3-6.5c1.1-1.4,2.9-2.8,3.6-4.6c0.2,1,0.2,2,0.2,3.1
		c0,0.3-0.1,0.5-0.1,0.8C67,14.6,66.4,15,65.8,15.4z M63.5,17.8c0.4-0.4,0.7-0.9,1.2-1.3c0,0,0.1-0.1,0.1-0.1c0,0.3,0,0.6,0.1,0.9
		c-0.1,0.1-0.2,0.1-0.4,0.2c-0.3,0.2-0.6,0.4-0.8,0.6C63.6,18,63.6,17.9,63.5,17.8z M63.6,18.3c-0.4,0.3-0.7,0.6-1.1,0.9
		c0.3-0.4,0.6-0.9,0.9-1.3C63.5,18,63.5,18.1,63.6,18.3C63.6,18.3,63.6,18.3,63.6,18.3z M64.9,16.4c0.4-0.3,0.9-0.6,1.4-0.9
		c0,0.2,0.1,0.4,0.1,0.6c0,0.2,0,0.3,0,0.5c-0.4,0.2-0.9,0.5-1.3,0.8C65,17,64.9,16.7,64.9,16.4z M69.6,14.9
		C69.6,14.9,69.6,14.9,69.6,14.9C69.6,14.9,69.6,14.9,69.6,14.9C69.6,14.9,69.6,14.9,69.6,14.9z M69.8,10.3
		c-0.1,0.1-0.2,0.1-0.3,0.2c-0.1-0.2-0.2-0.4-0.3-0.7c0,0,0-0.1-0.1-0.1c0.1-0.2,0.2-0.4,0.3-0.7c0,0,0,0,0,0
		c-0.2,0.2-0.3,0.4-0.4,0.6c-0.2-0.4-0.3-0.7-0.5-1.1c0.1-0.3,0.2-0.6,0.3-0.9c0.1,0.2,0.2,0.4,0.3,0.6c0.5,1.2,0.7,2.4,0.9,3.7
		c-0.2-0.4-0.4-0.9-0.6-1.3C69.7,10.6,69.8,10.5,69.8,10.3C69.9,10.4,69.9,10.3,69.8,10.3z M68.3,6.1c0.2,0.5,0.5,1,0.7,1.4
		c-0.2,0.2-0.3,0.5-0.4,0.8c-0.2-0.4-0.4-0.9-0.6-1.3C68.2,6.7,68.2,6.4,68.3,6.1z M68,6.8c-0.3-0.6-0.6-1.2-0.9-1.8
		c0.1,0,0.3-0.1,0.4-0.2c0.1-0.1,0.3-0.2,0.4-0.3c0,0.1,0.4,1.5,0.4,1.5c0,0,0,0,0,0C68.2,6.3,68.1,6.6,68,6.8z M59.1,29.9
		c1-1.5,2.3-2.9,3.7-4c1.5-1.2,3.3-2.1,4.9-3.3c1.1-0.8,2.2-1.8,2.7-3.1c0,0.5-0.1,1-0.1,1.5c-0.6,1.4-2.3,2.5-3.5,3.3
		c-1.4,1-2.9,1.8-4.2,2.9C60,29.1,58.2,32,57.1,35c-0.1-0.1-0.2-0.1-0.4-0.2C57.4,33.1,58.1,31.5,59.1,29.9z M66.1,34.1
		c-0.7,0.4-1.5,0.7-2.3,1c-0.3,0.1-0.7,0.3-1,0.5c-0.1-2.3-0.8-4.6-1.7-6.7c0-0.1-0.1-0.1-0.1,0c0.6-0.6,1.2-1.2,1.9-1.7
		c0.3,1.3,0.7,2.5,0.9,3.8c0.2,1.4,0.2,2.7,0.1,4.1c0,0,0.1,0,0.1,0c0.2-1.4,0.2-2.8,0-4.1c-0.1-1.2-0.4-2.7-0.9-3.8c0,0,0,0,0,0
		c0.3-0.2,0.5-0.4,0.8-0.6c0.6-0.4,1.2-0.8,1.8-1.2c0,0,0,0,0,0.1c0.4,3.1,0.1,6.2-0.4,9.2c0,0,0,0.1,0.1,0c0.9-3,0.9-6.2,0.5-9.3
		c0-0.1-0.1-0.1-0.1-0.1c0.8-0.5,1.5-1,2.3-1.5c-0.1,1.8-0.1,3.5-0.4,5.2C67.1,30.7,66.6,32.4,66.1,34.1
		C66.1,34.1,66.1,34.1,66.1,34.1z M60.9,29c0.5,1.1,0.9,2.2,1.2,3.4c0.3,1.1,0.4,2.2,0.6,3.3c-0.3,0.2-0.5,0.3-0.8,0.5
		c-0.5-0.8-0.7-1.7-1.1-2.5c-0.5-0.9-1-1.6-1.7-2.3c0,0,0,0,0,0c0.2-0.3,0.3-0.5,0.5-0.8C60,29.9,60.4,29.4,60.9,29
		C60.9,28.9,60.8,29,60.9,29z M58,33.5c1.2,1.1,2.3,2.2,3.2,3.6c0,0,0,0,0,0c0,0,0,0.1-0.1,0.1c-0.8-0.5-1.6-0.9-2.4-1.3
		c-0.5-0.3-1-0.5-1.4-0.8C57.5,34.5,57.7,34,58,33.5z M58.1,33.3c0.3-0.6,0.6-1.2,0.9-1.8c0.7,0.8,1.3,1.6,1.7,2.5
		c0.4,0.7,0.6,1.6,1.1,2.3c-0.3,0.2-0.5,0.5-0.7,0.8C60.5,35.6,59.4,34.2,58.1,33.3z M70.9,29.5c0.3-1.3,0.4-2.6,0.3-3.9
		c-0.1-1.4-0.6-2.7-0.7-4.1c0,0,0,0,0,0c0.1-0.4,0.2-0.8,0.2-1.2c0.1,0.8,0.2,1.7,0.4,2.5c0.4,1.6,0.5,3.2,0.4,4.9
		c-0.2,2.2-0.9,4.1-1.7,6.1C70.2,32.3,70.6,30.9,70.9,29.5z M70.4,12.5c0-1.3-0.3-2.6-0.8-3.8c-0.5-1.5-1.4-2.8-1.7-4.3c0,0,0,0,0,0
		c0,0,0,0,0-0.1c0,0,0-0.1-0.1,0c-0.2,0.1-0.3,0.3-0.5,0.4c-0.1,0.1-0.2,0.1-0.4,0.2c-0.1-0.1-0.2-0.3-0.2-0.4
		c0.4-0.2,0.9-0.6,1.2-1c0.1,0.3,0.2,0.6,0.3,1c0.1,0.4,0.3,0.7,0.5,1.1c0.5,1.1,1,2.1,1.3,3.2c0.6,2,0.8,3.9,0.7,5.9c0,0,0,0,0,0
		C70.8,13.9,70.6,13.2,70.4,12.5z M68.1,8.7c0.8,1.8,2,3.9,2.1,5.9c-0.1,0-0.2,0.1-0.3,0.1c0-1.8-1.1-3.5-1.6-5.1c0,0-0.1,0-0.1,0
		c0.2,0.9,0.5,1.7,0.8,2.5c0.3,0.8,0.5,1.6,0.6,2.4c0,0,0,0,0,0.1c0,0.1-0.1,0.3-0.2,0.4c-0.4,0.2-0.8,0.3-1.1,0.5
		c0.3-0.9,0.3-1.9,0.2-2.8c-0.1-1.2-0.3-2.4-0.6-3.6c0,0,0,0,0,0c0.1,1.1,0.3,2.2,0.5,3.4c0.1,1.1,0,2.1-0.3,3.2
		c-0.2,0.1-0.4,0.2-0.6,0.3c0.1,0,0.1-0.5,0.2-0.6c0-0.2,0.1-0.4,0.1-0.6c0-0.3,0.1-0.7,0.1-1c0.1-0.8,0.1-1.7,0-2.5
		c0-0.6-0.1-1.2-0.2-1.8c0-0.2-0.1-0.4-0.1-0.6c-0.1-0.4-0.1-0.7-0.2-1.1c0.2,0.3,0.3,0.7,0.5,1c0,0,0.1,0,0,0
		c-0.3-0.6-0.5-1.3-0.8-1.9c-0.1-0.4-0.2-0.9-0.3-1.3C67.1,6.6,67.6,7.7,68.1,8.7z M59.4,13.4c0.2-0.3,0.4-0.6,0.5-1c0,0,0,0,0,0
		c0,0,0,0,0,0c0,0.4,0.2,0.8,0.5,1.1c0.3,0.3,0.5,0.7,0.7,1.1c-0.3,0.8-0.6,1.6-0.8,2.4c-0.3-0.9-0.9-1.8-1.5-2.6
		C58.9,14.1,59.1,13.8,59.4,13.4z M58.6,14.3c-0.3-0.4-0.7-0.8-1-1.2c0,0-0.1-0.1-0.1-0.1c0.3-0.9,1.2-1.5,1.8-2.2
		c0.3-0.4,0.6-0.8,0.7-1.3c0,0.5,0.2,0.9,0.4,1.4c0.4,0.7,1,1.2,1.2,2c-0.2,0.5-0.3,0.9-0.5,1.4c0,0.1-0.1,0.2-0.1,0.2
		c-0.1-0.1-0.1-0.2-0.2-0.3c-0.4-0.7-1-1.1-1-1.9c0,0,0,0,0,0c0,0.1,0,0.1,0,0.2c0,0,0,0,0,0c0,0,0,0,0,0c0,0,0,0,0,0
		C59.8,13.2,58.9,13.7,58.6,14.3z M63.2,8.8c-0.1,0.3-0.2,0.6-0.3,1c-0.2-0.4-0.4-0.7-0.6-1.1c-0.1-0.2-0.3-0.4-0.4-0.5
		C62,8,62,7.8,62.1,7.6c0.1-0.3,0.3-0.6,0.2-0.9c0,0-0.1-0.1-0.1,0c-0.2,0.2-0.2,0.5-0.4,0.8c-0.1,0.2-0.2,0.3-0.3,0.4
		C61.4,7.7,61,7.4,61.1,7c0.1-0.3,0.4-0.4,0.6-0.5c0.3-0.1,0.5-0.1,0.7,0.1c0.3,0.3,0.6,0.7,0.8,1.1C63.5,8.1,63.3,8.5,63.2,8.8z
		 M61.7,8.8c0.4,0.5,0.6,1.2,0.9,1.8c-0.1,0.2-0.1,0.3-0.2,0.5c-0.1-0.4-0.3-0.7-0.4-1c0,0-0.1,0,0,0c0.1,0.3,0.2,0.6,0.2,1
		c0,0.2,0,0.3,0.1,0.5c-0.1,0.4-0.3,0.8-0.4,1.1c-0.1-0.3-0.3-0.6-0.5-0.9c-0.7-0.9-1.1-1.6-1.1-2.7c0,0,0,0,0,0c0,0,0,0,0,0
		c0,0,0,0,0,0c0,0,0,0,0,0c0,0,0,0,0,0c0,0,0,0,0,0.1c-0.2,1.1-0.9,1.8-1.7,2.6c-0.4,0.4-0.8,0.7-1,1.2c-0.2-0.3-0.5-0.6-0.7-0.8
		c0.3-1.1,0.8-2,1.6-2.9c0.4-0.4,0.8-0.9,1.1-1.3c0.2-0.2,0.3-0.4,0.5-0.6c0.2-0.2,0.4-0.2,0.6-0.1C60.9,7.8,61.3,8.3,61.7,8.8z
		 M44.3,13.8c0.3-0.4,0.6-0.8,0.6-1.3c0,0,0,0,0,0c0,0,0,0,0,0c0.1,0.4,0.2,0.7,0.5,1c0.3,0.3,0.5,0.6,0.7,1
		c-0.6,0.8-1.2,1.7-1.5,2.6c-0.3-0.8-0.5-1.6-0.8-2.3c0,0,0,0,0-0.1C43.8,14.3,44,14.1,44.3,13.8z M43.6,14.5
		c-0.2-0.5-0.4-1.1-0.6-1.7c0.2-0.7,0.7-1.2,1.1-1.8c0.3-0.5,0.5-1,0.5-1.6c0.1,0.5,0.4,0.9,0.7,1.3c0.6,0.7,1.5,1.3,1.8,2.2
		c-0.4,0.4-0.7,0.9-1.1,1.3c-0.3-0.6-1.1-1.1-1.2-1.8c0,0,0,0,0,0c0,0,0,0,0,0c0,0,0,0,0,0c0-0.1,0-0.1,0-0.2c0,0,0,0,0,0
		c-0.1,0.8-0.5,1.2-0.9,1.7C43.8,14.2,43.7,14.3,43.6,14.5z M47.5,12.7c0,0-0.1,0.1-0.1,0.1c-0.2-0.4-0.5-0.7-0.8-1
		c-0.8-0.8-1.6-1.6-1.8-2.7c0,0,0-0.1,0-0.1c0,0,0,0,0,0c0,0,0,0,0,0c0,0,0,0,0,0c0,0,0,0,0,0c0,0,0,0,0,0c0,1.1-0.4,1.9-1.1,2.7
		c-0.2,0.3-0.4,0.6-0.5,0.9c-0.1-0.4-0.3-0.8-0.4-1.1c0-0.2,0-0.3,0.1-0.5c0.1-0.3,0.1-0.6,0.2-1c0,0,0,0,0,0
		c-0.1,0.3-0.3,0.7-0.4,1c-0.1-0.2-0.1-0.3-0.2-0.5c0.3-0.6,0.5-1.2,0.9-1.7c0.3-0.5,0.7-1,1-1.5c0.3-0.2,0.6-0.1,0.9,0.2
		c0.4,0.4,0.8,0.9,1.2,1.3c0.9,1,1.4,1.9,1.8,3.1C47.9,12.2,47.7,12.5,47.5,12.7z M43.2,7.9c-0.1-0.1-0.2-0.3-0.3-0.4
		c-0.1-0.3-0.2-0.5-0.4-0.8c0,0-0.1,0-0.1,0c0,0.3,0.1,0.6,0.2,0.9c0.1,0.2,0.1,0.4,0.3,0.6c-0.1,0.1-0.2,0.2-0.3,0.3
		c-0.3,0.4-0.6,0.8-0.8,1.2c-0.2-0.5-0.5-1-0.4-1.6c0.1-0.5,0.4-1,0.7-1.3c0.3-0.3,0.6-0.4,0.9-0.2c0.2,0.1,0.4,0.3,0.5,0.6
		c0,0,0,0,0,0C43.7,7.5,43.4,7.7,43.2,7.9z M37.8,6.8c-0.3,0.6-0.5,1.3-0.8,1.9c0,0,0,0.1,0,0c0.2-0.3,0.4-0.7,0.5-1
		c-0.1,0.6-0.2,1.1-0.3,1.7l0,0c0,0-0.1,0-0.1,0c0,0.1,0,0.1,0,0.2c-0.2,1.4-0.3,2.7-0.2,4.1c0,0,0,0,0,0c0,0,0,0.1,0.1,0.1
		c0,0.1,0,0.1,0,0.2c0,0.6,0.1,1.2,0.3,1.8c-0.2-0.1-0.4-0.2-0.6-0.3c-0.2-1.1-0.4-2-0.3-3.2c0.1-1.1,0.3-2.3,0.5-3.4c0,0,0,0,0,0
		c-0.2,1.2-0.5,2.4-0.6,3.6c-0.1,0.9-0.1,1.9,0.2,2.8c-0.4-0.2-0.8-0.4-1.1-0.5c-0.1-0.1-0.1-0.2-0.2-0.4c0,0,0,0,0-0.1
		c0.1-0.7,0.2-1.5,0.5-2.2c0.3-0.9,0.7-1.8,0.9-2.7c0,0,0,0-0.1,0c-0.6,1.6-1.7,3.4-1.6,5.1c-0.1,0-0.2-0.1-0.3-0.1
		c0-1.9,1.1-3.7,1.9-5.4c0.5-1.2,1.1-2.5,1.6-3.7C38,5.9,37.9,6.4,37.8,6.8z M37.8,4.8c-0.1-0.1-0.2-0.1-0.3-0.1
		c-0.2-0.1-0.3-0.3-0.5-0.4c0,0-0.1,0-0.1,0c0,0,0,0,0,0.1c0,0,0,0,0,0c-0.4,1.5-1.2,2.9-1.7,4.3c-0.4,1.2-0.7,2.5-0.8,3.8
		c-0.2,0.7-0.4,1.4-0.4,2.1c0,0,0,0,0,0c0,0,0,0,0,0c0-1.9,0.1-3.8,0.7-5.7C35,7.8,35.4,6.7,36,5.7c0.4-0.8,0.8-1.6,0.9-2.4
		c0.1,0.2,0.2,0.3,0.3,0.5C37.4,4,37.7,4.3,38,4.4c0,0,0,0,0,0C38,4.6,37.9,4.7,37.8,4.8z M34.4,21.4C34.4,21.4,34.4,21.4,34.4,21.4
		c-0.1,1.3-0.6,2.6-0.7,3.9c-0.1,1.4,0,2.8,0.3,4.2c0.3,1.3,0.6,2.7,1,4c-0.7-1.8-1.3-3.7-1.6-5.6c-0.2-1.6-0.1-3.3,0.3-4.9
		c0.2-0.9,0.4-1.8,0.5-2.8C34.2,20.6,34.3,21,34.4,21.4z M37.2,41.2c-0.6-0.7-1.2-1.4-1.8-2.1c0,0,0,0,0,0c-0.4-0.7-0.8-1.5-1.3-2.2
		c0,0.1,0.1,0.1,0.1,0.2c0.8,1.1,1.6,2.2,2.4,3.3C36.9,40.7,37,40.9,37.2,41.2z M35,38.7c-1-1.2-2.1-2.4-3.3-3.4c0-0.1,0-0.2,0-0.3
		c0-0.2,0.1-0.3,0.3-0.4c0.1-0.1,0.1-0.1,0.2-0.1c0.3,0.3,0.6,0.7,0.9,1C33.8,36.6,34.4,37.6,35,38.7z M32.1,34.5
		c-0.3,0.2-0.4,0.4-0.4,0.8c0,0-0.1-0.1-0.1-0.1c-0.4-1.1-1-2.3-1.7-3.3c0,0,0,0,0,0C30.6,32.7,31.4,33.6,32.1,34.5
		C32.1,34.5,32.1,34.5,32.1,34.5z M30.4,33c0.3,0.6,0.6,1.3,1,2c-0.1-0.1-0.2-0.2-0.4-0.3c-0.9-0.7-1.9-1.3-2.9-1.9c0,0,0,0,0,0
		c0,0,0,0,0,0c0.1-0.3,0.3-0.5,0.5-0.8c0.3-0.3,0.7-0.3,1-0.2C29.9,32.2,30.1,32.6,30.4,33z M28,32.7C28,32.7,28,32.7,28,32.7
		c-0.2-1.3-0.8-2.6-1.6-3.7c0.1,0,0.2-0.1,0.3-0.1c0.6,0.5,1.2,1,1.8,1.6c0.2,0.2,0.5,0.5,0.7,0.7c0.1,0.1,0.2,0.2,0.3,0.4
		C28.9,31.6,28.3,32,28,32.7z M28,32.7C27.9,32.7,27.9,32.7,28,32.7c-0.9-0.5-1.8-1-2.7-1.6C25.1,31.1,25,31,24.9,31
		c0-0.5,0.4-0.9,0.7-1.3c0.2-0.2,0.5-0.5,0.8-0.6C27.1,30.2,27.7,31.4,28,32.7z M26.4,29c-0.2-0.2-0.3-0.4-0.5-0.6
		c0.2,0.2,0.5,0.4,0.7,0.5C26.5,28.9,26.5,28.9,26.4,29z M27.9,32.9c-0.3,2.2,0.2,4.5,1.2,6.4c-0.4-0.3-0.8-0.6-1.1-1c0,0,0,0,0,0
		c-1.5-2.2-2.9-4.5-3.2-7.2C25.9,31.7,26.9,32.3,27.9,32.9z M28.1,33c0.7,0.4,1.3,0.8,2,1.2c0.4,0.3,0.9,0.6,1.3,0.9
		c-0.7,1.3-0.5,3-0.2,4.4c-0.3-0.9-0.4-1.7-0.3-2.7c0-0.8,0.2-1.5-0.4-2.2c-0.3-0.3-1.2-1.1-1.7-1c-0.6,0.1-0.6,0.7-0.5,1.2
		c0,0,0.1,0,0.1,0c0-0.5,0.4-1.1,0.9-0.8c0.3,0.2,0.6,0.4,0.8,0.6c0.7,0.6,0.6,1.4,0.5,2.2c0,1.1,0.1,2.3,0.6,3.3c0,0,0,0,0.1,0
		c0,0.1,0.1,0.2,0.1,0.3c0,0,0.1,0,0,0c-0.1-0.9-0.3-1.8-0.4-2.7c0-0.9,0.1-1.7,0.4-2.5c0,0,0.1,0.1,0.1,0.1c0,0,0,0,0,0
		c0,0,0,0,0,0c1.2,1,2.2,2.2,3.2,3.3c0.1,0.1,0.2,0.2,0.3,0.3c-0.2,0.2-0.4,0.8-0.4,1.1c-0.2,0.5-0.2,1.1-0.1,1.7c0,0,0.1,0,0.1,0
		c0-0.5,0.1-1,0.2-1.5c0-0.2,0.1-0.4,0.2-0.5c0.1-0.2,0.1-0.3,0.2-0.5c0,0,0.1-0.1,0.1-0.1c0.8,0.9,1.5,1.8,2.2,2.7
		c-0.3-0.3-0.6-0.6-0.9-0.9c-0.3-0.3-1.7-1.9-1.6-0.5c0,0,0.1,0,0.1,0c0-0.8,0.9,0.2,1,0.3c0.3,0.3,0.6,0.6,0.9,0.9
		c0.5,0.5,1.2,1,1.4,1.7c0,0.3,0,0.6,0,0.9c0,0.1,0,0.1,0,0.2c-0.6-0.6-1.3-1.1-2.1-1.6c-0.5-0.4-1.1-0.8-1.7-1.1
		c-0.7-0.4-1.5-0.7-2.3-1c-1.1-0.4-2.1-0.8-3-1.4C28.3,37.4,27.9,35.3,28.1,33z M73.5,40.2C73.5,40.2,73.5,40.2,73.5,40.2
		c0.6-1,0.7-2.2,0.7-3.3c0-0.8-0.1-1.5,0.5-2.2c0.2-0.2,0.6-0.4,0.8-0.6c0.5-0.3,0.9,0.3,0.9,0.8c0,0,0.1,0,0.1,0
		c0.1-0.3,0.2-1-0.3-1.1c-0.6-0.1-1.2,0.4-1.7,0.8c-0.7,0.6-0.6,1.3-0.6,2.1c0.1,1-0.1,2-0.3,2.9c0.3-1.4,0.5-3.1-0.2-4.4
		c0.4-0.3,0.8-0.7,1.3-0.9c0.7-0.4,1.3-0.8,2-1.2c0.2,2.3-0.2,4.4-1.2,6.4c-0.6,0.4-1.2,0.7-1.8,1c-0.1,0-0.2,0.1-0.3,0.1
		C73.4,40.4,73.5,40.3,73.5,40.2z M76.9,32.9c1-0.6,2-1.2,3.1-1.8c-0.3,2.7-1.7,5-3.2,7.2c0,0,0,0,0,0c-0.3,0.4-0.7,0.7-1.1,1
		C76.7,37.4,77.2,35.1,76.9,32.9z M78.9,29.3c-0.1-0.1-0.2-0.2-0.4-0.3c0.2-0.3,0.4-0.6,0.6-0.9c1-0.7,2.1-1.4,3.3-2.1
		c0.2,0,0.4-0.1,0.6-0.1c-0.2,0.3-0.5,0.5-0.7,0.8c-0.9,1.2-1.8,2.7-2.3,4.1c0,0,0,0,0,0.1c0,0,0,0,0,0C80,30.3,79.3,29.7,78.9,29.3
		z M82.6,25.9c0.1,0,0.1-0.1,0.2-0.1c0.2-0.1,0.5-0.3,0.8-0.4c-0.2,0.2-0.3,0.3-0.5,0.5C83,25.9,82.8,25.9,82.6,25.9z M85.6,27.1
		c-0.1,0.3-0.2,0.5-0.3,0.8c0.1-0.5,0.2-1,0.4-1.4c0.2-0.8,0.3-1.5,0.6-2.3c0.3-0.7,0.5-1.4,0.6-2.1c0,0,0,0,0,0
		c0.3-0.8,0.7-1.5,1.1-2.3C87.1,22.2,86.6,24.7,85.6,27.1z M87.5,20c-0.3,0.7-0.6,1.5-0.9,2.2c0,0,0,0,0,0c-1.1,2-3.8,3.1-5.8,4.3
		c-2.1,1.2-3.9,2.9-5.6,4.6c-1.9,2-3.8,4-5.5,6.2c-0.5,0.6-1,1.2-1.5,1.8c2.2-3.6,4.8-6.8,7.8-9.8c1.1-1.1,2.3-2.2,3.4-3.3
		c1.4-1.2,2.8-2.4,4.3-3.5C85,21.6,86.4,20.9,87.5,20z M79.4,25.1c-0.9,0.8-1.9,1.7-2.8,2.6c0.8-1.5,1.5-3.1,2-4.8
		c0.2-0.1,0.3-0.3,0.5-0.4c0.2-0.2,0.3-0.3,0.4-0.5c-0.1,0.4-0.1,0.8-0.1,1.3C79.4,23.7,79.6,24.5,79.4,25.1z M84.5,20.9
		c0.1-0.1,0.1-0.2,0.1-0.3C84.7,20.8,84.6,20.8,84.5,20.9C84.6,20.9,84.6,20.9,84.5,20.9z M80.6,12.4C80.6,12.4,80.6,12.4,80.6,12.4
		c0.7-1.1,1.4-1.8,2.4-2.5c0.9-0.6,1.9-1,2.8-1.5c0.1,1.9,0.6,3.7,0.5,5.7c0,1.2-0.2,2.3-0.4,3.4c-0.2,1.1-0.7,2-1.2,2.9
		c0.5-1.1,0.8-2.4,1-3.5c0,0,0,0,0,0c-0.3,0.8-0.5,1.6-0.8,2.3c-0.1,0.4-0.3,0.7-0.5,1c0.1-0.9,0-2,0-2.7c-0.1-2.3-0.3-4.5,0.1-6.8
		c0,0,0-0.1,0.1-0.1c0,0,0,0,0,0c0,0,0,0,0,0c0,0,0,0,0,0c0,0,0,0,0,0c0,0,0,0,0,0.1c-0.5,0.7-0.9,1.2-1.7,1.5
		c-0.5,0.2-0.9,0.3-1.3,0.6c-0.4,0.2-0.8,0.5-1.2,0.8C80.5,13.2,80.6,12.8,80.6,12.4z M80.4,13.8c0.6-0.6,1.6-1.1,2.3-1.4
		c0.9-0.3,1.4-0.7,1.9-1.5c-0.4,1.8-0.4,3.5-0.3,5.3c0,1,0.1,1.9,0.1,2.9c0,0.5,0,1-0.1,1.5c-0.1,0.2-0.3,0.5-0.4,0.7
		c-0.5,0.4-1,0.7-1.5,1.1c0.3-1-0.2-2.1-0.4-3c-0.3-1.4-0.1-2.9,0.4-4.2c0,0,0,0-0.1,0c-0.4,1.1-0.6,2.3-0.5,3.5
		c0.1,1.3,0.6,2.5,0.5,3.9c-0.1,0.1-0.2,0.1-0.3,0.2c-0.8,0.7-1.7,1.4-2.5,2.1c0-0.2,0-0.4,0-0.5c-0.1-1-0.2-1.9,0.1-2.9
		c0,0,0-0.1-0.1,0c0,0,0,0,0,0c0,0,0,0,0,0c-0.2,0.3-0.4,0.5-0.6,0.8c-0.1,0.1-0.2,0.1-0.3,0.2c0.4-1.5,0.8-3,1-4.5
		c1-0.7,1.9-1.7,2.6-2.8c0,0,0-0.1,0,0c-0.8,0.9-1.6,1.8-2.5,2.6c0.1-0.5,0.2-0.9,0.2-1.4C80.2,15.6,80.3,14.7,80.4,13.8z
		 M75.7,11.4c0.8-2.7,1.9-5.2,3.7-7.4c0,0.1,0.1,0.1,0.1,0.2c0,0,0,0.1,0,0.1c0.8,4,0.4,8.4-0.3,12.4c-0.3,1.9-0.8,3.7-1.3,5.6
		c0,0.1-0.1,0.2-0.1,0.3c-0.5,1.4-1,2.7-1.7,4c-0.5,1.1-1.2,2.1-1.8,3.2c0,0,0,0-0.1,0c0.3-0.6,0.6-1.3,0.9-2c0.7-1.5,1.5-3,2.1-4.6
		c0.6-1.6,1-3.4,1.3-5.1c0.4-1.7,0.7-3.4,0.9-5.2c0,0,0,0,0,0c-0.7,3.2-1.2,6.6-2.3,9.7c-0.5,1.6-1.4,3-2.1,4.5
		c-0.6,1.1-1,2.3-1.7,3.3c-0.1,0.1-0.2,0.2-0.3,0.3c0.1-0.2,0.2-0.3,0.2-0.5c0.7-1.1,1.3-2.4,1.8-3.5c0.8-1.6,1.5-3.2,2.2-4.8
		c0,0,0,0,0,0c-0.8,1.5-1.5,3-2.2,4.5c-0.4,0.8-0.8,1.5-1.3,2.3c0-0.2,0.1-0.4,0.1-0.5c0.3-0.6,0.6-1.2,0.9-1.8c0,0,0-0.1,0,0
		c-0.2,0.3-0.5,0.7-0.7,1c0.1-0.6,0.2-1.2,0.2-1.7c1-3,2.5-5.9,3.5-8.9c1.1-3.3,1.9-6.9,1.9-10.5c0-0.1-0.1-0.1-0.1,0
		c-0.1,0.8-0.2,1.6-0.3,2.4c-0.9,1.8-2.3,3.4-3.4,5.1c-0.6,0.9-1.1,1.9-1.6,2.8c-0.3,0.7-0.7,1.5-1,2.3c0-0.1-0.1-0.2-0.1-0.2
		c0.1-0.1,0.1-0.3,0.1-0.4c0.1-0.2,0.1-0.4,0.1-0.5C74.6,15.8,75.1,13.6,75.7,11.4z M78,13.4c0.2-0.3,0.5-0.7,0.7-1.1
		c-0.2,0.9-0.4,1.7-0.7,2.6C78.1,14.4,78.1,13.9,78,13.4z M77.1,14.4C77.1,14.4,77,14.4,77.1,14.4C77,14.5,77,14.5,77.1,14.4
		c-0.5,0.6-0.9,1.1-1.3,1.7c-0.8,1.1-1.6,2.4-2.1,3.7c-0.1-0.2-0.1-0.3-0.2-0.5c0.3-0.8,0.6-1.7,1-2.5c0.5-1.1,1.1-2.1,1.7-3.1
		c1-1.6,2.2-3,3.1-4.7c-0.1,1-0.3,2-0.5,3C78.3,12.9,77.7,13.7,77.1,14.4z M76,16.1C76.1,16.1,76.1,16,76,16.1
		c0.4-0.5,0.7-0.9,1-1.4c0.1,1.5-0.1,3-0.5,4.5c-0.2,0.4-0.4,0.9-0.6,1.3C76.4,19.1,76.3,17.5,76,16.1z M77.1,14.6
		c0.3-0.4,0.6-0.7,0.8-1.1c0,0.8-0.1,1.6-0.2,2.4c-0.1,0.5-0.3,0.9-0.5,1.4c-0.1,0.3-0.2,0.5-0.3,0.8C77.2,17,77.3,15.8,77.1,14.6z
		 M74.6,23.6c-0.1,0.1-0.1,0.2-0.2,0.3c0-0.2,0-0.4,0-0.5c0-0.3-0.1-0.6-0.1-1c0.1-1,0-2-0.2-3c0.2-0.6,0.5-1.1,0.8-1.6
		c0.1,0.9,0.2,1.7,0.1,2.6C75.1,21.4,74.7,22.5,74.6,23.6C74.5,23.5,74.6,23.6,74.6,23.6z M74.1,21.4c-0.1-0.4-0.2-0.8-0.3-1.2
		c0.1-0.2,0.1-0.4,0.2-0.6C74.1,20.2,74.1,20.8,74.1,21.4z M75,17.7c0.3-0.5,0.6-1,1-1.5c0.1,1.9,0.2,3.6-0.4,5.4
		c-0.1,0.3-0.3,0.6-0.4,0.9c-0.2,0.3-0.3,0.7-0.5,1C75.3,21.5,75.2,19.6,75,17.7z M73.6,16.7c-0.2,0.5-0.4,0.9-0.6,1.3
		c0,0,0,0,0,0.1c-0.1-0.2-0.2-0.4-0.3-0.5C73.1,17.3,73.4,17.1,73.6,16.7z M73.4,23.3c0.1,1.6-0.1,3.3-0.5,4.9
		c-0.3,1.5-1,2.9-1.4,4.4c-0.3,0.3-0.5,0.6-0.8,0.9c0.1-0.3,0.2-0.5,0.3-0.8c0.6-1.3,1.1-2.7,1.5-4.1c0.4-1.4,0.6-2.9,0.6-4.4
		c0-1.6-0.3-3.1-0.8-4.6c0,0-0.1,0,0,0c0.3,1.4,0.6,2.9,0.6,4.3c0,1.5-0.3,3.1-0.7,4.6c-0.4,1.4-0.9,2.8-1.6,4
		c-0.3,0.6-0.6,1.3-0.9,1.9c-0.1,0.2-0.3,0.3-0.4,0.5c0.9-2.2,1.7-4.4,2-6.8c0.2-1.6,0.2-3.1-0.2-4.7c-0.2-0.8-0.4-1.5-0.5-2.3
		c-0.1-0.5-0.1-1-0.2-1.6c0.1-1,0.2-1.9,0.2-2.9c0.5,0.8,0.9,1.6,1.2,2.4c0,0,0,0,0,0c-0.3-1.1-0.7-2-1.3-2.9c0-0.1,0-0.2,0-0.2
		C72.4,18.2,73.3,20.6,73.4,23.3z M68.2,0.6c2.2,1.2,3.1,4.6,3.5,6.9c0.6,2.9,0.2,5.8,0.1,8.7c-0.1-0.2-0.3-0.4-0.4-0.5
		c0.3-1.9,0.3-3.8,0.3-5.6c-0.1-2-0.3-4.4-1-6.2c0.1,1.9,0.6,3.8,0.7,5.7c0.1,2-0.1,3.9-0.2,5.9c-0.1-0.1-0.1-0.1-0.2-0.2
		c0.2-1.9-0.1-3.9-0.5-5.7c-0.2-1-0.6-1.9-1-2.9c-0.3-0.7-0.6-1.3-0.9-2c-0.1-0.3-0.2-0.7-0.3-1.1c0-0.2,0-0.5-0.1-0.7
		c-0.3,0.2-0.4,0.7-0.6,0.9c-0.2,0.2-0.5,0.4-0.7,0.7c0,0,0,0,0,0c0,0,0-0.1-0.1-0.1c-0.4-0.7-1.1,0.4-1.3,0.8
		c-0.1,0.1-0.3,0.2-0.4,0.2c-0.2,0.1-0.5,0.3-0.6,0.5c0,0,0,0.1,0.1,0.1c0.1-0.1,0.2-0.2,0.3-0.3c0.1-0.1,0.3-0.2,0.4-0.3
		c0,0,0,0,0,0c-0.1,0.1-0.2,0.3-0.3,0.5c-0.1,0.1-0.2,0.2-0.3,0.3c-0.1,0.1-0.1,0.2-0.2,0.2c-0.2-0.6-0.6-1.1-1-1.7
		C65.1,3.4,66.3,1.4,68.2,0.6z M57.7,4.9c0.6-0.6,2.2-2.4,3.1-2c0.8,0.3,1.4,0.9,1.9,1.6c0.3,0.3,0.5,0.7,0.8,1.1
		C63.7,6,64,6.3,64,6.7C64,7,64,7.2,63.9,7.5c0,0.1,0,0.3-0.1,0.4c-0.1-0.1-0.1-0.2-0.2-0.3c-0.1-0.2-0.2-0.4-0.3-0.6
		c-0.2-0.3-0.5-0.6-0.8-0.9C62.3,5.9,62,5.9,61.8,6c-0.4,0.2-0.9,0.5-1.2,0.8c-0.1-0.1-0.2-0.2-0.4-0.2c-0.4-0.1-1.1,1-1.3,1.2
		c-0.2,0.2-0.5,0.5-0.8,0.8c-0.3-0.4-0.7-0.7-1-1c-0.3-0.2-0.6-0.5-1-0.6C56.5,6.2,57.1,5.6,57.7,4.9z M56.4,7.4
		c0.6,0.4,1.1,0.8,1.5,1.5c-0.7,0.8-1.3,1.6-1.5,2.5c-0.6-0.8-1.3-1.5-1.9-2.3c0.3-0.5,0.6-0.9,1-1.3c0.1-0.1,0.4-0.7,0.6-0.6
		C56.1,7.3,56.2,7.4,56.4,7.4z M49.3,4.8c0.2-0.4,0.5-0.7,0.8-1.1c0.5-0.6,1.1-1.3,1.7-1.8c0.1-0.1,0.3-0.2,0.5-0.3
		c0.1,0,0.1,0,0.2,0c0.5,0,0.7,0.4,1,0.7c0.4,0.4,0.8,0.8,1.1,1.2c0.4,0.4,0.7,0.9,1,1.4c0.2,0.2,0.2,0.4,0.3,0.7
		c0.1,0.5-0.1,0.8-0.1,1.3c0,0,0,0,0,0c0,0-0.1,0-0.1,0.1c-0.1,0.1-0.2,0.1-0.3,0.2c-0.5,0.5-1.1,1-1.4,1.6c0,0-0.5-0.6-0.6-0.7
		c-0.1-0.2-0.2-0.4-0.4-0.6c-0.3-0.4-0.5-0.9-0.7-1.3c-0.3,0.5-0.5,0.9-0.8,1.4c-0.1,0.2-0.3,0.4-0.4,0.6c0,0.1-0.5,0.5-0.5,0.6
		c-0.3-0.6-0.8-1.1-1.2-1.5c-0.4-0.3-0.6-0.7-0.7-1.2C48.8,5.6,49,5.2,49.3,4.8z M49.4,7.7c0.4,0.5,0.7,0.9,1.1,1.5
		c-0.6,0.8-1.3,1.5-1.9,2.3c-0.2-1-0.9-1.8-1.5-2.5c0.4-0.6,0.9-1.1,1.4-1.4c0.1,0,0.2-0.1,0.3-0.1C49.1,7.1,49.1,7.4,49.4,7.7z
		 M42,4.8c0.4-0.5,0.9-1,1.4-1.4c1.2-1,2.4,0.4,3.3,1.2c0.8,0.7,1.4,1.4,1.9,2.3c-0.3,0.1-0.6,0.3-0.9,0.5c-0.4,0.3-0.8,0.7-1.1,1.1
		c-0.2-0.2-0.3-0.4-0.5-0.5c-0.3-0.3-1.1-1.5-1.6-1.5c-0.1,0-0.3,0.1-0.4,0.2c-0.2-0.4-0.7-0.5-1-0.8c-0.3-0.2-0.6-0.1-0.9,0
		c-0.4,0.2-0.6,0.7-0.9,1c-0.2,0.2-0.3,0.5-0.4,0.8c-0.2-0.5-0.3-0.9-0.1-1.5C41.1,5.8,41.6,5.2,42,4.8z M33.1,7.4
		c0.4-2.2,1.4-5.6,3.5-6.9c1.9,0.8,3.2,2.8,4.8,4c-0.4,0.5-0.8,1-1,1.7c0-0.1-0.1-0.2-0.2-0.2c-0.1-0.1-0.2-0.2-0.3-0.3
		c-0.1-0.2-0.2-0.3-0.3-0.5c0,0,0,0,0,0c0.1,0.1,0.3,0.2,0.4,0.3c0.1,0.1,0.2,0.2,0.3,0.3c0,0,0.1,0,0.1-0.1
		c-0.1-0.2-0.3-0.4-0.5-0.5c-0.2-0.1-0.3-0.2-0.5-0.3c-0.2-0.3-0.4-0.6-0.7-0.8c0,0-0.1-0.1-0.1-0.1c0,0-0.1,0-0.1,0c0,0,0,0,0,0
		c0-0.1-0.2-0.1-0.2,0c0,0.1-0.1,0.1-0.1,0.2c0,0-0.1,0.1-0.1,0.1c0,0,0,0,0,0c0,0,0,0,0,0c-0.2-0.2-0.5-0.4-0.7-0.6
		c-0.2-0.2-0.3-0.3-0.4-0.5c-0.1-0.1-0.2-0.3-0.2-0.4C36.6,4,36,5.1,35.5,6.3c-0.5,1-0.8,2-1.1,3.1c-0.5,1.8-0.7,3.8-0.5,5.7
		c-0.1,0.1-0.1,0.1-0.2,0.2c-0.1-1.8-0.3-3.5-0.2-5.3c0.1-2.1,0.6-4.1,0.7-6.2c-0.7,1.7-0.9,3.8-1,5.7c-0.2,2-0.1,4.2,0.2,6.2
		c-0.1,0.2-0.3,0.3-0.4,0.5C32.9,13.2,32.6,10.4,33.1,7.4z M33.8,15.9c0,0.1,0,0.2,0,0.2c-0.6,0.9-1,1.9-1.3,2.9c0,0,0,0,0,0
		c0.3-0.9,0.8-1.7,1.2-2.4c0,1,0.1,1.9,0.2,2.9c0,0.3,0,0.7-0.1,1c-0.1,1-0.4,1.9-0.6,2.8C33,25,33,26.5,33.2,28.1
		c0.3,2.3,1,4.6,2,6.8c-0.1-0.1-0.2-0.3-0.4-0.4c-0.3-0.6-0.5-1.1-0.8-1.7c-0.7-1.4-1.3-2.8-1.7-4.3c-0.4-1.4-0.7-2.9-0.7-4.3
		c0-1.5,0.3-3.1,0.6-4.6c0,0,0,0,0,0c-0.4,1.4-0.7,2.9-0.8,4.4c-0.1,1.5,0.2,3,0.6,4.4c0.3,1.4,0.8,2.8,1.5,4.2
		c0.2,0.3,0.3,0.7,0.4,1c-0.2-0.3-0.5-0.6-0.8-0.8c-0.3-1.3-0.9-2.6-1.3-4c-0.5-1.6-0.6-3.3-0.6-4.9C31.4,20.9,32.3,18.3,33.8,15.9z
		 M32,17.6c-0.1,0.2-0.2,0.4-0.3,0.6c0,0,0-0.1,0-0.1c-0.2-0.4-0.4-0.9-0.6-1.3C31.4,17,31.7,17.3,32,17.6z M25.3,4.3
		C25.3,4.3,25.3,4.3,25.3,4.3c0-0.2,0.1-0.2,0.1-0.3c1.7,2.1,2.8,4.3,3.6,6.9c0.7,2.3,1.3,4.7,2.2,6.9c0,0.1,0.1,0.3,0.1,0.4
		c0.1,0.2,0.1,0.4,0.2,0.6c0,0.1-0.1,0.2-0.1,0.2c-0.2-0.7-0.6-1.4-0.9-2.1c-0.5-1.1-1.1-2.1-1.7-3.1c-1.1-1.7-2.5-3.2-3.4-5.1
		c-0.1-0.8-0.2-1.6-0.3-2.4c0-0.1-0.1-0.1-0.1,0c0,3.4,0.7,6.8,1.7,10c1,3.2,2.5,6.1,3.6,9.3c0,0.6,0.1,1.2,0.2,1.8
		c-0.2-0.3-0.5-0.7-0.7-1c0,0-0.1,0,0,0c0.3,0.6,0.5,1.2,0.9,1.7c0,0.2,0.1,0.4,0.1,0.6c-0.4-0.7-0.8-1.3-1.1-2
		c-0.8-1.6-1.5-3.2-2.3-4.7c0,0,0,0,0,0c0.6,1.6,1.3,3.1,2,4.6c0.6,1.2,1.2,2.6,2,3.7c0.1,0.2,0.2,0.4,0.2,0.5
		c-0.1-0.1-0.2-0.2-0.3-0.3c-0.6-1-1.1-2.1-1.6-3.1c-0.8-1.6-1.6-3.1-2.2-4.7c-1.1-3.1-1.6-6.5-2.3-9.7c0,0,0,0,0,0
		c0.2,1.6,0.5,3.3,0.9,4.9c0.4,1.7,0.7,3.5,1.3,5.1c0.5,1.6,1.4,3.1,2.1,4.6c0.4,0.7,0.7,1.5,1.1,2.2c0,0,0,0,0,0
		c-0.6-1.1-1.2-2.1-1.8-3.2C28,25.3,27.5,24,27,22.7c-0.6-2-1.1-3.9-1.4-6C24.9,12.7,24.4,8.3,25.3,4.3z M30.5,22.5
		c0,0.3-0.1,0.6-0.1,0.9c0,0.2,0,0.4,0,0.5c-0.1-0.1-0.1-0.2-0.2-0.3c0,0,0.1,0,0.1,0c-0.2-1.1-0.5-2.1-0.5-3.1
		c0-0.9,0.1-1.8,0.2-2.6c0.3,0.5,0.6,1.1,0.8,1.7C30.5,20.4,30.4,21.4,30.5,22.5z M30.2,23.5c-0.1-0.2-0.2-0.4-0.3-0.6
		c-0.2-0.4-0.4-0.9-0.6-1.3c-0.6-1.8-0.5-3.5-0.4-5.4c0.3,0.5,0.7,1,1,1.5C29.6,19.6,29.5,21.6,30.2,23.5z M30.8,19.6
		c0.1,0.2,0.2,0.4,0.2,0.6c-0.1,0.4-0.2,0.9-0.3,1.3C30.7,20.9,30.7,20.2,30.8,19.6z M29,16.1c-0.4-0.6-0.8-1.1-1.2-1.7c0,0,0,0,0,0
		c0,0,0,0,0,0c-0.6-0.8-1.2-1.6-1.7-2.4c-0.2-1-0.4-2-0.5-3c0.8,1.7,2,3.2,3.1,4.7c0.6,0.9,1.1,1.9,1.6,2.8c0.4,0.9,0.7,1.8,1.1,2.8
		c-0.1,0.2-0.1,0.3-0.2,0.5C30.6,18.5,29.8,17.3,29,16.1z M28.8,20.5c-0.2-0.5-0.4-0.9-0.6-1.4c-0.4-1.5-0.5-2.9-0.5-4.4
		c0.3,0.4,0.7,0.9,1,1.3c0,0,0,0,0.1,0.1C28.6,17.5,28.4,19,28.8,20.5z M27.8,18.1c-0.1-0.3-0.2-0.5-0.3-0.8
		c-0.2-0.4-0.3-0.9-0.5-1.3c-0.1-0.8-0.2-1.7-0.2-2.5c0.3,0.4,0.6,0.8,0.8,1.1C27.5,15.7,27.6,16.9,27.8,18.1z M26.7,14.9
		c-0.3-0.9-0.5-1.8-0.7-2.6c0.2,0.4,0.5,0.7,0.7,1.1C26.7,13.9,26.7,14.4,26.7,14.9z M25.3,21.8c0.1,0.2,0.2,0.3,0.4,0.5
		c0.1,0.1,0.3,0.3,0.5,0.5c0.5,1.7,1.2,3.4,2,4.8c-0.9-0.9-1.8-1.7-2.8-2.6c-0.1-0.5,0-1.2,0.1-1.7C25.5,22.8,25.4,22.3,25.3,21.8z
		 M24.7,15.9c0.1,0.6,0.2,1.2,0.3,1.9c-0.9-0.8-1.7-1.6-2.5-2.6c0,0-0.1,0,0,0c0.7,1,1.6,2,2.6,2.7c0.3,1.5,0.6,3,1,4.5
		c-0.1-0.1-0.2-0.1-0.2-0.2c-0.2-0.2-0.4-0.5-0.6-0.8c0,0,0,0,0,0c0,0,0,0,0,0c0,0-0.1,0-0.1,0c0.3,1,0.2,1.9,0.1,2.9
		c0,0.2,0,0.4,0,0.5c-0.7-0.6-1.4-1.2-2.1-1.8c-0.2-0.2-0.4-0.4-0.7-0.5c-0.1-1.3,0.3-2.4,0.5-3.6c0.2-1.3-0.1-2.6-0.5-3.8
		c0,0-0.1,0-0.1,0c0.5,1.4,0.6,2.8,0.4,4.2c-0.2,1-0.7,2-0.4,3c-0.3-0.2-0.5-0.4-0.8-0.6c-0.2-0.2-0.4-0.3-0.7-0.5
		c-0.1-0.2-0.3-0.5-0.4-0.7c-0.1-0.4-0.1-0.8-0.1-1.3c0-1,0.1-1.9,0.1-2.9c0.1-1.9,0.1-3.8-0.3-5.6c0.4,0.8,1,1.2,1.9,1.5
		c0.8,0.3,1.7,0.8,2.4,1.4C24.5,14.5,24.6,15.2,24.7,15.9z M18.9,17.9c-0.3-1.1-0.4-2.3-0.5-3.4c-0.2-2.1,0.4-4.1,0.5-6.2
		c0.8,0.5,1.7,0.9,2.5,1.3c1.3,0.7,2,1.6,2.8,2.7c0,0,0,0,0,0c0,0.4,0.1,0.8,0.1,1.2c-0.3-0.3-0.7-0.5-1-0.7
		c-0.4-0.3-0.8-0.5-1.3-0.6c-0.5-0.2-0.9-0.3-1.3-0.7c-0.3-0.3-0.5-0.6-0.7-0.9c0,0,0-0.1,0-0.1c0,0,0,0,0,0c0,0,0,0,0,0
		c0,0,0,0,0,0c0,0,0,0,0,0c0,0,0,0.1,0.1,0.1c0.5,2.2,0.3,4.5,0.1,6.8c0,0.8-0.2,1.8,0,2.7c-0.1-0.3-0.3-0.5-0.4-0.8
		c-0.3-0.8-0.6-1.7-0.9-2.6c0,0,0,0,0,0c0.2,1.1,0.5,2.4,1,3.5C19.6,19.5,19.2,18.8,18.9,17.9z M20.3,20.9
		C20.3,20.9,20.3,20.9,20.3,20.9c-0.1-0.1-0.1-0.2-0.2-0.3C20.2,20.7,20.2,20.8,20.3,20.9z M20.9,22.4c1.5,1.1,3,2.3,4.4,3.5
		c1,1,2,2,3,2.9c3.2,3.1,5.9,6.5,8.2,10.3c-0.5-0.7-1-1.3-1.5-1.9c-1.6-2.1-3.4-4-5.2-5.9c-1.7-1.7-3.4-3.4-5.5-4.7
		c-2-1.3-5-2.3-6.2-4.5c0,0,0,0,0,0c-0.3-0.7-0.6-1.4-0.9-2.2C18.4,20.9,19.8,21.6,20.9,22.4z M19.3,27.5c-1-2.5-1.6-5.1-2.4-7.7
		c0.3,0.8,0.7,1.5,1,2.3c0,0,0,0,0,0c0.1,0.6,0.2,1.3,0.5,1.9c0.4,0.8,0.5,1.6,0.7,2.5c0.1,0.5,0.2,0.9,0.3,1.4
		C19.4,27.7,19.4,27.6,19.3,27.5z M19.2,26.1c-0.1-0.6-0.2-1.3-0.5-1.8c-0.3-0.6-0.5-1.2-0.6-1.8c0.5,1,0.9,2.1,1.5,3.1c0,0,0,0,0,0
		c-0.3-0.7-0.6-1.5-0.9-2.2c0.5,0.7,1.3,1.2,2.1,1.7c0.3,0.3,0.6,0.5,0.8,0.8c-0.4,0-0.8,0.1-1,0.4c0,0,0,0,0,0
		c0.4-0.2,0.8-0.3,1.1-0.3c0.3,0.4,0.7,0.8,1,1.2c0.8,1.2,1.3,2.5,2,3.7c-0.9-0.5-1.7-1.1-2.5-1.7c-0.7-0.6-1.2-1.4-1.8-2.2
		c0-0.1-0.1-0.2-0.1-0.3c0,0-0.1,0-0.1,0c0,0,0,0,0,0.1c0,0,0-0.1,0-0.1c0,0,0,0,0,0c0,0.1,0.1,0.1,0.1,0.2c0,0,0-0.1-0.1-0.1
		c0,0,0,0,0,0c0,0.1,0.1,0.1,0.1,0.2c0.3,1.4,0.7,2.8,1.2,4.1c0.1,0.3,0.3,0.7,0.4,1c-0.3-0.6-0.7-1.2-1-1.9c0,0,0,0,0,0
		c1,2.5,2.6,4.9,4.2,7c1,1.2,2,2.4,3.1,3.5c0.3,0.3,0.6,0.6,0.9,1c-2.1-1.8-3.9-3.9-5.5-6.1c-1.2-1.6-2.2-3.3-3.1-5.1c0,0,0,0,0,0
		c-0.1-0.1-0.1-0.2-0.2-0.3c-0.1-0.1-0.1-0.2-0.2-0.3C19.8,28.6,19.5,27.4,19.2,26.1z M17.2,33.3c0.5,0.7,0.9,1.4,1.4,2.1
		c0,0,0.1,0,0,0c-0.2-0.3-0.4-0.6-0.6-0.9c-0.1-0.1-0.5-1-0.6-1c0.7,0.2,1.4,0.4,2.1,0.6c1.6,0.6,2.5,1.7,3.2,3.2
		c0.6,1.3,1.3,3,2.3,4.2c-1.4-0.9-2.7-1.8-4.1-2.8c-1.2-1.6-2.5-3.1-3.7-4.7c-1.1-1.5-2.9-1.9-4.6-2.2c-0.1,0-0.1,0-0.1,0.1
		c0.2,0.4,0.5,0.6,0.8,0.9c0,0,0,0,0,0c-0.2-0.2-1-0.9-0.4-0.7c0.4,0.1,0.9,0.2,1.3,0.3c1.2,0.3,2.1,1,2.9,2c1,1.3,2,2.7,3.1,4
		c-1.1-0.7-2.1-1.4-3.2-2.1c-0.7-0.4-1.4-0.8-2.1-1.2c-0.9-1-1.9-2-2.9-3c-0.9-0.9-2.2-0.8-3.4-0.6c0,0-0.1,0-0.1,0.1
		c-0.1-0.1-0.2-0.1-0.3-0.2C8.2,31,8.3,31,8.6,31c0.3,0,0.7,0,1,0c0.7,0,1.4,0.1,2,0.1c1.3,0.1,2.7,0.5,4,0.8
		c2.2,0.6,4.3,1.6,6.3,2.6c0.4,0.7,0.9,1.3,1.3,2c1.2,1.6,2.5,3.2,3.9,4.6c0.4,0.8,0.8,1.6,1.4,2.3c-0.8-0.4-1.6-0.8-2.3-1.2
		c-1.6-1.3-2.5-3.3-3.3-5.1c-0.5-1.1-1.1-1.9-2.1-2.6c-1-0.7-2.3-0.9-3.5-1.2C17.2,33.2,17.1,33.2,17.2,33.3z M9.1,31.6
		c-0.4-0.3,0.2-0.2,0.3-0.2c0.3,0,0.6,0,0.9,0c0.9,0,1.5,0.6,2.1,1.2c0.6,0.7,1.3,1.3,1.9,2C12.6,33.6,10.8,32.7,9.1,31.6
		C9.1,31.7,9.1,31.7,9.1,31.6C9.1,31.7,9.1,31.6,9.1,31.6z M28.2,42.5c-0.2-0.3-0.4-0.7-0.6-1.1c0.7,0.7,1.4,1.3,2.2,1.9
		c0.4,0.3,0.9,0.7,1.3,1.1c-0.4-0.2-0.9-0.4-1.3-0.5C29.1,43.5,28.6,43.1,28.2,42.5z M28.8,40.9c-0.1-0.2-0.2-0.4-0.3-0.6
		c0-0.1-0.1-0.2-0.1-0.3c0.8,1,1.7,1.9,2.6,2.8C30.2,42.2,29.5,41.5,28.8,40.9z M28.3,40.4c-0.2-0.2-0.5-0.5-0.7-0.7
		c0.1,0.1,0.3,0.2,0.4,0.3c0,0,0.1,0,0.1,0C28.2,40.1,28.3,40.3,28.3,40.4z M28,39.8c-0.4-0.2-0.7-0.4-1-0.7c-0.5-0.5-1-1-1.4-1.6
		c-0.5-0.6-1-1.3-1.5-1.9c0.1,0.2,0.3,0.3,0.4,0.5c0.9,1.1,1.9,2.3,3.1,3.1C27.8,39.3,27.9,39.5,28,39.8L28,39.8
		C28.1,39.7,28,39.8,28,39.8z M24.6,43.8c-3.4-1.5-6.5-3.5-9.6-5.4c-3.2-2-6.1-4.4-8.8-7.1c-1.9-1.9-4.1-3.8-5.2-6.2
		c0-0.1-0.1-0.3-0.1-0.4c-0.2-0.8,0-1.4,0.5-1.7c0,0,0,0,0.1,0c2.1-0.6,4.3,0.7,6.1,1.6c1.9,1,3.7,2.1,5.6,3.1c0,0,0.1,0,0,0
		c-2-1.3-4-2.6-6.1-3.7c-0.3-0.2-0.7-0.4-1-0.5c0.1,0,0.2,0.1,0.4,0.1c0.1,0,0.1,0,0.1-0.1c1.4,0.7,2.8,1.5,4.1,2.3
		c3.2,1.8,6.2,3.8,9.4,5.5c0.1,0,0.1,0,0.2,0c0.1,0.2,0.2,0.3,0.3,0.5c-0.8-0.6-1.7-1.1-2.5-1.6c-1.3-0.8-2.7-1.5-4.1-2.1
		c0,0,0,0,0,0c1.3,0.7,2.7,1.4,4,2.2c1,0.6,1.9,1.3,2.9,2c0,0,0,0.1,0,0.1c-0.4-0.1-0.8-0.3-1.2-0.3c0,0-0.1,0.1,0,0.1
		c0.4,0.2,0.8,0.3,1.2,0.5c0.1,0,0.1,0.1,0.2,0.1c0.2,0.4,0.5,0.8,0.7,1.2c-1.9-0.9-3.8-1.7-5.8-2.3c-2.5-0.8-5.2-1.2-7.8-0.9
		c0,0-0.1,0,0,0.1c0,0.1,0.1,0.1,0.1,0.1c-0.5-0.3-0.9-0.6-1.4-0.9c0.4,0,0.8-0.2,1.2-0.2c0.5,0,1,0,1.5,0.1
		c1.1,0.1,2.3,0.3,3.4,0.5c2.1,0.4,4.2,0.9,6.3,1.6c0,0,0.1,0,0-0.1c-2.2-0.8-4.4-1.5-6.7-1.9c-1.1-0.2-2.1-0.4-3.2-0.5
		c-0.8-0.1-2-0.2-2.7,0.4c-2-1.4-3.8-3-5.3-5c0,0-0.1,0-0.1,0c3.2,5.7,10.1,8.1,15.3,11.4c2.8,1.8,5.6,3.8,8.4,5.7
		c0.7,0.5,1.4,0.9,2.1,1.4c-0.1,0-0.2-0.1-0.3-0.1c-0.8-0.3-1.6-0.7-2.3-1c0,0,0,0,0,0c1.1,0.7,2.5,1.4,3.8,1.8
		c0.1,0,0.2,0.1,0.2,0.1c-0.3-0.1-0.5-0.1-0.8-0.2c-1-0.3-2-0.8-3-1.2c-2-0.9-3.9-2-5.9-3c0,0,0,0,0,0c1.9,1.2,4,2.2,6,3.2
		c1.5,0.7,3.2,1.7,4.9,1.8c0.1,0.1,0.3,0.1,0.4,0.2c-1.6-0.2-3-0.7-4.5-1.4c-2.1-0.9-4.1-2-6.1-3.1c-3.9-2.1-7.8-4.5-11-7.6
		c0,0,0,0,0,0c3.3,3.2,7.2,5.7,11.2,7.9c2.1,1.1,4.1,2.3,6.3,3.2c1.8,0.8,3.8,1.5,5.8,1.5c0.6,0.2,1.1,0.3,1.7,0.3c0,0,0,0,0,0
		c0.1,0,0.1,0.1,0.2,0.1C30.3,45.8,27.5,45,24.6,43.8z M31.2,43.1c0.2,0.2,0.4,0.3,0.5,0.5c0,0-0.1-0.1-0.1-0.1
		C31.5,43.4,31.4,43.3,31.2,43.1z M33.1,43.8c-2.4-1.9-4.4-3.8-6.3-6.2c0-0.1-0.1,0-0.1,0.1c0.1,0.2,0.3,0.5,0.4,0.7
		c-0.7-0.7-1.5-1.4-2.2-2.1c-0.8-0.9-1.5-1.9-2.2-2.9c-0.4-0.8-0.9-1.7-1.2-2.6c-0.4-1.1-0.7-2.3-1.1-3.5c0.7,1.5,1.5,3.1,2.4,4.5
		c0.5,0.9,1,1.7,1.5,2.5c0.5,0.8,1,1.8,1.6,2.5c0,0,0.1,0,0.1,0c-0.4-0.9-1-1.7-1.5-2.5c-0.5-0.8-1-1.7-1.5-2.5
		c-0.8-1.4-1.6-2.8-2.3-4.2c0.3,0.5,0.7,0.9,1,1.3c0.7,0.8,1.6,1.3,2.5,1.9c0.1,0.1,0.3,0.2,0.4,0.3c0.3,3.1,2.1,5.7,3.9,8.2
		c0,0,0.1,0,0,0c0,0-0.1-0.1-0.1-0.1c0,0,0,0,0,0.1c0,0,0,0,0,0c0,0.1,0.1,0.1,0.2,0.2c1.2,1.2,3.1,1.6,4.6,2.3
		c1.9,0.9,3.5,2.2,5,3.6c0.1,0.1,0.1,0.1,0.2,0.2c0.1,0.2,0.2,0.4,0.3,0.7c-1.3-0.4-2.5-1-3.7-1.7c0,0,0,0,0,0
		c1.2,0.8,2.4,1.7,3.9,1.9c0,0,0,0,0,0c0.1,0.1,0.2,0.3,0.3,0.4c-3.6-1.3-6.4-3.7-9.3-6.2c0,0,0,0,0,0c2.8,2.6,5.8,5.4,9.5,6.6
		c-0.8-0.2-1.7-0.3-2.5-0.7C35.7,45.7,34.4,44.8,33.1,43.8z M27.6,50.4c1.7-0.5,3.4-1.2,5.1-1.6c1.6-0.4,3.1-0.5,4.7-0.6
		c-4.3,0.4-8.3,2.3-12.5,3.3c0,0,0,0,0,0c2.4-0.2,4.8-1.2,7.1-2c1.1-0.3,2.2-0.6,3.3-0.8c-0.3,0.1-0.7,0.2-1,0.4c-0.1,0,0,0.1,0,0.1
		c0.8-0.2,1.5-0.4,2.3-0.6c0.2,0,0.5-0.1,0.7-0.1c0.2,0,0.4,0,0.6,0c0,0.1,0,0.3,0.2,0.3c0.2,0,0.3-0.2,0.2-0.3c0.4,0,0.8,0,1.3,0
		c-0.6,0.1-1.1,0.3-1.6,0.5c-1.5,0.5-2.8,1.2-4.1,2.1c-1.3,0.9-2.6,1.8-4.1,2.3c-0.8,0.3-1.7,0.5-2.6,0.4c-0.2,0-0.4,0-0.6,0
		c-0.3-0.2-0.6-0.3-0.9-0.5c0.1-0.1,0.1-0.2,0.1-0.4c0-0.3-0.3-0.6-0.6-0.6c-0.3,0-0.5,0.2-0.6,0.4c-0.4-0.2-0.7-0.4-1.1-0.6
		c1.2,0.1,2.5-0.2,3.6-0.5c2.3-0.7,4.5-1.6,6.7-2.4c0,0,0-0.1,0-0.1c-2,0.7-4.1,1.3-6.1,2c-1,0.4-2.1,0.6-3.2,0.6
		c-0.7,0-1.4-0.1-2.1-0.3c-0.1-0.1-0.2-0.1-0.3-0.2C24,51.6,26.1,50.9,27.6,50.4z M37.4,58.6c-1-0.2-2-0.3-2.9-0.5
		c-1.1-0.3-2.2-0.6-3.2-1c-2.3-0.9-4.4-2-6.7-3c0,0-0.1,0,0,0.1c1,0.7,2.1,1.2,3.2,1.8c1,0.5,2.1,1,3.1,1.4c1.1,0.5,2.3,0.8,3.5,1.1
		c0.5,0.1,1,0.3,1.5,0.4c-1.1,0.1-2.3,0.1-3.4,0.1c-3.9-0.1-7.7-0.8-11.2-2.5c-2.2-1-6-3.6-6.2-6.5c0.5,0.9,1.4,1.8,2,2.5
		c1.6,1.6,3.5,3.1,5.5,4.1c0.1,0,0.1,0,0-0.1c-3-2-6.3-4.5-7.2-8.2c0-0.1,0.1-0.2,0.1-0.3c0,0,0-0.1,0-0.1c1.3-0.6,3.8,2.4,4.6,3
		c1.2,1,2.6,1.9,4,2.7c2.9,1.6,5.8,3.1,8.9,4c1.8,0.6,3.2,1,5.1,0.9c0.2,0,0.5,0,0.7-0.1C38.5,58.4,38,58.5,37.4,58.6z M40.3,57.3
		c-0.3,0.1-0.7,0.1-1,0.1c1.8-1.1,2.9-3.5,4.7-4.7c0,0,0-0.1,0-0.1c-1.2,0.6-2,1.8-2.8,2.8c-0.5,0.6-1.1,1.1-1.8,1.6
		c-0.3,0.2-0.7,0.4-1,0.5c-0.6,0-1.1,0-1.7,0c0.2-0.1,0.4-0.1,0.6-0.2c1.1-0.5,1.9-1.4,2.7-2.3c0.8-0.9,1.6-1.9,2.5-2.7
		c0.9-0.7,1.8-1,2.8-1.1c0.3,0.1,0.5,0.2,0.8,0.3c-0.5,0.1-0.9,0.3-1.3,0.5c0,0,0,0.1,0,0.1c0.6-0.1,1.2-0.3,1.8-0.5
		c0.1,0,0.2,0,0.2,0.1c-1,0.2-1.7,1.4-2.2,2.2c-0.5,1-1.1,1.8-2,2.5c-0.3,0.2-0.6,0.4-1,0.6C41.2,57.1,40.8,57.2,40.3,57.3z
		 M43.7,56.4c-0.4,0.1-0.7,0.3-1.1,0.4c0.4-0.3,0.8-0.7,1.1-1c1.2-1.3,1.8-3.9,3.9-3.8c0,0,0,0,0,0c-0.6,0.3-1.1,0.6-1.5,1.1
		c-0.5,0.6-0.7,1.5-1.2,2.2C44.6,55.7,44.2,56.1,43.7,56.4z M45.7,55.4c-0.1,0-0.1,0.1-0.2,0.1c0,0,0,0,0,0c0,0,0,0-0.1,0
		c-0.2,0.2-0.5,0.3-0.8,0.4c0.4-0.4,0.7-0.8,0.9-1.4c0.2-0.4,0.3-0.7,0.4-1.1c0.2-0.5,0.7-0.8,1.1-1.1c0.3-0.2,0.7-0.3,1-0.4
		c0.1,0,0.2,0,0.3,0c-0.4,0.2-0.7,0.5-1,0.8c-0.5,0.6-0.6,1.4-1,2C46.2,55,45.9,55.2,45.7,55.4z M47.1,54.4c0.2-0.4,0.4-0.9,0.6-1.3
		c0.3-0.4,0.7-0.7,1.1-0.9c0,0,0.1,0,0.1,0c0.2,0,0.4,0.1,0.7,0.1C48.9,53,48,53.7,47.1,54.4z M50.1,52.7c0.1-0.1,0.2-0.3,0.2-0.4
		c0.1,0,0.2,0,0.2,0C50.4,52.4,50.2,52.5,50.1,52.7z M54.2,52.2c0.1,0,0.2,0,0.3,0c0.1,0.2,0.1,0.3,0.2,0.5
		C54.6,52.6,54.4,52.4,54.2,52.2z M52.7,50.7C52.7,50.7,52.7,50.7,52.7,50.7c-1-0.1-1.9,0.3-2.9,0.3c-1.1,0-2.2-0.2-3.2-0.6
		c-0.3-0.6,0.4-1.8,0.8-2.2c0.5-0.5,1.1-0.8,1.7-1.2c0,0,0,0,0,0c-1.1,0.6-2.2,1-2.6,2.2c-0.1,0.3-0.2,0.8,0,1.1
		c-0.3-0.1-0.5-0.2-0.8-0.3c0,0-0.1,0-0.1-0.1c-1-1.9,1-4.1,2.5-5.3c0,0,0,0,0,0c-1,0.7-2.2,1.7-2.7,2.9c-0.2,0.6-0.4,1.5-0.2,2.2
		c-0.1-0.1-0.2-0.3-0.2-0.4c-0.3-0.8,0.1-1.6,0.4-2.3c0.6-1.2,1.7-2.1,2.9-2.7c1.1-0.6,2.4-0.5,3.4-1.2c0.3-0.2,0.6-0.6,0.8-1
		c0.2,0.4,0.4,0.7,0.7,1c0.8,0.7,2.1,0.7,3.1,1.1c1.3,0.5,2.4,1.5,3.1,2.6c0.4,0.6,0.6,1.4,0.6,2.1c0,0.3-0.1,0.6-0.3,0.9
		c0.2-0.6,0.1-1.4-0.1-2c-0.4-1.3-1.7-2.3-2.8-3.1c0,0,0,0,0,0c1.5,1.2,3.6,3.4,2.5,5.3c-0.3,0.2-0.6,0.3-0.9,0.4
		c0.1-0.4,0.1-0.8,0-1.1c-0.3-1.2-1.6-1.7-2.6-2.3c0,0,0,0,0,0c0.6,0.4,1.2,0.8,1.7,1.2c0.4,0.4,1.1,1.6,0.8,2.2
		c-0.9,0.3-1.8,0.5-2.8,0.5C54.5,51.1,53.6,50.8,52.7,50.7z M55.1,52.2c0.1,0,0.2,0,0.3,0c0.2,0,0.3,0,0.5,0
		c0.9,0.5,1.3,1.3,1.8,2.3C56.8,53.8,55.9,53,55.1,52.2z M59.5,55.7c-0.1,0-0.1-0.1-0.2-0.1c0,0,0,0-0.1,0c0,0,0,0,0,0
		c-0.3-0.2-0.6-0.4-0.9-0.6c-0.5-0.6-0.7-1.4-1.1-2.1c-0.2-0.4-0.6-0.6-1-0.8c0.1,0,0.1,0,0.2,0c0.4,0.1,0.7,0.2,1,0.4
		c0.9,0.5,1.1,1.3,1.6,2.2c0.2,0.5,0.6,1,0.9,1.3C59.9,55.9,59.7,55.8,59.5,55.7z M61.1,56.4c-0.4-0.3-0.7-0.6-1-0.9
		c-0.6-0.7-0.8-1.7-1.4-2.4c-0.4-0.5-0.9-0.9-1.5-1.2c0,0,0,0,0,0c2,0,2.6,2.3,3.7,3.7c0.3,0.4,0.8,0.9,1.3,1.2
		C61.8,56.7,61.5,56.6,61.1,56.4z M65,57.4c-0.6-0.1-1.2-0.2-1.8-0.3c-0.3-0.1-0.6-0.3-0.9-0.5c-0.9-0.6-1.6-1.4-2.1-2.4
		c-0.5-0.9-1.2-2.2-2.3-2.4c0.1,0,0.1,0,0.2-0.1c0.6,0.2,1.2,0.3,1.8,0.5c0,0,0.1-0.1,0-0.1c-0.4-0.2-0.9-0.4-1.4-0.6
		c0.3-0.1,0.5-0.2,0.8-0.3c0.9,0.1,1.7,0.3,2.5,0.8c1.1,0.8,2,1.9,2.9,3c0.7,0.8,1.5,1.7,2.5,2.2c0.3,0.1,0.5,0.2,0.8,0.3
		c-0.5,0-1.1,0.1-1.6,0c-0.4-0.1-0.8-0.3-1.1-0.5c-0.7-0.4-1.3-1-1.8-1.6c-0.9-1-1.6-2.1-2.8-2.8c0,0-0.1,0,0,0.1
		c1.8,1.2,2.9,3.6,4.7,4.7C65.3,57.4,65.2,57.4,65,57.4z M84.3,51.1c0.8-0.6,3.5-3.9,4.9-3.3c0,0,0,0,0,0.1c0.1,0.1,0.1,0.2,0.1,0.3
		c-0.9,3.7-4.3,6.2-7.2,8.2c0,0,0,0.1,0,0.1c2.1-1,3.9-2.5,5.5-4.1c0.6-0.6,1.5-1.5,2-2.4c-0.2,2.7-3.6,5.1-5.7,6.2
		c-3.6,1.9-7.6,2.5-11.7,2.7c-1.2,0.1-2.4,0-3.5-0.1c0.5-0.1,1.1-0.3,1.6-0.4c1.2-0.3,2.3-0.7,3.5-1.1c1.1-0.4,2.1-1,3.1-1.4
		c1.1-0.5,2.2-1,3.2-1.8c0,0,0-0.1,0-0.1c-2.1,1-4.2,2-6.4,2.9c-1,0.4-2.1,0.8-3.2,1c-1.1,0.3-2.2,0.4-3.3,0.6
		c-0.4-0.1-0.7-0.1-1.1-0.2c1.8,0.1,3.5-0.1,5-0.7c1.5-0.6,3-0.9,4.4-1.6c1.5-0.8,3.1-1.6,4.6-2.4C81.6,53,83,52.1,84.3,51.1z
		 M71.6,48.7c1.7,0.4,3.4,1,5.1,1.6c1.6,0.5,3.9,1.4,5.9,1.2c-0.1,0.1-0.2,0.1-0.3,0.2c-0.6,0.1-1.2,0.3-1.9,0.3
		c-1.1,0-2.1-0.2-3.2-0.5c-2.1-0.7-4.2-1.4-6.3-2.1c0,0-0.1,0,0,0.1c2.2,0.8,4.5,1.6,6.7,2.4c1.1,0.4,2.4,0.6,3.6,0.5
		c-0.4,0.2-0.7,0.4-1.1,0.6c-0.1-0.3-0.3-0.5-0.6-0.5c-0.3,0-0.6,0.3-0.6,0.6c0,0.1,0.1,0.3,0.1,0.4c-0.3,0.1-0.6,0.3-0.8,0.4
		c-0.2,0-0.3,0-0.5,0c-0.9,0.1-1.8-0.1-2.6-0.3c-1.5-0.5-2.8-1.4-4.1-2.3c-1.3-0.9-2.6-1.5-4.1-2.1c-0.6-0.2-1.2-0.4-1.9-0.6
		c0.4,0,0.8,0,1.2,0c0,0.1,0,0.3,0.2,0.3c0.2,0,0.3-0.2,0.2-0.3c0.2,0,0.4,0,0.6,0c0.1,0,0.3,0,0.4,0.1c0.9,0.1,1.7,0.4,2.6,0.6
		c0.1,0,0.1-0.1,0-0.1c-0.3-0.1-0.7-0.3-1-0.4c1.1,0.2,2.1,0.5,3.1,0.8c2.4,0.7,4.8,1.8,7.3,2c0,0,0,0,0,0c-4.2-1-8.2-2.9-12.5-3.3
		C68.8,48.3,70.2,48.4,71.6,48.7z M67.7,46.4c-0.9,0.4-1.7,0.6-2.6,0.8c3.8-1.1,6.9-4,9.7-6.6c0,0,0,0,0,0c-2.9,2.5-5.8,4.9-9.3,6.2
		c0.1-0.1,0.2-0.3,0.3-0.4c0,0,0,0,0.1,0c1.4-0.2,2.7-1.1,3.9-1.9c0,0,0,0,0,0c-1.2,0.7-2.4,1.3-3.7,1.7c0.1-0.2,0.2-0.4,0.3-0.6
		c0.1-0.1,0.2-0.2,0.3-0.3c1.5-1.4,3-2.5,4.8-3.5c1.5-0.8,3.6-1.2,4.8-2.4c0.1,0,0.1-0.1,0.2-0.1c0,0,0,0,0,0c0,0,0,0,0-0.1
		c0,0-0.1,0.1-0.1,0.1c0,0,0,0.1,0,0c1.8-2.5,3.6-5,3.9-8.2c0.1-0.1,0.3-0.2,0.4-0.3c0.8-0.5,1.6-1,2.3-1.7c0.4-0.4,0.8-0.9,1.1-1.4
		c-0.7,1.4-1.5,2.7-2.3,4.1c-0.5,0.9-1,1.7-1.5,2.5c-0.5,0.8-1.1,1.6-1.5,2.5c0,0,0,0.1,0.1,0c0.6-0.7,1-1.5,1.5-2.3
		c0.5-0.8,1-1.7,1.5-2.5c0.9-1.6,1.7-3.1,2.5-4.8c-0.4,1.2-0.7,2.3-1.1,3.5c-0.3,0.9-0.7,1.7-1.1,2.5c-0.6,1-1.3,2-2.1,2.9
		c-0.7,0.8-1.6,1.5-2.4,2.3c0.2-0.2,0.3-0.5,0.4-0.7c0-0.1,0-0.1-0.1-0.1c-1.9,2.4-3.9,4.3-6.3,6.2C70.4,44.8,69.1,45.7,67.7,46.4z
		 M103.9,25c-1.1,2.3-3.1,4.1-4.9,6c-2.7,2.7-5.5,5.1-8.7,7.1c-3.1,2-6.3,3.9-9.6,5.5c-3,1.4-6.1,2.2-9.3,2.4c0.1,0,0.1-0.1,0.2-0.1
		c0,0,0,0,0,0c0.6-0.1,1.1-0.2,1.7-0.3c2,0.1,4-0.7,5.8-1.5c2.1-0.9,4.2-2.1,6.3-3.2c4-2.2,7.8-4.7,11.2-7.9c0,0,0,0,0,0
		c-3.3,3.1-7.1,5.5-11,7.6c-1.9,1-3.9,2-5.8,2.9c-1.6,0.7-3.1,1.3-4.8,1.5c0.1-0.1,0.3-0.1,0.4-0.2c1.7-0.1,3.5-1,4.9-1.8
		c2-1,4.1-2.1,6-3.2c0,0,0,0,0,0c-1.9,1-3.8,2-5.7,2.9c-1,0.5-2,0.9-3,1.3c-0.3,0.1-0.7,0.2-1,0.3c0.1,0,0.1-0.1,0.2-0.1
		c1.3-0.4,2.8-1.1,3.9-1.8c0,0,0,0,0,0c-0.8,0.3-1.5,0.7-2.3,1c-0.1,0.1-0.3,0.1-0.4,0.1c0.6-0.4,1.2-0.8,1.8-1.1
		c2.8-1.8,5.5-3.9,8.3-5.6c3-1.8,6.1-3.5,9.1-5.4c2.6-1.6,5.1-3.6,6.6-6.3c0,0,0-0.1-0.1,0c-1.4,2-3.3,3.6-5.3,5c0,0,0,0,0,0
		c-0.6-0.6-1.7-0.4-2.4-0.4c-1.1,0.1-2.1,0.3-3.2,0.5c-2.4,0.4-4.7,1.1-7,2c0,0,0,0.1,0,0.1c2-0.7,4.2-1.2,6.3-1.6
		c1.1-0.2,2.3-0.4,3.4-0.5c0.5-0.1,1-0.1,1.5-0.1c0.4,0,0.8,0.2,1.2,0.2c-0.5,0.3-1,0.7-1.5,1c0.1-0.1,0.1-0.1,0.2-0.2
		c0,0,0-0.1,0-0.1c-2.6-0.2-5.1,0.1-7.6,0.8c-2,0.6-4.1,1.4-6,2.3c0.2-0.4,0.5-0.8,0.7-1.2c0.1,0,0.1-0.1,0.2-0.1
		c0.4-0.2,0.8-0.3,1.2-0.5c0,0,0-0.1,0-0.1c-0.4,0.1-0.8,0.2-1.2,0.3c0,0,0-0.1,0-0.1c1-0.7,1.9-1.3,2.9-2c1.3-0.8,2.7-1.5,4-2.2
		c0,0,0,0,0,0c-1.4,0.6-2.8,1.3-4.1,2.1c-0.9,0.5-1.7,1-2.5,1.6c0.1-0.2,0.2-0.3,0.3-0.5c0.1,0,0.1,0,0.2,0c3.2-1.7,6.2-3.7,9.4-5.5
		c1.4-0.8,2.7-1.6,4.1-2.3c0,0,0.1,0.1,0.1,0.1c0.1,0,0.2-0.1,0.3-0.1c-0.3,0.1-0.5,0.3-0.7,0.4c-2.2,1.1-4.3,2.5-6.4,3.8
		c0,0,0,0.1,0,0c1.9-1.1,3.7-2.2,5.6-3.1c1.8-0.9,4-2.2,6.1-1.6c0,0,0.1,0,0.1,0c0.3,0.2,0.5,0.5,0.6,1.1
		C104,24.3,104,24.7,103.9,25z"/>
	<path class="st0" d="M81.6,53.4c1.2-0.5,2.3-1.3,3.3-2.2c0.6-0.5,1.1-1,1.6-1.5c0.2-0.2,0.5-0.5,0.7-0.7c0.2-0.2,0.4-0.3,0.6-0.4
		c0.1,0,0.1-0.1,0.2-0.1c0.4-0.3,0.8-0.2,1.1,0.3c0,0,0.1,0,0.1,0c0.1-0.3,0-0.7-0.4-0.8c-0.8-0.1-1.5,0.6-2,1.1
		c-0.8,0.7-1.5,1.5-2.4,2.1c-0.9,0.7-1.9,1.3-2.8,1.9C81.5,53.3,81.5,53.4,81.6,53.4z"/>
	<path class="st0" d="M81.2,53.8c0.2,0,0.2-0.4,0-0.4C80.9,53.5,80.9,53.8,81.2,53.8z"/>
	<path class="st0" d="M80.6,54.1c0.2,0,0.2-0.4,0-0.4C80.4,53.8,80.4,54.1,80.6,54.1z"/>
	<path class="st0" d="M67.9,52.1c-0.1,0-0.1,0-0.1,0c-0.1,0-0.1,0.1-0.1,0.1c0,0,0,0.1,0.1,0.1C67.9,52.5,68.1,52.1,67.9,52.1z"/>
	<path class="st0" d="M68.2,52.4c-0.1-0.1-0.2,0-0.1,0.1c0,0,0.1,0,0.1,0C68.3,52.5,68.3,52.4,68.2,52.4z"/>
	<path class="st0" d="M67.5,51.8C67.5,51.8,67.4,51.8,67.5,51.8C67.4,51.8,67.4,51.9,67.5,51.8C67.4,51.9,67.4,51.9,67.5,51.8
		c-0.1,0.2,0,0.2,0.1,0.2C67.7,51.9,67.6,51.8,67.5,51.8z"/>
	<path class="st0" d="M60.6,52.4c-0.1,0-0.1,0.2,0,0.2C60.7,52.6,60.7,52.4,60.6,52.4z"/>
	<path class="st0" d="M60.3,52.2C60.2,52.2,60.2,52.2,60.3,52.2C60.2,52.2,60.2,52.2,60.3,52.2c-0.1,0.1-0.1,0.2,0,0.2
		C60.3,52.4,60.3,52.3,60.3,52.2C60.3,52.2,60.3,52.2,60.3,52.2z"/>
	<path class="st0" d="M64,50.8c-0.1,0-0.1,0.2,0,0.2C64.1,51,64.1,50.8,64,50.8z"/>
	<path class="st0" d="M91.3,27.9C91.3,27.9,91.3,27.9,91.3,27.9c-0.3-0.1-0.3,0.3,0,0.2c0,0,0,0,0,0C91.4,28.1,91.4,28,91.3,27.9z"
		/>
	<path class="st0" d="M78.4,37c-0.1,0-0.2,0.1-0.1,0.2c0,0,0,0,0,0c0,0,0.1,0,0.1,0c0,0,0,0,0,0C78.5,37.2,78.5,37,78.4,37z"/>
	<path class="st0" d="M78.1,37.4c-0.1,0-0.1,0.2,0,0.2C78.2,37.6,78.2,37.4,78.1,37.4z"/>
	<path class="st0" d="M72.3,19.6c0.1,0.1,0.2,0,0.2-0.1c0,0,0,0,0,0c0.1-0.1-0.2-0.3-0.2-0.1C72.2,19.4,72.2,19.5,72.3,19.6z"/>
	<path class="st0" d="M79.5,6C79.5,6.1,79.5,6.1,79.5,6c-0.1,0.2,0.3,0.2,0.2,0c0,0,0,0,0,0C79.7,5.9,79.6,5.9,79.5,6z"/>
	<path class="st0" d="M76.6,9.7c0.3-1.1,0.9-2,1.5-2.9c0.3-0.5,0.6-1,0.9-1.4c0.1-0.2,0.3-0.7,0.4-0.2c0,0.3,0.1,0.5,0.2,0.7
		c0,0,0,0,0,0c0.1-0.4,0-0.8-0.1-1.2c0-0.1-0.1-0.1-0.2-0.1C79.1,4.7,79,5,78.8,5.3c-0.3,0.6-0.7,1.1-1,1.7
		C77.3,7.8,76.8,8.7,76.6,9.7C76.5,9.7,76.6,9.7,76.6,9.7z"/>
	<path class="st0" d="M84.5,9.4c0.4-0.1,0.8-0.2,1.1-0.4c0.1,1.3,0.5,2.6,0.4,4c0,0,0,0,0,0c0.2-1.4-0.2-2.8-0.2-4.2
		c0-0.1-0.1-0.1-0.2-0.1C85.3,8.9,84.8,9.1,84.5,9.4C84.4,9.4,84.4,9.4,84.5,9.4z"/>
	<path class="st0" d="M64.7,42.1C64.7,42,64.7,42,64.7,42.1c0-0.1,0-0.2-0.1-0.2c-0.1,0-0.1,0-0.2,0.1c-0.1,0.1,0,0.3,0.1,0.3
		c0.1,0,0.1,0,0.2,0C64.7,42.2,64.7,42.1,64.7,42.1z"/>
	<path class="st0" d="M64.3,41.4C64.3,41.4,64.3,41.4,64.3,41.4c-0.2-0.1-0.3,0.2-0.1,0.3C64.4,41.7,64.5,41.4,64.3,41.4z"/>
	<path class="st0" d="M55.1,46.8c-0.6-0.2-1.2-0.4-1.8-0.8c-0.3-0.2-0.5-0.5-0.7-0.9c-0.1-0.2-0.1-0.4-0.2-0.6
		c-0.1-0.1-0.1-0.3-0.1-0.5c-0.2,0.7-0.3,1.4-0.9,1.9c-0.5,0.4-1.2,0.6-1.8,0.8c0,0,0,0.1,0,0c0.7-0.2,1.6-0.2,2.2-0.8
		c0.2-0.2,0.4-0.4,0.5-0.6c0.1,0.2,0.3,0.5,0.5,0.6C53.5,46.6,54.3,46.7,55.1,46.8C55.1,46.9,55.1,46.8,55.1,46.8z"/>
	<path class="st0" d="M55.3,46.9c-0.1,0-0.1,0.2,0,0.2C55.5,47.1,55.5,46.9,55.3,46.9z"/>
	<path class="st0" d="M58.2,42.7c0,0,0.1,0,0.1,0c0,0,0,0,0-0.1c0,0,0,0,0,0c0,0,0-0.1,0-0.1c0,0,0,0,0,0
		C58.2,42.5,58.1,42.7,58.2,42.7z"/>
	<path class="st0" d="M62.6,45.4c-0.2,0-0.4,0.2-0.4,0.4c0,0.2,0.2,0.4,0.4,0.4c0.2,0,0.4-0.2,0.4-0.4C63,45.6,62.8,45.4,62.6,45.4z
		"/>
	<path class="st0" d="M62.4,43.9c0-0.3-0.2-0.5-0.5-0.5c-0.3,0-0.5,0.2-0.5,0.5c0,0.3,0.2,0.5,0.5,0.5
		C62.2,44.4,62.4,44.2,62.4,43.9z"/>
	<circle class="st0" cx="60.7" cy="42.3" r="0.6"/>
	<path class="st0" d="M59.1,40.6c-0.9,0-0.9,1.4,0,1.4C60,41.9,60,40.6,59.1,40.6z"/>
	<path class="st0" d="M57.3,39.9C57.3,39.9,57.3,39.9,57.3,39.9c-0.2,0-0.4,0.1-0.5,0.3c-0.1,0.2-0.1,0.4,0,0.5c0,0,0,0,0,0
		c0.2,0.3,0.6,0.3,0.8,0.1c0.1-0.1,0.2-0.3,0.2-0.4C57.8,40.2,57.6,39.9,57.3,39.9z"/>
	<path class="st0" d="M55.8,39.2c-0.2,0-0.4,0.2-0.4,0.4c0,0.2,0.2,0.4,0.4,0.4s0.4-0.2,0.4-0.4C56.2,39.4,56,39.2,55.8,39.2z"/>
	<path class="st0" d="M54.4,38.3c-0.4,0-0.4,0.6,0,0.6C54.8,38.9,54.8,38.3,54.4,38.3z"/>
	<path class="st0" d="M53.5,37.1c-0.3,0-0.3,0.5,0,0.5C53.9,37.7,53.9,37.1,53.5,37.1z"/>
	<path class="st0" d="M52.5,34.3c0,0-0.1,0-0.1,0c-0.1,0-0.2,0.1-0.2,0.2C52,34.9,52.8,34.9,52.5,34.3
		C52.6,34.4,52.6,34.3,52.5,34.3z"/>
	<path class="st0" d="M77.7,53.4c0.8,0,0.8-1.2,0-1.2C76.9,52.2,76.9,53.4,77.7,53.4z"/>
	<circle class="st0" cx="75.9" cy="52.5" r="0.5"/>
	<circle class="st0" cx="74.2" cy="51.7" r="0.5"/>
	<path class="st0" d="M72.6,51.4c0.2,0.1,0.4,0,0.5-0.2c0.1-0.2,0.1-0.4-0.1-0.6c-0.2-0.2-0.6-0.2-0.7,0.1
		C72.2,51,72.3,51.4,72.6,51.4z"/>
	<path class="st0" d="M70.5,50.2C70.5,50.2,70.5,50.2,70.5,50.2c0.1,0.2,0.2,0.3,0.4,0.3c0.2-0.1,0.3-0.3,0.2-0.5c0,0,0,0,0,0
		C71,49.7,70.4,49.9,70.5,50.2z"/>
	<path class="st0" d="M69.3,49.1c-0.3,0-0.3,0.5,0,0.5C69.6,49.6,69.6,49.1,69.3,49.1z"/>
	<path class="st0" d="M67.9,48.7c-0.3,0-0.3,0.4,0,0.4C68.2,49.2,68.2,48.7,67.9,48.7z"/>
	<path class="st0" d="M56.9,25.9C56.9,25.9,56.9,25.8,56.9,25.9c-0.1-0.2-0.1-0.2-0.2-0.1c0,0,0,0.1,0,0.1C56.7,26,57,26,56.9,25.9z
		"/>
	<path class="st0" d="M56.7,25.1c0.1-0.2-0.2-0.3-0.3-0.1C56.4,25.2,56.6,25.3,56.7,25.1z"/>
	<path class="st0" d="M55.9,24c-0.2,0-0.2,0.3,0,0.3C56.1,24.4,56.1,24,55.9,24z"/>
	<path class="st0" d="M55.1,23.1c-0.2,0-0.2,0.4,0,0.4C55.4,23.5,55.4,23.1,55.1,23.1z"/>
	<path class="st0" d="M54.1,22.3c-0.2,0-0.2,0.4,0,0.4C54.3,22.6,54.3,22.3,54.1,22.3z"/>
	<path class="st0" d="M53.2,21.3c-0.2,0-0.3,0.4,0,0.4C53.5,21.7,53.5,21.3,53.2,21.3z"/>
	<path class="st0" d="M58.2,23.3C58.2,23.1,58,23.3,58.2,23.3C58.2,23.3,58.2,23.3,58.2,23.3C58.2,23.4,58.3,23.3,58.2,23.3
		C58.2,23.3,58.2,23.3,58.2,23.3z"/>
	<path class="st0" d="M58.2,22.7c0.2,0,0.2-0.3,0-0.3C58,22.3,58,22.7,58.2,22.7z"/>
	<path class="st0" d="M58,21.6c0.2,0,0.2-0.3,0-0.3C57.8,21.2,57.8,21.6,58,21.6z"/>
	<path class="st0" d="M57.6,20.6c0,0,0.1,0,0.1,0c0,0,0,0,0,0c0.1-0.1,0.1-0.2,0-0.2c-0.1,0-0.1,0-0.1,0
		C57.5,20.4,57.5,20.5,57.6,20.6C57.6,20.6,57.6,20.6,57.6,20.6z"/>
	<path class="st0" d="M56.9,19.6c0.1,0.1,0.2,0,0.3-0.1c0.1-0.1,0-0.2-0.1-0.3c-0.1,0-0.2,0-0.2,0.1C56.8,19.4,56.9,19.5,56.9,19.6z
		"/>
	<path class="st0" d="M56.3,18.7c0.3,0,0.3-0.4,0-0.4C56,18.3,56,18.7,56.3,18.7z"/>
	<path class="st0" d="M55.4,18c0.3,0,0.3-0.4,0-0.4C55.2,17.6,55.2,18,55.4,18z"/>
	<path class="st0" d="M54.7,17.4c0.3,0,0.3-0.4,0-0.4C54.4,16.9,54.4,17.4,54.7,17.4z"/>
	<path class="st0" d="M53.8,16.6c0.3,0,0.3-0.4,0-0.4C53.5,16.1,53.5,16.6,53.8,16.6z"/>
	<path class="st0" d="M53.1,15.8c0.3,0,0.3-0.4,0-0.4C52.9,15.3,52.9,15.8,53.1,15.8z"/>
	<path class="st0" d="M52.4,14.8c0.1,0,0.1,0,0.1,0c0.3-0.1,0.2-0.5-0.1-0.5c-0.1,0-0.1,0-0.1,0C52,14.4,52.1,14.8,52.4,14.8z"/>
	<path class="st0" d="M52.4,20C52.4,20,52.4,20,52.4,20c-0.1,0-0.2,0-0.2,0.1c-0.1,0.1-0.1,0.4,0.2,0.4c0,0,0,0,0.1,0
		c0.1,0,0.1,0,0.2-0.1C52.7,20.3,52.7,20,52.4,20z"/>
	<path class="st0" d="M52.3,27.6c0,0,0.1,0,0.1,0c0,0,0,0,0.1,0c0.3,0,0.3-0.4,0-0.4c0,0-0.1,0-0.1,0c0,0,0,0-0.1,0
		C52,27.2,52,27.6,52.3,27.6z"/>
	<path class="st0" d="M52.9,28.3c0.1,0,0.2-0.1,0.1-0.2c0,0,0,0,0,0c0-0.1-0.1-0.1-0.2,0c0,0,0,0,0,0C52.7,28.1,52.8,28.3,52.9,28.3
		z"/>
	<path class="st0" d="M53.6,28.9c0.1,0,0.2-0.1,0.1-0.2c0,0,0,0,0,0c-0.1-0.1-0.1-0.1-0.2,0c0,0,0,0,0,0
		C53.4,28.7,53.5,28.9,53.6,28.9z"/>
	<path class="st0" d="M54.2,29.2c0.2,0,0.2-0.2,0-0.2C54,29,54,29.2,54.2,29.2z"/>
	<path class="st0" d="M54.8,29.6C54.7,29.6,54.7,29.6,54.8,29.6c-0.1,0-0.1,0-0.1,0C54.7,29.6,54.7,29.6,54.8,29.6
		C54.7,29.8,54.9,29.6,54.8,29.6z"/>
	<path class="st0" d="M59.3,19.2c0.2,0,0.2-0.3,0-0.3C59.1,18.8,59.1,19.2,59.3,19.2z"/>
	<path class="st0" d="M58.8,18C58.8,18,58.8,18,58.8,18C58.9,18,58.9,18,58.8,18c0.2-0.1,0.2-0.2,0.2-0.2c0,0,0,0,0,0
		c-0.1-0.1-0.2-0.1-0.3,0C58.6,17.9,58.6,18,58.8,18z"/>
	<path class="st0" d="M58.3,17.1c0.3,0,0.3-0.4,0-0.4C58,16.7,58,17.1,58.3,17.1z"/>
	<path class="st0" d="M57.9,15.7c-0.2-0.1-0.4,0.1-0.3,0.3C57.8,16.4,58.2,15.9,57.9,15.7z"/>
	<path class="st0" d="M57.2,15.1c0.1-0.1,0-0.4-0.2-0.4c0,0,0,0,0,0c-0.1,0-0.2,0.1-0.2,0.2c0,0,0,0,0,0
		C56.9,15.2,57.1,15.3,57.2,15.1z"/>
	<path class="st0" d="M56.4,14.3c0.3,0,0.3-0.5,0-0.5C56.1,13.9,56.1,14.3,56.4,14.3z"/>
	<path class="st0" d="M55.8,13.6c0.3,0,0.3-0.5,0-0.5C55.5,13.1,55.5,13.6,55.8,13.6z"/>
	<path class="st0" d="M54.9,12.7c0.1,0.1,0.3,0.1,0.4,0c0.1-0.1,0.1-0.2,0-0.3c0,0,0,0,0,0c0,0-0.1-0.1-0.1-0.1
		c-0.2-0.1-0.3,0-0.4,0.2c0,0,0,0,0,0C54.7,12.5,54.8,12.6,54.9,12.7z"/>
	<path class="st0" d="M54.2,11.6c0.4,0,0.4-0.6,0-0.6S53.8,11.6,54.2,11.6z"/>
	<path class="st0" d="M53.5,10.7c0.5,0,0.5-0.7,0-0.7C53,10,53,10.7,53.5,10.7z"/>
	<path class="st0" d="M51.9,9.1c0,0.3,0.2,0.5,0.5,0.5c0,0,0,0,0,0c0,0,0.1,0,0.1,0c0.3,0,0.5-0.2,0.5-0.5c0-0.3-0.2-0.5-0.5-0.5
		c0,0,0,0,0,0c0,0-0.1,0-0.1,0C52.1,8.6,51.9,8.8,51.9,9.1z"/>
	<path class="st0" d="M64.9,3.8c0.8-0.7,1.5-1.5,2.3-2.2c0.4-0.4,0.9-0.8,1.5-0.3c0.2,0.1,0.3,0.3,0.5,0.5c0.4,0.5,0.7,1,1,1.5
		c0,0,0,0,0,0c-0.3-0.8-1.1-2.4-2.2-2.4c-0.5,0-1.1,0.7-1.4,1C66,2.5,65.4,3.1,64.9,3.8C64.8,3.8,64.8,3.9,64.9,3.8z"/>
	<path class="st0" d="M58.2,4.9c0.5-0.4,1-0.9,1.6-1.3c0.9-0.6,1.9,0.5,2.5,1c0,0,0,0,0,0c-0.6-0.5-1.2-1.2-2-1.3
		c-0.3,0-0.6,0.2-0.9,0.4C59.1,4,58.6,4.4,58.2,4.9C58.2,4.8,58.2,4.9,58.2,4.9z"/>
	<path class="st0" d="M59.7,7.8c-0.4,0.6-0.8,1.2-1.2,1.8c0,0.1,0.1,0.1,0.1,0.1C59,9,59.4,8.3,59.9,7.7c0.5-0.6,1.7,1.7,1.9,2.1
		c0,0,0.1,0,0,0c-0.3-0.6-0.6-1.2-0.9-1.7c-0.1-0.2-0.4-0.7-0.7-0.7C60,7.4,59.8,7.5,59.7,7.8z"/>
	<path class="st0" d="M57.5,22.5c-0.4,0.2-0.7,0.8-0.7,1.2c0,0,0.1,0.1,0.1,0c0.1-0.2,0.1-0.4,0.2-0.6
		C57.3,22.9,57.4,22.7,57.5,22.5C57.6,22.5,57.6,22.4,57.5,22.5z"/>
	<path class="st0" d="M56.7,15.8c-0.3,0.4-0.7,0.9-0.7,1.4c0,0,0,0,0.1,0c0.1-0.2,0.1-0.4,0.2-0.6C56.5,16.4,56.6,16.1,56.7,15.8
		C56.8,15.8,56.8,15.8,56.7,15.8z"/>
	<path class="st0" d="M76.3,38.3c0.5-1.1,0.9-2.2,1-3.4c0-0.9,0.1-1.6,0.9-2.2c0.4-0.3,1-0.2,1,0.4c0,0.5-0.2,0.9-0.4,1.3
		c0,0,0,0,0,0c0.3-0.5,0.8-1.5,0.4-2c-0.2-0.4-1.1,0.1-1.4,0.3c-0.7,0.5-0.8,1.2-0.8,2C77,35.9,76.6,37.1,76.3,38.3
		C76.2,38.3,76.3,38.3,76.3,38.3z"/>
	<path class="st0" d="M72.9,36.2c-0.6,0.2-1.1,0.9-1.5,1.3c-0.5,0.5-1,0.9-1.2,1.6c-0.2,0.7,0.3,1.4,0.2,2.1c0,0,0.1,0,0.1,0
		c0.3-0.9-0.4-1.8,0.3-2.7c0.3-0.4,0.7-0.7,1-1c0.2-0.2,0.3-0.4,0.5-0.5c0.1-0.1,1.1-1.2,1.1-0.2c0,0,0,0,0.1,0
		C73.4,36.4,73.2,36.1,72.9,36.2z"/>
	<path class="st0" d="M78.1,36.8c1.1-1.4,1.8-2.9,2.3-4.6c0.1-0.6,0.2-1,0.7-1.4c0.2-0.2,1.2-0.9,0.9-0.2c-0.4,0.9-1,1.8-1.4,2.7
		c0,0,0,0,0,0c0.8-0.9,1.3-2,1.7-3.1c0-0.1,0-0.1-0.1-0.1c-0.6,0.1-1.2,0.4-1.6,0.8c-0.4,0.3-0.4,1-0.5,1.4
		c-0.2,0.9-0.6,1.7-0.9,2.5C78.9,35.6,78.4,36.1,78.1,36.8C78,36.8,78.1,36.9,78.1,36.8z"/>
	<path class="st0" d="M85.6,32c-0.1-0.1-0.2,0-0.2,0.1c0,0.1,0.1,0.1,0.2,0.1c0,0,0,0,0,0C85.6,32.1,85.6,32.1,85.6,32
		C85.6,32,85.6,32,85.6,32z"/>
	<path class="st0" d="M73.5,16c0.1-0.1,0-0.3-0.1-0.3c-0.2,0-0.4,0.2-0.2,0.4C73.2,16.2,73.4,16.2,73.5,16z"/>
	<path class="st0" d="M62.9,3.2c0-0.1,0-0.2,0-0.3c0-0.1-0.1-0.1-0.2,0c0,0.1,0,0.2,0,0.3C62.6,3.4,62.9,3.4,62.9,3.2z"/>
</g>
</svg>
